<?xml version="1.0" standalone="no"?>
<!DOCTYPE svg PUBLIC "-//W3C//DTD SVG 1.1//EN" "http://www.w3.org/Graphics/SVG/1.1/DTD/svg11.dtd" >
<svg xmlns="http://www.w3.org/2000/svg" xmlns:xlink="http://www.w3.org/1999/xlink" version="1.1">
<metadata>
Created by FontForge 20170731 at Sun Feb  1 03:41:16 2009
 By Aleksey,,,
Copyright Giegue 2009
</metadata>
<defs>
<font id="Apple-Kid" horiz-adv-x="384" >
  <font-face 
    font-family="Apple Kid"
    font-weight="400"
    font-stretch="normal"
    units-per-em="1024"
    panose-1="0 0 4 0 0 0 0 0 0 0"
    ascent="819"
    descent="-205"
    x-height="384"
    cap-height="512"
    bbox="0 -192 640 640"
    underline-thickness="51"
    underline-position="26"
    unicode-range="U+000D-201D"
  />
<missing-glyph horiz-adv-x="640" 
d="M320 90v102h-102v-102h102zM421 209v102h-203v-102h203zM320 328v102h-102v-102h102zM421 447v101h-101q-43 0 -72 -29q-30 -31 -30 -72h203zM0 0v640h640v-640h-640z" />
    <glyph glyph-name=".notdef" horiz-adv-x="640" 
d="M320 90v102h-102v-102h102zM421 209v102h-203v-102h203zM320 328v102h-102v-102h102zM421 447v101h-101q-43 0 -72 -29q-30 -31 -30 -72h203zM0 0v640h640v-640h-640z" />
    <glyph glyph-name="glyph1" horiz-adv-x="0" 
 />
    <glyph glyph-name="glyph1" horiz-adv-x="0" 
 />
    <glyph glyph-name="uni000D" unicode="&#xd;" horiz-adv-x="128" 
 />
    <glyph glyph-name="space" unicode=" " horiz-adv-x="128" 
 />
    <glyph glyph-name="exclam" unicode="!" horiz-adv-x="128" 
d="M0 0v64h64v-64h-64zM0 128v384h64v-384h-64z" />
    <glyph glyph-name="quotedbl" unicode="&#x22;" horiz-adv-x="256" 
d="M0 384v192h64v-192h-64zM128 384v192h64v-192h-64z" />
    <glyph glyph-name="numbersign" unicode="#" 
d="M192 192v128h-64v-128h64zM64 0v128h-64v64h64v128h-64v64h64v128h64v-128h64v128h64v-128h64v-64h-64v-128h64v-64h-64v-128h-64v128h-64v-128h-64z" />
    <glyph glyph-name="dollar" unicode="$" 
d="M0 64v128h64v-128h-64zM256 64v192h64v-192h-64zM0 320v128h64v-128h-64zM256 384v64h64v-64h-64zM64 0v64h64v192h-64v64h64v128h-64v64h192v-64h-64v-128h64v-64h-64v-192h64v-64h-192z" />
    <glyph glyph-name="percent" unicode="%" 
d="M0 0v64h64v-64h-64zM192 0v128h128v-128h-128zM64 64v128h64v-128h-64zM128 192v128h64v-128h-64zM192 320v128h64v-128h-64zM0 384v128h128v-128h-128zM256 448v64h64v-64h-64z" />
    <glyph glyph-name="ampersand" unicode="&#x26;" 
d="M64 0v64h128v-64h-128zM256 0v64h64v-64h-64zM0 64v192h64v-192h-64zM192 64v192h64v-64h64v-64h-64v-64h-64zM64 256v64h128v-64h-128zM0 320v128h64v-128h-64zM192 320v128h64v-128h-64zM64 448v64h128v-64h-128z" />
    <glyph glyph-name="quotesingle" unicode="'" horiz-adv-x="128" 
d="M0 384v192h64v-192h-64z" />
    <glyph glyph-name="parenleft" unicode="(" horiz-adv-x="256" 
d="M128 -192v64h64v-64h-64zM64 -128v128h64v-128h-64zM0 0v320h64v-320h-64zM64 320v128h64v-128h-64zM128 448v64h64v-64h-64z" />
    <glyph glyph-name="parenright" unicode=")" horiz-adv-x="256" 
d="M0 -192v64h64v-64h-64zM64 -128v128h64v-128h-64zM128 0v320h64v-320h-64zM64 320v128h64v-128h-64zM0 448v64h64v-64h-64z" />
    <glyph glyph-name="asterisk" unicode="*" horiz-adv-x="256" 
d="M0 384v64h64v-64h-64zM128 384v64h64v-64h-64zM64 448v64h-64v64h64v64h64v-64h64v-64h-64v-64h-64z" />
    <glyph glyph-name="plus" unicode="+" 
d="M128 64v128h-128v64h128v128h64v-128h128v-64h-128v-128h-64z" />
    <glyph glyph-name="comma" unicode="," horiz-adv-x="192" 
d="M0 -128v64h64v-64h-64zM64 -64v128h64v-128h-64z" />
    <glyph glyph-name="hyphen" unicode="-" 
d="M0 192v64h320v-64h-320z" />
    <glyph glyph-name="period" unicode="." horiz-adv-x="128" 
d="M0 0v64h64v-64h-64z" />
    <glyph glyph-name="slash" unicode="/" 
d="M0 0v64h64v-64h-64zM64 64v128h64v-128h-64zM128 192v128h64v-128h-64zM192 320v128h64v-128h-64zM256 448v64h64v-64h-64z" />
    <glyph glyph-name="zero" unicode="0" horiz-adv-x="320" 
d="M64 0v64h128v-64h-128zM0 64v384h64v-384h-64zM192 64v384h64v-384h-64zM64 448v64h128v-64h-128z" />
    <glyph glyph-name="one" unicode="1" horiz-adv-x="192" 
d="M64 0v384h-64v64h64v64h64v-512h-64z" />
    <glyph glyph-name="two" unicode="2" horiz-adv-x="320" 
d="M0 0v128h64v-64h192v-64h-256zM64 128v128h64v-128h-64zM128 256v64h64v-64h-64zM0 384v64h64v-64h-64zM192 320v128h64v-128h-64zM64 448v64h128v-64h-128z" />
    <glyph glyph-name="three" unicode="3" horiz-adv-x="320" 
d="M64 0v64h128v-64h-128zM0 64v128h64v-128h-64zM192 64v192h64v-192h-64zM64 256v64h128v-64h-128zM0 384v64h64v-64h-64zM192 320v128h64v-128h-64zM64 448v64h128v-64h-128z" />
    <glyph glyph-name="four" unicode="4" 
d="M64 256v128h64v-128h-64zM192 0v128h-192v128h64v-64h128v192h-64v64h64v64h64v-320h64v-64h-64v-128h-64z" />
    <glyph glyph-name="five" unicode="5" horiz-adv-x="320" 
d="M64 0v64h128v-64h-128zM0 64v128h64v-128h-64zM192 64v256h64v-256h-64zM0 320v192h256v-64h-192v-64h128v-64h-192z" />
    <glyph glyph-name="six" unicode="6" horiz-adv-x="320" 
d="M64 0v64h128v-64h-128zM192 64v256h64v-256h-64zM0 64v384h64v-64h128v-64h-128v-256h-64zM64 448v64h128v-64h-128z" />
    <glyph glyph-name="seven" unicode="7" horiz-adv-x="320" 
d="M64 0v192h64v-192h-64zM128 192v192h64v-192h-64zM192 384v64h-192v64h256v-128h-64z" />
    <glyph glyph-name="eight" unicode="8" horiz-adv-x="320" 
d="M64 0v64h128v-64h-128zM0 64v192h64v-192h-64zM192 64v192h64v-192h-64zM64 256v64h128v-64h-128zM0 320v128h64v-128h-64zM192 320v128h64v-128h-64zM64 448v64h128v-64h-128z" />
    <glyph glyph-name="nine" unicode="9" horiz-adv-x="320" 
d="M64 0v64h128v-64h-128zM0 64v64h64v-64h-64zM0 256v192h64v-192h-64zM192 64v128h-128v64h128v192h64v-384h-64zM64 448v64h128v-64h-128z" />
    <glyph glyph-name="colon" unicode=":" horiz-adv-x="128" 
d="M0 64v64h64v-64h-64zM0 320v64h64v-64h-64z" />
    <glyph glyph-name="semicolon" unicode=";" horiz-adv-x="192" 
d="M0 -128v64h64v-64h-64zM64 -64v128h64v-128h-64zM64 320v64h64v-64h-64z" />
    <glyph glyph-name="less" unicode="&#x3c;" 
d="M192 64v64h128v-64h-128zM64 128v64h128v-64h-128zM0 192v64h64v-64h-64zM64 256v64h128v-64h-128zM192 320v64h128v-64h-128z" />
    <glyph glyph-name="equal" unicode="=" 
d="M0 64v64h320v-64h-320zM0 320v64h320v-64h-320z" />
    <glyph glyph-name="greater" unicode="&#x3e;" 
d="M0 64v64h128v-64h-128zM128 128v64h128v-64h-128zM256 192v64h64v-64h-64zM128 256v64h128v-64h-128zM0 320v64h128v-64h-128z" />
    <glyph glyph-name="question" unicode="?" horiz-adv-x="320" 
d="M64 0v64h64v-64h-64zM64 128v128h64v-128h-64zM128 256v64h64v-64h-64zM0 320v128h64v-128h-64zM192 320v128h64v-128h-64zM64 448v64h128v-64h-128z" />
    <glyph glyph-name="at" unicode="@" 
d="M64 0v64h192v-64h-192zM128 128v192h64v-128h64v-64h-128zM0 64v384h64v-384h-64zM256 192v256h64v-256h-64zM64 448v64h192v-64h-192z" />
    <glyph glyph-name="A" unicode="A" horiz-adv-x="448" 
d="M0 0v192h64v-192h-64zM320 0v192h64v-192h-64zM64 192v192h64v-128h128v128h64v-192h-256zM128 384v128h128v-128h-128z" />
    <glyph glyph-name="B" unicode="B" 
d="M256 64v192h64v-192h-64zM256 320v128h64v-128h-64zM0 0v512h256v-64h-192v-128h192v-64h-192v-192h192v-64h-256z" />
    <glyph glyph-name="C" unicode="C" 
d="M64 0v64h192v-64h-192zM256 64v64h64v-64h-64zM0 64v384h64v-384h-64zM256 384v64h64v-64h-64zM64 448v64h192v-64h-192z" />
    <glyph glyph-name="D" unicode="D" 
d="M192 64v64h64v-64h-64zM256 128v256h64v-256h-64zM192 384v64h64v-64h-64zM0 0v512h192v-64h-128v-384h128v-64h-192z" />
    <glyph glyph-name="E" unicode="E" horiz-adv-x="320" 
d="M0 0v512h256v-64h-192v-128h192v-64h-192v-192h192v-64h-256z" />
    <glyph glyph-name="F" unicode="F" horiz-adv-x="320" 
d="M0 0v512h256v-64h-192v-128h128v-64h-128v-256h-64z" />
    <glyph glyph-name="G" unicode="G" 
d="M64 0v64h128v-64h-128zM256 0v64h-64v64h64v128h-64v64h128v-320h-64zM0 64v384h64v-384h-64zM256 384v64h64v-64h-64zM64 448v64h192v-64h-192z" />
    <glyph glyph-name="H" unicode="H" 
d="M0 0v512h64v-192h192v192h64v-512h-64v256h-192v-256h-64z" />
    <glyph glyph-name="I" unicode="I" horiz-adv-x="128" 
d="M0 0v512h64v-512h-64z" />
    <glyph glyph-name="J" unicode="J" horiz-adv-x="320" 
d="M64 0v64h128v-64h-128zM0 64v128h64v-128h-64zM192 64v448h64v-448h-64z" />
    <glyph glyph-name="K" unicode="K" 
d="M256 0v64h64v-64h-64zM192 64v128h64v-128h-64zM128 192v128h64v-128h-64zM128 384v64h64v-64h-64zM0 0v512h64v-128h64v-64h-64v-320h-64zM192 448v64h64v-64h-64z" />
    <glyph glyph-name="L" unicode="L" horiz-adv-x="320" 
d="M0 0v512h64v-448h192v-64h-256z" />
    <glyph glyph-name="M" unicode="M" horiz-adv-x="512" 
d="M192 0v128h64v-128h-64zM128 128v128h64v-128h-64zM256 128v128h64v-128h-64zM0 0v512h64v-128h64v-128h-64v-256h-64zM384 0v256h-64v128h64v128h64v-512h-64z" />
    <glyph glyph-name="N" unicode="N" 
d="M128 192v128h64v-128h-64zM0 0v512h64v-64h64v-128h-64v-320h-64zM256 0v64h-64v128h64v320h64v-512h-64z" />
    <glyph glyph-name="O" unicode="O" 
d="M64 0v64h192v-64h-192zM0 64v384h64v-384h-64zM256 64v384h64v-384h-64zM64 448v64h192v-64h-192z" />
    <glyph glyph-name="P" unicode="P" 
d="M256 320v128h64v-128h-64zM0 0v512h256v-64h-192v-128h192v-64h-192v-256h-64z" />
    <glyph glyph-name="Q" unicode="Q" 
d="M64 0v64h128v-64h-128zM256 0v64h64v-64h-64zM192 64v64h64v-64h-64zM128 128v64h64v-64h-64zM0 64v384h64v-384h-64zM256 128v320h64v-320h-64zM64 448v64h192v-64h-192z" />
    <glyph glyph-name="R" unicode="R" 
d="M256 0v128h64v-128h-64zM256 320v128h64v-128h-64zM0 0v512h256v-64h-192v-128h192v-192h-64v128h-128v-256h-64z" />
    <glyph glyph-name="S" unicode="S" 
d="M64 0v64h192v-64h-192zM0 64v128h64v-128h-64zM256 64v192h64v-192h-64zM64 256v64h192v-64h-192zM0 320v128h64v-128h-64zM256 384v64h64v-64h-64zM64 448v64h192v-64h-192z" />
    <glyph glyph-name="T" unicode="T" 
d="M128 0v448h-128v64h320v-64h-128v-448h-64z" />
    <glyph glyph-name="U" unicode="U" 
d="M64 0v64h192v-64h-192zM0 64v448h64v-448h-64zM256 64v448h64v-448h-64z" />
    <glyph glyph-name="V" unicode="V" horiz-adv-x="448" 
d="M128 0v128h128v-128h-128zM64 128v192h64v-192h-64zM256 128v192h64v-192h-64zM0 320v192h64v-192h-64zM320 320v192h64v-192h-64z" />
    <glyph glyph-name="W" unicode="W" horiz-adv-x="512" 
d="M128 0v128h64v-128h-64zM256 0v128h64v-128h-64zM64 128v192h64v-192h-64zM320 128v192h64v-192h-64zM0 320v192h64v-192h-64zM192 128v384h64v-384h-64zM384 320v192h64v-192h-64z" />
    <glyph glyph-name="X" unicode="X" 
d="M0 0v128h64v-128h-64zM256 0v128h64v-128h-64zM64 128v128h64v-128h-64zM192 128v128h64v-128h-64zM128 256v64h64v-64h-64zM64 320v128h64v-128h-64zM192 320v128h64v-128h-64zM0 448v64h64v-64h-64zM256 448v64h64v-64h-64z" />
    <glyph glyph-name="Y" unicode="Y" 
d="M128 0v320h64v-320h-64zM64 320v128h64v-128h-64zM192 320v128h64v-128h-64zM0 448v64h64v-64h-64zM256 448v64h64v-64h-64z" />
    <glyph glyph-name="Z" unicode="Z" horiz-adv-x="320" 
d="M0 0v128h64v-64h192v-64h-256zM64 128v128h64v-128h-64zM128 256v128h64v-128h-64zM192 384v64h-192v64h256v-128h-64z" />
    <glyph glyph-name="bracketleft" unicode="[" horiz-adv-x="192" 
d="M0 0v512h128v-64h-64v-384h64v-64h-128z" />
    <glyph glyph-name="backslash" unicode="\" 
d="M256 0v64h64v-64h-64zM192 64v128h64v-128h-64zM128 192v128h64v-128h-64zM64 320v128h64v-128h-64zM0 448v64h64v-64h-64z" />
    <glyph glyph-name="bracketright" unicode="]" horiz-adv-x="192" 
d="M0 0v64h64v384h-64v64h128v-512h-128z" />
    <glyph glyph-name="asciicircum" unicode="^" 
d="M0 320v64h64v-64h-64zM256 320v64h64v-64h-64zM64 384v128h64v-128h-64zM192 384v128h64v-128h-64zM128 512v128h64v-128h-64z" />
    <glyph glyph-name="underscore" unicode="_" 
d="M0 0v64h320v-64h-320z" />
    <glyph glyph-name="grave" unicode="`" horiz-adv-x="256" 
d="M128 448v64h64v-64h-64zM64 512v64h64v-64h-64zM0 576v64h64v-64h-64z" />
    <glyph glyph-name="a" unicode="a" 
d="M64 0v64h128v-64h-128zM256 0v64h64v-64h-64zM0 64v128h64v-128h-64zM192 64v128h-128v64h128v64h64v-256h-64zM64 320v64h128v-64h-128z" />
    <glyph glyph-name="b" unicode="b" horiz-adv-x="320" 
d="M192 64v256h64v-256h-64zM0 0v512h64v-128h128v-64h-128v-256h128v-64h-192z" />
    <glyph glyph-name="c" unicode="c" horiz-adv-x="320" 
d="M64 0v64h128v-64h-128zM192 64v64h64v-64h-64zM0 64v256h64v-256h-64zM192 256v64h64v-64h-64zM64 320v64h128v-64h-128z" />
    <glyph glyph-name="d" unicode="d" horiz-adv-x="320" 
d="M0 64v256h64v-256h-64zM64 0v64h128v256h-128v64h128v128h64v-512h-192z" />
    <glyph glyph-name="e" unicode="e" horiz-adv-x="320" 
d="M64 0v64h128v-64h-128zM192 64v64h64v-64h-64zM0 64v256h64v-64h128v64h64v-128h-192v-128h-64zM64 320v64h128v-64h-128z" />
    <glyph glyph-name="f" unicode="f" horiz-adv-x="256" 
d="M64 0v320h-64v64h64v64h64v-64h64v-64h-64v-320h-64zM128 448v64h64v-64h-64z" />
    <glyph glyph-name="g" unicode="g" horiz-adv-x="320" 
d="M64 -192v64h128v-64h-128zM0 -128v64h64v-64h-64zM0 64v256h64v-256h-64zM192 -128v128h-128v64h128v256h-128v64h192v-512h-64z" />
    <glyph glyph-name="h" unicode="h" horiz-adv-x="320" 
d="M192 0v320h64v-320h-64zM0 0v512h64v-128h128v-64h-128v-320h-64z" />
    <glyph glyph-name="i" unicode="i" horiz-adv-x="128" 
d="M0 0v384h64v-384h-64zM0 448v64h64v-64h-64z" />
    <glyph glyph-name="j" unicode="j" horiz-adv-x="192" 
d="M0 -192v64h64v-64h-64zM64 -128v512h64v-512h-64zM64 448v64h64v-64h-64z" />
    <glyph glyph-name="k" unicode="k" horiz-adv-x="320" 
d="M192 0v64h64v-64h-64zM128 64v64h64v-64h-64zM128 256v64h64v-64h-64zM192 320v64h64v-64h-64zM0 0v512h64v-256h64v-128h-64v-128h-64z" />
    <glyph glyph-name="l" unicode="l" horiz-adv-x="128" 
d="M0 0v512h64v-512h-64z" />
    <glyph glyph-name="m" unicode="m" horiz-adv-x="512" 
d="M192 0v320h64v-320h-64zM384 0v320h64v-320h-64zM0 0v384h192v-64h-128v-320h-64zM256 320v64h128v-64h-128z" />
    <glyph glyph-name="n" unicode="n" horiz-adv-x="320" 
d="M192 0v320h64v-320h-64zM0 0v384h192v-64h-128v-320h-64z" />
    <glyph glyph-name="o" unicode="o" horiz-adv-x="320" 
d="M64 0v64h128v-64h-128zM0 64v256h64v-256h-64zM192 64v256h64v-256h-64zM64 320v64h128v-64h-128z" />
    <glyph glyph-name="p" unicode="p" horiz-adv-x="320" 
d="M192 64v256h64v-256h-64zM0 -192v576h192v-64h-128v-256h128v-64h-128v-192h-64z" />
    <glyph glyph-name="q" unicode="q" horiz-adv-x="320" 
d="M0 64v256h64v-256h-64zM192 -192v192h-128v64h128v256h-128v64h192v-576h-64z" />
    <glyph glyph-name="r" unicode="r" horiz-adv-x="256" 
d="M0 0v384h64v-64h64v-64h-64v-256h-64zM128 320v64h64v-64h-64z" />
    <glyph glyph-name="s" unicode="s" horiz-adv-x="320" 
d="M0 0v64h192v-64h-192zM192 64v128h64v-128h-64zM64 192v64h128v-64h-128zM0 256v64h64v-64h-64zM64 320v64h128v-64h-128z" />
    <glyph glyph-name="t" unicode="t" horiz-adv-x="256" 
d="M128 0v64h64v-64h-64zM64 64v256h-64v64h64v128h64v-128h64v-64h-64v-256h-64z" />
    <glyph glyph-name="u" unicode="u" horiz-adv-x="320" 
d="M0 64v320h64v-320h-64zM64 0v64h128v320h64v-384h-192z" />
    <glyph glyph-name="v" unicode="v" 
d="M128 0v128h64v-128h-64zM64 128v128h64v-128h-64zM192 128v128h64v-128h-64zM0 256v128h64v-128h-64zM256 256v128h64v-128h-64z" />
    <glyph glyph-name="w" unicode="w" horiz-adv-x="512" 
d="M128 0v128h64v-128h-64zM256 0v128h64v-128h-64zM64 128v128h64v-128h-64zM192 128v128h64v-128h-64zM320 128v128h64v-128h-64zM0 256v128h64v-128h-64zM384 256v128h64v-128h-64z" />
    <glyph glyph-name="x" unicode="x" horiz-adv-x="320" 
d="M0 0v192h64v-192h-64zM192 0v192h64v-192h-64zM64 192v64h128v-64h-128zM0 256v128h64v-128h-64zM192 256v128h64v-128h-64z" />
    <glyph glyph-name="y" unicode="y" horiz-adv-x="320" 
d="M64 -192v64h128v-64h-128zM0 -128v64h64v-64h-64zM0 64v320h64v-320h-64zM192 -128v128h-128v64h128v320h64v-512h-64z" />
    <glyph glyph-name="z" unicode="z" horiz-adv-x="320" 
d="M0 0v128h64v-64h192v-64h-256zM64 128v64h64v-64h-64zM128 192v64h64v-64h-64zM192 256v64h-192v64h256v-128h-64z" />
    <glyph glyph-name="braceleft" unicode="{" horiz-adv-x="256" 
d="M128 -192v64h64v-64h-64zM64 -128v256h64v-256h-64zM0 128v64h64v-64h-64zM64 192v256h64v-256h-64zM128 448v64h64v-64h-64z" />
    <glyph glyph-name="bar" unicode="|" horiz-adv-x="128" 
d="M0 -192v704h64v-704h-64z" />
    <glyph glyph-name="braceright" unicode="}" horiz-adv-x="256" 
d="M0 -192v64h64v-64h-64zM64 -128v256h64v-256h-64zM128 128v64h64v-64h-64zM64 192v256h64v-256h-64zM0 448v64h64v-64h-64z" />
    <glyph glyph-name="asciitilde" unicode="~" horiz-adv-x="448" 
d="M0 192v64h64v-64h-64zM192 192v64h128v-64h-128zM64 256v64h128v-64h-128zM320 256v64h64v-64h-64z" />
    <glyph glyph-name="quoteleft" unicode="&#x2018;" horiz-adv-x="192" 
d="M0 384v128h64v-128h-64zM64 512v64h64v-64h-64z" />
    <glyph glyph-name="quoteright" unicode="&#x2019;" horiz-adv-x="192" 
d="M0 384v64h64v-64h-64zM64 448v128h64v-128h-64z" />
    <glyph glyph-name="quotedblleft" unicode="&#x201c;" horiz-adv-x="320" 
d="M0 384v128h64v-128h-64zM128 384v128h64v-128h-64zM64 512v64h64v-64h-64zM192 512v64h64v-64h-64z" />
    <glyph glyph-name="quotedblright" unicode="&#x201d;" horiz-adv-x="320" 
d="M0 384v64h64v-64h-64zM128 384v64h64v-64h-64zM64 448v128h64v-128h-64zM192 448v128h64v-128h-64z" />
  </font>
</defs>
</svg>
