<?xml version="1.0" standalone="no"?>
<!DOCTYPE svg PUBLIC "-//W3C//DTD SVG 1.1//EN" "http://www.w3.org/Graphics/SVG/1.1/DTD/svg11.dtd" >
<svg xmlns="http://www.w3.org/2000/svg" xmlns:xlink="http://www.w3.org/1999/xlink" version="1.1">
<metadata>
Created by FontForge 20170731 at Sun Feb  1 04:56:55 2009
 By Aleksey,,,
(c) Rufus 2009
</metadata>
<defs>
<font id="CurtainCall" horiz-adv-x="1024" >
  <font-face 
    font-family="Curtain Call"
    font-weight="400"
    font-stretch="normal"
    units-per-em="2048"
    panose-1="2 0 5 0 0 0 0 0 0 0"
    ascent="1638"
    descent="-410"
    x-height="768"
    cap-height="1408"
    bbox="0 -400 896 1408"
    underline-thickness="150"
    underline-position="-442"
    unicode-range="U+0020-007E"
  />
<missing-glyph 
 />
    <glyph glyph-name=".notdef" 
 />
    <glyph glyph-name=".null" horiz-adv-x="0" 
 />
    <glyph glyph-name="nonmarkingreturn" horiz-adv-x="508" 
 />
    <glyph glyph-name="space" unicode=" " horiz-adv-x="508" 
 />
    <glyph glyph-name="space" unicode="&#xa0;" horiz-adv-x="508" 
 />
    <glyph glyph-name="exclam" unicode="!" horiz-adv-x="600" 
d="M0 1408h256v-896h-256v896zM0 256h256v-256h-256v256z" />
    <glyph glyph-name="numbersign" unicode="#" horiz-adv-x="1200" 
d="M384 1408h128v-128h128v-256h128v-384h-128v256h-128v-768h-128v-128h-384v256h128v128h256v1024z" />
    <glyph glyph-name="dollar" unicode="$" horiz-adv-x="1000" 
d="M128 896h512v-128h128v-384h-128v-128h-512v128h-128v384h128v128zM256 768v-384h256v384h-256z" />
    <glyph glyph-name="quotesingle" unicode="'" horiz-adv-x="600" 
d="M0 1400h256v-384h-128v128h-128v256zM0 1010h128v-128h-128v128z" />
    <glyph glyph-name="comma" unicode="," horiz-adv-x="600" 
d="M0 118h256v-384h-128v128h-128v256zM0 -272h128v-128h-128v128z" />
    <glyph glyph-name="hyphen" unicode="-" horiz-adv-x="1000" 
d="M0 640h768v-128h-768v128z" />
    <glyph glyph-name="hyphen" unicode="&#xad;" horiz-adv-x="1000" 
d="M0 640h768v-128h-768v128z" />
    <glyph glyph-name="period" unicode="." horiz-adv-x="800" 
d="M0 256h256v-256h-256v256z" />
    <glyph glyph-name="slash" unicode="/" horiz-adv-x="1000" 
d="M640 1408h128v-256h-128v-256h-128v-256h-128v-256h-128v-256h-128v-128h-128v256h128v256h128v256h128v256h128v256h128v128z" />
    <glyph glyph-name="colon" unicode=":" horiz-adv-x="512" 
d="M0 1280h256v-256h-256v256zM0 525h256v-256h-256v256z" />
    <glyph glyph-name="semicolon" unicode=";" horiz-adv-x="768" 
d="M0 1280h256v-256h-256v256zM0 526h256v-384h-128v128h-128v256zM0 128h128v-128h-128v128z" />
    <glyph glyph-name="semicolon" unicode="&#x37e;" horiz-adv-x="768" 
d="M0 1280h256v-256h-256v256zM0 526h256v-384h-128v128h-128v256zM0 128h128v-128h-128v128z" />
    <glyph glyph-name="question" unicode="?" 
d="M128 1408h512v-128h128v-384h-128v-128h-128v-256h-256v256h128v128h128v384h-256v-384h-256v384h128v128zM256 256h256v-256h-256v256z" />
    <glyph glyph-name="at" unicode="@" horiz-adv-x="768" 
d="M256 768h256v-256h-256v256z" />
    <glyph glyph-name="A" unicode="A" 
d="M256 1408h256v-128h128v-128h128v-1152h-256v384h-256v-384h-256v1152h128v128h128v128zM256 1152v-640h256v640h-256z" />
    <glyph glyph-name="B" unicode="B" 
d="M0 1408h640v-128h128v-384h-128v-128h128v-640h-128v-128h-640v1408zM256 1280v-384h256v384h-256zM256 768v-640h256v640h-256z" />
    <glyph glyph-name="C" unicode="C" 
d="M128 1408h512v-128h128v-256h-256v256h-256v-1152h256v512h256v-512h-128v-128h-512v128h-128v1152h128v128z" />
    <glyph glyph-name="D" unicode="D" 
d="M0 1408h640v-128h128v-1152h-128v-128h-640v1408zM256 1280v-1152h256v1152h-256z" />
    <glyph glyph-name="E" unicode="E" 
d="M0 1408h768v-128h-512v-512h384v-128h-384v-512h512v-128h-768v1408z" />
    <glyph glyph-name="F" unicode="F" 
d="M0 1408h768v-128h-512v-512h384v-128h-384v-640h-256v1408z" />
    <glyph glyph-name="G" unicode="G" horiz-adv-x="1025" 
d="M128 1408h512v-128h128v-256h-256v256h-256v-1152h256v-128h-384v128h-128v1152h128v128zM385 768h384v-768h-128v128h-128v512h-128v128z" />
    <glyph glyph-name="H" unicode="H" 
d="M0 1408h256v-640h256v640h256v-1408h-256v640h-256v-640h-256v1408z" />
    <glyph glyph-name="I" unicode="I" 
d="M0 1408h768v-128h-256v-1152h256v-128h-768v128h256v1152h-256v128z" />
    <glyph glyph-name="J" unicode="J" 
d="M512 1408h256v-1280h-128v-128h-512v128h-128v512h256v-512h256v1280z" />
    <glyph glyph-name="K" unicode="K" 
d="M0 1408h256v-384h128v128h128v256h256v-256h-128v-128h-128v-256h128v-128h128v-640h-256v640h-128v128h-128v-768h-256v1408z" />
    <glyph glyph-name="L" unicode="L" 
d="M0 1408h256v-1280h256v128h256v-256h-768v1408z" />
    <glyph glyph-name="M" unicode="M" 
d="M0 1408h128v-128h128v-128h256v128h128v128h128v-1408h-256v896h-256v-896h-256v1408z" />
    <glyph glyph-name="N" unicode="N" 
d="M0 1408h128v-128h128v-128h128v-128h128v384h256v-1408h-256v768h-128v128h-128v-896h-256v1408z" />
    <glyph glyph-name="O" unicode="O" 
d="M128 1408h512v-128h128v-1152h-128v-128h-512v128h-128v1152h128v128zM256 1280v-1152h256v1152h-256z" />
    <glyph glyph-name="P" unicode="P" 
d="M0 1408h640v-128h128v-512h-128v-128h-384v-640h-256v1408zM256 1280v-512h256v512h-256z" />
    <glyph glyph-name="Q" unicode="Q" horiz-adv-x="1152" 
d="M128 1408h512v-128h128v-1024h128v-256h-128v128h-128v-128h-512v128h-128v1152h128v128zM256 1280v-768h256v768h-256zM256 384v-256h256v128h-128v128h-128z" />
    <glyph glyph-name="R" unicode="R" 
d="M0 1408h640v-128h128v-512h-128v-128h128v-640h-256v640h-256v-640h-256v1408zM256 1280v-512h256v512h-256z" />
    <glyph glyph-name="S" unicode="S" 
d="M128 1408h512v-128h128v-256h-256v256h-256v-384h256v-128h128v-128h128v-512h-128v-128h-512v128h-128v384h256v-384h256v512h-256v128h-128v128h-128v384h128v128z" />
    <glyph glyph-name="T" unicode="T" 
d="M0 1408h768v-128h-256v-1280h-256v1280h-256v128z" />
    <glyph glyph-name="U" unicode="U" 
d="M0 1408h256v-1280h256v1280h256v-1280h-128v-128h-512v128h-128v1280z" />
    <glyph glyph-name="V" unicode="V" 
d="M0 1408h256v-1024h256v1024h256v-1152h-128v-128h-128v-128h-256v128h-128v128h-128v1152z" />
    <glyph glyph-name="W" unicode="W" 
d="M0 1408h256v-896h256v896h256v-1408h-128v128h-128v128h-256v-128h-128v-128h-128v1408z" />
    <glyph glyph-name="X" unicode="X" 
d="M0 1408h256v-384h256v384h256v-384h-128v-128h-128v-128h128v-128h128v-640h-256v640h-256v-640h-256v640h128v128h128v128h-128v128h-128v384z" />
    <glyph glyph-name="Y" unicode="Y" 
d="M0 1408h256v-384h256v384h256v-384h-128v-128h-128v-896h-256v896h-128v128h-128v384z" />
    <glyph glyph-name="Z" unicode="Z" 
d="M0 1408h768v-384h-128v-128h-128v-128h-128v-128h-128v-512h256v128h256v-256h-768v640h128v128h128v128h128v128h128v256h-256v-128h-256v256z" />
    <glyph glyph-name="a" unicode="a" horiz-adv-x="800" 
d="M256 770h128v-128h-128v128zM128 640h128v-256h128v256h128v-256h128v-384h-128v256h-384v-256h-128v384h128v256z" />
    <glyph glyph-name="b" unicode="b" horiz-adv-x="803" 
d="M0 768h512v-128h-384v-128h384v-128h-384v-256h384v-128h-512v768zM515 640h128v-128h-128v128zM515 385h128v-256h-128v256z" />
    <glyph glyph-name="c" unicode="c" horiz-adv-x="802" 
d="M128 769h384v-128h-384v128zM0 640h128v-512h-128v512zM512 640h128v-128h-128v128zM514 256h128v-128h-128v128zM129 128h384v-128h-384v128z" />
    <glyph glyph-name="d" unicode="d" horiz-adv-x="801" 
d="M0 768h512v-128h-384v-512h384v-128h-512v768zM513 640h128v-512h-128v512z" />
    <glyph glyph-name="e" unicode="e" horiz-adv-x="672" 
d="M0 768h512v-128h-384v-128h384v-128h-384v-256h384v-128h-512v768z" />
    <glyph glyph-name="f" unicode="f" horiz-adv-x="672" 
d="M0 768h512v-128h-384v-128h384v-128h-384v-384h-128v768z" />
    <glyph glyph-name="g" unicode="g" horiz-adv-x="802" 
d="M128 769h384v-128h-384v128zM0 640h128v-512h-128v512zM513 641h128v-128h-128v128zM386 384h256v-256h-128v128h-128v128zM129 128h384v-128h-384v128z" />
    <glyph glyph-name="h" unicode="h" horiz-adv-x="800" 
d="M0 768h128v-384h384v384h128v-768h-128v256h-384v-256h-128v768z" />
    <glyph glyph-name="i" unicode="i" horiz-adv-x="800" 
d="M0 768h640v-128h-256v-512h256v-128h-640v128h256v512h-256v128z" />
    <glyph glyph-name="j" unicode="j" horiz-adv-x="800" 
d="M512 769h128v-640h-128v640zM0 385h128v-256h-128v256zM128 128h384v-128h-384v128z" />
    <glyph glyph-name="k" unicode="k" horiz-adv-x="802" 
d="M0 768h128v-384h128v128h128v-256h-256v-256h-128v768zM514 768h128v-128h-128v128zM385 640h128v-128h-128v128zM385 256h128v-128h-128v128zM514 128h128v-128h-128v128z" />
    <glyph glyph-name="l" unicode="l" horiz-adv-x="800" 
d="M0 768h128v-640h512v-128h-640v768z" />
    <glyph glyph-name="m" unicode="m" horiz-adv-x="800" 
d="M0 768h128v-128h128v-128h-128v-512h-128v768zM512 768h128v-768h-128v512h-128v128h128v128zM256 511h128v-128h-128v128z" />
    <glyph glyph-name="n" unicode="n" horiz-adv-x="802" 
d="M0 768h256v-256h-128v-512h-128v768zM514 768h128v-768h-256v256h128v512zM257 512h128v-256h-128v256z" />
    <glyph glyph-name="o" unicode="o" horiz-adv-x="802" 
d="M129 768h384v-128h-384v128zM0 640h128v-512h-128v512zM514 640h128v-512h-128v512zM129 128h384v-128h-384v128z" />
    <glyph glyph-name="p" unicode="p" horiz-adv-x="801" 
d="M0 768h512v-128h-384v-256h384v-128h-384v-256h-128v768zM513 640h128v-256h-128v256z" />
    <glyph glyph-name="q" unicode="q" horiz-adv-x="801" 
d="M128 769h384v-128h-384v128zM0 640h128v-512h-128v512zM513 640h128v-640h-512v128h256v128h128v384z" />
    <glyph glyph-name="r" unicode="r" horiz-adv-x="801" 
d="M0 768h512v-128h-384v-256h384v-128h-384v-256h-128v768zM513 640h128v-256h-128v256zM513 256h128v-256h-128v256z" />
    <glyph glyph-name="s" unicode="s" horiz-adv-x="802" 
d="M129 768h384v-128h-384v128zM0 640h128v-128h-128v128zM129 512h384v-128h-384v128zM514 384h128v-256h-128v256zM0 256h128v-128h-128v128zM129 128h384v-128h-384v128z" />
    <glyph glyph-name="t" unicode="t" horiz-adv-x="800" 
d="M0 768h640v-128h-256v-640h-128v640h-256v128z" />
    <glyph glyph-name="u" unicode="u" horiz-adv-x="800" 
d="M0 769h128v-640h-128v640zM512 769h128v-640h-128v640zM128 128h384v-128h-384v128z" />
    <glyph glyph-name="v" unicode="v" horiz-adv-x="800" 
d="M0 769h128v-384h-128v384zM512 769h128v-384h-128v384zM128 384h128v-128h128v128h128v-256h-128v-128h-128v128h-128v256z" />
    <glyph glyph-name="w" unicode="w" horiz-adv-x="800" 
d="M0 768h128v-512h128v-128h-128v-128h-128v768zM512 768h128v-768h-128v128h-128v128h128v512zM256 385h128v-128h-128v128z" />
    <glyph glyph-name="x" unicode="x" horiz-adv-x="800" 
d="M0 772h128v-128h-128v128zM512 772h128v-128h-128v128zM128 643h128v-128h-128v128zM384 643h128v-128h-128v128zM256 514h128v-128h-128v128zM128 385h128v-128h-128v128zM384 385h128v-128h-128v128zM0 256h128v-256h-128v256zM512 256h128v-256h-128v256z" />
    <glyph glyph-name="y" unicode="y" horiz-adv-x="800" 
d="M0 770h128v-128h-128v128zM512 770h128v-128h-128v128zM128 641h128v-128h-128v128zM384 641h128v-128h-128v128zM256 512h128v-512h-128v512z" />
    <glyph glyph-name="z" unicode="z" horiz-adv-x="672" 
d="M0 771h512v-256h-128v128h-384v128zM256 514h128v-128h-128v128zM128 385h128v-128h-128v128zM0 256h128v-128h384v-128h-512v256z" />
    <glyph glyph-name="asciitilde" unicode="~" horiz-adv-x="800" 
d="M128 910h128v-128h-128v128zM0 775h128v-128h-128v128zM256 775h128v-128h-128v128zM512 775h128v-128h-128v128zM384 640h128v-128h-128v128z" />
  </font>
</defs>
</svg>
