<?xml version="1.0" standalone="no"?>
<!DOCTYPE svg PUBLIC "-//W3C//DTD SVG 1.1//EN" "http://www.w3.org/Graphics/SVG/1.1/DTD/svg11.dtd" >
<svg xmlns="http://www.w3.org/2000/svg" xmlns:xlink="http://www.w3.org/1999/xlink" version="1.1">
<metadata>
Created by FontForge 20170731 at Fri Jan  1 02:30:17 1904
 By Aleksey,,,
(C) Earthbound
</metadata>
<defs>
<font id="Twoson" horiz-adv-x="717" >
  <font-face 
    font-family="Twoson"
    font-weight="400"
    font-style="italic"
    font-stretch="normal"
    units-per-em="1024"
    panose-1="2 0 6 9 0 0 0 0 0 0"
    ascent="819"
    descent="-205"
    x-height="600"
    cap-height="600"
    bbox="0 0 700 600"
    underline-thickness="102"
    underline-position="-358"
    slope="0.015625"
    unicode-range="U+0020-007E"
  />
<missing-glyph horiz-adv-x="512" 
 />
    <glyph glyph-name=".notdef" horiz-adv-x="512" 
 />
    <glyph glyph-name=".null" horiz-adv-x="0" 
 />
    <glyph glyph-name="nonmarkingreturn" horiz-adv-x="341" 
 />
    <glyph glyph-name="space" unicode=" " horiz-adv-x="410" 
 />
    <glyph glyph-name="exclam" unicode="!" horiz-adv-x="307" 
d="M0 600h100v-100h-100v100zM100 600h100v-100h-100v100zM0 500h100v-100h-100v100zM100 500h100v-100h-100v100zM0 400h100v-100h-100v100zM100 400h100v-100h-100v100zM0 300h100v-100h-100v100zM100 300h100v-100h-100v100zM0 100h100v-100h-100v100zM100 100h100v-100
h-100v100z" />
    <glyph glyph-name="quotedbl" unicode="&#x22;" horiz-adv-x="410" 
d="M0 600h100v-100h-100v100zM200 600h100v-100h-100v100zM0 500h100v-100h-100v100zM200 500h100v-100h-100v100z" />
    <glyph glyph-name="numbersign" unicode="#" horiz-adv-x="614" 
d="M100 600h100v-100h-100v100zM300 600h100v-100h-100v100zM0 500h100v-100h-100v100zM100 500h100v-100h-100v100zM200 500h100v-100h-100v100zM300 500h100v-100h-100v100zM400 500h100v-100h-100v100zM100 400h100v-100h-100v100zM300 400h100v-100h-100v100zM0 300h100
v-100h-100v100zM100 300h100v-100h-100v100zM200 300h100v-100h-100v100zM300 300h100v-100h-100v100zM400 300h100v-100h-100v100zM100 200h100v-100h-100v100zM300 200h100v-100h-100v100z" />
    <glyph glyph-name="dollar" unicode="$" 
d="M300 600h100v-100h-100v100zM100 500h100v-100h-100v100zM200 500h100v-100h-100v100zM300 500h100v-100h-100v100zM400 500h100v-100h-100v100zM0 400h100v-100h-100v100zM100 400h100v-100h-100v100zM300 400h100v-100h-100v100zM100 300h100v-100h-100v100zM200 300
h100v-100h-100v100zM300 300h100v-100h-100v100zM400 300h100v-100h-100v100zM200 200h100v-100h-100v100zM400 200h100v-100h-100v100zM500 200h100v-100h-100v100zM100 100h100v-100h-100v100zM200 100h100v-100h-100v100zM300 100h100v-100h-100v100zM400 100h100v-100
h-100v100z" />
    <glyph glyph-name="percent" unicode="%" horiz-adv-x="614" 
d="M0 600h100v-100h-100v100zM100 600h100v-100h-100v100zM300 600h100v-100h-100v100zM0 500h100v-100h-100v100zM100 500h100v-100h-100v100zM300 500h100v-100h-100v100zM200 400h100v-100h-100v100zM200 300h100v-100h-100v100zM100 200h100v-100h-100v100zM300 200h100
v-100h-100v100zM400 200h100v-100h-100v100zM100 100h100v-100h-100v100zM300 100h100v-100h-100v100zM400 100h100v-100h-100v100z" />
    <glyph glyph-name="ampersand" unicode="&#x26;" 
d="M100 600h100v-100h-100v100zM200 600h100v-100h-100v100zM0 500h100v-100h-100v100zM100 500h100v-100h-100v100zM300 500h100v-100h-100v100zM100 400h100v-100h-100v100zM200 400h100v-100h-100v100zM300 400h100v-100h-100v100zM400 400h100v-100h-100v100zM500 400
h100v-100h-100v100zM0 300h100v-100h-100v100zM100 300h100v-100h-100v100zM300 300h100v-100h-100v100zM400 300h100v-100h-100v100zM0 200h100v-100h-100v100zM100 200h100v-100h-100v100zM400 200h100v-100h-100v100zM500 200h100v-100h-100v100zM100 100h100v-100h-100
v100zM200 100h100v-100h-100v100zM300 100h100v-100h-100v100zM500 100h100v-100h-100v100z" />
    <glyph glyph-name="quotesingle" unicode="'" horiz-adv-x="205" 
d="M0 600h100v-100h-100v100zM0 500h100v-100h-100v100z" />
    <glyph glyph-name="parenleft" unicode="(" horiz-adv-x="410" 
d="M100 600h100v-100h-100v100zM200 600h100v-100h-100v100zM0 500h100v-100h-100v100zM100 500h100v-100h-100v100zM0 400h100v-100h-100v100zM100 400h100v-100h-100v100zM0 300h100v-100h-100v100zM100 300h100v-100h-100v100zM0 200h100v-100h-100v100zM100 200h100
v-100h-100v100zM100 100h100v-100h-100v100zM200 100h100v-100h-100v100z" />
    <glyph glyph-name="parenright" unicode=")" horiz-adv-x="410" 
d="M0 600h100v-100h-100v100zM100 600h100v-100h-100v100zM100 500h100v-100h-100v100zM200 500h100v-100h-100v100zM100 400h100v-100h-100v100zM200 400h100v-100h-100v100zM100 300h100v-100h-100v100zM200 300h100v-100h-100v100zM100 200h100v-100h-100v100zM200 200
h100v-100h-100v100zM0 100h100v-100h-100v100zM100 100h100v-100h-100v100z" />
    <glyph glyph-name="asterisk" unicode="*" horiz-adv-x="614" 
d="M0 600h100v-100h-100v100zM200 600h100v-100h-100v100zM400 600h100v-100h-100v100zM100 500h100v-100h-100v100zM200 500h100v-100h-100v100zM300 500h100v-100h-100v100zM100 400h100v-100h-100v100zM200 400h100v-100h-100v100zM300 400h100v-100h-100v100zM0 300h100
v-100h-100v100zM200 300h100v-100h-100v100zM400 300h100v-100h-100v100z" />
    <glyph glyph-name="plus" unicode="+" 
d="M200 600h100v-100h-100v100zM300 600h100v-100h-100v100zM200 500h100v-100h-100v100zM300 500h100v-100h-100v100zM0 400h100v-100h-100v100zM100 400h100v-100h-100v100zM200 400h100v-100h-100v100zM300 400h100v-100h-100v100zM400 400h100v-100h-100v100zM500 400
h100v-100h-100v100zM200 300h100v-100h-100v100zM300 300h100v-100h-100v100zM200 200h100v-100h-100v100zM300 200h100v-100h-100v100z" />
    <glyph glyph-name="comma" unicode="," horiz-adv-x="205" 
d="M0 200h100v-100h-100v100zM0 100h100v-100h-100v100z" />
    <glyph glyph-name="hyphen" unicode="-" horiz-adv-x="512" 
d="M0 400h100v-100h-100v100zM100 400h100v-100h-100v100zM200 400h100v-100h-100v100zM300 400h100v-100h-100v100z" />
    <glyph glyph-name="period" unicode="." horiz-adv-x="307" 
d="M0 200h100v-100h-100v100zM100 200h100v-100h-100v100zM0 100h100v-100h-100v100zM100 100h100v-100h-100v100z" />
    <glyph glyph-name="slash" unicode="/" horiz-adv-x="410" 
d="M200 600h100v-100h-100v100zM200 500h100v-100h-100v100zM100 400h100v-100h-100v100zM100 300h100v-100h-100v100zM0 200h100v-100h-100v100zM0 100h100v-100h-100v100z" />
    <glyph glyph-name="zero" unicode="0" 
d="M100 600h100v-100h-100v100zM200 600h100v-100h-100v100zM300 600h100v-100h-100v100zM400 600h100v-100h-100v100zM0 500h100v-100h-100v100zM100 500h100v-100h-100v100zM400 500h100v-100h-100v100zM500 500h100v-100h-100v100zM0 400h100v-100h-100v100zM100 400h100
v-100h-100v100zM300 400h100v-100h-100v100zM400 400h100v-100h-100v100zM500 400h100v-100h-100v100zM0 300h100v-100h-100v100zM100 300h100v-100h-100v100zM200 300h100v-100h-100v100zM400 300h100v-100h-100v100zM500 300h100v-100h-100v100zM0 200h100v-100h-100v100z
M100 200h100v-100h-100v100zM400 200h100v-100h-100v100zM500 200h100v-100h-100v100zM100 100h100v-100h-100v100zM200 100h100v-100h-100v100zM300 100h100v-100h-100v100zM400 100h100v-100h-100v100z" />
    <glyph glyph-name="one" unicode="1" horiz-adv-x="512" 
d="M100 600h100v-100h-100v100zM200 600h100v-100h-100v100zM0 500h100v-100h-100v100zM100 500h100v-100h-100v100zM200 500h100v-100h-100v100zM100 400h100v-100h-100v100zM200 400h100v-100h-100v100zM100 300h100v-100h-100v100zM200 300h100v-100h-100v100zM100 200
h100v-100h-100v100zM200 200h100v-100h-100v100zM0 100h100v-100h-100v100zM100 100h100v-100h-100v100zM200 100h100v-100h-100v100zM300 100h100v-100h-100v100z" />
    <glyph glyph-name="two" unicode="2" 
d="M100 600h100v-100h-100v100zM200 600h100v-100h-100v100zM300 600h100v-100h-100v100zM400 600h100v-100h-100v100zM0 500h100v-100h-100v100zM100 500h100v-100h-100v100zM400 500h100v-100h-100v100zM500 500h100v-100h-100v100zM300 400h100v-100h-100v100zM400 400
h100v-100h-100v100zM200 300h100v-100h-100v100zM300 300h100v-100h-100v100zM100 200h100v-100h-100v100zM200 200h100v-100h-100v100zM0 100h100v-100h-100v100zM100 100h100v-100h-100v100zM200 100h100v-100h-100v100zM300 100h100v-100h-100v100zM400 100h100v-100
h-100v100zM500 100h100v-100h-100v100z" />
    <glyph glyph-name="three" unicode="3" 
d="M100 600h100v-100h-100v100zM200 600h100v-100h-100v100zM300 600h100v-100h-100v100zM400 600h100v-100h-100v100zM0 500h100v-100h-100v100zM100 500h100v-100h-100v100zM400 500h100v-100h-100v100zM500 500h100v-100h-100v100zM200 400h100v-100h-100v100zM300 400
h100v-100h-100v100zM400 400h100v-100h-100v100zM400 300h100v-100h-100v100zM500 300h100v-100h-100v100zM0 200h100v-100h-100v100zM100 200h100v-100h-100v100zM400 200h100v-100h-100v100zM500 200h100v-100h-100v100zM100 100h100v-100h-100v100zM200 100h100v-100
h-100v100zM300 100h100v-100h-100v100zM400 100h100v-100h-100v100z" />
    <glyph glyph-name="four" unicode="4" 
d="M200 600h100v-100h-100v100zM300 600h100v-100h-100v100zM400 600h100v-100h-100v100zM100 500h100v-100h-100v100zM300 500h100v-100h-100v100zM400 500h100v-100h-100v100zM0 400h100v-100h-100v100zM300 400h100v-100h-100v100zM400 400h100v-100h-100v100zM0 300h100
v-100h-100v100zM100 300h100v-100h-100v100zM200 300h100v-100h-100v100zM300 300h100v-100h-100v100zM400 300h100v-100h-100v100zM500 300h100v-100h-100v100zM300 200h100v-100h-100v100zM400 200h100v-100h-100v100zM300 100h100v-100h-100v100zM400 100h100v-100h-100
v100z" />
    <glyph glyph-name="five" unicode="5" 
d="M0 600h100v-100h-100v100zM100 600h100v-100h-100v100zM200 600h100v-100h-100v100zM300 600h100v-100h-100v100zM400 600h100v-100h-100v100zM0 500h100v-100h-100v100zM100 500h100v-100h-100v100zM0 400h100v-100h-100v100zM100 400h100v-100h-100v100zM200 400h100
v-100h-100v100zM300 400h100v-100h-100v100zM400 400h100v-100h-100v100zM400 300h100v-100h-100v100zM500 300h100v-100h-100v100zM0 200h100v-100h-100v100zM100 200h100v-100h-100v100zM400 200h100v-100h-100v100zM500 200h100v-100h-100v100zM100 100h100v-100h-100
v100zM200 100h100v-100h-100v100zM300 100h100v-100h-100v100zM400 100h100v-100h-100v100z" />
    <glyph glyph-name="six" unicode="6" 
d="M100 600h100v-100h-100v100zM200 600h100v-100h-100v100zM300 600h100v-100h-100v100zM400 600h100v-100h-100v100zM0 500h100v-100h-100v100zM100 500h100v-100h-100v100zM0 400h100v-100h-100v100zM100 400h100v-100h-100v100zM200 400h100v-100h-100v100zM300 400h100
v-100h-100v100zM400 400h100v-100h-100v100zM0 300h100v-100h-100v100zM100 300h100v-100h-100v100zM400 300h100v-100h-100v100zM500 300h100v-100h-100v100zM0 200h100v-100h-100v100zM100 200h100v-100h-100v100zM400 200h100v-100h-100v100zM500 200h100v-100h-100v100z
M100 100h100v-100h-100v100zM200 100h100v-100h-100v100zM300 100h100v-100h-100v100zM400 100h100v-100h-100v100z" />
    <glyph glyph-name="seven" unicode="7" 
d="M0 600h100v-100h-100v100zM100 600h100v-100h-100v100zM200 600h100v-100h-100v100zM300 600h100v-100h-100v100zM400 600h100v-100h-100v100zM500 600h100v-100h-100v100zM0 500h100v-100h-100v100zM100 500h100v-100h-100v100zM400 500h100v-100h-100v100zM500 500h100
v-100h-100v100zM300 400h100v-100h-100v100zM400 400h100v-100h-100v100zM200 300h100v-100h-100v100zM300 300h100v-100h-100v100zM200 200h100v-100h-100v100zM300 200h100v-100h-100v100zM200 100h100v-100h-100v100zM300 100h100v-100h-100v100z" />
    <glyph glyph-name="eight" unicode="8" 
d="M100 600h100v-100h-100v100zM200 600h100v-100h-100v100zM300 600h100v-100h-100v100zM400 600h100v-100h-100v100zM0 500h100v-100h-100v100zM100 500h100v-100h-100v100zM400 500h100v-100h-100v100zM500 500h100v-100h-100v100zM100 400h100v-100h-100v100zM200 400
h100v-100h-100v100zM300 400h100v-100h-100v100zM400 400h100v-100h-100v100zM0 300h100v-100h-100v100zM100 300h100v-100h-100v100zM400 300h100v-100h-100v100zM500 300h100v-100h-100v100zM0 200h100v-100h-100v100zM100 200h100v-100h-100v100zM400 200h100v-100h-100
v100zM500 200h100v-100h-100v100zM100 100h100v-100h-100v100zM200 100h100v-100h-100v100zM300 100h100v-100h-100v100zM400 100h100v-100h-100v100z" />
    <glyph glyph-name="nine" unicode="9" 
d="M100 600h100v-100h-100v100zM200 600h100v-100h-100v100zM300 600h100v-100h-100v100zM400 600h100v-100h-100v100zM0 500h100v-100h-100v100zM100 500h100v-100h-100v100zM400 500h100v-100h-100v100zM500 500h100v-100h-100v100zM0 400h100v-100h-100v100zM100 400h100
v-100h-100v100zM400 400h100v-100h-100v100zM500 400h100v-100h-100v100zM100 300h100v-100h-100v100zM200 300h100v-100h-100v100zM300 300h100v-100h-100v100zM400 300h100v-100h-100v100zM500 300h100v-100h-100v100zM400 200h100v-100h-100v100zM500 200h100v-100h-100
v100zM100 100h100v-100h-100v100zM200 100h100v-100h-100v100zM300 100h100v-100h-100v100zM400 100h100v-100h-100v100z" />
    <glyph glyph-name="colon" unicode=":" horiz-adv-x="205" 
d="M0 400h100v-100h-100v100zM0 200h100v-100h-100v100z" />
    <glyph glyph-name="semicolon" unicode=";" horiz-adv-x="205" 
d="M0 400h100v-100h-100v100zM0 200h100v-100h-100v100zM0 100h100v-100h-100v100z" />
    <glyph glyph-name="less" unicode="&#x3c;" horiz-adv-x="512" 
d="M200 600h100v-100h-100v100zM300 600h100v-100h-100v100zM100 500h100v-100h-100v100zM200 500h100v-100h-100v100zM0 400h100v-100h-100v100zM100 400h100v-100h-100v100zM0 300h100v-100h-100v100zM100 300h100v-100h-100v100zM100 200h100v-100h-100v100zM200 200h100
v-100h-100v100zM200 100h100v-100h-100v100zM300 100h100v-100h-100v100z" />
    <glyph glyph-name="equal" unicode="=" horiz-adv-x="512" 
d="M0 500h100v-100h-100v100zM100 500h100v-100h-100v100zM200 500h100v-100h-100v100zM300 500h100v-100h-100v100zM0 300h100v-100h-100v100zM100 300h100v-100h-100v100zM200 300h100v-100h-100v100zM300 300h100v-100h-100v100z" />
    <glyph glyph-name="greater" unicode="&#x3e;" horiz-adv-x="512" 
d="M0 600h100v-100h-100v100zM100 600h100v-100h-100v100zM100 500h100v-100h-100v100zM200 500h100v-100h-100v100zM200 400h100v-100h-100v100zM300 400h100v-100h-100v100zM200 300h100v-100h-100v100zM300 300h100v-100h-100v100zM100 200h100v-100h-100v100zM200 200
h100v-100h-100v100zM0 100h100v-100h-100v100zM100 100h100v-100h-100v100z" />
    <glyph glyph-name="question" unicode="?" 
d="M100 600h100v-100h-100v100zM200 600h100v-100h-100v100zM300 600h100v-100h-100v100zM400 600h100v-100h-100v100zM0 500h100v-100h-100v100zM100 500h100v-100h-100v100zM400 500h100v-100h-100v100zM500 500h100v-100h-100v100zM300 400h100v-100h-100v100zM400 400
h100v-100h-100v100zM200 300h100v-100h-100v100zM300 300h100v-100h-100v100zM200 100h100v-100h-100v100zM300 100h100v-100h-100v100z" />
    <glyph glyph-name="at" unicode="@" 
d="M100 600h100v-100h-100v100zM200 600h100v-100h-100v100zM300 600h100v-100h-100v100zM400 600h100v-100h-100v100zM0 500h100v-100h-100v100zM100 500h100v-100h-100v100zM400 500h100v-100h-100v100zM500 500h100v-100h-100v100zM0 400h100v-100h-100v100zM100 400h100
v-100h-100v100zM400 400h100v-100h-100v100zM500 400h100v-100h-100v100zM0 300h100v-100h-100v100zM100 300h100v-100h-100v100zM300 300h100v-100h-100v100zM400 300h100v-100h-100v100zM500 300h100v-100h-100v100zM0 200h100v-100h-100v100zM100 200h100v-100h-100v100z
M100 100h100v-100h-100v100zM200 100h100v-100h-100v100zM300 100h100v-100h-100v100zM400 100h100v-100h-100v100z" />
    <glyph glyph-name="A" unicode="A" 
d="M200 600h100v-100h-100v100zM300 600h100v-100h-100v100zM100 500h100v-100h-100v100zM200 500h100v-100h-100v100zM300 500h100v-100h-100v100zM400 500h100v-100h-100v100zM0 400h100v-100h-100v100zM100 400h100v-100h-100v100zM400 400h100v-100h-100v100zM500 400
h100v-100h-100v100zM0 300h100v-100h-100v100zM100 300h100v-100h-100v100zM200 300h100v-100h-100v100zM300 300h100v-100h-100v100zM400 300h100v-100h-100v100zM500 300h100v-100h-100v100zM0 200h100v-100h-100v100zM100 200h100v-100h-100v100zM400 200h100v-100h-100
v100zM500 200h100v-100h-100v100zM0 100h100v-100h-100v100zM100 100h100v-100h-100v100zM400 100h100v-100h-100v100zM500 100h100v-100h-100v100z" />
    <glyph glyph-name="B" unicode="B" 
d="M0 600h100v-100h-100v100zM100 600h100v-100h-100v100zM200 600h100v-100h-100v100zM300 600h100v-100h-100v100zM0 500h100v-100h-100v100zM100 500h100v-100h-100v100zM400 500h100v-100h-100v100zM0 400h100v-100h-100v100zM100 400h100v-100h-100v100zM200 400h100
v-100h-100v100zM300 400h100v-100h-100v100zM400 400h100v-100h-100v100zM0 300h100v-100h-100v100zM100 300h100v-100h-100v100zM400 300h100v-100h-100v100zM500 300h100v-100h-100v100zM0 200h100v-100h-100v100zM100 200h100v-100h-100v100zM400 200h100v-100h-100v100z
M500 200h100v-100h-100v100zM0 100h100v-100h-100v100zM100 100h100v-100h-100v100zM200 100h100v-100h-100v100zM300 100h100v-100h-100v100zM400 100h100v-100h-100v100z" />
    <glyph glyph-name="C" unicode="C" 
d="M100 600h100v-100h-100v100zM200 600h100v-100h-100v100zM300 600h100v-100h-100v100zM400 600h100v-100h-100v100zM0 500h100v-100h-100v100zM100 500h100v-100h-100v100zM400 500h100v-100h-100v100zM500 500h100v-100h-100v100zM0 400h100v-100h-100v100zM100 400h100
v-100h-100v100zM0 300h100v-100h-100v100zM100 300h100v-100h-100v100zM0 200h100v-100h-100v100zM100 200h100v-100h-100v100zM400 200h100v-100h-100v100zM500 200h100v-100h-100v100zM100 100h100v-100h-100v100zM200 100h100v-100h-100v100zM300 100h100v-100h-100v100z
M400 100h100v-100h-100v100z" />
    <glyph glyph-name="D" unicode="D" 
d="M0 600h100v-100h-100v100zM100 600h100v-100h-100v100zM200 600h100v-100h-100v100zM300 600h100v-100h-100v100zM400 600h100v-100h-100v100zM0 500h100v-100h-100v100zM100 500h100v-100h-100v100zM400 500h100v-100h-100v100zM500 500h100v-100h-100v100zM0 400h100
v-100h-100v100zM100 400h100v-100h-100v100zM400 400h100v-100h-100v100zM500 400h100v-100h-100v100zM0 300h100v-100h-100v100zM100 300h100v-100h-100v100zM400 300h100v-100h-100v100zM500 300h100v-100h-100v100zM0 200h100v-100h-100v100zM100 200h100v-100h-100v100z
M400 200h100v-100h-100v100zM500 200h100v-100h-100v100zM0 100h100v-100h-100v100zM100 100h100v-100h-100v100zM200 100h100v-100h-100v100zM300 100h100v-100h-100v100zM400 100h100v-100h-100v100z" />
    <glyph glyph-name="E" unicode="E" 
d="M0 600h100v-100h-100v100zM100 600h100v-100h-100v100zM200 600h100v-100h-100v100zM300 600h100v-100h-100v100zM400 600h100v-100h-100v100zM500 600h100v-100h-100v100zM0 500h100v-100h-100v100zM100 500h100v-100h-100v100zM0 400h100v-100h-100v100zM100 400h100
v-100h-100v100zM200 400h100v-100h-100v100zM300 400h100v-100h-100v100zM400 400h100v-100h-100v100zM0 300h100v-100h-100v100zM100 300h100v-100h-100v100zM0 200h100v-100h-100v100zM100 200h100v-100h-100v100zM0 100h100v-100h-100v100zM100 100h100v-100h-100v100z
M200 100h100v-100h-100v100zM300 100h100v-100h-100v100zM400 100h100v-100h-100v100zM500 100h100v-100h-100v100z" />
    <glyph glyph-name="F" unicode="F" 
d="M0 600h100v-100h-100v100zM100 600h100v-100h-100v100zM200 600h100v-100h-100v100zM300 600h100v-100h-100v100zM400 600h100v-100h-100v100zM500 600h100v-100h-100v100zM0 500h100v-100h-100v100zM100 500h100v-100h-100v100zM0 400h100v-100h-100v100zM100 400h100
v-100h-100v100zM200 400h100v-100h-100v100zM300 400h100v-100h-100v100zM400 400h100v-100h-100v100zM0 300h100v-100h-100v100zM100 300h100v-100h-100v100zM0 200h100v-100h-100v100zM100 200h100v-100h-100v100zM0 100h100v-100h-100v100zM100 100h100v-100h-100v100z
" />
    <glyph glyph-name="G" unicode="G" 
d="M100 600h100v-100h-100v100zM200 600h100v-100h-100v100zM300 600h100v-100h-100v100zM400 600h100v-100h-100v100zM0 500h100v-100h-100v100zM100 500h100v-100h-100v100zM400 500h100v-100h-100v100zM500 500h100v-100h-100v100zM0 400h100v-100h-100v100zM100 400h100
v-100h-100v100zM0 300h100v-100h-100v100zM100 300h100v-100h-100v100zM300 300h100v-100h-100v100zM400 300h100v-100h-100v100zM500 300h100v-100h-100v100zM0 200h100v-100h-100v100zM100 200h100v-100h-100v100zM400 200h100v-100h-100v100zM500 200h100v-100h-100v100z
M100 100h100v-100h-100v100zM200 100h100v-100h-100v100zM300 100h100v-100h-100v100zM400 100h100v-100h-100v100z" />
    <glyph glyph-name="H" unicode="H" 
d="M0 600h100v-100h-100v100zM100 600h100v-100h-100v100zM400 600h100v-100h-100v100zM500 600h100v-100h-100v100zM0 500h100v-100h-100v100zM100 500h100v-100h-100v100zM400 500h100v-100h-100v100zM500 500h100v-100h-100v100zM0 400h100v-100h-100v100zM100 400h100
v-100h-100v100zM200 400h100v-100h-100v100zM300 400h100v-100h-100v100zM400 400h100v-100h-100v100zM500 400h100v-100h-100v100zM0 300h100v-100h-100v100zM100 300h100v-100h-100v100zM400 300h100v-100h-100v100zM500 300h100v-100h-100v100zM0 200h100v-100h-100v100z
M100 200h100v-100h-100v100zM400 200h100v-100h-100v100zM500 200h100v-100h-100v100zM0 100h100v-100h-100v100zM100 100h100v-100h-100v100zM400 100h100v-100h-100v100zM500 100h100v-100h-100v100z" />
    <glyph glyph-name="I" unicode="I" horiz-adv-x="512" 
d="M0 600h100v-100h-100v100zM100 600h100v-100h-100v100zM200 600h100v-100h-100v100zM300 600h100v-100h-100v100zM100 500h100v-100h-100v100zM200 500h100v-100h-100v100zM100 400h100v-100h-100v100zM200 400h100v-100h-100v100zM100 300h100v-100h-100v100zM200 300
h100v-100h-100v100zM100 200h100v-100h-100v100zM200 200h100v-100h-100v100zM0 100h100v-100h-100v100zM100 100h100v-100h-100v100zM200 100h100v-100h-100v100zM300 100h100v-100h-100v100z" />
    <glyph glyph-name="J" unicode="J" 
d="M400 600h100v-100h-100v100zM500 600h100v-100h-100v100zM400 500h100v-100h-100v100zM500 500h100v-100h-100v100zM400 400h100v-100h-100v100zM500 400h100v-100h-100v100zM400 300h100v-100h-100v100zM500 300h100v-100h-100v100zM0 200h100v-100h-100v100zM100 200
h100v-100h-100v100zM400 200h100v-100h-100v100zM500 200h100v-100h-100v100zM100 100h100v-100h-100v100zM200 100h100v-100h-100v100zM300 100h100v-100h-100v100zM400 100h100v-100h-100v100z" />
    <glyph glyph-name="K" unicode="K" 
d="M0 600h100v-100h-100v100zM100 600h100v-100h-100v100zM400 600h100v-100h-100v100zM500 600h100v-100h-100v100zM0 500h100v-100h-100v100zM100 500h100v-100h-100v100zM300 500h100v-100h-100v100zM400 500h100v-100h-100v100zM500 500h100v-100h-100v100zM0 400h100
v-100h-100v100zM100 400h100v-100h-100v100zM200 400h100v-100h-100v100zM300 400h100v-100h-100v100zM0 300h100v-100h-100v100zM100 300h100v-100h-100v100zM200 300h100v-100h-100v100zM300 300h100v-100h-100v100zM400 300h100v-100h-100v100zM0 200h100v-100h-100v100z
M100 200h100v-100h-100v100zM300 200h100v-100h-100v100zM400 200h100v-100h-100v100zM500 200h100v-100h-100v100zM0 100h100v-100h-100v100zM100 100h100v-100h-100v100zM400 100h100v-100h-100v100zM500 100h100v-100h-100v100z" />
    <glyph glyph-name="L" unicode="L" 
d="M0 600h100v-100h-100v100zM100 600h100v-100h-100v100zM0 500h100v-100h-100v100zM100 500h100v-100h-100v100zM0 400h100v-100h-100v100zM100 400h100v-100h-100v100zM0 300h100v-100h-100v100zM100 300h100v-100h-100v100zM0 200h100v-100h-100v100zM100 200h100v-100
h-100v100zM400 200h100v-100h-100v100zM500 200h100v-100h-100v100zM0 100h100v-100h-100v100zM100 100h100v-100h-100v100zM200 100h100v-100h-100v100zM300 100h100v-100h-100v100zM400 100h100v-100h-100v100zM500 100h100v-100h-100v100z" />
    <glyph glyph-name="M" unicode="M" horiz-adv-x="819" 
d="M100 600h100v-100h-100v100zM500 600h100v-100h-100v100zM0 500h100v-100h-100v100zM100 500h100v-100h-100v100zM200 500h100v-100h-100v100zM400 500h100v-100h-100v100zM500 500h100v-100h-100v100zM600 500h100v-100h-100v100zM0 400h100v-100h-100v100zM100 400h100
v-100h-100v100zM200 400h100v-100h-100v100zM300 400h100v-100h-100v100zM400 400h100v-100h-100v100zM500 400h100v-100h-100v100zM600 400h100v-100h-100v100zM0 300h100v-100h-100v100zM100 300h100v-100h-100v100zM300 300h100v-100h-100v100zM500 300h100v-100h-100
v100zM600 300h100v-100h-100v100zM0 200h100v-100h-100v100zM100 200h100v-100h-100v100zM500 200h100v-100h-100v100zM600 200h100v-100h-100v100zM0 100h100v-100h-100v100zM100 100h100v-100h-100v100zM500 100h100v-100h-100v100zM600 100h100v-100h-100v100z" />
    <glyph glyph-name="N" unicode="N" 
d="M0 600h100v-100h-100v100zM100 600h100v-100h-100v100zM400 600h100v-100h-100v100zM500 600h100v-100h-100v100zM0 500h100v-100h-100v100zM100 500h100v-100h-100v100zM400 500h100v-100h-100v100zM500 500h100v-100h-100v100zM0 400h100v-100h-100v100zM100 400h100
v-100h-100v100zM200 400h100v-100h-100v100zM300 400h100v-100h-100v100zM400 400h100v-100h-100v100zM500 400h100v-100h-100v100zM0 300h100v-100h-100v100zM100 300h100v-100h-100v100zM300 300h100v-100h-100v100zM400 300h100v-100h-100v100zM500 300h100v-100h-100
v100zM0 200h100v-100h-100v100zM100 200h100v-100h-100v100zM400 200h100v-100h-100v100zM500 200h100v-100h-100v100zM0 100h100v-100h-100v100zM100 100h100v-100h-100v100zM500 100h100v-100h-100v100z" />
    <glyph glyph-name="O" unicode="O" 
d="M100 600h100v-100h-100v100zM200 600h100v-100h-100v100zM300 600h100v-100h-100v100zM400 600h100v-100h-100v100zM0 500h100v-100h-100v100zM100 500h100v-100h-100v100zM400 500h100v-100h-100v100zM500 500h100v-100h-100v100zM0 400h100v-100h-100v100zM100 400h100
v-100h-100v100zM400 400h100v-100h-100v100zM500 400h100v-100h-100v100zM0 300h100v-100h-100v100zM100 300h100v-100h-100v100zM400 300h100v-100h-100v100zM500 300h100v-100h-100v100zM0 200h100v-100h-100v100zM100 200h100v-100h-100v100zM400 200h100v-100h-100v100z
M500 200h100v-100h-100v100zM100 100h100v-100h-100v100zM200 100h100v-100h-100v100zM300 100h100v-100h-100v100zM400 100h100v-100h-100v100z" />
    <glyph glyph-name="P" unicode="P" 
d="M0 600h100v-100h-100v100zM100 600h100v-100h-100v100zM200 600h100v-100h-100v100zM300 600h100v-100h-100v100zM400 600h100v-100h-100v100zM0 500h100v-100h-100v100zM100 500h100v-100h-100v100zM400 500h100v-100h-100v100zM500 500h100v-100h-100v100zM0 400h100
v-100h-100v100zM100 400h100v-100h-100v100zM400 400h100v-100h-100v100zM500 400h100v-100h-100v100zM0 300h100v-100h-100v100zM100 300h100v-100h-100v100zM200 300h100v-100h-100v100zM300 300h100v-100h-100v100zM400 300h100v-100h-100v100zM0 200h100v-100h-100v100z
M100 200h100v-100h-100v100zM0 100h100v-100h-100v100zM100 100h100v-100h-100v100z" />
    <glyph glyph-name="Q" unicode="Q" 
d="M100 600h100v-100h-100v100zM200 600h100v-100h-100v100zM300 600h100v-100h-100v100zM400 600h100v-100h-100v100zM0 500h100v-100h-100v100zM100 500h100v-100h-100v100zM400 500h100v-100h-100v100zM500 500h100v-100h-100v100zM0 400h100v-100h-100v100zM100 400h100
v-100h-100v100zM400 400h100v-100h-100v100zM500 400h100v-100h-100v100zM0 300h100v-100h-100v100zM100 300h100v-100h-100v100zM400 300h100v-100h-100v100zM500 300h100v-100h-100v100zM0 200h100v-100h-100v100zM100 200h100v-100h-100v100zM300 200h100v-100h-100v100z
M400 200h100v-100h-100v100zM100 100h100v-100h-100v100zM200 100h100v-100h-100v100zM300 100h100v-100h-100v100zM400 100h100v-100h-100v100zM500 100h100v-100h-100v100z" />
    <glyph glyph-name="R" unicode="R" 
d="M0 600h100v-100h-100v100zM100 600h100v-100h-100v100zM200 600h100v-100h-100v100zM300 600h100v-100h-100v100zM400 600h100v-100h-100v100zM0 500h100v-100h-100v100zM100 500h100v-100h-100v100zM400 500h100v-100h-100v100zM500 500h100v-100h-100v100zM0 400h100
v-100h-100v100zM100 400h100v-100h-100v100zM400 400h100v-100h-100v100zM500 400h100v-100h-100v100zM0 300h100v-100h-100v100zM100 300h100v-100h-100v100zM200 300h100v-100h-100v100zM300 300h100v-100h-100v100zM400 300h100v-100h-100v100zM0 200h100v-100h-100v100z
M100 200h100v-100h-100v100zM400 200h100v-100h-100v100zM500 200h100v-100h-100v100zM0 100h100v-100h-100v100zM100 100h100v-100h-100v100zM400 100h100v-100h-100v100zM500 100h100v-100h-100v100z" />
    <glyph glyph-name="S" unicode="S" 
d="M100 600h100v-100h-100v100zM200 600h100v-100h-100v100zM300 600h100v-100h-100v100zM400 600h100v-100h-100v100zM0 500h100v-100h-100v100zM100 500h100v-100h-100v100zM100 400h100v-100h-100v100zM200 400h100v-100h-100v100zM300 400h100v-100h-100v100zM400 400
h100v-100h-100v100zM400 300h100v-100h-100v100zM500 300h100v-100h-100v100zM0 200h100v-100h-100v100zM100 200h100v-100h-100v100zM400 200h100v-100h-100v100zM500 200h100v-100h-100v100zM100 100h100v-100h-100v100zM200 100h100v-100h-100v100zM300 100h100v-100
h-100v100zM400 100h100v-100h-100v100z" />
    <glyph glyph-name="T" unicode="T" 
d="M0 600h100v-100h-100v100zM100 600h100v-100h-100v100zM200 600h100v-100h-100v100zM300 600h100v-100h-100v100zM400 600h100v-100h-100v100zM500 600h100v-100h-100v100zM0 500h100v-100h-100v100zM200 500h100v-100h-100v100zM300 500h100v-100h-100v100zM500 500h100
v-100h-100v100zM200 400h100v-100h-100v100zM300 400h100v-100h-100v100zM200 300h100v-100h-100v100zM300 300h100v-100h-100v100zM200 200h100v-100h-100v100zM300 200h100v-100h-100v100zM100 100h100v-100h-100v100zM200 100h100v-100h-100v100zM300 100h100v-100h-100
v100zM400 100h100v-100h-100v100z" />
    <glyph glyph-name="U" unicode="U" 
d="M0 600h100v-100h-100v100zM100 600h100v-100h-100v100zM400 600h100v-100h-100v100zM500 600h100v-100h-100v100zM0 500h100v-100h-100v100zM100 500h100v-100h-100v100zM400 500h100v-100h-100v100zM500 500h100v-100h-100v100zM0 400h100v-100h-100v100zM100 400h100
v-100h-100v100zM400 400h100v-100h-100v100zM500 400h100v-100h-100v100zM0 300h100v-100h-100v100zM100 300h100v-100h-100v100zM400 300h100v-100h-100v100zM500 300h100v-100h-100v100zM0 200h100v-100h-100v100zM100 200h100v-100h-100v100zM400 200h100v-100h-100v100z
M500 200h100v-100h-100v100zM100 100h100v-100h-100v100zM200 100h100v-100h-100v100zM300 100h100v-100h-100v100zM400 100h100v-100h-100v100z" />
    <glyph glyph-name="V" unicode="V" 
d="M0 600h100v-100h-100v100zM100 600h100v-100h-100v100zM400 600h100v-100h-100v100zM500 600h100v-100h-100v100zM0 500h100v-100h-100v100zM100 500h100v-100h-100v100zM400 500h100v-100h-100v100zM500 500h100v-100h-100v100zM0 400h100v-100h-100v100zM100 400h100
v-100h-100v100zM400 400h100v-100h-100v100zM500 400h100v-100h-100v100zM0 300h100v-100h-100v100zM100 300h100v-100h-100v100zM400 300h100v-100h-100v100zM500 300h100v-100h-100v100zM100 200h100v-100h-100v100zM200 200h100v-100h-100v100zM300 200h100v-100h-100
v100zM400 200h100v-100h-100v100zM200 100h100v-100h-100v100zM300 100h100v-100h-100v100z" />
    <glyph glyph-name="W" unicode="W" horiz-adv-x="819" 
d="M0 600h100v-100h-100v100zM100 600h100v-100h-100v100zM500 600h100v-100h-100v100zM600 600h100v-100h-100v100zM0 500h100v-100h-100v100zM100 500h100v-100h-100v100zM500 500h100v-100h-100v100zM600 500h100v-100h-100v100zM0 400h100v-100h-100v100zM100 400h100
v-100h-100v100zM300 400h100v-100h-100v100zM500 400h100v-100h-100v100zM600 400h100v-100h-100v100zM0 300h100v-100h-100v100zM100 300h100v-100h-100v100zM200 300h100v-100h-100v100zM300 300h100v-100h-100v100zM400 300h100v-100h-100v100zM500 300h100v-100h-100
v100zM600 300h100v-100h-100v100zM0 200h100v-100h-100v100zM100 200h100v-100h-100v100zM200 200h100v-100h-100v100zM400 200h100v-100h-100v100zM500 200h100v-100h-100v100zM600 200h100v-100h-100v100zM100 100h100v-100h-100v100zM500 100h100v-100h-100v100z" />
    <glyph glyph-name="X" unicode="X" 
d="M0 600h100v-100h-100v100zM100 600h100v-100h-100v100zM400 600h100v-100h-100v100zM500 600h100v-100h-100v100zM0 500h100v-100h-100v100zM100 500h100v-100h-100v100zM200 500h100v-100h-100v100zM300 500h100v-100h-100v100zM400 500h100v-100h-100v100zM500 500h100
v-100h-100v100zM200 400h100v-100h-100v100zM300 400h100v-100h-100v100zM100 300h100v-100h-100v100zM200 300h100v-100h-100v100zM300 300h100v-100h-100v100zM400 300h100v-100h-100v100zM0 200h100v-100h-100v100zM100 200h100v-100h-100v100zM400 200h100v-100h-100
v100zM500 200h100v-100h-100v100zM0 100h100v-100h-100v100zM100 100h100v-100h-100v100zM400 100h100v-100h-100v100zM500 100h100v-100h-100v100z" />
    <glyph glyph-name="Y" unicode="Y" 
d="M0 600h100v-100h-100v100zM500 600h100v-100h-100v100zM0 500h100v-100h-100v100zM100 500h100v-100h-100v100zM400 500h100v-100h-100v100zM500 500h100v-100h-100v100zM100 400h100v-100h-100v100zM200 400h100v-100h-100v100zM300 400h100v-100h-100v100zM400 400h100
v-100h-100v100zM200 300h100v-100h-100v100zM300 300h100v-100h-100v100zM200 200h100v-100h-100v100zM300 200h100v-100h-100v100zM200 100h100v-100h-100v100zM300 100h100v-100h-100v100z" />
    <glyph glyph-name="Z" unicode="Z" 
d="M0 600h100v-100h-100v100zM100 600h100v-100h-100v100zM200 600h100v-100h-100v100zM300 600h100v-100h-100v100zM400 600h100v-100h-100v100zM500 600h100v-100h-100v100zM0 500h100v-100h-100v100zM100 500h100v-100h-100v100zM400 500h100v-100h-100v100zM500 500h100
v-100h-100v100zM300 400h100v-100h-100v100zM400 400h100v-100h-100v100zM200 300h100v-100h-100v100zM300 300h100v-100h-100v100zM100 200h100v-100h-100v100zM200 200h100v-100h-100v100zM500 200h100v-100h-100v100zM0 100h100v-100h-100v100zM100 100h100v-100h-100
v100zM200 100h100v-100h-100v100zM300 100h100v-100h-100v100zM400 100h100v-100h-100v100zM500 100h100v-100h-100v100z" />
    <glyph glyph-name="bracketleft" unicode="[" horiz-adv-x="410" 
d="M0 600h100v-100h-100v100zM100 600h100v-100h-100v100zM200 600h100v-100h-100v100zM0 500h100v-100h-100v100zM100 500h100v-100h-100v100zM0 400h100v-100h-100v100zM100 400h100v-100h-100v100zM0 300h100v-100h-100v100zM100 300h100v-100h-100v100zM0 200h100v-100
h-100v100zM100 200h100v-100h-100v100zM0 100h100v-100h-100v100zM100 100h100v-100h-100v100zM200 100h100v-100h-100v100z" />
    <glyph glyph-name="backslash" unicode="\" horiz-adv-x="410" 
d="M0 600h100v-100h-100v100zM0 500h100v-100h-100v100zM100 400h100v-100h-100v100zM100 300h100v-100h-100v100zM200 200h100v-100h-100v100zM200 100h100v-100h-100v100z" />
    <glyph glyph-name="bracketright" unicode="]" horiz-adv-x="410" 
d="M0 600h100v-100h-100v100zM100 600h100v-100h-100v100zM200 600h100v-100h-100v100zM100 500h100v-100h-100v100zM200 500h100v-100h-100v100zM100 400h100v-100h-100v100zM200 400h100v-100h-100v100zM100 300h100v-100h-100v100zM200 300h100v-100h-100v100zM100 200
h100v-100h-100v100zM200 200h100v-100h-100v100zM0 100h100v-100h-100v100zM100 100h100v-100h-100v100zM200 100h100v-100h-100v100z" />
    <glyph glyph-name="asciicircum" unicode="^" 
d="M200 600h100v-100h-100v100zM300 600h100v-100h-100v100zM100 500h100v-100h-100v100zM200 500h100v-100h-100v100zM300 500h100v-100h-100v100zM400 500h100v-100h-100v100zM0 400h100v-100h-100v100zM100 400h100v-100h-100v100zM400 400h100v-100h-100v100zM500 400
h100v-100h-100v100z" />
    <glyph glyph-name="underscore" unicode="_" 
d="M0 100h100v-100h-100v100zM100 100h100v-100h-100v100zM200 100h100v-100h-100v100zM300 100h100v-100h-100v100zM400 100h100v-100h-100v100zM500 100h100v-100h-100v100z" />
    <glyph glyph-name="grave" unicode="`" horiz-adv-x="307" 
d="M0 600h100v-100h-100v100zM0 500h100v-100h-100v100zM100 500h100v-100h-100v100zM100 400h100v-100h-100v100z" />
    <glyph glyph-name="a" unicode="a" 
d="M200 600h100v-100h-100v100zM300 600h100v-100h-100v100zM100 500h100v-100h-100v100zM200 500h100v-100h-100v100zM300 500h100v-100h-100v100zM400 500h100v-100h-100v100zM0 400h100v-100h-100v100zM100 400h100v-100h-100v100zM400 400h100v-100h-100v100zM500 400
h100v-100h-100v100zM0 300h100v-100h-100v100zM100 300h100v-100h-100v100zM200 300h100v-100h-100v100zM300 300h100v-100h-100v100zM400 300h100v-100h-100v100zM500 300h100v-100h-100v100zM0 200h100v-100h-100v100zM100 200h100v-100h-100v100zM400 200h100v-100h-100
v100zM500 200h100v-100h-100v100zM0 100h100v-100h-100v100zM100 100h100v-100h-100v100zM400 100h100v-100h-100v100zM500 100h100v-100h-100v100z" />
    <glyph glyph-name="b" unicode="b" 
d="M0 600h100v-100h-100v100zM100 600h100v-100h-100v100zM200 600h100v-100h-100v100zM300 600h100v-100h-100v100zM0 500h100v-100h-100v100zM100 500h100v-100h-100v100zM400 500h100v-100h-100v100zM0 400h100v-100h-100v100zM100 400h100v-100h-100v100zM200 400h100
v-100h-100v100zM300 400h100v-100h-100v100zM400 400h100v-100h-100v100zM0 300h100v-100h-100v100zM100 300h100v-100h-100v100zM400 300h100v-100h-100v100zM500 300h100v-100h-100v100zM0 200h100v-100h-100v100zM100 200h100v-100h-100v100zM400 200h100v-100h-100v100z
M500 200h100v-100h-100v100zM0 100h100v-100h-100v100zM100 100h100v-100h-100v100zM200 100h100v-100h-100v100zM300 100h100v-100h-100v100zM400 100h100v-100h-100v100z" />
    <glyph glyph-name="c" unicode="c" 
d="M100 600h100v-100h-100v100zM200 600h100v-100h-100v100zM300 600h100v-100h-100v100zM400 600h100v-100h-100v100zM0 500h100v-100h-100v100zM100 500h100v-100h-100v100zM400 500h100v-100h-100v100zM500 500h100v-100h-100v100zM0 400h100v-100h-100v100zM100 400h100
v-100h-100v100zM0 300h100v-100h-100v100zM100 300h100v-100h-100v100zM0 200h100v-100h-100v100zM100 200h100v-100h-100v100zM400 200h100v-100h-100v100zM500 200h100v-100h-100v100zM100 100h100v-100h-100v100zM200 100h100v-100h-100v100zM300 100h100v-100h-100v100z
M400 100h100v-100h-100v100z" />
    <glyph glyph-name="d" unicode="d" 
d="M0 600h100v-100h-100v100zM100 600h100v-100h-100v100zM200 600h100v-100h-100v100zM300 600h100v-100h-100v100zM400 600h100v-100h-100v100zM0 500h100v-100h-100v100zM100 500h100v-100h-100v100zM400 500h100v-100h-100v100zM500 500h100v-100h-100v100zM0 400h100
v-100h-100v100zM100 400h100v-100h-100v100zM400 400h100v-100h-100v100zM500 400h100v-100h-100v100zM0 300h100v-100h-100v100zM100 300h100v-100h-100v100zM400 300h100v-100h-100v100zM500 300h100v-100h-100v100zM0 200h100v-100h-100v100zM100 200h100v-100h-100v100z
M400 200h100v-100h-100v100zM500 200h100v-100h-100v100zM0 100h100v-100h-100v100zM100 100h100v-100h-100v100zM200 100h100v-100h-100v100zM300 100h100v-100h-100v100zM400 100h100v-100h-100v100z" />
    <glyph glyph-name="e" unicode="e" 
d="M0 600h100v-100h-100v100zM100 600h100v-100h-100v100zM200 600h100v-100h-100v100zM300 600h100v-100h-100v100zM400 600h100v-100h-100v100zM500 600h100v-100h-100v100zM0 500h100v-100h-100v100zM100 500h100v-100h-100v100zM0 400h100v-100h-100v100zM100 400h100
v-100h-100v100zM200 400h100v-100h-100v100zM300 400h100v-100h-100v100zM400 400h100v-100h-100v100zM0 300h100v-100h-100v100zM100 300h100v-100h-100v100zM0 200h100v-100h-100v100zM100 200h100v-100h-100v100zM0 100h100v-100h-100v100zM100 100h100v-100h-100v100z
M200 100h100v-100h-100v100zM300 100h100v-100h-100v100zM400 100h100v-100h-100v100zM500 100h100v-100h-100v100z" />
    <glyph glyph-name="f" unicode="f" 
d="M0 600h100v-100h-100v100zM100 600h100v-100h-100v100zM200 600h100v-100h-100v100zM300 600h100v-100h-100v100zM400 600h100v-100h-100v100zM500 600h100v-100h-100v100zM0 500h100v-100h-100v100zM100 500h100v-100h-100v100zM0 400h100v-100h-100v100zM100 400h100
v-100h-100v100zM200 400h100v-100h-100v100zM300 400h100v-100h-100v100zM400 400h100v-100h-100v100zM0 300h100v-100h-100v100zM100 300h100v-100h-100v100zM0 200h100v-100h-100v100zM100 200h100v-100h-100v100zM0 100h100v-100h-100v100zM100 100h100v-100h-100v100z
" />
    <glyph glyph-name="g" unicode="g" 
d="M100 600h100v-100h-100v100zM200 600h100v-100h-100v100zM300 600h100v-100h-100v100zM400 600h100v-100h-100v100zM0 500h100v-100h-100v100zM100 500h100v-100h-100v100zM400 500h100v-100h-100v100zM500 500h100v-100h-100v100zM0 400h100v-100h-100v100zM100 400h100
v-100h-100v100zM0 300h100v-100h-100v100zM100 300h100v-100h-100v100zM300 300h100v-100h-100v100zM400 300h100v-100h-100v100zM500 300h100v-100h-100v100zM0 200h100v-100h-100v100zM100 200h100v-100h-100v100zM400 200h100v-100h-100v100zM500 200h100v-100h-100v100z
M100 100h100v-100h-100v100zM200 100h100v-100h-100v100zM300 100h100v-100h-100v100zM400 100h100v-100h-100v100z" />
    <glyph glyph-name="h" unicode="h" 
d="M0 600h100v-100h-100v100zM100 600h100v-100h-100v100zM400 600h100v-100h-100v100zM500 600h100v-100h-100v100zM0 500h100v-100h-100v100zM100 500h100v-100h-100v100zM400 500h100v-100h-100v100zM500 500h100v-100h-100v100zM0 400h100v-100h-100v100zM100 400h100
v-100h-100v100zM200 400h100v-100h-100v100zM300 400h100v-100h-100v100zM400 400h100v-100h-100v100zM500 400h100v-100h-100v100zM0 300h100v-100h-100v100zM100 300h100v-100h-100v100zM400 300h100v-100h-100v100zM500 300h100v-100h-100v100zM0 200h100v-100h-100v100z
M100 200h100v-100h-100v100zM400 200h100v-100h-100v100zM500 200h100v-100h-100v100zM0 100h100v-100h-100v100zM100 100h100v-100h-100v100zM400 100h100v-100h-100v100zM500 100h100v-100h-100v100z" />
    <glyph glyph-name="i" unicode="i" horiz-adv-x="512" 
d="M0 600h100v-100h-100v100zM100 600h100v-100h-100v100zM200 600h100v-100h-100v100zM300 600h100v-100h-100v100zM100 500h100v-100h-100v100zM200 500h100v-100h-100v100zM100 400h100v-100h-100v100zM200 400h100v-100h-100v100zM100 300h100v-100h-100v100zM200 300
h100v-100h-100v100zM100 200h100v-100h-100v100zM200 200h100v-100h-100v100zM0 100h100v-100h-100v100zM100 100h100v-100h-100v100zM200 100h100v-100h-100v100zM300 100h100v-100h-100v100z" />
    <glyph glyph-name="j" unicode="j" 
d="M400 600h100v-100h-100v100zM500 600h100v-100h-100v100zM400 500h100v-100h-100v100zM500 500h100v-100h-100v100zM400 400h100v-100h-100v100zM500 400h100v-100h-100v100zM400 300h100v-100h-100v100zM500 300h100v-100h-100v100zM0 200h100v-100h-100v100zM100 200
h100v-100h-100v100zM400 200h100v-100h-100v100zM500 200h100v-100h-100v100zM100 100h100v-100h-100v100zM200 100h100v-100h-100v100zM300 100h100v-100h-100v100zM400 100h100v-100h-100v100z" />
    <glyph glyph-name="k" unicode="k" 
d="M0 600h100v-100h-100v100zM100 600h100v-100h-100v100zM400 600h100v-100h-100v100zM500 600h100v-100h-100v100zM0 500h100v-100h-100v100zM100 500h100v-100h-100v100zM300 500h100v-100h-100v100zM400 500h100v-100h-100v100zM500 500h100v-100h-100v100zM0 400h100
v-100h-100v100zM100 400h100v-100h-100v100zM200 400h100v-100h-100v100zM300 400h100v-100h-100v100zM0 300h100v-100h-100v100zM100 300h100v-100h-100v100zM200 300h100v-100h-100v100zM300 300h100v-100h-100v100zM400 300h100v-100h-100v100zM0 200h100v-100h-100v100z
M100 200h100v-100h-100v100zM300 200h100v-100h-100v100zM400 200h100v-100h-100v100zM500 200h100v-100h-100v100zM0 100h100v-100h-100v100zM100 100h100v-100h-100v100zM400 100h100v-100h-100v100zM500 100h100v-100h-100v100z" />
    <glyph glyph-name="l" unicode="l" 
d="M0 600h100v-100h-100v100zM100 600h100v-100h-100v100zM0 500h100v-100h-100v100zM100 500h100v-100h-100v100zM0 400h100v-100h-100v100zM100 400h100v-100h-100v100zM0 300h100v-100h-100v100zM100 300h100v-100h-100v100zM0 200h100v-100h-100v100zM100 200h100v-100
h-100v100zM400 200h100v-100h-100v100zM500 200h100v-100h-100v100zM0 100h100v-100h-100v100zM100 100h100v-100h-100v100zM200 100h100v-100h-100v100zM300 100h100v-100h-100v100zM400 100h100v-100h-100v100zM500 100h100v-100h-100v100z" />
    <glyph glyph-name="m" unicode="m" horiz-adv-x="819" 
d="M100 600h100v-100h-100v100zM500 600h100v-100h-100v100zM0 500h100v-100h-100v100zM100 500h100v-100h-100v100zM200 500h100v-100h-100v100zM400 500h100v-100h-100v100zM500 500h100v-100h-100v100zM600 500h100v-100h-100v100zM0 400h100v-100h-100v100zM100 400h100
v-100h-100v100zM200 400h100v-100h-100v100zM300 400h100v-100h-100v100zM400 400h100v-100h-100v100zM500 400h100v-100h-100v100zM600 400h100v-100h-100v100zM0 300h100v-100h-100v100zM100 300h100v-100h-100v100zM300 300h100v-100h-100v100zM500 300h100v-100h-100
v100zM600 300h100v-100h-100v100zM0 200h100v-100h-100v100zM100 200h100v-100h-100v100zM500 200h100v-100h-100v100zM600 200h100v-100h-100v100zM0 100h100v-100h-100v100zM100 100h100v-100h-100v100zM500 100h100v-100h-100v100zM600 100h100v-100h-100v100z" />
    <glyph glyph-name="n" unicode="n" 
d="M0 600h100v-100h-100v100zM100 600h100v-100h-100v100zM400 600h100v-100h-100v100zM500 600h100v-100h-100v100zM0 500h100v-100h-100v100zM100 500h100v-100h-100v100zM400 500h100v-100h-100v100zM500 500h100v-100h-100v100zM0 400h100v-100h-100v100zM100 400h100
v-100h-100v100zM200 400h100v-100h-100v100zM300 400h100v-100h-100v100zM400 400h100v-100h-100v100zM500 400h100v-100h-100v100zM0 300h100v-100h-100v100zM100 300h100v-100h-100v100zM300 300h100v-100h-100v100zM400 300h100v-100h-100v100zM500 300h100v-100h-100
v100zM0 200h100v-100h-100v100zM100 200h100v-100h-100v100zM400 200h100v-100h-100v100zM500 200h100v-100h-100v100zM0 100h100v-100h-100v100zM100 100h100v-100h-100v100zM500 100h100v-100h-100v100z" />
    <glyph glyph-name="o" unicode="o" 
d="M100 600h100v-100h-100v100zM200 600h100v-100h-100v100zM300 600h100v-100h-100v100zM400 600h100v-100h-100v100zM0 500h100v-100h-100v100zM100 500h100v-100h-100v100zM400 500h100v-100h-100v100zM500 500h100v-100h-100v100zM0 400h100v-100h-100v100zM100 400h100
v-100h-100v100zM400 400h100v-100h-100v100zM500 400h100v-100h-100v100zM0 300h100v-100h-100v100zM100 300h100v-100h-100v100zM400 300h100v-100h-100v100zM500 300h100v-100h-100v100zM0 200h100v-100h-100v100zM100 200h100v-100h-100v100zM400 200h100v-100h-100v100z
M500 200h100v-100h-100v100zM100 100h100v-100h-100v100zM200 100h100v-100h-100v100zM300 100h100v-100h-100v100zM400 100h100v-100h-100v100z" />
    <glyph glyph-name="p" unicode="p" 
d="M0 600h100v-100h-100v100zM100 600h100v-100h-100v100zM200 600h100v-100h-100v100zM300 600h100v-100h-100v100zM400 600h100v-100h-100v100zM0 500h100v-100h-100v100zM100 500h100v-100h-100v100zM400 500h100v-100h-100v100zM500 500h100v-100h-100v100zM0 400h100
v-100h-100v100zM100 400h100v-100h-100v100zM400 400h100v-100h-100v100zM500 400h100v-100h-100v100zM0 300h100v-100h-100v100zM100 300h100v-100h-100v100zM200 300h100v-100h-100v100zM300 300h100v-100h-100v100zM400 300h100v-100h-100v100zM0 200h100v-100h-100v100z
M100 200h100v-100h-100v100zM0 100h100v-100h-100v100zM100 100h100v-100h-100v100z" />
    <glyph glyph-name="q" unicode="q" 
d="M100 600h100v-100h-100v100zM200 600h100v-100h-100v100zM300 600h100v-100h-100v100zM400 600h100v-100h-100v100zM0 500h100v-100h-100v100zM100 500h100v-100h-100v100zM400 500h100v-100h-100v100zM500 500h100v-100h-100v100zM0 400h100v-100h-100v100zM100 400h100
v-100h-100v100zM400 400h100v-100h-100v100zM500 400h100v-100h-100v100zM0 300h100v-100h-100v100zM100 300h100v-100h-100v100zM400 300h100v-100h-100v100zM500 300h100v-100h-100v100zM0 200h100v-100h-100v100zM100 200h100v-100h-100v100zM300 200h100v-100h-100v100z
M400 200h100v-100h-100v100zM100 100h100v-100h-100v100zM200 100h100v-100h-100v100zM300 100h100v-100h-100v100zM400 100h100v-100h-100v100zM500 100h100v-100h-100v100z" />
    <glyph glyph-name="r" unicode="r" 
d="M0 600h100v-100h-100v100zM100 600h100v-100h-100v100zM200 600h100v-100h-100v100zM300 600h100v-100h-100v100zM400 600h100v-100h-100v100zM0 500h100v-100h-100v100zM100 500h100v-100h-100v100zM400 500h100v-100h-100v100zM500 500h100v-100h-100v100zM0 400h100
v-100h-100v100zM100 400h100v-100h-100v100zM400 400h100v-100h-100v100zM500 400h100v-100h-100v100zM0 300h100v-100h-100v100zM100 300h100v-100h-100v100zM200 300h100v-100h-100v100zM300 300h100v-100h-100v100zM400 300h100v-100h-100v100zM0 200h100v-100h-100v100z
M100 200h100v-100h-100v100zM400 200h100v-100h-100v100zM500 200h100v-100h-100v100zM0 100h100v-100h-100v100zM100 100h100v-100h-100v100zM400 100h100v-100h-100v100zM500 100h100v-100h-100v100z" />
    <glyph glyph-name="s" unicode="s" 
d="M100 600h100v-100h-100v100zM200 600h100v-100h-100v100zM300 600h100v-100h-100v100zM400 600h100v-100h-100v100zM0 500h100v-100h-100v100zM100 500h100v-100h-100v100zM100 400h100v-100h-100v100zM200 400h100v-100h-100v100zM300 400h100v-100h-100v100zM400 400
h100v-100h-100v100zM400 300h100v-100h-100v100zM500 300h100v-100h-100v100zM0 200h100v-100h-100v100zM100 200h100v-100h-100v100zM400 200h100v-100h-100v100zM500 200h100v-100h-100v100zM100 100h100v-100h-100v100zM200 100h100v-100h-100v100zM300 100h100v-100
h-100v100zM400 100h100v-100h-100v100z" />
    <glyph glyph-name="t" unicode="t" 
d="M0 600h100v-100h-100v100zM100 600h100v-100h-100v100zM200 600h100v-100h-100v100zM300 600h100v-100h-100v100zM400 600h100v-100h-100v100zM500 600h100v-100h-100v100zM0 500h100v-100h-100v100zM200 500h100v-100h-100v100zM300 500h100v-100h-100v100zM500 500h100
v-100h-100v100zM200 400h100v-100h-100v100zM300 400h100v-100h-100v100zM200 300h100v-100h-100v100zM300 300h100v-100h-100v100zM200 200h100v-100h-100v100zM300 200h100v-100h-100v100zM100 100h100v-100h-100v100zM200 100h100v-100h-100v100zM300 100h100v-100h-100
v100zM400 100h100v-100h-100v100z" />
    <glyph glyph-name="u" unicode="u" 
d="M0 600h100v-100h-100v100zM100 600h100v-100h-100v100zM400 600h100v-100h-100v100zM500 600h100v-100h-100v100zM0 500h100v-100h-100v100zM100 500h100v-100h-100v100zM400 500h100v-100h-100v100zM500 500h100v-100h-100v100zM0 400h100v-100h-100v100zM100 400h100
v-100h-100v100zM400 400h100v-100h-100v100zM500 400h100v-100h-100v100zM0 300h100v-100h-100v100zM100 300h100v-100h-100v100zM400 300h100v-100h-100v100zM500 300h100v-100h-100v100zM0 200h100v-100h-100v100zM100 200h100v-100h-100v100zM400 200h100v-100h-100v100z
M500 200h100v-100h-100v100zM100 100h100v-100h-100v100zM200 100h100v-100h-100v100zM300 100h100v-100h-100v100zM400 100h100v-100h-100v100z" />
    <glyph glyph-name="v" unicode="v" 
d="M0 600h100v-100h-100v100zM100 600h100v-100h-100v100zM400 600h100v-100h-100v100zM500 600h100v-100h-100v100zM0 500h100v-100h-100v100zM100 500h100v-100h-100v100zM400 500h100v-100h-100v100zM500 500h100v-100h-100v100zM0 400h100v-100h-100v100zM100 400h100
v-100h-100v100zM400 400h100v-100h-100v100zM500 400h100v-100h-100v100zM0 300h100v-100h-100v100zM100 300h100v-100h-100v100zM400 300h100v-100h-100v100zM500 300h100v-100h-100v100zM100 200h100v-100h-100v100zM200 200h100v-100h-100v100zM300 200h100v-100h-100
v100zM400 200h100v-100h-100v100zM200 100h100v-100h-100v100zM300 100h100v-100h-100v100z" />
    <glyph glyph-name="w" unicode="w" horiz-adv-x="819" 
d="M0 600h100v-100h-100v100zM100 600h100v-100h-100v100zM500 600h100v-100h-100v100zM600 600h100v-100h-100v100zM0 500h100v-100h-100v100zM100 500h100v-100h-100v100zM500 500h100v-100h-100v100zM600 500h100v-100h-100v100zM0 400h100v-100h-100v100zM100 400h100
v-100h-100v100zM300 400h100v-100h-100v100zM500 400h100v-100h-100v100zM600 400h100v-100h-100v100zM0 300h100v-100h-100v100zM100 300h100v-100h-100v100zM200 300h100v-100h-100v100zM300 300h100v-100h-100v100zM400 300h100v-100h-100v100zM500 300h100v-100h-100
v100zM600 300h100v-100h-100v100zM0 200h100v-100h-100v100zM100 200h100v-100h-100v100zM200 200h100v-100h-100v100zM400 200h100v-100h-100v100zM500 200h100v-100h-100v100zM600 200h100v-100h-100v100zM100 100h100v-100h-100v100zM500 100h100v-100h-100v100z" />
    <glyph glyph-name="x" unicode="x" 
d="M0 600h100v-100h-100v100zM100 600h100v-100h-100v100zM400 600h100v-100h-100v100zM500 600h100v-100h-100v100zM0 500h100v-100h-100v100zM100 500h100v-100h-100v100zM200 500h100v-100h-100v100zM300 500h100v-100h-100v100zM400 500h100v-100h-100v100zM500 500h100
v-100h-100v100zM200 400h100v-100h-100v100zM300 400h100v-100h-100v100zM100 300h100v-100h-100v100zM200 300h100v-100h-100v100zM300 300h100v-100h-100v100zM400 300h100v-100h-100v100zM0 200h100v-100h-100v100zM100 200h100v-100h-100v100zM400 200h100v-100h-100
v100zM500 200h100v-100h-100v100zM0 100h100v-100h-100v100zM100 100h100v-100h-100v100zM400 100h100v-100h-100v100zM500 100h100v-100h-100v100z" />
    <glyph glyph-name="y" unicode="y" 
d="M0 600h100v-100h-100v100zM500 600h100v-100h-100v100zM0 500h100v-100h-100v100zM100 500h100v-100h-100v100zM400 500h100v-100h-100v100zM500 500h100v-100h-100v100zM100 400h100v-100h-100v100zM200 400h100v-100h-100v100zM300 400h100v-100h-100v100zM400 400h100
v-100h-100v100zM200 300h100v-100h-100v100zM300 300h100v-100h-100v100zM200 200h100v-100h-100v100zM300 200h100v-100h-100v100zM200 100h100v-100h-100v100zM300 100h100v-100h-100v100z" />
    <glyph glyph-name="z" unicode="z" 
d="M0 600h100v-100h-100v100zM100 600h100v-100h-100v100zM200 600h100v-100h-100v100zM300 600h100v-100h-100v100zM400 600h100v-100h-100v100zM500 600h100v-100h-100v100zM0 500h100v-100h-100v100zM100 500h100v-100h-100v100zM400 500h100v-100h-100v100zM500 500h100
v-100h-100v100zM300 400h100v-100h-100v100zM400 400h100v-100h-100v100zM200 300h100v-100h-100v100zM300 300h100v-100h-100v100zM100 200h100v-100h-100v100zM200 200h100v-100h-100v100zM500 200h100v-100h-100v100zM0 100h100v-100h-100v100zM100 100h100v-100h-100
v100zM200 100h100v-100h-100v100zM300 100h100v-100h-100v100zM400 100h100v-100h-100v100zM500 100h100v-100h-100v100z" />
    <glyph glyph-name="braceleft" unicode="{" horiz-adv-x="512" 
d="M200 600h100v-100h-100v100zM300 600h100v-100h-100v100zM100 500h100v-100h-100v100zM200 500h100v-100h-100v100zM0 400h100v-100h-100v100zM100 400h100v-100h-100v100zM100 300h100v-100h-100v100zM200 300h100v-100h-100v100zM100 200h100v-100h-100v100zM200 200
h100v-100h-100v100zM200 100h100v-100h-100v100zM300 100h100v-100h-100v100z" />
    <glyph glyph-name="bar" unicode="|" horiz-adv-x="307" 
d="M0 600h100v-100h-100v100zM100 600h100v-100h-100v100zM0 500h100v-100h-100v100zM100 500h100v-100h-100v100zM0 400h100v-100h-100v100zM100 400h100v-100h-100v100zM0 300h100v-100h-100v100zM100 300h100v-100h-100v100zM0 200h100v-100h-100v100zM100 200h100v-100
h-100v100zM0 100h100v-100h-100v100zM100 100h100v-100h-100v100z" />
    <glyph glyph-name="braceright" unicode="}" horiz-adv-x="512" 
d="M0 600h100v-100h-100v100zM100 600h100v-100h-100v100zM100 500h100v-100h-100v100zM200 500h100v-100h-100v100zM200 400h100v-100h-100v100zM300 400h100v-100h-100v100zM100 300h100v-100h-100v100zM200 300h100v-100h-100v100zM100 200h100v-100h-100v100zM200 200
h100v-100h-100v100zM0 100h100v-100h-100v100zM100 100h100v-100h-100v100z" />
    <glyph glyph-name="asciitilde" unicode="~" 
d="M100 400h100v-100h-100v100zM200 400h100v-100h-100v100zM500 400h100v-100h-100v100zM0 300h100v-100h-100v100zM300 300h100v-100h-100v100zM400 300h100v-100h-100v100z" />
  </font>
</defs>
</svg>
