<svg height="512" viewBox="0 0 60 60" width="512" xmlns="http://www.w3.org/2000/svg"><g id="Page-1" fill="none" fill-rule="evenodd"><g id="022---Empty-Wallet" fill-rule="nonzero" transform="translate(0 -1)"><path id="Shape" d="m26 39v13.96l-22.41 6.95c-.60660072.1872819-1.26609052.0754448-1.77703422-.3013515s-.81265012-.9737951-.81296578-1.6086485v-11.24z" fill="#a0522d"/><path id="Shape" d="m26 34.62v4.38l-25 7.76v-4.38z" fill="#783e22"/><path id="Shape" d="m26 30v4.62l-25 7.76v-4.62z" fill="#a0522d"/><path id="Shape" d="m26 23.77v6.23l-25 7.76v-4.76c.00043609-.8769355.5720904-1.6513041 1.41-1.91z" fill="#783e22"/><path id="Shape" d="m34 23.77v29.19l-3.41-1.06c-.3841819-.1199929-.7958181-.1199929-1.18 0l-3.41 1.06v-29.19l3.41-1.06c.3841819-.1199929.7958181-.1199929 1.18 0z" fill="#783e22"/><path id="Shape" d="m59 33v25c-.0003157.6348534-.3020221 1.2318522-.8129658 1.6086485s-1.1704335.4886334-1.7770342.3013515l-22.41-6.95v-29.19l23.59 7.32c.8379096.2586959 1.4095639 1.0330645 1.41 1.91z" fill="#a0522d"/><path id="Shape" d="m57.59 31.09-23.59-7.32v.93l20.59 6.39c.8379096.2586959 1.4095639 1.0330645 1.41 1.91v25c.0001927.60395-.2756861 1.1748606-.749 1.55l1.159.36c.6066007.1872819 1.2660905.0754448 1.7770342-.3013515s.8126501-.9737951.8129658-1.6086485v-25c-.0004361-.8769355-.5720904-1.6513041-1.41-1.91z" fill="#783e22"/><path id="Shape" d="m59 28.38v4.62c-.0004361-.8769355-.5720904-1.6513041-1.41-1.91l-23.59-7.32-3.41-1.06c-.3841819-.1199929-.7958181-.1199929-1.18 0l-3.41 1.06-23.59 7.32c-.8379096.2586959-1.40956391 1.0330645-1.41 1.91v-4.62c.00043609-.8769355.5720904-1.6513041 1.41-1.91l27-8.38c.3841819-.1199929.7958181-.1199929 1.18 0l27 8.38c.8379096.2586959 1.4095639 1.0330645 1.41 1.91z" fill="#37474f"/><path id="Shape" d="m54 38.349v3.906c.0003381.3186236-.1511813.6183364-.4079641.806973-.2567827.1886365-.5880882.2436143-.8920359.148027l-14-4.349c-.4169758-.1311326-.7004636-.5178909-.7-.955v-3.906c-.0003381-.3186236.1511813-.6183364.4079641-.806973.2567827-.1886365.5880882-.2436143.8920359-.148027l14 4.348c.4173286.1312428.7009013.518522.7.956z" fill="#ff9801"/><path id="Shape" d="m53 43.263v5.29c.0029915.6533846-.3133656 1.2670341-.8473311 1.6435993-.5339654.3765652-1.2182054.4685607-1.8326689.2464007l-10-3.6c-.790397-.2882567-1.317293-1.0386844-1.32-1.88v-6.01z" fill="#f57c00"/><path id="Shape" d="m12 8c.0003443.2081325-.0197522.41579577-.06.62-.295665 1.3875954-1.5212545 2.3795529-2.94 2.3795529-1.41874555 0-2.64433497-.9919575-2.94-2.3795529-.04024783-.20420423-.06034428-.4118675-.06-.62-.00418686-1.26225139.78992897-2.38925417 1.98-2.81.65640711-.25332324 1.38359289-.25332324 2.04 0 1.190071.42074583 1.9841869 1.54774861 1.98 2.81z" fill="#ffdc00"/><path id="Shape" d="m6 8c-.00034428.2081325.01975217.41579577.06.62-.48078501.25316718-1.01664544.38369729-1.56.38-1.89351629.00337799-3.44636796-1.499754-3.50458904-3.39237801s1.39930288-3.48836145 3.2894465-3.60137677c1.89014361-.11301531 3.52742782 1.2976776 3.69514254 3.18375478-1.19007103.42074583-1.98418686 1.54774861-1.98 2.81z" fill="#ff9801"/><path id="Shape" d="m17 5.5c0 1.93299662-1.5670034 3.5-3.5 3.5-.5433546.00369729-1.079215-.12683282-1.56-.38.0402478-.20420423.0603443-.4118675.06-.62.0041869-1.26225139-.789929-2.38925417-1.98-2.81.19501-1.8395132 1.7877886-3.20965415 3.6357879-3.12757968 1.8479993.08207446 3.3130434 1.58802129 3.3442121 3.43757968z" fill="#ff9801"/><g fill="#000"><path id="Shape" d="m57.889 25.514-27-8.379c-.5788491-.1809884-1.1991509-.1809884-1.778 0l-27 8.379c-1.25805349.3855706-2.11543935 1.5491947-2.111 2.865v29.621c.00008062.9532356.45317346 1.8497011 1.22063592 2.4150855s1.75794344.73239 2.66836408.4499145l22.5-6.982 3.311-1.03c.1926149-.0610279.3993851-.0610279.592 0l3.314 1.028 22.5 6.982c.291392.090716.5948137.1369035.9.137 1.6533691-.00605 2.99126-1.3466221 2.994-3v-29.621c.0044393-1.3158053-.8529465-2.4794294-2.111-2.865zm-55.189 1.91 27-8.379c.1931202-.0599562.3998798-.0599562.593 0l27 8.379c.4169758.1311326.7004636.5178909.7.955l.0000006 1.8c-.0380006-.013-.0720006-.032-.1110006-.044l-27-8.38c-.5789265-.1804806-1.1990735-.1804806-1.778 0l-27 8.38c-.039.012-.073.031-.111.044v-1.8c.00048846-.4390134.28725347-.8263693.707-.955zm22.3 6.459-23 7.139v-2.522l23-7.139zm-23 9.234 23-7.139v2.285l-23 7.137zm23-13.854-23.00000057 7.137.00000057-3.4c-.00046361-.4371091.28302418-.8238674.7-.955l22.3-6.92zm-21.7 29.691c-.30377954.0955342-.63489764.0406725-.89163249-.1477314-.25673484-.1884039-.40838687-.4878211-.40836751-.8062686v-10.5l23-7.139v11.857zm25.815-8.012-2.115.658v-27.1l2.7-.838c.1931202-.0599562.3998798-.0599562.593 0l2.7.839v27.099l-2.11-.655c-.5768905-.1794004-1.1945054-.180446-1.772-.003zm28.885 7.058c.0003381.3186236-.1511813.6183364-.4079641.806973-.2567827.1886365-.5880882.2436143-.8920359.148027l-21.7-6.737v-27.093l22.3 6.92c.4169758.1311326.7004636.5178909.7.955z"/><path id="Shape" d="m53.594 36.439-14-4.348c-.6069518-.1887831-1.2675015-.0778128-1.7794448.2989412-.5119433.3767539-.8143153.9744257-.8145552 1.6100588v3.906c.0028623.7077429.3844009 1.3597924 1 1.709v5.348c.0061244 1.2618553.7961551 2.3868814 1.981 2.821l10 3.6c.9209099.3325808 1.946173.1948329 2.7466435-.3690218s1.2754139-1.4828583 1.2723565-2.4619782v-4.591c.061-.036.128-.054.186-.1.5131498-.3742957.8158309-.9718491.814-1.607v-3.905c.0028172-.8769592-.5679353-1.6527116-1.406-1.911zm-14.594-2.439 14 4.35v3.905l-6-1.864v-.391c0-.5522847-.4477153-1-1-1-.463284.0042737-.8611035.3305191-.956.784l-6.044-1.878zm12.573 15.38c-.2657767.1892322-.6078952.2348979-.914.122l-9.994-3.6c-.3957171-.1437968-.6607193-.5179879-.665-.939v-4.652l5 1.554v.135c-.0041579.462458.3117991.8664323.7616376.97381s.9141936-.1103339 1.1193624-.52481l5.119 1.59v4.514c.0024441.3291407-.1572372.6384062-.427.827z"/><path id="Shape" d="m4.5 10c.33658761.0002168.67209754-.0380313 1-.114.68595613 1.3000183 2.03510768 2.1135828 3.505 2.1135828 1.4698923 0 2.8190439-.8135645 3.505-2.1135828.3246445.07521557.6567567.11345879.99.114 2.2950069.0117657 4.2311657-1.70545995 4.4935615-3.98544759.2623958-2.27998765-1.2330526-4.39214501-3.4707327-4.90203038-2.2376801-.50988536-4.5005565.74588738-5.2518288 2.91447797-.091-.006-.178-.027-.271-.027s-.18.021-.271.027c-.75516899-2.15805739-3.01140281-3.40401567-5.24010406-2.89373866-2.22870126.510277-3.71804479 2.61381187-3.45900103 4.88546066s2.1837388 3.9858693 4.47010509 3.981278zm9-7c1.3807119 0 2.5 1.11928813 2.5 2.5s-1.1192881 2.5-2.5 2.5c-.170216-.00182427-.3397861-.02126116-.506-.058-.0183983-1.33692685-.7050451-2.57581951-1.829-3.3.3586419-.9815683 1.2899785-1.63649536 2.335-1.642zm-2.5 5c0 1.1045695-.8954305 2-2 2s-2-.8954305-2-2 .8954305-2 2-2 2 .8954305 2 2zm-6.5-5c1.04604524.0061212 1.97768274.66285581 2.335 1.646-1.12395486.72418049-1.81060173 1.96307315-1.829 3.3-.16635432.035394-.33592285.05349024-.506.054-1.38071187 0-2.5-1.11928813-2.5-2.5s1.11928813-2.5 2.5-2.5z"/><path id="Shape" d="m30 12c-.5522847 0-1 .4477153-1 1v1c0 .5522847.4477153 1 1 1s1-.4477153 1-1v-1c0-.5522847-.4477153-1-1-1z"/><path id="Shape" d="m27 5c-.5522847 0-1 .44771525-1 1s.4477153 1 1 1c1.1045695 0 2 .8954305 2 2 0 .55228475.4477153 1 1 1s1-.44771525 1-1c0-2.209139-1.790861-4-4-4z"/><path id="Shape" d="m23 5h-2c-.5522847 0-1 .44771525-1 1s.4477153 1 1 1h2c.5522847 0 1-.44771525 1-1s-.4477153-1-1-1z"/><path id="Shape" d="m36 16c.3808256.0020788.7297741-.2123306.9-.553l2-4c.2468713-.4942949.0462949-1.0951287-.448-1.342-.4942949-.24687128-1.0951287-.0462949-1.342.448l-2 4c-.1545455.3092668-.1383796.6764236.0427493.9709106.1811288.294487.5015228.4745236.8472507.4760894z"/><path id="Shape" d="m21.553 10.105c-.2374485.1184679-.4180742.3264554-.5021012.5781614-.0840271.251706-.0645647.5264889.0541012.7638386l2 4c.2468713.4942949.8477051.6948713 1.342.448s.6948713-.8477051.448-1.342l-2-4c-.1184679-.2374485-.3264554-.4180742-.5781614-.5021012-.251706-.08402706-.5264889-.06456472-.7638386.0541012z"/></g></g></g></svg>