<svg height="512" viewBox="0 0 60 60" width="512" xmlns="http://www.w3.org/2000/svg"><g id="Page-1" fill="none" fill-rule="evenodd"><g id="071---Financial-Death" fill-rule="nonzero" transform="translate(-1)"><path id="Shape" d="m53 59h-39.01c.2873798.0020776.5617624-.1195851.7531669-.3339581s.2813271-.5007322.2468331-.7860419c-.1853836-1.7446035-.7891489-3.4186799-1.76-4.8800256l37.77.0000256c.8377509-.0034874 1.6375287.3491419 2.2.97-.6440488 1.2148326-1.0480749 2.5423471-1.19 3.91-.0342778.2835751.0543469.5682732.2435215.782289.1891747.2140158.4608403.3369188.7464785.337711z" fill="#607d8b"/><path id="Shape" d="m52.01 57.88c.1419251-1.3676529.5459512-2.6951674 1.19-3.91-.5624713-.6208581-1.3622491-.9734874-2.2-.97l-3-.0000256c.8377509-.0034618 1.6375287.3491675 2.2.9700256-.6440488 1.2148326-1.0480749 2.5423471-1.19 3.91-.0342778.2835751.0543469.5682732.2435215.782289.1891747.2140158.4608403.3369188.7464785.337711h3c-.2856382-.0007922-.5573038-.1236952-.7464785-.337711-.1891746-.2140158-.2777993-.4987139-.2435215-.782289z" fill="#37474f"/><path id="Shape" d="m51 50v3h-37.77c-.6302219-.9816923-1.3792191-1.8818325-2.23-2.68v-.32c0-1.6568542 1.3431458-3 3-3h34c1.6568542 0 3 1.3431458 3 3z" fill="#7f8e94"/><path id="Shape" d="m48 47h-3c1.6568542 0 3 1.3431458 3 3v3h3v-3c0-1.6568542-1.3431458-3-3-3z" fill="#545c60"/><path id="Shape" d="m31 1c9.3888407 0 17 7.61115925 17 17v29h-34v-29c0-9.38884075 7.6111593-17 17-17z" fill="#9e9e9e"/><path id="Shape" d="m31 1c-.506 0-1 .032-1.5.076 8.7708108.77406847 15.4978232 8.11909795 15.5 16.924v29h3v-29c0-9.38884075-7.6111593-17-17-17z" fill="#707070"/><path id="Shape" d="m10.05 58.99v.01004l-4.94-.00004c-.4926984.0043921-.91410231-.3531627-.99-.84-.48937677-3.0730856-1.18426885-6.1098976-2.08-9.09-.1108826-.3204668-.0076741-.6760252.2575624-.8873153.26523651-.2112901.63486886-.2324015.9224376-.0526847 1.88337917 1.1943288 3.51694141 2.7429866 4.81 4.56.55 2.3.91 4.37 1.09 5.47.07505014.4615976.46287214.8077184.93.83z" fill="#008a00"/><path id="Shape" d="m14.99 57.88c.034494.2853097-.0554286.5716689-.2468331.7860419s-.4657871.3360357-.7531669.3339581h-3.88c-.0205148.0015762-.0411053-.0018556-.06-.01-.46712786-.0222816-.85494986-.3684024-.93-.83-.18-1.1-.54-3.17-1.09-5.47-.28-1.18-.61-2.42-.99-3.62-.1108826-.3204668-.0076741-.6760252.2575624-.8873153.26523651-.2112901.63486886-.2324015.9224376-.0526847.99582366.6376561 1.9269192 1.3711451 2.78 2.19.8507809.7981675 1.5997781 1.6983077 2.23 2.68.9708511 1.4613201 1.5746164 3.1353965 1.76 4.88z" fill="#60a917"/><path id="Shape" d="m59.96 49.07c-.8984734 2.9793767-1.5934081 6.0163753-2.08 9.09-.0722493.4888729-.4958872.8483233-.99.84h-3.89c-.2856382-.0007922-.5573038-.1236952-.7464785-.337711-.1891746-.2140158-.2777993-.4987139-.2435215-.782289.1419251-1.3676529.5459512-2.6951674 1.19-3.91 1.3411716-2.3835476 3.2599596-4.3917415 5.58-5.84.2875687-.1797168.6572011-.1586054.9224376.0526847s.368445.5668485.2575624.8873153z" fill="#a4c400"/><g fill="#000"><path id="Shape" d="m58.231 47.291c-2.1209637 1.3453787-3.9368882 3.1197457-5.331 5.209-.2843318-.1554748-.5865626-.2756955-.9-.358v-2.142c-.0068148-1.8184116-1.2393149-3.4034067-3-3.858v-28.142c0-9.9411255-8.0588745-18-18-18s-18 8.0588745-18 18v28.142c-1.1905692.3071316-2.1741534 1.1439892-2.668 2.27-.559-.442-1.093-.817-1.562-1.121-.58028595-.3780816-1.32713238-.3854679-1.91478254-.0189372-.58765015.3665307-.90951998 1.0404995-.82521746 1.7279372-.71205051-.6186931-1.46656365-1.18675-2.258-1.7-.62483092-.4199599-1.44810008-.3937924-2.045.065-.62241345.4628934-.87997021 1.2713801-.64 2.009.88063533 2.9292046 1.56350593 5.9142578 2.044 8.935.15245724.9749428.99321084 1.6929804 1.98 1.691h51.779c.9845343.0058622 1.8259777-.7077293 1.981-1.68.4803236-3.0248739 1.1625141-6.0142179 2.042-8.948.2388184-.7347219-.0150257-1.5400342-.632-2.005-.5970624-.4603056-1.4204934-.4908328-2.05-.076zm-7.22 10.709h-35.022c.0040003-.0732788.0040003-.1467212 0-.22-.1383841-1.3106183-.4967395-2.588527-1.06-3.78h36.071c.3358663.0027816.6655165.0908718.958.256-.498767 1.1176474-.818351 2.3068913-.947 3.524-.0040003.0732788-.0040003.1467212 0 .22zm-36.011-40c0-8.836556 7.163444-16 16-16s16 7.163444 16 16v28h-32zm-1 30h34c1.1045695 0 2 .8954305 2 2v2h-36.236c-.5242089-.7464641-1.1113521-1.4466867-1.755-2.093.0495521-1.0646182.9252355-1.9033566 1.991-1.907zm-8.892 10c-.47037682-2.9415616-1.12262734-5.85114-1.953-8.712 1.52609186 1.0411422 2.86073835 2.3382359 3.945 3.834.475 2.025.8 3.825.976 4.878zm5 0h-.008c-.166-1.031-.536-3.135-1.093-5.487 0-.016-.008-.031-.011-.047-.247-1.037-.526-2.116-.846-3.18.75613948.5236549 1.4706072 1.1050584 2.137 1.739l.006.006c2.0277172 1.8045888 3.3391276 4.2779905 3.695 6.969zm46.792 0h-.008l-3.892-.013c.443-4.27 3.664-7.189 5.847-8.7-.8281726 2.861374-1.4784162 5.7712725-1.947 8.713z"/><path id="Shape" d="m37 9h-1c-1.1045695 0-2 .8954305-2 2v9c0 .5522847.4477153 1 1 1s1-.4477153 1-1v-3h1c2.209139 0 4-1.790861 4-4s-1.790861-4-4-4zm0 6h-1v-4h1c1.1045695 0 2 .8954305 2 2s-.8954305 2-2 2z"/><path id="Shape" d="m31 21c.5522847 0 1-.4477153 1-1v-10c0-.55228475-.4477153-1-1-1s-1 .44771525-1 1v10c0 .5522847.4477153 1 1 1z"/><path id="Shape" d="m27 21c.424813.0001993.8033866-.2680233.9440546-.6688708.1406679-.4008474.0127245-.8468203-.3190546-1.1121292l-2.868-2.3c2.0040186-.4089507 3.3767004-2.2638272 3.1820696-4.2998651-.1946307-2.0360379-1.8938672-3.59726088-3.9390696-3.6191349h-1c-1.1045695 0-2 .8954305-2 2v9c0 .5522847.4477153 1 1 1s1-.4477153 1-1v-1.919l3.374 2.7c.17768.1420833.3984968.2193339.626.219zm-4-10h1c1.1045695 0 2 .8954305 2 2s-.8954305 2-2 2h-1z"/><path id="Shape" d="m34 30c0 .5522847.4477153 1 1 1s1-.4477153 1-1c-.0029983-2.3751008-1.6735832-4.4215673-4-4.9v-.1c0-.5522847-.4477153-1-1-1s-1 .4477153-1 1v.1c-2.330324.4731925-4.0050126 2.5221184-4.0050126 4.9s1.6746886 4.4268075 4.0050126 4.9v5.917c-1.1946951-.4223781-1.9951701-1.5498471-2-2.817 0-.5522847-.4477153-1-1-1s-1 .4477153-1 1c.0029983 2.3751008 1.6735832 4.4215673 4 4.9v.1c0 .5522847.4477153 1 1 1s1-.4477153 1-1v-.1c2.330324-.4731925 4.0050126-2.5221184 4.0050126-4.9s-1.6746886-4.4268075-4.0050126-4.9v-5.915c1.1940068.4221309 1.9943273 1.548582 2 2.815zm-6 0c.0052514-1.2667854.8056491-2.3937454 2-2.816v5.632c-1.1943509-.4222546-1.9947486-1.5492146-2-2.816zm6 8c-.0052514 1.2667854-.8056491 2.3937454-2 2.816v-5.631c1.1940068.4221309 1.9943273 1.548582 2 2.815z"/><path id="Shape" d="m20 42h-2c-.5522847 0-1 .4477153-1 1s.4477153 1 1 1h2c.5522847 0 1-.4477153 1-1s-.4477153-1-1-1z"/><path id="Shape" d="m44 42h-2c-.5522847 0-1 .4477153-1 1s.4477153 1 1 1h2c.5522847 0 1-.4477153 1-1s-.4477153-1-1-1z"/></g></g></g></svg>