<svg id="Layer_1" enable-background="new 0 0 70 70" height="512" viewBox="0 0 70 70" width="512" xmlns="http://www.w3.org/2000/svg"><g><path d="m65.6545944 40.8499336c4.3565216-6.9978714-2.8358727-28.857811-10.9266548-33.6944389-11.0102806-6.5818884-40.0738058.0872993-47.414103 8.6200352-5.3239645 6.1888465-6.4995496 27.8661556.7313199 33.6782932 11.9988498 9.6446113 50.4740238 2.8576851 57.6094379-8.6038895z" fill="#fff"/><path d="m65.6583405 40.8494987c-7.1398926 11.4599609-45.6098633 18.25-57.6098633 8.5998535-.2800293-.2199707-.5400391-.4699707-.7900391-.7399902 2.9199219.7800293 6.0100098 1.1901855 9.2099619 1.1901855 18.0100098 0 32.6000977-13.0400391 32.6000977-29.1201172 0-6.0200195-2.0400391-11.6201172-5.5500488-16.2600098 4.4599609.1501465 8.4199219.9699707 11.2099609 2.6398926 8.0900869 4.8300782 15.2800283 26.6901856 10.9299307 33.6901856z" opacity=".05"/><path d="m22.2278423 49.3550224c.8896713 11.0101891 10.115324 16.9202766 17.6042233 15.8572884-7.1392937-3.2647285-8.1875324-10.7343636-5.5677719-14.4495964" fill="#fff"/><path d="m22.2278423 49.3550224c.8896713 11.0101891 10.115324 16.9202766 17.6042233 15.8572884-7.1392937-3.2647285-8.1875324-10.7343636-5.5677719-14.4495964" opacity=".05"/><g><path d="m55.719368 7.0966444c-6.9485168-4.8728342-23.8300781-2.313652-23.8300781-1.6999512.0657825.492558 18.6418991-3.4044871 25.2900391 4.6699219 6.5317421 7.5631647 11.4196243 24.666275 7.6999512 30.4399414-4.8042984 7.4821014-21.9407539 11.3577614-30.9699707 12.2800293.2199707-1.1799316.5500488-1.8898926.3500977-2.0300293-.1600342-.1401367-1.0300293.5400391-1.630127 2.1401367-.9388866.9159889-1.1627178 8.2132149 4.6201172 11.5397911.3099365.170166.5899658.3100586.8399658.4299316-.5699463-.0698242-1.25-.1699219-2.0200195-.3398438-.5699463-.0800781-1.1600342-.3300781-1.7999268-.5-.6201172-.2700157-1.3000488-.4799767-1.960083-.8500938-4.2053528-2.0710716-7.364542-5.9990997-8.75-10.079834-.1894588-.2859344-1.0109234-3.7399902-1.3199463-3.7399902-.3008461.0225983-.2187748 2.0197487-.1800537 2.329834.0500488.3901367.1199951.8400879.2000732 1.3200684-13.546897-1.0761938-17.4120122-5.3037519-18.3901358-16.6799307-.4552465-5.8514995.3583522-15.7665138 3.8801269-20.0900898 6.3626175-7.4475364 24.1398917-10.5493631 24.1398917-10.8398428-.044817-.2689052-8.2375431.93539-15.3898926 3.869873-9.5480585 3.8565789-11.2260614 7.5847827-12.7000723 12.2800284-2.411765 8.2215004-2.6488515 23.6232205 3.829956 28.6398945 4.3386631 3.1480904 9.6638956 4.2517357 15.0700674 4.6101074 1.3859653 4.2751389 4.6415119 8.0524101 8.9199219 9.8698692.75.3601074 1.5300293.5500488 2.2301025.7700195.7299805.130127 1.3900146.3200684 2.0198975.3400879 2.4801025.2099609 3.960083-.3500977 3.960083-.5600586v-.0100098c.039917-.1098633-.1300049-.329834-.4500732-.619873-.1699219-.1501465-.3798828-.3000488-.619873-.5-.2299805-.2099571-.4899902-.430172-.7800293-.6701622-2.6583176-2.3782539-4.2399902-5.2904205-4.2399902-8.829834 9.2666473-.8281937 22.2421494-4.0193939 29.4599609-9.8300781 3.2478256-2.743721 4.0723343-4.5994186 4.4599609-7.6799316.9418793-9.1352043-4.7943764-24.8294945-11.9399414-29.9799814z"/><path d="m9.299325 18.5465946c-3.2365298 5.2250004-1.8271189 10.8300266-1.25 10.7199707.7258368-.1345348-.9357238-9.1070499 7.7200928-14.8400869 1.5299063-1.0400391 2.6298819-1.5200195 2.5599356-1.7797852-.1446839-.5074262-5.7086001.5373555-9.0300284 5.8999014z"/><path d="m58.4093094 40.6964989c3.3691254-3.732605 3.4333496-8.6322403 2.0300293-13.4599628-.4242287-1.4353905-3.6093025-9.8782139-3.9599609-9.8200684-.2399902.0500488-.0300293 2.0300293.8800049 5.0400391 2.6449089 9.6448345 4.3690567 14.7420025-4.1300049 20.5900898-2.5600586 1.6699219-4.2800293 2.619873-4.1500244 2.869873.1526031.3225975 6.1088485-1.6259842 9.329956-5.2199707z"/><path d="m55.1875076 53.5124168c-4.270752 1.8295898-8.0457764 2.520752-7.9926758 3.0427246.0249023.2287598 1.0253906.3603516 2.6270752.201416 7.4601898-.7273254 13.6160851-6.2513542 13.1195068-6.8525391-.3371581-.4018554-3.4645995 1.8222657-7.7539062 3.6083985z"/></g></g></svg>