<svg enable-background="new 0 0 512 512" height="512" viewBox="0 0 512 512" width="512" xmlns="http://www.w3.org/2000/svg"><g id="_x36_19_x2C__Bubble_x2C__Speech_x2C__Text"><g><path d="m436 416c11.05 0 20 8.95 20 20s-8.95 20-20 20c-11.04 0-20-8.95-20-20s8.96-20 20-20z" fill="#ffdc67"/><circle cx="76" cy="66" fill="#ffdc67" r="30"/><path d="m486 191c0 47.28-31.25 87.26-74.23 100.42-5-17.1-14.25-32.39-26.52-44.67-19-19-45.26-30.75-74.25-30.75h-180c-10.7 0-21.04 1.601-30.77 4.58-1.38-4.689-2.43-9.52-3.15-14.46-.71-4.939-1.08-9.979-1.08-15.12 0-57.99 47.01-105 105-105h115l90-50-10.34 51.021c25.529 3.569 48.109 16.31 64.31 34.79 16.21 18.469 26.03 42.689 26.03 69.189z" fill="#8cf2ff"/><path d="m411.77 291.42c-5-17.1-14.25-32.39-26.52-44.67-19-19-45.26-30.75-74.25-30.75h-180c-10.7 0-21.04 1.601-30.77 4.58-42.98 13.15-74.23 53.14-74.23 100.42 0 26.5 9.82 50.72 26.03 69.19 16.2 18.479 38.78 31.22 64.31 34.79l-10.34 51.02 90-50h115c57.99 0 105-47.01 105-105 0-10.27-1.471-20.2-4.23-29.58z" fill="#bdf9ff"/><path d="m466 316c5.52 0 10 4.48 10 10s-4.48 10-10 10-10-4.48-10-10 4.48-10 10-10z"/><path d="m446 46c5.52 0 10 4.48 10 10 0 5.521-4.48 10-10 10s-10-4.479-10-10c0-5.52 4.48-10 10-10z"/><path d="m366 456c5.52 0 10 4.48 10 10s-4.48 10-10 10-10-4.48-10-10 4.48-10 10-10z"/><path d="m306 326c5.52 0 10 4.48 10 10s-4.48 10-10 10-10-4.48-10-10 4.48-10 10-10z"/><path d="m186 26c5.52 0 10 4.48 10 10 0 5.521-4.48 10-10 10s-10-4.479-10-10c0-5.52 4.48-10 10-10z"/><path d="m66 156c5.52 0 10 4.48 10 10 0 5.521-4.48 10-10 10s-10-4.479-10-10c0-5.52 4.48-10 10-10z"/><path d="m411.767 301.423c-4.28 0-8.24-2.77-9.559-7.075-1.616-5.281 1.354-10.873 6.634-12.489 40.17-12.3 67.158-48.813 67.158-90.859 0-23.063-8.362-45.293-23.547-62.594-15.043-17.16-35.703-28.34-58.178-31.482-2.732-.382-5.185-1.875-6.777-4.126-1.594-2.251-2.188-5.061-1.639-7.764l6.03-29.755-71.033 39.463c-1.485.825-3.157 1.258-4.856 1.258h-115c-52.383 0-95 42.617-95 95 0 4.574.329 9.183.978 13.698.649 4.453 1.607 8.854 2.845 13.059 1.559 5.298-1.472 10.857-6.77 12.417-5.298 1.559-10.857-1.472-12.417-6.77-1.503-5.107-2.665-10.438-3.453-15.841-.786-5.474-1.183-11.04-1.183-16.563 0-63.411 51.589-115 115-115h112.408l87.735-48.741c3.411-1.896 7.613-1.633 10.763.672 3.148 2.305 4.67 6.231 3.895 10.056l-8.327 41.087c23.146 5.466 44.165 18.063 60.016 36.146 18.383 20.945 28.51 47.86 28.51 75.78 0 25.118-7.954 48.981-23.002 69.012-14.547 19.362-35.252 33.913-58.301 40.97-.974.298-1.961.441-2.93.441z"/><path d="m135.991 176.001c-1.874 0-3.769-.525-5.455-1.626-4.625-3.018-5.929-9.214-2.911-13.839 21.346-32.715 57.378-52.246 96.385-52.246 5.523 0 10 4.478 10 10 0 5.523-4.477 10-10 10-32.225 0-61.995 16.141-79.635 43.175-1.917 2.938-5.119 4.536-8.384 4.536z"/><path d="m106.001 486c-2.083 0-4.158-.65-5.907-1.931-3.149-2.305-4.669-6.23-3.895-10.056l8.327-41.086c-23.146-5.467-44.165-18.063-60.016-36.146-18.384-20.946-28.51-47.861-28.51-75.781 0-25.119 7.954-48.983 23.002-69.015 14.548-19.367 35.254-33.916 58.302-40.968 10.87-3.329 22.208-5.017 33.696-5.017h180c30.723 0 59.604 11.961 81.321 33.679 13.632 13.644 23.675 30.564 29.047 48.935 3.071 10.44 4.632 21.342 4.632 32.386 0 63.411-51.589 115-115 115h-112.409l-87.735 48.741c-1.516.843-3.188 1.259-4.855 1.259zm24.999-260c-9.501 0-18.869 1.394-27.842 4.142-40.17 12.291-67.158 48.803-67.158 90.858 0 23.063 8.362 45.293 23.546 62.595 15.043 17.16 35.704 28.339 58.179 31.482 2.731.382 5.184 1.875 6.777 4.126 1.594 2.251 2.187 5.061 1.639 7.764l-6.03 29.755 71.033-39.463c1.485-.826 3.157-1.259 4.856-1.259h115c52.383 0 95-42.617 95-95 0-9.132-1.286-18.135-3.823-26.758-4.438-15.177-12.735-29.149-24.001-40.424-17.938-17.937-41.795-27.818-67.176-27.818z"/><path d="m336 286h-250c-5.523 0-10-4.478-10-10s4.477-10 10-10h250c5.523 0 10 4.478 10 10s-4.477 10-10 10z"/><path d="m336 316h-180c-5.523 0-10-4.478-10-10s4.477-10 10-10h180c5.523 0 10 4.478 10 10s-4.477 10-10 10z"/><path d="m276 346h-190c-5.523 0-10-4.478-10-10s4.477-10 10-10h190c5.523 0 10 4.478 10 10s-4.477 10-10 10z"/><path d="m236 376h-110c-5.523 0-10-4.478-10-10s4.477-10 10-10h110c5.523 0 10 4.478 10 10s-4.477 10-10 10z"/><path d="m436 466c-16.542 0-30-13.458-30-30s13.458-30 30-30 30 13.458 30 30-13.458 30-30 30zm0-40c-5.514 0-10 4.486-10 10s4.486 10 10 10 10-4.486 10-10-4.486-10-10-10z"/><path d="m76 106c-22.056 0-40-17.943-40-40 0-22.056 17.944-40 40-40s40 17.944 40 40c0 22.057-17.944 40-40 40zm0-60c-11.028 0-20 8.973-20 20 0 11.028 8.972 20 20 20s20-8.972 20-20c0-11.027-8.972-20-20-20z"/></g></g></svg>