<svg id="Capa_1" enable-background="new 0 0 512 512" height="512" viewBox="0 0 512 512" width="512" xmlns="http://www.w3.org/2000/svg"><g><g><g><path d="m257.906 11.007c-138.341-1.025-250.406 110.784-250.406 247.18v220.127c0 12.529 10.302 22.686 23.009 22.686h223.272c138.344 0 251.751-110.486 250.712-246.879-1.019-133.819-110.856-242.109-246.587-243.114z" fill="#0ed2b3"/></g><g><path d="m463.398 121.023c-41.937 166.622-192.759 289.977-372.398 289.977-28.677 0-56.617-3.149-83.5-9.111v76.425c0 12.529 10.302 22.686 23.009 22.686h223.272c138.344 0 251.75-110.486 250.712-246.879-.375-49.167-15.453-94.879-41.095-133.098z" fill="#0ab69f"/></g></g><g><path d="m7.5 298.396c4.142 0 7.5-3.358 7.5-7.5v-32.708c0-63.98 25.183-124.213 70.909-169.603 46.01-45.67 107.04-70.584 171.941-70.078 36.571.271 71.64 8.406 104.234 24.179 3.728 1.804 8.213.245 10.018-3.484 1.804-3.729.245-8.214-3.484-10.018-34.613-16.75-71.843-25.389-110.657-25.677-68.896-.488-133.75 25.924-182.62 74.433-48.584 48.226-75.341 112.239-75.341 180.247v32.708c0 4.143 3.358 7.501 7.5 7.501z"/><path d="m399.008 46.541c-3.449-2.296-8.105-1.359-10.399 2.088-2.295 3.449-1.36 8.104 2.088 10.399 65.963 43.896 105.7 116.85 106.295 195.15.477 62.602-23.876 121.883-68.574 166.923-22.481 22.653-48.834 40.467-78.325 52.946-30.502 12.908-62.907 19.452-96.312 19.452h-223.272c-8.551.001-15.509-6.811-15.509-15.184v-153.598c0-4.142-3.358-7.5-7.5-7.5s-7.5 3.358-7.5 7.5v153.598c0 16.644 13.687 30.185 30.509 30.185h223.272c35.425 0 69.795-6.943 102.158-20.638 31.296-13.244 59.264-32.15 83.126-56.194 47.535-47.899 73.435-110.973 72.927-177.604-.634-83.286-42.871-160.864-112.984-207.523z"/></g></g></svg>