<svg id="Capa_1" enable-background="new 0 0 512 512" height="512" viewBox="0 0 512 512" width="512" xmlns="http://www.w3.org/2000/svg"><g><g><path d="m481.184 170.116h-302.153c-12.878 0-23.318 10.44-23.318 23.318v209.643c0 12.878 10.44 23.318 23.318 23.318h204.913c1.566 0 3.078.575 4.248 1.617l56.683 50.456c4.119 3.667 10.636.743 10.636-4.772v-40.912c0-3.528 2.86-6.389 6.389-6.389h19.285c12.878 0 23.318-10.44 23.318-23.318v-209.643c-.001-12.878-10.441-23.318-23.319-23.318z" fill="#0593fc"/></g><g><path d="m504.501 193.43v209.652c0 12.873-10.44 23.314-23.314 23.314h-19.29c-3.524 0-6.386 2.863-6.386 6.386v40.911c0 5.516-6.517 8.439-10.641 4.775l-9.379-8.348v-37.338c0-3.523 2.863-6.386 6.386-6.386h19.289c12.873 0 23.314-10.441 23.314-23.314v-209.652c0-12.873-10.44-23.314-23.314-23.314h20.02c12.875 0 23.315 10.441 23.315 23.314z" fill="#0182fc"/></g><g><path d="m332.969 31.889h-302.153c-12.878 0-23.318 10.44-23.318 23.318v209.643c0 12.878 10.44 23.318 23.318 23.318h19.285c3.528 0 6.389 2.86 6.389 6.389v40.912c0 5.514 6.517 8.438 10.636 4.772l56.683-50.456c1.17-1.041 2.681-1.617 4.248-1.617h204.913c12.878 0 23.318-10.44 23.318-23.318v-209.642c-.001-12.879-10.441-23.319-23.319-23.319z" fill="#8ac9fe"/></g><g><path d="m108.04 288.165h20.02c-1.571 0-3.083.581-4.254 1.622l-56.677 50.451c-4.124 3.674-10.641.741-10.641-4.765v-3.584l47.298-42.103c1.171-1.04 2.683-1.621 4.254-1.621z" fill="#60b7ff"/></g><g><path d="m356.291 55.21v209.642c0 12.873-10.44 23.314-23.323 23.314h-20.02c12.883 0 23.323-10.441 23.323-23.314v-209.642c0-12.883-10.44-23.324-23.323-23.324h20.02c12.883.001 23.323 10.441 23.323 23.324z" fill="#60b7ff"/></g><g><path d="m151.494 160.029c0-5.571-4.516-10.087-10.087-10.087s-10.087 4.516-10.087 10.087 4.516 10.087 10.087 10.087 10.087-4.516 10.087-10.087z"/><ellipse cx="181.892" cy="160.029" rx="10.087" ry="10.087" transform="matrix(.987 -.16 .16 .987 -23.285 31.202)"/><ellipse cx="222.378" cy="160.029" rx="10.087" ry="10.087" transform="matrix(.987 -.16 .16 .987 -22.762 37.687)"/><path d="m504.502 329.736c4.141 0 7.498-3.357 7.498-7.498v-128.804c0-16.992-13.824-30.816-30.816-30.816h-117.4v-107.41c0-16.992-13.824-30.816-30.816-30.816h-225.461c-4.141 0-7.498 3.357-7.498 7.498s3.356 7.498 7.498 7.498h225.461c8.723 0 15.82 7.097 15.82 15.82v209.642c0 8.723-7.097 15.82-15.82 15.82h-204.912c-3.408 0-6.688 1.248-9.232 3.514l-54.836 48.811v-38.439c0-7.657-6.229-13.886-13.886-13.886h-19.286c-8.723 0-15.82-7.097-15.82-15.82v-209.642c0-8.723 7.098-15.82 15.82-15.82h41.651c4.141 0 7.498-3.357 7.498-7.498s-3.356-7.498-7.498-7.498h-41.651c-16.992 0-30.816 13.824-30.816 30.816v209.642c0 16.992 13.824 30.816 30.816 30.816h18.176v39.803c0 5.545 3.143 10.4 8.202 12.669 1.861.835 3.808 1.243 5.735 1.243 3.313 0 6.563-1.209 9.181-3.54l56.368-50.175h19.738v107.411c0 16.992 13.824 30.816 30.816 30.816h204.491l56.366 50.174c2.619 2.332 5.868 3.541 9.183 3.541 1.926 0 3.875-.409 5.735-1.243 5.06-2.269 8.202-7.124 8.202-12.669v-39.803h18.176c16.992 0 30.816-13.824 30.816-30.816v-46.01c0-4.141-3.356-7.498-7.498-7.498s-7.498 3.357-7.498 7.498v46.01c0 8.723-7.097 15.82-15.821 15.82h-19.285c-7.657 0-13.886 6.229-13.886 13.886v38.44l-54.838-48.814c-2.546-2.264-5.824-3.512-9.23-3.512h-204.914c-8.723 0-15.82-7.097-15.82-15.82v-107.411h169.758c16.992 0 30.816-13.824 30.816-30.816v-87.237h117.4c8.723 0 15.821 7.097 15.821 15.82v128.804c-.001 4.142 3.355 7.499 7.496 7.499z"/></g></g></svg>