<svg height="512" viewBox="0 0 256 256" width="512" xmlns="http://www.w3.org/2000/svg"><g id="Layer_8"><g><g><g><circle cx="128" cy="128.547" fill="#f5c84c" r="67.807"/></g></g><g><g><g><path d="m250.633 109.134h-24.807c-1.354 0-2.505-.953-2.798-2.275-2.484-11.218-6.901-21.708-12.888-31.102-.728-1.142-.587-2.63.371-3.588l17.544-17.544c1.119-1.119 1.119-2.933 0-4.053l-22.628-22.628c-1.119-1.119-2.933-1.119-4.053 0l-17.544 17.546c-.958.958-2.445 1.099-3.588.371-9.394-5.987-19.884-10.404-31.102-12.888-1.322-.293-2.275-1.444-2.275-2.798v-24.808c0-1.583-1.283-2.866-2.866-2.866h-32c-1.583 0-2.866 1.283-2.866 2.866v24.807c0 1.354-.953 2.505-2.275 2.798-11.218 2.484-21.708 6.901-31.102 12.888-1.142.728-2.63.587-3.588-.371l-17.542-17.544c-1.119-1.119-2.933-1.119-4.053 0l-22.628 22.628c-1.119 1.119-1.119 2.933 0 4.053l17.545 17.544c.958.958 1.099 2.445.371 3.588-5.987 9.394-10.404 19.884-12.888 31.102-.293 1.322-1.444 2.275-2.798 2.275h-24.808c-1.583 0-2.866 1.283-2.866 2.866v32c0 1.583 1.283 2.866 2.866 2.866h24.807c1.354 0 2.505.953 2.798 2.275 2.484 11.218 6.901 21.708 12.888 31.102.728 1.142.587 2.63-.371 3.588l-17.544 17.544c-1.119 1.119-1.119 2.933 0 4.053l22.628 22.628c1.119 1.119 2.933 1.119 4.053 0l17.544-17.547c.958-.958 2.445-1.099 3.588-.371 9.394 5.987 19.884 10.404 31.102 12.888 1.322.293 2.275 1.444 2.275 2.798v24.807c0 1.583 1.283 2.866 2.866 2.866h32c1.583 0 2.866-1.283 2.866-2.866v-24.807c0-1.354.953-2.505 2.275-2.798 11.218-2.484 21.708-6.901 31.102-12.888 1.142-.728 2.63-.587 3.588.371l17.544 17.544c1.119 1.119 2.933 1.119 4.053 0l22.628-22.628c1.119-1.119 1.119-2.933 0-4.053l-17.547-17.543c-.958-.958-1.099-2.445-.371-3.588 5.987-9.394 10.404-19.884 12.888-31.102.293-1.322 1.444-2.275 2.798-2.275h24.807c1.583 0 2.866-1.283 2.866-2.866v-32c0-1.582-1.283-2.865-2.865-2.865zm-122.633 87.22c-37.449 0-67.807-30.358-67.807-67.807s30.358-67.808 67.807-67.808 67.807 30.358 67.807 67.807-30.358 67.808-67.807 67.808z" fill="#dae6f1"/></g></g></g><g><g><path d="m171.331 172.785-14.593-3.673c-2.549-.642-5.04-1.49-7.453-2.524-.037.44-.215.871-.552 1.208l-10.235 10.235c-.757.757-1.984.757-2.741 0l-4.58-4.58c-.428-.428-.605-1.005-.549-1.563h-5.254c.056.558-.121 1.136-.549 1.563l-4.58 4.58c-.757.757-1.984.757-2.741 0l-10.235-10.235c-.335-.335-.513-.763-.551-1.201-2.408 1.031-4.895 1.873-7.437 2.513l-14.61 3.677c-2.049.516-3.816 1.648-5.132 3.167 12.31 12.583 29.47 20.401 48.463 20.401s36.153-7.819 48.463-20.401c-1.317-1.519-3.085-2.651-5.134-3.167z" fill="#70d6f9"/></g></g><g><g><path d="m189.8 19.85c-4.5-.8-8-4.3-8.9-8.7 0-.2-.4-.2-.4 0-.9 4.4-4.4 7.9-8.9 8.7-.2 0-.2.3 0 .4 4.5.8 8 4.3 8.9 8.7 0 .2.4.2.4 0 .9-4.4 4.4-7.9 8.9-8.7.2-.1.2-.4 0-.4z" fill="#fc657e"/></g></g><g><g><path d="m24.61 87.21c-3.158-.561-5.613-3.017-6.245-6.104 0-.14-.281-.14-.281 0-.631 3.087-3.087 5.543-6.245 6.104-.14 0-.14.211 0 .281 3.158.561 5.613 3.017 6.245 6.104 0 .14.281.14.281 0 .631-3.087 3.087-5.543 6.245-6.104.14-.071.14-.281 0-.281z" fill="#f5c84c"/></g></g><g><g><path d="m90.7 244.1h-2.3v-2.3c0-1.7-1.4-3.2-3.2-3.2s-3.2 1.4-3.2 3.2v2.3h-2.3c-1.7 0-3.2 1.4-3.2 3.2s1.4 3.2 3.2 3.2h2.3v2.3c0 1.7 1.4 3.2 3.2 3.2s3.2-1.4 3.2-3.2v-2.3h2.3c1.7 0 3.2-1.4 3.2-3.2s-1.4-3.2-3.2-3.2z" fill="#70d6f9"/></g></g><g><g><path d="m163.8 233c-1.878 0-3.4 1.522-3.4 3.4s1.522 3.4 3.4 3.4 3.4-1.522 3.4-3.4-1.522-3.4-3.4-3.4z" fill="#f5c84c"/></g></g><g><g><path d="m162.8 0c-1.878 0-3.4 1.522-3.4 3.4s1.522 3.4 3.4 3.4 3.4-1.522 3.4-3.4-1.522-3.4-3.4-3.4z" fill="#87d147"/></g></g><g><g><path d="m124.824 170.71-10.235-10.235c-.757-.757-1.984-.757-2.741 0l-4.58 4.58c-.757.757-.757 1.984 0 2.741l10.235 10.235c.757.757 1.984.757 2.741 0l4.58-4.58c.757-.757.757-1.984 0-2.741z" fill="#9be5f9"/></g></g><g><g><path d="m148.733 165.055-4.58-4.58c-.757-.757-1.984-.757-2.741 0l-10.235 10.235c-.757.757-.757 1.984 0 2.741l4.58 4.58c.757.757 1.984.757 2.741 0l10.235-10.235c.757-.757.757-1.984 0-2.741z" fill="#9be5f9"/></g></g><g><g><path d="m139.712 156.499v-4.137c-3.511 1.838-7.494 2.885-11.712 2.885-4.218 0-8.201-1.047-11.712-2.885v4.137c0 1.6-.436 3.132-1.219 4.457l9.755 9.755c.329.329.506.748.549 1.178h5.254c.043-.43.22-.848.549-1.178l9.763-9.763c-.781-1.326-1.227-2.85-1.227-4.449z" fill="#f9d0b4"/></g></g><g><g><path d="m153.418 106.781c-.014-.721-.592-1.315-1.313-1.336-10.561-.31-16.126-4.495-18.264-6.591-.584-.572-1.526-.512-2.035.128-9.285 11.677-22.983 10.029-27.588 9.065-.837-.175-1.64.456-1.641 1.311v20.467c0 13.982 11.44 25.422 25.422 25.422 13.982 0 25.422-11.44 25.422-25.422v-22.646c.001-.134 0-.266-.003-.398z" fill="#f9d0b4"/></g></g><g><g><path d="m147.893 79.815c-2.709 0-5.242.765-7.418 2.071-2.542-4.243-7.174-7.108-12.453-7.108h-7.457c-14.432 0-26.241 11.808-26.241 26.241v11.758c1.816-1.453 4.116-2.327 6.622-2.327.555 0 1.099.047 1.631.129v-1.222c.001-.855.804-1.486 1.641-1.311 4.605.964 18.303 2.612 27.588-9.065.509-.64 1.451-.7 2.035-.128 2.138 2.096 7.703 6.282 18.264 6.591.721.021 1.298.615 1.313 1.336.003.132.004.265.004.398v3.4c.532-.082 1.076-.129 1.631-.129 2.861 0 5.453 1.138 7.362 2.978v-19.09c0-7.987-6.535-14.522-14.522-14.522z" fill="#754e34"/></g></g><g><g><path d="m155.053 110.449c-.555 0-1.099.047-1.631.129v19.246c0 .573-.026 1.141-.064 1.705.553.089 1.117.148 1.695.148 5.862 0 10.614-4.752 10.614-10.614s-4.752-10.614-10.614-10.614z" fill="#f9d0b4"/></g></g><g><g><path d="m102.578 129.824v-19.246c-.532-.083-1.076-.129-1.631-.129-5.862 0-10.614 4.752-10.614 10.614s4.752 10.614 10.614 10.614c.578 0 1.142-.059 1.695-.148-.038-.565-.064-1.132-.064-1.705z" fill="#f9d0b4"/></g></g><g><g><path d="m137.209 133.94c-1.058-.887-2.634-.749-3.522.309-1.08 1.289-2.938 2.058-4.972 2.058s-3.892-.769-4.972-2.058c-.886-1.057-2.462-1.197-3.522-.31-1.058.887-1.197 2.463-.31 3.522 2.018 2.408 5.309 3.846 8.804 3.846 3.494 0 6.784-1.438 8.804-3.845.886-1.058.748-2.635-.31-3.522z"/></g></g><g><g><path d="m139.263 119.164c-1.792 0-3.244 1.452-3.244 3.244s1.452 3.244 3.244 3.244 3.244-1.452 3.244-3.244-1.452-3.244-3.244-3.244z"/></g></g><g><g><path d="m117.476 119.164c-1.792 0-3.244 1.452-3.244 3.244s1.452 3.244 3.244 3.244 3.244-1.452 3.244-3.244-1.452-3.244-3.244-3.244z"/></g></g><g><g><g><path d="m126.591 168.943-10.235-10.235c-1.73-1.731-4.545-1.73-6.276 0l-4.58 4.58c-.839.838-1.3 1.953-1.3 3.138 0 1.186.462 2.301 1.3 3.138l10.235 10.235c.865.865 2.001 1.298 3.138 1.298s2.273-.433 3.139-1.298l4.58-4.581c1.73-1.729 1.73-4.545-.001-6.275zm-7.718 6.924-9.44-9.441 3.785-3.786 9.441 9.441z"/></g></g></g><g><g><g><path d="m150.5 163.288-4.58-4.58c-1.73-1.729-4.546-1.731-6.276 0l-10.235 10.235c-1.73 1.73-1.73 4.546 0 6.276l4.581 4.58c.865.865 2.001 1.298 3.138 1.298s2.272-.433 3.138-1.298l10.235-10.235c1.729-1.73 1.729-4.545-.001-6.276zm-13.373 12.578-3.786-3.786 9.441-9.44 3.785 3.786z"/></g></g></g><g><g><path d="m142.961 159.443c-.49-.914-.749-1.932-.749-2.944v-3.717c0-1.381-1.119-2.5-2.5-2.5s-2.5 1.119-2.5 2.5v3.717c0 1.834.464 3.67 1.343 5.308.451.841 1.313 1.319 2.205 1.319.399 0 .804-.096 1.18-.297 1.216-.654 1.673-2.169 1.021-3.386z"/></g></g><g><g><path d="m130.032 169.388h-4.316c-1.381 0-2.5 1.119-2.5 2.5s1.119 2.5 2.5 2.5h4.316c1.381 0 2.5-1.119 2.5-2.5s-1.119-2.5-2.5-2.5z"/></g></g><g><g><path d="m116.288 150.504c-1.381 0-2.5 1.119-2.5 2.5v3.494c0 1.002-.245 2.003-.709 2.894-.638 1.225-.163 2.734 1.062 3.373.369.192.764.283 1.153.283.902 0 1.773-.49 2.219-1.345.834-1.601 1.275-3.4 1.275-5.204v-3.494c0-1.381-1.119-2.501-2.5-2.501z"/></g></g><g><g><g><path d="m155.917 106.73c-.041-2.063-1.684-3.725-3.738-3.785-9.855-.289-14.883-4.207-16.587-5.878-.782-.767-1.86-1.171-2.948-1.1-1.092.067-2.11.599-2.793 1.458-.001 0-.001 0-.001 0-8.264 10.393-20.318 9.179-25.118 8.175-1.147-.239-2.324.045-3.233.784-.902.732-1.419 1.815-1.42 2.991v20.45c0 15.396 12.526 27.922 27.922 27.922s27.922-12.526 27.922-27.922v-22.646c-.001-.152-.002-.303-.006-.449zm-4.995 23.094c0 12.639-10.283 22.922-22.922 22.922s-22.922-10.283-22.922-22.922v-19.078c5.513.892 18.559 1.572 27.915-9.28 2.902 2.503 8.522 5.915 17.929 6.43z"/></g></g></g><g><g><path d="m147.894 77.315c-2.271 0-4.521.466-6.616 1.361-3.214-3.993-8.108-6.397-13.255-6.397h-7.457c-15.848 0-28.741 12.893-28.741 28.74v11.213c0 1.381 1.119 2.5 2.5 2.5s2.5-1.119 2.5-2.5v-11.213c0-13.09 10.65-23.74 23.741-23.74h7.457c4.181 0 8.131 2.258 10.309 5.893.341.569.895.979 1.537 1.14.643.159 1.324.06 1.894-.281 1.87-1.122 3.99-1.715 6.132-1.715 6.629 0 12.021 5.393 12.021 12.021v18.591c0 1.381 1.119 2.5 2.5 2.5s2.5-1.119 2.5-2.5v-18.592c-.001-9.385-7.637-17.021-17.022-17.021z"/></g></g><g><g><path d="m155.054 107.949c-.365 0-.727.016-1.084.046-1.376.117-2.396 1.327-2.279 2.703s1.327 2.392 2.703 2.279c.217-.019.438-.029.66-.029 4.474 0 8.113 3.64 8.113 8.114s-3.64 8.114-8.113 8.114c-.247 0-.49-.015-.73-.04-1.383-.144-2.602.859-2.742 2.232-.141 1.374.859 2.601 2.232 2.742.408.042.821.066 1.24.066 7.23 0 13.113-5.883 13.113-13.114s-5.883-13.113-13.113-13.113z"/></g></g><g><g><path d="m101.56 129.148c-.202.018-.407.028-.613.028-4.474 0-8.114-3.64-8.114-8.114s3.64-8.114 8.114-8.114c.212 0 .422.009.63.026 1.379.12 2.583-.912 2.695-2.288s-.912-2.583-2.288-2.695c-.342-.028-.688-.043-1.038-.043-7.231 0-13.114 5.883-13.114 13.114s5.883 13.114 13.114 13.114c.356 0 .708-.017 1.056-.048 1.375-.122 2.391-1.336 2.269-2.711s-1.339-2.397-2.711-2.269z"/></g></g><g><g><g><path d="m128 58.239c-38.768 0-70.308 31.54-70.308 70.308s31.54 70.307 70.308 70.307 70.308-31.54 70.308-70.307-31.54-70.308-70.308-70.308zm0 135.615c-36.011 0-65.308-29.297-65.308-65.307 0-36.011 29.297-65.308 65.308-65.308s65.308 29.297 65.308 65.308c0 36.01-29.297 65.307-65.308 65.307zm122.633-87.22h-24.808c-.169 0-.315-.13-.357-.315-2.513-11.349-6.961-22.083-13.221-31.906-.102-.16-.089-.355.031-.476l17.544-17.544c2.092-2.092 2.092-5.496 0-7.587l-22.628-22.628c-2.092-2.093-5.496-2.093-7.588 0l-17.544 17.544c-.12.122-.313.135-.477.031-9.821-6.259-20.556-10.708-31.904-13.221-.186-.041-.315-.188-.315-.357v-24.808c0-2.958-2.407-5.366-5.366-5.366h-32c-2.958 0-5.366 2.407-5.366 5.366v24.807c0 .169-.13.316-.315.357-11.349 2.513-22.084 6.961-31.905 13.221-.16.102-.356.089-.477-.03l-17.544-17.544c-2.092-2.093-5.496-2.092-7.587 0l-22.628 22.628c-2.092 2.092-2.092 5.496 0 7.587l17.544 17.544c.12.12.132.316.03.476-6.259 9.821-10.708 20.556-13.221 31.905-.041.186-.188.316-.357.316h-24.807c-2.958 0-5.366 2.407-5.366 5.366v32c0 2.958 2.407 5.366 5.366 5.366h24.807c.169 0 .316.13.357.315 2.513 11.349 6.961 22.084 13.221 31.905.102.16.089.356-.03.477l-17.544 17.544c-2.092 2.092-2.092 5.496 0 7.587l22.628 22.628c2.091 2.092 5.495 2.093 7.587 0l17.544-17.544c.121-.12.316-.132.476-.03 9.821 6.259 20.556 10.708 31.905 13.221.186.041.316.188.316.357v24.807c0 2.958 2.407 5.366 5.366 5.366h32c2.959 0 5.366-2.407 5.366-5.366v-24.807c0-.169.13-.316.314-.357 11.35-2.513 22.084-6.961 31.904-13.22.165-.105.357-.091.478.03l17.544 17.544c2.092 2.093 5.496 2.093 7.588 0l22.628-22.628c2.092-2.092 2.092-5.496 0-7.587l-17.544-17.545c-.12-.12-.133-.315-.03-.476 6.259-9.822 10.707-20.557 13.22-31.905.042-.186.188-.316.357-.316h24.808c2.958 0 5.365-2.407 5.365-5.366v-32c0-2.958-2.407-5.366-5.365-5.366zm.365 37.366c0 .202-.164.366-.365.366h-24.808c-2.532 0-4.687 1.741-5.238 4.234-2.387 10.777-6.611 20.971-12.555 30.298-1.374 2.153-1.081 4.908.711 6.699l17.544 17.544c.143.143.143.375 0 .517l-22.628 22.628c-.143.143-.375.143-.518 0l-17.544-17.545c-1.791-1.791-4.548-2.082-6.699-.711-9.327 5.945-19.521 10.169-30.299 12.556-2.492.552-4.233 2.707-4.233 5.239v24.807c0 .202-.164.366-.366.366h-32c-.202 0-.366-.164-.366-.366v-24.807c0-2.532-1.741-4.687-4.234-5.239-10.777-2.386-20.972-6.611-30.299-12.556-.906-.578-1.919-.86-2.922-.86-1.379 0-2.74.535-3.776 1.572l-17.544 17.544c-.143.142-.375.142-.517 0l-22.628-22.628c-.142-.143-.142-.375 0-.517l17.544-17.544c1.791-1.791 2.083-4.545.712-6.699-5.945-9.327-10.169-19.521-12.556-30.299-.552-2.493-2.707-4.234-5.239-4.234h-24.808c-.202 0-.366-.164-.366-.366v-32c0-.202.164-.366.366-.366h24.807c2.532 0 4.687-1.741 5.239-4.234 2.386-10.777 6.611-20.972 12.556-30.299 1.372-2.153 1.079-4.908-.712-6.698l-17.544-17.544c-.142-.143-.142-.375 0-.517l22.628-22.628c.143-.141.375-.142.517 0l17.544 17.544c1.79 1.791 4.544 2.084 6.699.712 9.327-5.945 19.522-10.169 30.299-12.555 2.493-.552 4.234-2.707 4.234-5.239v-24.808c0-.202.164-.366.366-.366h32c.202 0 .366.164.366.366v24.807c0 2.532 1.741 4.687 4.234 5.239 10.777 2.386 20.971 6.611 30.299 12.556 2.154 1.371 4.908 1.078 6.698-.712l17.544-17.544c.143-.143.375-.143.518 0l22.628 22.628c.143.143.143.375 0 .517l-17.544 17.544c-1.792 1.792-2.085 4.546-.712 6.699 5.944 9.328 10.169 19.522 12.556 30.299.552 2.493 2.706 4.234 5.238 4.234h24.808c.201 0 .365.164.365.366z"/></g></g></g><g><g><g><path d="m178.06 173.988c-1.655-1.781-3.771-3.036-6.118-3.627l-14.593-3.673c-2.089-.525-4.181-1.211-6.219-2.039-1.276-.518-2.736.097-3.257 1.376-.52 1.279.097 2.737 1.376 3.257 2.252.915 4.566 1.673 6.879 2.255l14.593 3.673c1.408.354 2.679 1.109 3.675 2.182.493.53 1.162.798 1.833.798.608 0 1.219-.221 1.7-.668 1.011-.94 1.07-2.522.131-3.534z"/></g></g><g><g><path d="m108.113 166.041c-.518-1.279-1.975-1.898-3.255-1.379-2.015.815-4.098 1.496-6.189 2.022l-14.61 3.677c-2.26.569-4.314 1.759-5.941 3.441-.959.993-.933 2.575.06 3.535.485.469 1.112.703 1.737.703.654 0 1.308-.255 1.798-.762.978-1.012 2.211-1.727 3.567-2.068l14.609-3.677c2.314-.582 4.617-1.334 6.845-2.236 1.279-.519 1.897-1.977 1.379-3.256z"/></g></g></g></g></g></svg>