<svg id="Layer_1" enable-background="new 0 0 53 53" height="512" viewBox="0 0 53 53" width="512" xmlns="http://www.w3.org/2000/svg"><g id="_x37_4"><path d="m41.7503662 7.3915977-6.4199829-3.7399902c-3.1199951-1.7999877-7.4400043-1.5499878-12.2199726 1.2000122-9.460021 5.4699707-17.1100464 18.7299805-17.0900269 29.6199951.0200195 5.4199829 1.9299927 9.2199707 5.0000005 11.0100098l6.6500235 3.8599854c-.0599976-.0300293-.1199951-.0700073-.1700439-.1099854 3.1199951 1.9299927 7.5200195 1.7199707 12.3699951-1.0800171 9.4800434-5.4700317 17.1400166-18.7399902 17.1100483-29.6300049-.0200191-5.539978-2.0200191-9.4000244-5.2300411-11.1300049zm-7.6999512 17.4899903-1.6400146 2.7900391.3999634 2.3699951c.0700073.4299927-.2599487 1.0199585-.6399536 1.2399902-.1000366.0499878-.2000141.0899658-.3000507.0799561l-2.0299683-.0499878-2.0200195 2.3900146c-.0999756.1199951-.2000122.2000122-.2999878.2600098-.3800049.2199707-.7199707.0200195-.6500244-.4899902l.3900146-2.8200073-1.6499634-.9000244c-.3900146-.2000122-.1799927-1.0799561.3499756-1.4799805l2.2700195-1.6799927 1.0100098-2.9400024c.1199951-.3500366.3499756-.6199951.5799561-.7600098.2300415-.1300049.460022-.1199951.5800171.0900269l1.0200195 1.7699585 2.2600117-.9299927c.5399779-.2199708.7499999.4199828.369995 1.0599975z" fill="#f9a83d"/><path d="m34.050415 24.881588-1.6400146 2.7900391.3999634 2.3699951c.0700073.4299927-.2599487 1.0199585-.6399536 1.2399902-.1000366.0499878-.2000141.0899658-.3000507.0799561l-2.0299683-.0499878-2.0200195 2.3900146c-.0999756.1199951-.2000122.2000122-.2999878.2600098-.3800049.2199707-.7199707.0200195-.6500244-.4899902l.3900146-2.8200073-1.6499634-.9000244c-.3900146-.2000122-.1799927-1.0799561.3499756-1.4799805l2.2700195-1.6799927 1.0100098-2.9400024c.1199951-.3500366.3499756-.6199951.5799561-.7600098.2300415-.1300049.460022-.1199951.5800171.0900269l1.0200195 1.7699585 2.2600117-.9299927c.5399779-.2199708.7499999.4199828.369995 1.0599975z" fill="#f9a83d"/><g><g><path d="m34.050415 24.881588-1.6400146 2.7900391.3999634 2.3699951c.0700073.4299927-.2599487 1.0199585-.6399536 1.2399902-.1000366.0499878-.2000141.0899658-.3000507.0799561l-2.0299683-.0499878-2.0200195 2.3900146c-.0999756.1199951-.2000122.2000122-.2999878.2600098-.3800049.2199707-.7199707.0200195-.6500244-.4899902l.3900146-2.8200073-1.6499634-.9000244c-.3900146-.2000122-.1799927-1.0799561.3499756-1.4799805l2.2700195-1.6799927 1.0100098-2.9400024c.1199951-.3500366.3499756-.6199951.5799561-.7600098.2300415-.1300049.460022-.1199951.5800171.0900269l1.0200195 1.7699585 2.2600117-.9299927c.5399779-.2199708.7499999.4199828.369995 1.0599975z" fill="#f9a83d"/></g></g><path d="m41.9756737 7.5187907c-3.1194687-1.8168774-7.4387283-1.5540156-12.2151527 1.1997905-9.4612752 5.4619989-17.1286212 18.7283888-17.094308 29.6180048.0114384 5.4048767 1.9311161 9.2099915 5.0049028 11.0039215l-6.646656-3.8539772c-3.0737867-1.7939987-4.9820967-5.5991135-5.0049028-11.0153618-.0228758-10.8896141 7.6330318-24.1446352 17.0943079-29.6180029 4.7763557-2.7538753 9.0956841-3.0052292 12.2151527-1.19979z" fill="#ffd06c"/><path d="m29.7632561 8.7145319c9.4769135-5.471499 17.1841888-1.0793805 17.2150612 9.8103189s-7.6263504 24.1525593-17.1032639 29.6240597c-9.4696598 5.467308-17.1769123 1.0751343-17.2077847-9.8145676s7.6263276-24.1525001 17.0959874-29.619811zm.0960884 34.1656561c6.9410324-4.0074081 12.5633011-13.7455387 12.5407181-21.711853-.0226097-7.9758043-5.6816292-11.2007351-12.6226635-7.193327-6.9327965 4.0026512-12.5550652 13.7408371-12.5324554 21.7166424.0225848 7.9663124 5.6816043 11.1911926 12.6144008 7.1885376" fill="#f9a83d"/><path d="m42.4047279 21.1662731c.0236092 7.971899-5.6015968 17.7009907-12.547596 21.7105846-4.8350353 2.7948952-9.0450878 2.0755501-11.1559811-1.3207932-.9198761-1.4741058-1.4505672-3.4552917-1.4505672-5.8610764-.0235367-7.9837036 5.5897942-17.7127972 12.5239887-21.7223892 3.4552937-1.9929924 6.5922298-2.1934509 8.8682384-.8962669 2.3114206 1.2736455 3.7501146 4.0803472 3.7619172 8.0899411z" fill="#ffd06c"/><path d="m25.7619934 40.6529427c-1.8554688 0-3.4355469-.8237305-4.4355469-2.4316406-.7373047-1.184082-1.1279297-2.7470703-1.1279297-4.5185547-.0166016-5.9438496 4.1728516-13.211916 9.3408203-16.1997089 2.5888672-1.4941406 5.0498047-1.7255859 6.9345703-.6523438 1.9121094 1.0537109 2.9736328 3.2939453 2.9824219 6.3051758.0175781 5.9404297-4.1796875 13.2041035-9.3574219 16.192873-1.5126952.8745117-2.9970702 1.3041992-4.336914 1.3041992zm8.1015625-23.465334c-1.1621094 0-2.4648438.3969727-3.8242188 1.1811523-4.890625 2.828125-8.8574219 9.706543-8.8408203 15.3325214 0 1.5859375.3378906 2.9658203.9775391 3.9912109 1.4316406 2.3061523 4.2763672 2.6083984 7.4228516.7900391 4.9013672-2.8286133 8.8740234-9.7031269 8.8574219-15.3237324-.0078125-2.6313477-.8857422-4.5620117-2.4716797-5.4355469-.6279297-.35791-1.34375-.5356444-2.1210938-.5356444z" fill="#febc1f"/><g><g><path d="m29.8182869 22.8965206c.2306519-.1331673.4608879-.126482.5797977.084116l1.0218372 1.7688828 2.2612343-.9307404c.5365562-.2215996.7494125.419754.3675232 1.0591011l-1.6356201 2.7961178.3968048 2.3649178c.0723991.4370899-.2628212 1.0213585-.6410141 1.2397079-.0976791.0563965-.198164.088398-.2953033.0871716l-2.0337944-.0529747-2.020462 2.3936996c-.0967941.1131935-.197422.1973076-.2955055.253933-.3798809.219326-.7213364.0257835-.6516495-.4933891l.3885059-2.8183155-1.646101-.9014168c-.3906479-.1933212-.1821194-1.077961.3475647-1.4719563l2.2718735-1.686451 1.0020981-2.9374027c.1205215-.3488331.3515701-.6218414.5822105-.7550011z" fill="#f9a83d"/></g></g><path d="m23.9975891 18.1641216c-2.4048615 0-4.3506432 1.9457798-4.3506432 4.3506413 0-1.2003345-.4885387-2.2911377-1.2719002-3.0787144-.7876034-.7833881-1.8784065-1.2719269-3.0787163-1.2719269 1.2003098 0 2.2911129-.4885406 3.0787163-1.2719269.7833614-.7875767 1.2719002-1.8783808 1.2719002-3.0787172 0 1.2003365.4885674 2.2911406 1.2719269 3.0787172.7875767.7833863 1.8784066 1.2719269 3.0787163 1.2719269z" fill="#fff"/></g></svg>