<svg height="512" viewBox="0 0 59 58" width="512" xmlns="http://www.w3.org/2000/svg"><g id="Page-1" fill="none" fill-rule="evenodd"><g id="080---Nature-Wand" fill-rule="nonzero" transform="translate(-1)"><path id="Rectangle-path" d="m31.98 19.481h6v29h-6z" fill="#f29c1f" transform="matrix(.707 -.707 .707 .707 -13.783 34.687)"/><path id="Shape" d="m22.973 10.307c2.1002037.1354369 3.9104019 1.5264688 4.582 3.521.509 1.514-.134 3.5-1 5.24l-6.491 6.491c-1.74.863-3.727 1.506-5.24 1-1.994862-.6711348-3.3860959-2.4815959-3.521-4.582z" fill="#f0c419"/><path id="Shape" d="m50.67 44.142c.4365173-.0975957.8827173-.1452351 1.33-.142 3.8659932 0 7 3.1340068 7 7s-3.1340068 7-7 7-7-3.1340068-7-7c-.0032979-.4469555.0443427-.8928313.142-1.329z" fill="#71c285"/><path id="Shape" d="m21.849 15.9c2.0312693-.0202131 3.8728738 1.1905259 4.6595731 3.0633761.7866994 1.8728501.3621087 4.0355148-1.0742867 5.4719103-1.4363955 1.4363954-3.5990602 1.8609861-5.4719103 1.0742867-1.8728502-.7866993-3.0835892-2.6283038-3.0633761-4.6595731z" fill="#f3d55b"/><rect id="Rectangle-path" fill="#f0c419" height="4" rx="2" transform="matrix(.707 -.707 .707 .707 -18.615 46.354)" width="10" x="41.647" y="43.648"/><circle id="Oval" cx="11.999" cy="11" fill="#71c285" r="11"/><path id="Shape" d="m18 12c-.5522847 0-1-.4477153-1-1-.0033061-2.76005315-2.2399468-4.99669388-5-5-.5522847 0-1-.44771525-1-1s.4477153-1 1-1c3.8641657.00440864 6.9955914 3.13583434 7 7 0 .5522847-.4477153 1-1 1z" fill="#7ed09e"/><path id="Shape" d="m13.858 49.971c1.419 3.74-1.612 7.029-1.612 7.029s-4.446-.451-5.868-4.191 1.612-7.029 1.612-7.029 4.449.451 5.868 4.191z" fill="#4fba6f"/><path id="Shape" d="m51.808 19.17c-1.642 3.648-6.108 3.83-6.108 3.83s-2.827-3.465-1.186-7.113 6.11-3.83 6.11-3.83 2.825 3.465 1.184 7.113z" fill="#4fba6f"/><g fill="#24ae5f"><path id="Shape" d="m17.121 32.879c1.886 1.885.707 4.949.707 4.949s-3.064 1.179-4.949-.707-.707-4.949-.707-4.949 3.064-1.179 4.949.707z"/><path id="Shape" d="m41 5c0 2.667-3 4-3 4s-3-1.333-3-4 3-4 3-4 3 1.333 3 4z"/><path id="Shape" d="m29.879 46.879c1.885-1.886 4.949-.707 4.949-.707s1.179 3.064-.707 4.949-4.949.707-4.949.707-1.179-3.064.707-4.949z"/></g><path id="Shape" d="m19.5 46.256c-2.8786037.0400396-5.6991434-.811187-8.075-2.437-10.611-7.426-4.369-19.18-4.3-19.3.26426826-.4851821.87181785-.6642682 1.35699999-.4.48518215.2642683.66426825.8718178.40000001 1.357-.227.418-5.438 10.311 3.694 16.7 4.055 2.838 9.868 2.761 15.168-.2 6.784161-3.7967604 10.7762509-11.1600954 10.256-18.917-.4-6.7 2.06-12.391 6.732-15.627 4.3275307-2.96139103 9.8799384-3.47069597 14.674-1.346.5047883.22422761.7322276.81521174.508 1.32s-.8152117.73222761-1.32.508c-4.1549714-1.84460506-8.9689947-1.404868-12.721 1.162-4.145 2.87-6.231 7.795-5.875 13.865.5686881 8.5256809-3.8225433 16.6168196-11.281 20.786-2.8070446 1.6136511-5.9795078 2.4841252-9.217 2.529z" fill="#7ed09e"/></g></g></svg>