<svg height="512" viewBox="0 0 58 58" width="512" xmlns="http://www.w3.org/2000/svg"><g id="Page-1" fill="none" fill-rule="evenodd"><g id="054---Armor" fill-rule="nonzero"><path id="Shape" d="m47.23 22.83v.01c.9510608 6.8636435 3.6320917 13.3726539 7.791 18.915.5677854.7656342.5115432 1.8266799-.134 2.528-3.303 3.63-13.587 13.717-25.887 13.717s-22.584-10.087-25.887-13.717c-.64554323-.7013201-.70178537-1.7623658-.134-2.528 4.15890831-5.5423461 6.83993925-12.0513565 7.791-18.915v-.01z" fill="#c03a2b"/><path id="Shape" d="m42.75 30.36c-.0249933 2.046033.3174352 4.0799432 1.011 6.005.1453888.3880219.0364134.8255143-.274 1.1-1.8151488 1.5437037-3.8804724 2.766259-6.107 3.615h-16.76c-2.2263882-.8481324-4.2917031-2.0700061-6.107-3.613-.3104134-.2744857-.4193888-.7119781-.274-1.1.693801-1.9256876 1.0362331-3.9602964 1.011-6.007z" fill="#547580"/><path id="Shape" d="m37.6 45.38c-2.2651657 2.09327-4.8259039 3.8419846-7.6 5.19l-.6.27c-.2572153.1004066-.5427847.1004066-.8 0l-.6-.27c-2.7740961-1.3480154-5.3348343-3.09673-7.6-5.19-.2497994-.2357878-.3627867-.5822819-.3-.92.8673889-4.0219456 1.0197152-8.1652197.45-12.24h16.9c-.5697152 4.0747803-.4173889 8.2180544.45 12.24.0627867.3377181-.0502006.6842122-.3.92z" fill="#95a5a5"/><g fill="#7f8c8d"><path id="Shape" d="m30 45v5.57l-.6.27c-.2572153.1004066-.5427847.1004066-.8 0l-.6-.27v-5.57c0-.5522847.4477153-1 1-1s1 .4477153 1 1z"/><path id="Shape" d="m29 43c-.5522847 0-1-.4477153-1-1v-1c0-.5522847.4477153-1 1-1s1 .4477153 1 1v1c0 .5522847-.4477153 1-1 1z"/><path id="Shape" d="m13.34 24.75.578 4.595c.0459033.3926033.3211682.7201686.7.833 2.247.661 10.008 3.1 13.755 6.252.3601316.302834.8858684.302834 1.246 0 3.747-3.154 11.508-5.591 13.755-6.252.3788318-.1128314.6540967-.4403967.7-.833l.578-4.595z"/></g><path id="Shape" d="m42 10c-.0300301.5429184-.0300301 1.0870816 0 1.63-4.23 3.16-11.28 7.37-13 7.37s-8.77-4.21-13-7.37c.0300301-.5429184.0300301-1.0870816 0-1.63 0-3.24.36-5.4-.33-6.79h.01c1.9498361-1.95197051 4.5632787-3.09802935 7.32-3.21 2 2 4 3 6 3s4-1 6-3c2.7567213.11197065 5.3701639 1.25802949 7.32 3.21h.01c-.69 1.39-.33 3.55-.33 6.79z" fill="#547580"/><path id="Shape" d="m29 13c5 0 7-3 7-3l-2-3h-10l-2 3s2 3 7 3z" fill="#3f5c6c"/><path id="Shape" d="m48.95 18.66c-.2238879 2.9168681-2.1745453 5.4152858-4.95 6.34-5.23 1.74-11.22 3.49-14 5.89-.1.09-.19.17-.28.26-.1904.192-.4496.3-.72.3s-.5296-.108-.72-.3c-.09-.09-.18-.17-.28-.26-2.78-2.4-8.77-4.15-14-5.89-2.7754547-.9247142-4.72611213-3.4231319-4.95-6.34l7.86-7.03c3.3470141 2.4046722 7.1054734 4.1771467 11.09 5.23.3277654.080238.6628013.127143 1 .14.3371987-.012857.6722346-.059762 1-.14 3.9845266-1.0528533 7.7429859-2.8253278 11.09-5.23z" fill="#95a5a5"/><path id="Shape" d="m30 27v3.89c-.1.09-.19.17-.28.26-.1904.192-.4496.3-.72.3s-.5296-.108-.72-.3c-.09-.09-.18-.17-.28-.26v-3.89c0-.5522847.4477153-1 1-1s1 .4477153 1 1z" fill="#7f8c8d"/><path id="Shape" d="m30 16.86v6.14c0 .5522847-.4477153 1-1 1s-1-.4477153-1-1v-6.14c.3277654.080238.6628013.127143 1 .14.3371987-.012857.6722346-.059762 1-.14z" fill="#7f8c8d"/><path id="Shape" d="m16.6 5.97c.1324021.01992993.2661063.02995774.4.03 1.4431815.00192004 2.6832125-1.0240039 2.9516416-2.44200336s-.5108234-2.82617636-1.8548523-3.35187881c-1.3440289-.52570246-2.8719011-.01993266-3.6367893 1.20388217z" fill="#95a5a5"/><path id="Shape" d="m43.54 1.41c-.7648882-1.22381483-2.2927604-1.72958463-3.6367893-1.20388217-1.3440289.52570245-2.1232814 1.93387935-1.8548523 3.35187881s1.5084601 2.4439234 2.9516416 2.44200336c.1338937-.00004226.2675979-.01007007.4-.03z" fill="#95a5a5"/><path id="Shape" d="m33.78 7h-9.56c-2.08-2.13-1.04-4.79-.28-6.13 1.3768581 1.29352002 3.1725576 2.04941725 5.06 2.13 1.8874424-.08058275 3.6831419-.83647998 5.06-2.13.76 1.34 1.8 4-.28 6.13z" fill="#35495e"/><path id="Shape" d="m17 10c.0018903.5446255-.0281613 1.0888932-.09 1.63-.63 5.15-4.25 6.98-7.86 7.03-2.13439759.0404458-4.23511698-.5359499-6.05-1.66-3-2-3-4-3-7 5-10 14-9 14-9 .7269903.59097435 1.2999977 1.34926552 1.67 2.21.9613598 2.13037592 1.416573 4.4543589 1.33 6.79z" fill="#7f8c8d"/><path id="Shape" d="m58 10c0 3 0 5-3 7-1.814883 1.1240501-3.9156024 1.7004458-6.05 1.66-3.61-.05-7.23-1.88-7.86-7.03-.0618387-.5411068-.0918903-1.0853745-.09-1.63-.086573-2.3356411.3686402-4.65962408 1.33-6.79.3700023-.86073448.9430097-1.61902565 1.67-2.21 0 0 9-1 14 9z" fill="#7f8c8d"/><path id="Shape" d="m14 1c-5 10-14 9-14 9 5-10 14-9 14-9z" fill="#95a5a5"/><path id="Shape" d="m58 10s-9 1-14-9c0 0 9-1 14 9z" fill="#95a5a5"/></g></g></svg>