<svg id="Flat" height="512" viewBox="0 0 340 340" width="512" xmlns="http://www.w3.org/2000/svg" xmlns:xlink="http://www.w3.org/1999/xlink"><linearGradient id="linear-gradient" gradientUnits="userSpaceOnUse" x1="115.142" x2="115.142" y1="36.089" y2="143.405"><stop offset="0" stop-color="#535365"/><stop offset="1" stop-color="#39394c"/></linearGradient><linearGradient id="linear-gradient-2" gradientUnits="userSpaceOnUse" x1="206.773" x2="211.687" y1="162.52" y2="320.27"><stop offset="0" stop-color="#e8eded"/><stop offset="1" stop-color="#c3d3dd"/></linearGradient><linearGradient id="linear-gradient-3" x1="141.163" x2="146.077" xlink:href="#linear-gradient-2" y1="164.563" y2="322.314"/><linearGradient id="linear-gradient-4" x1="129.186" x2="134.101" xlink:href="#linear-gradient-2" y1="164.937" y2="322.687"/><linearGradient id="linear-gradient-5" x1="149.013" x2="153.927" xlink:href="#linear-gradient-2" y1="164.319" y2="322.07"/><linearGradient id="linear-gradient-6" gradientUnits="userSpaceOnUse" x1="120.601" x2="124.641" y1="115.886" y2="159.595"><stop offset="0" stop-color="#edcfc9"/><stop offset="1" stop-color="#eca397"/></linearGradient><linearGradient id="linear-gradient-7" gradientUnits="userSpaceOnUse" x1="89.69" x2="89.69" y1="151.298" y2="278.532"><stop offset="0" stop-color="#788fd0"/><stop offset="1" stop-color="#5169ac"/></linearGradient><linearGradient id="linear-gradient-8" x1="165.119" x2="165.119" xlink:href="#linear-gradient-7" y1="146.148" y2="182.74"/><linearGradient id="linear-gradient-9" gradientUnits="userSpaceOnUse" x1="253.771" x2="253.771" y1="125.643" y2="317.489"><stop offset="0" stop-color="#edc378"/><stop offset=".553" stop-color="#edac53"/><stop offset="1" stop-color="#ed9c3a"/></linearGradient><linearGradient id="linear-gradient-10" x1="125.505" x2="124.848" xlink:href="#linear-gradient-6" y1="87.521" y2="139.461"/><linearGradient id="linear-gradient-11" x1="253.771" x2="253.771" xlink:href="#linear-gradient-9" y1="17.662" y2="111.092"/><linearGradient id="linear-gradient-12" x1="253.102" x2="254.387" xlink:href="#linear-gradient-6" y1="166.152" y2="219.043"/><path d="m123.755 29.609s-25.511-17.483-44.147 21.901a103.91 103.91 0 0 0 -5.523 29.467 42.436 42.436 0 0 1 -10.552 27.023c-8.911 10-19.108 25.442-16.088 41.429a20.039 20.039 0 0 0 30.555 13.041q.226-.145.454-.3l79.73-9.222s24.207 3.651 25.167-16.522c.4-8.311-3.48-15.416-8.176-20.9a29.506 29.506 0 0 1 -6.9-15.165c-.975-7.085-1.714-18.141-.866-34.253-.002.003 2.691-47.258-43.654-36.499z" fill="url(#linear-gradient)"/><path d="m150.923 104.627s-.942 25.96 6.6 39.334h-25.818v-26.02z" fill="#39394c"/><path d="m198.622 245.135a676.847 676.847 0 0 0 17.416 84.865h-65.115v-114.168h32.457z" fill="#2a3c72"/><path d="m252.231 192.289h-19.862s-15.228 3.78-15.228 31.256v36.414s2.649 26.814 35.09 28.139z" fill="#7f91ac"/><path d="m183.38 171.44s2.32 17.706 23.99 31.448c0 0 9.282-18.642 34.883-15.724v9.646s-12.42-.528-14.006 15.592v38.736a32.69 32.69 0 0 0 2.842 13.59c2.9 6.351 8.61 13.3 19.621 12.42v19.82s-15.856 6.606-31.977-9.514-50.475-69.238-50.475-69.238-3.317-23.784 15.122-46.776z" fill="url(#linear-gradient-2)"/><path d="m193.221 190.741c-8.647-10.21-9.841-19.3-9.841-19.3-18.439 22.992-15.122 46.776-15.122 46.776s8.028 12.413 18.144 27.058c-5.902-29.145 1.813-46.748 6.819-54.534z" fill="#9eb7cb"/><path d="m157.013 266.823s19.173 9.934 26.367 35.479c5.545 19.687 9.349 27.7 9.349 27.7h-92.829v-63.179z" fill="url(#linear-gradient-3)"/><path d="m161.034 222.119s-4.021 15.848-4.021 44.7l-17.413 14.548a10.785 10.785 0 0 1 -11.907 1.281l-25.314-13.223v-45.65z" fill="url(#linear-gradient-4)"/><g fill="#9eb7cb"><path d="m102.375 254.161 56.2-16.844a127.409 127.409 0 0 1 2.46-15.2l-58.659 1.656z"/><path d="m102.375 223.775v45.65l19.232 10.046a227.188 227.188 0 0 1 5.979-56.408z"/><path d="m121.721 266.823h-21.821v63.177h28.131a237.363 237.363 0 0 1 -6.31-63.177z"/></g><path d="m175.833 198.24s3.516 19.538-11.63 28.523a26.515 26.515 0 0 1 -13.55 3.529h-24.653s-8.462-43.792 16.344-60.292l16.79-1.854s12.723 6.903 16.699 30.094z" fill="url(#linear-gradient-5)"/><path d="m108.5 230.292h17.5c6.944-34.535 19.586-55.106 19.586-55.106l-6.263-2.982c-22.523 17.872-30.823 58.088-30.823 58.088z" fill="#9eb7cb"/><path d="m108.426 106.663v17.509a11.893 11.893 0 0 1 -5.177 9.849c-1.463.992-3.252 2.3-5.389 4.03l-3.227 8.633s9.366 20.349 48.1 17.862l10.015-12.662-7.153-13.833s-10.384-2.341-9.166-14.348z" fill="url(#linear-gradient-6)"/><path d="m97.86 138.051s13.679 20.793 44.868 21.34l2.862 11.764s-49.645 43.008-37.06 158.845h-74.142s-11.217-136.684 63.472-191.949z" fill="url(#linear-gradient-7)"/><path d="m145.59 138.051s1.789 13.132-2.862 21.34l2.862 11.764s19.3 9.029 30.243 27.085c0 0 9.867-5.961 11.6-26.259a19.971 19.971 0 0 0 -7.256-17.192c-7.451-6.081-19.92-14.389-34.587-16.738z" fill="url(#linear-gradient-8)"/><rect fill="#ededed" height="24.388" rx="8.248" transform="matrix(.956 -.294 .294 .956 -42.005 49.863)" width="16.497" x="136.73" y="152.563"/><path d="m246.041 112.083h15.459v217.917h-15.459z" fill="url(#linear-gradient-9)"/><path d="m139.536 134.4c-2.016-2.171-3.635-5.542-3.112-10.7l-28-17.04v17.509a11.893 11.893 0 0 1 -5.177 9.849q-.567.384-1.2.836c19.973 10.426 32.153 4.07 37.489-.454z" fill="#d57370"/><path d="m123.191 54.253s1.27 23.5 27.732 35.565v14.809a25.615 25.615 0 0 1 -6.814 17.468 44.778 44.778 0 0 1 -10.8 8.724 11.1 11.1 0 0 1 -8.964.706c-5.466-1.875-14.626-6.192-20.545-15.251a24.877 24.877 0 0 1 -3.9-13.629v-17.738a30.3 30.3 0 0 1 2.081-11.118c2.692-6.824 8.619-16.389 21.21-19.536z" fill="url(#linear-gradient-10)"/><path d="m119.264 99.417a3 3 0 0 1 -.716-.087 29.207 29.207 0 0 0 -4.613-.614 3 3 0 0 1 .279-5.993 35 35 0 0 1 5.76.779 3 3 0 0 1 -.71 5.915z" fill="#d57370"/><path d="m133.376 99.417a3 3 0 0 1 -.71-5.915 35.014 35.014 0 0 1 5.76-.779 3 3 0 0 1 .279 5.993 29.241 29.241 0 0 0 -4.614.614 2.982 2.982 0 0 1 -.715.087z" fill="#d57370"/><path d="m246.041 131.427 15.459 8.4v-27.744h-15.459z" fill="#e5782e"/><path d="m293.633 54.711h-32.133v-32.134h-15.459v32.134h-32.133v15.458h32.133v32.134h15.459v-32.134h32.133z" fill="#e5782e"/><path d="m253.771 10a52.44 52.44 0 1 0 52.44 52.44 52.441 52.441 0 0 0 -52.44-52.44zm0 90.093a37.653 37.653 0 1 1 37.653-37.653 37.653 37.653 0 0 1 -37.653 37.653z" fill="url(#linear-gradient-11)"/><path d="m246.041 225.167 15.459 8.478v-43.793h-15.459z" fill="#e5782e"/><rect fill="url(#linear-gradient-12)" height="38.951" rx="11.29" width="28.226" x="239.624" y="172.814"/></svg>