<svg height="512" viewBox="0 0 60 60" width="512" xmlns="http://www.w3.org/2000/svg"><g id="Page-1" fill="none" fill-rule="evenodd"><g id="077---Staff" fill-rule="nonzero" transform="translate(0 -1)"><path id="Shape" d="m10.652 25.122c-.876 1.526-3.847-.173-6.453-2.6-3.77127617-3.5003876-4.2627695-9.2943795-1.135-13.38 3.379-4.155 7.783-2.966 9.457-2.869 1.508.088 3.279-4.359 4.791-4.273s1.241 4.623 3.458 5.51 6.741 1.148 7.982 5.77.174 9.868 7.269 17.861 12.68 15.9 12.68 15.9.267-4.534 1.066-5.246 1.482 1.836 2.659 6.22c.494 1.841 4.647 6.781 6.315 8.714.3837988.4427713.3391773 1.1120938-.1 1.5l-1.683 1.5c-.4067284.3668842-1.0258854.3638512-1.429-.007-1.948-1.8-7.545-7.041-12.149-12.229-5.68-6.393-10.732-10.481-13.57-13.678s-11.265-1.415-12.595-4.521 4.613-1.25 7.1-4.9-.442-5.334-1.771-8.444-7.984-5.767-12.686-3.006 2.481 9.243.794 12.178z" fill="#91562d"/><path id="Shape" d="m17.77 7.51c2.217.886 6.741 1.148 7.982 5.77s.174 9.867 7.269 17.861 12.68 15.9 12.68 15.9c.0747393-1.1737234.2159659-2.3422653.423-3.5-2.3-3.051-5.936-7.7-10.1-12.4-7.1-7.994-6.029-13.24-7.269-17.861s-5.768-4.88-7.985-5.77-1.95-5.421-3.458-5.51c-.591-.034-1.224.631-1.865 1.444.501 1.435.902 3.497 2.323 4.066z" fill="#6d4122"/><path id="Shape" d="m58.741 56.729c-1.668-1.933-5.821-6.873-6.315-8.714-1.177-4.384-1.861-6.932-2.659-6.22-.521.465-.815 2.551-.957 3.949.191.686.395 1.446.616 2.271.494 1.841 4.647 6.781 6.315 8.714.3837988.4427713.3391773 1.1120938-.1 1.5l-.878.783c.292.273.555.516.766.711.4031146.3708512 1.0222716.3738842 1.429.007l1.683-1.5c.439826-.387999.4844686-1.0580846.1-1.501z" fill="#6d4122"/><ellipse id="Oval" cx="17.041" cy="19.426" fill="#60a917" rx="2.141" ry="4.273" transform="matrix(.601 -.799 .799 .601 -8.727 21.359)"/><g fill="#000"><path id="Shape" d="m2.288 8.512c-3.44701275 4.496597-2.91464319 10.8759424 1.23 14.739 1.22 1.138 4.3 3.746 6.449 3.422.6548727-.0861506 1.230595-.4765148 1.553-1.053.957-1.665-.019-3.813-.962-5.891-1.471-3.241-1.97-4.88-.2-5.923 2.2025912-1.1787622 4.8037699-1.3606882 7.149-.5 1.987.654 3.6 1.846 4.11 3.037.3912716.8580435.8563537 1.6804694 1.39 2.458 1.187 1.828 1.9 2.931.475 5.029-.989 1.452-2.72 1.855-4.247 2.209-1.344.312-2.5.581-3.01 1.578-.2940156.6634266-.2697206 1.4246714.066 2.068.895 2.093 3.665 2.454 6.6 2.834 2.463.321 5.012.652 6.17 1.957 1.2 1.356 2.784 2.856 4.614 4.593 2.521 2.393 5.658 5.37 8.953 9.083 4.581 5.161 10.072 10.322 12.22 12.3.779835.721803 1.9813404.7300414 2.771.019l1.685-1.5c.8407526-.7542062.9259827-2.0415355.192-2.9-3.468-4.02-5.809-7.209-6.107-8.322-1.388-5.174-1.84-6.681-2.985-7.023-.4591046-.1299168-.9527068-.0091741-1.3.318-.6869564.9614753-1.0820754 2.1006542-1.138 3.281-2.157-2.909-6.343-8.386-11.194-13.852-5.221-5.884-5.846-10.163-6.4-13.938-.1489913-1.1847808-.3673665-2.3597997-.654-3.519-1.145-4.266-4.759-5.3-7.151-5.988-.535-.153-1.04-.3-1.425-.452-.742-.292-1.142-1.556-1.493-2.676-.435-1.382-.886-2.816-2.279-2.9-1.293-.071-2.243 1.2-3.253 2.536-.4263226.6509508-.944707 1.23670159-1.539 1.739-.2-.011-.44-.041-.716-.073-2.039-.237-6.284-.736-9.574 3.31zm9.342-1.324c.32.039.6.071.833.083 1.313.081 2.242-1.192 3.252-2.532.4241941-.62162269.9165886-1.19384686 1.468-1.706.2339786.46949042.4212133.96085568.559 1.467.46 1.464 1.033 3.285 2.657 3.934.48.192 1.033.35 1.617.518 2.305.661 4.919 1.41 5.77 4.583.2656624 1.0840321.468335 2.1825371.607 3.29.562 3.852 1.261 8.646 6.879 14.977 6.973 7.856 12.557 15.733 12.613 15.812.2446309.3465588.6812958.501063 1.0894465.3854765.4081508-.1155864.6989624-.4761088.7255535-.8994765.0674253-1.1696491.2080339-2.3339277.421-3.486.39 1.12.87 2.91 1.34 4.66.5 1.855 3.822 5.977 6.515 9.2l-1.77 1.505c-2.126-1.959-7.559-7.063-12.079-12.157-3.353-3.777-6.523-6.787-9.072-9.206-1.8-1.705-3.349-3.178-4.5-4.471-1.655-1.863-4.711-2.26-7.409-2.611-2.246-.292-4.569-.594-5.015-1.638-.0509672-.1197932-.0921029-.2435348-.123-.37.5283778-.2667987 1.0952244-.4493368 1.68-.541 1.7-.393 4.019-.933 5.448-3.031 2.178-3.2.781-5.348-.452-7.245-.4696646-.6815236-.8798428-1.4021792-1.226-2.154-.737-1.722-2.777-3.313-5.325-4.152-2.890026-1.0408639-6.0872441-.7959318-8.785.673-3.524 2.068-1.843 5.771-.616 8.475.7 1.543 1.495 3.292 1.049 4.068-.024.043-.034.059-.116.071-.72.091-2.587-.855-4.788-2.907-3.38627167-3.1391292-3.83546327-8.3364231-1.038-12.01 2.598-3.192 5.85-2.811 7.791-2.585z"/><path id="Shape" d="m19.664 23.479c.629395-.0672775 1.2045796-.3869849 1.594-.886 1.072-1.433.069-3.874-2.333-5.68-1.2533772-1.0650823-2.8639327-1.6153941-4.507-1.54-.6291831.0679453-1.2041243.3875174-1.594.886-1.072 1.431-.069 3.873 2.333 5.679 1.1406844.9301382 2.5432219 1.4810851 4.012 1.576.1656427.0007168.3311062-.0109826.495-.035zm-5.238-6.021c.077307-.0635169.1739534-.0987893.274-.1.0702633-.0095101.1410963-.0141877.212-.014 1.0337038.1010879 2.0132851.5100596 2.812 1.174 1.717 1.291 2.108 2.647 1.932 2.882-.0766286.0653205-.1733429.1023826-.274.105-1.1123976-.0214409-2.1822232-.4314699-3.024-1.159-1.717-1.297-2.109-2.654-1.932-2.888z"/><path id="Shape" d="m9.105 31.553-3 6c-.15969772.3197527-.13667846.7004141.06038664.9985927.19706511.2981787.53823718.4685741.895.447.35676283-.021574.67491564-.23184.83461336-.5515927l3-6c.2468713-.4942948.0462948-1.0951287-.448-1.342-.49429485-.2468713-1.09512871-.0462948-1.342.448z"/><path id="Shape" d="m14 34v6c0 .5522847.4477153 1 1 1s1-.4477153 1-1v-6c0-.5522847-.4477153-1-1-1s-1 .4477153-1 1z"/><path id="Shape" d="m.071 31.371c.15181018.3799891.51980808.6291502.929.629.12708668.000464.25306465-.023645.371-.071l5-2c.33189974-.1325455.56787554-.4320891.61903761-.7857954.05116207-.3537064-.09026233-.7078392-.371-.929-.28073767-.2211609-.65813788-.2757501-.99003761-.1432046l-5 2c-.24644542.0983216-.44371242.2905559-.54836866.5343787-.10465625.2438228-.10812097.519243-.00963134.7656213z"/><path id="Shape" d="m33 12c.1547895-.0000102.3074634-.0359537.446-.105l6-3c.4942948-.24687129.6948712-.84770515.448-1.34199998-.2468713-.49429484-.8477052-.69487128-1.342-.44800002l-6 3c-.415621.2071424-.6339515.6731489-.5271118 1.1250715.1068398.4519227.5107327.7708283.9751118.7699285z"/><path id="Shape" d="m35 17h6c.5522847 0 1-.4477153 1-1s-.4477153-1-1-1h-6c-.5522847 0-1 .4477153-1 1s.4477153 1 1 1z"/><path id="Shape" d="m32.371 1.071c-.2463783-.09848963-.5217985-.09502491-.7656213.00963134-.2438228.10465624-.4360571.30192323-.5343787.54836866l-2 5c-.0984896.24637831-.0950249.52179853.0096313.76562132.1046563.24382278.3019233.43605711.5483687.53437868.1179353.04735497.2439133.07146396.371.071.4091919.00015022.7771898-.2490109.929-.629l2-5c.0984896-.24637831.0950249-.52179853-.0096313-.76562132-.1046563-.24382278-.3019233-.43605711-.5483687-.53437868z"/></g></g></g></svg>