<svg height="512" viewBox="0 0 60 60" width="512" xmlns="http://www.w3.org/2000/svg"><g id="Page-1" fill="none" fill-rule="evenodd"><g id="080---Nature-Wand" fill-rule="nonzero" transform="translate(-1)"><circle id="Oval" cx="13" cy="12" fill="#02a9f4" r="11"/><path id="Shape" d="m13 1c-.5020037.0040115-1.0031559.04209907-1.5.114 5.44307.74317391 9.5006713 5.39242933 9.5006713 10.886 0 5.4935707-4.0576013 10.1428261-9.5006713 10.886 4.0710962.5639443 8.1168227-1.1897596 10.4884456-4.5464339 2.3716229-3.3566742 2.6731269-7.7558191.7816417-11.4046739-1.8914852-3.64885477-5.6601181-5.93813115-9.7700873-5.9348922z" fill="#0377bc"/><path id="Shape" d="m60 52c0 3.8659932-3.1340068 7-7 7s-7-3.1340068-7-7c-.0039782-.4472107.0429911-.8934195.14-1.33v-.01c.3015772-.0929117.5761004-.2576256.8-.48l4.24-4.24c.2223744-.2238996.3870883-.4984228.48-.8h.01c.4364955-.0975288.8827642-.1445044 1.33-.14 3.8641657.0044086 6.9955914 3.1358343 7 7z" fill="#3f51b5"/><path id="Shape" d="m53 45c-.4472358-.0045044-.8935045.0424712-1.33.14h-.01c-.006.021-.02.039-.027.06 3.1717802.7583875 5.3982622 3.6084705 5.3664484 6.8695024-.0318138 3.261032-2.313476 6.0671346-5.4994484 6.7634976 2.6225125.5832905 5.347482-.3858199 7.012786-2.494033s1.9770924-4.9835255.8023962-7.3996978c-1.1746962-2.4161724-3.6285966-3.9468605-6.3151822-3.9392692z" fill="#283593"/><path id="Shape" d="m21.07 26.56c-1.74.86-3.73 1.51-5.24 1-1.9934974-.6716519-3.3839355-2.4808014-3.52-4.58.23.01.46.02.69.02 1.7006398.0038105 3.3786215-.3900015 4.9-1.15-.0146241 1.3440682.5114523 2.6376395 1.46 3.59.4888873.4845226 1.0704857.8654526 1.71 1.12z" fill="#ffdc00"/><path id="Shape" d="m27.56 20.07h-.01c-.7567356-1.9298572-2.6271906-3.1914194-4.7-3.17.7611215-1.5209723 1.154997-3.1992244 1.15-4.9 0-.23-.01-.46-.02-.69 2.0976717.1341193 3.904832 1.5260677 4.57 3.52.51 1.51-.13 3.5-.99 5.24z" fill="#ffdc00"/><path id="Shape" d="m26.43 25.44c-1.4375041 1.4332104-3.5988471 1.8550882-5.4698023 1.0676639-1.8709551-.7874243-3.0801646-2.6278582-3.0601977-4.6576639 2.1416185-1.0716521 3.8783479-2.8083815 4.95-4.95 2.0323809-.0199916 3.8746276 1.1922753 4.6604007 3.0667173.7857731 1.8744419.3586929 4.0380192-1.0804007 5.4732827z" fill="#ffeb3a"/><path id="Shape" d="m26.43 18.36c-.9485241-.9481674-2.238914-1.4744158-3.58-1.46-.123.246-.257.484-.4.719.3553045.2052741.6835218.4542086.977.741.940417.9380426 1.4689378 2.2117274 1.4689378 3.54s-.5285208 2.6019574-1.4689378 3.54c-.5659012.5638613-1.2621228.9794647-2.027 1.21 2.1953407.7013071 4.5852618-.1933509 5.7804124-2.1638756 1.1951505-1.9705247.8840644-4.503381-.7524124-6.1261244z" fill="#fdd834"/><path id="Shape" d="m48.35 43.11-4.24 4.25-20.5-20.51c1.0701401-.1449599 2.0619481-.6408639 2.82-1.41.7667556-.7650688 1.2649695-1.7579879 1.42-2.83z" fill="#ff9801"/><path id="Shape" d="m51.76 44.52c.0017986.2108219-.0320099.4204344-.1.62-.0929117.3015772-.2576256.5761004-.48.8l-4.24 4.24c-.2238996.2223744-.4984228.3870883-.8.48-.8770022.2933105-1.8404652-.0565031-2.3249915-.8441567-.4845263-.7876537-.3622836-1.8053408.2949915-2.4558433l4.24-4.25c.3751365-.3755541.8841815-.5865733 1.415-.5865733s1.0398635.2110192 1.415.5865733c.3735077.3739282.5822911.8814879.58 1.41z" fill="#ffeb3a"/><path id="Shape" d="m14.858 50.971c1.419 3.74-1.612 7.029-1.612 7.029s-4.446-.451-5.868-4.191 1.612-7.029 1.612-7.029 4.449.451 5.868 4.191z" fill="#60a917"/><path id="Shape" d="m14.858 50.971c-1.419-3.74-5.868-4.191-5.868-4.191-.19803205.2273571-.38172053.4668201-.55.717 1.55833902.6539125 2.7894963 1.9052409 3.418 3.474.6988806 2.1505573.3039222 4.5068688-1.058 6.312.7770261.3580147 1.6025549.5996082 2.45.717 0 0 3.027-3.289 1.608-7.029z" fill="#549414"/><path id="Shape" d="m52.808 20.17c-1.642 3.648-6.108 3.83-6.108 3.83s-2.827-3.465-1.186-7.113 6.11-3.83 6.11-3.83 2.825 3.465 1.184 7.113z" fill="#60a917"/><path id="Shape" d="m51.622 13.057c-.8854195.0700726-1.7550307.2744093-2.579.606 1.315792 1.9088724 1.6021982 4.3450098.765 6.507-.7053362 1.4982244-1.974132 2.657034-3.53 3.224.1291445.2097844.2700356.4121066.422.606 0 0 4.468-.182 6.11-3.83s-1.188-7.113-1.188-7.113z" fill="#549414"/><path id="Shape" d="m18.121 33.879c1.886 1.885.707 4.949.707 4.949s-3.064 1.179-4.949-.707-.707-4.949-.707-4.949 3.064-1.179 4.949.707z" fill="#60a917"/><path id="Shape" d="m42 6c0 2.667-3 4-3 4s-3-1.333-3-4 3-4 3-4 3 1.333 3 4z" fill="#60a917"/><path id="Shape" d="m30.879 47.879c1.885-1.886 4.949-.707 4.949-.707s1.179 3.064-.707 4.949-4.949.707-4.949.707-1.179-3.064.707-4.949z" fill="#60a917"/><path id="Shape" d="m19 13c-.5522847 0-1-.4477153-1-1-.0033061-2.76005315-2.2399468-4.99669388-5-5-.5522847 0-1-.44771525-1-1s.4477153-1 1-1c3.8639376.00495836 6.9950416 3.13606244 7 7 0 .5522847-.4477153 1-1 1z" fill="#f5f5f5"/><g fill="#000"><path id="Shape" d="m53 44c-.1 0-.187.011-.282.015-.1542373-.925242-.7358035-1.7235538-1.5692009-2.154031-.8333975-.4304771-1.8210066-.4426959-2.6647991-.032969l-8.791-8.792c1.0588154-2.9105829 1.5014996-6.0093721 1.3-9.1-.356-6.07 1.73-10.995 5.875-13.865 3.7541119-2.56705515 8.5704932-3.0049424 12.726-1.157.5047883.22422761 1.0957724-.00321174 1.32-.508s-.0032117-1.09577239-.508-1.32c-4.7935061-2.12394652-10.3449525-1.61466034-14.672 1.346-4.672 3.236-7.127 8.931-6.734 15.627.1573188 2.5003785-.1446637 5.0084265-.891 7.4l-9.23-9.231c0-.108.015-.216.015-.326.0004073-.6002401-.088913-1.1971693-.265-1.771 1.062-2.272 1.362-4.164.872-5.617-.6779538-2.0949934-2.4489906-3.6503122-4.614-4.052-.79564-6.17634401-6.1857442-10.71637148-12.4074537-10.4506665-6.2217095.26570499-11.2051205 5.24874489-11.4712888 11.4704346-.26616831 6.2216897 4.27345775 11.6121319 10.4497425 12.4082319.4024001 2.1645496 1.9568667 3.9354366 4.051 4.615.4842403.1574132.9908423.2350921 1.5.23 1.4335012-.0706518 2.8352568-.4474312 4.111-1.105.5763768.1790123 1.1764641.2700367 1.78.27.11 0 .218-.01.326-.015l10.8 10.8c-1.5072609 1.7192011-3.2928082 3.1727894-5.282 4.3-5.3 2.962-11.113 3.039-15.168.2-9.135-6.396-3.924-16.285-3.697-16.707.2642682-.4851822.08518213-1.0927317-.40000001-1.357-.48518215-.2642682-1.09273173-.0851821-1.35699999.4-.064.118-6.306 11.872 4.305 19.3 2.37553 1.6247099 5.1952912 2.4752139 8.073 2.435 3.2368124-.0452142 6.4085455-.9156768 9.215-2.529 2.1491731-1.2178671 4.082509-2.7822406 5.722-4.63l7.389 7.389c-.4088646.8435984-.396335 1.8305366.0338142 2.6634833s1.2276291 1.4145219 2.1521858 1.5695167c0 .095-.015.185-.015.282 0 4.418278 3.581722 8 8 8s8-3.581722 8-8-3.581722-8-8-8zm-25.393-28.853c.2118289.924212.1300282 1.8914872-.234 2.767-.076-.086-.15-.174-.232-.257-.7884061-.7873707-1.7815871-1.3381756-2.867-1.59.4097494-1.1302155.645765-2.3160253.7-3.517 1.2569926.3704465 2.2452847 1.3452261 2.633 2.597zm-24.607-3.147c0-5.5228475 4.4771525-10 10-10s10 4.4771525 10 10-4.4771525 10-10 10c-5.52033443-.0060624-9.99393763-4.4796656-10-10zm13.146 14.608c-1.2539341-.3869635-2.2303151-1.3768636-2.6-2.636 1.2012305-.0548076 2.3872844-.2908047 3.518-.7.2512622 1.0851191.8017682 2.0780392 1.589 2.866.083.082.171.156.257.233-.8744723.3636816-1.8403798.4465037-2.764.237zm3.923-1.88c-.6209799-.6276411-1.0150764-1.4443357-1.12-2.321 1.8536259-1.0646558 3.3913442-2.6023741 4.456-4.456 1.7280401.2242424 3.1106875 1.5439358 3.4151561 3.2596589.3044687 1.7157232-.5396742 3.4305781-2.0850432 4.2357128-1.5453689.8051347-3.4344741.5142974-4.6661129-.7183717zm5.411 2.583c1.2424837-.5864705 2.2425295-1.5865163 2.829-2.829l9.036 9.036c-.5591453 1.2686052-1.2495756 2.4751824-2.06 3.6zm13.367 7.708 8.092 8.093-1.414 1.415-1.414 1.414-7.4-7.4c.8206534-1.1045659 1.5357914-2.2837401 2.136-3.522zm5.971 13.044 4.243-4.243c.2525868-.2527654.6208353-.3515768.96603-.259213.3451946.0923639.6148921.3618707.7075.707s-.0059432.7134476-.25853.966213l-4.244 4.243c-.3923789.3789722-1.0160848.3735524-1.4018186-.0121814s-.3911536-1.0094397-.0121814-1.4018186zm8.182 9.937c-3.3102874-.0082448-5.9917552-2.6897126-6-6 .0002963-.2189966.0143238-.4377591.042-.655.220141-.1254042.4234387-.2782976.605-.455l4.244-4.243c.1770297-.1816495.3299518-.3853215.455-.606.2169756-.0268226.4353733-.0405142.654-.041 3.3137085 0 6 2.6862915 6 6s-2.6862915 6-6 6z"/><path id="Shape" d="m13.146 59c.033 0 .067.005.1.005.2792091-.0000173.5456962-.116764.735-.322.141-.154 3.431-3.793 1.812-8.061s-6.495-4.81-6.7-4.832c-.31318378-.0314777-.62291044.086337-.836.318-.141.152-3.432 3.792-1.812 8.06s6.493 4.806 6.701 4.832zm-3.746-11.133c1.091.241 3.607 1.048 4.522 3.459s-.435 4.684-1.09 5.587c-1.092-.241-3.606-1.048-4.521-3.459s.436-4.684 1.089-5.587z"/><path id="Shape" d="m44.6 16.477c-1.873 4.164 1.191 7.994 1.323 8.155.1903609.2334248.4757957.3686114.777.368h.041c.207-.009 5.107-.256 6.981-4.419s-1.192-7.994-1.324-8.155c-.1931004-.2510531-.499026-.3888135-.815-.367-.209.007-5.108.254-6.983 4.418zm7.3 3.283c-1.059 2.352-3.619 3-4.72 3.179-.6-.941-1.81-3.29-.751-5.642s3.618-3.005 4.72-3.18c.597.943 1.805 3.291.751 5.643z"/><path id="Shape" d="m19.188 39.762c.263393-.1023249.4716751-.310607.574-.574.057-.151 1.384-3.7-.934-6.016s-5.865-.99-6.015-.934c-.2644612.101567-.473433.3105388-.575.575-.057.15-1.384 3.7.934 6.015.9471519.9149542 2.2248224 1.4067545 3.541 1.363.8431158-.0043755 1.6795958-.1493653 2.475-.429zm-5.213-5.787c1.1761689-.3872394 2.4682021-.1576866 3.439.611.7688568.9707213.9984257 2.2628444.611 3.439-1.1761423.387612-2.4683554.1580272-3.439-.611-.7688568-.9707213-.9984257-2.2628444-.611-3.439z"/><path id="Shape" d="m38.594 1.086c-.147.065-3.594 1.635-3.594 4.914s3.447 4.849 3.594 4.914c.2584863.1148359.5535137.1148359.812 0 .147-.065 3.594-1.635 3.594-4.914s-3.447-4.849-3.594-4.914c-.2584863-.1148359-.5535137-.1148359-.812 0zm2.406 4.914c-.142558 1.23027697-.8940825 2.30646006-2 2.864-1.1054283-.55810416-1.8567438-1.63398791-2-2.864.142558-1.23027697.8940825-2.30646006 2-2.864 1.1057951.55768115 1.8572672 1.6337893 2 2.864z"/><path id="Shape" d="m29.813 53.762c.7950115.2798158 1.6311936.4248126 2.474.429 1.3161776.0437545 2.5938481-.4480458 3.541-1.363 2.318-2.318.991-5.865.934-6.015-.1019854-.2638412-.3103367-.4725555-.574-.575-.151-.056-3.7-1.385-6.016.934s-.991 5.865-.934 6.016c.1024445.2636633.3111588.4720146.575.574zm1.773-5.176c.9707979-.7686866 2.2628311-.9982394 3.439-.611.3870533 1.1761821.1575164 2.4681255-.611 3.439-.9709509.7683464-2.2628046.9978674-3.439.611-.3870533-1.1761821-.1575164-2.4681255.611-3.439z"/></g></g></g></svg>