<svg height="512" viewBox="0 0 60 61" width="512" xmlns="http://www.w3.org/2000/svg"><g id="Page-1" fill="none" fill-rule="evenodd"><g id="022---Fire-Sword" fill-rule="nonzero"><path id="Shape" d="m51.29 39.71-11.58 11.58c-.3930079.3899779-1.0269921.3899779-1.42 0l-.54-.53v-.01l-1.54-1.54c-.3877236-.3900375-.3877236-1.0199625 0-1.41l8.8-8.79 2.79-2.8c.3900375-.3877236 1.0199625-.3877236 1.41 0l1.53 1.53.55.55c.3899779.3930079.3899779 1.0269921 0 1.42z" fill="#ffeb3a"/><path id="Shape" d="m42.6568778 45.17184h8c1.1045695 0 2 .8954305 2 2v2h-12v-2c0-1.1045695.8954305-2 2-2z" fill="#ffdc00" transform="matrix(-.707 .707 -.707 -.707 113.004 47.536)"/><path id="Shape" d="m46.21 50.45 5.13 5.14 4.25-4.25-5.14-5.13z" fill="#ff9801"/><rect id="Rectangle-path" fill="#ffdc00" height="4" rx="2" transform="matrix(-.707 .707 -.707 -.707 132.489 54.879)" width="10" x="49.878" y="52.879"/><path id="Shape" d="m45 39-6 6s-2.83-2.83-5.74-2.74l-24.41-22.65-3.35-3.11-4.5-15.5 15.5 4.5 3.1 3.34 22.66 24.42c-.09 2.91 2.74 5.74 2.74 5.74z" fill="#9e9e9e"/><path id="Shape" d="m42.26 33.26-22.66-24.42-3.1-3.34-15.5-4.5.276.951 12.224 3.549 3.1 3.34 22.66 24.42c-.09 2.91 2.74 5.74 2.74 5.74l-4.67 4.67c.594711.3933388 1.1535458.8383989 1.67 1.33l6-6s-2.83-2.83-2.74-5.74z" fill="#707070"/><path id="Shape" d="m36.21 49.21 1.54 1.54v.01c-3.21 9.19-11.75 8.24-11.75 8.24s3-7-2-9-8 5-8 5c-6-10 3-11 4-15s-4-5-8-3c-2.1763128 1.2105887-4.8236872 1.2105887-7 0 3-2 4-7 1-9s-5 1-5 1c0-2 0-5 5-7 1.21099843-.4201154 2.22531825-1.2707204 2.85-2.39l24.41 22.65c2.91-.09 5.74 2.74 5.74 2.74l6-6 .01.01-8.8 8.79c-.3877236.3900375-.3877236 1.0199625 0 1.41z" fill="#ff9801"/><path id="Shape" d="m50.74 37.74-1.53-1.53c-.3900375-.3877236-1.0199625-.3877236-1.41 0l-2.79 2.8-.01-.01s-2.83-2.83-2.74-5.74l-22.66-24.42c1.1130884-.62213643 1.9571126-1.63354095 2.37-2.84 2-5 5-5 7-5 0 0-3 2-1 5s7 2 9-1c1.2105887 2.1763128 1.2105887 4.8236872 0 7-2 4-1 9 3 8s5-10 15-4c0 0-7 3-5 8s9 2 9 2 .95 8.53-8.23 11.74z" fill="#ff9801"/><g fill="#f57c00"><path id="Shape" d="m33.97 12c-2 4-1 9 3 8 .2167809-.0557542.4269765-.1345357.627-.235-1.931-1.132-2.143-4.733-.627-7.765 1.2105887-2.1763128 1.2105887-4.8236872 0-7-.5763091.83999257-1.3490242 1.52654525-2.251 2 .3240428 1.70339006.0599539 3.4663328-.749 5z"/><path id="Shape" d="m51.97 16s-7 3-5 8c1.184 2.959 4.113 3.112 6.311 2.747-1.5153255-.2580488-2.777657-1.3053531-3.311-2.747-2-5 5-8 5-8-3.291-1.975-5.6-2.319-7.373-1.864 1.5497093.3782626 3.0269526 1.0079405 4.373 1.864z"/><path id="Shape" d="m58.97 26c-.9549637.3829284-1.9519005.6514635-2.97.8-.012532 4.2364448-2.3936385 8.1099893-6.168 10.034l.911.911c9.177-3.215 8.227-11.745 8.227-11.745z"/><path id="Shape" d="m28.97 1c-1.3479714-.09911701-2.6959062.19290079-3.882.841-1.0307557 1.17898755-1.0802504 2.92346647-.118 4.159 1.2083786 1.60902186 3.3164446 2.25529616 5.219 1.6-.9069472-.25134644-1.6940442-.81887918-2.219-1.6-2-3 1-5 1-5z"/></g><path id="Shape" d="m55.729 50.066-3.891-3.885c.9334968-1.1889105.8339724-2.8872597-.232-3.959l-.707-.707 1.1-1.1c.5919108-.5965755.7477335-1.4995478.39-2.26 4.8635377-2.076201 7.8958838-6.986648 7.574-12.265-.0350621-.3142276-.2166641-.5933633-.4897288-.7527495-.2730647-.1593863-.6054213-.1802452-.8962712-.0562505-.035.015-3.481 1.457-5.853.471-.8524469-.3549386-1.5150221-1.0538392-1.824-1.924-1.612-4.029 4.218-6.6 4.466-6.71.3442491-.1483899.5765927-.4768505.6018782-.850866.0252856-.3740155-.1607343-.7307598-.4818782-.924134-7.6-4.561-10.744-.983-13.04 1.63-.952 1.085-1.775 2.021-2.717 2.257-.7355194.2865213-1.5717925.0767511-2.085-.523-.97-1.209-.873-3.871.222-6.06 1.3763664-2.494977 1.3524892-5.52700887-.063-8-.1961648-.26225416-.5044975-.41666809-.832-.41666809s-.6358352.15441393-.832.41666809c-1.0400065 1.46599875-2.7186912 2.3458585-4.516 2.367-1.1116217.04877788-2.1729766-.46592097-2.823-1.369-.4194403-.56353582-.580204-1.27852005-.4423595-1.9673609.1378444-.68884086.5613629-1.28690398 1.1653595-1.6456391.3663496-.24427953.5298061-.69944188.4025626-1.12097906-.1272435-.42153717-.5152401-.71024013-.9555626-.71102094-2.123 0-5.677 0-7.929 5.632-.2667941.72999329-.7099442 1.38269497-1.29 1.9l-2.518-2.712c-.1229318-.13303209-.2799415-.22986624-.454-.28l-15.5-4.5c-.35017421-.10157636-.72787909-.00451411-.9856966.2533034s-.35487976.63552239-.2533034.9856966l4.5 15.5c.05013376.1740585.14696791.3310682.28.454l2.726 2.529c-.52157831.5878542-1.18048455 1.0375457-1.918 1.309-5.628 2.252-5.628 5.806-5.628 7.929-.00009889.4406919.28830245.8294988.71006508.9572708.42176262.127772.87744979-.0356151 1.12193492-.4022708.36024797-.6022588.95817716-1.0242844 1.6463138-1.1619879s1.40242276.0217337 1.9666862.4389879c.90110525.6496802 1.41486354 1.7091423 1.367 2.819-.02082294 1.797663-.90071812 3.476787-2.367 4.517-.27815513.1854732-.44522437.4976789-.44522437.832s.16706924.6465268.44522437.832c2.47293825 1.4156849 5.5050728 1.439563 8 .063 2.19-1.1 4.851-1.193 6.06-.223.5992134.5135402.8088902 1.349441.523 2.085-.236.943-1.172 1.765-2.257 2.718-2.613 2.3-6.191 5.438-1.63 13.04.1933742.3211439.5501185.5071638.924134.4818782.3740155-.0252855.7024761-.2576291.850866-.6018782.108-.249 2.682-6.078 6.71-4.466.8703801.3093402 1.5690642.9727812 1.923 1.826.986 2.372-.456 5.818-.471 5.852-.1244218.2911066-.1036501.6239357.0560009.8973134.1596511.2733778.4393224.455011.7539991.4896866.014 0 .267.027.694.027 5.050525.0456283 9.6279167-2.965273 11.586-7.621.2608165.1209758.5445017.1847368.832.187.5306871.0003939 1.0396166-.2108802 1.414-.587l.586-.586.707.707c.5626237.562719 1.3257625.8788593 2.1215.8788593s1.5588763-.3161403 2.1215-.8788593l.257-.258 3.848 3.856c-.6251089 1.3164097-.2115939 2.8916968.9794855 3.7313547s2.8137177.699768 3.8435145-.3313547l4.243-4.242c.562719-.5626237.8788593-1.3257625.8788593-2.1215s-.3161403-1.5588763-.8788593-2.1215c-.9093181-.8627819-2.2512171-1.0874867-3.392-.568zm-32.829-43.694c1.095-2.738 2.444-3.761 3.772-4.143-.6392272 1.42016824-.4605879 3.07497245.467 4.326 1.0064381 1.4741127 2.7004485 2.32678474 4.484 2.257 1.8631314-.01719921 3.6563523-.71173907 5.045-1.954.3913783 1.58582288.1808039 3.2604411-.591 4.7-1.487 2.973-1.484 6.347.007 8.2.9957392 1.2159188 2.635102 1.6970103 4.13 1.212 1.548-.387 2.66-1.653 3.735-2.877 2.026-2.307 3.949-4.5 8.914-2.1-2.56 1.619-5.333 4.6-3.82 8.381.5082842 1.3723728 1.5674254 2.4695866 2.921 3.026 1.9548198.6411027 4.0636772.6386493 6.017-.007-.2549069 4.1960519-3.0206137 7.8218935-7 9.177l-1.064-1.07c-.7917076-.7554302-2.0372924-.7554302-2.829 0l-2.036 2.037c-1.0376293-1.1879416-1.6661766-2.6778054-1.793-4.25.0077039-.2620653-.0878193-.5166742-.266-.709l-21.887-23.585c.7999079-.71683009 1.4152808-1.61587827 1.794-2.621zm-20.433-3.905 13.488 3.916 25.31 27.274c.2366898 1.9646898 1.0613795 3.8120505 2.366 5.3l-1.631 1.631-23.293-23.295c-.3923789-.3789722-1.0160848-.3735524-1.4018186.0121814s-.3911536 1.0094397-.0121814 1.4018186l23.295 23.293-1.628 1.631c-1.4879495-1.3046205-3.3353102-2.1293102-5.3-2.366l-27.277-25.31zm24.926 55.544c.6456493-1.9533228.6481027-4.0621802.007-6.017-.5565103-1.3546687-1.6545424-2.414625-3.028-2.923-3.782-1.51-6.763 1.261-8.381 3.821-2.4-4.964-.205-6.888 2.1-8.914 1.224-1.076 2.49-2.187 2.877-3.735.4848781-1.4952044.0038428-3.1347726-1.212-4.131-1.858-1.49-5.233-1.492-8.2-.007-1.4397529.7711294-3.11399269.9820124-4.7.592 1.24201169-1.389197 1.93649533-3.1826281 1.954-5.046.06981987-1.7832854-.78289987-3.4770127-2.257-4.483-1.25037802-.9271536-2.90420405-1.1061523-4.324-.468.382-1.328 1.4-2.678 4.143-3.773 1.01042277-.3838341 1.91355017-1.0053559 2.633-1.812l23.575 21.878c.1887886.1838313.4458822.2802867.709.266 1.5716367.1295618 3.0600872.7605583 4.246 1.8l-2.035 2.029c-.375248.375096-.5860729.8839266-.5860729 1.4145s.2108249 1.039404.5860729 1.4145l1.083 1.083c-1.3558206 3.9860602-4.9873608 6.756542-9.19 7.011zm9.523-9.511 11.584-11.583 2.086 2.083-1.808 1.808-8.485 8.485-1.293 1.293zm6.205 2.2-.707-.7 7.071-7.071.707.707c.3903819.3904999.3903819 1.0235001 0 1.414l-5.656 5.657c-.1875683.187777-.4420908.2932867-.7075.2932867s-.5199317-.1055097-.7075-.2932867zm7.328-3.085 3.726 3.718-2.835 2.842-3.718-3.726zm7.258 5.842-4.243 4.243c-.395481.3781625-1.018519.3781625-1.414 0-.3897159-.3903851-.3897159-1.0226149 0-1.413l4.244-4.244c.2510745-.2599566.6228779-.3642126.9725073-.2726972.3496295.0915155.6226744.3645604.7141899.7141899.0915154.3496294-.0127406.7214328-.2726972.9725073z" fill="#000"/><path id="Shape" d="m8.707 7.293c-.25107447-.25995658-.62287789-.3642126-.97250732-.27269716-.34962944.09151544-.6226744.3645604-.71418984.71418984-.09151544.34962943.01274058.72143285.27269716.97250732l6 6c.3923789.3789722 1.0160848.3735524 1.4018186-.0121814s.3911536-1.0094397.0121814-1.4018186z" fill="#000"/></g></g></svg>