<svg height="512" viewBox="0 0 60 60" width="512" xmlns="http://www.w3.org/2000/svg"><g id="Page-1" fill="none" fill-rule="evenodd"><g id="025---Lightening-Sword" fill-rule="nonzero"><rect id="Rectangle-path" fill="#ffeb3a" height="4.946" rx="1" transform="matrix(-.707 .707 -.707 -.707 105.625 43.751)" width="18.385" x="34.559" y="41.278"/><path id="Shape" d="m42.6568778 45.17184h8c1.1045695 0 2 .8954305 2 2v2h-12v-2c0-1.1045695.8954305-2 2-2z" fill="#ffdc00" transform="matrix(-.707 .707 -.707 -.707 113.004 47.536)"/><path id="Shape" d="m46.21 50.45 5.13 5.14 4.25-4.25-5.14-5.13z" fill="#ff9801"/><rect id="Rectangle-path" fill="#ffdc00" height="4" rx="2" transform="matrix(-.707 .707 -.707 -.707 132.489 54.879)" width="10" x="49.878" y="52.879"/><path id="Shape" d="m39 45s-2.828-2.828-5.742-2.742l-27.758-25.758-4.5-15.5 15.5 4.5 25.76 27.76c-.086 2.914 2.74 5.74 2.74 5.74z" fill="#9e9e9e"/><path id="Shape" d="m42.26 33.26-25.76-27.76-15.5-4.5.276.951 12.224 3.549 25.76 27.76c-.086 2.914 2.74 5.74 2.74 5.74l-4.67 4.67c.5946712.3933935 1.1535014.8384499 1.67 1.33l6-6s-2.826-2.826-2.74-5.74z" fill="#707070"/><path id="Shape" d="m27.68 17.55 6.91-5.93-4.54-2.1 14.95-8.52-5.1 8.66 4.54 2.1-6.44 9.24 10.24-6.42 2.03 4.57 8.73-4.97-8.74 14.82-2.03-4.57-7.61 7.06z" fill="#ffdc00"/><path id="Shape" d="m54.484 16.751-5.513 9.348 1.289 2.901 8.74-14.82z" fill="#fec108"/><path id="Shape" d="m40.484 3.573-3.584 6.087 4.54 2.1-6.44 9.24 5.328-3.341 4.112-5.899-4.54-2.1 5.1-8.66z" fill="#fec108"/><path id="Shape" d="m17.55 27.68-5.93 6.91-2.1-4.54-8.52 14.95 8.66-5.1 2.1 4.54 9.24-6.44-6.42 10.24 4.57 2.03-4.97 8.73 14.82-8.74-4.57-2.03 7.06-7.61z" fill="#ffdc00"/><path id="Shape" d="m31.49 40.62-13.94-12.94-1.33 1.55 12.27 11.39-7.06 7.61 4.57 2.03-10.304 6.077-1.516 2.663 14.82-8.74-4.57-2.03z" fill="#fec108"/><g fill="#000"><path id="Shape" d="m55.72 50.057-3.883-3.875c.9343582-1.1888421.8352489-2.88786-.231-3.96l-.707-.707 1.1-1.1c.7807639-.7809997.7807639-2.0470003 0-2.828l-2.082-2.087c-.363238-.3929154-.8803217-.6070575-1.415-.586-.5304648-.0012562-1.0394763.209332-1.414.585l-2.037 2.037c-1.0369028-1.1882997-1.6650411-2.6780251-1.792-4.25.0077039-.2620653-.0878193-.5166742-.266-.709l-.961-1.036 5.853-5.429 1.461 3.291c.1503091.3433039.479955.5737472.854.597.3748048.0245304.7310472-.1658014.919-.491l8.74-14.82c.2301244-.3903455.1690165-.886644-.1489235-1.2095078-.31794-.3228639-.8132408-.3915911-1.2070765-.1674922l-7.77 4.423-1.581-3.56c-.1177501-.2648673-.3446345-.4656102-.6218725-.5502206-.2772379-.0846103-.5775484-.0447622-.8231275.1092206l-6.084 3.814 3.635-5.215c.1693694-.2425946.2226174-.5477369.1454227-.8333575-.0771948-.2856206-.2769068-.5223953-.5454227-.6466425l-3.536-1.637 4.54-7.709c.2298271-.39051201.1683522-.88675544-.1498187-1.20938121-.3181709-.32262577-.8135116-.39099419-1.2071813-.16661879l-14.95 8.52c-.3256812.18525711-.5204754.53703183-.5046755.91138304.0157998.37435121.2395424.70846116.5796755.86561696l3.128 1.447-5 4.289-10.525-11.344c-.1229318-.13303209-.2799415-.22986624-.454-.28l-15.5-4.5c-.35017421-.10157636-.72787909-.00451411-.9856966.2533034s-.35487976.63552239-.2533034.9856966l4.5 15.5c.05013376.1740585.14696791.3310682.28.454l11.344 10.527-4.289 5-1.447-3.13c-.1571558-.3401331-.49126575-.5638757-.86561696-.5796755-.37435121-.0157999-.72612593.1789943-.91138304.5046755l-8.52 14.95c-.2243754.3936697-.15600698.8890104.16661879 1.2071813s.8188692.3796458 1.20938121.1498187l7.709-4.54 1.636 3.538c.1242472.2685159.3610219.4682279.6466425.5454227.2856206.0771947.5907629.0239467.8333575-.1454227l5.215-3.635-3.814 6.084c-.1539828.2455791-.1938309.5458896-.1092206.8231275.0846104.277238.2853533.5041224.5502206.6218725l3.56 1.581-4.423 7.77c-.2240989.3938357-.1553717.8891365.1674922 1.2070765.3228638.31794.8191623.3790479 1.2095078.1489235l14.82-8.74c.3226183-.1899476.5121136-.5441917.491055-.917982s-.2491434-.7045087-.591055-.857018l-3.291-1.462 5.429-5.852 1.036.961c.1882459.1846847.4457297.2812865.709.266 1.5712012.1301183 3.059166.7610575 4.245 1.8l-2.036 2.029c-.375248.375096-.5860729.8839266-.5860729 1.4145s.2108249 1.039404.5860729 1.4145l2.086 2.083c.7809997.7807639 2.0470003.7807639 2.828 0l.586-.586.707.707c.5626237.562719 1.3257625.8788593 2.1215.8788593s1.5588763-.3161403 2.1215-.8788593l.257-.258 3.85 3.858c-.6237938 1.3160302-.2101067 2.8900303.9801499 3.7292822 1.1902565.8392518 2.8117676.7002732 3.8418501-.3292822l4.242-4.242c1.0327605-1.0292883 1.1735157-2.6530178.3332804-3.8446693-.8402354-1.1916514-2.4169218-1.6044101-3.7332804-.9773307zm-20.479-37.678c.2585173-.2215313.3865673-.5593678.3398366-.896597-.0467306-.3372293-.261821-.627516-.5708366-.770403l-2.778-1.284 10-5.7-3.194 5.425c-.1432794.24335885-.1769803.53595425-.0927785.80551421.0842018.26955999.278455.49094989.5347785.60948579l3.458 1.6-5.758 8.26c-.2711937.3898461-.2307983.9166579.0966616 1.2605999.3274599.3439419.8516549.4101382 1.2543384.1584001l9.263-5.807 1.561 3.516c.1146606.2585476.3334437.4564494.6021591.5446871.2687155.0882378.5622292.0585583.8078409-.0816871l5.465-3.112-5.844 9.912-1.241-2.795c-.1311063-.2950514-.3966021-.5086493-.7128841-.5735328-.3162821-.0648834-.6444316.0269315-.8811159.2465328l-6.879 6.381-11.551-12.447zm-11.541 35.171c-.2196013.2366843-.3114162.5648338-.2465328.8811159.0648835.316282.2784814.5817778.5735328.7128841l2.795 1.241-9.915 5.845 3.112-5.465c.1398976-.2455261.1693836-.5387802.0811663-.8072427s-.2859013-.4870681-.5441663-.6017573l-3.516-1.562 5.807-9.263c.2517381-.4026835.1855418-.9268785-.1584001-1.2543384-.343942-.3274599-.8707538-.3678553-1.2605999-.0966616l-8.261 5.758-1.6-3.458c-.1185359-.2563235-.3399258-.4505767-.60948579-.5347785-.26955996-.0842018-.56215536-.0505009-.80551421.0927785l-5.425 3.2 5.7-10 1.284 2.778c.142887.3090156.4331737.524106.770403.5708366.3372292.0467307.6750657-.0813193.896597-.3398366l5.252-6.12 12.448 11.545zm9.96-6.285-27.277-25.31-3.916-13.488 13.488 3.916 25.31 27.274c.2364467 1.9647571 1.0611671 3.8121866 2.366 5.3l-1.631 1.631-23.293-23.295c-.3923789-.3789722-1.0160848-.3735524-1.4018186.0121814s-.3911536 1.0094397-.0121814 1.4018186l23.295 23.293-1.629 1.629c-1.488506-1.3046334-3.336714-2.128693-5.302-2.364zm3.256 7.235 11.584-11.583 2.086 2.083-1.808 1.808-8.485 8.485-1.293 1.293zm6.205 2.2-.707-.7 7.071-7.071.707.707c.3903819.3904999.3903819 1.0235001 0 1.414l-5.656 5.657c-.1875683.187777-.4420908.2932867-.7075.2932867s-.5199317-.1055097-.7075-.2932867zm7.328-3.085 3.726 3.718-2.835 2.841-3.718-3.725zm7.258 5.842-4.242 4.243c-.3952828.3341025-.9801799.3113829-1.3483551-.0523753-.3681752-.3637581-.3979523-.9483384-.0686449-1.3476247l4.246-4.247c.3903851-.3897159 1.0226149-.3897159 1.413 0 .3897159.3903851.3897159 1.0226149 0 1.413z"/><path id="Shape" d="m8.707 7.293c-.25107447-.25995658-.62287789-.3642126-.97250732-.27269716-.34962944.09151544-.6226744.3645604-.71418984.71418984-.09151544.34962943.01274058.72143285.27269716.97250732l6 6c.3923789.3789722 1.0160848.3735524 1.4018186-.0121814s.3911536-1.0094397.0121814-1.4018186z"/></g></g></g></svg>