<svg id="Flat" height="512" viewBox="0 0 340 340" width="512" xmlns="http://www.w3.org/2000/svg" xmlns:xlink="http://www.w3.org/1999/xlink"><linearGradient id="linear-gradient" gradientUnits="userSpaceOnUse" x1="38.746" x2="118.399" y1="36.076" y2="184.666"><stop offset="0" stop-color="#ffa7b4"/><stop offset="1" stop-color="#ed7784"/></linearGradient><linearGradient id="linear-gradient-2" gradientUnits="userSpaceOnUse" x1="52.023" x2="211.103" y1="57.978" y2="297.215"><stop offset="0" stop-color="#d16471"/><stop offset="1" stop-color="#b54e5b"/></linearGradient><linearGradient id="linear-gradient-3" x1="70.069" x2="229.149" xlink:href="#linear-gradient-2" y1="45.978" y2="285.215"/><linearGradient id="linear-gradient-4" x1="48.369" x2="207.449" xlink:href="#linear-gradient-2" y1="60.408" y2="299.644"/><linearGradient id="linear-gradient-5" x1="51.614" x2="111.052" xlink:href="#linear-gradient" y1="155.316" y2="235.461"/><linearGradient id="linear-gradient-6" x1="13.654" x2="169.658" xlink:href="#linear-gradient-2" y1="86.711" y2="321.322"/><linearGradient id="linear-gradient-7" gradientUnits="userSpaceOnUse" x1="244.008" x2="218.202" y1="124.257" y2="256.051"><stop offset="0" stop-color="#bac7fa"/><stop offset="1" stop-color="#e8f1ff"/></linearGradient><linearGradient id="linear-gradient-8" gradientUnits="userSpaceOnUse" x1="215.399" x2="254.286" y1="311.617" y2="114.068"><stop offset="0" stop-color="#b9c9fa"/><stop offset="1" stop-color="#7280ba"/></linearGradient><linearGradient id="New_Gradient_Swatch_19" gradientTransform="matrix(.925 -.38 .38 .925 -15.052 110.63)" gradientUnits="userSpaceOnUse" x1="280.748" x2="267.618" y1="20.443" y2="137.845"><stop offset="0" stop-color="#7378aa"/><stop offset="1" stop-color="#44497d"/></linearGradient><linearGradient id="linear-gradient-9" gradientTransform="matrix(.38 .925 -.925 .38 220.75 -245.887)" gradientUnits="userSpaceOnUse" x1="279.469" x2="308.87" y1=".068" y2="85.445"><stop offset="0" stop-color="#fc908b"/><stop offset="1" stop-color="#ea5936"/></linearGradient><linearGradient id="linear-gradient-10" gradientUnits="userSpaceOnUse" x1="180.34" x2="251.099" y1="124.394" y2="135.942"><stop offset="0" stop-color="#ffa753"/><stop offset="1" stop-color="#ffd3ac"/></linearGradient><linearGradient id="linear-gradient-11" x1="328.142" x2="269.481" xlink:href="#linear-gradient-9" y1="182.724" y2="152.111"/><path d="m113.984 136.059c3.713-29.146 4.1-55.748-12.3-69.52 0 0-14.29-25.844-48.951 7.905a65.406 65.406 0 0 0 -18.123-3.666c-16.713-.619-22.416 22.042-7.4 29.4a60.727 60.727 0 0 0 14.2 4.717 57.589 57.589 0 0 1 24.035 10.846c7.741 6.143 15.282 15.457 15.861 28.631z" fill="url(#linear-gradient)"/><path d="m79.433 91.989c-1.153-7.307-4.7-20.312-15.536-26.955a92.43 92.43 0 0 0 -11.169 9.41s15.211 7.387 24.272 18.614a1.375 1.375 0 0 0 2.433-1.069z" fill="url(#linear-gradient-2)"/><path d="m87.289 143.093 41.146-8.81a95.164 95.164 0 0 1 9.143-42.2 17.532 17.532 0 0 0 -8.655-23.8c-6.674-2.912-15.67-4.462-27.244-1.745 0 .001 21.444 55.962-14.39 76.555z" fill="url(#linear-gradient-3)"/><path d="m142.821 156.878s9.029-26.229-19.349-28.809-68.8 10.75-47.3 36.979z" fill="url(#linear-gradient-4)"/><path d="m74.283 162.543c-20.96 12.626-43.765 35.443-51.642 76.267a72.416 72.416 0 0 0 -1.009 20.855c44.458 54.368 122.554 15.45 140.3-55.748 5.905-16.555 3.707-33.2-3.924-49.916-27.485-10.243-58.337-6.75-83.725 8.542z" fill="url(#linear-gradient-5)"/><path d="m187.583 177.973a6.309 6.309 0 0 0 -1.592-7.612 96.215 96.215 0 0 0 -21.406-13.614c-2.167-1.006-4.364-1.909-6.579-2.735 3.42 29.392 2.215 95.028-70.987 117.638-30.019 9.272-50.919 1.586-65.368-11.987.157 1.583.35 3.162.617 4.734q.133.777.285 1.579c6.446 34 36.535 58.389 71.141 58.389h53.186a37.685 37.685 0 0 0 6.5-.564 5.56 5.56 0 0 0 4.436-6.648c-10.795-50.182 19.197-117.6 29.767-139.18z" fill="url(#linear-gradient-6)"/><path d="m222.132 135.594-35.132 85.483c-19.1 46.483-13.043 86.538-10.329 99.159a3.026 3.026 0 0 0 4.62 1.9c10.805-7.066 43.279-31.283 62.383-77.767l35.131-85.482z" fill="url(#linear-gradient-7)"/><path d="m278.806 158.886-24.306-9.986-8.054-3.31-24.309-9.991-10.414 25.339 22.154 15.235-47.294 115.08a4.353 4.353 0 1 0 8.053 3.31l46.581-113.343 22.155 15.235z" fill="url(#linear-gradient-8)"/><path d="m257.009 51.449h31.154v83.954h-31.154z" fill="url(#New_Gradient_Swatch_19)" transform="matrix(.925 .38 -.38 .925 55.975 -96.604)"/><ellipse cx="293.823" cy="41.751" fill="url(#linear-gradient-9)" rx="25.784" ry="27.959" transform="matrix(.38 -.925 .925 .38 143.516 297.647)"/><path d="m257.833 129.323-41.3-16.973s-17.433-8.783-27.6 3.157a20.862 20.862 0 0 0 -4.9 12.984c-.139 5.5 1.614 13.1 11.128 17.006a18.247 18.247 0 0 0 17.642-1.708 15.129 15.129 0 0 1 13.967-1.158l21.9 9c5.078-6.258 7.983-13.782 9.163-22.308z" fill="url(#linear-gradient-10)"/><path d="m279.68 171.275a18.246 18.246 0 0 0 11.341 13.62c9.515 3.91 16.1-.256 19.872-4.267a20.865 20.865 0 0 0 5.644-12.678c1.167-15.64-17.4-21.654-17.4-21.654l-41.3-16.973-9.168 22.308 21.9 9a15.131 15.131 0 0 1 9.111 10.644z" fill="url(#linear-gradient-11)"/></svg>