<svg id="Capa_1" enable-background="new 0 0 512 512" height="512" viewBox="0 0 512 512" width="512" xmlns="http://www.w3.org/2000/svg"><g><g><path d="m440.582 246.323h-369.035c-4.175 19.852-8.505 36.862-10.883 57.425-4.603 39.79 8.731 77.119 34.819 94.722 7.224 4.874 16.86-.939 15.972-9.609l-2.451-23.916s10.839 74.792 147.061 74.792 147.061-74.792 147.061-74.792l-2.451 23.916c-.889 8.67 8.747 14.483 15.972 9.609 26.089-17.603 39.422-54.931 34.819-94.722-2.38-20.563-6.71-37.573-10.884-57.425z" fill="#81d9e7"/></g><g><path d="m417.534 491.364c-10.047-80.307-78.564-142.44-161.594-142.44s-151.548 62.133-161.594 142.44c-1.357 10.844 7.12 20.422 18.049 20.422h25.337l118.209-25.922 118.313 25.922h25.233c10.927 0 19.404-9.578 18.047-20.422z" fill="#ffddcf"/></g><g><path d="m137.731 511.786 28.818-6.319c-3.182-3.721-4.887-8.71-4.223-14.017 8.645-69.103 60.584-124.746 127.809-138.928-11.026-2.356-22.466-3.598-34.195-3.598-83.03 0-151.548 62.133-161.594 142.44-1.357 10.844 7.12 20.422 18.049 20.422z" fill="#ffcbbe"/></g><g><path d="m360.711 387.102c-7.13-5.998-14.778-11.4-22.873-16.119-1.837-.46-3.656-.909-5.435-1.339h-152.822c-1.836.443-3.715.907-5.613 1.383-8.028 4.685-15.615 10.043-22.693 15.986-.84 28.024-4.789 54.753-8.925 75.822-1.025 5.224-2.464 10.35-4.025 15.439-2.856 9.306-3.539 19.589-1.417 30.043.328 1.616.634 2.794.823 3.468h236.521c.189-.674.496-1.852.824-3.468 2.121-10.454 1.438-20.737-1.418-30.043-1.561-5.088-2.999-10.213-4.024-15.436-4.131-21.046-8.077-47.742-8.923-75.736z" fill="#fcf5af"/></g><g><path d="m290.8 371.374h-69.223c-.771.128-13.426 2.245-29.293 5.733v.001c0 35.908 7.906 67.296 21.204 92.019l41.546 14.935 43.854-14.935c13.298-24.723 21.204-56.11 21.204-92.019v-.001c-15.867-3.488-28.522-5.605-29.292-5.733z" fill="#ffddcf"/></g><g><path d="m298.888 469.126h-85.4c8.595 15.98 19.437 29.183 31.874 38.998 6.331 4.996 15.321 4.996 21.652 0 12.437-9.815 23.279-23.018 31.874-38.998z" fill="#ffca8b"/></g><g><path d="m341.427 64.332c28.605-30.363 76.957-30.939 105.835-.836 28.751 29.969 47.29 77.156 47.29 130.232 0 1.651-.023 3.295-.059 4.935.023 57.752.67 103.089 16.037 136.507 4.868 10.586-2.952 22.535-14.604 22.532-67.34-.022-121.923-54.619-121.923-121.963v-141.425z" fill="#3ccbde"/></g><g><path d="m170.573 64.332c-28.604-30.362-76.956-30.938-105.835-.836-28.751 29.969-47.29 77.156-47.29 130.232 0 1.651.023 3.295.059 4.935-.023 57.752-.67 103.089-16.037 136.507-4.868 10.586 2.952 22.535 14.604 22.532 67.34-.022 121.923-54.619 121.923-121.963v-141.425z" fill="#3ccbde"/></g><g><path d="m422.477 260.743c8.139-21.75 12.619-45.47 12.619-70.304 0-105.106-80.155-190.311-179.032-190.311s-179.032 85.205-179.032 190.311c0 24.834 4.48 48.554 12.619 70.304z" fill="#b5e9f1"/></g><g><path d="m302.835 6.703c-14.911-4.279-30.587-6.575-46.771-6.575-98.877 0-179.032 85.205-179.032 190.311 0 24.834 4.48 48.554 12.619 70.304h93.541c-8.139-21.75-12.619-45.47-12.619-70.304 0-87.903 56.07-161.873 132.262-183.736z" fill="#81d9e7"/></g><g><circle cx="93.791" cy="249.433" fill="#ffcbbe" r="43.127"/></g><g><circle cx="418.337" cy="249.433" fill="#ffcbbe" r="43.127"/></g><g><ellipse cx="255.94" cy="371.245" fill="#687daa" rx="105.318" ry="59.195"/></g><g><path d="m196.324 403.89c0-9.3 5.411-17.335 13.257-21.131v-64.677c-34.919 9.638-58.959 29.821-58.959 53.163 0 22.836 23.009 42.648 56.704 52.521-6.607-4.15-11.002-11.498-11.002-19.876z" fill="#4a66a0"/></g><g><path d="m374.807 197.036c-39.303 0-74.387-17.81-97.428-45.698-11.142-13.486-31.591-13.486-42.733 0-23.041 27.888-58.125 45.698-97.428 45.698-7.313 0-14.478-.619-21.448-1.805-7.127-1.212-13.893 3.532-15.209 10.64-1.818 9.82-2.731 19.958-2.64 30.326.765 87.415 73.276 158.074 160.683 156.669 86.119-1.384 155.506-71.628 155.506-158.077 0-9.891-.912-19.567-2.653-28.954-1.315-7.094-8.09-11.814-15.203-10.605-6.969 1.187-14.135 1.806-21.447 1.806z" fill="#ffddcf"/></g><g><g><path d="m167.862 222.997c-.091-10.368.821-20.506 2.64-30.326.003-.016.008-.031.011-.047-10.605 2.87-21.767 4.413-33.295 4.413-7.313 0-14.478-.619-21.448-1.805-7.127-1.212-13.893 3.532-15.209 10.641-1.818 9.82-2.731 19.958-2.64 30.326.765 87.415 73.276 158.074 160.683 156.669 21.692-.349 42.32-5.07 61.047-13.315-83.378-3.333-151.051-72.125-151.789-156.556z" fill="#ffcbbe"/></g></g><g><g><g><g><ellipse cx="170.673" cy="270.958" fill="#ffa1ac" rx="31.462" ry="25.055"/></g></g><g><g><path d="m309.745 270.958c0 13.837 14.086 25.055 31.461 25.055 3.406 0 6.686-.431 9.759-1.229 12.599-3.27 21.703-12.701 21.703-23.826 0-13.837-14.086-25.054-31.462-25.054-17.375 0-31.461 11.217-31.461 25.054z" fill="#ffa1ac"/></g></g></g><g><path d="m189.009 254.34c-4.142 0-7.5-3.357-7.5-7.5v-12.861c0-4.143 3.358-7.5 7.5-7.5s7.5 3.357 7.5 7.5v12.861c0 4.142-3.358 7.5-7.5 7.5z" fill="#303646"/></g><g><path d="m322.87 254.34c-4.142 0-7.5-3.357-7.5-7.5v-12.861c0-4.143 3.358-7.5 7.5-7.5s7.5 3.357 7.5 7.5v12.861c0 4.142-3.358 7.5-7.5 7.5z" fill="#303646"/></g><g><path d="m255.94 261.996c-8.931 0-17.423-3.868-23.3-10.612-2.721-3.122-2.396-7.86.727-10.581 3.122-2.722 7.86-2.396 10.582.728 3.027 3.474 7.398 5.466 11.991 5.466 4.594 0 8.964-1.992 11.992-5.466 2.721-3.124 7.458-3.449 10.582-.728 3.123 2.721 3.448 7.459.727 10.581-5.878 6.744-14.37 10.612-23.301 10.612z" fill="#303646"/></g></g><g><path d="m285.471 409.959c0 16.309-13.221 29.531-29.531 29.531-16.309 0-29.531-13.221-29.531-29.531 0-16.309 13.221-29.531 29.531-29.531 16.309 0 29.531 13.222 29.531 29.531" fill="#e9efff"/></g><g><path d="m253.142 409.959c0-11.497 6.574-21.452 16.164-26.33-4.014-2.042-8.554-3.201-13.366-3.201-16.309 0-29.531 13.221-29.531 29.531 0 16.309 13.221 29.531 29.531 29.531 4.813 0 9.352-1.159 13.366-3.201-9.59-4.878-16.164-14.833-16.164-26.33z" fill="#dae2fe"/></g></g></svg>