<?xml version="1.0" encoding="UTF-8"?>
<svg width="200px" height="150px" viewBox="0 0 200 150" version="1.1" xmlns="http://www.w3.org/2000/svg" xmlns:xlink="http://www.w3.org/1999/xlink">
    <title>Compendium Introduction</title>
    <g stroke="none" stroke-width="1" fill="none" fill-rule="evenodd">
        <path d="M25,30 L175,30 C181.627,30 187,35.373 187,42 L187,108 C187,114.627 181.627,120 175,120 L25,120 C18.373,120 13,114.627 13,108 L13,42 C13,35.373 18.373,30 25,30 Z" stroke="#4F86C6" stroke-width="4" fill="#DEECFF"/>
        <rect x="30" y="50" width="140" height="10" rx="2" fill="#4F86C6"/>
        <rect x="30" y="70" width="100" height="10" rx="2" fill="#4F86C6"/>
        <rect x="30" y="90" width="120" height="10" rx="2" fill="#4F86C6"/>
        <path d="M160,75 L180,75 L180,95 L170,85 L160,95 L160,75 Z" fill="#FF9800"/>
    </g>
</svg>