<svg id="Capa_1" enable-background="new 0 0 511.978 511.978" height="512" viewBox="0 0 511.978 511.978" width="512" xmlns="http://www.w3.org/2000/svg"><g><g><path d="m496.639 249.767c0-1.659-3.266-6.998-5.75-9.754-1.499-.483-3.094-.75-4.754-.75-8.562 0-15.504 6.941-15.504 15.504 0 1.659.267 3.255.75 4.754 3.197 3.453 8.095 5.75 9.754 5.75 8.563 0 15.504-6.942 15.504-15.504z" fill="#f4daa7"/><path d="m490.889 240.013c.483 1.499.75 3.094.75 4.754 0 8.563-6.941 15.504-15.504 15.504-1.659 0-3.255-.267-4.754-.75 2.008 6.236 7.851 10.75 14.754 10.75 8.562 0 15.504-6.941 15.504-15.504 0-6.903-4.514-12.746-10.75-14.754z" fill="#f1cd88"/><path d="m60.679 227.478c-5.892 0-10 44.675-14.495 49.17s-35.844 8.701-35.844 14.593 31.349 10.098 35.844 14.593 8.604 49.17 14.495 49.17 10-44.675 14.496-49.17c4.495-4.495 35.844-8.701 35.844-14.593s-31.349-10.098-35.844-14.593c-4.496-4.495-8.605-49.17-14.496-49.17z" fill="#f4daa7"/><path d="m440.679 287.478c-5.892 0-10 44.675-14.495 49.17s-35.844 8.701-35.844 14.593 31.349 10.098 35.844 14.593 8.604 49.17 14.495 49.17 10-44.675 14.496-49.17c4.495-4.495 35.844-8.701 35.844-14.593s-31.349-10.098-35.844-14.593c-4.496-4.495-8.605-49.17-14.496-49.17z" fill="#f4daa7"/><path d="m341.331 152.227 68.744-6.001 2.862-17.606-141.997-117.69c-5.491-4.551-13.428-4.607-18.982-.132l-147.404 118.747c-2.363 1.904-3.926 4.219-4.791 6.68l67.719 20.001v27.231l163.187 15.577z" fill="#ccf49f"/><path d="m99.762 136.225c-3.171 9.016 3.083 20.001 14.201 20.001h53.517v-12.501c0-4.142-3.358-7.5-7.5-7.5z" fill="#b3e59f"/><path d="m414.214 129.678-1.277-1.059c.019 3.852-2.905 7.606-7.495 7.606h-67.746c-4.142 0-7.5 3.358-7.5 7.5v32.232c0 4.142-3.358 7.5-7.5 7.5h-155.215v12.501c0 4.142 3.358 7.5 7.5 7.5h167.716c4.142 0 7.5-3.358 7.5-7.5v-39.732h54.444c14.049 0 20.389-17.582 9.573-26.548z" fill="#b3e59f"/><path d="m349.475 472.291-19.278-72.812h-155.216c-4.142 0-7.5 3.358-7.5 7.5v77.499l140.092 17.56z" fill="#ccf49f"/><path d="m342.697 399.478h-12.501v77.499c0 4.142-3.358 7.5-7.5 7.5h-155.215v5.001c0 8.284 6.716 15 15 15h152.716c8.284 0 15-6.716 15-15v-82.5c0-4.142-3.357-7.5-7.5-7.5z" fill="#b3e59f"/><path d="m123.047 218.565c0-1.659-3.266-6.998-5.75-9.754-1.499-.483-3.094-.75-4.754-.75-8.562 0-15.504 6.941-15.504 15.504 0 1.659.267 3.255.75 4.754 3.197 3.453 8.095 5.75 9.754 5.75 8.562 0 15.504-6.941 15.504-15.504z" fill="#f4daa7"/><path d="m117.297 208.811c.483 1.499.75 3.094.75 4.754 0 8.563-6.941 15.504-15.504 15.504-1.659 0-3.255-.267-4.754-.75 2.008 6.236 7.851 10.75 14.754 10.75 8.562 0 15.504-6.941 15.504-15.504 0-6.903-4.515-12.746-10.75-14.754z" fill="#f1cd88"/></g><g><path d="m425.807 148.857c3.257-9.032.585-18.828-6.808-24.955l-60.676-50.29c-3.188-2.643-7.916-2.201-10.561.988-2.644 3.189-2.201 7.917.988 10.561l60.676 50.29c3.764 3.12 2.688 7.155 2.27 8.318-.42 1.163-2.167 4.956-7.056 4.956h-54.443c-4.143 0-7.5 3.358-7.5 7.5v39.732h-167.716v-39.732c0-4.142-3.357-7.5-7.5-7.5h-53.518c-4.925 0-6.658-3.831-7.072-5.005s-1.468-5.246 2.367-8.335l147.406-118.747c2.765-2.227 6.757-2.2 9.49.066l58.548 48.525c3.188 2.643 7.916 2.201 10.561-.988 2.644-3.189 2.201-7.917-.988-10.561l-58.549-48.525c-8.203-6.798-20.176-6.882-28.473-.198l-147.405 118.748c-7.532 6.068-10.32 15.884-7.104 25.006 3.218 9.122 11.546 15.016 21.219 15.016h46.018v32.232c0 8.271 6.729 15 15 15h167.717c8.271 0 15-6.729 15-15v-32.232h46.943c9.602-.001 17.909-5.837 21.166-14.87z"/><path d="m118.518 291.241c0-9.099-10.68-12.026-25.462-16.077-4.033-1.105-9.904-2.714-12.284-3.801-1.201-3.197-2.938-12.083-4.122-18.147-4.186-21.432-6.491-33.238-15.972-33.238s-11.786 11.806-15.972 33.238c-1.185 6.063-2.92 14.95-4.121 18.147-2.38 1.087-8.251 2.695-12.284 3.801-14.782 4.051-25.462 6.978-25.462 16.077s10.68 12.026 25.462 16.077c4.033 1.105 9.904 2.714 12.284 3.801 1.201 3.197 2.937 12.083 4.121 18.147 4.186 21.432 6.491 33.238 15.972 33.238s11.786-11.806 15.972-33.238c1.185-6.064 2.921-14.95 4.122-18.147 2.38-1.087 8.251-2.695 12.284-3.801 14.782-4.051 25.462-6.978 25.462-16.077zm-48.647 9.29c-3.299 3.299-4.721 9.365-7.942 25.859-.365 1.87-.79 4.048-1.25 6.31-.459-2.262-.885-4.439-1.25-6.31-3.221-16.495-4.643-22.561-7.941-25.86-3.176-3.175-8.774-4.817-19.221-7.68-1.672-.458-3.703-1.015-5.757-1.61 2.054-.595 4.085-1.152 5.757-1.61 10.446-2.863 16.045-4.504 19.221-7.68 3.299-3.299 4.721-9.365 7.941-25.86.365-1.87.791-4.047 1.25-6.31.46 2.262.885 4.44 1.25 6.31 3.222 16.494 4.644 22.56 7.942 25.859 3.176 3.175 8.774 4.817 19.221 7.68 1.672.458 3.703 1.015 5.757 1.61-2.054.595-4.085 1.152-5.757 1.61-10.447 2.865-16.046 4.506-19.221 7.682z"/><path d="m473.056 335.164c-4.033-1.105-9.904-2.714-12.284-3.801-1.201-3.197-2.938-12.083-4.122-18.147-4.186-21.432-6.491-33.238-15.972-33.238s-11.786 11.806-15.972 33.238c-1.185 6.063-2.92 14.95-4.121 18.147-2.38 1.087-8.251 2.695-12.284 3.801-14.782 4.051-25.462 6.978-25.462 16.077s10.68 12.026 25.462 16.077c4.033 1.105 9.904 2.714 12.284 3.801 1.201 3.197 2.937 12.083 4.121 18.147 4.186 21.432 6.491 33.238 15.972 33.238s11.786-11.806 15.972-33.238c1.185-6.064 2.921-14.95 4.122-18.147 2.38-1.087 8.251-2.695 12.284-3.801 14.782-4.051 25.462-6.978 25.462-16.077s-10.68-12.026-25.462-16.077zm-3.965 17.687c-10.446 2.863-16.045 4.504-19.221 7.68-3.299 3.299-4.721 9.365-7.942 25.859-.365 1.87-.79 4.048-1.25 6.31-.459-2.262-.885-4.439-1.25-6.31-3.221-16.495-4.643-22.561-7.941-25.86-3.176-3.175-8.774-4.817-19.221-7.68-1.672-.458-3.703-1.015-5.757-1.61 2.054-.595 4.085-1.152 5.757-1.61 10.446-2.863 16.045-4.504 19.221-7.68 3.299-3.299 4.721-9.365 7.941-25.86.365-1.87.791-4.047 1.25-6.31.46 2.262.885 4.44 1.25 6.31 3.222 16.494 4.644 22.56 7.942 25.859 3.176 3.175 8.774 4.817 19.221 7.68 1.672.458 3.703 1.015 5.757 1.61-2.054.597-4.085 1.154-5.757 1.612z"/><path d="m137.039 366.002h-10.859v-15.756c0-4.142-3.357-7.5-7.5-7.5s-7.5 3.358-7.5 7.5v15.756h-10.86c-4.143 0-7.5 3.358-7.5 7.5s3.357 7.5 7.5 7.5h10.86v15.756c0 4.142 3.357 7.5 7.5 7.5s7.5-3.358 7.5-7.5v-15.756h10.859c4.143 0 7.5-3.358 7.5-7.5s-3.358-7.5-7.5-7.5z"/><path d="m424.69 203.458c0-4.142-3.357-7.5-7.5-7.5s-7.5 3.358-7.5 7.5v15.756h-10.859c-4.143 0-7.5 3.358-7.5 7.5s3.357 7.5 7.5 7.5h10.859v15.755c0 4.142 3.357 7.5 7.5 7.5s7.5-3.358 7.5-7.5v-15.755h10.86c4.143 0 7.5-3.358 7.5-7.5s-3.357-7.5-7.5-7.5h-10.86z"/><path d="m112.543 246.569c12.685 0 23.004-10.319 23.004-23.004s-10.319-23.004-23.004-23.004-23.003 10.32-23.003 23.004 10.319 23.004 23.003 23.004zm0-31.008c4.413 0 8.004 3.59 8.004 8.004s-3.591 8.004-8.004 8.004-8.004-3.59-8.004-8.004 3.591-8.004 8.004-8.004z"/><path d="m486.135 231.764c-12.685 0-23.004 10.319-23.004 23.003 0 12.685 10.319 23.004 23.004 23.004s23.004-10.319 23.004-23.004c0-12.684-10.319-23.003-23.004-23.003zm0 31.007c-4.413 0-8.004-3.59-8.004-8.004 0-4.413 3.591-8.003 8.004-8.003s8.004 3.59 8.004 8.003c0 4.414-3.591 8.004-8.004 8.004z"/><path d="m342.698 391.978h-118.135c-4.143 0-7.5 3.358-7.5 7.5s3.357 7.5 7.5 7.5h118.135v82.5c0 4.136-3.364 7.5-7.5 7.5h-152.717c-4.136 0-7.5-3.364-7.5-7.5v-82.5h19.58c4.143 0 7.5-3.358 7.5-7.5s-3.357-7.5-7.5-7.5h-19.58c-8.271 0-15 6.729-15 15v82.5c0 12.407 10.094 22.5 22.5 22.5h152.717c12.406 0 22.5-10.093 22.5-22.5v-82.5c0-8.271-6.729-15-15-15z"/><path d="m162.596 360.61c1.313.925 2.82 1.369 4.312 1.369 2.357 0 4.678-1.108 6.138-3.181l33.862-48.067 33.811 48.063c1.46 2.076 3.781 3.185 6.141 3.185 1.49 0 2.996-.443 4.309-1.366 3.388-2.383 4.202-7.062 1.818-10.45l-36.903-52.458 31.651-44.928c2.386-3.386 1.575-8.065-1.812-10.451-3.389-2.386-8.066-1.573-10.45 1.812l-28.556 40.536-28.513-40.532c-2.382-3.386-7.059-4.202-10.449-1.819-3.388 2.383-4.202 7.062-1.818 10.45l31.605 44.926-36.956 52.459c-2.387 3.387-1.577 8.066 1.81 10.452z"/><path d="m319.693 240.958h-29.521c-1.993 0-3.904.793-5.312 2.205-1.402 1.406-2.188 3.311-2.187 5.295h-.001v106.021c0 4.142 3.357 7.5 7.5 7.5s7.5-3.358 7.5-7.5v-38.593c6.907-.039 16.978-.09 22.021-.09 20.956 0 38.005-16.786 38.005-37.419s-17.049-37.419-38.005-37.419zm0 59.838c-5.014 0-14.941.05-21.858.088-.038-7.094-.089-17.394-.089-22.507 0-4.307-.029-15.046-.051-22.419h21.998c12.47 0 23.005 10.267 23.005 22.419s-10.535 22.419-23.005 22.419z"/><circle cx="471.313" cy="179.279" r="7.5"/><circle cx="50.052" cy="181.298" r="7.5"/><circle cx="398.313" cy="419.796" r="7.5"/></g></g></svg>