<svg height="512" viewBox="0 0 500 500" width="512" xmlns="http://www.w3.org/2000/svg" xmlns:xlink="http://www.w3.org/1999/xlink"><linearGradient id="linear-gradient" gradientUnits="userSpaceOnUse" x1="154.385" x2="154.385" y1="465.226" y2="41.214"><stop offset="0" stop-color="#9dd6f4"/><stop offset=".204" stop-color="#78bae9"/><stop offset=".407" stop-color="#5ba4e1"/><stop offset=".609" stop-color="#4794db"/><stop offset=".808" stop-color="#3a8ad7"/><stop offset="1" stop-color="#3687d6"/></linearGradient><linearGradient id="linear-gradient-2" gradientUnits="userSpaceOnUse" x1="183.43" x2="183.43" y1="454.315" y2="264.55"><stop offset=".074" stop-color="#91cdf0"/><stop offset=".299" stop-color="#70acd7"/><stop offset=".606" stop-color="#4a84ba"/><stop offset=".85" stop-color="#326ca9"/><stop offset="1" stop-color="#2963a2"/></linearGradient><linearGradient id="linear-gradient-3" gradientUnits="userSpaceOnUse" x1="275" x2="275" y1="487.936" y2="234.33"><stop offset=".012" stop-color="#373e6c"/><stop offset=".066" stop-color="#3f4775"/><stop offset=".227" stop-color="#525a89"/><stop offset=".41" stop-color="#5f6897"/><stop offset=".631" stop-color="#67719f"/><stop offset="1" stop-color="#6973a2"/></linearGradient><linearGradient id="linear-gradient-4" gradientUnits="userSpaceOnUse" x1="183.592" x2="144.528" y1="153.724" y2="98.32"><stop offset=".089" stop-color="#fdda47"/><stop offset=".977" stop-color="#faeacb"/></linearGradient><linearGradient id="linear-gradient-5" gradientTransform="matrix(.959 -.282 .282 .959 -17.058 81.824)" gradientUnits="userSpaceOnUse" x1="293.5" x2="262.351" y1="33.613" y2="147.485"><stop offset=".457" stop-color="#f9616c"/><stop offset=".61" stop-color="#f45d6a"/><stop offset=".793" stop-color="#e55064"/><stop offset=".991" stop-color="#cd3a5a"/><stop offset="1" stop-color="#cc3959"/></linearGradient><linearGradient id="linear-gradient-6" gradientUnits="userSpaceOnUse" x1="389.04" x2="367.082" y1="100.971" y2="166.843"><stop offset=".152" stop-color="#3d77e0"/><stop offset=".182" stop-color="#407ae2"/><stop offset=".518" stop-color="#5f97f1"/><stop offset=".802" stop-color="#72a9fa"/><stop offset="1" stop-color="#79affd"/></linearGradient><g id="flat_copy" data-name="flat copy"><path d="m275.01 54.64c-.094 2.31.175 391.147-.09 393.174a35.019 35.019 0 0 1 -34.91 32.546h-171.28a35.069 35.069 0 0 1 -35-35v-390.72a35 35 0 0 1 35-35h171.28a34.99 34.99 0 0 1 35 35z" fill="url(#linear-gradient)"/><path d="m275.01 264.55v130.72h-75.54a19.437 19.437 0 0 0 -16.52 9.06 177.728 177.728 0 0 1 -37.16 42.26 32.9 32.9 0 0 1 -10.28 5.88c-.18.06-.35.12-.53.18-19.38 6.48-39.92-6.68-42.66-26.94a61.445 61.445 0 0 1 .89-20.23c8.77-44.95 29.51-89.06 65.82-132.08a25 25 0 0 1 19.1-8.85z" fill="url(#linear-gradient-2)"/><path d="m240.014 13.14h-171.28a41.545 41.545 0 0 0 -41.5 41.5v390.72a41.551 41.551 0 0 0 41.5 41.5h171.28a41.57 41.57 0 0 0 41.44-39.15c.04-.78.06-1.56.06-2.35v-390.72a41.545 41.545 0 0 0 -41.5-41.5zm28.5 432.22a22.834 22.834 0 0 1 -.11 2.35 28.515 28.515 0 0 1 -28.39 26.15h-171.28a28.539 28.539 0 0 1 -28.5-28.5v-390.72a28.532 28.532 0 0 1 28.5-28.5h28.16l6.68 16.64a15.021 15.021 0 0 0 13.92 9.41h75.3a15 15 0 0 0 13.92-9.41l6.68-16.64h26.62a28.526 28.526 0 0 1 28.5 28.5z" fill="#3c3c5d"/><path d="m419.638 381.511c-8.762-44.95-29.5-89.061-65.82-132.081a24.994 24.994 0 0 0 -19.1-8.856h-119.439a24.994 24.994 0 0 0 -19.1 8.856c-36.318 43.02-57.058 87.131-65.82 132.081a61.248 61.248 0 0 0 -.894 20.225c2.742 20.259 23.277 33.426 42.663 26.937.175-.058.35-.118.524-.178a32.745 32.745 0 0 0 10.282-5.877 177.568 177.568 0 0 0 37.166-42.258 19.433 19.433 0 0 1 16.525-9.062h76.758a19.433 19.433 0 0 1 16.517 9.062 177.568 177.568 0 0 0 37.159 42.258 32.745 32.745 0 0 0 10.282 5.877c.174.06.349.12.524.178 19.386 6.489 39.921-6.678 42.663-26.937a61.248 61.248 0 0 0 -.89-20.225z" fill="url(#linear-gradient-3)"/><g fill="#f7f7f7"><path d="m247.021 300.058h-10.058a5 5 0 0 1 -5-5v-10.058a5 5 0 0 0 -5-5h-13.075a5 5 0 0 0 -5 5v10.058a5 5 0 0 1 -5 5h-10.058a5 5 0 0 0 -5 5v13.076a5 5 0 0 0 5 5h10.058a5 5 0 0 1 5 5v10.058a5 5 0 0 0 5 5h13.075a5 5 0 0 0 5-5v-10.058a5 5 0 0 1 5-5h10.058a5 5 0 0 0 5-5v-13.076a5 5 0 0 0 -5-5z"/><circle cx="331.234" cy="288.278" r="12.044"/><circle cx="331.234" cy="337.084" r="12.044"/><circle cx="306.831" cy="312.681" r="12.044"/><circle cx="355.637" cy="312.681" r="12.044"/></g><circle cx="168.276" cy="132.001" fill="url(#linear-gradient-4)" r="29.106"/><rect fill="url(#linear-gradient-5)" height="51.34" rx="6" transform="matrix(.959 .282 -.282 .959 39.47 -73.676)" width="51.34" x="249.647" y="74.415"/><path d="m380.587 155.266-5.8-6.42a5 5 0 0 0 -4.369-1.6l-8.579 1.142a5 5 0 0 1 -5-7.447l4.312-7.5a5 5 0 0 0 .174-4.65l-3.737-7.806a5 5 0 0 1 5.539-7.052l8.469 1.782a5 5 0 0 0 4.476-1.271l6.27-5.967a5 5 0 0 1 8.418 3.089l.923 8.605a5 5 0 0 0 2.592 3.865l7.612 4.118a5 5 0 0 1 -.336 8.961l-7.9 3.537a5 5 0 0 0 -2.875 3.659l-1.564 8.513a5 5 0 0 1 -8.625 2.442z" fill="url(#linear-gradient-6)"/><path d="m311.363 220.461h-.226a6.486 6.486 0 0 1 -6.274-6.67c.035-1.188 1.178-29.354 29.264-51.659a6.5 6.5 0 1 1 8.084 10.18c-23.162 18.4-24.316 40.943-24.355 41.894a6.515 6.515 0 0 1 -6.493 6.255z" fill="#181926"/><path d="m234.123 220.479a6.5 6.5 0 0 1 -6.492-6.281c-.042-1.018-1.23-23.523-24.355-41.889a6.5 6.5 0 0 1 8.084-10.18c28.086 22.305 29.229 50.471 29.264 51.659a6.5 6.5 0 0 1 -6.306 6.688q-.098.003-.195.003z" fill="#181926"/><path d="m214.694 460.813h-120.638a6.5 6.5 0 0 1 0-13h120.638a6.5 6.5 0 0 1 0 13z" fill="#3c3c5d"/></g><g id="line" fill="#181926"><path d="m426.019 380.267c-9.317-47.789-31.938-93.22-67.235-135.03a31.423 31.423 0 0 0 -24.063-11.163h-53.221v-98.634l3.6 1.06a12.562 12.562 0 0 0 15.521-8.461l11.111-37.739a12.514 12.514 0 0 0 -8.461-15.521l-21.771-6.409v-13.73a41.547 41.547 0 0 0 -41.5-41.5h-171.28a41.547 41.547 0 0 0 -41.5 41.5v390.72a41.547 41.547 0 0 0 41.5 41.5h171.28a41.547 41.547 0 0 0 41.5-41.5v-67.56h31.879a13.008 13.008 0 0 1 11.008 6 184.827 184.827 0 0 0 38.5 43.806c23.258 20.089 60.31 5.248 64.083-24.993a68 68 0 0 0 -.951-22.346zm-137.725-256.378-36.78-10.827 10.827-36.781 36.779 10.828zm-81.918-97.749-5.71 14.218a8.458 8.458 0 0 1 -7.887 5.332h-75.3a8.457 8.457 0 0 1 -7.886-5.333l-5.71-14.217zm62.124 419.22a28.532 28.532 0 0 1 -28.5 28.5h-171.28a28.532 28.532 0 0 1 -28.5-28.5v-390.72a28.532 28.532 0 0 1 28.5-28.5h21.155l7.654 19.06a21.4 21.4 0 0 0 19.951 13.49h75.3a21.4 21.4 0 0 0 19.95-13.49l7.655-19.062h19.615a28.532 28.532 0 0 1 28.5 28.5v9.9l-2.969-.874a12.516 12.516 0 0 0 -15.52 8.462l-11.111 37.744a12.516 12.516 0 0 0 8.461 15.521l21.138 6.223v102.46h-53.22a31.423 31.423 0 0 0 -24.063 11.163c-35.3 41.81-57.918 87.241-67.23 135a68.032 68.032 0 0 0 -.959 22.366 39.488 39.488 0 0 0 18.345 28.3 38.722 38.722 0 0 0 33.409 3.728c17.352-6 41.817-36.045 50.832-50.842a13.006 13.006 0 0 1 11.008-6h31.879zm145.59-44.5c-1.88 16.072-19.378 27.2-34.619 21.488a26.115 26.115 0 0 1 -8.234-4.716 171.945 171.945 0 0 1 -35.815-40.712 26.1 26.1 0 0 0 -22.043-12.12h-76.758a26.1 26.1 0 0 0 -22.043 12.126 171.927 171.927 0 0 1 -35.816 40.712 26.116 26.116 0 0 1 -8.234 4.717c-15.271 5.679-32.71-5.365-34.618-21.489a54.4 54.4 0 0 1 .831-18.11c9.013-46.23 30.08-88.469 64.408-129.131a18.449 18.449 0 0 1 14.13-6.549h119.442a18.449 18.449 0 0 1 14.13 6.549c34.328 40.662 55.395 82.9 64.408 129.131v.027a54.334 54.334 0 0 1 .831 18.081z"/><path d="m252.021 293.558h-13.558v-13.558a6.5 6.5 0 0 0 -6.5-6.5h-23.075a6.5 6.5 0 0 0 -6.5 6.5v13.558h-13.558a6.5 6.5 0 0 0 -6.5 6.5v23.075a6.5 6.5 0 0 0 6.5 6.5h13.558v13.558a6.5 6.5 0 0 0 6.5 6.5h23.075a6.5 6.5 0 0 0 6.5-6.5v-13.558h13.558a6.5 6.5 0 0 0 6.5-6.5v-23.075a6.5 6.5 0 0 0 -6.5-6.5zm-6.5 23.075h-13.558a6.5 6.5 0 0 0 -6.5 6.5v13.558h-10.075v-13.558a6.5 6.5 0 0 0 -6.5-6.5h-13.558v-10.075h13.558a6.5 6.5 0 0 0 6.5-6.5v-13.558h10.075v13.558a6.5 6.5 0 0 0 6.5 6.5h13.558z"/><path d="m355.637 294.137a18.424 18.424 0 0 0 -7.418 1.559c5.462-11.889-3.854-26.181-16.985-25.962-13.128-.22-22.449 14.076-16.984 25.962-11.889-5.463-26.182 3.854-25.963 16.985-.22 13.128 14.076 22.45 25.963 16.985-5.463 11.888 3.853 26.18 16.985 25.961 13.128.22 22.449-14.075 16.984-25.961 11.89 5.463 26.18-3.855 25.961-16.986a18.564 18.564 0 0 0 -18.543-18.543zm-24.4-11.4c7.327.233 7.325 10.856 0 11.088-7.329-.236-7.327-10.859-.003-11.091zm7.418 22.529a18.581 18.581 0 0 0 0 14.836 18.581 18.581 0 0 0 -14.836 0 18.581 18.581 0 0 0 0-14.836 18.581 18.581 0 0 0 14.833-.003zm-31.821 12.962c-7.326-.233-7.325-10.856 0-11.088 7.324.23 7.322 10.853-.003 11.085zm24.4 24.4c-7.326-.233-7.325-10.856 0-11.087 7.327.232 7.325 10.859 0 11.086zm24.4-24.4c-7.327-.233-7.325-10.856 0-11.088 7.33.23 7.327 10.853.003 11.085z"/><path d="m168.275 167.607a35.647 35.647 0 0 0 35.607-35.607c-1.956-47.237-69.264-47.223-71.213 0a35.647 35.647 0 0 0 35.606 35.607zm0-58.212a22.632 22.632 0 0 1 22.607 22.605c-1.242 29.99-43.976 29.982-45.213 0a22.632 22.632 0 0 1 22.606-22.6z"/><path d="m351.625 149.835a11.427 11.427 0 0 0 11.067 4.994l7.8-1.038 5.275 5.834c6.252 7.078 18.263 3.62 19.839-5.635l1.422-7.736 7.18-3.214a11.5 11.5 0 0 0 .772-20.611l-6.918-3.743-.837-7.822a11.5 11.5 0 0 0 -19.364-7.1l-5.7 5.424-7.7-1.62a11.5 11.5 0 0 0 -12.739 16.22l3.4 7.094-3.922 6.818a11.429 11.429 0 0 0 .425 12.135zm15.162-13.161a11.493 11.493 0 0 0 .4-10.7l-2.424-5.066 5.494 1.156a11.492 11.492 0 0 0 10.3-2.923l4.067-3.872.6 5.585a11.5 11.5 0 0 0 5.963 8.888l4.938 2.671-5.125 2.299a11.5 11.5 0 0 0 -6.61 8.418l-1.016 5.522-3.767-4.168a11.507 11.507 0 0 0 -8.527-3.784c-1.077-.047-5.941.72-7.086.842z"/><path d="m214.679 447.816h-120.638a6.5 6.5 0 0 0 0 13h120.638c8.568-.281 8.634-12.693 0-13z"/></g></svg>