<svg id="Layer_1" height="512" viewBox="0 0 256 256" width="512" xmlns="http://www.w3.org/2000/svg"><g><path d="m157.59 56.65h-25.91v47.517h-35.82v-47.517h-25.92l43.83-50.24z" fill="#f0c020"/></g><g><g><g><g><path d="m86.443 129.46v15.82c0 9.93 8.08 17.92 17.98 17.86 2.44-.01 4.33 2.1 4.23 4.53l-3.41 72.91c-.01.17-.01.33-.01.49 0 5.73 4.64 10.43 10.43 10.43 5.57 0 10.15-4.38 10.41-9.94l1.28-27.12c.27-5.59 5.1-9.96 10.88-9.42 5 .46 8.76 4.82 9 9.84l1.25 26.7c.26 5.56 4.84 9.94 10.41 9.94h.24c5.87 0 10.57-4.84 10.42-10.7l-3.78-143.04c-.16-5.78-4.89-10.35-10.63-10.35-5.83 0-10.58 4.7-10.64 10.52l-.29 25.94v.01c3.68 2.94 6.06 7.47 6.06 12.58 0 8.92-7.21 16.14-16.11 16.14-5.86 0-10.96-3.11-13.78-7.75h-8.44c-3.97 0-7.2-3.21-7.2-7.21v-7.8c0-4.77-3.51-9.03-8.26-9.47-5.46-.5-10.04 3.76-10.04 9.09z" fill="#72c1e8"/><path d="m134.163 120.33c3.79 0 7.29 1.32 10.05 3.54v.01c3.68 2.94 6.06 7.47 6.06 12.58 0 8.92-7.21 16.14-16.11 16.14-5.86 0-10.96-3.11-13.78-7.75-1.49-2.45-2.35-5.32-2.35-8.39 0-8.9 7.22-16.13 16.13-16.13z" fill="#ffb69f"/></g></g></g></g><g><path d="m183.211 74.024 33.99-43.619 33.991 43.619h-20.1v46.306h-27.781v-46.306z" fill="#13bf6d"/></g><g><path d="m178.117 183.122 33.99-43.62 33.991 43.62h-20.1v46.305h-27.781v-46.305z" fill="#f0c020"/></g><g><path d="m5.569 112.333 35.97-41.239 35.97 41.239h-21.271v121.773h-29.399v-121.773z" fill="#fc5d3d"/></g><g><path d="m90.729 189.823c-3.501-1.157-7.117-2.168-9.147-10.913-1.87 8.055-4.865 9.498-9.147 10.913 6.984 2.308 8.037 6.129 9.147 10.913 1.914-8.247 5.079-9.568 9.147-10.913z" fill="#f0c020"/></g><g><path d="m190.346 31.796c-3.501-1.157-7.117-2.168-9.147-10.913-1.87 8.055-4.865 9.498-9.147 10.913 6.984 2.308 8.037 6.129 9.147 10.913 1.913-8.248 5.078-9.569 9.147-10.913z" fill="#f0c020"/></g><g><path d="m59.341 48.946c-3.501-1.157-7.117-2.168-9.147-10.913-1.87 8.055-4.865 9.498-9.147 10.913 6.984 2.308 8.037 6.129 9.147 10.913 1.914-8.248 5.079-9.569 9.147-10.913z" fill="#f0c020"/></g><path d="m120.33 100.333c-1.381 0-2.5-1.119-2.5-2.5v-5c0-1.381 1.119-2.5 2.5-2.5s2.5 1.119 2.5 2.5v5c0 1.381-1.119 2.5-2.5 2.5zm0-15c-1.381 0-2.5-1.119-2.5-2.5v-26.553c0-1.381 1.119-2.5 2.5-2.5s2.5 1.119 2.5 2.5v26.554c0 1.38-1.119 2.499-2.5 2.499z" fill="#f8e5b0"/><path d="m115.66 210.491c-1.379-.064-2.445-1.234-2.381-2.613l.157-3.372c.064-1.38 1.242-2.457 2.613-2.381 1.379.064 2.445 1.234 2.381 2.613l-.157 3.372c-.065 1.397-1.256 2.448-2.613 2.381zm.623-13.361c-1.379-.064-2.445-1.234-2.38-2.614l1.073-22.975c.064-1.379 1.222-2.445 2.614-2.38 1.379.064 2.445 1.234 2.38 2.614l-1.073 22.975c-.065 1.385-1.243 2.447-2.614 2.38z" fill="#c5e5ff"/><path d="m222.295 115.402c-1.381 0-2.5-1.119-2.5-2.5v-4c0-1.381 1.119-2.5 2.5-2.5s2.5 1.119 2.5 2.5v4c0 1.381-1.119 2.5-2.5 2.5zm0-14c-1.381 0-2.5-1.119-2.5-2.5v-25.203c0-1.381 1.119-2.5 2.5-2.5s2.5 1.119 2.5 2.5v25.203c0 1.381-1.119 2.5-2.5 2.5z" fill="#76ffba"/><path d="m217.202 224.5c-1.381 0-2.5-1.119-2.5-2.5v-3c0-1.381 1.119-2.5 2.5-2.5s2.5 1.119 2.5 2.5v3c0 1.38-1.119 2.5-2.5 2.5zm0-13c-1.381 0-2.5-1.119-2.5-2.5v-26.203c0-1.381 1.119-2.5 2.5-2.5s2.5 1.119 2.5 2.5v26.203c0 1.38-1.119 2.5-2.5 2.5z" fill="#f8e5b0"/><path d="m46.929 229.584c-1.381 0-2.5-1.119-2.5-2.5v-11c0-1.381 1.119-2.5 2.5-2.5s2.5 1.119 2.5 2.5v11c0 1.381-1.119 2.5-2.5 2.5zm0-21c-1.381 0-2.5-1.119-2.5-2.5v-94.059c0-1.381 1.119-2.5 2.5-2.5s2.5 1.119 2.5 2.5v94.059c0 1.381-1.119 2.5-2.5 2.5z" fill="#ffcbc3"/><path d="m115.654 4.767c-.998-1.144-2.774-1.139-3.768 0l-43.83 50.24c-1.409 1.615-.257 4.144 1.884 4.144h23.42v45.017c0 1.381 1.119 2.5 2.5 2.5s2.5-1.119 2.5-2.5v-47.518c0-1.381-1.119-2.5-2.5-2.5h-20.422l38.332-43.937 38.322 43.937h-20.412c-1.381 0-2.5 1.119-2.5 2.5v47.517c0 1.381 1.119 2.5 2.5 2.5s2.5-1.119 2.5-2.5v-45.017h23.41c2.144 0 3.291-2.531 1.884-4.143z"/><path d="m126.77 226.71c-1.39-.08-2.55 1-2.61 2.38-.072 1.407 1.061 2.61 2.5 2.61 1.33 0 2.43-1.04 2.49-2.38.07-1.38-1-2.55-2.38-2.61z"/><path d="m155.14 84.91c-7.155 0-13.056 5.745-13.14 12.99l-.241 21.56c-2.375-1.065-4.967-1.629-7.599-1.629-10.27 0-18.63 8.36-18.63 18.63 0 2.013.334 3.999.965 5.89h-4.555c-2.59 0-4.7-2.11-4.7-4.71v-7.8c0-6.051-4.434-11.359-10.53-11.96-7.067-.601-12.76 4.922-12.76 11.58v15.82c0 11.206 9.026 20.36 20.47 20.36.912 0 1.74.782 1.74 1.9-.013.282-3.43 73.248-3.43 73.53 0 7.13 5.8 12.93 12.93 12.93 6.461 0 12.531-4.147 13.02-14.69.063-1.405-1.017-2.539-2.38-2.62-1.38-.05-2.55 1.01-2.61 2.38-.335 7.193-3.589 9.93-8.03 9.93-4.36-.01-7.92-3.56-7.93-7.93 0-.27 3.43-73.372 3.43-73.58-.009-3.658-2.91-6.85-6.85-6.85-8.45 0-15.34-6.89-15.36-15.36v-15.82c.011-3.908 3.429-6.987 7.29-6.6 3.32.27 6.01 3.4 6 6.98v7.8c.01 5.35 4.36 9.7 9.7 9.71h7.11c3.397 4.731 8.935 7.75 15.11 7.75 10.26 0 18.61-8.36 18.61-18.64 0-5.259-2.189-10.203-6.047-13.717l.277-24.784c.04-4.44 3.69-8.05 8.14-8.05 4.44 0 8.01 3.48 8.13 7.92.029 1.092 3.79 143.13 3.79 143.13 0 4.645-3.705 8.03-7.93 8.04-4.757 0-7.96-3.52-8.15-7.56l-1.25-26.7c-.307-6.211-4.94-11.606-11.27-12.21-7.19-.66-13.27 4.75-13.61 11.79l-.22 4.78c-.07 1.37 1 2.55 2.38 2.61 1.38.08 2.55-1 2.62-2.38l.22-4.77c.201-3.987 3.557-7.404 8.15-7.05 3.59.3 6.55 3.58 6.74 7.47l1.24 26.7c.316 6.596 5.61 12.32 13.15 12.32 7.13 0 12.93-5.8 12.93-12.93 0 0-3.777-142.896-3.79-143.38-.206-7.088-5.971-12.78-13.13-12.78zm-7.37 51.55c-.01 7.51-6.12 13.63-13.61 13.64-7.718 0-13.63-6.297-13.63-13.64.02-7.5 6.13-13.62 13.63-13.63 7.306 0 13.61 5.95 13.61 13.63z"/><path d="m199.25 53.44c-1.06-.82-2.69-.62-3.51.44l-14.5 18.61c-1.289 1.661-.099 4.03 1.97 4.03h17.6v43.81c0 1.38 1.12 2.5 2.5 2.5s2.5-1.12 2.5-2.5v-46.3c0-1.402-1.147-2.51-2.5-2.51h-14.98l11.36-14.57c.868-1.123.613-2.695-.44-3.51z"/><path d="m205.4 45.55c-1.06-.82-2.69-.61-3.51.44-.846 1.095-.658 2.652.43 3.51 1.152.869 2.665.634 3.51-.44.85-1.08.65-2.66-.43-3.51z"/><path d="m215.23 28.87-7.2 9.23c-.84 1.09-.65 2.66.44 3.51 1.06.82 2.69.62 3.51-.43 0-.01 0-.01 0-.01l5.22-6.7 28.87 37.05h-14.98c-1.333 0-2.5 1.089-2.5 2.51v46.3c0 1.38 1.12 2.5 2.5 2.5s2.5-1.12 2.5-2.5v-43.81h17.6c2.109 0 3.246-2.413 1.97-4.03l-33.99-43.62c-.998-1.295-2.95-1.287-3.94 0z"/><path d="m248.07 181.585-33.991-43.62c-1-1.283-2.942-1.285-3.944 0l-33.991 43.62c-1.275 1.637-.108 4.037 1.972 4.037h17.6v43.806c0 1.381 1.119 2.5 2.5 2.5s2.5-1.119 2.5-2.5v-46.306c0-1.381-1.119-2.5-2.5-2.5h-14.982l28.873-37.052 28.873 37.052h-14.982c-1.381 0-2.5 1.119-2.5 2.5v46.306c0 1.381 1.119 2.5 2.5 2.5s2.5-1.119 2.5-2.5v-43.806h17.6c2.075 0 3.251-2.396 1.972-4.037z"/><path d="m26.84 166.6c1.38 0 2.5-1.12 2.5-2.49 0-1.38-1.12-2.5-2.5-2.5s-2.5 1.12-2.5 2.5c0 1.37 1.12 2.49 2.5 2.49z"/><path d="m5.57 114.83h18.77v39.28c0 1.37 1.12 2.5 2.5 2.5s2.5-1.13 2.5-2.5v-41.78c0-1.365-1.111-2.5-2.5-2.5h-15.77l30.47-34.93 30.47 34.93h-15.77c-1.335 0-2.5 1.075-2.5 2.5v121.78c0 1.38 1.12 2.5 2.5 2.5s2.5-1.12 2.5-2.5v-119.28h18.77c2.157 0 3.291-2.535 1.88-4.14l-35.97-41.24c-.95-1.09-2.82-1.09-3.77 0l-35.96 41.24c-.65.74-.8 1.79-.4 2.68.41.89 1.3 1.46 2.28 1.46z"/><path d="m24.34 234.11c0 1.37 1.12 2.49 2.5 2.49s2.5-1.12 2.5-2.49v-60c0-1.38-1.12-2.5-2.5-2.5s-2.5 1.12-2.5 2.5z"/><path d="m79.147 178.345c-1.667 7.179-3.986 7.945-7.496 9.104-2.279.753-2.284 3.993 0 4.748 5.831 1.927 6.493 4.782 7.496 9.104.599 2.578 4.272 2.578 4.871 0 1.665-7.178 3.985-7.944 7.496-9.104 2.279-.753 2.284-3.994 0-4.748-3.283-1.076-5.799-1.795-7.497-9.104-.597-2.573-4.275-2.566-4.87 0zm2.444 7.739c.992 1.721 2.105 2.902 3.256 3.759-1.195.872-2.275 2.018-3.221 3.627-.799-1.289-1.882-2.51-3.413-3.593 1.259-.897 2.393-2.088 3.378-3.793z"/><path d="m171.267 34.169c5.831 1.927 6.493 4.782 7.496 9.104.599 2.578 4.272 2.578 4.871 0 1.665-7.178 3.985-7.944 7.496-9.104 2.279-.753 2.284-3.994 0-4.748-3.283-1.076-5.799-1.795-7.497-9.104-.597-2.573-4.275-2.566-4.87 0-1.667 7.179-3.986 7.945-7.496 9.104-2.279.754-2.284 3.994 0 4.748zm9.94-6.112c.992 1.721 2.105 2.902 3.256 3.759-1.195.872-2.275 2.018-3.221 3.627-.799-1.289-1.882-2.51-3.413-3.593 1.259-.897 2.393-2.089 3.378-3.793z"/><path d="m52.629 37.467c-.597-2.573-4.275-2.566-4.87 0-1.667 7.179-3.986 7.945-7.496 9.104-2.279.753-2.284 3.993 0 4.748 5.831 1.927 6.493 4.782 7.496 9.104.599 2.578 4.272 2.578 4.871 0 1.665-7.178 3.985-7.944 7.496-9.104 2.279-.753 2.284-3.994 0-4.748-3.283-1.075-5.8-1.794-7.497-9.104zm-2.391 15.126c-.799-1.289-1.882-2.51-3.413-3.593 1.258-.897 2.392-2.088 3.377-3.793.992 1.721 2.105 2.902 3.256 3.759-1.194.872-2.274 2.018-3.22 3.627z"/></svg>