<svg id="Capa_1" enable-background="new 0 0 512 512" height="512" viewBox="0 0 512 512" width="512" xmlns="http://www.w3.org/2000/svg"><g><path d="m75.853 157.225h248.649l10.835-10.835c14.229-14.229 14.229-37.3 0-51.529l-76.679-76.679c-14.229-14.229-37.3-14.229-51.529 0l-135.495 135.494c-.948.948-1.827 1.937-2.649 2.958 2.234.381 4.526.591 6.868.591z" fill="#17d9c3"/><g><path d="m465.981 94.861-76.679-76.679c-14.229-14.229-37.3-14.229-51.529 0l-39.558 39.558 37.121 37.121c14.229 14.229 14.229 37.3 0 51.529l-10.835 10.835h95.057c10.012 0 19.247 3.321 26.669 8.918l19.753-19.753c14.23-14.229 14.23-37.3.001-51.529z" fill="#17d9c3"/></g><path d="m449.739 225.104h-87.628c-22.376 0-40.515 18.139-40.515 40.515s18.139 40.515 40.515 40.515h87.628c13.045 0 23.62-10.575 23.62-23.62v-33.79c0-13.045-10.575-23.62-23.62-23.62z" fill="#ddbeff"/><circle cx="371.843" cy="265.619" fill="#b98eff" r="15.122"/><g><path d="m334.221 406.619v74.273c0 13.038-10.57 23.607-23.607 23.607h-39.406c-13.038 0-23.607-10.57-23.607-23.607s10.57-23.607 23.607-23.607h15.799v-50.666z" fill="#ff63ed"/></g><g><path d="m224.35 406.619v74.273c0 13.038-10.57 23.607-23.607 23.607h-39.406c-13.038 0-23.607-10.57-23.607-23.607s10.57-23.607 23.607-23.607h15.799v-50.666z" fill="#ff63ed"/></g><g><path d="m71.634 153.676 77.482-77.482h-73.263c-22.376 0-40.515 18.139-40.515 40.515 0 20.034 14.544 36.66 33.648 39.924.821-1.02 1.7-2.01 2.648-2.957z" fill="#9448f5"/></g><path d="m260.546 157.225 36.6-36.6-64.253-64.252-100.853 100.852z" fill="#88f8d8"/><path d="m335.336 146.39-10.835 10.835h66.689l36.599-36.599-64.253-64.253-33.345 33.345 5.144 5.144c14.231 14.228 14.231 37.299.001 51.528z" fill="#88f8d8"/><path d="m449.739 306.134h-87.628c-22.376 0-40.515-18.139-40.515-40.515s18.139-40.515 40.515-40.515h87.628c5.313 0 10.215 1.755 14.161 4.715v-28.252c0-24.489-19.853-44.342-44.342-44.342h-343.705c-22.376 0-40.515-18.139-40.515-40.515v245.568c0 24.489 19.852 44.342 44.342 44.342h339.879c24.489 0 44.342-19.852 44.342-44.342v-60.858c-3.947 2.96-8.85 4.714-14.162 4.714z" fill="#b98eff"/><circle cx="215.876" cy="262.667" fill="#6d00ca" r="11.572"/><circle cx="106.799" cy="262.667" fill="#6d00ca" r="11.572"/><g><g><path d="m310.614 512h-39.406c-17.152 0-31.107-13.955-31.107-31.107s13.955-31.107 31.107-31.107h8.299v-43.166c0-4.142 3.358-7.5 7.5-7.5s7.5 3.358 7.5 7.5v50.666c0 4.142-3.358 7.5-7.5 7.5h-15.799c-8.882 0-16.108 7.226-16.108 16.108s7.226 16.108 16.108 16.108h39.406c8.882 0 16.107-7.226 16.107-16.108v-74.273c0-4.142 3.358-7.5 7.5-7.5s7.5 3.358 7.5 7.5v74.273c0 17.151-13.955 31.106-31.107 31.106z" fill="#e207b9"/></g></g><g><g><path d="m200.743 512h-39.406c-17.152 0-31.107-13.955-31.107-31.107s13.954-31.107 31.107-31.107h8.299v-43.166c0-4.142 3.358-7.5 7.5-7.5s7.5 3.358 7.5 7.5v50.666c0 4.142-3.358 7.5-7.5 7.5h-15.799c-8.882 0-16.107 7.226-16.107 16.108s7.225 16.108 16.107 16.108h39.406c8.882 0 16.108-7.226 16.108-16.108v-74.273c0-4.142 3.358-7.5 7.5-7.5s7.5 3.358 7.5 7.5v74.273c-.001 17.151-13.956 31.106-31.108 31.106z" fill="#e207b9"/></g></g><path d="m177.135 406.619h47.215v28.531h-47.215z" fill="#e207b9"/><path d="m287.006 406.619h47.215v28.531h-47.215z" fill="#e207b9"/><g fill="#007ea8"><path d="m238.196 51.069c-2.929-2.929-7.678-2.929-10.606 0l-100.852 100.853c-2.929 2.929-2.929 7.678 0 10.606 2.929 2.929 7.678 2.929 10.606 0l95.549-95.549 53.646 53.646-31.296 31.296c-2.929 2.929-2.929 7.678 0 10.606 2.929 2.929 7.677 2.929 10.606 0l36.599-36.599c2.929-2.929 2.929-7.678 0-10.606z"/><path d="m471.284 89.558-76.679-76.679c-17.17-17.17-44.963-17.173-62.135 0l-34.255 34.255-34.255-34.255c-17.169-17.17-44.963-17.173-62.135 0l-135.494 135.494c-2.929 2.929-2.929 7.678 0 10.606 2.929 2.929 7.678 2.929 10.606 0l135.494-135.494c11.308-11.308 29.612-11.311 40.923 0l39.555 39.555c.001.001.002.002.002.003l37.122 37.121c5.465 5.465 8.475 12.732 8.475 20.462 0 7.729-3.01 14.996-8.475 20.461l-10.835 10.835c-2.929 2.928-2.929 7.676 0 10.606 2.879 2.88 7.647 2.959 10.606 0 9.786-9.808 11.737-11.586 13.844-14.164.009-.012.018-.024.027-.035 6.368-7.81 9.833-17.489 9.833-27.703 0-9.364-2.918-18.276-8.31-25.714-.033-.046-.064-.093-.098-.139-1.188-1.625-2.789-3.527-4.303-5.056l22.739-22.739 53.647 53.646-31.296 31.296c-2.929 2.929-2.929 7.678 0 10.606 2.929 2.929 7.678 2.929 10.606 0l36.599-36.599c1.407-1.406 2.197-3.314 2.197-5.303s-.79-3.897-2.197-5.303l-64.252-64.252c-2.929-2.929-7.678-2.929-10.606 0l-28.042 28.041-21.371-21.37 34.255-34.255c11.308-11.308 29.612-11.311 40.923 0l76.679 76.679c11.308 11.308 11.31 29.613 0 40.923l-19.754 19.754c-2.929 2.929-2.929 7.678 0 10.606 2.929 2.929 7.677 2.929 10.606 0l19.754-19.754c17.169-17.168 17.173-44.963 0-62.135z"/></g><g fill="#6d00ca"><path d="m185.84 286.355h-49.006c-4.142 0-7.5 3.358-7.5 7.5s3.358 7.5 7.5 7.5h49.006c4.142 0 7.5-3.358 7.5-7.5s-3.358-7.5-7.5-7.5z"/><path d="m371.843 242.997c-12.473 0-22.622 10.148-22.622 22.622 0 12.473 10.148 22.622 22.622 22.622s22.622-10.148 22.622-22.622c0-12.473-10.148-22.622-22.622-22.622zm0 30.244c-4.203 0-7.622-3.419-7.622-7.622s3.419-7.622 7.622-7.622 7.622 3.419 7.622 7.622-3.419 7.622-7.622 7.622z"/><path d="m471.4 226.411v-24.844c0-28.586-23.256-51.842-51.842-51.842h-343.705c-18.149 0-33.015-14.754-33.015-33.015 0-18.205 14.811-33.015 33.015-33.015h55.157l15-15h-70.157c-26.476 0-48.015 21.54-48.015 48.015v245.568c0 28.586 23.256 51.842 51.842 51.842h339.879c28.586 0 51.842-23.256 51.842-51.842v-57.45c5.828-5.659 9.459-13.568 9.459-22.314v-33.789c-.001-8.746-3.632-16.655-9.46-22.314zm-15 135.866c0 20.315-16.527 36.842-36.842 36.842h-339.879c-20.315 0-36.842-16.528-36.842-36.842v-210.662c9.098 8.601 21.03 13.109 33.015 13.109h343.705c20.315 0 36.842 16.528 36.842 36.842v16.748c-1.832-.398-4.306-.71-6.661-.71h-87.628c-26.476 0-48.015 21.54-48.015 48.015s21.539 48.015 48.015 48.015h87.628c2.259 0 4.776-.301 6.661-.71v49.353zm9.459-79.763c0 8.899-7.258 16.121-16.121 16.121h-87.628c-18.205 0-33.015-14.811-33.015-33.015 0-18.205 14.81-33.015 33.015-33.015h87.628c8.916 0 16.121 7.273 16.121 16.121z"/></g></g></svg>