<svg id="Capa_1" enable-background="new 0 0 512 512" height="512" viewBox="0 0 512 512" width="512" xmlns="http://www.w3.org/2000/svg"><path clip-rule="evenodd" d="m52.853 101.746c77.312-87.703 211.117-96.17 298.912-18.939 87.766 77.201 96.271 210.895 18.959 298.569-77.312 87.703-211.117 96.17-298.912 18.968-87.766-77.231-96.271-210.924-18.959-298.598z" fill="#6bd9e7" fill-rule="evenodd"/><path clip-rule="evenodd" d="m125.647 274.94c-25.367 15.517-46.6 37.317-59.269 62.776-6.969 14.012-11.34 29.146-12.403 44.958 5.522 6.165 11.488 12.065 17.837 17.67 22.444 19.735 47.899 33.866 74.654 42.509 31.214 10.089 64.171 12.714 96.182 8.024 47.368-6.962 92.639-29.883 126.983-68.263-4.046-59.708-55.371-109.563-114.521-126.584l-43.322-6.254-43.292 6.254c-15.002 4.337-29.501 10.768-42.849 18.91z" fill="#ff5050" fill-rule="evenodd"/><path clip-rule="evenodd" d="m282.958 42.245c41.816 43.158 68.512 108.943 68.512 182.604 0 30.031-4.43 58.734-12.521 85.137 17.423 20.797 28.852 45.725 30.683 72.629.354-.413.738-.826 1.093-1.239 35.408-40.179 52.831-90.004 52.86-139.623v-.206c-.03-58.646-24.334-116.967-71.819-158.739-20.791-18.32-44.179-31.802-68.808-40.563z" fill="#00c7dd" fill-rule="evenodd"/><path clip-rule="evenodd" d="m228.65 265.825c50.616 26.402 102.709 88.706 101.823 151.01 14.116-9.528 27.287-20.945 39.158-34.22-1.831-26.904-13.259-51.831-30.683-72.629-21.203-25.34-51.354-44.604-83.838-53.955-8.091 4.602-17.01 7.965-26.46 9.794z" fill="#ef2929" fill-rule="evenodd"/><path d="m211.789 344.081c-4.268 0-7.726-3.457-7.726-7.722v-68.912c0-4.265 3.459-7.722 7.726-7.722 4.268 0 7.726 3.457 7.726 7.722v68.912c0 4.265-3.459 7.722-7.726 7.722z" fill="#f3eae6"/><g clip-rule="evenodd" fill-rule="evenodd"><path d="m317.804 308.246c-4.193 4.189-4.193 11.062 0 15.251l4.814 4.808 3.455 3.422c-2.953 5.516-5.316 11.357-7.058 17.493h-11.871c-5.02 0-9.273 3.451-10.454 8.112-.207.856-.325 1.741-.325 2.655v28.615c0 5.929 4.843 10.797 10.779 10.797h12.344c1.772 5.929 4.164 11.593 7.117 16.933l-1.329 1.298-7.471 7.464c-4.193 4.189-4.193 11.062 0 15.251l9.981 9.971 10.277 10.266c4.193 4.189 11.074 4.189 15.268 0l8.771-8.791c5.345 2.95 11.045 5.339 16.98 7.109v12.331c0 5.929 4.843 10.767 10.779 10.767h28.645c5.936 0 10.808-4.838 10.808-10.767v-11.859c6.113-1.74 11.96-4.1 17.482-7.021l8.239 8.23c4.193 4.189 11.074 4.189 15.267 0l20.258-20.237c4.193-4.189 4.193-11.062 0-15.251l-7.796-7.788c3.16-5.634 5.729-11.623 7.648-17.906h10.808c5.936 0 10.779-4.867 10.779-10.797v-28.615c0-5.93-4.843-10.767-10.779-10.767h-10.365c-1.831-6.49-4.371-12.685-7.56-18.467l7.265-7.257c4.193-4.189 4.193-11.062 0-15.251l-20.258-20.237c-4.193-4.189-11.074-4.189-15.267 0l-7.265 7.257c-5.788-3.186-11.99-5.723-18.457-7.552v-10.354c0-5.428-4.075-9.941-9.332-10.679-.473-.059-.975-.089-1.477-.089h-28.644c-1.063 0-2.067.148-3.012.413-4.489 1.327-7.767 5.487-7.767 10.354v10.797c-6.32 1.918-12.314 4.484-17.955 7.67l-7.796-7.818c-4.193-4.189-11.074-4.189-15.268 0z" fill="#b8acac"/><path d="m368.834 343.203c17.187-19.529 46.954-21.417 66.504-4.218 19.52 17.169 21.41 46.905 4.193 66.434-17.187 19.499-46.954 21.387-66.504 4.219-19.52-17.2-21.41-46.936-4.193-66.435z" fill="#f3eae6"/><path d="m395.766 266.592c6.083 13.924 10.986 30.68 14.352 49.383.679 3.865 1.329 7.847 1.89 11.888 8.357 1.416 16.478 5.074 23.329 11.121 19.52 17.169 21.41 46.905 4.223 66.434-7.442 8.408-17.217 13.54-27.493 15.281-3.189 23.482-8.771 44.456-16.065 61.301h22.503c5.936 0 10.808-4.838 10.808-10.767v-11.859c6.113-1.74 11.96-4.1 17.482-7.021l8.239 8.23c4.193 4.189 11.074 4.189 15.267 0l20.258-20.237c4.193-4.189 4.193-11.062 0-15.251l-7.796-7.788c3.16-5.634 5.729-11.623 7.648-17.906h10.808c5.936 0 10.779-4.867 10.779-10.797v-28.615c0-5.93-4.843-10.767-10.779-10.767h-10.365c-1.831-6.49-4.371-12.685-7.56-18.467l7.265-7.257c4.193-4.189 4.193-11.062 0-15.251l-20.258-20.237c-4.193-4.189-11.074-4.189-15.267 0l-7.265 7.257c-5.788-3.186-11.99-5.723-18.457-7.552v-10.354c0-4.69-3.071-8.702-7.265-10.177-.679-.236-1.358-.384-2.067-.502-.473-.059-.975-.089-1.477-.089h-22.737z" fill="#9d9696"/><path d="m412.008 327.863c2.038 14.72 3.13 30.414 3.13 46.728 0 16.077-1.063 31.594-3.071 46.108 10.277-1.741 20.052-6.873 27.493-15.281 17.187-19.529 15.297-49.265-4.223-66.434-6.851-6.047-14.972-9.705-23.329-11.121z" fill="#e0d2ce"/><path d="m138.315 132.721c-8.918 13.658-14.116 29.972-14.116 47.465 0 32.509 17.837 60.829 44.296 75.844 12.757 7.257 27.552 11.416 43.292 11.416 15.77 0 30.535-4.159 43.322-11.416 26.43-15.015 44.267-43.365 44.267-75.844 0-1.475-.03-2.95-.118-4.395-16.95-26.019-78.256-54.899-160.943-43.07z" fill="#ffd5bd"/><path d="m211.788 92.955c-30.801 0-57.881 15.812-73.473 39.766 12.728 21.535 64.85 43.07 123.735 43.07h37.209c-2.303-46.138-40.576-82.836-87.471-82.836z" fill="#9d9696"/><path d="m192.977 94.961c27.08 5.9 49.494 24.308 60.804 48.822 4.548 9.823 7.294 20.62 7.855 32.007h.413 37.209c-2.303-46.138-40.576-82.836-87.471-82.836-6.466.001-12.756.68-18.81 2.007z" fill="#746e6e"/><path d="m261.755 180.186c0 28.821-14.027 54.398-35.673 70.269-.532.383-1.063.767-1.595 1.15-2.274 1.593-4.607 3.068-7.028 4.425-7.53 4.277-15.77 7.493-24.481 9.381 6.054 1.327 12.344 2.035 18.811 2.035 5.788 0 11.399-.561 16.862-1.623 9.45-1.829 18.368-5.192 26.46-9.794 26.43-15.015 44.267-43.365 44.267-75.844 0-1.475-.03-2.95-.118-4.395h-37.21c-.148 0-.266 0-.413 0 .088 1.446.118 2.921.118 4.396z" fill="#fcbda4"/></g></svg>