<svg id="Flat" height="512" viewBox="0 0 340 340" width="512" xmlns="http://www.w3.org/2000/svg" xmlns:xlink="http://www.w3.org/1999/xlink"><linearGradient id="linear-gradient" gradientUnits="userSpaceOnUse" x1="287.877" x2="294.651" y1="19.914" y2="84.691"><stop offset="0" stop-color="#d9eced"/><stop offset=".073" stop-color="#d1e7ed"/><stop offset=".703" stop-color="#90bceb"/><stop offset="1" stop-color="#77abea"/></linearGradient><linearGradient id="linear-gradient-2" gradientUnits="userSpaceOnUse" x1="290.133" x2="291.618" y1="259.08" y2="339.989"><stop offset="0" stop-color="#ed6960"/><stop offset=".291" stop-color="#e15f57"/><stop offset="1" stop-color="#c84943"/></linearGradient><linearGradient id="linear-gradient-3" gradientUnits="userSpaceOnUse" x1="134.704" x2="134.704" y1="44.284" y2="160.206"><stop offset="0" stop-color="#ed9a78"/><stop offset=".553" stop-color="#ed8353"/><stop offset="1" stop-color="#ed733a"/></linearGradient><linearGradient id="linear-gradient-4" gradientUnits="userSpaceOnUse" x1="215.702" x2="215.702" y1="302.069" y2="164.636"><stop offset="0" stop-color="#e55f96"/><stop offset="1" stop-color="#af3566"/></linearGradient><linearGradient id="linear-gradient-5" gradientUnits="userSpaceOnUse" x1="128.075" x2="128.075" y1="135.592" y2="170.09"><stop offset="0" stop-color="#edcfc9"/><stop offset="1" stop-color="#eca397"/></linearGradient><linearGradient id="linear-gradient-6" x1="33.126" x2="33.126" xlink:href="#linear-gradient-4" y1="313.417" y2="244.676"/><linearGradient id="linear-gradient-7" x1="251.314" x2="173.851" xlink:href="#linear-gradient-5" y1="245.087" y2="188.479"/><linearGradient id="linear-gradient-8" x1="67.725" x2="24.125" xlink:href="#linear-gradient-5" y1="285.642" y2="176.472"/><linearGradient id="linear-gradient-9" gradientUnits="userSpaceOnUse" x1="133.531" x2="133.531" y1="320.215" y2="223.799"><stop offset="0" stop-color="#e7eded"/><stop offset="1" stop-color="#bad0da"/></linearGradient><linearGradient id="linear-gradient-10" x1="123.586" x2="123.586" xlink:href="#linear-gradient-9" y1="257.112" y2="149.887"/><linearGradient id="linear-gradient-11" x1="57.988" x2="164.332" xlink:href="#linear-gradient-4" y1="177.559" y2="163.294"/><linearGradient id="linear-gradient-12" x1="210.94" x2="147.717" xlink:href="#linear-gradient-4" y1="155.111" y2="164.513"/><linearGradient id="linear-gradient-13" x1="269.065" x2="309.519" xlink:href="#linear-gradient-2" y1="79.242" y2="126.748"/><linearGradient id="linear-gradient-14" x1="125.326" x2="125.326" xlink:href="#linear-gradient-5" y1="116.313" y2="38.808"/><linearGradient id="linear-gradient-15" x1="292.419" x2="292.835" xlink:href="#linear-gradient-5" y1="220.596" y2="270.113"/><path d="m287.568 98.367-24.413-42.93a4.016 4.016 0 0 1 .186-4.268l24.106-34.916a4.017 4.017 0 0 1 6.553-.078l25.5 35.106a3.2 3.2 0 0 1 -.013 3.777z" fill="url(#linear-gradient)"/><path d="m316.885 54.52-18.752 6.319a5.52 5.52 0 0 0 -3.708 4.482l-4.012 29.186 27.965-37.941a1.328 1.328 0 0 0 -1.493-2.046z" fill="#467ccb"/><path d="m284.887 31.148-12.187 17.658a1.586 1.586 0 0 0 .9 2.435l13.98 3.682a1.586 1.586 0 0 0 1.985-1.667l-1.789-21.339a1.586 1.586 0 0 0 -2.889-.769z" fill="#ededed"/><path d="m110.271 70.7h-26.451v79.151c26.577 12.975 53.947 18.96 82.326 16.054l37.316-26.838-32.352-63.689z" fill="#d73e39"/><path d="m314.423 61.932-24.855 30.793 18.938 16.821 10.218-25.86a20.138 20.138 0 0 0 1.449-7.606c-.047-4.394-.716-10.457-5.75-14.148z" fill="#b63131"/><path d="m276.5 102.431 24.052 23.789v203.78h-14.952v-188.6a17.318 17.318 0 0 0 -3.923-10.974c-4.354-5.319-10.145-15.457-5.177-27.995z" fill="url(#linear-gradient-2)"/><path d="m46.426 330h17.174l71.1-6.755 68.762 6.755h32.1l13.889-40.682s-29.423-85.427-63.086-123.418h-124.665s-49.709 94.147-15.274 164.1z" fill="#772249"/><path d="m121.784 54.382s-3.891 21.845 33.686 38.618 34.31 51.478 34.31 72.906c0 0 34.783 6.98 37.3-20.192 0 0 0-9.36-6.091-16.139a22.538 22.538 0 0 1 -5.636-17.156c.694-7.747-2.406-18.5-18.89-28.994a28.593 28.593 0 0 1 -13.254-21.863c-1.502-19.596-9.409-51.562-44.943-51.562 0 0-18.944.311-27.329 13.354 0 0-16.77-7.143-34.471 8.385-10.621 9.316-11.963 27.69-11.337 40.9a28.289 28.289 0 0 1 -9.291 22.549 38.9 38.9 0 0 0 -13.473 31.667c1.242 29.5 30.374 35.628 30.374 35.628l21.739-8.074s-24.617-59.253 27.306-100.027z" fill="url(#linear-gradient-3)"/><path d="m167.016 180.381s77.642 57.635 68.542 149.619h28.257s11.5-97.375-68.488-170.8z" fill="url(#linear-gradient-4)"/><path d="m76.345 135.47a478.112 478.112 0 0 0 106.944 2.859l4.18 22.142s-85.09 11.723-111.124-25.001z" fill="#772249"/><path d="m113.859 137.758v25.113h28.433v-15.429z" fill="url(#linear-gradient-5)"/><path d="m195.327 159.2-28.311 21.184a138.243 138.243 0 0 1 11.373 9.858l3.357-.008s20 1.993 28.732-15.662c-4.649-5.212-9.678-10.351-15.151-15.372z" fill="#772249"/><path d="m31.668 210.117s-17.427 64.141-9.999 119.883h24.757s-8.466-40.918-1.565-78z" fill="url(#linear-gradient-6)"/><path d="m162.864 216.6a285.414 285.414 0 0 0 39.475 31.764 27.864 27.864 0 0 0 15.228 4.561h65.759v-23.884l-58.032-2.083a16.535 16.535 0 0 1 -11.35-5.085c-9.321-9.724-30-31.917-38.856-46.335-16.313 1.932-15.909 19.92-12.224 41.062z" fill="url(#linear-gradient-7)"/><path d="m175.088 175.538c-12.724 1.507-15.277 12.783-14.036 27.7a144.239 144.239 0 0 0 12.962-9.8 13.031 13.031 0 0 1 8.469-3.146h3.328a150.728 150.728 0 0 1 -10.723-14.754z" fill="#d57370"/><path d="m31.593 202.776a218.176 218.176 0 0 0 -5.293 38.541 20.136 20.136 0 0 0 5.774 15.183c7.564 7.681 20.8 20.4 31.526 26.923l-2.3 11.013a12.638 12.638 0 0 0 7.263 14.145l4.138 1.828 16.318-31.066s-25.733-24.163-34.205-37.343l8.786-31.066z" fill="url(#linear-gradient-8)"/><path d="m93.7 266.933s-22.448 27.037-30.1 63.067h139.862s-9.541-44.168-43.892-69.312z" fill="url(#linear-gradient-9)"/><path d="m57.784 231.5 5.816-20.566-32.007-8.158a197.479 197.479 0 0 0 -4.067 23.918 171.963 171.963 0 0 0 30.258 4.806z" fill="#d57370"/><path d="m93.7 266.933s5.166 15.553 30.5 29.963a12.611 12.611 0 0 0 14.752-1.573c6.954-6.35 17.046-18.027 20.616-34.635z" fill="#a4bdce"/><path d="m76.18 212.672a66.152 66.152 0 0 0 11.844 14.136 17.967 17.967 0 0 1 5.676 13.284v26.841s10.5 10.222 29.224 18.8a13.85 13.85 0 0 0 14.028-1.485 96.026 96.026 0 0 0 22.615-23.561v-24.658a18.228 18.228 0 0 1 3.553-10.928c5.006-6.669 12.608-21.7 3.893-44.72h-23.213z" fill="url(#linear-gradient-10)"/><path d="m167.016 180.381h-23.216l-67.62 32.291a66.14 66.14 0 0 0 11.845 14.136 16.7 16.7 0 0 1 2.9 3.521 167.83 167.83 0 0 0 79.862-34.219 59.916 59.916 0 0 0 -3.771-15.729z" fill="#a4bdce"/><path d="m76.345 135.47s28.225 23.279 80.834 22.57l4.164 25.093s-52.168 44-123.7 31.1a13.993 13.993 0 0 1 -11.483-12.989 114.887 114.887 0 0 1 1.162-23.184 9.133 9.133 0 0 1 11.625-7.36l2.144.631a99 99 0 0 1 2.039-15.771 11.153 11.153 0 0 1 12.47-8.711l7.67 1.083a26.419 26.419 0 0 1 1.95-8.4 7.826 7.826 0 0 1 11.125-4.062z" fill="url(#linear-gradient-11)"/><path d="m152.012 159.933s15.5-5.434 30.193-20.728a5.5 5.5 0 0 1 9.156 1.908 69.848 69.848 0 0 1 4.027 27.353 12.938 12.938 0 0 1 -11.927 12.057l-26.31 2.124z" fill="url(#linear-gradient-12)"/><path d="m300.549 126.22-37.284-35.52a16.643 16.643 0 0 1 -4.719-16.556c1.1-3.807 3.543-7.669 9.111-10.787l37.643 40.043a12.6 12.6 0 0 1 2.96 12.211 21.206 21.206 0 0 1 -7.711 10.609z" fill="url(#linear-gradient-13)"/><path d="m96.818 157.636c-10.7-5.576-22.592-12.927-29.753-20.929a7.769 7.769 0 0 0 -1.846 2.828 26.419 26.419 0 0 0 -1.95 8.4s12.075 8.633 31.405 14.805a2.776 2.776 0 0 0 2.144-5.104z" fill="#772249"/><path d="m281.673 130.423c.239.293.458.6.677.9h.008s7.808 7.423 12.533 16.056a9.837 9.837 0 0 0 5.658 4.831v-25.99l-24.049-23.789c-4.968 12.538.823 22.676 5.173 27.992z" fill="#b63131"/><path d="m160.278 176.714-.1-.631c-13.1 2.6-73.694 12.469-117.667-17.3a96.971 96.971 0 0 0 -1.415 12.553s62.717 31.544 119.182 5.378z" fill="#772249"/><path d="m160.355 151.9a14.362 14.362 0 0 1 13.545 9.65 44.17 44.17 0 0 1 2.239 11.668 14.477 14.477 0 0 1 -10.416 14.759l-.878.254a14.443 14.443 0 0 1 -17.914-9.892 35.031 35.031 0 0 1 -1.013-13.794 14.415 14.415 0 0 1 14.437-12.645z" fill="#edb352"/><path d="m113.859 137.758c5.07 4.263 15.351 11.009 28.433 9.684v-28.725l-28.433 4.477z" fill="#d57370"/><path d="m121.784 54.382a87.2 87.2 0 0 0 -23.892 28.118 134.748 134.748 0 0 0 .647 18.04 37.052 37.052 0 0 0 7.618 18.719 51.224 51.224 0 0 0 16.734 14.113 10.055 10.055 0 0 0 9.819-.369 50.563 50.563 0 0 0 12.627-10.919 35.924 35.924 0 0 0 7.478-16.479c-24.843-17.375-32.652-34.397-31.031-51.223z" fill="url(#linear-gradient-14)"/><g fill="#d57370"><path d="m118.561 101.21a3.008 3.008 0 0 1 -.73-.09 27.323 27.323 0 0 0 -4.23-.714 3 3 0 0 1 .515-5.978 33.563 33.563 0 0 1 5.17.871 3 3 0 0 1 -.725 5.911z"/><path d="m134.263 101.21a3 3 0 0 1 -.725-5.911 33.563 33.563 0 0 1 5.17-.871 3 3 0 0 1 .516 5.978 27.313 27.313 0 0 0 -4.231.714 3.008 3.008 0 0 1 -.73.09z"/><path d="m266.266 252.923h17.06v-23.882l-18.976-.681z"/></g><rect fill="url(#linear-gradient-15)" height="42.747" rx="11.874" width="32.192" x="276.497" y="219.908"/><path d="m152.81 105.608c.161-.914.292-1.835.384-2.762.351-3.535.585-7.057.723-10.557-35.917-16.67-32.133-37.907-32.133-37.907s-9.003 33.006 31.026 51.226z" fill="#d57370"/></svg>