<svg id="outline" height="512" viewBox="0 0 64 64" width="512" xmlns="http://www.w3.org/2000/svg"><path d="m31.43 48.16-1.43-1.44 15.05-16.48 2.87 2.87z" fill="#334049"/><circle cx="47.2" cy="30.96" fill="#505860" r="3.04"/><circle cx="52.93" cy="25.22" fill="#65c4e5" r="5.07"/><path d="m58 25.26a5.07 5.07 0 1 1 -8.65-3.62 4.23 4.23 0 0 1 .51-.44 5.07 5.07 0 0 0 8.14 4.06z" fill="#54b2cc"/><path d="m55.86 30.9c-2 2-5.57 1.71-7.94-.66s-2.67-5.93-.66-7.94.71 3.14 3.08 5.51 7.53 1.08 5.52 3.09z" fill="#334049"/><path d="m34 37h-10l2-11h6z" fill="#e6e6e6"/><path d="m26.82 26h-.82l-2 11h10l-1-5.58c-4 1.3-6.79-1.81-6.18-5.42z" fill="#ccc"/><path d="m29 17h8v6.23a4 4 0 0 1 -2.6 3.77l-3.29 1.24a6 6 0 0 1 -4.22 0l-3.29-1.24a4 4 0 0 1 -2.6-3.77v-6.23z" fill="#e6e6e6"/><path d="m37 23.12v.11a4 4 0 0 1 -2.6 3.77l-3.29 1.24a6 6 0 0 1 -4.22 0l-3.29-1.24a4 4 0 0 1 -2.6-3.77v-6.23h3v2.23a4 4 0 0 0 2.6 3.77l3.29 1.24a6 6 0 0 0 4.22 0z" fill="#ccc"/><path d="m32.79 11.86a33.21 33.21 0 0 1 -.57-4.56c0-1.95 4-2.92 1-3.9s-7.08 0-8.09 1-1 4-2.39 6.7c-.24 0-3.48 2-3.67 2.07-4.07.96-7.07 5.83-7.07 5.83s8.93-1.95 12.13-1.95c5.05 0 15 1.95 19.2 1.95 3 0-5-5.85-9.09-6.82-.46-.11-.94-.22-1.45-.32z" fill="#505860"/><path d="m25 13c2-1 6-1 6-5h-4c-.66-1.33 0-3.1.81-4.72a6 6 0 0 0 -2.67 1.1c-.89.86-1 4-2.39 6.7-.24 0-3.48 2-3.67 2.07-4.08.98-7.08 5.85-7.08 5.85s8.93-1.95 12.13-1.95c5.05 0 15 1.95 19.2 1.95 1.9 0-.55-2.29-3.65-4.24-4.85.07-9.99.59-14.68-1.76z" fill="#414a51"/><path d="m29 61h23c-.83-5.68-3.08-10.54-5-16-.91-2.55-.78-5.15-2.42-7.31a12.5 12.5 0 0 0 -11.58-4.6l-4 3-4-3a12.5 12.5 0 0 0 -11.58 4.65c-1.64 2.16-1.51 4.76-2.42 7.31-1.92 5.41-4.17 10.27-5 15.95z" fill="#505860"/><path d="m33 51c-3-4-8 6-14 3-9.48-5.69-.1-14.07 2.61-20.88a12 12 0 0 0 -8.19 4.62c-1.64 2.16-1.51 4.76-2.42 7.31-1.92 5.41-4.17 10.27-5 15.95h46a36 36 0 0 0 -.78-3.8c-5.78 1.42-12 .02-18.22-6.2z" fill="#414a51"/><g fill="#42210b"><path d="m57.17 29.57s0 0 .06-.05a6.07 6.07 0 0 0 -8.58-8.58l-.06.06-.22-.1a1.91 1.91 0 0 0 -1.81.7 6 6 0 0 0 -1.39 5.88 4.11 4.11 0 0 0 -.82.62 4 4 0 0 0 -1.17 3.2 1 1 0 1 0 2-.17 2 2 0 0 1 .59-1.61l.2-.17a8.08 8.08 0 0 0 1.25 1.65 7.48 7.48 0 0 0 1.61 1.25 1.12 1.12 0 0 1 -.18.2 2 2 0 0 1 -1.65.55 1 1 0 0 0 -1.08.91 1 1 0 0 0 .95 1.09h.33a4.08 4.08 0 0 0 2.86-1.18 3.62 3.62 0 0 0 .64-.82 6.93 6.93 0 0 0 1.78.24 5.69 5.69 0 0 0 4.09-1.62 1.91 1.91 0 0 0 .7-1.81 1.15 1.15 0 0 0 -.1-.24zm-1.35-7.22a4.09 4.09 0 0 1 0 5.76 4.54 4.54 0 0 1 -.6.46l-.49-.09a6.76 6.76 0 0 1 -3.68-1.37 6.76 6.76 0 0 1 -1.36-3.65q0-.27-.09-.51a4.54 4.54 0 0 1 .46-.6 4.09 4.09 0 0 1 5.76 0zm-5.29 8.48a6.28 6.28 0 0 1 -3.2-3.19 4.28 4.28 0 0 1 .32-4.25c0 .12 0 .26.06.4a8.39 8.39 0 0 0 1.93 4.73 8.36 8.36 0 0 0 4.76 1.94l.38.06a4.34 4.34 0 0 1 -4.25.31z"/><path d="m50 53.09a1 1 0 0 0 -.63 1.26 43.62 43.62 0 0 1 1.46 5.65h-9.1a8 8 0 0 0 -1.9-3.35 13.5 13.5 0 0 1 -1.1-1.49 11.56 11.56 0 0 1 -1.15-4.86c0-.52-.1-1-.17-1.56-.43-3.35-1.85-5.67-4-6.55a1 1 0 1 0 -.75 1.81c2 .8 2.57 3.45 2.77 5 .06.49.11 1 .15 1.49a13.3 13.3 0 0 0 1.42 5.69 15.71 15.71 0 0 0 1.27 1.73 7.92 7.92 0 0 1 1.39 2.09h-23.5c-.56-1.47.08-3.29.92-4.57a22.13 22.13 0 0 1 1.81-2.29 22.77 22.77 0 0 0 2.11-2.7c1.21-1.91 2-4.77.57-7a1 1 0 0 0 -1.69 1.06c.93 1.48.27 3.57-.57 4.9a21.4 21.4 0 0 1 -1.92 2.47 24.44 24.44 0 0 0 -2 2.49 7.53 7.53 0 0 0 -1.31 5.64h-6.9a61.79 61.79 0 0 1 3.36-10.82c.47-1.24.94-2.5 1.4-3.79a20.9 20.9 0 0 0 .75-2.89 9.94 9.94 0 0 1 1.53-4.15 11.37 11.37 0 0 1 10.32-4.29h.09l3.77 2.81a1 1 0 0 0 1.2 0l3.77-2.81h.09a11.37 11.37 0 0 1 10.33 4.29 9.94 9.94 0 0 1 1.53 4.15 20.34 20.34 0 0 0 .74 2.88c.46 1.3.94 2.57 1.41 3.82l.53 1.42a1 1 0 1 0 1.87-.7l-.54-1.43c-.46-1.24-.93-2.49-1.33-3.77a19.19 19.19 0 0 1 -.68-2.63 11.38 11.38 0 0 0 -1.89-5 13.25 13.25 0 0 0 -11.32-5.09l-.65-3.64 1.29-.49a5 5 0 0 0 3.25-4.63v-3.69a46.83 46.83 0 0 0 5.34.46c1.44-.01 1.66-1.01 1.66-1.21.26-2.24-7.39-6.83-10.53-7.59l-.81-.21a25.38 25.38 0 0 1 -.44-3.72c0-.37.55-.87 1-1.27.61-.56 1.31-1.2 1.12-2.11s-1.07-1.2-1.8-1.44c-3.42-1.1-7.8 0-9.09 1.21a6.56 6.56 0 0 0 -1.28 3.1 19.84 19.84 0 0 1 -1.17 3.56c-.35.18-.93.51-2 1.14-.49.28-1.08.63-1.29.74-4.34 1.11-7.46 6.06-7.59 6.27a1 1 0 0 0 0 1.1 1 1 0 0 0 .88.42.76.76 0 0 0 .21 0c.06 0 4.21-.91 7.79-1.48v4.74a5 5 0 0 0 3.25 4.67l1.3.49-.66 3.58a13.25 13.25 0 0 0 -11.27 5.1 11.63 11.63 0 0 0 -1.89 5 20.7 20.7 0 0 1 -.67 2.63c-.46 1.27-.93 2.51-1.39 3.74a58 58 0 0 0 -3.67 12.39 1 1 0 0 0 .23.79 1 1 0 0 0 .77.35h46a1 1 0 0 0 .75-.35 1 1 0 0 0 .23-.8 41.32 41.32 0 0 0 -1.75-7.12 1 1 0 0 0 -1.23-.64zm-30.66-39a8.19 8.19 0 0 0 1.66-.9c.63-.37 1.66-1 2-1.13a1 1 0 0 0 .7-.65 21.5 21.5 0 0 0 1.39-4.15 7.39 7.39 0 0 1 .73-2.15c.7-.68 4.35-1.63 7.08-.75h.11l-.17.16a3.9 3.9 0 0 0 -1.64 2.75 30.71 30.71 0 0 0 .57 4.6 1 1 0 0 0 .87.95c.47.09.92.2 1.35.29 2.65.64 6.72 3.31 8.34 4.83-2-.11-4.72-.48-7.62-.87a93.22 93.22 0 0 0 -10.6-1.05 69.09 69.09 0 0 0 -9.7 1.42 10.46 10.46 0 0 1 4.91-3.31zm2.66 9.15v-5a19.3 19.3 0 0 1 2.13-.16 92.48 92.48 0 0 1 10.33 1l1.54.22v3.94a3 3 0 0 1 -2 2.8l-3.29 1.24a5 5 0 0 1 -3.51 0l-3.2-1.28a3 3 0 0 1 -2-2.76zm4.54 5.91a7 7 0 0 0 4.93 0h.08l.61 3.36-3.16 2.33-3.15-2.36.6-3.36z"/><path d="m26.43 56.31h.14a1 1 0 0 0 1-.87 51 51 0 0 0 .43-9.06 1 1 0 0 0 -1-1 1 1 0 0 0 -1 1 48.91 48.91 0 0 1 -.4 8.72 1 1 0 0 0 .83 1.21z"/><path d="m42.38 46.09c-.16-.59-.27-1.19-.39-1.83a21.58 21.58 0 0 0 -.55-2.39 6.54 6.54 0 0 0 -2.89-4 1 1 0 0 0 -1 1.75 4.76 4.76 0 0 1 2 2.83 20.44 20.44 0 0 1 .45 2.18c.12.65.25 1.31.43 2a11 11 0 0 0 3.27 5.47 1 1 0 0 0 .66.24 1 1 0 0 0 .75-.34 1 1 0 0 0 -.11-1.41 9.14 9.14 0 0 1 -2.62-4.5z"/><path d="m19.61 37.19a7.92 7.92 0 0 0 -4 4.94 21.24 21.24 0 0 0 -.72 5.94 1 1 0 0 0 1 1 1 1 0 0 0 1-1 20.1 20.1 0 0 1 .63-5.39 5.91 5.91 0 0 1 2.92-3.68 1 1 0 1 0 -.83-1.82z"/></g></svg>