<svg id="Capa_1" enable-background="new 0 0 512.002 512.002" height="512" viewBox="0 0 512.002 512.002" width="512" xmlns="http://www.w3.org/2000/svg"><g><path d="m421.001 267.5h-30v30l15 20 15-20z" fill="#ccc"/><path d="m421.001 297.5v192l-15 15-15-15v-192z" fill="#ebebeb"/><path d="m226.001 172.5c-8.284 0-15 6.716-15 15v20c0 8.284 6.716 15 15 15s15-6.716 15-15l15-15h-15v-5c0-8.285-6.716-15-15-15z" fill="#fff0d3"/><path d="m346.001 172.5c8.284 0 15 6.716 15 15v20c0 8.284-6.716 15-15 15s-15-6.716-15-15l-15-15h15v-5c0-8.285 6.716-15 15-15z" fill="#ffe2a8"/><path d="m158.501 52.5h-30l22.33 67.143 1.091 2.989c2.098 5.753 7.601 9.868 14.08 9.868 8.284 0 15-6.716 15-15v-42.5c-.001-12.427-10.075-22.5-22.501-22.5z" fill="#b3b3b3"/><path d="m151.001 75c0-12.426-10.074-22.5-22.5-22.5h-30c-12.426 0-22.5 10.074-22.5 22.5v42.5c0 8.284 6.716 15 15 15 6.479 0 11.982-4.115 14.08-9.868l9.168-25.132h28.504l8.078 22.143c.101-.702.17-1.413.17-2.143z" fill="#ccc"/><path d="m241.001 292.5v90c0 8.28 6.72 15 15 15s15-6.72 15-15v-32.571c4.693 1.659 9.739 2.571 15 2.571s10.307-.912 15-2.571l20-82.429z" fill="#85453d"/><path d="m301.001 247.5v135c0 8.284 6.716 15 15 15s15-6.716 15-15v-90z" fill="#60312c"/><path d="m311.001 172.5h-30v80l50-30v-30c0-11.046-8.954-20-20-20z" fill="#ff8d7e"/><path d="m281.001 172.5h-20c-11.046 0-20 8.954-20 20v30l60 30v-60c0-11.046-8.954-20-20-20z" fill="#ffb4a9"/><path d="m331.001 262.5h-30l15 45h30v-5.335c0-15.211-5.671-29.09-15-39.665z" fill="#ffe2a8"/><path d="m301.001 262.5h-60c-9.329 10.575-15 24.454-15 39.665v5.335h90v-5.335c0-15.211-5.671-29.09-15-39.665z" fill="#fff0d3"/><path d="m331.001 222.5c0-11.046-8.951-20-19.997-20-5.522 0-10.522 2.239-14.141 5.857l-10.862 10.768-15 29.188 15 29.188 45-15z" fill="#808080"/><path d="m275.139 208.357c-3.619-3.619-8.619-5.857-14.141-5.857-11.046 0-19.997 8.954-19.997 20v40l45 15v-58.375z" fill="#999"/><path d="m241.001 72.5c0-16.568-13.431-30-30-30v40c0 16.568 13.431 30 30 30h45l-44.831-18.919z" fill="#ff8d7e"/><path d="m331.001 72.5c0-16.568 13.431-30 30-30v40c0 16.568-13.431 30-30 30h-45l45-15z" fill="#ff6753"/><path d="m314.689 62.831h-28.688v79.669c24.853 0 45-20.147 45-45 0-13.949-6.348-26.415-16.312-34.669z" fill="#ff8d7e"/><path d="m241.001 97.5c0 24.853 20.147 45 45 45 8.284 0 15-20.147 15-45 0-13.949-2.116-26.415-5.437-34.669h-38.25c-9.965 8.254-16.313 20.72-16.313 34.669z" fill="#ffb4a9"/><path d="m286.001 52.5 13.202 23.623c5.812-3.633 11.035-8.119 15.486-13.292-7.788-6.452-17.785-10.331-28.688-10.331z" fill="#ffe2a8"/><path d="m286.001 52.5c-10.903 0-20.9 3.879-28.688 10.331 7.609 8.844 17.464 15.701 28.688 19.669 4.659-1.647 9.078-3.799 13.202-6.377-2.536-14.067-7.497-23.623-13.202-23.623z" fill="#fff0d3"/><circle cx="286.001" cy="30" fill="#fff0d3" r="22.5"/><path d="m436.001 260h-22.5v-30h7.5c12.406 0 22.5-10.093 22.5-22.5s-10.094-22.5-22.5-22.5h-52.642c-1.248-11.234-10.797-20-22.358-20-6.5 0-12.362 2.774-16.473 7.196-4.892-4.467-11.396-7.196-18.527-7.196h-50c-7.131 0-13.635 2.729-18.527 7.196-4.111-4.422-9.973-7.196-16.473-7.196-11.561 0-21.11 8.766-22.358 20h-52.642c-4.136 0-7.5-3.364-7.5-7.5s3.364-7.5 7.5-7.5h15c4.143 0 7.5-3.358 7.5-7.5s-3.357-7.5-7.5-7.5h-15c-12.406 0-22.5 10.093-22.5 22.5s10.094 22.5 22.5 22.5h52.5v7.5c0 12.407 10.094 22.5 22.5 22.5 2.629 0 5.153-.458 7.5-1.29v31.049c-9.693 11.989-15 26.935-15 42.406v5.335c0 4.142 3.357 7.5 7.5 7.5h7.5v67.5c0 9.777 6.271 18.114 15 21.21v85.384l-24.872 8.291c-3.93 1.31-6.053 5.557-4.743 9.487 1.048 3.143 3.974 5.13 7.114 5.13.786 0 1.586-.125 2.373-.387l30-10c3.063-1.021 5.128-3.887 5.128-7.115v-90.79c8.729-3.096 15-11.432 15-21.21v-23.036c4.949.712 10.049.713 15 0v23.036c0 9.777 6.271 18.114 15 21.21v90.79c0 3.228 2.065 6.094 5.128 7.115l30 10c.787.262 1.587.387 2.373.387 3.14 0 6.066-1.988 7.114-5.13 1.31-3.93-.813-8.177-4.743-9.487l-24.872-8.291v-85.384c8.729-3.096 15-11.432 15-21.21v-67.5h7.5c4.143 0 7.5-3.358 7.5-7.5v-5.335c0-15.472-5.307-30.417-15-42.406v-31.049c2.347.833 4.871 1.29 7.5 1.29 12.406 0 22.5-10.093 22.5-22.5v-7.5h52.5c4.136 0 7.5 3.364 7.5 7.5s-3.364 7.5-7.5 7.5h-15c-4.143 0-7.5 3.358-7.5 7.5v37.5h-22.5c-4.143 0-7.5 3.358-7.5 7.5s3.357 7.5 7.5 7.5h7.5v214.5c0 1.989.79 3.897 2.196 5.303l15 15c1.465 1.464 3.385 2.197 5.304 2.197s3.839-.732 5.304-2.197l15-15c1.406-1.406 2.196-3.314 2.196-5.303v-214.5h7.5c4.143 0 7.5-3.358 7.5-7.5s-3.357-7.5-7.5-7.5zm-202.455 40c.428-10.382 3.931-20.369 10.033-28.735l40.05 13.35c.771.256 1.571.385 2.372.385s1.602-.128 2.372-.385l40.05-13.35c6.102 8.366 9.605 18.352 10.033 28.735zm89.955-42.906-37.5 12.5-37.5-12.5v-34.594c0-6.893 5.605-12.5 12.496-12.5 3.339 0 6.478 1.3 8.861 3.684l10.862 10.768c1.462 1.449 3.371 2.173 5.28 2.173s3.818-.725 5.28-2.173l10.885-10.791c2.361-2.361 5.5-3.661 8.839-3.661 6.891 0 12.496 5.607 12.496 12.5v34.594zm-62.5-77.094h50c6.893 0 12.5 5.607 12.5 12.5v5.517c-3.752-1.924-7.998-3.017-12.496-3.017-7.345 0-14.25 2.86-19.422 8.031l-5.582 5.534-5.56-5.511c-5.194-5.193-12.1-8.054-19.444-8.054-4.498 0-8.744 1.093-12.496 3.017v-5.517c0-6.893 5.607-12.5 12.5-12.5zm-35 35c-4.136 0-7.5-3.364-7.5-7.5v-20c0-4.136 3.364-7.5 7.5-7.5s7.5 3.364 7.5 7.5v20c0 4.136-3.364 7.5-7.5 7.5zm97.5 167.5c0 4.136-3.364 7.5-7.5 7.5s-7.5-3.364-7.5-7.5v-32.571c0-2.435-1.182-4.718-3.17-6.124-1.987-1.405-4.533-1.759-6.83-.948-8.041 2.843-16.961 2.842-25 0-2.295-.812-4.843-.458-6.83.947-1.988 1.406-3.17 3.689-3.17 6.124v32.572c0 4.136-3.364 7.5-7.5 7.5s-7.5-3.364-7.5-7.5v-67.5h75zm30-175c0 4.136-3.364 7.5-7.5 7.5s-7.5-3.364-7.5-7.5v-20c0-4.136 3.364-7.5 7.5-7.5s7.5 3.364 7.5 7.5zm60 278.894-7.5 7.5-7.5-7.5v-211.394h15z"/><path d="m144.875 125.202c3.229 8.851 11.719 14.798 21.126 14.798 12.406 0 22.5-10.093 22.5-22.5v-42.5c0-16.542-13.458-30-30-30h-60c-16.542 0-30 13.458-30 30v42.5c0 12.407 10.094 22.5 22.5 22.5 9.407 0 17.897-5.947 21.126-14.798l7.369-20.202h18.01zm-30.626-35.202c-3.151 0-5.966 1.97-7.046 4.93l-9.168 25.132c-1.077 2.954-3.904 4.938-7.034 4.938-4.136 0-7.5-3.364-7.5-7.5v-42.5c0-8.271 6.729-15 15-15h60c8.271 0 15 6.729 15 15v42.5c0 4.136-3.364 7.5-7.5 7.5-3.13 0-5.957-1.984-7.034-4.938l-9.168-25.132c-1.08-2.96-3.895-4.93-7.046-4.93z"/><path d="m238.536 119.91c8.423 17.769 26.53 30.09 47.465 30.09s39.042-12.321 47.465-30.09c19.532-1.275 35.035-17.561 35.035-37.41v-40c0-4.142-3.357-7.5-7.5-7.5-17.144 0-31.627 11.568-36.08 27.305-4.636-5.122-10.268-9.321-16.584-12.304 4.762-5.312 7.665-12.323 7.665-20.001 0-16.542-13.458-30-30-30s-30 13.458-30 30c0 7.678 2.903 14.69 7.665 20.001-6.316 2.982-11.949 7.182-16.584 12.304-4.455-15.737-18.938-27.305-36.082-27.305-4.143 0-7.5 3.358-7.5 7.5v40c0 19.849 15.503 36.135 35.035 37.41zm99.965-47.41c0-9.778 6.27-18.12 15-21.215v31.215c0 9.925-6.462 18.363-15.397 21.344.252-2.082.397-4.196.397-6.344zm-52.5-12.5c6.08 0 11.822 1.464 16.906 4.043-5.027 4.387-10.735 7.937-16.906 10.438-6.17-2.501-11.878-6.05-16.906-10.438 5.084-2.579 10.826-4.043 16.906-4.043zm-15-30c0-8.271 6.729-15 15-15s15 6.729 15 15-6.729 15-15 15-15-6.729-15-15zm-13.807 43.523c7.567 7.102 16.532 12.592 26.307 16.049.809.286 1.654.429 2.5.429s1.691-.143 2.5-.429c9.775-3.456 18.74-8.947 26.307-16.049 5.424 6.505 8.693 14.866 8.693 23.977 0 20.678-16.822 37.5-37.5 37.5s-37.5-16.822-37.5-37.5c0-9.112 3.27-17.472 8.693-23.977zm-38.693-22.238c8.73 3.095 15 11.437 15 21.215v25c0 2.149.145 4.263.397 6.344-8.935-2.981-15.397-11.42-15.397-21.344z"/></g></svg>