<?xml version="1.0" encoding="UTF-8"?>
<svg xmlns="http://www.w3.org/2000/svg" id="outline" viewBox="0 0 64 64" width="512" height="512"><path d="M41.93,57.09a1,1,0,0,0-1.23-.69A1,1,0,0,0,40,57.63L40.68,60H23.32l1-3.47a.4.4,0,0,0,0-.15A5,5,0,0,1,29,52L31.4,53.8a1,1,0,0,0,1.2,0L35,52a5,5,0,0,1,3.56,1.81,1,1,0,0,0,.83.44,1,1,0,0,0,1-1,1,1,0,0,0-.22-.63,7.06,7.06,0,0,0-4.62-2.58L35.23,47l1.27-.69A2.78,2.78,0,0,0,38,43.87V39.49A5.77,5.77,0,0,0,32,34a5.77,5.77,0,0,0-6,5.5v4.38a2.78,2.78,0,0,0,1.5,2.43l1.27.69-.34,3.07a7,7,0,0,0-6.07,6L21,60.73a1,1,0,0,0,.16.87,1,1,0,0,0,.8.4H42a1,1,0,0,0,.8-.4,1,1,0,0,0,.16-.87ZM32,51.75l-1.61-1.19.3-2.72a5.44,5.44,0,0,0,2.62,0l.3,2.72Zm-4-7.88V39.49A3.78,3.78,0,0,1,32,36a3.78,3.78,0,0,1,4,3.5v4.38a.78.78,0,0,1-.45.67l-2,1.06a3.34,3.34,0,0,1-3.16,0l-2-1.06A.78.78,0,0,1,28,43.87Z"/><path d="M27,10h2v7a1,1,0,0,0,1,1h4a1,1,0,0,0,1-1V10h2a1,1,0,0,0,.77-1.64l-5-6a1,1,0,0,0-1.54,0l-5,6A1,1,0,0,0,27,10Zm5-5.43L34.86,8H34a1,1,0,0,0-1,1v7H31V9a1,1,0,0,0-1-1h-.86Z"/><path d="M7,28H4V23a1,1,0,0,0-2,0v6a1,1,0,0,0,1,1H7a1,1,0,0,0,0-2Z"/><path d="M11,30h4a1,1,0,0,0,0-2H12V27h2a1,1,0,0,0,0-2H12V24h3a1,1,0,0,0,0-2H11a1,1,0,0,0-1,1v6A1,1,0,0,0,11,30Z"/><path d="M20.29,29.7a1,1,0,0,0,1.42,0l2-2A1,1,0,0,0,24,27V23a1,1,0,1,0-2,0v3.59l-1,1-1-1V23a1,1,0,1,0-2,0v4a1,1,0,0,0,.29.71Z"/><path d="M27,30h4a1,1,0,0,0,0-2H28V27h2a1,1,0,0,0,0-2H28V24h3a1,1,0,0,0,0-2H27a1,1,0,0,0-1,1v6A1,1,0,0,0,27,30Z"/><path d="M36,23a1,1,0,1,0-2,0v6a1,1,0,0,0,1,1h4a1,1,0,0,0,0-2H36Z"/><path d="M53,22a1,1,0,0,0-1,1v5H50V23a1,1,0,1,0-2,0v6a1,1,0,0,0,1,1h4a1,1,0,0,0,1-1V23A1,1,0,0,0,53,22Z"/><path d="M61,22H57a1,1,0,0,0-1,1v6a1,1,0,0,0,2,0V27h3a1,1,0,0,0,1-1V23A1,1,0,0,0,61,22Zm-1,3H58V24h2Z"/><path d="M45,41a1,1,0,0,0,0-2H44V38a1,1,0,0,0-2,0v1H41a1,1,0,0,0,0,2h1v1a1,1,0,1,0,2,0V41Z"/><path d="M52,46H51V45a1,1,0,0,0-2,0v1H48a1,1,0,0,0,0,2h1v1a1,1,0,0,0,2,0V48h1a1,1,0,0,0,0-2Z"/><path d="M22,39V38h1a1,1,0,0,0,0-2H22V35a1,1,0,0,0-2,0v1H19a1,1,0,0,0,0,2h1v1a1,1,0,0,0,2,0Z"/><path d="M20,51H19V50a1,1,0,0,0-2,0v1H16a1,1,0,0,0,0,2h1v1a1,1,0,0,0,2,0V53h1a1,1,0,0,0,0-2Z"/><path d="M16,43a3,3,0,1,0-3,3A3,3,0,0,0,16,43Zm-3,1a1,1,0,1,1,1-1A1,1,0,0,1,13,44Z"/><path d="M48,54a3,3,0,1,0,3,3A3,3,0,0,0,48,54Zm0,4a1,1,0,1,1,1-1A1,1,0,0,1,48,58Z"/></svg>
