<svg id="Layer_1" enable-background="new 0 0 512 512" height="512" viewBox="0 0 512 512" width="512" xmlns="http://www.w3.org/2000/svg"><g><g><path d="m377.699 163.284s-8.241 89.626 32.966 146.286l-33.639-5.536s-8.599 30.26 24.367 99.282h-145.77.753-145.771c32.966-69.022 24.367-99.282 24.367-99.282l-33.639 5.536c41.207-56.66 32.966-146.286 32.966-146.286z" fill="#f5f8f9"/><g><path d="m463.417 512v-11.196c0-43.118-22.762-83.569-61.087-108.562h-292.66c-38.325 24.992-61.087 65.444-61.087 108.562v11.196z" fill="#fe76a8"/></g><path d="m402.33 392.242h-41.207c38.325 24.992 61.087 65.444 61.087 108.561v11.197h41.207v-11.196c0-43.118-22.762-83.569-61.087-108.562z" fill="#fe5694"/><g><path d="m367.327 512v-106.956h-222.655v106.956z" fill="#fee45a"/></g><g fill="#8ac9fe"><path d="m188.701 327.097c-25.603 19.756-65.989 35.501-88.883 44.676-29.113 11.667-26.155 32.504-13.745 44.885l39.773 39.68c.274.273.549.545.824.816 37.608 36.979 101.208 10.148 101.208-42.596v-107.19c-13.592 3.675-26.808 10.185-39.177 19.729z"/><path d="m412.181 371.773c-22.894-9.174-63.279-24.92-88.883-44.676-11.868-9.157-25.248-15.828-39.459-19.641v107.377c0 52.743 63.509 79.483 101.208 42.598.37-.362.739-.727 1.106-1.093l39.773-39.68c12.41-12.381 15.367-33.219-13.745-44.885z"/></g><g><g><g><g><g><g><path d="m163.851 154.703v79.592c0 36.749 21.509 68.475 52.631 83.302 12.018 5.726 25.469 8.934 39.67 8.934 13.655 0 26.616-2.966 38.277-8.284 31.872-14.535 54.025-46.657 54.025-83.952v-77.59z" fill="#ffe5c2"/></g></g><path d="m163.851 154.702v.447l143.396 1.555v77.59c0 37.295-22.153 69.418-54.025 83.952-5.613 2.559-11.526 4.574-17.673 5.975 6.625 1.51 13.521 2.308 20.604 2.308 13.655 0 26.616-2.966 38.277-8.284 31.872-14.535 54.025-46.657 54.025-83.952v-77.59z" fill="#fed2a4"/><path d="m294.43 379.155v-60.908c-11.661 5.318-24.622 8.284-38.277 8.284-14.201 0-27.652-3.208-39.67-8.934v62.455c28.982 48.22 47.748 48.191 77.947-.897z" fill="#ffe5c2"/></g></g></g></g><g><path d="m307.44 0c8.137 13.447-6.098 16.145-15.866 21.591l24.691 12.437 23.166 87.408h-175.58l17.203-66.622 20.426-9.032-14.407-13.814 8.769-31.968z" fill="#fe76a8"/><path d="m316.265 34.028-24.691-12.437c9.768-5.445 24.003-8.144 15.866-21.591h-41.207c8.137 13.447-6.098 16.145-15.866 21.591l24.691 12.437 23.166 87.408h41.207z" fill="#fe5694"/><g><path d="m174.37 80.698-10.519 40.738h175.58l-10.734-40.738z" fill="#fee45a"/></g><path d="m328.697 80.698h-41.207l10.734 40.738h41.207z" fill="#fed402"/><path d="m46.954 161.029c-4.915 3.003-7.58 4.83-7.58 4.83h433.558s-2.664-1.827-7.58-4.83c-44.269-27.046-95.207-41.206-147.085-41.206h-124.229c-51.877.001-102.815 14.16-147.084 41.206z" fill="#fe76a8"/><path d="m465.352 161.029c-44.269-27.047-95.207-41.206-147.085-41.206h-41.207c51.878 0 102.816 14.159 147.085 41.206 4.915 3.003 7.58 4.83 7.58 4.83h41.207s-2.665-1.827-7.58-4.83z" fill="#fe5694"/></g><g><path d="m194.876 512c-13.096-58.253-21.048-129.371-21.048-192.85 0-21.215 7.891-40.587 20.899-55.341 15.341-17.4 37.797-35.842 62.818-35.842s47.477 18.442 62.818 35.842c13.008 14.754 20.899 34.126 20.899 55.341 0 62.999-7.979 134.205-21.115 192.634z" fill="#f5f8f9"/><path d="m320.362 263.81c-15.341-17.4-37.797-35.842-62.818-35.842-7.11 0-14.012 1.49-20.604 4.021 16.604 6.376 31.233 19.365 42.214 31.821 13.008 14.754 20.899 34.126 20.899 55.341 0 62.999-7.979 134.205-21.115 192.634h41.207c13.136-58.429 21.115-129.635 21.115-192.634.001-21.216-7.89-40.588-20.898-55.341z" fill="#e8edf2"/><path d="m265.814 211.36c29.51 0 53.433 23.923 53.433 53.433s-28.625 9.542-61.702-22.264c-33.078 31.805-61.702 22.264-61.702 22.264 0-29.51 23.923-53.433 53.433-53.433z" fill="#fff"/></g></g><g fill="#d9e7ec"><path d="m28.896 363.89c-1.604-3.999-6.424-5.843-10.315-4.078-3.82 1.733-5.589 6.366-3.857 10.198 1.698 3.756 6.184 5.548 10 3.965 3.872-1.606 5.808-6.206 4.172-10.085z"/><path d="m85.236 225.228c-1.529-3.625-5.603-5.562-9.375-4.43-4.104 1.232-6.478 5.808-5.072 9.871 1.378 3.982 5.795 6.177 9.798 4.826 4.151-1.402 6.359-6.214 4.649-10.267z"/><path d="m47.511 36.767c-1.578-3.821-6.024-5.714-9.881-4.264-4.009 1.507-6.048 6.219-4.398 10.178 1.585 3.803 6.031 5.726 9.882 4.263 4.045-1.537 5.993-6.19 4.397-10.177z"/><path d="m116.976 75.172c-1.607-3.892-6.199-5.794-10.086-4.182-3.889 1.613-5.789 6.193-4.183 10.086 1.604 3.888 6.201 5.792 10.086 4.182 3.871-1.605 5.821-6.204 4.183-10.086z"/><path d="m497.814 365.333c-.877-4.209-5.123-6.995-9.332-6.009-4.116.965-6.788 5.25-5.749 9.37.993 3.936 5.006 6.541 9.013 5.726 4.164-.848 6.827-4.943 6.068-9.087z"/><path d="m441.03 225.228c-1.531-3.628-5.605-5.552-9.376-4.43-4.117 1.225-6.467 5.813-5.071 9.871 1.37 3.981 5.797 6.181 9.794 4.826 4.146-1.406 6.365-6.209 4.653-10.267z"/><path d="m478.755 36.767c-1.534-3.917-6.251-5.776-10.086-4.182-3.896 1.62-5.776 6.196-4.183 10.096 1.593 3.899 6.229 5.772 10.096 4.172 3.871-1.602 5.808-6.212 4.173-10.086z"/><path d="m409.29 75.172c-1.607-3.892-6.199-5.794-10.086-4.182-3.894 1.615-5.79 6.191-4.183 10.086 1.604 3.888 6.201 5.792 10.086 4.182 3.871-1.605 5.821-6.204 4.183-10.086z"/></g></g></svg>