<svg id="Capa_1" enable-background="new 0 0 512 512" height="512" viewBox="0 0 512 512" width="512" xmlns="http://www.w3.org/2000/svg"><g><g><path d="m117.481 142.68-40-60c-2.782-4.173-7.466-6.68-12.481-6.68s-9.699 2.507-12.481 6.68l-40 60c-1.879 2.818-2.748 6.19-2.467 9.566l15 180h79.896l15-180c.281-3.376-.588-6.748-2.467-9.566z" fill="#f9f9f9"/><g><g><path d="m117.481 142.68-40-60c-2.782-4.173-7.466-6.68-12.481-6.68v256.246h39.948l15-180c.281-3.376-.588-6.748-2.467-9.566z" fill="#e4e4ff"/></g></g><path d="m50 332.246v88.754c0 8.284 6.716 15 15 15s15-6.716 15-15v-88.754z" fill="#ffe196"/><g><path d="m65 332.246v103.754c8.284 0 15-6.716 15-15v-88.754z" fill="#ffb454"/></g><path d="m115 346h-100c-8.284 0-15-6.716-15-15s6.716-15 15-15h100c8.284 0 15 6.716 15 15s-6.716 15-15 15z" fill="#ffb454"/><g><path d="m115 316h-50v30h50c8.284 0 15-6.716 15-15s-6.716-15-15-15z" fill="#ff8659"/></g></g><path d="m316.607 245.394-40-40c-5.858-5.857-15.355-5.857-21.213 0s-5.858 15.355 0 21.213l14.393 14.393h-103.787c-8.284 0-15 6.716-15 15s6.716 15 15 15h103.787l-14.393 14.394c-5.858 5.857-5.858 15.355 0 21.213 2.928 2.928 6.767 4.393 10.606 4.393s7.678-1.465 10.607-4.394l40-40c5.857-5.857 5.857-15.355 0-21.212z" fill="#524798"/><path d="m508.409 87.261-70-82c-2.85-3.338-7.02-5.261-11.409-5.261s-8.559 1.923-11.409 5.261l-70 82c-2.72 3.188-3.984 7.366-3.484 11.526l30 250h109.786l30-250c.5-4.16-.764-8.339-3.484-11.526z" fill="#f9f9f9"/><g><path d="m508.409 87.261-70-82c-2.85-3.338-7.02-5.261-11.409-5.261v348.787h54.893l30-250c.5-4.16-.764-8.339-3.484-11.526z" fill="#e4e4ff"/></g><g><path d="m427 512c-16.569 0-30-13.431-30-30v-75c0-8.284 6.716-15 15-15h30c8.284 0 15 6.716 15 15v75c0 16.569-13.431 30-30 30z" fill="#ffe196"/><g><path d="m442 392h-15v120c16.569 0 30-13.431 30-30v-75c0-8.284-6.716-15-15-15z" fill="#ffb454"/></g></g><path d="m397 348.787h60v58.213h-60z" fill="#524798"/><g><path d="m427 348.787h30v58.213h-30z" fill="#38336b"/></g><path d="m427 172c-8.284 0-15 6.716-15 15v161.787h30v-161.787c0-8.284-6.716-15-15-15z" fill="#e4e4ff"/><g><g><path d="m442 187c0-8.284-6.716-15-15-15v176.787h15z" fill="#b7b4e7"/></g></g><path d="m489 362h-124c-8.284 0-15-6.716-15-15s6.716-15 15-15h124c8.284 0 15 6.716 15 15s-6.716 15-15 15z" fill="#ffb454"/><g><path d="m489 332h-62v30h62c8.284 0 15-6.716 15-15s-6.716-15-15-15z" fill="#ff8659"/></g><path d="m151 256c0 8.284 6.716 15 15 15h103.787l-14.393 14.394c-5.858 5.857-5.858 15.355 0 21.213 2.928 2.928 6.767 4.393 10.606 4.393s7.678-1.465 10.607-4.394l40-40c2.928-2.928 4.393-6.767 4.393-10.606z" fill="#38336b"/></g></svg>