<svg height="512" viewBox="0 0 61 61" width="512" xmlns="http://www.w3.org/2000/svg"><g id="Page-1" fill="none" fill-rule="evenodd"><g id="076---Sword-Break" fill-rule="nonzero"><path id="Shape" d="m43.98 38.89c-.3728225-.7450305-.5221584-1.5820061-.43-2.41l-10.5-9.87-.77 3.48-4.85 1.21-.21 4.99-3.43 1.55 11.72 8.51c1.5406074-.4239027 3.1909403-.0938361 4.45.89l.16.13-2.25 2.76c-.3326873.4135034-.284402 1.014876.11 1.37l-6.19 7.55-13.14-2.15c-6.9877108-1.244562-12.51297467-6.619317-13.95-13.57l-2.78-12.9c5.54610937-2.0080448 10.1498884-6.0025001 12.92-11.21l1.31 3.33 3.72.54 2.86-4.11 4.74 1.6 1.21-1.21h.01c2.2625591-.2076531 4.4863137-.72238 6.61-1.53l6.44 11.52c1.6234238 2.9045904 2.399491 6.2063404 2.24 9.53z" fill="#3f51b5"/><path id="Shape" d="m41.74 29.36-6.44-11.52c-.8369737.3095223-1.6890613.5765298-2.553.8l5.993 10.72c.7280973 1.3134164 1.2884764 2.7130202 1.668 4.166l3.142 2.954c-.0921584.8279939.0571775 1.6649695.43 2.41.159491-3.3236596-.6165762-6.6254096-2.24-9.53z" fill="#283593"/><path id="Shape" d="m35.51 46.35c.5399387-.1833161 1.1115508-.2547676 1.68-.21-.02.03-.04.05-.06.08l-6.98 8.51-10.85-1.78c-5.3628897-.9806412-9.59296481-5.1197044-10.69-10.46l-2.1-9.72c4.4953893-2.2798168 8.2793291-5.7490047 10.94-10.03l2.42.35.25-.37h.01c2.0856847.5050287 4.2240422.7601545 6.37.76 2.323239-.0031104 4.6372766-.2919453 6.89-.86l4.85 8.69c.06.11.12.22.18.34l-5.37-5.04-.77 3.48-4.85 1.21-.21 4.99-3.43 1.55z" fill="#02a9f4"/><path id="Shape" d="m32.927 27.166.123-.556 5.37 5.04c-.06-.12-.12-.23-.18-.34l-4.85-8.69c-.9.224-1.8.393-2.7.53z" fill="#0377bc"/><path id="Shape" d="m51.86 40.89-10.11 12.4c-.1666732.2074797-.4091759.3399622-.6738175.3681156-.2646416.0281533-.5295891-.0503451-.7361825-.2181156l-2.32-1.9c-.01-.01-.03-.02-.04-.04-.394402-.355124-.4426873-.9564966-.11-1.37l2.25-2.76 5.37-6.58 2.49-3.06c.1681158-.2059883.4113435-.3365453.6759261-.3628159s.5287344.0539083.7340739.2228159l2.32 1.89c.2074797.1666732.3399622.4091759.3681156.6738175.0281533.2646416-.0503451.5295891-.2181156.7361825z" fill="#ffeb3a"/><path id="Shape" d="m44.3540162 46.3573593h8c1.1045695 0 2 .8954305 2 2v2h-12v-2c0-1.1045695.8954305-2 2-2z" fill="#ffdc00" transform="matrix(-.632 .775 -.775 -.632 116.388 41.43)"/><path id="Shape" d="m48.008 51.945 4.651 3.792 3.798-4.659-4.658-3.783z" fill="#ff9801"/><rect id="Rectangle-path" fill="#ffdc00" height="4" rx="2" transform="matrix(-.632 .775 -.775 -.632 133.932 45.731)" width="10" x="51.105" y="52.675"/><path id="Shape" d="m30 18.06-2.53 2.52-4.74-1.6-2.86 4.11-3.72-.54-4.15-10.56 4.6-10.99 10.6 5.98z" fill="#9e9e9e"/><path id="Shape" d="m27.2 6.98-10.6-5.98-.573 1.369 8.173 4.611 2.8 11.08-1.771 1.764 2.241.756 2.53-2.52z" fill="#707070"/><path id="Shape" d="m45.49 40.79-5.37 6.58-.16-.13c-.8055923-.6126795-1.7635572-.9930988-2.77-1.1-.5684492-.0447676-1.1400613.0266839-1.68.21l-11.72-8.51 3.43-1.55.21-4.99 4.85-1.21.77-3.48 10.5 9.87c-.0921584.8279939.0571775 1.6649695.43 2.41.3240715.6735118.7796896 1.2753357 1.34 1.77z" fill="#9e9e9e"/><path id="Shape" d="m45.32 40.66c-.5603104-.4946643-1.0159285-1.0964882-1.34-1.77-.3728225-.7450305-.5221584-1.5820061-.43-2.41l-10.5-9.87-.516 2.331 8.016 7.539c-.0921584.8279939.0571775 1.6649695.43 2.41.3240715.6735118.7796896 1.2753357 1.34 1.77l.17.13-4.49 5.498c.7063297.1916197 1.3702398.5145847 1.957.952l.16.13 5.37-6.58z" fill="#707070"/><g fill="#000"><path id="Shape" d="m18.489 57.888 12.983 2.123c.099518.0321499.2034182.0486795.308.049.2651948-.0000566.5195073-.1054506.707-.293l.005-.005v-.005c.024-.025.048-.051.07-.077l5.548-6.767 1.594 1.3c.3554398.2917958.801128.4511974 1.261.451.0688079-.0002004.137562-.0038717.206-.011.5282181-.0516384 1.0137253-.3127606 1.348-.725l.632-.775.775.631c.532842.4370466 1.2008484.6756204 1.89.675.1032103.0001295.206355-.0052113.309-.016.7920464-.0778423 1.5199141-.469688 2.021-1.088l3.247 2.645c-.3282965.9147517-.1915134 1.9319946.3667567 2.7275346.5582702.7955399 1.4683669 1.27011 2.4402433 1.2724654.1032103.0001295.206355-.0052113.309-.016.7928611-.0757966 1.5222531-.4662465 2.025-1.084l3.791-4.651c.9233899-1.128045.8997463-2.7572859-.0559883-3.858061-.9557347-1.100775-2.5655292-1.3528596-3.8120117-.596939l-3.25-2.64c1.0453463-1.2842659.8524363-3.1726354-.431-4.219l-.776-.635.631-.775c.3352462-.4110804.4934545-.9385033.4398187-1.4662346s-.3147218-1.0125393-.7258187-1.3477654l-2.325-1.9c-.4110804-.3352462-.9385033-.4934545-1.4662346-.4398187s-1.0125393.3147218-1.3477654.7258187l-1.794 2.2c-.1606999-.2072707-.3041782-.4273376-.429-.658.1128755-3.4123239-.7068599-6.790837-2.371-9.772l-6.44-11.52c-.2409476-.4316176-.761104-.6224266-1.224-.449-1.2859679.4791892-2.6090693.8521058-3.956 1.115-.0012982-.0672458-.0089996-.134215-.023-.2l-2.8-11.08c-.0672244-.26544738-.2403596-.49171594-.479-.626l-10.596-5.978c-.2487727-.14038539-.5457059-.16768191-.8159036-.07500449s-.487864.29648086-.5980964.56000449l-4.6 10.993c-.0995153.2399141-.102382.5090204-.008.751l2.667 6.793c-2.6828955 4.7984845-7.00424861 8.4701969-12.173 10.343-.46335913.1750318-.72876818.6628911-.624 1.147l2.781 12.9c1.53550622 7.3461549 7.3786983 13.0235406 14.766 14.347zm33.454-9.188 3.105 2.521-2.356 2.89-.176.217-3.1-2.527zm6.689 2.873c.4277199.3493333.4912933.9792474.142 1.407l-3.791 4.651c-.1665016.2059267-.4084964.3366472-.672.363-.2642018.0256489-.5278805-.0537422-.734-.221-.4270739-.349256-.490615-.9784027-.142-1.406l3.794-4.653c.3490738-.4229025.9736074-.4858019 1.4-.141zm-7.895-7.723.776.631c.4277199.3493333.4912933.9792474.142 1.407l-4.422 5.425-.631.775c-.1669562.2058979-.4092383.336579-.673.363-.2640303.0239308-.5270748-.0552693-.734-.221l-.775-.63 4.47-5.484zm-1.98-5.485 2.325 1.895-4.32 5.3-4.526 5.552-1.261 1.548-2.327-1.893 5.055-6.2zm-30.816-14.548 1.789.259c.0476138.0076375.0957786.0113167.144.011.2464031-.0005653.4839227-.0920834.667-.257 4.07036.8758602 8.2826435.8547032 12.344-.062l1.538 2.756-.685-.644c-.2619206-.2466742-.6361644-.3336286-.9800106-.2277025-.3438463.1059262-.6042825.3884018-.6819894.7397025l-.64 2.879-4.252 1.055c-.4315682.1072709-.7404476.4866465-.758.931l-.177 4.379-2.869 1.3c-.3245321.1467564-.5465113.4550507-.5827675.8093726s.1186837.7011847.4067675.9106274l11.72 8.509c.0321884.0197471.0655878.0374488.1.053l-5.281 6.432-10.283-1.687c-4.9587364-.9105861-8.8662502-4.7436861-9.872-9.684l-1.941-8.979c4.1640681-2.2592351 7.7014099-5.5178918 10.294-9.483zm17.767 21.442-9.936-7.213 1.864-.842c.3446638-.1559321.5718321-.4930081.587-.871l.12-3 13.178 10.744-1.59 1.949c-1.2594274-.7820495-2.7690029-1.0562253-4.223-.767zm7.076-2.733-13.176-10.74 2.911-.723c.367927-.0913866.6525403-.3829701.735-.753l.393-1.77 8.877 8.349c.01052 1.4836993.5821355 2.908451 1.6 3.988zm-1.918-12.679c.7558458 1.3550122 1.3214924 2.8076574 1.681 4.317l-3.312-3.114c-.035-.067-.073-.138-.122-.228l-4.85-8.689c-.2202402-.3951015-.6782799-.5931616-1.117-.483-3.7056742.9393097-7.5693192 1.0756897-11.332.4l1.311-1.881 4.027 1.356c.3596411.1215377.7570886.0289549 1.026-.239l.972-.969c1.9376237-.2037143 3.846247-.6243494 5.69-1.254zm-23.775-27.423 9.244 5.219 2.556 10.113-1.691 1.68-4.151-1.4c-.421111-.1422497-.8855719.0105335-1.14.375l-2.507 3.6-2.54-.368-3.783-9.636zm-2.426 19.082.552 1.406c.0995675.2523025.2973528.4533361.548.557-2.5050099 3.5518863-5.83872314 6.439022-9.712 8.411-.40250652.2065914-.61616479.6576933-.521 1.1l2.1 9.72c1.18210814 5.7431189 5.7365281 10.1910607 11.506 11.237l10.85 1.78c.0534974.0092101.1077185.0135611.162.013.2998216.0001999.5839131-.1341379.774-.366l6.676-8.138c.3649561.0805592.718377.2065409 1.052.375l-1.552 1.899c-.4331117.5352755-.5604238 1.2557033-.337 1.907l-5.375 6.561-12.576-2.055c-6.5773254-1.1873878-11.77455008-6.2500719-13.134-12.794l-2.6-12.071c4.74958429-1.9169736 8.7947502-5.2482045 11.587-9.542z"/><path id="Shape" d="m20.845 16.449c.1350297.4097284.517595.6866751.949.687.1064088.000088.2121231-.017137.313-.051.5243617-.1731792.8090913-.7386093.636-1.263l-2.506-7.6c-.1731413-.52467051-.7388295-.80964127-1.2635-.6365s-.8096413.73882949-.6365 1.2635z"/></g></g></g></svg>