<svg id="Capa_1" enable-background="new 0 0 512 512" height="512" viewBox="0 0 512 512" width="512" xmlns="http://www.w3.org/2000/svg"><g><g><g><g><path d="m402.88 184.89v309.61c0 5.52-4.48 10-10 10h-273.76c-5.52 0-10-4.48-10-10v-309.61z" fill="#554e55"/><g fill="#433f43"><path d="m342.36 184.89c-3.81 15.01-11.59 29.21-23.33 40.95-34.53 34.53-90.35 34.81-125.22.83-12.16-11.84-20.19-26.38-24.08-41.78z"/><path d="m109.121 184.888h293.757v44.595h-293.757z"/><path d="m402.88 184.89v309.61c0 5.52-4.48 10-10 10h-33.44c5.52 0 10-4.48 10-10v-309.61z"/></g><path d="m402.88 410.07v84.43c0 5.52-4.48 10-10 10h-273.76c-5.52 0-10-4.48-10-10v-84.43z" fill="#2db181"/><path d="m109.12 410.07h293.76v35.614h-293.76z" fill="#158f5e"/><path d="m402.88 410.07v84.43c0 5.52-4.48 10-10 10h-33.44c5.52 0 10-4.48 10-10v-84.43z" fill="#158f5e"/></g><g><path d="m410.097 205.017h-308.194c-5.508 0-9.973-4.465-9.973-9.973v-25.906c0-5.508 4.465-9.973 9.973-9.973h308.195c5.508 0 9.973 4.465 9.973 9.973v25.906c-.001 5.508-4.466 9.973-9.974 9.973z" fill="#2db181"/><g><path d="m420.068 169.143v25.9c0 5.505-4.468 9.973-9.973 9.973h-26.987c5.505 0 9.973-4.468 9.973-9.973v-25.9c0-5.515-4.468-9.973-9.973-9.973h26.987c5.505-.001 9.973 4.457 9.973 9.973z" fill="#158f5e"/></g></g><g><g><path d="m342.053 98.756 22.582-22.582-45.95-45.95-22.585 22.584c-2.572 2.572-6.399 3.433-9.821 2.199-31.573-11.378-68.285-4.365-93.522 21.042-34.788 35.022-34.3 92.216 1.055 126.666 34.871 33.977 90.683 33.701 125.213-.829 25.247-25.247 32.18-61.872 20.802-93.37-1.227-3.399-.33-7.205 2.226-9.76z" fill="#b5dbfd"/><path d="m346.384 94.424 18.25-18.25-45.95-45.95-18.209 18.209c15.282 15.352 30.606 30.661 45.909 45.991z" fill="#8dcafc"/><path d="m339.824 108.516c11.379 31.495 4.448 68.127-20.794 93.369-34.537 34.527-90.347 34.806-125.213.828-3.371-3.281-6.423-6.782-9.165-10.442 34.916 26.14 84.622 23.337 116.357-8.397 25.252-25.242 32.183-61.874 20.804-93.369-1.227-3.401-.329-7.201 2.224-9.764l22.589-22.579 18.011 18.012-22.589 22.579c-2.553 2.562-3.45 6.362-2.224 9.763z" fill="#8dcafc"/><path d="m319.026 201.882c-34.532 34.532-90.345 34.811-125.213.829-35.357-34.443-35.844-91.644-1.055-126.663 1.215-1.224 2.452-2.398 3.72-3.533 3.675 9.873 9.483 19.13 17.419 27.066 13.584 13.584 31.047 20.939 48.817 22.048 17.787 1.099 35.255 8.441 48.856 22.043 11.505 11.505 18.532 25.803 21.081 40.712-3.716 6.241-8.256 12.129-13.625 17.498z" fill="#158f5e"/><path d="m332.654 184.382c-3.72 6.243-8.258 12.127-13.623 17.503-34.537 34.527-90.347 34.806-125.213.828-3.371-3.281-6.433-6.782-9.165-10.442 34.916 26.14 84.622 23.337 116.357-8.397 8.677-8.677 15.189-18.69 19.537-29.381 6.272 9.144 10.302 19.367 12.107 29.889z" fill="#0f7a4f"/><path d="m319.026 201.882c-34.532 34.532-90.345 34.811-125.213.829-35.357-34.443-35.844-91.644-1.055-126.663 4.265-4.292 8.854-8.056 13.69-11.296 13.628 2.633 26.645 9.239 37.197 19.791 12.954 12.954 19.959 29.598 20.997 46.542 1.06 16.931 8.064 33.566 21.01 46.511 10.631 10.631 23.763 17.264 37.502 19.866-1.313 1.507-2.691 2.984-4.128 4.42z" fill="#fb3a82"/><path d="m319.024 201.88c-34.532 34.532-90.345 34.811-125.214.829-2.753-2.682-5.294-5.498-7.621-8.437-.009-.009-.013-.022-.022-.031-27.576-34.776-25.483-85.911 6.588-118.195 4.265-4.292 8.854-8.056 13.69-11.296 13.628 2.633 26.645 9.239 37.197 19.791 12.954 12.954 19.959 29.598 20.997 46.542 1.06 16.931 8.064 33.566 21.01 46.511 4.917 4.917 10.365 8.982 16.16 12.179 6.748 3.724 13.956 6.287 21.343 7.688-1.313 1.506-2.691 2.982-4.128 4.419z" fill="#fb3a82"/><path d="m319.024 201.88c-34.532 34.532-90.345 34.811-125.214.829-2.753-2.682-5.294-5.498-7.621-8.437-.009-.009-.013-.022-.022-.031-.018-.018-.031-.04-.044-.062-27.527-34.771-25.421-85.867 6.632-118.133 4.265-4.292 8.854-8.056 13.69-11.296 13.628 2.633 26.645 9.239 37.197 19.791 12.954 12.954 19.959 29.598 20.997 46.542 1.06 16.931 8.064 33.566 21.01 46.511 4.917 4.917 10.365 8.982 16.16 12.179 6.748 3.724 13.956 6.287 21.343 7.688-1.313 1.506-2.691 2.982-4.128 4.419z" fill="#a3e440"/><path d="m323.149 197.456c-1.307 1.506-2.693 2.992-4.129 4.428-34.527 34.527-90.337 34.806-125.213.828-2.753-2.683-5.286-5.505-7.62-8.437-.01-.01-.01-.03-.02-.03-.02-.02-.03-.04-.05-.07-.499-.628-.987-1.256-1.456-1.895 33.649 25.182 81.042 23.487 112.836-5.086 1.406.918 2.842 1.775 4.308 2.583 6.754 3.72 13.964 6.283 21.344 7.679z" fill="#8dc637"/><path d="m363.678 84.417-53.236-53.237c-5.417-5.417-5.417-14.2 0-19.617 5.417-5.417 14.2-5.417 19.617 0l53.237 53.237c5.417 5.417 5.417 14.2 0 19.617-5.418 5.417-14.201 5.417-19.618 0z" fill="#d9ecfd"/><path d="m383.297 84.421c-2.713 2.703-6.263 4.059-9.814 4.059s-7.101-1.356-9.804-4.059l-16.067-16.067c2.713 2.713 6.263 4.059 9.814 4.059s7.101-1.346 9.804-4.059c5.415-5.415 5.415-14.202 0-19.617l16.067 16.067c5.416 5.415 5.416 14.191 0 19.617z" fill="#b5dbfd"/></g></g></g><g><path d="m410.5 420.778h-309c-5.523 0-10-4.477-10-10v-11.76c0-5.523 4.477-10 10-10h309c5.523 0 10 4.477 10 10v11.76c0 5.523-4.477 10-10 10z" fill="#fcc16d"/><path d="m420.5 399.019v11.76c0 5.52-4.48 10-10 10h-27.38c5.52 0 10-4.48 10-10v-11.76c0-5.52-4.48-10-10-10h27.38c5.52 0 10 4.48 10 10z" fill="#fca62f"/></g><g><g><g><path d="m157.908 307.201v27.719c-9.674 4.549-16.363 14.397-16.325 25.804.053 15.724 13.045 28.496 28.767 28.292 15.507-.201 28.016-12.834 28.016-28.389 0-11.373-6.688-21.184-16.345-25.716v-27.71z" fill="#b5dbfd"/><path d="m198.37 360.63c0 15.55-12.51 28.18-28.02 28.39-14.08.18-25.96-10.04-28.33-23.47 4.73 4.76 11.3 7.69 18.51 7.6 14.01-.18 25.31-11.59 25.31-25.64 0-4.44-1.13-8.61-3.11-12.25 9.28 4.66 15.64 14.27 15.64 25.37z" fill="#8dcafc"/></g></g></g><g><g><g><path d="m239.336 286.201v48.719c-9.674 4.549-16.363 14.397-16.325 25.804.053 15.724 13.045 28.496 28.767 28.292 15.507-.201 28.016-12.834 28.016-28.389 0-11.373-6.688-21.184-16.345-25.716v-48.71z" fill="#fb1466"/><path d="m239.336 286.201h24.113v28.47h-24.113z" fill="#b5dbfd"/><path d="m279.798 360.63c0 15.55-12.51 28.18-28.02 28.39-14.08.18-25.96-10.04-28.33-23.47 4.73 4.76 11.3 7.69 18.51 7.6 14.01-.18 25.31-11.59 25.31-25.64 0-4.44-1.13-8.61-3.11-12.25 9.28 4.66 15.64 14.27 15.64 25.37z" fill="#cf0e50"/></g></g></g><g><path d="m353.578 389.017h-92.534l11.81-27.888c1.566-3.698 5.192-6.1 9.208-6.1h50.498c4.016 0 7.642 2.402 9.208 6.1z" fill="#f2eff2"/><path d="m353.581 389.018h-25.9l-11.81-27.89c-1.57-3.7-5.19-6.1-9.21-6.1h25.9c4.01 0 7.64 2.4 9.21 6.1z" fill="#cbc5cb"/></g></g><g><path d="m204.286 139.08-.046.046c-2.929 2.93-2.905 7.655.023 10.584 1.459 1.459 3.374 2.186 5.292 2.186 1.933 0 3.867-.738 5.338-2.208 2.929-2.93 2.929-7.678 0-10.607s-7.677-2.929-10.607-.001z"/><path d="m226.51 123.774c2.929-2.93 2.929-7.678 0-10.607-2.93-2.928-7.678-2.928-10.607 0l-.046.046c-2.929 2.93-2.905 7.655.023 10.584 1.459 1.459 3.374 2.186 5.292 2.186 1.932-.001 3.867-.739 5.338-2.209z"/><path d="m253.766 188.96c-2.93-2.928-7.678-2.928-10.607 0l-.046.046c-2.929 2.93-2.905 7.655.023 10.584 1.459 1.459 3.374 2.186 5.292 2.186 1.933 0 3.867-.738 5.338-2.208 2.928-2.93 2.928-7.678 0-10.608z"/><path d="m410.5 381.519h-.121v-169.016c9.504-.152 17.191-7.92 17.191-17.459v-25.905c0-9.635-7.838-17.474-17.473-17.474h-58.396c2.044-15.153.548-30.838-4.819-45.696-.23-.641-.045-1.391.475-1.909l12.775-12.775c3.889 3.119 8.62 4.685 13.355 4.685 5.473 0 10.946-2.084 15.113-6.249 4.036-4.037 6.259-9.403 6.259-15.112s-2.223-11.075-6.259-15.112l-53.238-53.238c-4.037-4.036-9.403-6.259-15.112-6.259s-11.075 2.223-15.112 6.26c-7.771 7.771-8.287 20.084-1.564 28.467l-12.777 12.777c-.518.518-1.295.693-1.975.447-35.219-12.691-75.014-3.738-101.386 22.813-18.239 18.362-28.168 42.821-27.955 68.872.033 4.058.312 8.073.828 12.029h-58.407c-9.635 0-17.473 7.839-17.473 17.474v25.905c0 9.54 7.687 17.307 17.191 17.459v44.965c0 4.143 3.357 7.5 7.5 7.5s7.5-3.357 7.5-7.5v-44.951h76.834c12.586 10.702 27.65 17.979 43.943 21.16.485.095.969.14 1.445.14 3.516 0 6.654-2.483 7.354-6.063.794-4.065-1.858-8.005-5.924-8.799-15.583-3.042-29.839-10.516-41.227-21.612-15.662-15.261-24.387-35.798-24.566-57.829-.18-22.017 8.201-42.679 23.599-58.18 3.125-3.146 6.48-5.989 10.009-8.541 11.434 2.792 21.842 8.641 30.253 17.051 11.17 11.171 17.852 25.979 18.815 41.708 1.212 19.367 9.448 37.603 23.191 51.347 8.138 8.137 17.792 14.317 28.383 18.271-11.01 9.337-24.207 15.545-38.545 18.062-4.08.716-6.808 4.604-6.091 8.683.639 3.642 3.805 6.205 7.378 6.205.431 0 .866-.037 1.305-.114 17.034-2.988 32.707-10.374 45.767-21.488h36.188c4.143 0 7.5-3.357 7.5-7.5s-3.357-7.5-7.5-7.5h-21.969c7.111-9.332 12.395-19.808 15.708-30.853h61.626c1.363 0 2.473 1.109 2.473 2.474v25.905c0 1.364-1.109 2.474-2.473 2.474h-22.705c-4.143 0-7.5 3.357-7.5 7.5s3.357 7.5 7.5 7.5h7.986v169.001h-36.832l-9.873-23.313c-2.747-6.485-9.072-10.676-16.115-10.676h-47.74c-2.733-6.993-7.571-12.931-13.871-17.014v-37.139c3.077-.935 5.317-3.792 5.317-7.175 0-4.143-3.357-7.5-7.5-7.5h-34.748c-4.143 0-7.5 3.357-7.5 7.5 0 3.383 2.24 6.24 5.317 7.175v37.16c-10.091 6.585-16.366 17.975-16.325 30.213.025 7.555 2.394 14.743 6.747 20.77h-23.164c4.256-5.902 6.775-13.123 6.775-20.892 0-12.197-6.281-23.543-16.345-30.103v-16.148c3.077-.935 5.317-3.792 5.317-7.175 0-4.143-3.357-7.5-7.5-7.5h-34.747c-4.143 0-7.5 3.357-7.5 7.5 0 3.383 2.24 6.24 5.317 7.175v16.16c-10.091 6.585-16.366 17.974-16.325 30.213.025 7.555 2.394 14.744 6.746 20.77h-24.208v-91.39c0-4.143-3.357-7.5-7.5-7.5s-7.5 3.357-7.5 7.5v91.39h-.12c-9.649 0-17.5 7.851-17.5 17.5v11.759c0 9.649 7.851 17.5 17.5 17.5h.121v66.221c0 9.649 7.851 17.5 17.5 17.5h273.758c9.649 0 17.5-7.851 17.5-17.5v-66.223h.121c9.649 0 17.5-7.851 17.5-17.5v-11.759c0-9.649-7.851-17.499-17.5-17.499zm-231.301-184.001h-77.297c-1.363 0-2.473-1.109-2.473-2.474v-25.905c0-1.364 1.109-2.474 2.473-2.474h61.594c3.305 11.137 8.598 21.566 15.703 30.853zm136.546-180.652c1.242-1.242 2.873-1.863 4.505-1.863s3.263.621 4.505 1.863l53.237 53.237c2.484 2.483 2.484 6.526.001 9.01-2.484 2.484-6.528 2.484-9.011 0l-53.237-53.237c-2.484-2.483-2.484-6.526 0-9.01zm-90.031 46.246c18.256-7.271 38.933-7.929 58.023-1.05 6.122 2.207 13.059.655 17.668-3.951l12.681-12.681 35.343 35.343-12.679 12.679c-4.612 4.613-6.173 11.525-3.975 17.611 6.137 16.99 6.295 35.259 1.131 51.958-4.095-9.108-9.823-17.444-17.032-24.654-12.823-12.822-29.499-21.083-47.358-23.573-3.602-13.345-10.634-25.623-20.566-35.556-6.796-6.794-14.657-12.219-23.236-16.126zm46.414 67.513c-.003-.054-.01-.108-.014-.162 12.862 2.72 24.765 9.125 34.151 18.512 9.37 9.37 15.713 21.043 18.457 33.904-1.369 2.146-2.852 4.229-4.429 6.251-11.073-2.882-21.146-8.645-29.338-16.838-11.158-11.157-17.845-25.958-18.827-41.667zm-111.028 211.082c2.63-1.236 4.309-3.881 4.309-6.787v-20.219h9.112v20.21c0 2.908 1.682 5.555 4.314 6.79 7.308 3.429 12.03 10.857 12.03 18.926 0 11.371-9.247 20.742-20.613 20.89-.092.001-.183.001-.275.001-5.487 0-10.675-2.134-14.631-6.025-4.02-3.955-6.244-9.209-6.263-14.794-.027-8.093 4.689-15.547 12.017-18.992zm173.762 22.348 7.396 17.463h-69.894l7.396-17.463c.393-.927 1.296-1.525 2.303-1.525h50.497c1.006-.001 1.91.598 2.302 1.525zm-78.913-70.354v13.47h-9.113v-13.47zm-13.422 48.006c2.63-1.236 4.309-3.881 4.309-6.787v-12.749h9.113v12.74c0 2.908 1.681 5.554 4.313 6.789 4.55 2.136 8.12 5.779 10.157 10.258-1.896 1.69-3.438 3.805-4.472 6.247l-9.616 22.708c-1.515.367-3.067.583-4.65.604-.092.001-.183.001-.275.001-5.488 0-10.675-2.134-14.632-6.026-4.02-3.954-6.244-9.208-6.263-14.793-.028-8.093 4.689-15.547 12.016-18.992zm152.852 152.793c0 1.379-1.121 2.5-2.5 2.5h-273.758c-1.379 0-2.5-1.121-2.5-2.5v-66.223h278.758zm17.621-83.723c0 1.379-1.121 2.5-2.5 2.5h-309c-1.379 0-2.5-1.121-2.5-2.5v-11.759c0-1.379 1.121-2.5 2.5-2.5h309c1.379 0 2.5 1.121 2.5 2.5z"/></g></g></svg>