<svg id="Flat" height="512" viewBox="0 0 340 340" width="512" xmlns="http://www.w3.org/2000/svg" xmlns:xlink="http://www.w3.org/1999/xlink"><linearGradient id="linear-gradient" gradientUnits="userSpaceOnUse" x1="339.153" x2="130.248" y1="251.322" y2="93.764"><stop offset="0" stop-color="#e5dbfc"/><stop offset="1" stop-color="#cab5ea"/></linearGradient><linearGradient id="linear-gradient-2" gradientUnits="userSpaceOnUse" x1="65.721" x2="65.721" y1="215.708" y2="56.939"><stop offset="0" stop-color="#bac7fa"/><stop offset="1" stop-color="#e8f1ff"/></linearGradient><linearGradient id="linear-gradient-3" gradientUnits="userSpaceOnUse" x1="170.664" x2="276.282" y1="85.618" y2="242.224"><stop offset=".004" stop-color="#a3b0e5"/><stop offset="1" stop-color="#9266bc"/></linearGradient><linearGradient id="linear-gradient-4" gradientUnits="userSpaceOnUse" x1="65.721" x2="65.721" y1="57.999" y2="243.561"><stop offset="0" stop-color="#b9c9fa"/><stop offset="1" stop-color="#7280ba"/></linearGradient><linearGradient id="New_Gradient_Swatch_7" gradientUnits="userSpaceOnUse" x1="65.721" x2="65.721" y1="247.462" y2="299.176"><stop offset="0" stop-color="#6b6b98"/><stop offset="1" stop-color="#3c3c6b"/></linearGradient><linearGradient id="linear-gradient-5" gradientUnits="userSpaceOnUse" x1="125.546" x2="72.507" y1="244.638" y2="249.359"><stop offset="0" stop-color="#fc908b"/><stop offset="1" stop-color="#ea5936"/></linearGradient><linearGradient id="linear-gradient-6" gradientUnits="userSpaceOnUse" x1="12.302" x2="57.157" y1="241.733" y2="252.435"><stop offset="0" stop-color="#ffa753"/><stop offset="1" stop-color="#ffd3ac"/></linearGradient><path d="m324.79 164.234a100.728 100.728 0 0 1 -25.718 67.374l-8.1 8.092a101.111 101.111 0 0 1 -134.662-.078l-8.092-8.1a101.112 101.112 0 0 1 0-134.575l8.092-8.1a101.11 101.11 0 0 1 134.662-.079l8.1 8.092a100.73 100.73 0 0 1 25.718 67.374z" fill="url(#linear-gradient)"/><circle cx="223.684" cy="164.234" fill="#fff" r="83.022"/><path d="m231.7 164.234 67.371-67.371a101.72 101.72 0 0 0 -8.1-8.091l-67.371 67.366-67.287-67.288a101.72 101.72 0 0 0 -8.091 8.1l67.283 67.283-67.282 67.282a101.54 101.54 0 0 0 8.09 8.1l67.287-67.286 67.366 67.371a101.72 101.72 0 0 0 8.1-8.091z" fill="#fff"/><path d="m63.387 33.671a114.135 114.135 0 0 0 -11.265 13.517 17.164 17.164 0 0 0 -3.1 9.89v155.922a103.232 103.232 0 0 0 33.4-13.812v-142.11a17.164 17.164 0 0 0 -3.1-9.89 114.026 114.026 0 0 0 -11.267-13.517 3.253 3.253 0 0 0 -4.668 0z" fill="url(#linear-gradient-2)"/><circle cx="223.684" cy="164.234" fill="url(#linear-gradient-3)" r="71.968"/><path d="m257.828 164.92 14.977-28.12a3.386 3.386 0 0 0 -2.989-4.978h-16.948a3.386 3.386 0 1 0 0 6.772h11.308l-10.185 19.12-27.4-51.443a3.386 3.386 0 0 0 -5.977 0l-13.614 25.555h-29.615a3.386 3.386 0 0 0 -2.985 4.974l14.977 28.117-14.977 28.121a3.386 3.386 0 0 0 2.988 4.978h17.132a3.387 3.387 0 0 0 0-6.773h-11.494l10.184-19.119 27.4 51.443a3.386 3.386 0 0 0 5.977 0l13.61-25.551h29.617a3.386 3.386 0 0 0 2.989-4.978zm-34.228-49.851 8.925 16.757h-17.85zm0 99.7-8.926-16.757h17.851zm20.206-23.53 5.89-11.058a3.386 3.386 0 0 0 -5.976-3.181l-7.586 14.242h-25.066l-28.042-52.642h20.368l-5.889 11.058a3.386 3.386 0 0 0 5.977 3.184l7.586-14.242h25.066l28.042 52.645z" fill="#fff"/><path d="m69.108 204.7v-148.744a3.387 3.387 0 0 0 -6.773 0v151.544l-13.313 5.5v5.469s8.35 6.756 8.35 28.166h16.7c0-21.41 8.35-28.166 8.35-28.166v-19.279z" fill="url(#linear-gradient-4)"/><path d="m57.024 250.039h17.395a0 0 0 0 1 0 0v48.58a8.7 8.7 0 0 1 -8.7 8.7 8.7 8.7 0 0 1 -8.7-8.7v-48.58a0 0 0 0 1 .005 0z" fill="url(#New_Gradient_Swatch_7)"/><path d="m103.88 259.758a13.059 13.059 0 0 1 -8.37-2.391 22.687 22.687 0 0 0 -13.169-3.986h-16.62a42.273 42.273 0 0 1 0-13.489h17.033a23.54 23.54 0 0 0 13.057-4.192 13.135 13.135 0 0 1 20.407 11.574 13.24 13.24 0 0 1 -12.338 12.484z" fill="url(#linear-gradient-5)"/><path d="m65.721 239.892h-17.032a23.54 23.54 0 0 1 -13.057-4.192 13.135 13.135 0 0 0 -20.407 11.574 13.239 13.239 0 0 0 12.338 12.485 13.057 13.057 0 0 0 8.369-2.391 22.693 22.693 0 0 1 13.17-3.986h16.619z" fill="url(#linear-gradient-6)"/></svg>