<?xml version="1.0"?>
<svg xmlns="http://www.w3.org/2000/svg" xmlns:xlink="http://www.w3.org/1999/xlink" xmlns:svgjs="http://svgjs.com/svgjs" version="1.1" width="512" height="512" x="0" y="0" viewBox="0 0 256 256" style="enable-background:new 0 0 512 512" xml:space="preserve" class=""><g><g xmlns="http://www.w3.org/2000/svg"><g><g><path d="m168.341 64.7-.437.437-39.904 39.903-40.341-40.34-56.17-56.535v56.535l77.381 80.348h38.26l77.381-80.348v-56.535z" fill="#924aff" data-original="#ff4a73" class=""/><path d="m124.482 145.048h-15.612l-77.381-80.348v-56.535l15.611 15.715v40.82z" fill="#ae7afb" data-original="#f973a3" class=""/><g fill="#ea2a6a"><path d="m224.511 8.165v56.535l-77.381 80.348h-15.612l77.382-80.348v-40.82z" fill="#642aea" data-original="#ea2a6a" class=""/><path d="m31.487 8.165 56.172 56.536h80.682l56.172-56.536z" fill="#642aea" data-original="#ea2a6a" class=""/></g></g><g><circle cx="128.01" cy="186.262" fill="#ffdf5c" r="61.573" data-original="#f9d335" class=""/><path d="m137.893 247.044c-3.217.514-6.525.791-9.887.791-33.999 0-61.564-27.566-61.564-61.577 0-33.999 27.565-61.564 61.564-61.564 3.362 0 6.67.277 9.887.791-29.306 4.733-51.677 30.136-51.677 60.773 0 30.636 22.372 56.053 51.677 60.786z" fill="#fbe996" data-original="#f9e27d" class=""/><g fill="#f2c300"><path d="m189.583 186.257c0 34.012-27.565 61.577-61.577 61.577-3.362 0-6.671-.277-9.887-.791 29.319-4.733 51.69-30.136 51.69-60.786 0-30.637-22.371-56.041-51.69-60.773 3.217-.514 6.525-.791 9.887-.791 34.012 0 61.577 27.565 61.577 61.564z" fill="#ffd31c" data-original="#f2c300" class=""/><path d="m132.677 155.68 6.765 13.708c.758 1.536 2.223 2.6 3.918 2.847l15.127 2.198c4.268.62 5.973 5.866 2.884 8.876l-10.946 10.67c-1.226 1.196-1.786 2.918-1.497 4.606l2.584 15.066c.729 4.251-3.733 7.493-7.551 5.486l-13.53-7.113c-1.516-.797-3.327-.797-4.843 0l-13.53 7.113c-3.818 2.007-8.28-1.235-7.551-5.486l2.584-15.066c.29-1.688-.27-3.411-1.497-4.606l-10.946-10.67c-3.089-3.011-1.384-8.256 2.884-8.876l15.127-2.198c1.695-.246 3.16-1.311 3.918-2.847l6.765-13.708c1.911-3.868 7.426-3.868 9.335 0z" fill="#ffd31c" data-original="#f2c300" class=""/></g></g></g><g fill="#5f266d"><path d="m224.51 4.16c-165.914 0-189.811-.066-193.423.059-1.548.054-3.597 1.405-3.597 4.141v56.34c0 1.03.4 2.03 1.12 2.77l62.33 64.73c-17.2 11.83-28.5 31.65-28.5 54.06 0 36.16 29.41 65.58 65.57 65.58s65.57-29.42 65.57-65.58c0-22.42-11.31-42.24-28.52-54.07l62.33-64.72c.72-.74 1.12-1.74 1.12-2.77v-56.34c0-2.856-2.197-4.2-4-4.2zm-9.61 8-48.23 48.54h-77.34l-48.23-48.54zm-56.22 56.54-30.68 30.68-30.68-30.68zm26.9 117.56c0 31.75-25.82 57.58-57.57 57.58s-57.57-25.83-57.57-57.58c0-45.281 50.48-73.335 88.99-48.22 15.74 10.29 26.15 28.06 26.15 48.22zm34.93-123.17-62.48 64.88c-18.833-9.73-41.303-9.697-60.05.01l-62.49-64.89v-45.22c60.568 60.961 40.107 40.427 89.68 90 1.56 1.56 4.102 1.558 5.66 0l39.9-39.9.41-.41 49.37-49.69z" fill="#0a0a0a" data-original="#5f266d" class=""/><path d="m143.03 167.62-6.77-13.71c-3.366-6.818-13.116-6.85-16.5 0l-6.77 13.71c-.451.928-.532.607-16.03 2.85-7.558 1.104-10.554 10.397-5.1 15.7l10.94 10.67c.29.28.42.68.35 1.07l-2.58 15.06c-1.293 7.499 6.572 13.249 13.35 9.71l13.53-7.12c.922-.474.763-.188 14.65 7.12 6.74 3.543 14.637-2.178 13.36-9.71-2.671-15.533-2.985-15.41-2.24-16.13l10.94-10.67c5.454-5.303 2.458-14.596-5.1-15.7l-15.12-2.19c-.4-.06-.73-.31-.91-.66zm15.55 12.82c-16.651 16.225-14.991 10.638-11.01 33.89.164 1-.862 1.722-1.75 1.27l-13.53-7.12c-2.68-1.4-5.88-1.4-8.56 0-13.884 7.306-13.831 7.747-14.8 7.02-.977-.698-.543-.802 2.1-16.24.52-2.99-.47-6.03-2.64-8.15-11.717-11.418-11.594-10.9-11.25-11.9.313-1-.126-.661 16.1-3.02 2.99-.43 5.59-2.32 6.93-5.03l6.76-13.71c.442-.9 1.718-.9 2.16 0 10.306 20.872 5.518 17.549 28.82 20.94.989.146 1.391 1.345.67 2.05z" fill="#0a0a0a" data-original="#5f266d" class=""/><path d="m129.05 32.3h5.96c2.21 0 4-1.79 4-4s-1.79-4-4-4h-5.96c-2.21 0-4 1.79-4 4s1.79 4 4 4z" fill="#0a0a0a" data-original="#5f266d" class=""/><path d="m150.01 32.3h28c2.21 0 4-1.79 4-4s-1.79-4-4-4h-28c-2.2 0-4 1.79-4 4s1.8 4 4 4z" fill="#0a0a0a" data-original="#5f266d" class=""/></g></g></g></svg>
