<svg id="Layer_1" enable-background="new 0 0 510 510" height="512" viewBox="0 0 510 510" width="512" xmlns="http://www.w3.org/2000/svg"><g><g><path d="m255 0c-98.131 0-158.58 55.352-158.747 55.445 0 0-2.513 3.137-2.983 5.222-3.818 16.948-7.385 39.663-7.385 56.238 0 140.833 118.763 254.972 259.596 254.972 54.231 0 114.568-25.992 154.949-57.243.903-.699 3.769-5.396 3.769-5.396.178-1.087 5.8-23.477 5.8-54.239.001-140.832-114.166-254.999-254.999-254.999z" fill="#afe6ff"/><path d="m345.459 364.679c-140.833 0-255-114.167-255-255 0-18.615 2.008-36.753 5.795-54.234-58.645 46.72-96.254 118.747-96.254 199.555 0 70.416 28.542 134.166 74.688 180.312.341.342.684.682 1.027 1.022l358.553.009c34.384-33.968 59.236-77.736 69.931-127.104-43.559 34.695-98.724 55.44-158.74 55.44z" fill="#73c8f0"/></g><g><g><path d="m368.658 321.571h-64.998v-11.676h64.998c6.089 0 11.043-4.954 11.043-11.043v-30.095h11.676v30.095c0 12.527-10.192 22.719-22.719 22.719z" fill="#05cdff"/></g><g><path d="m334.102 12.141h-111.838v12.126c0 6.881 5.578 12.46 12.46 12.46h91.208c13.13-.001 18.689-16.727 8.17-24.586z" fill="#195fa0"/></g><g><path d="m228.527 12.715.67-.575h-56.26l-.67.575c-9.617 8.25-3.783 24.011 8.888 24.011h56.26c-12.671 0-18.505-15.761-8.888-24.011z" fill="#00558c"/></g><g><path d="m302.096.503h-97.108c-.667 0-1.332.011-1.996.025v14.886c.665-.018 1.327-.051 1.996-.051h97.108c40.62 0 73.666 33.046 73.666 73.666v71.059h14.86v-71.058c0-48.814-39.712-88.527-88.526-88.527z" fill="#05cdff"/></g><g><path d="m375.762 159.037h14.86v43.055h-14.86z" fill="#2896ff"/></g><g><path d="m131.323 202.092h-14.86v-113.062c0-48.813 39.712-88.526 88.526-88.526v14.86c-40.619 0-73.666 33.046-73.666 73.666z" fill="#2896ff"/></g><g><path d="m116.462 159.037h14.86v43.055h-14.86z" fill="#1e87dc"/></g><path d="m387.438 401.833-132.722-29.369c-42.501 9.433-72.745 47.125-72.745 90.661v36.246c23.137 6.904 47.646 10.629 73.029 10.629 69.504 0 133.012-27.961 179.268-73.657-9.783-17.137-26.493-30.01-46.83-34.51z" fill="#55c7a6"/><path d="m256.479 351.204c-31.56-.655-59.216 16.31-73.805 41.73v-4.482l-60.156 13.352c-20.329 4.512-37.029 17.391-46.802 34.529 29.506 29.175 66.096 51.199 106.958 63.263 0-7.383 8.867-11.088 14.159-5.939 4.774 4.645 10.105 8.721 15.883 12.118l42.485-42.485 42.131 42.131c24.213-14.517 40.418-41.02 40.389-71.313-.044-44.878-36.372-81.973-81.242-82.904z" fill="#39ae96"/><g><path d="m254.715 332.642c-45.842 0-83.005 37.162-83.005 83.005 0 30.513 16.475 57.163 41.004 71.586l42.485-42.485 42.131 42.131c24.192-14.504 40.389-40.973 40.389-71.232.001-45.842-37.161-83.005-83.004-83.005z" fill="#96dbbf"/></g><path d="m254.716 332.642.485 112.106 42.131 42.131c24.192-14.504 40.389-40.973 40.389-71.232-.001-45.842-37.163-83.005-83.005-83.005z" fill="#d6eed8"/><g><g><g><g><path d="m255.254 444.91c-21.168 0-38.327-17.16-38.327-38.327v-2.4l32.019-71.232 44.635-12.215v85.847c0 21.167-17.159 38.327-38.327 38.327z" fill="#ff965a"/></g></g></g><path d="m216.927 404.182c1.796.129 3.613.195 5.448.195 27.229 0 52.122-10.001 71.206-26.531v-57.111h-76.655v83.447z" fill="#ef6a30"/><g><g><g><path d="m359.227 186.261c0-34.977-22.438-66.961-57.416-66.961h-93.116c-9.981 0-19.121 2.612-27.096 7.147v184.873c0 39.974 32.085 73.682 73.654 73.682 60.096 0 108.813-48.717 108.813-108.813v-34.352z" fill="#ffbe82"/></g></g></g><g><g><g><path d="m364.067 261.619v-64.677c14.09 0 25.513 11.422 25.513 25.513v13.652c-.001 14.09-11.423 25.512-25.513 25.512z" fill="#ff965a"/></g></g></g><g><g><g><path d="m119.851 236.106c0 14.09 11.422 25.513 25.513 25.513v-64.677c-14.09 0-25.513 11.422-25.513 25.513z" fill="#ff965a"/></g></g></g><g><g><g><path d="m208.239 235.527v7.673c0 5.005 4.058 9.063 9.063 9.063s9.063-4.058 9.063-9.063v-7.673z" fill="#ff965a"/></g></g></g><g><g><g><path d="m282.083 235.527v7.673c0 5.005 4.058 9.063 9.063 9.063s9.063-4.058 9.063-9.063v-7.673z" fill="#ff965a"/></g></g></g><g><g><path d="m261.152 384.843c-45.747-13.286-79.188-55.503-79.188-105.537.272-6.182 0-66.093 0-88.851 0-34.977 28.355-63.332 63.332-63.332h79.039c-6.953-2.7-14.533-4.194-22.523-4.194h-93.116c-34.977 0-60.934 25.957-60.934 60.934l-2.398 57.973v33.276c0 62.804 52.623 113.077 115.788 109.731z" fill="#ff965a"/></g></g><g><g><g><path d="m217.302 245.004c-5.005 0-9.063-4.058-9.063-9.063v-11.658l3.341-5.059-3.341-5.059v-3.011c0-5.005 4.058-9.063 9.063-9.063s9.063 4.058 9.063 9.063v24.786c0 5.006-4.058 9.064-9.063 9.064z" fill="#373c41"/></g></g></g><g><g><g><path d="m291.146 245.004c-5.005 0-9.063-4.058-9.063-9.063v-11.658l3.341-5.059-3.341-5.059v-3.011c0-5.005 4.058-9.063 9.063-9.063s9.063 4.058 9.063 9.063v24.786c0 5.006-4.058 9.064-9.063 9.064z" fill="#373c41"/></g></g></g><g><g><g><g><path d="m229.242 197.56h-26.43c-5.005 0-9.063-4.058-9.063-9.063 0-5.005 4.058-9.063 9.063-9.063h26.43c5.005 0 9.063 4.058 9.063 9.063 0 5.006-4.058 9.063-9.063 9.063z" fill="#783c28"/></g></g></g></g><g><g><g><g><path d="m304.766 197.56h-26.43c-5.005 0-9.063-4.058-9.063-9.063 0-5.005 4.058-9.063 9.063-9.063h26.43c5.005 0 9.063 4.058 9.063 9.063 0 5.006-4.058 9.063-9.063 9.063z" fill="#783c28"/></g></g></g></g><g><path d="m288.624 295.141h-9.332l-24.577 5.102-24.577-5.102h-8.255c-2.769 0-4.982 2.417-4.613 5.162.707 5.251 2.477 10.164 5.086 14.517l49.764 14.747c11.239-5.517 19.381-16.375 21.116-29.264.37-2.744-1.843-5.162-4.612-5.162z" fill="#be1423"/></g><g><g><g><path d="m240.569 257.869c-2.253 8.997 1.842 18.797 9.671 21.75 1.576.594 3.261.916 5.013.916s3.437-.322 5.013-.916c7.83-2.954 11.924-12.754 9.672-21.75l-7.469-29.825c-1.88-7.509-12.551-7.509-14.431 0z" fill="#ff965a"/></g></g></g><g><path d="m364.067 151.363v-28.63h-183.168v6.554c.264-.127.528-.254.791-.376 10.645-4.948 22.239 5.216 18.626 16.385-.044.137-.088.275-.132.413-2.447 7.785 3.422 15.702 11.582 15.702h53.405c19.671 0 36.804-10.851 45.749-26.893 3.415-6.126 11.044-8.686 17.386-5.691.124.058.247.117.37.176 9.356 4.496 16.12 12.72 19.106 22.36l.273.822z" fill="#783c28"/></g><g><g><path d="m145.364 125.89v60.945.003 54.998c8.049 0 14.575-6.525 14.575-14.575v-64.355c0-14.215 7.999-27.317 20.782-33.534.313-.152.626-.301.939-.446v-3.035h-36.296z" fill="#5a2d19"/></g><g><path d="m355.983 142.563c-5.322 0-9.19 5.053-7.797 10.19.855 3.154 1.307 6.446 1.307 9.802v64.707c0 8.049 6.525 14.575 14.575 14.575v-91.189c-.001-4.466-3.621-8.085-8.085-8.085z" fill="#5a2d19"/></g></g><g><path d="m211.58 227.624c-1.845 0-3.341-1.496-3.341-3.341v-10.118c0-1.845 1.496-3.341 3.341-3.341 1.845 0 3.341 1.496 3.341 3.341v10.118c0 1.845-1.496 3.341-3.341 3.341z" fill="#fff"/></g><g><path d="m285.424 227.624c-1.845 0-3.341-1.496-3.341-3.341v-10.118c0-1.845 1.496-3.341 3.341-3.341 1.845 0 3.341 1.496 3.341 3.341v10.118c0 1.845-1.496 3.341-3.341 3.341z" fill="#fff"/></g></g><g><path d="m222.362 314.817c6.697 11.171 18.92 18.651 32.892 18.651 6.053 0 11.775-1.408 16.865-3.907-2.188-13.725-14.075-24.216-28.417-24.216-8.464.001-16.074 3.656-21.34 9.472z" fill="#ff3c3c"/></g><g><path d="m273.886 305.346h-38.34c-2.986 0-5.407-2.421-5.407-5.407v-4.798h49.153v4.798c0 2.987-2.42 5.407-5.406 5.407z" fill="#fff"/></g><g><path d="m322.639 54.481h-99.756l-3.739.038c-21.184.214-38.245 17.448-38.245 38.634v29.58h183.168v-26.824c0-22.88-18.548-41.428-41.428-41.428z" fill="#783c28"/></g><g><path d="m222.883 54.481h-36.091c-22.88 0-41.428 18.548-41.428 41.427v31.071l36.296-1.089-.204-29.982c0-22.879 18.547-41.427 41.427-41.427z" fill="#5a2d19"/></g><g><path d="m129.634 179.435h-10.104c-9.45 0-17.11 7.661-17.11 17.11v35.518c0 13.04 10.571 23.611 23.611 23.611h3.603z" fill="#05cdff"/></g><g><path d="m129.634 247.629h-10.104c-9.45 0-17.11-7.66-17.11-17.11v32.907c0 9.45 7.661 17.11 17.11 17.11h10.104z" fill="#2896ff"/></g><g><path d="m145.364 249.863v-74.82c0-3.672-2.976-6.648-6.648-6.648h-7.578c-3.672 0-6.648 2.976-6.648 6.648v74.82c0 3.209 2.602 5.811 5.811 5.811h9.252c3.21-.001 5.811-2.602 5.811-5.811z" fill="#195fa0"/></g><g><path d="m138.716 255.136h-7.577c-3.672 0-6.648-2.976-6.648-6.648v35.03c0 3.672 2.976 6.648 6.648 6.648h7.577c3.672 0 6.648-2.977 6.648-6.648v-35.03c0 3.672-2.976 6.648-6.648 6.648z" fill="#00558c"/></g><g><path d="m407.011 233.634v-37.089c0-9.45-7.661-17.11-17.11-17.11h-5.963v76.899h.373c12.536 0 22.7-10.163 22.7-22.7z" fill="#05cdff"/></g><g><path d="m389.9 247.629h-5.963v32.907h5.963c9.45 0 17.11-7.661 17.11-17.11v-32.907c.001 9.449-7.66 17.11-17.11 17.11z" fill="#2896ff"/></g><g><path d="m384.94 250.563v-75.52c0-3.672-2.976-6.648-6.648-6.648h-7.578c-3.672 0-6.648 2.976-6.648 6.648v75.52c0 3.187 2.584 5.771 5.771 5.771h9.332c3.188 0 5.771-2.584 5.771-5.771z" fill="#195fa0"/></g><g><path d="m378.292 255.136h-7.578c-3.672 0-6.648-2.976-6.648-6.648v35.03c0 3.672 2.976 6.648 6.648 6.648h7.578c3.672 0 6.648-2.977 6.648-6.648v-35.03c0 3.672-2.976 6.648-6.648 6.648z" fill="#00558c"/></g><g><path d="m313.828 309.895h50.238v11.676h-50.238z" fill="#05cdff"/></g><g><path d="m337.72 328.47h-29.02c-7.035 0-12.737-5.703-12.737-12.737s5.703-12.737 12.737-12.737h29.02c7.035 0 12.737 5.703 12.737 12.737s-5.702 12.737-12.737 12.737z" fill="#00558c"/></g><g><path d="m315.592 302.996h-6.469c-7.013 0-13.029 5.487-13.157 12.499-.131 7.144 5.621 12.976 12.735 12.976h6.891c7.035 0 12.737-5.703 12.737-12.737 0-7.036-5.702-12.738-12.737-12.738z" fill="#144b7d"/></g></g></g></svg>