<?xml version="1.0"?>
<svg xmlns="http://www.w3.org/2000/svg" xmlns:xlink="http://www.w3.org/1999/xlink" xmlns:svgjs="http://svgjs.com/svgjs" version="1.1" width="512" height="512" x="0" y="0" viewBox="0 0 511 511" style="enable-background:new 0 0 512 512" xml:space="preserve" class=""><g><g xmlns="http://www.w3.org/2000/svg"><g><path d="m255.5 13.141c-95.795 0-154.805 54.034-154.968 54.126 0 0-2.453 3.062-2.912 5.098-3.727 16.545-7.209 38.719-7.209 54.9 0 137.48 115.936 248.902 253.416 248.902 52.94 0 111.84-25.373 151.261-55.88.882-.682 3.68-5.268 3.68-5.268.173-1.061 5.662-22.918 5.662-52.947 0-137.482-111.45-248.931-248.93-248.931z" fill="#f4ffd4" data-original="#afe6ff" class=""/><path d="m343.805 369.139c-137.48 0-248.93-111.45-248.93-248.93 0-18.172 1.96-35.878 5.657-52.943-57.248 45.608-93.962 115.92-93.962 194.804 0 69.615 28.576 132.556 74.639 177.732l348.582-.007c33.934-33.257 58.463-76.245 68.977-124.778-42.523 33.87-96.375 54.122-154.963 54.122z" fill="#190552" data-original="#73c8f0" class=""/></g><g><path d="m306.453 41.432h-88.571v367.219h164.169v-291.621c0-41.751-33.846-75.598-75.598-75.598z" fill="#1e3486" data-original="#2477f9" class=""/><g><g><path d="m305.689 11.381h-64.981c-24.463 0-44.293 19.831-44.293 44.293v101.239h109.274c24.561 0 44.471-4.832 44.471-29.393v-71.668c0-24.561-19.911-44.471-44.471-44.471z" fill="#1e3486" data-original="#2477f9" class=""/></g></g><path d="m198.048 127.52v-71.668c0-24.561 19.91-44.471 44.471-44.471h-46.36c-24.561 0-44.471 19.91-44.471 44.471v71.668c0 24.561 19.91 29.393 44.471 29.393h46.36c-24.561 0-44.471-4.832-44.471-29.393z" fill="#0d2066" data-original="#0540e5" class=""/><path d="m226.864 408.651v-291.621c0-41.752-12.707-75.598 29.045-75.598h-60.525c-41.752 0-75.598 33.846-75.598 75.598v291.62h107.078z" fill="#0d2066" data-original="#0540e5" class=""/><path d="m355.324 386.649s-56.548 0-106.902 0c-42.404 0-76.778 34.375-76.778 76.78v33.085c26.202 9.373 54.431 14.486 83.856 14.486 67.495 0 129.197-27.01 174.29-71.205-10.613-30.921-39.944-53.146-74.466-53.146z" fill="#2411b4" data-original="#fa870a" class=""/><path d="m149.81 386.89c-31.946 2.356-58.594 23.765-68.601 52.912 25.764 25.268 56.998 44.978 91.761 57.191v-31.632c0-41.496 32.117-75.467 72.846-78.472 1.888-.164 2.879-.223 6.902-.24h-67.739c-31.239.015-31.257-.1-35.169.241z" fill="#2d0f72" data-original="#fa690f" class=""/><path d="m179.996 311.995c0 38.59 31.005 70.252 69.594 70.542.27.002.54.003.81.003 59.008 0 106.845-47.836 106.845-106.844v-18.728z" fill="#0d2066" data-original="#0540e5" class=""/><path d="m255.5 453.403c28.653 0 51.881-23.228 51.881-51.881v-14.873h-103.762v14.873c0 28.653 23.228 51.881 51.881 51.881z" fill="#004bf4" data-original="#f45700" class=""/><g><g><path d="m292.765 392.461c0 20.581-16.684 37.265-37.265 37.265-20.581 0-37.265-16.684-37.265-37.265v-20.039l74.531-63.43v83.469z" fill="#ffbe82" data-original="#ffbe82" class=""/></g></g><g><g><path d="m382.238 213.814c0 13.792-11.18 24.972-24.972 24.972h-1.522l-1.496-63.307h3.018c13.792 0 24.972 11.18 24.972 24.972z" fill="#ff965a" data-original="#ff965a" class=""/></g></g><g><g><path d="m367.476 209.813c0 5.533-4.485 10.018-10.018 10.018h-.611l-.6-25.398h1.211c5.533 0 10.018 4.485 10.018 10.018z" fill="#000000" data-original="#ef6a30" class=""/></g></g><g><g><path d="m356.221 148.488c-.246-24.792-20.413-44.76-45.206-44.76h-53.711c-29.928 0-57.128 11.67-77.308 30.702v153.563c0 38.59 31.005 70.253 69.594 70.542.27.002.54.003.81.003 59.009 0 106.845-47.836 106.845-106.845z" fill="#ffbe82" data-original="#ffbe82" class=""/></g></g><path d="m218.235 372.423c3.834.685 7.771 1.076 11.797 1.106.27.002.54.003.81.003 23.082 0 44.454-10.32 61.922-22.764v-41.775h-74.531v63.43z" fill="#000000" data-original="#ef6a30" class=""/><g><g><path d="m356.221 148.488c-.246-24.792-20.413-44.76-45.206-44.76h-53.711c-29.928 0-57.128 11.67-77.308 30.702v153.563c0 38.59 31.005 70.253 69.594 70.542.27.002.54.003.81.003 59.009 0 106.845-47.836 106.845-106.845z" fill="#ffbe82" data-original="#ffbe82" class=""/></g></g><g><g><path d="m119.508 213.77c0 13.7 11.106 24.806 24.806 24.806h.911l.44-62.885h-1.351c-13.7 0-24.806 11.106-24.806 24.806z" fill="#ff965a" data-original="#ff965a" class=""/></g></g><g><g><path d="m134.605 209.685c0 5.269 4.271 9.54 9.54 9.54h.35l.169-24.185h-.52c-5.269 0-9.54 4.271-9.54 9.54v5.105z" fill="#000000" data-original="#ef6a30" class=""/></g></g><g><g><path d="m205.736 211.864v9.088c0 4.866 3.946 8.812 8.812 8.812s8.812-3.945 8.812-8.812v-9.088z" fill="#ff965a" data-original="#ff965a" class=""/></g></g><g><g><path d="m277.698 211.864v9.088c0 4.866 3.946 8.812 8.812 8.812s8.812-3.945 8.812-8.812v-9.088z" fill="#ff965a" data-original="#ff965a" class=""/></g></g><g><g><path d="m214.547 222.42c-4.866 0-8.812-3.945-8.812-8.812v-6.499l3.537-5.314-3.537-5.314v-6.974c0-4.866 3.945-8.812 8.812-8.812 4.866 0 8.812 3.945 8.812 8.812v24.1c0 4.868-3.945 8.813-8.812 8.813z" fill="#033a72" data-original="#373c41" class=""/></g></g><g><g><path d="m286.51 222.42c-4.866 0-8.812-3.945-8.812-8.812v-8.244l3.537-5.314-3.537-5.314v-5.229c0-4.866 3.945-8.812 8.812-8.812 4.866 0 8.812 3.945 8.812 8.812v24.1c-.001 4.868-3.946 8.813-8.812 8.813z" fill="#033a72" data-original="#373c41" class=""/></g></g><g><g><path d="m237.17 237.52c-2.191 7.719 1.791 16.127 9.403 18.662 1.532.51 3.171.786 4.874.786s3.342-.276 4.874-.786c7.613-2.534 11.594-10.943 9.404-18.662l-10.684-37.648c-1.028-3.621-6.16-3.621-7.187 0z" fill="#ff965a" data-original="#ff965a" class=""/></g></g><path d="m260.268 103.916c-63.84-.122-115.665 51.584-115.665 115.424v33.401c0 65.03 58.362 115.336 123.751 104.266-49.92-8.492-87.936-51.926-87.936-104.266.027-46.851-.004-68.596-.009-79.193-.003-8.388 6.856-15.266 15.244-15.284h.011 51.281c29.842 0 54.035-24.192 54.035-54.035-.001.001-7.795-.25-40.712-.313z" fill="#ff965a" data-original="#ff965a" class=""/><path d="m199.253 61.027c-30.183 0-54.65 24.468-54.65 54.65v35.243 68.419c7.826 0 14.171-6.344 14.171-14.171v-17.358c0-20.374 16.516-36.89 36.89-36.89h51.281c29.842 0 54.035-24.192 54.035-54.035v-35.858z" fill="#1e3486" data-original="#2477f9" class=""/><path d="m299.064 103.728c24.172 0 44.01 20.692 44.01 44.864v56.578c0 7.826 6.344 14.171 14.171 14.171v-119.802z" fill="#1e3486" data-original="#2477f9" class=""/><path d="m285.157 271.92h-9.255l-24.373 5.06-24.373-5.06h-8.187c-2.746 0-4.941 2.397-4.574 5.119.701 5.207 2.456 10.08 5.044 14.397l49.351 14.625c11.146-5.471 19.22-16.239 20.941-29.022.366-2.721-1.828-5.119-4.574-5.119z" fill="#be1423" data-original="#be1423" class=""/><path d="m219.443 291.433c6.642 11.079 18.763 18.497 32.62 18.497 6.003 0 11.677-1.396 16.725-3.874-2.17-13.611-13.959-24.015-28.181-24.015-8.395 0-15.942 3.624-21.164 9.392z" fill="#ff3c3c" data-original="#ff3c3c" class=""/><path d="m275.902 276.679c0 2.961-2.401 5.362-5.362 5.362h-38.023c-2.961 0-5.362-2.401-5.362-5.362v-4.759h48.746v4.759z" fill="#ffffff" data-original="#ffffff" class=""/><path d="m209.273 210.647c-1.953 0-3.537-1.584-3.537-3.537v-10.627c0-1.953 1.584-3.537 3.537-3.537 1.953 0 3.537 1.584 3.537 3.537v10.627c0 1.953-1.584 3.537-3.537 3.537z" fill="#ffffff" data-original="#ffffff" class=""/><path d="m281.235 208.902c-1.953 0-3.537-1.584-3.537-3.537v-10.627c0-1.953 1.584-3.537 3.537-3.537 1.953 0 3.537 1.584 3.537 3.537v10.627c0 1.953-1.584 3.537-3.537 3.537z" fill="#ffffff" data-original="#ffffff" class=""/><path d="m306.828 40.536h-74.633v20.604h74.633c24.561 0 44.471 19.91 44.471 44.471v-20.603c0-24.561-19.911-44.472-44.471-44.472z" fill="#7439b0" data-original="#ff6196" class=""/><path d="m232.542 40.537h-35.244c-24.561 0-44.471 19.91-44.471 44.471v20.604c0-24.561 19.91-44.471 44.471-44.471h35.244z" fill="#531786" data-original="#ff4181" class=""/><g><path d="m166.826 60.473s2.002-57.327 19.079-60.348 41.251 49.675 41.251 49.675z" fill="#531786" data-original="#ff4181" class=""/><path d="m177.789 58.534c12.564-8.574 25.23-10.62 37.987-6.721-5.844-10.886-16.69-28.467-25.108-26.978-8.417 1.49-11.674 21.566-12.879 33.699z" fill="#ffffff" data-original="#ffffff" class=""/></g><g><path d="m336.159 60.473s-2.002-57.327-19.079-60.348-41.251 49.675-41.251 49.675z" fill="#7439b0" data-original="#ff6196" class=""/><path d="m325.196 58.534c-13.691-8.129-26.276-9.926-37.987-6.721 5.844-10.886 16.69-28.467 25.108-26.978 8.417 1.49 11.674 21.566 12.879 33.699z" fill="#ffffff" data-original="#ffffff" class=""/></g><g fill="#ff965a"><circle cx="289.293" cy="244.961" r="6.385" fill="#ff965a" data-original="#ff965a" class=""/><circle cx="312.805" cy="234.169" r="4.406" fill="#ff965a" data-original="#ff965a" class=""/><circle cx="327.53" cy="256.925" r="5.579" fill="#ff965a" data-original="#ff965a" class=""/><circle cx="304.302" cy="258.408" r="4.097" fill="#ff965a" data-original="#ff965a" class=""/><circle cx="215.4" cy="245.997" r="6.385" fill="#ff965a" data-original="#ff965a" class=""/><circle cx="191.888" cy="235.206" r="4.406" fill="#ff965a" data-original="#ff965a" class=""/><circle cx="177.163" cy="257.962" r="5.579" fill="#ff965a" data-original="#ff965a" class=""/><circle cx="200.391" cy="259.444" r="4.097" fill="#ff965a" data-original="#ff965a" class=""/></g><path d="m358.455 484.939c0-7.202-5.839-13.041-13.041-13.041s-13.041 5.839-13.041 13.041c0 5.016 2.832 9.37 6.984 11.552 6.263-2.242 12.413-4.729 18.439-7.449.427-1.29.659-2.669.659-4.103z" fill="#2d0f72" data-original="#fa690f" class=""/><circle cx="289.022" cy="484.939" fill="#2d0f72" r="13.041" data-original="#fa690f" class=""/><circle cx="232.629" cy="484.939" fill="#2d0f72" r="13.041" data-original="#fa690f" class=""/><path d="m176.237 471.899c-1.619 0-3.162.309-4.593.848v24.385c1.43.539 2.974.848 4.593.848 7.202 0 13.041-5.839 13.041-13.041s-5.839-13.04-13.041-13.04z" fill="#2d0f72" data-original="#fa690f" class=""/><path d="m172.97 472.328c-5.618 1.452-9.774 6.54-9.774 12.612s4.156 11.16 9.774 12.612z" fill="#004bf4" data-original="#f45700" class=""/><path d="m390.734 395.069c-1.24 1.996-1.968 4.343-1.968 6.865 0 7.202 5.839 13.041 13.041 13.041 3.95 0 7.483-1.764 9.874-4.538-6.055-6.212-13.126-11.42-20.947-15.368z" fill="#2d0f72" data-original="#fa690f" class=""/><circle cx="345.414" cy="401.934" fill="#2d0f72" r="13.041" data-original="#fa690f" class=""/><circle cx="176.237" cy="401.934" fill="#004bf4" r="13.041" data-original="#f45700" class=""/><path d="m119.844 414.975c7.202 0 13.041-5.839 13.041-13.041 0-4.149-1.944-7.837-4.964-10.226-7.64 2.878-14.703 6.923-20.999 11.896.822 6.412 6.287 11.371 12.922 11.371z" fill="#004bf4" data-original="#f45700" class=""/><circle cx="374.616" cy="445.237" fill="#2d0f72" r="13.041" data-original="#fa690f" class=""/><circle cx="318.224" cy="445.237" fill="#2d0f72" r="13.041" data-original="#fa690f" class=""/><circle cx="205.439" cy="445.237" fill="#2d0f72" r="13.041" data-original="#fa690f" class=""/><circle cx="149.046" cy="445.237" fill="#004bf4" r="13.041" data-original="#f45700" class=""/></g></g></g></svg>
