<svg id="Layer_1" enable-background="new 0 0 511 511" height="512" viewBox="0 0 511 511" width="512" xmlns="http://www.w3.org/2000/svg"><g><g><path d="m500.558 265.942c0-135.342-109.716-245.058-245.058-245.058-94.305 0-152.397 53.194-152.557 53.284 0 0-2.415 3.014-2.867 5.019-3.669 16.288-7.097 38.117-7.097 54.046 0 135.342 114.133 245.031 249.474 245.031 52.117 0 110.101-24.978 148.908-55.011.868-.672 3.622-5.186 3.622-5.186.171-1.045 5.575-22.562 5.575-52.125z" fill="#afe6ff"/><path d="m342.432 371.345c-135.342 0-245.057-109.716-245.057-245.058 0-17.889 1.929-35.32 5.569-52.119-56.358 44.898-92.5 114.117-92.5 191.774 0 64.749 25.112 123.633 66.127 167.444l357.862-.003c29.596-31.593 50.977-71.12 60.552-115.318-41.863 33.344-94.877 53.28-152.553 53.28z" fill="#73c8f0"/></g><g><g fill="#373c41"><path d="m352.06 97.145c4.214 11.468 6.531 23.844 6.531 36.755v23.952h27v-23.952c0-12.741-1.79-25.072-5.13-36.755z"/><path d="m271.868 1.519c-6.583-.999-13.32-1.519-20.178-1.519-73.832 0-133.899 60.067-133.899 133.9v23.952h27v-23.952c0-58.945 47.955-106.9 106.9-106.9 6.896 0 13.64.665 20.176 1.918v-27.399z"/></g><g><path d="m110.124 138.885h42.334v39.493h-42.334z" fill="#232628"/></g><g><path d="m357.924 138.885h42.334v39.493h-42.334z" fill="#232628"/></g><path d="m381.086 360.759-125.856-27.85-29.457 6.538c-31.541 7.001-53.985 34.973-53.985 67.281v89.582c26.122 9.495 54.309 14.69 83.712 14.69 70.191 0 134.019-29.674 178.931-77.617v-6.184c0-31.916-22.183-59.544-53.345-66.44z" fill="#64bc0f"/><path d="m76.569 427.163v6.223c26.422 28.223 59.444 50.19 96.604 63.442v-69.665c0-31.004 20.936-57.958 50.703-65.794l4.47-22.493-98.475 21.857c-31.141 6.912-53.302 34.53-53.302 66.43z" fill="#58a804"/><g><g><path d="m172.449 412.407h260.357c-.763-3.432-1.794-6.771-3.058-10h-257.299z" fill="#58a804"/></g><g><path d="m172.449 386.646h248.572c-2.688-3.622-5.735-6.972-9.094-10h-239.478z" fill="#58a804"/></g><g><path d="m172.449 360.885h209.151c-.172-.04-.341-.087-.514-.125l-44.623-9.875h-162.221l-1.793.398z" fill="#58a804"/></g><g fill="#58a804"><path d="m375.381 479.692h-202.932v10h183.072c6.785-3.038 13.411-6.377 19.86-10z"/><path d="m203.415 505.453c16.786 3.633 34.212 5.547 52.085 5.547 17.812 0 35.215-1.911 52.003-5.547z"/><path d="m412.695 453.93h-240.246v10h227.455c4.375-3.193 8.64-6.529 12.791-10z"/><path d="m172.449 438.169h257.376c1.556-1.574 3.091-3.17 4.605-4.786v-5.214h-261.981z"/></g></g><g><g><path d="m174.242 350.885-44.37 9.848c-.209.046-.412.104-.62.152h94.721l1.987-10z" fill="#4b8c00"/></g><g><path d="m186.571 386.646c2.686-3.621 5.727-6.972 9.082-10h-96.62c-.788.711-1.555 1.444-2.308 2.19-.136.135-.269.272-.403.408-.619.624-1.226 1.26-1.82 1.907-.164.178-.327.357-.489.537-.576.64-1.138 1.293-1.689 1.954-.14.168-.282.333-.42.502-.669.82-1.323 1.652-1.953 2.502z" fill="#4b8c00"/></g><g><path d="m174.796 412.407c.761-3.43 1.775-6.773 3.037-10h-96.595c-1.255 3.209-2.278 6.527-3.038 9.937-.005.021-.01.042-.015.063z" fill="#4b8c00"/></g><g fill="#4b8c00"><path d="m111.062 463.93h62.111v-10h-74.888c4.145 3.47 8.406 6.806 12.777 10z"/><path d="m76.569 433.386c1.512 1.615 3.045 3.209 4.6 4.783h92.004v-10h-96.604z"/><path d="m155.405 489.692h17.769v-10h-37.614c6.44 3.621 13.061 6.96 19.845 10z"/></g></g><g><path d="m255.741 422.395c30.228 0 54.733-24.505 54.733-54.733v-22.528l-55.243-12.225-54.222 12.035v22.718c-.001 30.228 24.504 54.733 54.732 54.733z" fill="#4b8c00"/></g><g><g><g><path d="m255.741 401.608c-20.073 0-36.344-16.272-36.344-36.344v-11.253l72.689-70.153v81.406c-.001 20.072-16.273 36.344-36.345 36.344z" fill="#ff965a"/></g></g></g><g><path d="m219.396 354.011c4.733 1.062 9.644 1.654 14.69 1.693.268.002.537.003.805.003 21.156 0 40.823-6.372 57.193-17.294v-62.555h-72.689v78.153z" fill="#ef6a30"/></g><g><g><g><path d="m354.335 156.34c0-33.168-21.278-63.497-54.445-63.497h-88.298c-9.464 0-18.132 2.477-25.694 6.777v175.309c0 38.263 30.776 69.577 69.038 69.867.268.002.537.003.805.003 56.987 0 103.183-46.197 103.183-103.183v-32.576z" fill="#ffbe82"/></g></g></g><g><g><g><path d="m358.924 227.8v-61.331c13.361 0 24.193 10.832 24.193 24.193v12.946c0 13.36-10.831 24.192-24.193 24.192z" fill="#ff965a"/></g></g></g><g><g><g><path d="m358.924 207.225v-20.183c4.397 0 7.961 3.564 7.961 7.961v4.26c.001 4.398-3.564 7.962-7.961 7.962z" fill="#ef6a30"/></g></g></g><g><g><g><path d="m143.95 199.164c0 4.19 3.396 7.586 7.586 7.586v-19.231c-4.19 0-7.586 3.396-7.586 7.586z" fill="#ef6a30"/></g></g></g><g><g><g><path d="m211.159 203.057v7.276c0 4.746 3.848 8.594 8.594 8.594s8.594-3.848 8.594-8.594v-7.276z" fill="#ff965a"/></g></g></g><g><g><g><path d="m281.182 203.057v7.276c0 4.746 3.848 8.594 8.594 8.594s8.594-3.848 8.594-8.594v-7.276z" fill="#ff965a"/></g></g></g><g><g><path d="m261.334 344.648c-43.381-12.598-75.091-52.632-75.091-100.077.258-5.863 0-62.674 0-84.254 0-33.168 26.888-60.055 60.055-60.055h74.95c-6.593-2.56-13.782-3.977-21.358-3.977h-88.298c-33.168 0-57.782 24.614-57.782 57.782l-2.274 54.974v31.554c0 59.555 49.9 107.226 109.798 104.053z" fill="#ff965a"/></g></g><g><g><g><path d="m219.753 213.044c-4.746 0-8.594-3.848-8.594-8.594v-11.055l3.168-4.797-3.168-4.797v-2.855c0-4.746 3.848-8.594 8.594-8.594s8.594 3.848 8.594 8.594v23.504c0 4.746-3.848 8.594-8.594 8.594z" fill="#373c41"/></g></g></g><g><path d="m353.336 143.977c-4.561-27.975-24.463-51.135-53.446-51.135h-88.298c-9.464 0-18.132 2.477-25.694 6.777v58.232c26.196-.338 48.951-14.906 60.905-36.331 13.818 13.871 32.937 22.457 54.063 22.457z" fill="#ff965a"/></g><g><g><g><path d="m289.776 213.044c-4.746 0-8.594-3.848-8.594-8.594v-11.055l3.168-4.797-3.168-4.797v-2.855c0-4.746 3.848-8.594 8.594-8.594s8.594 3.848 8.594 8.594v23.504c0 4.746-3.848 8.594-8.594 8.594z" fill="#373c41"/></g></g></g><g><g><g><g><path d="m231.075 167.055h-25.062c-4.746 0-8.594-3.848-8.594-8.594 0-4.746 3.848-8.594 8.594-8.594h25.062c4.746 0 8.594 3.848 8.594 8.594 0 4.746-3.848 8.594-8.594 8.594z" fill="#d77d14"/></g></g></g></g><g><g><g><g><path d="m302.691 167.055h-25.062c-4.746 0-8.594-3.848-8.594-8.594 0-4.746 3.848-8.594 8.594-8.594h25.062c4.746 0 8.594 3.848 8.594 8.594 0 4.746-3.848 8.594-8.594 8.594z" fill="#d77d14"/></g></g></g></g><g><path d="m287.385 259.588h-8.849l-23.305 4.838-23.305-4.838h-7.828c-2.626 0-4.724 2.292-4.374 4.895.67 4.979 2.349 9.638 4.823 13.766l47.189 13.984c10.657-5.231 18.378-15.528 20.023-27.75.35-2.603-1.748-4.895-4.374-4.895z" fill="#be1423"/></g><g><g><g><path d="m241.816 224.244c-2.136 8.531 1.746 17.824 9.171 20.625 1.494.564 3.092.869 4.754.869 1.661 0 3.26-.305 4.754-.869 7.425-2.801 11.308-12.094 9.171-20.625l-7.082-28.282c-1.783-7.12-11.902-7.12-13.685 0z" fill="#ff965a"/></g></g></g><g><g><path d="m358.924 99.092v57.792.003 52.153c-7.633 0-13.821-6.188-13.821-13.821v-61.026c0-13.479-7.586-25.903-19.707-31.799-.297-.145-.594-.286-.89-.423v-2.878h34.418z" fill="#ffa50a"/></g></g><g><path d="m214.327 196.563c-1.75 0-3.168-1.418-3.168-3.168v-9.594c0-1.75 1.418-3.168 3.168-3.168 1.75 0 3.168 1.418 3.168 3.168v9.594c0 1.75-1.419 3.168-3.168 3.168z" fill="#fff"/></g><g><path d="m284.35 196.563c-1.75 0-3.168-1.418-3.168-3.168v-9.594c0-1.75 1.418-3.168 3.168-3.168 1.75 0 3.168 1.418 3.168 3.168v9.594c0 1.75-1.418 3.168-3.168 3.168z" fill="#fff"/></g><g><path d="m224.55 278.246c6.351 10.593 17.941 17.686 31.19 17.686 5.74 0 11.166-1.335 15.992-3.704-2.075-13.015-13.347-22.963-26.946-22.963-8.026-.001-15.242 3.465-20.236 8.981z" fill="#ff3c3c"/></g><g><path d="m273.409 269.264h-36.357c-2.831 0-5.127-2.295-5.127-5.127v-4.55h46.611v4.55c0 2.832-2.296 5.127-5.127 5.127z" fill="#fff"/></g><g><path d="m151.536 112.39v44.495.003 52.153c7.633 0 13.821-6.188 13.821-13.821v-61.026c0-.081 0-.162.001-.242.077-11.341 8.962-20.532 20.054-21.561h-33.876z" fill="#d77d14"/></g><g><path d="m144.905 149.867h40.065c39.086 0 70.771-31.685 70.771-70.771v-42.862h-42.862c-39.086 0-67.974 31.685-67.974 70.771z" fill="#d77d14"/></g><g><circle cx="294.073" cy="230.053" fill="#ff965a" r="4.297"/></g><g><circle cx="308.757" cy="249.756" fill="#ff965a" r="5.505"/></g><g><circle cx="318.698" cy="223.363" fill="#ff965a" r="4.436"/></g><g><circle cx="332.716" cy="241.733" fill="#ff965a" r="4.004"/></g><g><circle cx="181.833" cy="230.688" fill="#ff965a" r="4.297"/></g><g><circle cx="196.517" cy="250.391" fill="#ff965a" r="5.505"/></g><g><circle cx="206.458" cy="223.998" fill="#ff965a" r="4.436"/></g><g><circle cx="220.476" cy="242.368" fill="#ff965a" r="4.004"/></g><g><path d="m270.163 212.868c-3.857-3.857-8.986-5.982-14.441-5.982s-10.583 2.125-14.44 5.981l-5.656-5.656c5.368-5.369 12.505-8.325 20.097-8.325s14.729 2.957 20.098 8.325z" fill="#0540e5"/></g><g><path d="m202.488 170.894c-22.707 0-41.18 18.473-41.18 41.18 0 .205.012.407.016.612h8c-.004-.204-.016-.406-.016-.612 0-18.295 14.885-33.18 33.18-33.18 18.296 0 33.181 14.885 33.181 33.18s-14.885 33.18-33.181 33.18c-.196 0-.388-.019-.584-.022v8.01c.195.003.388.012.584.012 22.707 0 41.181-18.473 41.181-41.18s-18.474-41.18-41.181-41.18z" fill="#2477f9"/></g><g><path d="m202.488 253.254c-22.707 0-41.18-18.473-41.18-41.18h8c0 18.295 14.885 33.18 33.18 33.18z" fill="#0540e5"/></g><g><path d="m308.757 170.894c-22.707 0-41.18 18.473-41.18 41.18 0 .15.01.297.011.446h8c-.002-.149-.011-.297-.011-.446 0-18.295 14.885-33.18 33.18-33.18 18.296 0 33.181 14.885 33.181 33.18s-14.885 33.18-33.181 33.18c-.114 0-.225-.012-.339-.013v8.006c.113.001.225.007.339.007 22.707 0 41.181-18.473 41.181-41.18s-18.474-41.18-41.181-41.18z" fill="#2477f9"/></g><g><path d="m308.757 253.254c-22.707 0-41.18-18.473-41.18-41.18h8c0 18.295 14.885 33.18 33.18 33.18z" fill="#0540e5"/></g><g><g><path d="m100.586 212.857v-32.982h-12.806c-5.299 0-9.594 4.296-9.594 9.594v23.387h22.4z" fill="#dc1428"/></g><g><path d="m100.586 237.049h-12.806c-5.299 0-9.594-4.296-9.594-9.594v-14.927h22.401v24.521z" fill="#be1423"/></g><g><path d="m87.2 171.672h14.797v73.581h-14.797z" fill="#373c41" transform="matrix(-1 0 0 -1 189.197 416.924)"/></g><g><path d="m98.818 171.672h28.83v42.693h-28.83z" fill="#dc1428"/></g><g><path d="m98.818 213.694h28.83v31.558h-28.83z" fill="#be1423"/></g><g><path d="m135.213 224.747v-62.24h-15.212c-5.455 0-9.877 4.422-9.877 9.877v52.363z" fill="#ff3c3c"/></g><g><path d="m135.213 254.417h-15.212c-5.455 0-9.877-4.422-9.877-9.877v-20.475h25.089z" fill="#dc1428"/></g><g><path d="m152.458 226.008v-63.413c0-7.618-5.854-14.173-13.464-14.531-8.125-.383-14.832 6.091-14.832 14.132v63.813c0 7.451 6.04 13.491 13.491 13.491h1.314c7.451-.001 13.491-6.041 13.491-13.492z" fill="#373c41"/></g><g><path d="m138.31 238.659c-7.814 0-14.148-6.334-14.148-14.148v30.471c0 7.813 6.334 14.148 14.148 14.148s14.148-6.334 14.148-14.148v-30.471c0 7.814-6.334 14.148-14.148 14.148z" fill="#232628"/></g></g><g><g><path d="m432.197 212.851v-23.381c0-5.299-4.296-9.594-9.594-9.594h-12.807v32.976h22.401z" fill="#dc1428"/></g><g><path d="m409.796 237.049h12.807c5.299 0 9.594-4.296 9.594-9.594v-14.927h-22.401z" fill="#be1423"/></g><g><path d="m408.385 171.672h14.797v73.581h-14.797z" fill="#373c41"/></g><g><path d="m382.735 171.672h28.83v42.528h-28.83z" fill="#dc1428" transform="matrix(-1 0 0 -1 794.299 385.872)"/></g><g><path d="m382.735 213.694h28.83v31.558h-28.83z" fill="#be1423" transform="matrix(-1 0 0 -1 794.3 458.947)"/></g><g><path d="m400.259 224.576v-52.192c0-5.455-4.422-9.877-9.877-9.877h-15.212v62.069z" fill="#ff3c3c"/></g><g><path d="m375.17 254.417h15.212c5.455 0 9.877-4.422 9.877-9.877v-20.475h-25.089z" fill="#dc1428"/></g><g><path d="m372.072 239.438c7.814 0 14.148-6.334 14.148-14.148v-63.095c0-7.814-6.334-14.148-14.148-14.148-7.814 0-14.148 6.334-14.148 14.148v63.095c0 7.814 6.334 14.148 14.148 14.148z" fill="#373c41"/></g><g><path d="m372.072 238.659c7.814 0 14.148-6.334 14.148-14.148v30.471c0 7.813-6.334 14.148-14.148 14.148s-14.148-6.334-14.148-14.148v-30.471c0 7.814 6.334 14.148 14.148 14.148z" fill="#232628"/></g></g><g><path d="m144.791 138.885h-27v-4.985c0-29.685 9.515-57.805 27.515-81.321 17.419-22.756 42.111-39.604 69.528-47.438l7.418 25.961c-45.607 13.033-77.461 55.305-77.461 102.799z" fill="#373c41"/></g><g fill="#50555a"><path d="m301.813 9.725c-9.554-3.86-19.629-6.664-30.085-8.234l-4.01 26.7c12.122 1.821 23.611 5.701 34.095 11.272z"/><path d="m357.81 52.227h-37.16c15.988 13.499 28.029 31.642 33.934 52.565l25.984-7.335c-4.71-16.686-12.53-31.965-22.758-45.23z"/></g><g><path d="m336.345 68.612c-11.705-15.152-27.24-26.905-44.926-33.99l10.04-25.063c22.153 8.874 41.604 23.586 56.253 42.546z" fill="#696e73"/></g><g><path d="m365.368 135.977h-64.503c-42.148 0-76.315-34.167-76.315-76.315v-9.972c0-15.909 12.897-28.805 28.805-28.805h35.697c42.148 0 76.315 34.167 76.315 76.315v38.777z" fill="#ffa50a"/></g></g></g></svg>