<svg id="Layer_1" enable-background="new 0 0 510.197 510.197" height="512" viewBox="0 0 510.197 510.197" width="512" xmlns="http://www.w3.org/2000/svg"><g><g><path d="m255.099 4.895c-97.227 0-157.119 54.842-157.284 54.935 0 0-2.49 3.108-2.956 5.174-3.783 16.792-7.317 39.298-7.317 55.72 0 139.535 117.669 252.623 257.205 252.623 53.732 0 113.512-25.752 153.522-56.716.895-.693 3.735-5.347 3.735-5.347.176-1.077 5.747-23.26 5.747-53.739-.001-139.534-113.117-252.65-252.652-252.65z" fill="#afe6ff"/><path d="m344.724 366.215c-139.535 0-252.651-113.116-252.651-252.651 0-18.443 1.989-36.414 5.741-53.734-58.104 46.29-95.366 117.653-95.366 197.716 0 58.16 19.652 111.729 52.677 154.431l396.048 4.921c24.506-30.104 42.257-66.043 50.83-105.613-43.158 34.376-97.815 54.93-157.279 54.93z" fill="#73c8f0"/></g><g><g><g><g><path d="m354.523 207.423-3.269-26.007 3.269-35.324c13.361 0 26.193 10.832 26.193 24.193v12.946c0 13.36-12.832 24.192-26.193 24.192z" fill="#ff965a"/></g></g></g><g><g><g><path d="m355.573 189.133-1.319-10.496 1.319-14.256c5.392 0 10.571 4.371 10.571 9.764v5.224c0 5.392-5.178 9.764-10.571 9.764z" fill="#ef6a30"/></g></g></g><g><g><g><path d="m150.875 201.986 3.269-26.007-3.269-35.324c-13.361 0-26.193 10.831-26.193 24.193v12.946c0 13.361 12.832 24.192 26.193 24.192z" fill="#ff965a"/></g></g></g><g><g><g><path d="m149.825 183.696 1.319-10.496-1.319-14.256c-5.392 0-10.571 4.371-10.571 9.764v5.224c0 5.393 5.179 9.764 10.571 9.764z" fill="#ef6a30"/></g></g></g><path d="m392.121 342.362-71.281-15.773-134.949-.205-71.861 15.95c-33.201 7.369-57.179 35.998-58.905 69.645 8.095 10.467 16.993 20.28 26.602 29.349l342.743 3.682c9.593-8.666 18.524-18.063 26.702-28.11v-.989c0-35.333-24.555-65.916-59.051-73.549z" fill="#fff"/><path d="m373.379 362.103-120.539-26.673-9.983 2.216c-40.512 8.992-69.339 44.919-69.339 86.417v72.656c23.726 8.091 49.034 12.764 75.345 13.403l4.285-7.759 4.715 7.82c63.749-.687 122.255-25.11 166.607-65.175v-19.272c0-30.568-21.245-57.028-51.091-63.633z" fill="#2477f9"/><path d="m81.727 425.702v15.624c26.185 24.711 57.649 43.887 92.523 55.658v-71.283c0-29.694 20.051-55.509 48.561-63.014l4.282-21.543-94.315 20.933c-29.827 6.621-51.051 33.072-51.051 63.625z" fill="#0540e5"/><g><path d="m253.365 416.221c37.265 0 67.475-30.209 67.475-67.474v-22.158l-68.04-15.056-66.909 14.851v22.363c0 37.264 30.209 67.474 67.474 67.474z" fill="#0540e5"/></g><g><g><g><path d="m253.339 381.231c-20.073 0-36.344-16.272-36.344-36.344v-81.407h72.689v81.406c0 20.073-16.272 36.345-36.345 36.345z" fill="#ff965a"/></g></g></g><g><g><g><path d="m351.934 135.963c0-33.168-21.278-63.497-54.445-63.497h-88.299c-9.464 0-18.132 2.477-25.694 6.777v175.309c0 38.264 30.776 69.577 69.038 69.867.268.002.537.003.805.003 56.987 0 103.183-46.197 103.183-103.183v-32.575z" fill="#ffbe82"/></g></g></g><g><g><g><path d="m351.934 135.963c0-33.168-21.278-63.497-54.445-63.497h-88.299c-9.464 0-18.132 2.477-25.694 6.777v175.309c0 38.264 30.776 69.577 69.038 69.867.268.002.537.003.805.003 56.987 0 103.183-46.197 103.183-103.183v-32.575z" fill="#ffbe82"/></g></g></g><g><path d="m216.995 263.48v81.406c40.413 7.849 64.954-5.603 72.689-25.837v-55.569z" fill="#ef6a30"/></g><g><g><g><path d="m208.757 182.68v7.276c0 4.746 3.848 8.594 8.594 8.594s8.594-3.848 8.594-8.594v-7.276z" fill="#ff965a"/></g></g></g><g><g><g><path d="m278.78 182.68v7.276c0 4.746 3.848 8.594 8.594 8.594s8.594-3.848 8.594-8.594v-7.276z" fill="#ff965a"/></g></g></g><g><g><g><path d="m217.351 191.667c-4.746 0-8.594-3.848-8.594-8.594v-11.055l3.168-4.797-3.168-4.797v-2.855c0-4.746 3.848-8.594 8.594-8.594s8.594 3.848 8.594 8.594v23.504c0 4.746-3.848 8.594-8.594 8.594z" fill="#373c41"/></g></g></g><g><g><g><path d="m287.374 191.667c-4.746 0-8.594-3.848-8.594-8.594v-11.055l3.168-4.797-3.168-4.797v-2.855c0-4.746 3.848-8.594 8.594-8.594s8.594 3.848 8.594 8.594v23.504c0 4.746-3.848 8.594-8.594 8.594z" fill="#373c41"/></g></g></g><g><path d="m339.758 100.066c.986.001 1.96-.047 2.928-.119-9.264-16.253-25.025-27.482-45.198-27.482h-88.298c-9.464 0-18.132 2.477-25.694 6.777v2.196c-19.413 9.058-32.087 28.451-32.087 52.25l-2.274 54.974v31.554c0 59.556 49.9 107.227 109.797 104.054-43.381-12.598-75.091-52.632-75.091-100.077.258-5.863 0-62.674 0-84.254 0-.154.001-.307.002-.461.165-21.948 18.249-39.549 40.197-39.527z" fill="#ff965a"/></g><g><g><g><g><path d="m228.673 146.678h-25.062c-4.746 0-8.594-3.848-8.594-8.594 0-4.746 3.848-8.594 8.594-8.594h25.062c4.746 0 8.594 3.848 8.594 8.594 0 4.746-3.847 8.594-8.594 8.594z" fill="#783c28"/></g></g></g></g><g><path d="m253.363 336.074c-24.083 0-43.606-19.523-43.606-43.606v-54.176c0-9.08 7.361-16.441 16.441-16.441h54.329c9.08 0 16.441 7.361 16.441 16.441v54.176c0 24.083-19.522 43.606-43.605 43.606z" fill="#783c28"/></g><g><g><g><g><path d="m300.29 146.678h-25.062c-4.746 0-8.594-3.848-8.594-8.594 0-4.746 3.848-8.594 8.594-8.594h25.062c4.746 0 8.594 3.848 8.594 8.594 0 4.746-3.848 8.594-8.594 8.594z" fill="#783c28"/></g></g></g></g><g><path d="m284.983 239.211h-8.849l-23.305 4.838-23.305-4.838h-7.828c-2.626 0-4.724 2.292-4.374 4.895.67 4.979 2.349 9.638 4.823 13.766l47.189 13.984c10.657-5.231 18.378-15.528 20.023-27.75.35-2.603-1.748-4.895-4.374-4.895z" fill="#be1423"/></g><g><g><g><path d="m239.415 203.866c-2.136 8.531 1.746 17.824 9.171 20.625 1.494.564 3.092.869 4.754.869 1.661 0 3.26-.305 4.754-.869 7.425-2.801 11.308-12.094 9.171-20.625l-7.082-28.282c-1.783-7.12-11.902-7.12-13.685 0z" fill="#ff965a"/></g></g></g><g><g><path d="m356.523 78.715v57.792.003 52.153c-7.633 0-13.821-6.188-13.821-13.821v-61.026c0-13.479-7.586-25.903-19.707-31.799-.297-.145-.594-.286-.89-.423v-2.878h34.418z" fill="#783c28"/></g></g><g><path d="m211.925 175.186c-1.75 0-3.168-1.418-3.168-3.168v-9.594c0-1.75 1.418-3.168 3.168-3.168 1.75 0 3.168 1.418 3.168 3.168v9.594c0 1.75-1.418 3.168-3.168 3.168z" fill="#fff"/></g><g><path d="m281.949 175.186c-1.75 0-3.168-1.418-3.168-3.168v-9.594c0-1.75 1.418-3.168 3.168-3.168 1.75 0 3.168 1.418 3.168 3.168v9.594c0 1.75-1.419 3.168-3.168 3.168z" fill="#fff"/></g><g><path d="m222.149 257.869c6.351 10.593 17.941 17.686 31.19 17.686 5.74 0 11.166-1.335 15.992-3.704-2.075-13.015-13.347-22.963-26.946-22.963-8.026-.001-15.243 3.465-20.236 8.981z" fill="#ff3c3c"/></g><g><path d="m271.007 248.887h-36.357c-2.831 0-5.127-2.295-5.127-5.127v-4.55h46.611v4.55c0 2.832-2.295 5.127-5.127 5.127z" fill="#fff"/></g><g><path d="m216.234 50.14v41.804l123.525.121c21.404.021 38.766-17.324 38.766-38.728v-53.337l-112.3.104c-27.617.025-49.991 22.42-49.991 50.036z" fill="#a55a3c"/></g><g><g><path d="m217.139 59.015c0-32.485 26.318-58.827 58.803-58.857l102.582-.095v-.063l-170.586.158c-32.485.03-58.803 26.373-58.803 58.857v77.493.003 52.153c7.633 0 13.821-6.188 13.821-13.821v-61.026c0-.081 0-.162.001-.242.082-12.047 10.103-21.672 22.151-21.66l32.032.031v-32.931z" fill="#783c28"/></g></g><g><path d="m252.916 382.584c-26.014 0-52.03-6.45-75.777-19.357l-.86-.468c-29.691-16.138-48.137-47.156-48.137-80.951v-39.598h9v39.598c0 30.494 16.644 58.482 43.435 73.043l.861.468c45.029 24.475 98.722 24.337 143.624-.369 26.561-14.613 43.061-42.523 43.061-72.838v-39.901h9v39.901c0 33.597-18.286 64.529-47.723 80.724-23.925 13.163-50.203 19.748-76.484 19.748z" fill="#696e73"/></g><g><path d="m128.142 247.91h9v14.311h-9z" fill="#50555a"/></g><g><path d="m368.122 248.887h9v14.593h-9z" fill="#50555a"/></g><g><g><path d="m125.142 219.798h15v33.286h-15z" fill="#373c41"/></g><g><g><path d="m139.254 216.211h-23.168c-13.748 0-24.893-11.145-24.893-24.893v-28.897c0-13.748 11.145-24.893 24.893-24.893h23.168z" fill="#ffd23c"/></g><g><path d="m91.208 161.869c-.004.184-.014.367-.014.552v28.897c0 13.748 11.145 24.893 24.893 24.893h23.168v-30.002h-23.168c-13.563 0-24.585-10.848-24.879-24.34z" fill="#ffc305"/></g><g><path d="m132.641 230.061c9.109 0 16.493-7.384 16.493-16.493v-72.535c0-9.109-7.384-16.493-16.493-16.493-9.109 0-16.493 7.384-16.493 16.493v72.535c0 9.109 7.384 16.493 16.493 16.493z" fill="#373c41"/></g><g><path d="m132.642 203.06c-9.109 0-16.493-7.384-16.493-16.493v27.002c0 9.109 7.384 16.493 16.493 16.493 9.109 0 16.493-7.384 16.493-16.493v-27.002c0 9.108-7.385 16.493-16.493 16.493z" fill="#232628"/></g></g></g><g><g><path d="m365.122 219.798h15v33.286h-15z" fill="#373c41"/></g><g><g><path d="m366.009 216.211h23.168c13.748 0 24.893-11.145 24.893-24.893v-28.897c0-13.748-11.145-24.893-24.893-24.893h-23.168z" fill="#ffd23c"/></g><g><path d="m414.056 161.869c.004.184.014.367.014.552v28.897c0 13.748-11.145 24.893-24.893 24.893h-23.168v-30.002h23.168c13.563 0 24.584-10.848 24.879-24.34z" fill="#ffc305"/></g><g><path d="m372.622 230.061c-9.109 0-16.493-7.384-16.493-16.493v-72.535c0-9.109 7.384-16.493 16.493-16.493 9.109 0 16.493 7.384 16.493 16.493v72.535c0 9.109-7.384 16.493-16.493 16.493z" fill="#373c41"/></g><g><path d="m372.622 203.06c9.109 0 16.493-7.384 16.493-16.493v27.002c0 9.109-7.384 16.493-16.493 16.493-9.109 0-16.493-7.384-16.493-16.493v-27.002c0 9.108 7.384 16.493 16.493 16.493z" fill="#232628"/></g></g></g><path d="m248.863 510.122c2.072.05 4.151.076 6.235.076.923 0 1.844-.005 2.765-.015v-132.196h-9z" fill="#696e73"/><g><path d="m252.912 383.989c-7.504 0-15.006-.527-22.462-1.583l1.682-11.882c14.273 2.02 28.737 1.949 42.991-.209l1.797 11.864c-7.961 1.207-15.986 1.81-24.008 1.81z" fill="#82878c"/></g><g><path d="m247.34 381.231h12v20.918h-12z" fill="#82878c"/></g></g></g></svg>