<svg id="Layer_1" enable-background="new 0 0 511 511" height="512" viewBox="0 0 511 511" width="512" xmlns="http://www.w3.org/2000/svg"><g><g><path d="m255.5 28.352c-92.868 0-150.075 52.383-150.233 52.472 0 0-2.378 2.968-2.823 4.942-3.613 16.039-6.989 37.536-6.989 53.222 0 133.28 112.394 241.298 245.673 241.298 51.323 0 108.423-24.598 146.639-54.173.855-.662 3.567-5.107 3.567-5.107.168-1.028 5.489-22.217 5.489-51.33.001-133.28-108.043-241.324-241.323-241.324z" fill="#afe6ff"/><path d="m341.107 373.473c-133.28 0-241.324-108.045-241.324-241.324 0-17.617 1.9-34.781 5.484-51.325-55.5 44.214-91.091 112.378-91.091 188.852 0 62.315 23.619 119.114 62.393 161.932l357.862-.001c27.732-30.606 47.771-68.447 56.904-110.602-41.223 32.835-93.43 52.468-150.228 52.468z" fill="#73c8f0"/></g><g><g><path d="m381.086 358.831-62.972-13.935-66.382-.472c-45.982 10.206-80.065 38.62-80.065 85.722v65.877c26.115 9.675 54.353 14.977 83.833 14.977 70.555 0 134.58-30.446 178.931-79.393v-6.336c0-31.917-22.183-59.544-53.345-66.44z" fill="#ffc305"/><g><path d="m404.896 142.634c0-18.792-6.685-35.653-17.282-47.193-4.874-5.308-7.987-11.996-8.904-19.144-3.056-23.818-22.547-42.192-46.087-44.315-8.844-.798-17.015-5.068-22.871-11.743-10.884-12.405-26.847-20.239-44.647-20.239-17.562 0-33.337 7.625-44.208 19.743-7.011 7.814-16.97 12.416-27.462 12.034-24.495-.892-47.003 16.278-51.974 40.833-1.669 8.244-6.424 15.514-12.955 20.816-13.712 11.132-22.742 30.085-22.742 51.606 0 14.198 3.931 27.277 10.544 37.731 6.737 10.652 9.477 23.472 7.212 35.87-.547 2.997-.834 6.085-.834 9.24-.001 28.023 23.071 51.129 51.094 51.167 28.292.039 51.239-22.884 51.239-51.166 0-19.659-11.093-36.718-27.355-45.287 6.542-10.429 10.432-23.439 10.432-37.556 0-4.556-.416-8.991-1.183-13.267 11.592-3.637 21.414-11.273 27.827-21.31 8.886 5.297 19.267 8.348 30.364 8.348 7.963 0 15.555-1.578 22.495-4.421 4.405 5.649 9.979 10.335 16.344 13.731-.894 4.664-1.381 9.521-1.381 14.521 0 13.112 3.255 25.286 8.82 35.371-17.018 8.747-28.504 26.741-27.784 47.354.928 26.566 22.491 48.24 49.052 49.294 29.207 1.158 53.249-22.176 53.249-51.125 0-1.649-.078-3.279-.231-4.888-1.286-13.526 2.258-26.979 9.247-38.63 6.272-10.453 9.981-23.379 9.981-37.375z" fill="#ff640a"/></g><g><path d="m223.198 214.322c-3.775-13.765-13.152-25.211-25.532-31.734 6.542-10.429 10.432-23.439 10.432-37.556 0-4.556-.416-8.991-1.183-13.267 5.975-1.875 11.473-4.818 16.283-8.599v-105.839c-.788.785-1.558 1.588-2.301 2.416-7.011 7.814-16.97 12.416-27.462 12.034-24.495-.892-47.003 16.278-51.974 40.833-1.669 8.244-6.424 15.514-12.955 20.816-13.712 11.132-22.742 30.085-22.742 51.606 0 14.198 3.931 27.277 10.544 37.732 6.737 10.652 9.477 23.472 7.212 35.87-.547 2.997-.834 6.085-.834 9.24 0 28.023 23.071 51.129 51.094 51.167 23.603.033 43.474-15.922 49.416-37.633v-27.086z" fill="#cd5014"/></g><path d="m194.662 344.424-64.791 14.38c-31.142 6.912-53.302 34.53-53.302 66.43v6.373c26.167 28.896 59.235 51.425 96.604 64.985v-71.358c0-19.333 8.142-37.09 21.489-49.62z" fill="#ffa50a"/><g><g><g><path d="m358.924 225.871h-3.707v-61.331h3.707c13.361 0 24.193 10.832 24.193 24.193v12.946c0 13.361-10.831 24.192-24.193 24.192z" fill="#ff965a"/></g></g></g><g><g><g><path d="m358.765 208.004h-1.547v-25.598h1.547c5.577 0 10.097 4.521 10.097 10.097v5.403c0 5.578-4.521 10.098-10.097 10.098z" fill="#ef6a30"/></g></g></g><g><path d="m255.741 426.712c34.448 0 62.374-27.926 62.374-62.374v-19.443l-62.884-13.915-61.863 13.731v19.627c-.001 34.449 27.925 62.374 62.373 62.374z" fill="#fff"/></g><g><g><g><path d="m255.741 399.679c-20.073 0-36.344-16.272-36.344-36.344v-81.406h72.689v81.406c-.001 20.072-16.273 36.344-36.345 36.344z" fill="#ff965a"/></g></g></g><g><g><g><path d="m354.335 154.411c0-33.168-21.278-63.497-54.445-63.497h-88.298c-9.464 0-18.132 2.477-25.694 6.777v175.309c0 38.264 30.776 69.577 69.038 69.867.268.002.537.003.805.003 56.987 0 103.183-46.197 103.183-103.183v-32.575z" fill="#ffbe82"/></g></g></g><g><path d="m219.396 360.807c1.946.179 3.91.298 5.899.313.268.002.537.003.805.003 25.096 0 48.097-8.963 65.984-23.858v-55.336h-72.689v78.878z" fill="#ef6a30"/></g><g><g><g><path d="m354.335 154.411c0-33.168-21.278-63.497-54.445-63.497h-88.298c-9.464 0-18.132 2.477-25.694 6.777v175.309c0 38.264 30.776 69.577 69.038 69.867.268.002.537.003.805.003 56.987 0 103.183-46.197 103.183-103.183v-32.575z" fill="#ffbe82"/></g></g></g><g><g><g><path d="m151.381 223.348h4.335v-61.331h-4.335c-13.361 0-24.193 10.831-24.193 24.193v12.946c.001 13.36 10.832 24.192 24.193 24.192z" fill="#ff965a"/></g></g></g><g><g><g><path d="m151.005 204.79h1.712v-24.216h-1.712c-5.276 0-9.552 4.277-9.552 9.552v5.111c0 5.276 4.276 9.553 9.552 9.553z" fill="#ef6a30"/></g></g></g><g><g><g><path d="m211.159 201.129v7.276c0 4.746 3.848 8.594 8.594 8.594s8.594-3.848 8.594-8.594v-7.276z" fill="#ff965a"/></g></g></g><g><g><g><path d="m281.182 201.129v7.276c0 4.746 3.848 8.594 8.594 8.594s8.594-3.848 8.594-8.594v-7.276z" fill="#ff965a"/></g></g></g><g><g><path d="m261.334 342.72c-43.381-12.598-75.091-52.632-75.091-100.077.258-5.863 0-62.674 0-84.254 0-33.168 26.888-60.055 60.055-60.055h74.95c-6.593-2.56-13.782-3.977-21.358-3.977h-88.298c-33.168 0-57.782 24.614-57.782 57.782l-2.274 54.974v31.554c0 59.554 49.9 107.226 109.798 104.053z" fill="#ff965a"/></g></g><g><g><g><path d="m219.753 210.115c-4.746 0-8.594-3.848-8.594-8.594v-11.055l3.168-4.797-3.168-4.797v-2.855c0-4.746 3.848-8.594 8.594-8.594s8.594 3.848 8.594 8.594v23.504c-.001 4.746-3.848 8.594-8.594 8.594z" fill="#373c41"/></g></g></g><g><g><g><path d="m289.776 210.115c-4.746 0-8.594-3.848-8.594-8.594v-11.055l3.168-4.797-3.168-4.797v-2.855c0-4.746 3.848-8.594 8.594-8.594s8.594 3.848 8.594 8.594v23.504c0 4.746-3.848 8.594-8.594 8.594z" fill="#373c41"/></g></g></g><g><g><g><g><path d="m231.075 165.126h-25.062c-4.746 0-8.594-3.848-8.594-8.594 0-4.746 3.848-8.594 8.594-8.594h25.062c4.746 0 8.594 3.848 8.594 8.594 0 4.747-3.848 8.594-8.594 8.594z" fill="#cd5014"/></g></g></g></g><g><g><g><g><path d="m302.691 165.126h-25.062c-4.746 0-8.594-3.848-8.594-8.594 0-4.746 3.848-8.594 8.594-8.594h25.062c4.746 0 8.594 3.848 8.594 8.594 0 4.747-3.848 8.594-8.594 8.594z" fill="#cd5014"/></g></g></g></g><g><path d="m287.385 257.659h-8.849l-23.305 4.838-23.305-4.838h-7.828c-2.626 0-4.724 2.292-4.374 4.895.67 4.979 2.349 9.638 4.823 13.766l47.189 13.984c10.657-5.231 18.378-15.528 20.023-27.75.35-2.603-1.748-4.895-4.374-4.895z" fill="#be1423"/></g><g><g><g><path d="m241.816 222.315c-2.136 8.531 1.746 17.824 9.171 20.625 1.494.564 3.092.869 4.754.869 1.661 0 3.26-.305 4.754-.869 7.425-2.801 11.308-12.094 9.171-20.625l-7.082-28.282c-1.783-7.12-11.902-7.12-13.685 0z" fill="#ff965a"/></g></g></g><g><g><path d="m358.924 97.164v57.792.003 52.153c-7.633 0-13.821-6.188-13.821-13.821v-61.026c0-13.479-7.586-25.903-19.707-31.799-.297-.145-.594-.286-.89-.423v-2.878h34.418z" fill="#ff640a"/></g></g><g><path d="m214.327 193.635c-1.75 0-3.168-1.418-3.168-3.168v-9.594c0-1.75 1.418-3.168 3.168-3.168 1.75 0 3.168 1.418 3.168 3.168v9.594c0 1.749-1.419 3.168-3.168 3.168z" fill="#fff"/></g><g><path d="m284.35 193.635c-1.75 0-3.168-1.418-3.168-3.168v-9.594c0-1.75 1.418-3.168 3.168-3.168 1.75 0 3.168 1.418 3.168 3.168v9.594c0 1.749-1.418 3.168-3.168 3.168z" fill="#fff"/></g><g><path d="m224.55 276.317c6.351 10.593 17.941 17.686 31.19 17.686 5.74 0 11.166-1.335 15.992-3.704-2.075-13.015-13.347-22.963-26.946-22.963-8.026 0-15.242 3.466-20.236 8.981z" fill="#ff3c3c"/></g><g><path d="m273.409 267.336h-36.357c-2.831 0-5.127-2.295-5.127-5.127v-4.55h46.611v4.55c-.001 2.832-2.296 5.127-5.127 5.127z" fill="#fff"/></g><g><path d="m186.951 31.993c-24.865 2.196-44.704 22.499-46.392 47.403-.33 4.871.024 9.607.974 14.123 6.152 29.23 10.003 58.896 10.003 88.766v24.826c7.633 0 13.821-6.188 13.821-13.821.04-11.227.047-20.396.039-27.915-.018-16.635 12.947-30.304 29.548-31.363.216-.014.433-.029.65-.046 24.754-1.885 44.821-21.692 46.976-46.424 2.779-31.889-23.722-58.367-55.619-55.549z" fill="#ff640a"/></g><g><circle cx="265.105" cy="59.401" fill="#ff640a" r="59.401"/></g><g><circle cx="327.962" cy="82.953" fill="#ff640a" r="51.167"/></g></g><g><path d="m148.647 223.348h2.889v-33.221h-2.889c-9.174 0-16.611 7.437-16.611 16.611.001 9.173 7.437 16.61 16.611 16.61z" fill="#fff"/></g><g><path d="m362.001 223.905h-2.889v-33.221h2.889c9.174 0 16.611 7.437 16.611 16.611 0 9.173-7.437 16.61-16.611 16.61z" fill="#fff"/></g><g><path d="m175.003 409.304 80.227 92.529 80.346-92.508c13.634-15.698 22.984-34.469 27.389-54.504l-6.834-1.512c-4.155 18.904-12.976 36.615-25.84 51.426l-75.056 86.417-74.942-86.435c-12.835-14.803-21.636-32.499-25.781-51.382l-6.833 1.517c4.394 20.011 13.722 38.764 27.324 54.452z" fill="#ffa50a"/></g><g><path d="m255.229 491.833-80.226-92.53c-19.48-22.468-30.209-51.219-30.209-80.957v-81.652h7v81.652c0 28.053 10.121 55.176 28.498 76.371l74.942 86.435 75.056-86.418c18.419-21.207 28.563-48.356 28.563-76.446v-81.594h7v81.594c0 29.776-10.753 58.555-30.278 81.036z" fill="#e4f2f6"/></g><g><path d="m224.553 456.605c-1.54 0-3.07-.643-4.158-1.897l-34.349-39.617c-1.99-2.295-1.742-5.769.553-7.759 2.294-1.99 5.768-1.742 7.759.553l34.349 39.617c1.99 2.295 1.742 5.769-.553 7.759-1.041.902-2.324 1.344-3.601 1.344z" fill="#fff"/></g><g><path d="m144.794 241.979h7v14.091h-7z" fill="#c8e6eb"/></g><g><path d="m146.494 245.984c2.784 0 5.042-2.257 5.042-5.042v-23.886h-10.083v23.886c0 2.785 2.257 5.042 5.041 5.042z" fill="#fff"/></g><g><path d="m358.854 239.809h7v20.225h-7z" fill="#c8e6eb"/></g><g><path d="m364.154 246.541c-2.784 0-5.042-2.257-5.042-5.042v-23.886h10.083v23.887c0 2.784-2.257 5.041-5.041 5.041z" fill="#fff"/></g><path d="m251.732 510.971c1.254.019 2.51.029 3.768.029 1.079 0 2.156-.008 3.232-.022v-24.486h-7z" fill="#e4f2f6"/></g></g></svg>