<svg id="Layer_1" enable-background="new 0 0 510.272 510.272" height="512" viewBox="0 0 510.272 510.272" width="512" xmlns="http://www.w3.org/2000/svg"><g><g><path d="m255.136 21.82c-93.985 0-151.88 53.013-152.04 53.103 0 0-2.407 3.004-2.857 5.002-3.657 16.232-7.073 37.987-7.073 53.862 0 134.882 113.746 244.199 248.628 244.199 51.94 0 109.727-24.894 148.403-54.824.865-.67 3.61-5.168 3.61-5.168.17-1.041 5.555-22.485 5.555-51.947 0-134.884-109.343-244.227-244.226-244.227z" fill="#afe6ff"/><g><path d="m493.807 317.993c-41.719 33.23-94.553 53.098-152.034 53.098-134.882 0-244.226-109.344-244.226-244.226 0-17.829 1.923-35.2 5.55-51.942-.006.004.006-.004 0 0-56.168 44.746-92.187 113.729-92.187 191.123 0 134.882 109.344 244.226 244.226 244.226 116.051 0 214.648-81.389 238.671-192.279z" fill="#73c8f0"/></g></g><g><g><path d="m341.368 441.6h-7v-78.842c0-20.311-16.524-36.834-36.835-36.834h-94.445c-20.311 0-36.835 16.524-36.835 36.834v78.842h-7v-78.842c0-24.17 19.664-43.834 43.835-43.834h94.445c24.171 0 43.835 19.664 43.835 43.834z" fill="#e4f2f6"/></g><g><path d="m165.68 470.408v-276.415h60.201v216.214c0 33.248-26.953 60.201-60.201 60.201z" fill="#ffa50a"/></g><g><path d="m306.974 27.624h-51.918c-26.96 0-48.114 23.127-45.716 49.981l16.587 185.72h74.804c41.827 0 75.734-33.907 75.734-75.734v-90.475c.001-38.38-31.112-69.492-69.491-69.492z" fill="#ffc305"/></g><g><g><g><path d="m306.271 0h-64.193c-18.593 0-33.666 15.073-33.666 33.666v100.111h97.859c22.577 0 40.879-4.442 40.879-27.019v-65.879c0-22.577-18.302-40.879-40.879-40.879z" fill="#ffc305"/></g></g></g><g><path d="m207.325 106.758v-65.879c0-22.577 18.302-40.879 40.879-40.879h-42.615c-22.577 0-40.879 18.302-40.879 40.879v65.879c0 22.577 18.302 27.019 40.879 27.019h42.615c-22.577 0-40.879-4.442-40.879-27.019z" fill="#ffa50a"/></g><g><path d="m233.814 263.325v-166.209c0-38.379-11.681-69.492 26.699-69.492h-55.636c-38.379 0-69.492 31.113-69.492 69.492v90.475c0 41.827 33.907 75.734 75.734 75.734z" fill="#ffa50a"/></g><path d="m360.476 344.957h-47.375c-.225 0-80.641 15.064-115.153 19.027l-9.353 137.101c21.155 5.977 43.472 9.187 66.54 9.187 73.214 0 139.481-32.394 184.459-84.153v-2.044c.001-43.695-35.422-79.118-79.118-79.118z" fill="#ff3c3c"/><path d="m166.674 344.95c-9.287-.004-10.183.023-12.774.249-40.939 3.02-73.222 37.167-73.222 78.877v12.882c24.09 24.587 53.343 44.09 85.996 56.785z" fill="#dc1428"/><g><path d="m260.136 452.535c29.252 0 52.965-71.716 52.965-100.968v-6.61h-105.93v6.61c0 29.252 23.714 100.968 52.965 100.968z" fill="#fff"/></g><g><path d="m183.928 344.958c1.804 21.691 9.489 50.901 19.921 74.689 11.094 25.296 29.807 55.45 55.958 55.45s44.864-30.154 55.958-55.45c10.432-23.788 18.117-52.999 19.921-74.69h-9.427c-3.82 41.556-31.27 120.763-66.452 120.763s-62.631-79.207-66.452-120.763h-4.104c-1.887.001-3.655.001-5.323.001z" fill="#dc1428"/></g><g><g><g><path d="m294.392 350.299c0 18.919-15.337 34.255-34.255 34.255-18.919 0-34.255-15.337-34.255-34.255v-76.726h68.51z" fill="#ffbe82"/></g></g></g><g><path d="m225.881 340.668c.027 0 .054.003.082.003.248.002.496.003.745.003 26.235 0 50.067-10.287 67.683-27.047v-40.053h-68.51z" fill="#ef6a30"/></g><g><g><g><path d="m352.722 126.032c-.226-22.789-18.764-41.144-41.555-41.144h-49.373c-27.511 0-52.514 10.727-71.064 28.222v141.16c0 35.473 28.501 64.578 63.973 64.844.248.002.496.003.745.003 54.242 0 98.214-43.972 98.214-98.214z" fill="#ffbe82"/></g></g></g><g><g><g><path d="m376.466 186.041c0 12.593-10.209 22.802-22.802 22.802v-57.806c12.593 0 22.802 10.209 22.802 22.802z" fill="#ff965a"/></g></g></g><g><g><g><path d="m361.72 182.096c0 4.45-3.607 8.057-8.057 8.057v-20.424c4.45 0 8.057 3.607 8.057 8.057z" fill="#ef6a30"/></g></g></g><g><g><g><path d="m135.395 186.041c0 12.593 10.209 22.802 22.802 22.802v-57.806c-12.593 0-22.802 10.209-22.802 22.802z" fill="#ff965a"/></g></g></g><g><g><g><path d="m149.892 182.162c0 4.587 3.718 8.305 8.305 8.305v-21.054c-4.587 0-8.305 3.718-8.305 8.305z" fill="#ef6a30"/></g></g></g><g><g><g><path d="m214.392 184.29v8.353c0 4.473 3.627 8.1 8.1 8.1s8.1-3.627 8.1-8.1v-8.353z" fill="#ff965a"/></g></g></g><g><g><g><path d="m280.542 184.29v8.353c0 4.473 3.627 8.1 8.1 8.1s8.1-3.627 8.1-8.1v-8.353z" fill="#ff965a"/></g></g></g><g><g><g><path d="m222.492 193.993c-4.473 0-8.1-3.627-8.1-8.1v-5.974l3.251-4.884-3.251-4.884v-6.41c0-4.473 3.627-8.1 8.1-8.1s8.1 3.627 8.1 8.1v22.153c0 4.472-3.627 8.099-8.1 8.099z" fill="#373c41"/></g></g></g><g><g><g><path d="m288.641 193.993c-4.473 0-8.1-3.627-8.1-8.1v-7.578l3.251-4.884-3.251-4.884v-4.806c0-4.473 3.627-8.1 8.1-8.1s8.1 3.627 8.1 8.1v22.153c0 4.472-3.626 8.099-8.1 8.099z" fill="#373c41"/></g></g></g><g><path d="m185.127 193.993h-19.447v276.415c6.808 0 13.344-1.147 19.447-3.229z" fill="#fa870a"/></g><g><g><g><path d="m243.287 207.873c-2.014 7.095 1.646 14.825 8.644 17.154 1.408.469 2.915.723 4.48.723 1.566 0 3.072-.254 4.48-.723 6.998-2.33 10.658-10.059 8.644-17.154l-9.821-34.607c-.945-3.329-5.662-3.329-6.607 0z" fill="#ff965a"/></g></g></g><g><path d="m165.68 291.84c12.231 23.963 34.081 42.074 60.201 49.468v-32.645c-23.012-17.778-37.84-29.628-37.84-60.96.014-24.682.011-41.773.005-53.71h-22.366z" fill="#fa870a"/></g><g><path d="m264.519 85.061c-58.684-.112-106.322 47.417-106.322 106.101v30.703c0 59.778 53.647 106.02 113.755 95.844-45.888-7.806-80.833-47.732-80.833-95.844.025-43.067-.004-63.055-.008-72.796-.003-7.711 6.302-14.033 14.013-14.05h.01 47.139c27.432 0 49.67-22.238 49.67-49.67-.001 0-7.166-.23-37.424-.288z" fill="#ff965a"/></g><g><path d="m208.433 45.636c-27.745 0-50.236 22.491-50.236 50.236v32.397 62.893c7.194 0 13.026-5.832 13.026-13.026v-15.956c0-18.728 15.182-33.91 33.91-33.91h47.139c27.432 0 49.67-22.238 49.67-49.67v-32.964z" fill="#ffc305"/></g><g><path d="m300.182 84.888c22.219 0 40.455 19.021 40.455 41.24v52.008c0 7.194 5.832 13.026 13.026 13.026v-110.125z" fill="#ffc305"/></g><g><path d="m287.398 239.495h-8.507l-22.404 4.651-22.404-4.651h-7.525c-2.524 0-4.542 2.204-4.205 4.705.644 4.787 2.258 9.266 4.637 13.234l45.365 13.444c10.245-5.029 17.668-14.928 19.249-26.678.335-2.502-1.682-4.705-4.206-4.705z" fill="#be1423"/></g><g><path d="m226.992 257.432c6.105 10.184 17.247 17.003 29.985 17.003 5.518 0 10.734-1.284 15.374-3.561-1.994-12.512-12.831-22.075-25.905-22.075-7.716-.001-14.653 3.33-19.454 8.633z" fill="#ff3c3c"/></g><g><path d="m278.891 243.869c0 2.722-2.207 4.929-4.929 4.929h-34.952c-2.722 0-4.929-2.207-4.929-4.929v-4.374h44.809v4.374z" fill="#fff"/></g><g><path d="m217.643 183.171c-1.796 0-3.251-1.456-3.251-3.251v-9.769c0-1.796 1.456-3.251 3.251-3.251 1.796 0 3.251 1.456 3.251 3.251v9.769c.001 1.795-1.455 3.251-3.251 3.251z" fill="#fff"/></g><g><path d="m283.793 181.567c-1.796 0-3.251-1.456-3.251-3.251v-9.769c0-1.796 1.456-3.251 3.251-3.251 1.796 0 3.251 1.456 3.251 3.251v9.769c0 1.795-1.456 3.251-3.251 3.251z" fill="#fff"/></g><path d="m165.68 493.37c7.372 2.903 14.92 5.459 22.623 7.645 22.037-8.942 37.578-30.559 37.578-55.806v-101.648l-60.201-6.888z" fill="#ffa50a"/><path d="m165.68 493.37c6.356 2.503 12.843 4.748 19.447 6.72v-161.192l-19.447-2.225z" fill="#fa870a"/><g><path d="m361.72 235.268c-8.632 0-15.395-9.006-15.395-20.504s6.762-20.504 15.395-20.504v8c-3.498 0-7.395 5.135-7.395 12.504s3.897 12.504 7.395 12.504 7.395-5.135 7.395-12.504h8c0 11.497-6.763 20.504-15.395 20.504z" fill="#fff"/></g><g><path d="m152.044 235.268c-8.632 0-15.395-9.006-15.395-20.504h8c0 7.369 3.897 12.504 7.395 12.504s7.395-5.135 7.395-12.504-3.897-12.504-7.395-12.504v-8c8.632 0 15.395 9.006 15.395 20.504s-6.762 20.504-15.395 20.504z" fill="#fff"/></g><g><g><g><path d="m158.647 441.6h7v-102.554c-4.421 6.841-7 14.978-7 23.711z" fill="#e4f2f6"/></g></g><g><path d="m297.533 318.923h-2.987v7h2.987c20.311 0 36.835 16.524 36.835 36.834v78.843h7v-78.842c0-24.17-19.664-43.835-43.835-43.835z" fill="#e4f2f6"/></g></g><g><g><path d="m164.3 454.384h2.889v33.221h-2.889c-9.174 0-16.611-7.437-16.611-16.611 0-9.174 7.437-16.61 16.611-16.61z" fill="#fff"/></g><g><path d="m162.147 431.747c2.784 0 5.042 2.257 5.042 5.042v23.886h-10.083v-23.886c0-2.784 2.257-5.042 5.041-5.042z" fill="#fff"/></g></g><g><g><path d="m335.715 435.99h-2.889v33.221h2.889c9.174 0 16.611-7.437 16.611-16.611 0-9.173-7.437-16.61-16.611-16.61z" fill="#dc1428"/></g><g><path d="m337.868 413.354c-2.784 0-5.042 2.257-5.042 5.042v23.886h10.083v-23.886c0-2.785-2.257-5.042-5.041-5.042z" fill="#dc1428"/></g></g><g><g><path d="m335.715 424.989h-2.889v33.221h2.889c9.174 0 16.611-7.437 16.611-16.611 0-9.173-7.437-16.61-16.611-16.61z" fill="#fff"/></g><g><path d="m337.868 402.353c-2.784 0-5.042 2.257-5.042 5.042v23.886h10.083v-23.886c0-2.785-2.257-5.042-5.041-5.042z" fill="#fff"/></g></g></g></g></svg>