<svg id="Layer_1" enable-background="new 0 0 511 511" height="512" viewBox="0 0 511 511" width="512" xmlns="http://www.w3.org/2000/svg"><g><g><path d="m255.5 11.89c-98.131 0-158.58 54.17-158.747 54.261 0 0-2.513 3.07-2.983 5.111-3.818 16.587-7.385 38.816-7.385 55.038 0 137.825 118.763 249.528 259.596 249.528 54.231 0 114.568-25.437 154.949-56.021.903-.684 3.769-5.281 3.769-5.281.178-1.063 5.8-22.975 5.8-53.08.001-137.827-114.166-249.556-254.999-249.556z" fill="#afe6ff"/><path d="m345.959 368.782c-140.833 0-255-111.73-255-249.555 0-18.217 2.007-35.968 5.795-53.076-58.645 45.723-96.254 116.212-96.254 195.294 0 69.598 29.112 132.541 76.069 177.804l357.862-.007c34.559-33.289 59.538-76.244 70.268-124.716-43.559 33.954-98.724 54.256-158.74 54.256z" fill="#73c8f0"/></g><g><g><path d="m160.648 262.467h30v46.971h-30z" fill="#373c41"/></g><g><path d="m320.658 262.467h30v46.971h-30z" fill="#373c41"/></g><path d="m381.086 325.439-125.856-27.85-82.758 18.368v181.498c19.92 6.711 40.952 11.083 62.758 12.766l40 .04c18.396-1.383 36.279-4.685 53.428-9.709l6.082-9.509 7.918 4.969c34.654-12.344 65.898-31.848 91.772-56.771v-47.362c.001-31.917-22.182-59.544-53.344-66.44z" fill="#2477f9"/><path d="m76.569 391.843v47.406c27.011 26.037 59.928 46.223 96.604 58.459v-105.865c0-31.004 20.936-57.958 50.703-65.794l4.47-22.493-98.475 21.857c-31.141 6.912-53.302 34.53-53.302 66.43z" fill="#0540e5"/><path d="m235.23 373.759v136.464c4.469.344 8.97.575 13.5.691l5.754-6.331 7.247 6.344c4.528-.107 9.029-.33 13.5-.666v-136.502z" fill="#0540e5"/><path d="m248.73 510.914c2.25.057 4.506.086 6.77.086 2.082 0 4.159-.026 6.23-.074v-146.928h-13z" fill="#fff"/><g><path d="m347.184 237.155c16.147 0 29.236-13.09 29.236-29.236v-120.718h-29.236z" fill="#a03c19"/></g><g><g><g><path d="m358.924 192.479h-1.832v-61.331h1.832c13.361 0 24.193 10.832 24.193 24.193v12.946c0 13.361-10.831 24.192-24.193 24.192z" fill="#ff965a"/></g></g></g><g><g><g><path d="m358.852 174.526h-.76v-25.425h.76c5.539 0 10.029 4.49 10.029 10.029v5.367c0 5.539-4.49 10.029-10.029 10.029z" fill="#ef6a30"/></g></g></g><g><path d="m252.076 11.89h-61.121c-38.388 0-69.508 31.12-69.508 69.508v125.401c0 16.765 13.591 30.356 30.356 30.356h100.273z" fill="#cd5014"/></g><g><path d="m165.449 206.799 17.001-125.401c0-38.388 31.12-69.508 69.508-69.508h-61.004c-38.388 0-69.508 31.12-69.508 69.508v125.401c0 16.765 13.591 30.356 30.356 30.356h44.003c-16.765 0-30.356-13.591-30.356-30.356z" fill="#a03c19"/></g><g><path d="m255.741 387.075c30.228 0 54.733-24.505 54.733-54.733v-22.528l-55.243-12.225-54.222 12.035v22.718c-.001 30.228 24.504 54.733 54.732 54.733z" fill="#0540e5"/></g><g><g><g><path d="m255.741 366.287c-20.073 0-36.344-16.272-36.344-36.344v-81.406h72.689v81.406c-.001 20.073-16.273 36.344-36.345 36.344z" fill="#ff965a"/></g></g></g><g><g><g><path d="m354.335 121.02c0-33.168-21.278-63.497-54.445-63.497h-88.298c-9.464 0-18.132 2.477-25.694 6.777v175.309c0 38.264 30.776 69.577 69.038 69.867.268.002.537.003.805.003 56.987 0 103.183-65.7 103.183-122.686v-13.072z" fill="#ffbe82"/></g></g></g><g><g><g><path d="m151.381 189.956h6.224l-1.761-61.331h-4.463c-13.361 0-24.193 10.831-24.193 24.193v12.946c.001 13.36 10.832 24.192 24.193 24.192z" fill="#ff965a"/></g></g></g><g><g><g><path d="m151.312 170.59h2.294l-.649-22.6h-1.645c-4.923 0-8.915 3.991-8.915 8.915v4.77c0 4.924 3.992 8.915 8.915 8.915z" fill="#ef6a30"/></g></g></g><g><g><g><path d="m211.159 167.737v7.276c0 4.746 3.848 8.594 8.594 8.594s8.594-3.848 8.594-8.594v-7.276z" fill="#ff965a"/></g></g></g><g><g><g><path d="m281.182 167.737v7.276c0 4.746 3.848 8.594 8.594 8.594s8.594-3.848 8.594-8.594v-7.276z" fill="#ff965a"/></g></g></g><g><path d="m173.32 74.609c-12.12 10.396-19.51 25.978-19.51 44.137l-2.273 54.974.245 13.072c0 59.556 49.655 125.709 109.552 122.536-43.381-12.598-75.091-52.632-75.091-100.077.258-5.863 0-62.674 0-84.254 0-11.786 3.403-22.773 9.272-32.045 2.944-4.652 8.06-7.48 13.565-7.48h1.136c4.453 0 8.652 1.903 11.736 5.115 9.261 9.646 22.282 15.653 36.71 15.653h94.508v-31.631z" fill="#ff965a"/></g><g><g><g><path d="m219.753 176.724c-4.746 0-8.594-3.848-8.594-8.594v-11.055l3.168-4.797-3.168-4.797v-2.855c0-4.746 3.848-8.594 8.594-8.594s8.594 3.848 8.594 8.594v23.504c-.001 4.746-3.848 8.594-8.594 8.594z" fill="#373c41"/></g></g></g><g><g><g><path d="m289.776 176.724c-4.746 0-8.594-3.848-8.594-8.594v-11.055l3.168-4.797-3.168-4.797v-2.855c0-4.746 3.848-8.594 8.594-8.594s8.594 3.848 8.594 8.594v23.504c0 4.746-3.848 8.594-8.594 8.594z" fill="#373c41"/></g></g></g><g><g><g><g><path d="m231.075 131.735h-25.062c-4.746 0-8.594-3.848-8.594-8.594 0-4.746 3.848-8.594 8.594-8.594h25.062c4.746 0 8.594 3.848 8.594 8.594 0 4.746-3.848 8.594-8.594 8.594z" fill="#a03c19"/></g></g></g></g><g><g><g><g><path d="m302.691 131.735h-25.062c-4.746 0-8.594-3.848-8.594-8.594 0-4.746 3.848-8.594 8.594-8.594h25.062c4.746 0 8.594 3.848 8.594 8.594 0 4.746-3.848 8.594-8.594 8.594z" fill="#a03c19"/></g></g></g></g><g><path d="m287.385 224.267h-8.849l-23.305 4.838-23.305-4.838h-7.828c-2.626 0-4.724 2.292-4.374 4.895.67 4.979 2.349 9.638 4.823 13.766l47.189 13.984c10.657-5.231 18.378-15.528 20.023-27.75.35-2.602-1.748-4.895-4.374-4.895z" fill="#be1423"/></g><g><g><g><path d="m241.816 188.923c-2.136 8.531 1.746 17.824 9.171 20.625 1.494.564 3.092.869 4.754.869 1.661 0 3.26-.305 4.754-.869 7.425-2.801 11.308-12.094 9.171-20.625l-7.082-28.282c-1.783-7.12-11.902-7.12-13.685 0z" fill="#ff965a"/></g></g></g><g><g><path d="m358.924 63.772v57.792.003 52.153c-7.633 0-13.821-6.188-13.821-13.821v-61.026c0-13.479-7.586-25.903-19.707-31.799-.297-.145-.594-.286-.89-.423v-2.878h34.418z" fill="#cd5014"/></g></g><g><path d="m214.327 160.243c-1.75 0-3.168-1.418-3.168-3.168v-9.594c0-1.75 1.418-3.168 3.168-3.168 1.75 0 3.168 1.418 3.168 3.168v9.594c0 1.75-1.419 3.168-3.168 3.168z" fill="#fff"/></g><g><path d="m284.35 160.243c-1.75 0-3.168-1.418-3.168-3.168v-9.594c0-1.75 1.418-3.168 3.168-3.168 1.75 0 3.168 1.418 3.168 3.168v9.594c0 1.75-1.418 3.168-3.168 3.168z" fill="#fff"/></g><g><path d="m224.55 242.926c6.351 10.593 17.941 17.686 31.19 17.686 5.74 0 11.166-1.335 15.992-3.704-2.075-13.015-13.347-22.963-26.946-22.963-8.026-.001-15.242 3.465-20.236 8.981z" fill="#ff3c3c"/></g><g><path d="m273.409 233.944h-36.357c-2.831 0-5.127-2.295-5.127-5.127v-4.55h46.611v4.55c-.001 2.832-2.296 5.127-5.127 5.127z" fill="#fff"/></g><g><g><path d="m151.536 77.471v44.093.003 52.153c7.633 0 13.821-6.188 13.821-13.821v-61.026c0-.081 0-.162.001-.242.071-10.435 7.601-19.048 17.444-21.16z" fill="#a03c19"/></g></g><g><path d="m376.42 98.239h-117.758c-28.111 0-50.899-22.788-50.899-50.899 0-26.145 21.195-47.34 47.34-47.34h70.418c28.111 0 50.899 22.788 50.899 50.899z" fill="#cd5014"/></g><g><path d="m228.346 77.471h-45.544l-1.901-13.194 8.496-13.195h42.528z" fill="#cd5014"/></g><g><path d="m163.9 51.082v26.389h18.668c.525-9.419 2.921-18.338 6.83-26.389z" fill="#a03c19"/></g><g><path d="m153.947 297.589h43.402v30.81h-43.402z" fill="#ffa50a"/></g><g><path d="m153.947 297.589h17.43v30.81h-17.43z" fill="#fa870a"/></g><g><ellipse cx="175.648" cy="389.298" fill="#0540e5" rx="53.762" ry="60.9"/></g><g><ellipse cx="175.648" cy="377.298" fill="#373c41" rx="53.762" ry="60.9"/></g><g><path d="m201.309 414.392c-29.692 0-53.762-27.266-53.762-60.9 0-12.132 3.144-23.425 8.542-32.919-20.016 8.864-34.202 30.91-34.202 56.724 0 33.634 24.07 60.9 53.762 60.9 18.982 0 35.654-11.154 45.221-27.981-6.065 2.686-12.658 4.176-19.561 4.176z" fill="#262a2d"/></g><g><ellipse cx="175.648" cy="377.298" fill="#ffc305" rx="33.181" ry="37.586"/></g><g><path d="m142.467 377.298c0 4.198.617 8.231 1.738 12.001h62.887c1.121-3.77 1.738-7.803 1.738-12.001 0-3.832-.509-7.528-1.45-11.01h-63.463c-.941 3.482-1.45 7.178-1.45 11.01z" fill="#ffa50a"/></g><g><path d="m313.957 297.589h43.402v30.81h-43.402z" fill="#ffa50a"/></g><path d="m328.658 500.551c4.724-1.384 9.392-2.899 14-4.54v-42.866h-14z" fill="#262a2d"/><g><path d="m313.957 297.589h17.43v30.81h-17.43z" fill="#fa870a"/></g><g><ellipse cx="335.658" cy="389.298" fill="#0540e5" rx="53.762" ry="60.9"/></g><g><path d="m323.658 433.329h24v25.101h-24z" fill="#373c41"/></g><g><ellipse cx="335.658" cy="377.298" fill="#373c41" rx="53.762" ry="60.9"/></g><g><path d="m361.319 414.392c-29.692 0-53.762-27.266-53.762-60.9 0-12.132 3.144-23.425 8.542-32.919-20.016 8.864-34.202 30.91-34.202 56.724 0 33.634 24.07 60.9 53.762 60.9 18.982 0 35.654-11.154 45.221-27.981-6.065 2.686-12.658 4.176-19.561 4.176z" fill="#262a2d"/></g><g><ellipse cx="335.658" cy="377.298" fill="#ffc305" rx="33.181" ry="37.586"/></g><g><path d="m302.477 377.298c0 4.198.617 8.231 1.738 12.001h62.887c1.121-3.77 1.738-7.803 1.738-12.001 0-3.832-.509-7.528-1.45-11.01h-63.463c-.941 3.482-1.45 7.178-1.45 11.01z" fill="#ffa50a"/></g><g><path d="m358.924 186.792h-.516c-6.657 0-12.308 4.809-13.449 11.367-7.137 41.031-41.865 72.589-84.372 74.858.001 0 .003.001.005.001-14.69.796-28.762-1.937-41.401-7.447 0 30.742 25.556 55.322 56.275 54.125l24.048-.937c35.103-16.467 59.412-52.125 59.412-93.463v-32.575z" fill="#cd5014"/></g><g><g><path d="m299.512 318.759c-34.105-3.729-63.469-24.042-79.57-52.863-27.77-11.811-48.749-37.008-54.326-67.897-1.172-6.49-6.825-11.207-13.42-11.207h-.415l-.245 5.929v31.554c0 59.734 50.159 107.267 109.797 104.054-.002 0-.003-.001-.005-.002 13.593-.725 26.488-4.081 38.184-9.568z" fill="#a03c19"/></g></g></g></g></svg>