<svg id="Layer_1" enable-background="new 0 0 511 511" height="512" viewBox="0 0 511 511" width="512" xmlns="http://www.w3.org/2000/svg"><g><g><path d="m255.5 1c-98.131 0-158.58 55.352-158.747 55.445 0 0-2.513 3.137-2.983 5.222-3.818 16.948-7.385 39.663-7.385 56.238 0 140.833 118.763 254.972 259.596 254.972 54.231 0 114.568-25.992 154.949-57.243.903-.699 3.769-5.396 3.769-5.396.178-1.087 5.8-23.477 5.8-54.239.001-140.832-114.166-254.999-254.999-254.999z" fill="#afe6ff"/><path d="m345.959 365.679c-140.833 0-255-114.167-255-255 0-18.615 2.007-36.753 5.795-54.234-58.645 46.72-96.254 118.747-96.254 199.555 0 70.416 28.542 134.166 74.688 180.312.459.459.919.916 1.381 1.371l357.862-.008c34.559-34.015 59.538-77.908 70.268-127.437-43.559 34.696-98.724 55.441-158.74 55.441z" fill="#73c8f0"/></g><g><g><path d="m368.947 285.87h-57.662v-11h57.662c8.446 0 15.318-6.872 15.318-15.319v-20.267h11v20.267c0 14.512-11.807 26.319-26.318 26.319z" fill="#696e73"/></g><g><path d="m308.955 35.838h-106.428c-11.675 0-21.14-9.465-21.14-21.14h148.708c0 11.675-9.465 21.14-21.14 21.14z" fill="#ff3c3c"/></g><g><path d="m220.389 14.698h-39.002c0 11.676 9.465 21.14 21.14 21.14h39.003c-11.676 0-21.141-9.465-21.141-21.14z" fill="#dc1428"/></g><g><path d="m392.765 187.081h-20v-119.336c0-26.327-21.418-47.745-47.745-47.745h-140.042c-26.327 0-47.745 21.418-47.745 47.745v119.336h-20v-119.336c0-37.355 30.391-67.745 67.745-67.745h140.042c37.354 0 67.745 30.39 67.745 67.745z" fill="#50555a"/></g><g><path d="m117.233 137.236h20v49.845h-20z" fill="#373c41"/></g><g><path d="m372.765 137.236h20v49.845h-20z" fill="#373c41"/></g><path d="m345.1 357.256-35.153-7.779-108.413-.19-37.639 8.354-.929 75.878.929 60.531c28.431 10.948 59.317 16.95 91.605 16.95 31.442 0 61.65-5.734 89.596-16.232l1.38-44.075z" fill="#fff"/><path d="m76.569 431.623v6.06c24.713 24.341 54.37 43.678 87.326 56.368v-136.41l-34.024 7.552c-31.141 6.912-53.302 34.53-53.302 66.43z" fill="#ffa50a"/><path d="m345.1 494.781c33.681-12.651 64.065-32.239 89.33-57.106v-6.016c0-31.916-22.182-59.544-53.345-66.439l-35.986-7.963v42.046c.064 1.799.069 3.614 0 5.449v90.029z" fill="#ffc305"/><g><path d="m255.741 427.003c29.938 0 54.207-24.269 54.207-54.207v-23.319l-54.717-12.108-53.696 11.918v23.509c-.001 29.938 24.268 54.207 54.206 54.207z" fill="#a0ebff"/></g><g><g><g><path d="m255.741 406.068c-20.073 0-36.344-16.272-36.344-36.344v-81.406h72.689v81.406c-.001 20.072-16.273 36.344-36.345 36.344z" fill="#ff965a"/></g></g></g><g><path d="m219.396 359.84c23.043 6.524 59.139-2.199 72.689-17.322v-54.201h-72.689z" fill="#ef6a30"/></g><g><g><g><path d="m354.335 160.8c0-33.168-21.278-63.497-54.445-63.497h-88.298c-9.464 0-18.132 2.477-25.694 6.777v175.309c0 38.263 30.776 69.577 69.038 69.867.268.002.537.003.805.003 56.987 0 103.183-46.197 103.183-103.183v-32.576z" fill="#ffbe82"/></g></g></g><g><g><g><path d="m211.159 207.517v7.276c0 4.746 3.848 8.594 8.594 8.594s8.594-3.848 8.594-8.594v-7.276z" fill="#ff965a"/></g></g></g><g><g><g><path d="m281.182 207.517v7.276c0 4.746 3.848 8.594 8.594 8.594s8.594-3.848 8.594-8.594v-7.276z" fill="#ff965a"/></g></g></g><g><g><path d="m261.334 349.108c-43.381-12.598-75.091-52.632-75.091-100.077.258-5.863 0-62.674 0-84.254 0-33.168 26.888-60.055 60.055-60.055h74.95c-6.593-2.56-13.782-3.977-21.358-3.977h-88.298c-33.168 0-57.782 24.614-57.782 57.782l-2.274 54.974v31.554c0 59.555 49.9 107.226 109.798 104.053z" fill="#ff965a"/></g></g><g><g><g><path d="m219.753 216.504c-4.746 0-8.594-3.848-8.594-8.594v-11.055l3.168-4.797-3.168-4.797v-2.855c0-4.746 3.848-8.594 8.594-8.594s8.594 3.848 8.594 8.594v23.504c-.001 4.746-3.848 8.594-8.594 8.594z" fill="#373c41"/></g></g></g><g><g><g><path d="m289.776 216.504c-4.746 0-8.594-3.848-8.594-8.594v-11.055l3.168-4.797-3.168-4.797v-2.855c0-4.746 3.848-8.594 8.594-8.594s8.594 3.848 8.594 8.594v23.504c0 4.746-3.848 8.594-8.594 8.594z" fill="#373c41"/></g></g></g><g><g><g><g><path d="m231.075 171.515h-25.062c-4.746 0-8.594-3.848-8.594-8.594 0-4.746 3.848-8.594 8.594-8.594h25.062c4.746 0 8.594 3.848 8.594 8.594 0 4.746-3.848 8.594-8.594 8.594z" fill="#783c28"/></g></g></g></g><g><g><g><g><path d="m302.691 171.515h-25.062c-4.746 0-8.594-3.848-8.594-8.594 0-4.746 3.848-8.594 8.594-8.594h25.062c4.746 0 8.594 3.848 8.594 8.594 0 4.746-3.848 8.594-8.594 8.594z" fill="#783c28"/></g></g></g></g><g><path d="m287.385 264.048h-8.849l-23.305 4.838-23.305-4.838h-7.828c-2.626 0-4.724 2.292-4.374 4.895.67 4.979 2.349 9.638 4.823 13.766l47.189 13.984c10.657-5.231 18.378-15.528 20.023-27.75.35-2.603-1.748-4.895-4.374-4.895z" fill="#be1423"/></g><g><g><g><path d="m241.816 228.704c-2.136 8.531 1.746 17.824 9.171 20.625 1.494.564 3.092.869 4.754.869 1.661 0 3.26-.305 4.754-.869 7.425-2.801 11.308-12.094 9.171-20.625l-7.082-28.282c-1.783-7.12-11.902-7.12-13.685 0z" fill="#ff965a"/></g></g></g><g><path d="m345.483 106.667-153.729-21.645-6.522 29.752c.25-.121.5-.241.75-.357 10.094-4.692 21.089 4.946 17.662 15.538-.042.13-.084.261-.125.391-2.32 7.382 3.245 14.889 10.983 14.889h50.642c18.653 0 34.9-10.29 43.382-25.502 3.239-5.809 10.473-8.237 16.487-5.397.117.055.234.111.351.167 8.872 4.263 16.811 12.062 19.642 21.203h.478v-29.039z" fill="#ff965a"/></g><g><path d="m358.924 127.708v-27.149h-173.692v6.215c.25-.121.5-.241.75-.357 10.094-4.692 21.089 4.946 17.662 15.538-.042.13-.084.261-.125.391-2.32 7.382 3.245 14.889 10.983 14.889h50.642c18.654 0 34.9-10.29 43.382-25.502 3.239-5.809 10.473-8.237 16.487-5.397.117.055.234.111.351.167 8.872 4.263 15.286 12.062 18.117 21.204l.259.779z" fill="#a55a3c"/></g><g><g><path d="m151.536 103.553v57.792.003 52.152c7.633 0 13.821-6.188 13.821-13.821v-61.026c0-13.479 7.586-25.903 19.707-31.799.297-.145.594-.286.89-.423v-2.878z" fill="#783c28"/></g><g><path d="m351.258 119.363c-5.047 0-8.715 4.792-7.394 9.663.811 2.991 1.239 6.112 1.239 9.295v61.359c0 7.633 6.188 13.821 13.821 13.821v-86.472c0-4.234-3.432-7.666-7.666-7.666z" fill="#783c28"/></g></g><g><path d="m214.327 200.023c-1.75 0-3.168-1.418-3.168-3.168v-9.594c0-1.75 1.418-3.168 3.168-3.168 1.75 0 3.168 1.418 3.168 3.168v9.594c0 1.75-1.419 3.168-3.168 3.168z" fill="#fff"/></g><g><path d="m284.35 200.023c-1.75 0-3.168-1.418-3.168-3.168v-9.594c0-1.75 1.418-3.168 3.168-3.168 1.75 0 3.168 1.418 3.168 3.168v9.594c0 1.75-1.418 3.168-3.168 3.168z" fill="#fff"/></g><g><path d="m224.55 282.706c6.351 10.593 17.941 17.686 31.19 17.686 5.74 0 11.166-1.335 15.992-3.704-2.075-13.015-13.347-22.963-26.946-22.963-8.026 0-15.242 3.465-20.236 8.981z" fill="#ff3c3c"/></g><g><path d="m273.409 273.725h-36.357c-2.831 0-5.127-2.295-5.127-5.127v-4.55h46.611v4.55c-.001 2.831-2.296 5.127-5.127 5.127z" fill="#fff"/></g><g><path d="m319.64 35.838h-94.595l-3.546.036c-20.089.203-36.267 16.546-36.267 36.635v28.05h173.692v-25.437c0-21.696-17.588-39.284-39.284-39.284z" fill="#a55a3c"/></g><g><path d="m225.045 35.838h-34.224c-21.696 0-39.284 17.588-39.284 39.284v29.463l34.418-1.033-.194-28.43c-.001-21.696 17.588-39.284 39.284-39.284z" fill="#783c28"/></g><g><g><g><g><path d="m97.803 217.345c0 20.287 16.445 36.732 36.732 36.732v-93.119c-20.287 0-36.732 16.445-36.732 36.732z" fill="#ff3c3c"/></g></g></g><g><path d="m98.419 191.016c-.398 2.165-.616 4.393-.616 6.673v19.655c0 20.286 16.445 36.732 36.732 36.732v-33.002c-18.006.001-32.976-12.959-36.116-30.058z" fill="#dc1428"/></g><g><path d="m143.899 264.048c-5.171 0-9.364-4.192-9.364-9.364v-90.993c0-5.171 4.192-9.364 9.364-9.364 5.171 0 9.364 4.192 9.364 9.364v90.993c0 5.171-4.193 9.364-9.364 9.364z" fill="#ffa50a"/></g><g><path d="m143.899 233.046c-5.172 0-9.364-4.192-9.364-9.364v31.002c0 5.172 4.192 9.364 9.364 9.364 5.171 0 9.364-4.192 9.364-9.364v-31.002c0 5.172-4.193 9.364-9.364 9.364z" fill="#fa870a"/></g></g><g><g><g><g><path d="m377.652 252.407v-93.119c20.287 0 36.732 16.445 36.732 36.732v19.655c0 20.286-16.445 36.732-36.732 36.732z" fill="#ff3c3c"/></g></g></g><g><path d="m413.768 189.346c.398 2.165.616 4.393.616 6.673v19.655c0 20.286-16.445 36.732-36.732 36.732v-33.002c18.006.001 32.976-12.959 36.116-30.058z" fill="#dc1428"/></g><g><path d="m368.288 262.378c5.172 0 9.364-4.192 9.364-9.364v-90.993c0-5.171-4.192-9.364-9.364-9.364-5.171 0-9.364 4.192-9.364 9.364v90.993c0 5.171 4.193 9.364 9.364 9.364z" fill="#ffa50a"/></g><g><path d="m368.288 231.376c5.172 0 9.364-4.192 9.364-9.364v31.002c0 5.172-4.192 9.364-9.364 9.364-5.171 0-9.364-4.192-9.364-9.364v-31.002c0 5.171 4.193 9.364 9.364 9.364z" fill="#fa870a"/></g></g><g><path d="m311.285 274.87h47.479v11h-47.479z" fill="#50555a"/></g><g><path d="m325.038 296.693h-14.254c-9.015 0-16.322-7.308-16.322-16.322 0-9.015 7.308-16.322 16.322-16.322h14.254c9.015 0 16.322 7.308 16.322 16.322 0 9.014-7.308 16.322-16.322 16.322z" fill="#373c41"/></g></g></g></svg>