<svg id="Layer_1" enable-background="new 0 0 511 511" height="512" viewBox="0 0 511 511" width="512" xmlns="http://www.w3.org/2000/svg"><g><g><path d="m255.5 17.397c-94.976 0-153.482 53.572-153.643 53.663 0 0-2.432 3.036-2.887 5.054-3.695 16.404-7.148 38.388-7.148 54.43 0 136.305 114.945 246.774 251.25 246.774 52.488 0 110.884-25.156 149.967-55.403.874-.677 3.648-5.223 3.648-5.223.172-1.052 5.614-22.722 5.614-52.495.001-136.303-110.496-246.8-246.801-246.8z" fill="#afe6ff"/><path d="m343.05 370.351c-136.305 0-246.801-110.497-246.801-246.802 0-18.017 1.943-35.571 5.608-52.49-56.759 45.218-93.159 114.93-93.159 193.139 0 66.38 26.206 126.639 68.836 170.996l355.931-.004c30.967-32.2 53.339-72.878 63.222-118.497-42.158 33.58-95.549 53.658-153.637 53.658z" fill="#73c8f0"/></g><g><g><path d="m119.786 110.381h180.42v-77.949c0-12.81-8.739-23.929-21.162-27.058-20.501-5.163-44.111-6.247-69.676-4.765-50.351 2.919-89.582 44.836-89.582 95.271z" fill="#cd5014"/></g><g><path d="m306.453 20.788-5.445 13.001-70.163 319.215h106.696c24.582 0 44.509-19.927 44.509-44.509v-212.109c.001-41.752-33.845-75.598-75.597-75.598z" fill="#ff640a"/></g><g><path d="m301.009 33.789-104.715-3.975c-41.752 0-76.508 24.821-76.508 66.572v212.109c0 24.582 19.927 44.509 44.509 44.509h58.53c43.18 0 78.183-35.004 78.183-78.183v-241.032z" fill="#cd5014"/></g><g><path d="m323.216 12.736c32.494 0 58.835 26.341 58.835 58.835v47.808h-81.845v-83.633c0-12.708 10.302-23.01 23.01-23.01z" fill="#ff640a"/></g><path d="m355.324 366.005h-170.345c-2.182.001-4.198.001-6.087.001v81.703c0 32.666 25.033 60.081 57.604 62.568.202.015.403.031.605.045 6.074.449 12.21.677 18.399.677 17.629 0 34.859-1.859 51.494-5.397l102.539-48.579c8.444-6.748 16.439-14.043 23.932-21.834-4.703-38.978-37.894-69.184-78.141-69.184z" fill="#64bc0f"/><g><path d="m179.996 291.351c0 38.59-.35 61.364 38.239 61.653.27.002 31.895 8.892 32.166 8.892 59.008 0 106.845-47.836 106.845-106.844v-18.728z" fill="#cd5014"/></g><path d="m193.021 366.005c-.141 0-39.163-.112-43.211.241-37.565 2.771-67.804 31.885-72.275 68.949 9.625 10.015 20.088 19.22 31.275 27.501l64.16-17.978c0-2.702.136-5.372.402-8.003 2.075-20.54 26.292-30.634 42.15-17.416 10.795 8.998 24.672 14.423 39.815 14.462 34.455.087 62.641-28.97 62.641-63.425v-4.329h-124.957z" fill="#58a804"/><g><g><g><path d="m292.765 371.817c0 20.581-16.684 37.265-37.265 37.265-20.581 0-37.265-16.684-37.265-37.265v-83.468h74.531v83.468z" fill="#fab9af"/></g></g></g><g><g><g><path d="m382.238 193.17c0 13.792-11.181 24.972-24.972 24.972h-1.522l-1.496-63.307h3.018c13.792 0 24.972 11.18 24.972 24.972z" fill="#fa968c"/></g></g></g><g><g><g><path d="m367.476 189.169c0 5.533-4.485 10.018-10.018 10.018h-.611l-.6-25.398h1.211c5.533 0 10.018 4.485 10.018 10.018z" fill="#fa735f"/></g></g></g><g><g><g><path d="m356.221 127.843c-.246-24.792-20.413-44.76-45.206-44.76h-53.711c-29.928 0-57.128 11.67-77.308 30.702v153.563c0 38.59 31.005 70.253 69.594 70.542.27.002.54.003.81.003 59.008 0 106.845-47.836 106.845-106.845z" fill="#ffbe82"/></g></g></g><g><path d="m218.235 353.004c7.112.164 48.089-.635 74.531-23.881v-40.775h-74.531z" fill="#fa735f"/></g><g><g><g><path d="m356.221 127.843c-.246-24.792-20.413-44.76-45.206-44.76h-53.711c-29.928 0-57.128 11.67-77.308 30.702v153.563c0 38.59 31.005 70.253 69.594 70.542.27.002.54.003.81.003 59.008 0 106.845-47.836 106.845-106.845z" fill="#fab9af"/></g></g></g><g><g><g><path d="m119.508 193.125c0 13.7 11.106 24.806 24.806 24.806h.911l.44-62.885h-1.351c-13.7 0-24.806 11.106-24.806 24.806z" fill="#fa968c"/></g></g></g><g><g><g><path d="m134.605 189.041c0 5.269 4.271 9.54 9.54 9.54h.35l.169-24.185h-.52c-5.269 0-9.54 4.271-9.54 9.54v5.105z" fill="#fa735f"/></g></g></g><g><g><g><path d="m205.736 191.22v9.088c0 4.866 3.946 8.812 8.812 8.812s8.812-3.945 8.812-8.812v-9.088z" fill="#fa968c"/></g></g></g><g><g><g><path d="m277.698 191.22v9.088c0 4.866 3.946 8.812 8.812 8.812s8.812-3.945 8.812-8.812v-9.088z" fill="#fa968c"/></g></g></g><g><g><g><path d="m214.547 201.776c-4.866 0-8.812-3.945-8.812-8.812v-6.499l3.537-5.314-3.537-5.314v-6.974c0-4.866 3.945-8.812 8.812-8.812 4.866 0 8.812 3.945 8.812 8.812v24.1c0 4.867-3.945 8.813-8.812 8.813z" fill="#373c41"/></g></g></g><g><g><g><path d="m286.51 201.776c-4.866 0-8.812-3.945-8.812-8.812v-8.244l3.537-5.314-3.537-5.314v-5.229c0-4.866 3.945-8.812 8.812-8.812 4.866 0 8.812 3.945 8.812 8.812v24.1c-.001 4.867-3.946 8.813-8.812 8.813z" fill="#373c41"/></g></g></g><g><path d="m349.131 72.13h-48.152v22.41c0 24.349 19.739 44.088 44.088 44.088h4.064z" fill="#fa968c"/></g><g><g><g><g><path d="m226.157 155.647h-25.697c-4.867 0-8.812-3.945-8.812-8.812 0-4.867 3.945-8.812 8.812-8.812h25.697c4.867 0 8.812 3.945 8.812 8.812-.001 4.867-3.946 8.812-8.812 8.812z" fill="#cd5014"/></g></g></g></g><g><g><g><g><path d="m299.587 155.647h-25.697c-4.867 0-8.812-3.945-8.812-8.812 0-4.867 3.945-8.812 8.812-8.812h25.697c4.867 0 8.812 3.945 8.812 8.812 0 4.867-3.945 8.812-8.812 8.812z" fill="#cd5014"/></g></g></g></g><g><g><g><path d="m237.17 216.876c-2.191 7.719 1.79 16.127 9.403 18.662 1.532.51 3.171.786 4.874.786s3.342-.276 4.874-.786c7.613-2.534 11.594-10.943 9.404-18.662l-10.684-37.648c-1.028-3.621-6.16-3.621-7.187 0z" fill="#fa968c"/></g></g></g><g><path d="m260.268 83.272c-63.84-.122-115.665 51.584-115.665 115.424v33.401c0 65.03 58.362 115.336 123.751 104.266-49.92-8.492-87.936-51.927-87.936-104.266.027-46.851-.004-68.596-.009-79.193-.003-8.388 6.856-15.266 15.244-15.284h.011 51.281c29.842 0 54.035-24.192 54.035-54.035-.001 0-7.795-.25-40.712-.313z" fill="#fa968c"/></g><g><path d="m199.253 40.383c-30.183 0-54.65 24.468-54.65 54.65v35.243 68.419c7.826 0 14.171-6.344 14.171-14.171v-17.358c0-20.374 16.516-36.89 36.89-36.89h51.281c29.842 0 54.035-24.192 54.035-54.035v-35.858z" fill="#ff640a"/></g><g><path d="m299.064 83.084c24.172 0 44.01 20.692 44.01 44.864v56.578c0 7.826 6.344 14.171 14.171 14.171v-119.803z" fill="#ff640a"/></g><g><path d="m209.273 190.002c-1.953 0-3.537-1.584-3.537-3.537v-10.627c0-1.953 1.584-3.537 3.537-3.537 1.953 0 3.537 1.584 3.537 3.537v10.627c0 1.954-1.584 3.537-3.537 3.537z" fill="#fff"/></g><g><path d="m281.235 188.258c-1.953 0-3.537-1.584-3.537-3.537v-10.627c0-1.953 1.584-3.537 3.537-3.537 1.953 0 3.537 1.584 3.537 3.537v10.627c0 1.953-1.584 3.537-3.537 3.537z" fill="#fff"/></g><g><circle cx="289.293" cy="224.316" fill="#fa968c" r="6.385"/></g><g><circle cx="312.805" cy="213.525" fill="#fa968c" r="4.406"/></g><g><circle cx="327.53" cy="236.281" fill="#fa968c" r="5.579"/></g><g><circle cx="304.302" cy="237.763" fill="#fa968c" r="4.097"/></g><g><circle cx="215.4" cy="225.353" fill="#fa968c" r="6.385"/></g><g><circle cx="191.888" cy="214.561" fill="#fa968c" r="4.406"/></g><g><circle cx="200.391" cy="238.8" fill="#fa968c" r="4.097"/></g><g><path d="m367.476 130.627h-22.41c-24.349 0-44.088-19.739-44.088-44.088v-22.409h66.497v66.497z" fill="#ff640a"/></g><g><path d="m251.877 287.097c-16.916 0-32.251-9.88-42.106-27.142l6.08-3.471c8.572 15.016 21.696 23.612 36.03 23.612h.208c9.855-.057 18.918-4.488 22.55-11.026l6.119 3.399c-4.896 8.812-16.133 14.554-28.628 14.626-.085.002-.17.002-.253.002z" fill="#fa968c"/></g><g><path d="m202.505 254.96h21.399v7h-21.399z" fill="#fa968c" transform="matrix(.896 -.444 .444 .896 -92.619 121.603)"/></g><g><path d="m237.604 306.726-2.065-5.633c.944-.346 23.274-8.39 34.895.426l-3.625 4.78c-7.483-5.673-23.619-1.615-29.205.427z" fill="#fa968c"/></g><g><path d="m193.834 163.43c-24.381 0-44.217 19.835-44.217 44.216 0 .115.008.229.009.344h6c-.001-.115-.009-.228-.009-.344 0-21.073 17.144-38.216 38.217-38.216s38.217 17.144 38.217 38.216c0 21.026-17.068 38.137-38.077 38.213v6c24.316-.076 44.077-19.879 44.077-44.213 0-24.381-19.836-44.216-44.217-44.216z" fill="#fff"/></g><g><path d="m309.285 165.939c-24.381 0-44.216 19.835-44.216 44.216 0 .234.014.464.018.697h6c-.004-.233-.018-.463-.018-.697 0-21.073 17.144-38.216 38.216-38.216 21.073 0 38.217 17.144 38.217 38.216s-17.144 38.217-38.217 38.217c-.052 0-.103-.004-.154-.004v5.999c.052 0 .103.005.154.005 24.381 0 44.217-19.835 44.217-44.217-.001-24.381-19.836-44.216-44.217-44.216z" fill="#fff"/></g><g><path d="m193.835 251.863c-24.381 0-44.217-19.835-44.217-44.217h6c0 21.073 17.144 38.217 38.217 38.217z" fill="#c8e6eb"/></g><g><path d="m309.285 254.372c-24.381 0-44.216-19.835-44.216-44.217h6c0 21.073 17.144 38.217 38.216 38.217z" fill="#c8e6eb"/></g><g><path d="m237.061 209.872-4.021-4.452c12.143-10.972 24.978-10.97 37.12 0l-4.023 4.452c-9.917-8.961-19.156-8.963-29.076 0z" fill="#fff"/></g><g><g><g><path d="m235.163 463.645h-74.312v-36.845h59.087c8.408 0 15.225 6.816 15.225 15.225z" fill="#ff3c3c"/></g><g><path d="m354.062 463.645h-74.312v-21.62c0-8.408 6.816-15.225 15.225-15.225h59.087z" fill="#ff3c3c"/></g></g><g><path d="m178.191 446.694h158.532v45.685h-158.532z" fill="#50555a"/></g><g fill="#373c41"><path d="m209.292 492.303v-45.609h-71.121v30.687c7.429 4.022 22.094 11.664 29.958 14.922z"/><path d="m347.124 488.671c4.121-1.887 13.239-4.302 20.787-6.699 5.83-1.852 9.718-7.346 9.524-13.46l-.693-21.818h-71.121v41.977z"/></g><g><ellipse cx="341.181" cy="426.8" fill="#fab9af" rx="29.725" ry="21.164"/></g><path d="m393.603 423.76c-13.821-10.979-44.054-10.392-56.411-9.628-9.091.561-16.002 8.382-15.447 17.474s12.15 16.919 21.232 16.358c13.768-.831 26.126-.435 30.329 1.818 1.763 1.423 3.979 3.719 3.113 15.758-.571 7.936-5.834 14.623-13.407 17.037l-12.897 4.11c-4.921 1.568-10.292 1.089-14.851-1.304l-29.109-21.257c-7.359-5.375-17.683-3.765-23.056 3.594-5.374 7.359-3.765 17.682 3.595 23.056l20.301 14.825c38.079-8.1 73.042-25.005 102.539-48.579-.55-11.459-4-23.783-15.931-33.262z" fill="#fab9af"/><g><ellipse cx="191.012" cy="427.362" fill="#fab9af" rx="29.725" ry="21.164"/></g><path d="m220.485 491.706-16.009-.165c-15.71-.162-31.307-2.669-46.276-7.44-7.387-2.354-12.841-8.006-15.287-15.402-1.403-4.244.189-10.892 5.367-17.29 5.119-6.186 28.619-3.808 40.118-2.967 9.093.665 5.886-5 7.74-13.921 1.854-8.922-3.874-17.658-12.796-19.513-.418-.086-10.356-2.128-21.814-2.344-16.239-.309-31.391 2.738-41.257 15.549-7.783 10.127-11.697 22.16-11.461 34.482 36.388 26.935 80.443 44.103 128.291 47.63.124-.966.164-1.959.113-2.971-.441-8.78-7.94-15.558-16.729-15.648z" fill="#fab9af"/></g></g></g></svg>