<?xml version="1.0"?>
<svg xmlns="http://www.w3.org/2000/svg" xmlns:xlink="http://www.w3.org/1999/xlink" xmlns:svgjs="http://svgjs.com/svgjs" version="1.1" width="512" height="512" x="0" y="0" viewBox="0 0 511 511" style="enable-background:new 0 0 512 512" xml:space="preserve" class=""><g><g xmlns="http://www.w3.org/2000/svg"><g><path d="m255.5 39.55c-90.713 0-146.593 51.168-146.747 51.254 0 0-2.323 2.9-2.758 4.827-3.53 15.667-6.827 36.665-6.827 51.987 0 130.187 109.786 235.699 239.973 235.699 50.132 0 105.908-24.027 143.237-52.916.835-.646 3.484-4.989 3.484-4.989.164-1.005 5.362-21.702 5.362-50.139.001-130.185-105.537-235.723-235.724-235.723z" fill="#477e32" data-original="#afe6ff" class=""/><path d="m339.121 376.664c-130.187 0-235.725-105.538-235.725-235.725 0-17.208 1.856-33.975 5.357-50.134-54.212 43.188-88.978 109.771-88.978 184.47 0 58.366 21.213 111.778 56.349 152.946l358.757-.003c24.705-28.933 42.575-63.997 50.982-102.804-40.267 32.073-91.262 51.25-146.742 51.25z" fill="#1d9bca" data-original="#73c8f0" class=""/></g><g><g><path d="m195.384 34.305c-41.752 0-75.598 33.846-75.598 75.598v288.941l107.079 5 29.045-271.909 5-97.63h-65.526z" fill="#43b7bc" data-original="#39ae96" class=""/></g><g><path d="m380.729 149.382h-125.229v-103.104c0-12.219 9.906-22.125 22.125-22.125 56.943 0 103.104 46.161 103.104 103.104z" fill="#2bdae1" data-original="#55c7a6" class=""/></g><g><path d="m254.168 411.844h128.012l-.129-288.941c0-41.752-33.846-75.598-75.598-75.598h-52.285z" fill="#2bdae1" data-original="#55c7a6" class=""/></g><path d="m364.978 392.523-109.478 43.077c-34.26.016-111.621-43.187-115.911-42.813-26.091 1.925-48.945 15.449-63.454 35.425 43.236 50.659 107.544 82.788 179.365 82.788 71.397 0 135.944-31.923 179.374-82.787-15.688-21.619-41.142-35.69-69.896-35.69z" fill="#ffffff" data-original="#ffffff" class=""/><path d="m139.589 392.787c-26.091 1.925-48.945 15.449-63.454 35.425 23.929 28.037 54.311 50.394 88.854 64.772v-14.136c0-12.89 2.826-25.117 7.891-36.099z" fill="#0b8bb0" data-original="#e4f2f6" class=""/><g><path d="m179.996 317.868c0 38.59 31.005 70.252 69.594 70.542.27.002.54.003.81.003 59.008 0 106.845-47.836 106.845-106.844v-18.728z" fill="#43b7bc" data-original="#39ae96" class=""/></g><g><path d="m139.589 392.787s17.756 94.51 115.911 94.539c98.747.029 109.478-94.803 109.478-94.803z" fill="#ff965a" data-original="#ff965a" class=""/></g><g><g><g><path d="m292.765 398.335c0 20.581-16.684 37.265-37.265 37.265-20.581 0-37.265-16.684-37.265-37.265v-83.468h74.531v83.468z" fill="#ff965a" data-original="#ff965a" class=""/></g></g></g><g><g><g><path d="m382.238 219.687c0 13.792-11.181 24.972-24.972 24.972h-1.522l-1.496-63.307h3.018c13.792 0 24.972 11.18 24.972 24.972z" fill="#ff965a" data-original="#ff965a" class=""/></g></g></g><g><g><g><path d="m367.476 215.687c0 5.533-4.485 10.018-10.018 10.018h-.611l-.6-25.398h1.211c5.533 0 10.018 4.485 10.018 10.018z" fill="#ef6a30" data-original="#ef6a30" class=""/></g></g></g><g><path d="m218.235 378.296c3.834.685 7.771 1.076 11.797 1.106.27.002.54.003.81.003 23.082 0 44.454-10.32 61.922-22.764v-41.775h-74.531v63.43z" fill="#ef6a30" data-original="#ef6a30" class=""/></g><g><g><g><path d="m356.221 154.361c-.246-24.792-20.413-44.76-45.206-44.76h-53.711c-29.928 0-57.128 11.67-77.308 30.702v153.563c0 38.59 31.005 70.253 69.594 70.542.27.002.54.003.81.003 59.008 0 106.845-47.836 106.845-106.845z" fill="#ffbe82" data-original="#ffbe82" class=""/></g></g></g><g><g><g><path d="m119.508 219.643c0 13.7 11.106 24.806 24.806 24.806h.911l.44-62.885h-1.351c-13.7 0-24.806 11.106-24.806 24.806z" fill="#ff965a" data-original="#ff965a" class=""/></g></g></g><g><g><g><path d="m134.605 215.559c0 5.269 4.271 9.54 9.54 9.54h.35l.169-24.185h-.52c-5.269 0-9.54 4.271-9.54 9.54v5.105z" fill="#ef6a30" data-original="#ef6a30" class=""/></g></g></g><g><g><g><path d="m205.736 217.737v9.088c0 4.866 3.946 8.812 8.812 8.812s8.812-3.945 8.812-8.812v-9.088z" fill="#ff965a" data-original="#ff965a" class=""/></g></g></g><g><g><g><path d="m277.698 217.737v9.088c0 4.866 3.946 8.812 8.812 8.812s8.812-3.945 8.812-8.812v-9.088z" fill="#ff965a" data-original="#ff965a" class=""/></g></g></g><g><g><g><path d="m214.547 228.294c-4.866 0-8.812-3.945-8.812-8.812v-6.499l3.537-5.314-3.537-5.314v-6.974c0-4.866 3.945-8.812 8.812-8.812s8.812 3.945 8.812 8.812v24.1c0 4.867-3.945 8.813-8.812 8.813z" fill="#373c41" data-original="#373c41" class=""/></g></g></g><g><g><g><path d="m286.51 228.294c-4.866 0-8.812-3.945-8.812-8.812v-8.244l3.537-5.314-3.537-5.314v-5.229c0-4.866 3.945-8.812 8.812-8.812 4.866 0 8.812 3.945 8.812 8.812v24.1c-.001 4.867-3.946 8.813-8.812 8.813z" fill="#373c41" data-original="#373c41" class=""/></g></g></g><g><path d="m281.235 111.412v-7.378l-76.916.539c-19.321-.309-36.109 6.635-46.919 18.615v75.169c.456-.056.914-.084 1.373-.1v-4.061c0-18.287 14.115-33.474 32.353-34.809l53.021-3.883c20.907-1.531 37.087-18.94 37.087-39.903v-4.189c0 29.296 23.749 53.046 53.046 53.046h10.113v-53.046z" fill="#ff965a" data-original="#ff965a" class=""/></g><g><g><g><path d="m237.17 243.393c-2.191 7.719 1.79 16.127 9.403 18.662 1.532.51 3.171.786 4.874.786s3.342-.276 4.874-.786c7.613-2.534 11.594-10.943 9.404-18.662l-10.684-37.648c-1.028-3.621-6.16-3.621-7.187 0z" fill="#ff965a" data-original="#ff965a" class=""/></g></g></g><g><g><path d="m144.603 225.214v33.401c0 65.03 58.362 115.336 123.751 104.266-49.92-8.492-87.936-51.926-87.936-104.266.021-37.002.006-90.773-.003-116.969-22.061 21.02-35.812 50.683-35.812 83.568z" fill="#ff965a" data-original="#ff965a" class=""/></g></g><g><path d="m299.064 109.601c24.172 0 44.01 20.692 44.01 44.864v56.578c0 7.826 6.344 14.171 14.171 14.171v-119.802z" fill="#2bdae1" data-original="#55c7a6" class=""/></g><g><path d="m289.731 282.913c.366-2.722-1.828-5.119-4.574-5.119h-9.255l-24.373 5.06-24.373-5.06h-8.187c-2.746 0-4.941 2.397-4.574 5.119.701 5.207 2.456 10.08 5.044 14.397l49.351 14.625c11.146-5.472 19.22-16.24 20.941-29.022z" fill="#961e0f" data-original="#961e0f" class=""/></g><g><path d="m219.443 297.307c6.642 11.079 18.763 18.497 32.62 18.497 6.003 0 11.677-1.396 16.725-3.874-2.17-13.611-13.959-24.015-28.181-24.015-8.395-.001-15.942 3.623-21.164 9.392z" fill="#be1423" data-original="#be1423" class=""/></g><g><path d="m275.902 282.552c0 2.961-2.401 5.362-5.362 5.362h-38.023c-2.961 0-5.362-2.401-5.362-5.362v-4.759h48.746v4.759z" fill="#ffffff" data-original="#ffffff" class=""/></g><g><path d="m209.273 216.52c-1.953 0-3.537-1.584-3.537-3.537v-10.627c0-1.953 1.584-3.537 3.537-3.537 1.953 0 3.537 1.584 3.537 3.537v10.627c0 1.954-1.584 3.537-3.537 3.537z" fill="#ffffff" data-original="#ffffff" class=""/></g><g><path d="m281.235 214.775c-1.953 0-3.537-1.584-3.537-3.537v-10.627c0-1.953 1.584-3.537 3.537-3.537 1.953 0 3.537 1.584 3.537 3.537v10.627c0 1.954-1.584 3.537-3.537 3.537z" fill="#ffffff" data-original="#ffffff" class=""/></g><g><path d="m281.235 109.601v-11.567l-76.916.539c-33.659-.539-59.668 20.905-59.682 52.712l-.034 73.929c7.826 0 14.171-6.344 14.171-14.171v-22.846c0-18.287 14.115-33.474 32.353-34.809l53.021-3.883c20.907-1.532 37.087-18.941 37.087-39.904z" fill="#2bdae1" data-original="#55c7a6" class=""/></g><g><path d="m359.227 158.458h-24.946c-29.296 0-53.046-23.749-53.046-53.046h77.992z" fill="#2bdae1" data-original="#55c7a6" class=""/></g><g><ellipse cx="184.607" cy="253.03" fill="#ff965a" rx="21.129" ry="16.567" data-original="#ff965a" class=""/></g><g><ellipse cx="320.231" cy="253.03" fill="#ff965a" rx="21.129" ry="16.567" data-original="#ff965a" class=""/></g><g><g><g><g><path d="m390.175 231.388c0 14.656-11.881 26.537-26.537 26.537h-1.618l-1.59-67.273h3.207c14.656 0 26.537 11.881 26.537 26.537v14.199z" fill="#fa968c" data-original="#fa968c"/></g></g></g><g><g><g><path d="m374.489 227.137c0 5.88-4.766 10.646-10.646 10.646h-.649l-.638-26.989h1.287c5.88 0 10.646 4.766 10.646 10.646z" fill="#fa735f" data-original="#fa735f"/></g></g></g><g><g><g><path d="m110.987 231.341c0 14.558 11.802 26.36 26.36 26.36h.968l.468-66.825h-1.436c-14.558 0-26.36 11.802-26.36 26.36z" fill="#fa968c" data-original="#fa968c"/></g></g></g><g><g><g><path d="m127.03 227.001c0 5.599 4.539 10.138 10.138 10.138h.372l.18-25.7h-.552c-5.599 0-10.138 4.539-10.138 10.138z" fill="#fa735f" data-original="#fa735f"/></g></g></g><g><path d="m144.095 190.876h-12.752v-59.337c0-37.983 30.901-68.885 68.884-68.885h100.881c37.982 0 68.884 30.901 68.884 68.885v59.112h-12.752v-59.112c0-30.952-25.181-56.133-56.132-56.133h-100.88c-30.952 0-56.132 25.181-56.132 56.133v59.337z" fill="#3c27dc" data-original="#ffc305" class=""/></g><g><path d="m144.095 190.876h-12.752v-59.337c0-37.983 30.901-68.885 68.884-68.885h39.168v12.752h-39.168c-30.952 0-56.132 25.181-56.132 56.133z" fill="#261986" data-original="#ffa50a" class=""/></g><g><g><path d="m119.121 168.73h25.269v17.209h-25.269z" fill="#fa870a" data-original="#fa870a" class=""/></g><g><path d="m135.404 265.256h8.986v-83.105h-8.986c-22.949 0-41.552 18.604-41.552 41.552-.001 22.95 18.603 41.553 41.552 41.553z" fill="#3c27dc" data-original="#ffc305" class=""/></g><g><path d="m135.889 182.151v28.461c0 22.073-27.862 31.774-41.547 14.455-.158-.2-.315-.402-.471-.607.406 22.598 18.839 40.795 41.533 40.795h8.986v-83.105h-8.501z" fill="#261986" data-original="#ffa50a" class=""/></g></g><g><g><path d="m357.404 168.73h25.269v17.209h-25.269z" fill="#fa870a" transform="matrix(-1 0 0 -1 740.077 354.668)" data-original="#fa870a" class=""/></g><g><path d="m366.39 265.256h-8.986v-83.105h8.986c22.949 0 41.552 18.604 41.552 41.552.001 22.95-18.603 41.553-41.552 41.553z" fill="#3c27dc" data-original="#ffc305" class=""/></g><g><path d="m365.905 182.151v28.461c0 22.073 27.862 31.774 41.547 14.455.158-.2.315-.402.471-.607-.406 22.598-18.839 40.795-41.533 40.795h-8.986v-83.105h8.501z" fill="#261986" data-original="#ffa50a" class=""/></g></g></g><g><g><path d="m203.252 0c-19.961 0-36.143 32.235-36.143 71.999h72.287c0-39.764-16.182-71.999-36.144-71.999z" fill="#261986" data-original="#ffa50a" class=""/></g><g><path d="m203.252 31.149c-11.326 0-20.507 18.289-20.507 40.85h41.014c0-22.561-9.181-40.85-20.507-40.85z" fill="#ffffff" data-original="#ffffff" class=""/></g></g><g><g><path d="m302.775 1c-19.961 0-36.143 32.235-36.143 71.999h72.287c-.001-39.764-16.183-71.999-36.144-71.999z" fill="#3c27dc" data-original="#ffc305" class=""/></g><g><path d="m302.775 32.149c-11.326 0-20.507 18.289-20.507 40.85h41.014c0-22.561-9.182-40.85-20.507-40.85z" fill="#ffffff" data-original="#ffffff" class=""/></g></g></g></g></g></svg>
