<svg id="Layer_1" enable-background="new 0 0 511 511" height="512" viewBox="0 0 511 511" width="512" xmlns="http://www.w3.org/2000/svg"><g><g><path d="m255.5 10.4c-96.322 0-155.658 54.332-155.821 54.424 0 0-2.467 3.079-2.928 5.126-3.748 16.636-7.249 38.932-7.249 55.202 0 138.237 116.574 250.273 254.811 250.273 53.232 0 112.456-25.513 152.093-56.188.887-.686 3.7-5.297 3.7-5.297.174-1.067 5.694-23.044 5.694-53.239 0-138.238-112.063-250.301-250.3-250.301z" fill="#afe6ff"/><path d="m344.292 368.358c-138.237 0-250.3-112.063-250.3-250.3 0-18.272 1.97-36.075 5.688-53.234-57.565 45.858-94.48 116.557-94.48 195.876 0 46.937 12.92 90.857 35.397 128.397l429.919-.181c13.634-22.824 23.757-48.052 29.591-74.977-42.757 34.056-96.905 54.419-155.815 54.419z" fill="#73c8f0"/></g><g><g><g><path d="m310.177 0h-75.337c-14.46 0-26.182 11.722-26.182 26.182v119.35h101.519c24.561 0 44.471-4.832 44.471-29.393v-71.668c0-24.561-19.91-44.471-44.471-44.471z" fill="#50555a"/></g></g><path d="m202.536 116.139v-71.668c0-24.561 19.911-44.471 44.471-44.471h-46.36c-24.561 0-44.471 19.91-44.471 44.471v71.668c0 24.561 19.91 29.393 44.471 29.393h46.36c-24.56 0-44.471-4.832-44.471-29.393z" fill="#373c41"/><path d="m313.906 19.913h-83.469c-.19 29.214-2.376 58.481-.285 87.666 1.094 15.265 1.999 30.541 2.631 45.827.17 3.23.319 6.461.451 9.693h167.903c2.349 0 4.252-1.904 4.252-4.252v-47.45c.001-50.525-40.958-91.484-91.483-91.484z" fill="#ffc305"/><path d="m231.137 116.356v-96.443h-34.219c-50.525 0-91.484 40.959-91.484 91.484v4.959z" fill="#ffa50a"/><path d="m105.434 114.803v44.044c0 2.349 1.904 4.252 4.252 4.252h121.45v-48.296z" fill="#fa870a"/><path d="m428.328 330.333c-25.699-14.314-41.63-41.445-41.657-70.861l-.132-145.822c0-41.752-33.846-75.598-75.598-75.598h-81.146v367.218h71.74l132.606 30.746c13.889-14.141 26.124-29.941 36.375-47.101-4.671-25.245-20.499-46.501-42.188-58.582z" fill="#50555a"/><path d="m260.398 38.052h-60.525c-41.752 0-75.598 33.846-75.598 75.598v146.4c0 29.377-15.885 56.458-41.526 70.795-21.557 12.054-37.338 33.202-42.151 58.252 11.892 19.861 26.459 37.937 43.204 53.729l147.552-37.555v-291.621c-.001-41.752-12.708-75.598 29.044-75.598z" fill="#373c41"/><path d="m359.812 383.269s-20.589 0-47.943 0c-17.991 0-86.996 7.827-106.906 7.827-41.907 0-27.791 26.146-27.791 68.052v39.341c24.641 8.113 50.97 12.511 78.328 12.511 69.574 0 133.026-28.543 178.64-74.984-10.728-30.714-39.954-52.747-74.328-52.747z" fill="#fa870a"/><path d="m209.194 383.269h-19.727c-31.239.015-31.257-.1-35.169.24-34.243 2.526-62.399 26.942-70.497 59.316 26.443 24.938 58.316 44.181 93.658 55.768v-36.613c0-25.861 12.477-48.796 31.736-63.137v-15.574z" fill="#fa690f"/><path d="m184.484 308.615c0 38.59 31.005 70.252 69.594 70.542.27.002.54.003.81.003 59.008 0 106.845-47.836 106.845-106.844v-18.728z" fill="#373c41"/><path d="m208.107 383.269s0 114.329 50.949 114.329c52.813 0 52.813-114.329 52.813-114.329z" fill="#fff"/><g><g><path d="m297.253 389.081c0 20.581-16.684 37.265-37.265 37.265-20.581 0-37.265-16.684-37.265-37.265v-20.039l74.531-63.43v83.469z" fill="#ffbe82"/></g></g><g><g><path d="m360.709 145.107c-.246-24.792-20.413-44.76-45.206-44.76h-53.711c-29.928 0-57.128 11.67-77.308 30.702v153.563c0 38.59 31.005 70.253 69.594 70.542.27.002.54.003.81.003 59.009 0 106.845-47.836 106.845-106.845z" fill="#ffbe82"/></g></g><path d="m222.723 369.043c3.834.685 7.771 1.076 11.797 1.106.27.002.54.003.81.003 23.082 0 44.454-10.32 61.922-22.764v-41.775h-74.531v63.43z" fill="#ef6a30"/><g><g><path d="m360.709 145.107c-.246-24.792-20.413-44.76-45.206-44.76h-53.711c-29.928 0-57.128 11.67-77.308 30.702v153.563c0 38.59 31.005 70.253 69.594 70.542.27.002.54.003.81.003 59.009 0 106.845-47.836 106.845-106.845z" fill="#ffbe82"/></g></g><g><g><path d="m210.224 208.484v9.088c0 4.866 3.946 8.812 8.812 8.812s8.812-3.945 8.812-8.812v-9.088z" fill="#ff965a"/></g></g><g><g><path d="m282.186 208.484v9.088c0 4.866 3.946 8.812 8.812 8.812s8.812-3.945 8.812-8.812v-9.088z" fill="#ff965a"/></g></g><g><g><path d="m219.036 219.04c-4.866 0-8.812-3.945-8.812-8.812v-6.499l3.537-5.314-3.537-5.314v-6.974c0-4.866 3.945-8.812 8.812-8.812 4.866 0 8.812 3.945 8.812 8.812v24.1c-.001 4.868-3.946 8.813-8.812 8.813z" fill="#373c41"/></g></g><g><g><path d="m290.998 219.04c-4.866 0-8.812-3.945-8.812-8.812v-8.244l3.537-5.314-3.537-5.313v-5.229c0-4.866 3.945-8.812 8.812-8.812 4.866 0 8.812 3.945 8.812 8.812v24.1c0 4.867-3.946 8.812-8.812 8.812z" fill="#373c41"/></g></g><g><g><path d="m241.658 234.14c-2.191 7.719 1.79 16.127 9.403 18.662 1.532.51 3.171.786 4.874.786s3.342-.276 4.874-.786c7.613-2.534 11.594-10.943 9.404-18.662l-10.684-37.648c-1.028-3.621-6.16-3.621-7.187 0z" fill="#ff965a"/></g></g><path d="m264.756 100.536c-63.84-.122-115.665 51.584-115.665 115.424v33.401c0 65.03 58.362 115.336 123.751 104.266-49.92-8.492-87.936-51.927-87.936-104.266.027-46.851-.004-68.596-.009-79.193-.003-8.388 6.856-15.266 15.244-15.284h.011 51.281c29.842 0 54.035-24.192 54.035-54.035-.001 0-7.795-.25-40.712-.313z" fill="#ff965a"/><path d="m203.741 57.647c-30.183 0-54.65 24.468-54.65 54.65v35.243 68.419c7.826 0 14.171-6.344 14.171-14.171v-17.358c0-20.374 16.516-36.89 36.89-36.89h51.281c29.842 0 54.035-24.192 54.035-54.035v-35.858z" fill="#50555a"/><path d="m303.552 100.348c24.172 0 44.01 20.692 44.01 44.864v56.578c0 7.826 6.344 14.171 14.171 14.171v-119.803z" fill="#50555a"/><path d="m294.219 273.659c.366-2.722-1.828-5.119-4.574-5.119h-9.255l-24.373 5.06-24.373-5.06h-8.187c-2.746 0-4.941 2.397-4.574 5.119.701 5.207 2.456 10.08 5.044 14.397l49.351 14.625c11.146-5.471 19.22-16.239 20.941-29.022z" fill="#be1423"/><path d="m223.931 288.053c6.642 11.079 18.763 18.497 32.62 18.497 6.003 0 11.677-1.396 16.725-3.874-2.17-13.611-13.959-24.015-28.181-24.015-8.395-.001-15.941 3.624-21.164 9.392z" fill="#ff3c3c"/><path d="m280.39 273.299c0 2.961-2.401 5.362-5.362 5.362h-38.023c-2.961 0-5.362-2.401-5.362-5.362v-4.759h48.746v4.759z" fill="#fff"/><path d="m213.761 207.267c-1.953 0-3.537-1.584-3.537-3.537v-10.627c0-1.953 1.584-3.537 3.537-3.537 1.953 0 3.537 1.584 3.537 3.537v10.627c0 1.953-1.584 3.537-3.537 3.537z" fill="#fff"/><path d="m285.723 205.522c-1.953 0-3.537-1.584-3.537-3.537v-10.627c0-1.953 1.584-3.537 3.537-3.537 1.953 0 3.537 1.584 3.537 3.537v10.627c0 1.953-1.583 3.537-3.537 3.537z" fill="#fff"/><g fill="#ff965a"><circle cx="293.781" cy="241.58" r="6.385"/><circle cx="317.293" cy="230.789" r="4.406"/><circle cx="332.018" cy="253.545" r="5.579"/><circle cx="308.791" cy="255.028" r="4.097"/><circle cx="219.888" cy="242.617" r="6.385"/><circle cx="196.376" cy="231.826" r="4.406"/><circle cx="204.879" cy="256.064" r="4.097"/></g><g><g><g><path d="m78.341 216.391c0 26.089 21.149 47.238 47.238 47.238h1.734l.839-119.752h-2.573c-26.089 0-47.238 21.149-47.238 47.238z" fill="#ff3c3c"/></g></g><g><g><path d="m107.091 208.613c0 10.033 8.134 18.167 18.167 18.167h.667l.323-46.055h-.989c-10.033 0-18.167 8.134-18.167 18.167v9.721z" fill="#dc1428"/></g></g><path d="m141.54 274.802h-9.207c-4.17 0-7.551-3.381-7.551-7.551v-123.459c0-4.17 3.381-7.551 7.551-7.551h9.207c4.17 0 7.551 3.381 7.551 7.551v123.459c0 4.17-3.381 7.551-7.551 7.551z" fill="#ffc305"/><path d="m141.54 240.8h-9.207c-4.17 0-7.551-3.381-7.551-7.551v34.002c0 4.17 3.381 7.551 7.551 7.551h9.207c4.17 0 7.551-3.381 7.551-7.551v-34.002c0 4.17-3.381 7.551-7.551 7.551z" fill="#ffa50a"/></g><g><g><g><path d="m432.326 220.484c0 26.089-21.149 47.238-47.238 47.238h-1.734l-.839-119.752h2.573c26.089 0 47.238 21.149 47.238 47.238z" fill="#ff3c3c"/></g></g><g><g><path d="m403.576 212.707c0 10.033-8.134 18.167-18.167 18.167h-.667l-.323-46.055h.989c10.033 0 18.167 8.134 18.167 18.167v9.721z" fill="#dc1428"/></g></g><path d="m369.126 278.895h9.207c4.17 0 7.551-3.381 7.551-7.551v-123.458c0-4.17-3.381-7.551-7.551-7.551h-9.207c-4.17 0-7.551 3.381-7.551 7.551v123.459c0 4.17 3.381 7.55 7.551 7.55z" fill="#ffc305"/><path d="m369.126 244.893h9.207c4.17 0 7.551-3.381 7.551-7.551v34.002c0 4.17-3.381 7.551-7.551 7.551h-9.207c-4.17 0-7.551-3.381-7.551-7.551v-34.002c0 4.171 3.381 7.551 7.551 7.551z" fill="#ffa50a"/></g></g></g></svg>