<?xml version="1.0"?>
<svg xmlns="http://www.w3.org/2000/svg" xmlns:xlink="http://www.w3.org/1999/xlink" xmlns:svgjs="http://svgjs.com/svgjs" version="1.1" width="512" height="512" x="0" y="0" viewBox="0 0 511 511" style="enable-background:new 0 0 512 512" xml:space="preserve" class=""><g><g xmlns="http://www.w3.org/2000/svg"><g><path d="m255.5 22.95c-93.907 0-151.755 52.97-151.914 53.059 0 0-2.405 3.002-2.855 4.997-3.654 16.219-7.067 37.956-7.067 53.818 0 134.771 113.652 243.998 248.423 243.998 51.897 0 109.637-24.873 148.28-54.779.864-.669 3.607-5.164 3.607-5.164.17-1.04 5.551-22.466 5.551-51.904 0-134.771-109.254-244.025-244.025-244.025z" fill="#afe6ff" data-original="#afe6ff" class=""/><g fill="#73c8f0"><path d="m98.04 127.909c0-17.814 1.921-35.171 5.545-51.9-56.121 44.709-92.111 113.636-92.111 190.966 0 65.76 26.012 125.445 68.307 169.327l278.963-64.931c-5.512.372-11.074.562-16.68.562-134.77.001-244.024-109.253-244.024-244.024z" fill="#73c8f0" data-original="#73c8f0" class=""/><path d="m434.896 353.647 53.091-12.357c2.335-7.32 4.337-14.795 5.986-22.41-17.828 14.2-37.689 25.959-59.077 34.767z" fill="#73c8f0" data-original="#73c8f0" class=""/></g></g><g><path d="m476.187 207.841c0-34.719-18.688-65.071-46.552-81.55-12.481-7.382-21.046-19.863-23.464-34.161-1.309-7.739-3.562-15.167-6.638-22.159-40.369-29.565-90.162-47.021-144.033-47.021-61.398 0-107.381 22.643-131.905 38.346-3.453 9.126-5.526 18.88-5.983 28.982-.596 13.19-6.711 25.582-16.75 34.158-24.6 21.016-36.455 53.097-32.302 84.472 2.135 16.135-3.642 32.207-15.633 43.212-18.858 17.306-30.679 42.155-30.679 69.768 0 72.722 78.457 117.635 140.893 82.651 28.052 70.398 123.648 81.006 166.37 18.095 27.93 26.05 64.322 30.801 95.265 20.101 28.714-27.64 50.728-62.312 63.213-101.445-2.041-16.005-8.079-30.761-17.081-43.237-10.338-14.326-11.708-33.28-4.043-49.197 5.973-12.409 9.322-26.321 9.322-41.015z" fill="#00ac82" data-original="#ff3c3c" class=""/><g><path d="m397.404 65.493c-15.551-30.837-47.5-52.138-84.592-52.138-14.213 0-27.692 3.138-39.79 8.749-16.449-13.794-37.652-22.104-60.799-22.104-42.733 0-77.902 27.992-90.101 65.493l277.648 5.023z" fill="#00ac82" data-original="#ff3c3c" class=""/></g><path d="m326.195 382.626-121.239 21.055c-16.94 15.153-27.602 37.181-27.602 61.698v32.821c24.536 8.29 50.812 12.8 78.146 12.8 40.922 0 79.667-10.136 113.736-28.114v-100.26c-8.294 0-24.018 0-43.041 0z" fill="#1d1b94" data-original="#2477f9" class=""/><path d="m376.173 382.635v96.434c26.8-15.274 50.489-35.48 69.752-59.475-15.295-22.183-40.814-36.767-69.752-36.959z" fill="#1d1b94" data-original="#2477f9" class=""/><path d="m150.594 383.081c-32.246 3.182-59.228 24.281-70.811 53.221 20.232 20.991 44.192 38.363 70.811 51.057z" fill="#9d00c0" data-original="#0540e5" class=""/><path d="m157.532 382.782v107.749c6.617 2.904 13.385 5.529 20.294 7.847v-30.386c0-45.004 34.832-81.847 79.004-85.105 2.048-.178 3.122-.241 7.486-.261 0 0-85.148-.086-106.784.156z" fill="#9d00c0" data-original="#0540e5" class=""/><g><path d="m191.828 307.971c0 38.59 31.005 70.252 69.594 70.542.27.002.54.003.81.003 59.008 0 106.845-47.836 106.845-106.844v-18.728z" fill="#00521b" data-original="#dc1428" class=""/></g><g><path d="m267.332 460.689c32.509 0 58.862-26.354 58.862-58.862v-19.2h-117.724v19.2c0 32.508 26.354 58.862 58.862 58.862z" fill="#ffbe82" data-original="#ffbe82" class=""/></g><g><g><g><path d="m304.598 388.438c0 20.581-16.684 37.265-37.265 37.265-20.581 0-37.265-16.684-37.265-37.265v-20.039l74.531-63.43v83.469z" fill="#ffbe82" data-original="#ffbe82" class=""/></g></g></g><g><g><g><path d="m394.07 209.791c0 13.792-11.18 24.972-24.972 24.972h-1.522l-1.496-63.307h3.018c13.792 0 24.972 11.18 24.972 24.972z" fill="#ff965a" data-original="#ff965a" class=""/></g></g></g><g><g><g><path d="m379.309 205.79c0 5.533-4.485 10.018-10.018 10.018h-.611l-.6-25.398h1.211c5.533 0 10.018 4.485 10.018 10.018z" fill="#ef6a30" data-original="#ef6a30" class=""/></g></g></g><g><g><g><path d="m368.053 144.464c-.246-24.792-20.413-44.76-45.206-44.76h-53.711c-29.928 0-57.128 11.67-77.308 30.702v153.564c0 38.59 31.005 70.253 69.594 70.542.27.002.54.003.81.003 59.009 0 106.845-47.836 106.845-106.845z" fill="#ffbe82" data-original="#ffbe82" class=""/></g></g></g><g><path d="m230.067 368.399c3.834.685 7.771 1.076 11.797 1.106.27.002.54.003.81.003 23.082 0 44.454-10.32 61.922-22.764v-41.775h-74.531v63.43z" fill="#ef6a30" data-original="#ef6a30" class=""/></g><g><g><g><path d="m368.053 144.464c-.246-24.792-20.413-44.76-45.206-44.76h-53.711c-29.928 0-57.128 11.67-77.308 30.702v153.564c0 38.59 31.005 70.253 69.594 70.542.27.002.54.003.81.003 59.009 0 106.845-47.836 106.845-106.845z" fill="#ffbe82" data-original="#ffbe82" class=""/></g></g></g><g><g><g><path d="m131.341 209.746c0 13.7 11.106 24.806 24.806 24.806h.911l.44-62.885h-1.351c-13.7 0-24.806 11.106-24.806 24.806z" fill="#ff965a" data-original="#ff965a" class=""/></g></g></g><g><g><g><path d="m146.438 205.662c0 5.269 4.271 9.54 9.54 9.54h.35l.169-24.185h-.52c-5.269 0-9.54 4.271-9.54 9.54v5.105z" fill="#ef6a30" data-original="#ef6a30" class=""/></g></g></g><g><g><g><path d="m217.568 207.841v9.088c0 4.866 3.946 8.812 8.812 8.812s8.812-3.945 8.812-8.812v-9.088z" fill="#ff965a" data-original="#ff965a" class=""/></g></g></g><g><g><g><path d="m289.531 207.841v9.088c0 4.866 3.946 8.812 8.812 8.812s8.812-3.945 8.812-8.812v-9.088z" fill="#ff965a" data-original="#ff965a" class=""/></g></g></g><g><g><g><path d="m226.38 218.397c-4.866 0-8.812-3.945-8.812-8.812v-6.499l3.537-5.314-3.537-5.314v-6.974c0-4.866 3.945-8.812 8.812-8.812s8.812 3.945 8.812 8.812v24.1c0 4.867-3.946 8.813-8.812 8.813z" fill="#373c41" data-original="#373c41"/></g></g></g><g><g><g><path d="m298.342 218.397c-4.866 0-8.812-3.945-8.812-8.812v-8.244l3.537-5.314-3.537-5.314v-5.229c0-4.866 3.945-8.812 8.812-8.812 4.866 0 8.812 3.945 8.812 8.812v24.1c0 4.867-3.945 8.813-8.812 8.813z" fill="#373c41" data-original="#373c41"/></g></g></g><g><g><g><path d="m249.003 233.496c-2.191 7.719 1.791 16.127 9.403 18.662 1.532.51 3.171.786 4.874.786s3.342-.276 4.874-.786c7.613-2.534 11.594-10.943 9.404-18.662l-10.684-37.648c-1.028-3.621-6.16-3.621-7.187 0z" fill="#ff965a" data-original="#ff965a" class=""/></g></g></g><g><path d="m272.101 99.893c-63.84-.122-115.665 51.584-115.665 115.424v33.401c0 65.03 58.362 115.336 123.751 104.266-49.92-8.492-87.936-51.926-87.936-104.266.027-46.851-.004-68.596-.009-79.193-.003-8.388 6.856-15.266 15.244-15.284h.011 51.281c29.842 0 54.035-24.192 54.035-54.035-.001 0-7.795-.25-40.712-.313z" fill="#ff965a" data-original="#ff965a" class=""/></g><g><path d="m211.086 57.004c-30.183 0-54.65 24.468-54.65 54.65v35.243 68.419c7.826 0 14.171-6.344 14.171-14.171v-17.358c0-20.374 16.516-36.89 36.89-36.89h51.281c29.842 0 54.035-24.192 54.035-54.035v-35.858z" fill="#00ac82" data-original="#ff3c3c" class=""/></g><g><path d="m310.897 99.704c24.172 0 44.01 20.692 44.01 44.864v56.578c0 7.826 6.344 14.171 14.171 14.171v-119.802z" fill="#00ac82" data-original="#ff3c3c" class=""/></g><g><path d="m301.564 273.016c.366-2.722-1.828-5.119-4.574-5.119h-9.255l-24.373 5.06-24.373-5.06h-8.187c-2.746 0-4.941 2.397-4.574 5.119.701 5.207 2.456 10.08 5.044 14.397l49.351 14.625c11.145-5.472 19.22-16.24 20.941-29.022z" fill="#05380a" data-original="#be1423" class=""/></g><g><path d="m231.275 287.41c6.642 11.079 18.763 18.497 32.62 18.497 6.003 0 11.677-1.396 16.725-3.874-2.17-13.611-13.959-24.015-28.181-24.015-8.394-.001-15.941 3.624-21.164 9.392z" fill="#00ac82" data-original="#ff3c3c" class=""/></g><g><path d="m287.735 272.655c0 2.961-2.401 5.362-5.362 5.362h-38.023c-2.961 0-5.362-2.401-5.362-5.362v-4.759h48.746v4.759z" fill="#ffffff" data-original="#ffffff" class=""/></g><g><path d="m221.105 206.623c-1.953 0-3.537-1.584-3.537-3.537v-10.627c0-1.953 1.584-3.537 3.537-3.537 1.953 0 3.537 1.584 3.537 3.537v10.627c0 1.954-1.583 3.537-3.537 3.537z" fill="#ffffff" data-original="#ffffff" class=""/></g><g><path d="m293.068 204.878c-1.953 0-3.537-1.584-3.537-3.537v-10.627c0-1.953 1.584-3.537 3.537-3.537 1.953 0 3.537 1.584 3.537 3.537v10.627c0 1.954-1.584 3.537-3.537 3.537z" fill="#ffffff" data-original="#ffffff" class=""/></g><g><circle cx="301.126" cy="240.937" fill="#ff965a" r="6.385" data-original="#ff965a" class=""/></g><g><circle cx="324.638" cy="230.146" fill="#ff965a" r="4.406" data-original="#ff965a" class=""/></g><g><circle cx="339.363" cy="252.902" fill="#ff965a" r="5.579" data-original="#ff965a" class=""/></g><g><circle cx="316.135" cy="254.384" fill="#ff965a" r="4.097" data-original="#ff965a" class=""/></g><g><circle cx="227.233" cy="241.973" fill="#ff965a" r="6.385" data-original="#ff965a" class=""/></g><g><circle cx="203.72" cy="231.182" fill="#ff965a" r="4.406" data-original="#ff965a" class=""/></g><g><circle cx="188.995" cy="253.938" fill="#ff965a" r="5.579" data-original="#ff965a" class=""/></g><g><circle cx="212.223" cy="255.421" fill="#ff965a" r="4.097" data-original="#ff965a" class=""/></g><g><path d="m267.333 429.882c-24.417 0-44.281-19.864-44.281-44.28v-12.976c0-2.485 2.015-4.5 4.5-4.5s4.5 2.015 4.5 4.5v12.976c0 19.454 15.827 35.28 35.281 35.28s35.281-15.827 35.281-35.28v-12.976c0-2.485 2.015-4.5 4.5-4.5s4.5 2.015 4.5 4.5v12.976c-.001 24.416-19.865 44.28-44.281 44.28z" fill="#ffffff" data-original="#ffffff" class=""/></g><g><path d="m154.458 232.875h2.949v-33.915h-2.949c-9.365 0-16.957 7.592-16.957 16.957-.001 9.366 7.592 16.958 16.957 16.958z" fill="#ffffff" data-original="#ffffff" class=""/></g><g><path d="m372.265 233.444h-2.949v-33.914h2.949c9.365 0 16.957 7.592 16.957 16.957 0 9.365-7.592 16.957-16.957 16.957z" fill="#ffffff" data-original="#ffffff" class=""/></g><path d="m150.524 487.329c2.361 1.127 4.744 2.217 7.146 3.27v-244.099h-7.146z" fill="#e4f2f6" data-original="#e4f2f6" class=""/><path d="m376.199 479.075v-232.575h-7.146v236.492c2.405-1.266 4.787-2.573 7.146-3.917z" fill="#e4f2f6" data-original="#e4f2f6" class=""/><g><path d="m150.524 251.895h7.146v14.386h-7.146z" fill="#c8e6eb" data-original="#c8e6eb"/></g><g><path d="m152.26 255.984c2.843 0 5.147-2.304 5.147-5.147v-24.384h-10.294v24.384c0 2.842 2.305 5.147 5.147 5.147z" fill="#ffffff" data-original="#ffffff" class=""/></g><g><path d="m369.052 249.68h7.146v20.647h-7.146z" fill="#c8e6eb" data-original="#c8e6eb"/></g><g><path d="m374.463 256.553c-2.843 0-5.147-2.304-5.147-5.147v-24.384h10.294v24.384c0 2.843-2.305 5.147-5.147 5.147z" fill="#ffffff" data-original="#ffffff" class=""/></g></g></g></g></svg>
