<svg id="Layer_1" enable-background="new 0 0 511.088 511.088" height="512" viewBox="0 0 511.088 511.088" width="512" xmlns="http://www.w3.org/2000/svg"><g><g><path d="m255.544 18.635c-94.755 0-153.124 53.448-153.285 53.538 0 0-2.427 3.029-2.88 5.043-3.687 16.365-7.131 38.298-7.131 54.304 0 135.987 114.677 246.2 250.665 246.2 52.365 0 110.626-25.098 149.618-55.274.872-.675 3.64-5.211 3.64-5.211.172-1.049 5.601-22.669 5.601-52.372-.001-135.989-110.24-246.228-246.228-246.228z" fill="#afe6ff"/><path d="m342.891 370.767c-135.987 0-246.227-110.24-246.227-246.227 0-17.975 1.938-35.488 5.595-52.368-56.627 45.113-92.942 114.662-92.942 192.689 0 47.51 13.456 91.877 36.765 129.499l425.518-11.3c11.133-20.319 19.499-42.421 24.57-65.827-42.061 33.503-95.327 53.534-153.279 53.534z" fill="#73c8f0"/></g><g><g><g><g><path d="m344.047 207.335h-1l-6.835-33.606 6.835-27.725h1c13.361 0 24.193 10.832 24.193 24.193v12.946c0 13.361-10.832 24.192-24.193 24.192z" fill="#ff965a"/></g></g></g><path d="m379.541 343.251-47.08-10.418-166.151-3.961v127.871c0 21.016 16.645 38.257 37.648 38.996l124.399 4.378c22.605-6.996 43.862-17.168 63.223-30.017l46.968-53.358c0-35.303-24.537-65.863-59.007-73.491z" fill="#ff3c3c"/><g><g><g><path d="m240.864 381.143c20.073 0 36.344-16.272 36.344-36.344v-81.406h-72.689v81.406c0 20.072 16.272 36.344 36.345 36.344z" fill="#ff965a"/></g></g></g><g><path d="m228.914 338.237c.002 0 .003-.001.005-.002-8.446-.451-16.614-1.934-24.399-4.297v-70.546h66.658l6.031 54.423c-8.951 14.408-33.969 21.19-48.295 20.422z" fill="#ef6a30"/></g><g><g><g><path d="m339.458 135.875c0-33.168-21.278-63.497-54.445-63.497h-88.298c-9.464 0-18.132 2.477-25.694 6.777v175.309c0 38.264 30.776 69.577 69.038 69.867.268.002.537.003.805.003 56.987 0 94.183-46.197 94.183-103.183l9.001-32.575z" fill="#ffbe82"/></g></g></g><g><g><g><path d="m344.047 188.298v-23.256c5.066 0 9.174 4.107 9.174 9.174v4.909c0 5.065-4.107 9.173-9.174 9.173z" fill="#ef6a30"/></g></g></g><g><g><g><path d="m112.466 183.142c0 13.361 10.832 24.193 24.193 24.193h1.553l12.385-26.092-12.178-35.239h-1.761c-13.361 0-24.193 10.832-24.193 24.193v12.945z" fill="#ff965a"/></g></g></g><g><g><g><path d="m126.818 179.302c0 5.435 4.406 9.841 9.841 9.841v-24.949c-5.435 0-9.841 4.406-9.841 9.841z" fill="#ef6a30"/></g></g></g><g><g><g><path d="m120.212 190.402c0 9.083 7.364 16.447 16.447 16.447v-32.694c-9.083 0-16.447 7.364-16.447 16.447z" fill="#fff"/></g></g></g><g><g><g><path d="m196.281 182.593v7.276c0 4.746 3.848 8.594 8.594 8.594s8.594-3.848 8.594-8.594v-7.276z" fill="#ff965a"/></g></g></g><g><g><g><path d="m266.305 182.593v7.276c0 4.746 3.848 8.594 8.594 8.594s8.594-3.848 8.594-8.594v-7.276z" fill="#ff965a"/></g></g></g><g><g><g><path d="m204.875 191.579c-4.746 0-8.594-3.848-8.594-8.594v-11.055l3.168-4.797-3.168-4.797v-2.855c0-4.746 3.848-8.594 8.594-8.594s8.594 3.848 8.594 8.594v23.504c0 4.746-3.848 8.594-8.594 8.594z" fill="#373c41"/></g></g></g><g><g><g><path d="m274.899 191.579c-4.746 0-8.594-3.848-8.594-8.594v-11.055l3.168-4.797-3.168-4.797v-2.855c0-4.746 3.848-8.594 8.594-8.594s8.594 3.848 8.594 8.594v23.504c0 4.746-3.848 8.594-8.594 8.594z" fill="#373c41"/></g></g></g><g><g><g><g><path d="m216.198 146.59h-25.062c-4.746 0-8.594-3.848-8.594-8.594 0-4.746 3.848-8.594 8.594-8.594h25.062c4.746 0 8.594 3.848 8.594 8.594 0 4.747-3.848 8.594-8.594 8.594z" fill="#373c41"/></g></g></g></g><g><g><g><g><path d="m287.814 146.59h-25.062c-4.746 0-8.594-3.848-8.594-8.594 0-4.746 3.848-8.594 8.594-8.594h25.062c4.746 0 8.594 3.848 8.594 8.594 0 4.747-3.848 8.594-8.594 8.594z" fill="#373c41"/></g></g></g></g><g><path d="m272.508 239.123h-8.849l-23.305 4.838-23.305-4.838h-7.828c-2.626 0-4.724 2.292-4.374 4.895.67 4.979 2.349 9.638 4.823 13.766l47.189 13.984c10.657-5.231 18.378-15.528 20.023-27.75.35-2.603-1.748-4.895-4.374-4.895z" fill="#be1423"/></g><g><path d="m327.283 99.978c.986.001 1.96-.047 2.928-.119-9.264-16.253-25.026-27.482-45.198-27.482h-88.298c-9.464 0-18.132 2.477-25.694 6.777v2.196c-19.413 9.058-32.087 28.451-32.087 52.25l-2.274 54.974 10.001 31.554c0 59.556 39.899 107.227 99.797 104.054-43.381-12.598-75.091-52.632-75.091-100.077.258-5.863 0-62.674 0-84.254 0-.154.001-.307.002-.461.165-21.948 18.249-39.549 40.197-39.527z" fill="#ff965a"/></g><g><path d="m199.45 175.099c-1.75 0-3.168-1.418-3.168-3.168v-9.594c0-1.75 1.418-3.168 3.168-3.168 1.75 0 3.168 1.418 3.168 3.168v9.594c0 1.749-1.419 3.168-3.168 3.168z" fill="#fff"/></g><g><path d="m269.473 175.099c-1.75 0-3.168-1.418-3.168-3.168v-9.594c0-1.75 1.418-3.168 3.168-3.168 1.75 0 3.168 1.418 3.168 3.168v9.594c0 1.749-1.418 3.168-3.168 3.168z" fill="#fff"/></g><g><path d="m209.673 257.781c6.351 10.593 17.941 17.686 31.19 17.686 5.74 0 11.166-1.335 15.992-3.704-2.075-13.015-13.347-22.963-26.946-22.963-8.026 0-15.242 3.466-20.236 8.981z" fill="#ff3c3c"/></g><g><path d="m258.532 248.8h-36.357c-2.831 0-5.127-2.295-5.127-5.127v-4.55h46.611v4.55c-.001 2.832-2.296 5.127-5.127 5.127z" fill="#fff"/></g><g><path d="m195.462 13.071c-32.485.03-58.803 26.373-58.803 58.857v64.492.003 52.153c7.633 0 13.821-6.188 13.821-13.821v-61.026c0-.081 0-.162.001-.242.082-12.047 10.103-21.672 22.151-21.66l32.032.031v-32.93c0-32.485 26.318-45.826 58.803-45.857h-68.005z" fill="#262a2d"/></g><g><path d="m132.102 229.773c-2.485 0-4.5-2.015-4.5-4.5v-33.694c0-2.485 2.015-4.5 4.5-4.5s4.5 2.015 4.5 4.5v33.694c0 2.485-2.015 4.5-4.5 4.5z" fill="#fff"/></g><g><g><g><path d="m360.494 192.903c0 9.083-7.364 16.447-16.447 16.447v-32.694c9.083 0 16.447 7.364 16.447 16.447z" fill="#fff"/></g></g></g><g><path d="m348.604 232.274c-2.485 0-4.5-2.015-4.5-4.5v-33.693c0-2.485 2.015-4.5 4.5-4.5s4.5 2.015 4.5 4.5v33.693c0 2.485-2.015 4.5-4.5 4.5z" fill="#fff"/></g><path d="m296.812 324.945-56.488-12.5-91.508 20.31-47.158 10.467c-26.892 5.969-47.729 25.896-55.576 51.138 24.897 40.185 61.035 72.674 104.024 93.074l17.599-30.746v-39.985c0-.099 0-.198.001-.297.047-11.967 13.408-19.248 23.499-12.813 14.333 9.14 31.325 14.401 49.444 14.401 47.329 0 86.944-35.893 91.598-82.993l.214-2.169z" fill="#dc1428"/><g><path d="m330.226 174.755-.004.07c-1.402 26.527-14.435 51.293-36.037 66.753-15.319 10.964-34.002 17.279-53.841 17.279-19.831 0-38.508-6.311-53.824-17.267-21.628-15.472-34.662-40.278-36.041-66.834l-13.821 13.821 12.437 119.873c4.867 46.905 44.396 82.545 91.552 82.545 47.329 0 86.944-35.893 91.598-82.993l11.801-119.425z" fill="#373c41"/></g><g><path d="m206.1 308.448-6.106-58.85c-4.718-2.289-9.225-4.97-13.473-8.009-21.628-15.472-34.662-40.278-36.041-66.834l-13.821 13.821 12.437 119.873c4.867 46.905 44.396 82.545 91.552 82.545 9.923 0 19.508-1.578 28.502-4.507-33.754-10.99-59.208-41.003-63.05-78.039z" fill="#262a2d"/></g><g><path d="m344.047 78.628c.287-44.771-11.32-78.628-53.902-78.628l-59.258.068c-53.17-1.932-64.619 83.109-30.825 109.966 17.62 14.002 68.955-11.509 92.15-11.003.168.004.336.008.503.012 20.915.527 37.53 17.758 37.468 38.68-.026 8.948-.034 20.888.042 37.033 0 7.633 6.188 13.821 13.821 13.821.001-12.88.001-109.949.001-109.949z" fill="#373c41"/></g><g><ellipse cx="207.213" cy="232.785" fill="#373c41" rx="34.801" ry="25.359"/></g><g><ellipse cx="274.033" cy="232.785" fill="#373c41" rx="34.801" ry="25.359"/></g><g><g><g><path d="m226.939 203.779c-2.136 8.531 1.746 17.824 9.171 20.625 1.494.564 3.092.869 4.754.869 1.661 0 3.26-.305 4.754-.869 7.425-2.801 11.308-12.094 9.171-20.625l-7.082-28.282c-1.783-7.12-11.902-7.12-13.685 0z" fill="#ff965a"/></g></g></g><g><path d="m136.659 138.084v50.491c7.633 0 13.821-6.188 13.821-13.821v-36.67z" fill="#262a2d"/></g><path d="m420.631 344.883c-10.686 0-20.678 3.536-29.202 9.676v84.554c0 3.137-1.796 5.111-4.062 5.933-.839.418-1.828.667-2.978.667h-12.847c4.819 10.03 11.735 18.444 20.037 24.388 10.535-6.992 20.509-14.776 29.833-23.274l36.647-41.866c4.878-7.037 9.4-14.346 13.54-21.902-9.132-22.588-28.523-38.176-50.968-38.176z" fill="#dc1428"/><g><g><g><g><path d="m429.649 378.702c-3.105 0-6.238-.962-8.923-2.955-36.941-27.415-35.002-79.45-34.901-81.652.378-8.271 7.378-14.675 15.661-14.292 8.255.377 14.645 7.361 14.296 15.61-.015.382-1.203 38.432 22.814 56.255 6.65 4.935 8.04 14.325 3.105 20.974-2.943 3.965-7.468 6.059-12.052 6.06z" fill="#ffbe82"/></g></g></g><g><g><path d="m444.563 365.217c.509-5.078-1.572-10.286-5.967-13.548-8.769-6.508-14.168-15.711-17.5-24.793-12.118 0-22.636-8.576-24.836-20.493-2.458-13.316-2.081-23.342-2.038-24.282.013-.283.052-.558.081-.836-4.807 2.315-8.216 7.128-8.477 12.831-.052 1.132-.588 15.428 3.918 32.78 6.732 20.044 11.99 34.777 30.984 48.872 9.298 6.904 22.671 1.077 23.835-10.531z" fill="#ff965a"/></g></g><g><g><path d="m423.066 361.346h-49.385c-7.948 0-14.393-6.444-14.393-14.393s6.445-14.393 14.393-14.393h49.385c7.948 0 14.393 6.444 14.393 14.393s-6.445 14.393-14.393 14.393z" fill="#ffbe82"/></g></g><g><path d="m414.021 361.346c0-5.3-4.296-9.596-9.596-9.596h-30.744c-6.264 0-11.578-4.009-13.556-9.595-.877 2.475-1.136 5.242-.433 8.155 1.582 6.562 7.689 11.036 14.439 11.036z" fill="#ff965a"/></g><g><g><path d="m423.066 389.868h-54.182c-7.948 0-14.393-6.444-14.393-14.393s6.445-14.393 14.393-14.393h54.182c7.948 0 14.393 6.444 14.393 14.393s-6.445 14.393-14.393 14.393z" fill="#ffbe82"/></g></g><g><path d="m414.021 389.868c0-5.962-4.833-10.795-10.795-10.795h-34.342c-6.038 0-11.2-3.723-13.337-8.995-.922 2.275-1.294 4.831-.901 7.516 1.044 7.135 7.429 12.275 14.64 12.275h44.735z" fill="#ff965a"/></g><g><g><path d="m423.066 418.39h-49.385c-7.948 0-14.393-6.444-14.393-14.393s6.445-14.393 14.393-14.393h49.385c7.948 0 14.393 6.444 14.393 14.393s-6.445 14.393-14.393 14.393z" fill="#ffbe82"/></g></g><g><path d="m414.021 418.39c0-5.962-4.833-10.795-10.795-10.795h-29.545c-6.038 0-11.2-3.723-13.337-8.995-.922 2.275-1.294 4.831-.901 7.516 1.044 7.135 7.429 12.275 14.64 12.275h39.938z" fill="#ff965a"/></g><g><g><path d="m419.994 418.126h-41.515c-7.948 0-14.393 6.444-14.393 14.393s6.444 14.393 14.393 14.393h41.515z" fill="#ffbe82"/></g></g><g><path d="m414.021 446.912c0-5.962-4.833-10.795-10.795-10.795h-24.747c-6.038 0-11.2-3.723-13.337-8.995-.922 2.275-1.294 4.831-.901 7.516 1.044 7.135 7.429 12.275 14.64 12.275h35.14z" fill="#ff965a"/></g><path d="m427.583 332.692h-13.964v114.135h7.794c13.715-12.498 26.024-26.539 36.647-41.866 1.532-16.81.602-33.35-2.676-49.632-2.656-13.195-14.341-22.637-27.801-22.637z" fill="#ffbe82"/></g><path d="m255.544 511.088c25.286 0 49.751-3.833 72.812-10.971v-23.251c0-15.69-12.719-28.409-28.409-28.409h-121.432c-15.69 0-28.409 12.719-28.409 28.409v10.569c31.961 15.167 67.709 23.653 105.438 23.653z" fill="#fff"/></g></g></svg>