<svg id="Layer_1" enable-background="new 0 0 511 511" height="512" viewBox="0 0 511 511" width="512" xmlns="http://www.w3.org/2000/svg"><g><g><path d="m255.5 15.023c-95.432 0-154.22 53.83-154.382 53.921 0 0-2.444 3.05-2.901 5.079-3.713 16.482-7.182 38.572-7.182 54.692 0 136.96 115.498 247.961 252.458 247.961 52.74 0 111.417-25.277 150.689-55.669.878-.68 3.666-5.248 3.666-5.248.173-1.057 5.641-22.831 5.641-52.747-.001-136.961-111.029-247.989-247.989-247.989z" fill="#afe6ff"/><path d="m343.471 369.675c-136.96 0-247.988-111.028-247.988-247.988 0-18.103 1.952-35.742 5.635-52.743-57.032 45.436-93.606 115.482-93.606 194.068 0 66.642 26.287 127.144 69.058 171.704l357.862-.004c31.059-32.337 53.498-73.169 63.417-118.953-42.363 33.741-96.011 53.916-154.378 53.916z" fill="#73c8f0"/></g><g><g><path d="m371 290.492c-74.21-24.096-156.694-24.096-230.903 0 0 5.966 2.341 8.409 2.497 14.183.211 7.826-1.746 18.962-1.746 27.049 74.21-24.095 156.102-24.095 230.311 0 0-14.055-.159-27.179-.159-41.232z" fill="#2477f9"/></g><g><path d="m370.647 300.793c-74.21-24.096-155.59-24.326-229.8-.231v42.161c74.21-24.095 156.102-24.095 230.311 0 .001-14.053-.511-27.876-.511-41.93z" fill="#0540e5"/></g><g><g><g><path d="m356.924 213.187-3.269-26.007 3.269-35.324c13.361 0 26.193 10.832 26.193 24.193v12.946c0 13.361-12.832 24.192-26.193 24.192z" fill="#ff965a"/></g></g></g><g><g><g><path d="m357.975 194.897-1.319-10.496 1.319-14.256c5.392 0 10.571 4.371 10.571 9.764v5.224c-.001 5.393-5.179 9.764-10.571 9.764z" fill="#ef6a30"/></g></g></g><g><g><g><path d="m153.277 207.751 3.269-26.007-3.269-35.324c-13.361 0-26.193 10.832-26.193 24.193v12.946c0 13.36 12.832 24.192 26.193 24.192z" fill="#ff965a"/></g></g></g><g><g><g><path d="m152.226 189.461 1.319-10.496-1.319-14.256c-5.392 0-10.571 4.371-10.571 9.764v5.224c0 5.393 5.179 9.764 10.571 9.764z" fill="#ef6a30"/></g></g></g><path d="m381.086 346.147-125.856-27.85-63.461 14.085v170.35c20.337 5.393 41.698 8.268 63.731 8.268 4.835 0 9.639-.139 14.41-.414l2.233-2.339 2.767 2.001c62.243-4.839 118.427-32.753 159.52-75.537v-22.125c.001-31.916-22.182-59.544-53.344-66.439z" fill="#ffc305"/><path d="m76.569 412.55v22.165c31.177 32.48 71.111 56.49 116.007 68.231v-90.396c0-31.9 22.16-59.518 53.302-66.43l67.442-14.969-58.091-12.855-125.357 27.824c-31.143 6.912-53.303 34.531-53.303 66.43z" fill="#ffa50a"/><g><path d="m255.741 412.867c33.664 0 60.953-27.29 60.953-60.953v-20.016l-61.464-13.601-60.443 13.416v20.202c0 33.663 27.29 60.952 60.954 60.952z" fill="#ff3c3c"/></g><g><g><g><path d="m255.741 386.995c-20.073 0-36.344-16.272-36.344-36.344v-81.406h72.689v81.406c-.001 20.072-16.273 36.344-36.345 36.344z" fill="#ff965a"/></g></g></g><g><g><g><path d="m354.335 141.727c0-33.168-21.278-63.497-54.445-63.497h-88.298c-9.464 0-18.132 2.477-25.694 6.777v175.309c0 38.264 30.776 69.577 69.038 69.867.268.002.537.003.805.003 56.987 0 103.183-46.197 103.183-103.183v-32.575z" fill="#ffbe82"/></g></g></g><g><path d="m219.396 269.245v81.406c40.413 7.849 64.954-5.603 72.689-25.837v-55.569z" fill="#ef6a30"/></g><g><g><g><path d="m354.335 141.727c0-33.168-21.278-63.497-54.445-63.497h-88.298c-9.464 0-18.132 2.477-25.694 6.777v175.309c0 38.264 30.776 69.577 69.038 69.867.268.002.537.003.805.003 56.987 0 103.183-46.197 103.183-103.183v-32.575z" fill="#ffbe82"/></g></g></g><g><g><g><path d="m211.159 188.445v7.276c0 4.746 3.848 8.594 8.594 8.594s8.594-3.848 8.594-8.594v-7.276z" fill="#ff965a"/></g></g></g><g><g><g><path d="m281.182 188.445v7.276c0 4.746 3.848 8.594 8.594 8.594s8.594-3.848 8.594-8.594v-7.276z" fill="#ff965a"/></g></g></g><g><g><g><path d="m219.752 197.431c-4.746 0-8.594-3.848-8.594-8.594v-11.055l3.168-4.797-3.168-4.797v-2.855c0-4.746 3.848-8.594 8.594-8.594s8.594 3.848 8.594 8.594v23.504c0 4.746-3.848 8.594-8.594 8.594z" fill="#373c41"/></g></g></g><g><g><g><path d="m289.776 197.431c-4.746 0-8.594-3.848-8.594-8.594v-11.055l3.168-4.797-3.168-4.797v-2.855c0-4.746 3.848-8.594 8.594-8.594s8.594 3.848 8.594 8.594v23.504c0 4.746-3.848 8.594-8.594 8.594z" fill="#373c41"/></g></g></g><g><path d="m342.16 105.83c.986.001 1.96-.047 2.928-.119-9.264-16.253-25.025-27.482-45.198-27.482h-88.299c-9.464 0-18.132 2.477-25.694 6.777v2.196c-19.413 9.058-32.087 28.451-32.087 52.25l-2.274 54.974v31.554c0 59.556 49.9 107.227 109.797 104.054-43.381-12.598-75.091-52.632-75.091-100.077.258-5.863 0-62.674 0-84.254 0-.154.001-.307.002-.461.165-21.948 18.249-39.549 40.197-39.527z" fill="#ff965a"/></g><g><g><g><g><path d="m231.075 152.442h-25.062c-4.746 0-8.594-3.848-8.594-8.594 0-4.746 3.848-8.594 8.594-8.594h25.062c4.746 0 8.594 3.848 8.594 8.594 0 4.747-3.848 8.594-8.594 8.594z" fill="#783c28"/></g></g></g></g><g><g><g><g><path d="m302.691 152.442h-25.062c-4.746 0-8.594-3.848-8.594-8.594 0-4.746 3.848-8.594 8.594-8.594h25.062c4.746 0 8.594 3.848 8.594 8.594 0 4.747-3.848 8.594-8.594 8.594z" fill="#783c28"/></g></g></g></g><g><path d="m353.524 130.67c-4.148-28.554-24.203-52.44-53.635-52.44h-88.298c-7.87 0-15.187 1.718-21.778 4.767 13.933 28.239 43.001 47.672 76.62 47.672h87.091z" fill="#ff965a"/></g><g><g><g><path d="m241.816 209.631c-2.136 8.531 1.746 17.824 9.171 20.625 1.494.564 3.092.869 4.754.869 1.661 0 3.26-.305 4.754-.869 7.425-2.801 11.308-12.094 9.171-20.625l-7.082-28.282c-1.783-7.12-11.902-7.12-13.685 0z" fill="#ff965a"/></g></g></g><g><g><path d="m358.924 84.48v57.792.003 52.153c-7.633 0-13.821-6.188-13.821-13.821v-61.026c0-13.479-7.586-25.903-19.707-31.799-.297-.145-.594-.286-.89-.423v-2.879z" fill="#6d3222"/></g></g><g><path d="m214.327 180.951c-1.75 0-3.168-1.418-3.168-3.168v-9.594c0-1.75 1.418-3.168 3.168-3.168 1.75 0 3.168 1.418 3.168 3.168v9.594c0 1.749-1.419 3.168-3.168 3.168z" fill="#fff"/></g><g><path d="m284.35 180.951c-1.75 0-3.168-1.418-3.168-3.168v-9.594c0-1.75 1.418-3.168 3.168-3.168 1.75 0 3.168 1.418 3.168 3.168v9.594c0 1.749-1.418 3.168-3.168 3.168z" fill="#fff"/></g><path d="m287.384 244.975h-63.288c-2.626 0-4.724 2.292-4.374 4.895.67 4.979 2.349 9.638 4.823 13.766l.007.002c6.351 10.591 17.94 17.682 31.188 17.682 5.738 0 11.162-1.334 15.987-3.702l.008.002c10.657-5.231 18.378-15.528 20.023-27.75.351-2.603-1.747-4.895-4.374-4.895z" fill="#fff"/><g><g><path d="m151.536 98.631v43.641.003 52.153c7.633 0 13.821-6.188 13.821-13.821v-61.026c0-.081 0-.162.001-.242.067-9.801 6.711-17.997 15.673-20.707h-29.495z" fill="#6d3222"/></g></g><g><path d="m199.416 24.789h-16.091c-17.557 0-31.789 14.232-31.789 31.789v85.694c26.443 0 47.88-21.436 47.88-47.88z" fill="#6d3222"/></g><g><ellipse cx="172.788" cy="29.725" fill="#6d3222" rx="9.222" ry="22.221" transform="matrix(.55 -.835 .835 .55 52.912 157.666)"/></g><g><ellipse cx="187.791" cy="22.186" fill="#783c28" rx="9.222" ry="22.221" transform="matrix(.998 -.061 .061 .998 -1.008 11.575)"/></g><g><path d="m378.204 121.669h-111.77c-47.167 0-85.403-38.236-85.403-85.403 0-16.582 13.442-30.024 30.024-30.024h81.747c47.167 0 85.403 38.236 85.403 85.403v30.024z" fill="#783c28"/></g><g><g><path d="m336.191 315.55v44.032c11.763-7.025 23.393-15.984 34.809-26.929v-42.161c-11.523 10.105-23.149 18.435-34.809 25.058z" fill="#05cdff"/></g><g><path d="m336.191 326.55v44.032c11.763-7.025 23.393-15.984 34.809-26.929 9.304-15.169 7.956-29.061 0-42.161-11.523 10.106-23.149 18.436-34.809 25.058z" fill="#2477f9"/></g><g><path d="m277.29 348.017c0 31.566 16.762 57.155 37.439 57.155s33.096-25.589 33.096-57.155-12.419-57.155-33.096-57.155-37.439 25.59-37.439 57.155z" fill="#0540e5"/></g><g><path d="m319.259 378.274c-20.677 0-37.439-25.589-37.439-57.155 0-.131.006-.26.006-.391-2.892 8.109-4.536 17.405-4.536 27.288 0 31.566 16.762 57.155 37.439 57.155 19.837 0 32.065-23.555 33.027-53.34-5.367 15.895-15.227 26.443-28.497 26.443z" fill="#002ac1"/></g><g><path d="m302.776 348.017c0 24.807 10.593 34.106 25.596 34.106s32.229-9.299 32.229-34.106-19.895-44.917-34.898-44.917c-7.051 0-13.474 4.441-18.302 11.725-5.446 8.214-4.625 20.043-4.625 33.192z" fill="#05cdff"/></g><g><path d="m334.326 365.646c-15.003 0-27.165-20.11-27.165-44.917 0-2.003.087-3.97.241-5.904-5.446 8.214-8.864 20.043-8.864 33.192 0 24.807 12.162 44.917 27.165 44.917 14.956 0 34.769-19.986 34.892-44.687-7.159 10.582-17.539 17.399-26.269 17.399z" fill="#2896ff"/></g></g><g><g><path d="m175.934 317.75c-12.241-6.934-24.219-16.015-35.838-27.258v42.161c11.749 11.264 23.723 20.445 35.838 27.559z" fill="#05cdff"/></g><g><path d="m175.934 328.75c-12.241-6.934-24.219-16.015-35.838-27.258-12.075 13.55-10.583 27.666 0 42.161 11.749 11.264 23.723 20.445 35.838 27.559z" fill="#2477f9"/></g><g><path d="m233.593 348.017c0 31.566-16.762 57.155-37.439 57.155s-33.096-25.589-33.096-57.155 12.419-57.155 33.096-57.155 37.439 25.59 37.439 57.155z" fill="#0540e5"/></g><g><path d="m216.042 299.602c4.738 9.574 7.55 21.491 7.55 34.414 0 31.566-16.762 57.155-37.439 57.155-6.098 0-11.471-2.24-16.026-6.188 5.679 12.346 14.586 20.189 26.026 20.189 20.677 0 37.439-25.589 37.439-57.155.001-20.406-7.01-38.303-17.55-48.415z" fill="#002ac1"/></g><g><path d="m207.327 348.017c0 24.807-7.126 31.299-22.128 31.299-13.25 0-30.333-2.066-34.14-22.819-.504-2.746-.775-5.581-.775-8.48 0-24.807 19.895-44.917 34.898-44.917 5.841 0 11.252 3.048 15.681 8.235 6.947 8.136 6.464 21.533 6.464 36.682z" fill="#05cdff"/></g><g><path d="m200.854 311.342c.962 4.6 1.491 9.534 1.491 14.674 0 24.807-12.162 44.917-27.165 44.917-7.887 0-17.122-5.563-24.112-14.438 3.808 20.752 20.863 36.44 34.113 36.44 15.003 0 27.165-20.11 27.165-44.917-.001-15.152-4.542-28.541-11.492-36.676z" fill="#2896ff"/></g></g><path d="m274.91 510.248v-114.671h-5v115.009c1.671-.097 3.338-.209 5-.338z" fill="#002ac1"/><g><path d="m272.254 405.958c-3.037 0-5.5-2.462-5.5-5.5v-14.953c0-8.798 4.85-16.782 12.657-20.838l6.213-3.228c2.693-1.402 6.016-.35 7.416 2.345 1.4 2.696.351 6.016-2.346 7.417l-6.213 3.228c-4.149 2.156-6.728 6.4-6.728 11.077v14.953c.001 3.036-2.462 5.499-5.499 5.499z" fill="#2477f9"/></g></g></g></svg>