<svg id="Layer_1" enable-background="new 0 0 511 511" height="512" viewBox="0 0 511 511" width="512" xmlns="http://www.w3.org/2000/svg"><g><g><path d="m255.5 15.023c-95.432 0-154.22 53.83-154.382 53.921 0 0-2.444 3.05-2.901 5.079-3.713 16.482-7.182 38.572-7.182 54.692 0 136.96 115.498 247.961 252.458 247.961 52.74 0 111.417-25.277 150.689-55.669.878-.68 3.666-5.248 3.666-5.248.173-1.057 5.641-22.831 5.641-52.747-.001-136.961-111.029-247.989-247.989-247.989z" fill="#afe6ff"/><path d="m343.471 369.675c-136.96 0-247.988-111.028-247.988-247.988 0-18.103 1.952-35.742 5.635-52.743-57.032 45.436-93.606 115.482-93.606 194.068 0 62.084 22.814 118.839 60.516 162.34l374.948-.001c26.631-30.712 45.888-68.12 54.872-109.592-42.362 33.741-96.01 53.916-154.377 53.916z" fill="#73c8f0"/></g><g><path d="m104.086 420.023h115.644v-387.118c0-10.829-8.779-19.608-19.608-19.608h-11.858c-46.491 0-84.179 37.688-84.179 84.179v322.547z" fill="#cd5014"/></g><g><path d="m391.894 394.596-111.761-9.885c-49.848-4.741-87.947-70.356-87.947-120.429v-230.526c0-18.643 15.113-33.756 33.756-33.756h69.239c53.413 0 96.713 43.3 96.713 96.713z" fill="#ff640a"/></g><path d="m363.763 371.869s-68.889.001-125.413.001c-40.098 0-72.601 32.506-72.601 72.603v40.951h157.059c27.532 0 54.314-8.971 76.291-25.554l40.079-30.243c1.281-1.411 2.546-2.836 3.795-4.276-12.631-31.353-43.336-53.482-79.21-53.482z" fill="#2477f9"/><path d="m179.017 371.869c-33.88.016-33.899-.108-38.142.261-33.107 2.442-60.967 23.751-72.848 53.221 11.828 13.648 25.122 25.991 39.637 36.784l31.306 19.835 27.023 5.345v-30.08c0-45.004 34.832-81.847 79.004-85.105 2.048-.178 3.122-.241 7.486-.261z" fill="#0540e5"/><g><path d="m179.996 297.215c0 38.59 31.005 70.252 69.594 70.542.27.002.54.003.81.003 59.008 0 106.845-47.836 106.845-106.844v-18.728z" fill="#cd5014"/></g><g><g><g><path d="m292.765 377.681c0 20.581-16.684 37.265-37.265 37.265-20.581 0-37.265-16.684-37.265-37.265v-83.468h74.531v83.468z" fill="#fab9af"/></g></g></g><g><g><g><path d="m382.238 199.034c0 13.792-11.181 24.972-24.972 24.972h-1.522l-1.496-63.307h3.018c13.792 0 24.972 11.18 24.972 24.972z" fill="#fa968c"/></g></g></g><g><g><g><path d="m367.476 195.033c0 5.533-4.485 10.018-10.018 10.018h-.611l-.6-25.398h1.211c5.533 0 10.018 4.485 10.018 10.018z" fill="#fa735f"/></g></g></g><g><g><g><path d="m356.221 133.707c-.246-24.792-20.413-44.76-45.206-44.76h-53.711c-29.928 0-57.128 11.67-77.308 30.702v153.563c0 38.59 31.005 70.253 69.594 70.542.27.002.54.003.81.003 59.008 0 106.845-47.836 106.845-106.845z" fill="#ffbe82"/></g></g></g><g><path d="m218.235 357.643c3.834.685 7.771 1.076 11.797 1.106.27.002.54.003.81.003 23.082 0 44.454-10.32 61.922-22.764v-41.775h-74.531v63.43z" fill="#fa735f"/></g><g><g><g><path d="m356.221 133.707c-.246-24.792-20.413-44.76-45.206-44.76h-53.711c-29.928 0-57.128 11.67-77.308 30.702v153.563c0 38.59 31.005 70.253 69.594 70.542.27.002.54.003.81.003 59.008 0 106.845-47.836 106.845-106.845z" fill="#fab9af"/></g></g></g><g><g><g><path d="m119.508 198.989c0 13.7 11.106 24.806 24.806 24.806h.911l.44-62.885h-1.351c-13.7 0-24.806 11.106-24.806 24.806z" fill="#fa968c"/></g></g></g><g><g><g><path d="m134.605 194.905c0 5.269 4.271 9.54 9.54 9.54h.35l.169-24.185h-.52c-5.269 0-9.54 4.271-9.54 9.54v5.105z" fill="#fa735f"/></g></g></g><g><g><g><path d="m205.736 197.084v9.088c0 4.866 3.946 8.812 8.812 8.812s8.812-3.945 8.812-8.812v-9.088z" fill="#fa968c"/></g></g></g><g><g><g><path d="m277.698 197.084v9.088c0 4.866 3.946 8.812 8.812 8.812s8.812-3.945 8.812-8.812v-9.088z" fill="#fa968c"/></g></g></g><g><g><g><path d="m214.547 207.64c-4.866 0-8.812-3.945-8.812-8.812v-6.499l3.537-5.314-3.537-5.314v-6.974c0-4.866 3.945-8.812 8.812-8.812s8.812 3.945 8.812 8.812v24.1c0 4.868-3.945 8.813-8.812 8.813z" fill="#373c41"/></g></g></g><g><g><g><path d="m286.51 207.64c-4.866 0-8.812-3.945-8.812-8.812v-8.244l3.537-5.314-3.537-5.314v-5.229c0-4.866 3.945-8.812 8.812-8.812 4.866 0 8.812 3.945 8.812 8.812v24.1c-.001 4.868-3.946 8.813-8.812 8.813z" fill="#373c41"/></g></g></g><g><path d="m281.235 92.609v33.58h5.069c25.467 0 47.789-13.427 60.302-33.58z" fill="#fa968c"/></g><g><g><g><path d="m237.17 222.74c-2.191 7.719 1.79 16.127 9.403 18.662 1.532.51 3.171.786 4.874.786s3.342-.276 4.874-.786c7.613-2.534 11.594-10.943 9.404-18.662l-10.684-37.648c-1.028-3.621-6.16-3.621-7.187 0z" fill="#fa968c"/></g></g></g><g><path d="m260.268 89.136c-63.84-.122-115.665 51.584-115.665 115.424v33.401c0 65.03 58.362 115.336 123.751 104.266-49.92-8.492-87.936-51.926-87.936-104.266.027-46.851-.004-68.596-.009-79.193-.003-8.388 6.856-15.266 15.244-15.284h.011 51.281c29.842 0 54.035-24.192 54.035-54.035-.001 0-7.795-.25-40.712-.313z" fill="#fa968c"/></g><g><path d="m199.253 46.247c-30.183 0-54.65 24.468-54.65 54.65v35.243 68.419c7.826 0 14.171-6.344 14.171-14.171v-17.358c0-20.374 16.516-36.89 36.89-36.89h51.281c29.842 0 54.035-24.192 54.035-54.035v-35.858z" fill="#ff640a"/></g><g><path d="m299.064 88.948c24.172 0 44.01 20.692 44.01 44.864v56.578c0 7.826 6.344 14.171 14.171 14.171v-100.603c0-10.373-8.804-18.565-19.15-17.82z" fill="#cd5014"/></g><g><path d="m289.731 262.259c.366-2.722-1.828-5.119-4.574-5.119h-9.255l-24.373 5.06-24.373-5.06h-8.187c-2.746 0-4.941 2.397-4.574 5.119.701 5.207 2.456 10.08 5.044 14.397l49.351 14.625c11.146-5.471 19.22-16.239 20.941-29.022z" fill="#fff"/></g><g><path d="m219.443 276.653c6.642 11.079 18.763 18.497 32.62 18.497 6.003 0 11.677-1.396 16.725-3.874-2.17-13.611-13.959-24.015-28.181-24.015-8.395-.001-15.942 3.624-21.164 9.392z" fill="#fff"/></g><g><path d="m275.902 261.899c0 2.961-2.401 5.362-5.362 5.362h-38.023c-2.961 0-5.362-2.401-5.362-5.362v-4.759h48.746v4.759z" fill="#fff"/></g><g><path d="m209.273 195.867c-1.953 0-3.537-1.584-3.537-3.537v-10.627c0-1.953 1.584-3.537 3.537-3.537 1.953 0 3.537 1.584 3.537 3.537v10.627c0 1.953-1.584 3.537-3.537 3.537z" fill="#fff"/></g><g><path d="m281.235 194.122c-1.953 0-3.537-1.584-3.537-3.537v-10.627c0-1.953 1.584-3.537 3.537-3.537 1.953 0 3.537 1.584 3.537 3.537v10.627c0 1.953-1.584 3.537-3.537 3.537z" fill="#fff"/></g><g><path d="m281.235 117.188h5.069c39.18 0 70.941-31.761 70.941-70.941h-76.01z" fill="#ff640a"/></g><g><ellipse cx="181.456" cy="236.794" fill="#fa968c" rx="24.279" ry="20.346"/></g><g><ellipse cx="319.24" cy="236.794" fill="#fa968c" rx="24.279" ry="20.346"/></g><g><g><path d="m239.036 466.845c-2.062 0-4.158-.414-6.17-1.288l-36.99-16.075c-7.852-3.412-11.45-12.542-8.038-20.394s12.544-11.448 20.394-8.038l36.99 16.075c7.852 3.412 11.45 12.542 8.038 20.394-2.539 5.839-8.24 9.326-14.224 9.326z" fill="#fa968c"/></g><g><path d="m132.812 466.416-.357 11.953c2.152 1.232 4.324 2.433 6.515 3.602v-15.555z" fill="#50555a"/><g><path d="m159.447 466.416h42.605v21.798h-42.605z" fill="#50555a"/></g><g><path d="m222.53 466.416h42.605v21.798h-42.605z" fill="#50555a"/></g><g><path d="m285.612 466.416h42.605v21.798h-42.605z" fill="#50555a"/></g><path d="m391.3 466.416h-42.605v21.798h10.708c11.091-5.126 21.749-11.048 31.897-17.698z" fill="#50555a"/><path d="m138.294 481.609c34.901 18.753 74.811 29.391 117.206 29.391 42.21 0 82.146-10.605 117.143-29.391z" fill="#50555a"/><path d="m187.583 501.585v-19.976h-49.289c15.514 8.336 32.017 15.068 49.289 19.976z" fill="#373c41"/></g><g><path d="m207.319 480.918c-7.194 0-13.436-5.35-14.366-12.675l-5.284-41.615c-1.009-7.944 4.614-15.203 12.559-16.211 7.924-1.011 15.201 4.613 16.211 12.558l5.284 41.615c1.009 7.944-4.614 15.203-12.559 16.211-.62.079-1.236.117-1.845.117z" fill="#fab9af"/></g><g><path d="m178.47 470.575c-7.194 0-13.436-5.35-14.366-12.675l-5.284-41.615c-1.009-7.944 4.614-15.203 12.559-16.211 7.935-1.011 15.201 4.613 16.211 12.558l5.284 41.615c1.009 7.944-4.614 15.203-12.559 16.211-.619.079-1.236.117-1.845.117z" fill="#fab9af"/></g><g><path d="m151.348 481.918c-7.194 0-13.436-5.35-14.366-12.675l-5.284-41.615c-1.009-7.944 4.614-15.203 12.559-16.211 7.931-1.011 15.202 4.613 16.211 12.558l5.284 41.615c1.009 7.944-4.614 15.203-12.559 16.211-.619.079-1.236.117-1.845.117z" fill="#fab9af"/></g><path d="m133.254 433.44c-1.009-7.945-8.28-13.573-16.211-12.558-7.944 1.008-13.567 8.266-12.559 16.21l3.18 25.044c7.914 5.885 16.191 11.309 24.791 16.234 3.532-3.07 5.515-7.789 4.881-12.779z" fill="#fab9af"/><g><path d="m306.922 469.211c-5.985 0-11.686-3.487-14.224-9.326-3.412-7.851.188-16.981 8.038-20.394l36.991-16.075c7.854-3.411 16.981.188 20.394 8.038 3.412 7.851-.187 16.981-8.038 20.394l-36.991 16.075c-2.012.874-4.108 1.288-6.17 1.288z" fill="#fa968c"/></g><g><path d="m338.64 483.284c-.609 0-1.225-.038-1.845-.117-7.944-1.008-13.567-8.267-12.559-16.211l5.284-41.615c1.01-7.944 8.273-13.568 16.211-12.558 7.944 1.008 13.567 8.267 12.559 16.211l-5.284 41.615c-.93 7.324-7.173 12.675-14.366 12.675z" fill="#fab9af"/></g><g><path d="m367.489 472.941c-.609 0-1.225-.038-1.845-.117-7.944-1.008-13.567-8.267-12.559-16.211l5.284-41.615c1.01-7.945 8.272-13.566 16.211-12.558 7.944 1.008 13.567 8.267 12.559 16.211l-5.284 41.615c-.931 7.325-7.173 12.675-14.366 12.675z" fill="#fab9af"/></g><g fill="#fab9af"><path d="m414.261 429.994c1.009-7.944-4.613-15.202-12.558-16.211-7.939-1.01-15.203 4.613-16.212 12.558l-5.285 41.615c-.387 3.048.202 5.994 1.523 8.526 10.221-6.054 19.978-12.823 29.198-20.243z"/><path d="m439.179 429.627c-2.249-3.394-5.907-5.826-10.263-6.379-7.943-1.008-15.202 4.613-16.212 12.558l-2.688 21.163c10.434-8.316 20.19-17.461 29.163-27.342z"/></g></g></g></svg>