<svg id="Layer_1" enable-background="new 0 0 511 511" height="512" viewBox="0 0 511 511" width="512" xmlns="http://www.w3.org/2000/svg"><g><g><path d="m255.5 23.683c-93.766 0-151.527 52.89-151.686 52.979 0 0-2.401 2.997-2.85 4.99-3.648 16.195-7.057 37.899-7.057 53.737 0 134.569 113.481 243.632 248.05 243.632 51.819 0 109.472-24.836 148.058-54.697.863-.668 3.602-5.156 3.602-5.156.17-1.038 5.542-22.432 5.542-51.826 0-134.57-109.09-243.659-243.659-243.659z" fill="#afe6ff"/><path d="m341.935 372.143c-134.569 0-243.659-109.09-243.659-243.659 0-17.787 1.918-35.118 5.537-51.822-56.037 44.642-91.972 113.465-91.972 190.679 0 55.698 18.689 107.031 50.137 148.071l356.352 33.181c37.237-33.447 64.208-78.293 75.286-129.426-41.622 33.153-94.333 52.976-151.681 52.976z" fill="#73c8f0"/></g><g><g><path d="m354.954 330.472c-77.444-57.713-159.927-57.713-230.903 0 0 14.054 4.729 29.178 4.729 43.232 74.21-24.095 145.147-25.428 219.357-1.333 0-14.054 6.817-27.846 6.817-41.899z" fill="#2477f9"/></g><g><path d="m355.113 342.543c-74.21-62.403-156.102-62.403-230.311 0v42.161c74.21-24.095 156.102-24.095 230.311 0 0-14.054 0-28.108 0-42.161z" fill="#002ac1"/></g><g><path d="m427.83 129.697h-106.106v22.701h128.807c0-12.537-10.164-22.701-22.701-22.701z" fill="#ffa50a"/></g><g><path d="m321.724 129.697h38.451v22.701h-38.451z" fill="#fa870a"/></g><g><g><g><path d="m340.824 230.331-3.269-26.007 3.269-35.324c13.361 0 26.193 10.832 26.193 24.193v12.946c0 13.361-12.832 24.192-26.193 24.192z" fill="#ff965a"/></g></g></g><g><g><g><path d="m341.874 212.041-1.319-10.496 1.319-14.256c5.392 0 10.571 4.371 10.571 9.764v5.224c0 5.393-5.179 9.764-10.571 9.764z" fill="#ef6a30"/></g></g></g><g><g><g><path d="m137.176 224.895 3.269-26.007-3.269-35.324c-13.361 0-26.193 10.832-26.193 24.193v12.946c0 13.36 12.832 24.192 26.193 24.192z" fill="#ff965a"/></g></g></g><g><g><g><path d="m136.126 206.605 1.319-10.496-1.319-14.256c-5.392 0-10.571 4.371-10.571 9.764v5.224c0 5.393 5.178 9.764 10.571 9.764z" fill="#ef6a30"/></g></g></g><path d="m418.33 429.73c0-31.916-22.182-59.544-53.345-66.439l-125.856-27.85-63.541 14.103v148.025c24.548 8.52 50.87 13.245 78.276 13.426l2.5-3.129 2.5 3.112c22.077-.3 43.497-3.553 63.862-9.394l18.223-28.305 15.202 15.993c22.788-10.352 43.741-24.118 62.178-40.678v-18.864z" fill="#ff3c3c"/><path d="m239.129 335.441-125.358 27.824c-26.377 5.855-46.31 26.564-51.792 52.148 17.597 22.963 39.188 42.703 63.735 58.182l16.255-10.977 17.17 28.586c5.671 2.444 11.453 4.679 17.337 6.695v-68.205c0-31.9 22.16-59.518 53.302-66.43l67.442-14.969z" fill="#dc1428"/><g><path d="m239.64 430.011c33.664 0 60.953-27.29 60.953-60.953v-20.016l-61.464-13.601-60.443 13.416v20.202c.001 33.663 27.291 60.952 60.954 60.952z" fill="#dc1428"/></g><g><g><g><path d="m239.64 404.139c-20.073 0-36.344-16.272-36.344-36.344v-81.406h72.689v81.406c0 20.072-16.272 36.344-36.345 36.344z" fill="#ff965a"/></g></g></g><g><g><g><path d="m338.235 158.871c0-33.168-21.278-63.497-54.445-63.497h-88.298c-9.464 0-18.132 2.477-25.694 6.777v175.309c0 38.263 30.776 69.577 69.038 69.867.268.002.537.003.805.003 56.987 0 103.183-46.197 103.183-103.183v-32.575z" fill="#ffbe82"/></g></g></g><g><path d="m203.296 286.389v81.406c40.413 7.849 64.954-5.603 72.689-25.837v-55.569z" fill="#ef6a30"/></g><g><g><g><path d="m338.235 158.871c0-33.168-21.278-63.497-54.445-63.497h-88.298c-9.464 0-18.132 2.477-25.694 6.777v175.309c0 38.263 30.776 69.577 69.038 69.867.268.002.537.003.805.003 56.987 0 103.183-46.197 103.183-103.183v-32.575z" fill="#ffbe82"/></g></g></g><g><g><g><path d="m195.058 205.589v7.276c0 4.746 3.848 8.594 8.594 8.594s8.594-3.848 8.594-8.594v-7.276z" fill="#ff965a"/></g></g></g><g><g><g><path d="m265.081 205.589v7.276c0 4.746 3.848 8.594 8.594 8.594s8.594-3.848 8.594-8.594v-7.276z" fill="#ff965a"/></g></g></g><g><g><g><path d="m203.652 214.575c-4.746 0-8.594-3.848-8.594-8.594v-11.055l3.168-4.797-3.168-4.797v-2.855c0-4.746 3.848-8.594 8.594-8.594s8.594 3.848 8.594 8.594v23.504c0 4.746-3.848 8.594-8.594 8.594z" fill="#373c41"/></g></g></g><g><g><g><path d="m273.675 214.575c-4.746 0-8.594-3.848-8.594-8.594v-11.055l3.168-4.797-3.168-4.797v-2.855c0-4.746 3.848-8.594 8.594-8.594s8.594 3.848 8.594 8.594v23.504c0 4.746-3.848 8.594-8.594 8.594z" fill="#373c41"/></g></g></g><g><path d="m326.059 122.974c.986.001 1.96-.047 2.928-.119-9.264-16.253-25.025-27.482-45.198-27.482h-88.299c-9.464 0-18.132 2.477-25.694 6.777v2.196c-19.413 9.058-32.087 28.451-32.087 52.25l-2.274 54.974v31.554c0 59.556 49.9 107.227 109.797 104.054-43.381-12.598-75.091-52.632-75.091-100.077.258-5.863 0-62.674 0-84.254 0-.154.001-.307.002-.461.165-21.948 18.249-39.549 40.197-39.527z" fill="#ff965a"/></g><g><g><g><g><path d="m214.974 169.586h-25.062c-4.746 0-8.594-3.848-8.594-8.594 0-4.746 3.848-8.594 8.594-8.594h25.062c4.746 0 8.594 3.848 8.594 8.594 0 4.747-3.847 8.594-8.594 8.594z" fill="#783c28"/></g></g></g></g><g><g><g><g><path d="m286.591 169.586h-25.062c-4.746 0-8.594-3.848-8.594-8.594 0-4.746 3.848-8.594 8.594-8.594h25.062c4.746 0 8.594 3.848 8.594 8.594 0 4.747-3.848 8.594-8.594 8.594z" fill="#783c28"/></g></g></g></g><g><path d="m337.424 147.814c-4.148-28.554-24.203-52.44-53.635-52.44h-88.298c-7.87 0-15.187 1.718-21.778 4.767 13.933 28.239 43.001 47.672 76.62 47.672h87.091z" fill="#ff965a"/></g><g><g><g><path d="m225.715 226.775c-2.136 8.531 1.746 17.824 9.171 20.625 1.494.564 3.092.869 4.754.869 1.661 0 3.26-.305 4.754-.869 7.425-2.801 11.308-12.094 9.171-20.625l-7.082-28.282c-1.783-7.12-11.902-7.12-13.685 0z" fill="#ff965a"/></g></g></g><g><g><path d="m342.824 101.624v57.792.003 52.153c-7.633 0-13.821-6.188-13.821-13.821v-61.026c0-13.479-7.586-25.903-19.707-31.799-.297-.145-.594-.286-.89-.423v-2.878h34.418z" fill="#6d3222"/></g></g><g><path d="m198.226 198.095c-1.75 0-3.168-1.418-3.168-3.168v-9.594c0-1.75 1.418-3.168 3.168-3.168 1.75 0 3.168 1.418 3.168 3.168v9.594c0 1.749-1.418 3.168-3.168 3.168z" fill="#fff"/></g><g><path d="m268.249 198.095c-1.75 0-3.168-1.418-3.168-3.168v-9.594c0-1.75 1.418-3.168 3.168-3.168 1.75 0 3.168 1.418 3.168 3.168v9.594c0 1.749-1.418 3.168-3.168 3.168z" fill="#fff"/></g><g><g><path d="m135.436 115.775v43.641.003 52.153c7.633 0 13.821-6.188 13.821-13.821v-61.026c0-.081 0-.162.001-.242.067-9.801 6.711-17.997 15.673-20.707h-29.495z" fill="#6d3222"/></g></g><g><path d="m135.436 118.189v41.227c24.184 0 44.168-17.934 47.407-41.227z" fill="#6d3222"/></g><g><path d="m194.715 118.189c14.943 12.847 34.367 20.624 55.619 20.624l88.674-.009c5.029-.001 9.106-4.078 9.106-9.107l-112.624-70.818z" fill="#783c28"/></g><g><ellipse cx="187.874" cy="241.364" fill="#ff965a" rx="22.944" ry="15.853"/></g><g><ellipse cx="295.185" cy="241.364" fill="#ff965a" rx="22.944" ry="15.853"/></g><g><path d="m239.635 293.983c-9.699 0-19.399-4.299-28.836-12.898l6.735-7.392c15.084 13.745 29.122 13.746 44.176.003l6.742 7.386c-9.422 8.599-19.118 12.901-28.817 12.901z" fill="#ff965a"/></g><g><path d="m232.212 305.067h15.073v7h-15.073z" fill="#ff965a"/></g><g><path d="m239.4 8.017c-60.041 0-108.713 48.673-108.713 108.713v12.967h217.427v-12.967c-.001-60.041-48.674-108.713-108.714-108.713zm22.24 100.486h-45.848v-3.152c0-14.596 10.263-26.429 22.924-26.429s22.924 11.833 22.924 26.429z" fill="#ffc305"/></g><g><path d="m239.289 108.503h-23.497v-3.152c0-14.596 10.263-26.429 22.924-26.429.192 0 .382.011.573.017v-70.921c-59.99.059-108.603 48.708-108.603 108.712v12.967h108.603z" fill="#ffa50a"/></g><g><path d="m239.4 8.017c-31.457 0-56.959 48.673-56.959 108.713v12.967h113.917v-12.967c0-60.041-25.501-108.713-56.958-108.713zm22.24 100.486h-45.848v-3.152c0-14.596 10.263-26.429 22.924-26.429s22.924 11.833 22.924 26.429z" fill="#fff"/></g><g><ellipse cx="238.858" cy="8.587" fill="#fa870a" rx="15.29" ry="8.587"/></g><path d="m125.714 473.595c10.617 6.695 21.786 12.592 33.425 17.609v-138.009l-33.425 7.419z" fill="#58a804"/><path d="m356.152 489.271v-127.935l-33.425-7.396v147.643c11.502-3.3 22.668-7.425 33.425-12.312z" fill="#58a804"/><g><g><g><path d="m320.145 355.53v44.032c11.763-7.025 23.393-15.984 34.809-26.929v-42.161c-11.522 10.106-23.148 18.435-34.809 25.058z" fill="#05cdff"/></g><g><path d="m320.145 366.53v44.032c11.763-7.025 23.393-15.984 34.809-26.929 9.304-15.169 7.956-29.061 0-42.161-11.522 10.106-23.148 18.436-34.809 25.058z" fill="#2477f9"/></g><g><path d="m261.245 387.997c0 31.566 16.762 57.155 37.439 57.155s33.096-25.589 33.096-57.155-12.419-57.155-33.096-57.155-37.439 25.59-37.439 57.155z" fill="#0540e5"/></g><g><path d="m303.213 418.254c-20.677 0-37.439-25.589-37.439-57.155 0-.131.006-.26.006-.391-2.892 8.109-4.536 17.405-4.536 27.288 0 31.566 16.762 57.155 37.439 57.155 19.837 0 32.065-23.555 33.027-53.34-5.367 15.895-15.227 26.443-28.497 26.443z" fill="#002ac1"/></g><g><path d="m282.492 387.997c0 24.807 12.162 44.917 27.165 44.917s34.898-20.11 34.898-44.917-19.895-44.917-34.898-44.917-27.165 20.11-27.165 44.917z" fill="#05cdff"/></g><g><path d="m318.28 405.626c-15.003 0-27.165-20.11-27.165-44.917 0-2.003.087-3.97.241-5.904-5.446 8.214-8.864 20.043-8.864 33.192 0 24.807 12.162 44.917 27.165 44.917 14.956 0 34.769-19.986 34.892-44.687-7.159 10.582-17.538 17.399-26.269 17.399z" fill="#2896ff"/></g></g><g><g><path d="m159.889 357.73c-12.241-6.934-24.219-16.015-35.838-27.258v42.161c11.749 11.264 23.723 20.445 35.838 27.559z" fill="#05cdff"/></g><g><path d="m159.889 368.73c-12.241-6.934-24.219-16.015-35.838-27.258-12.075 13.55-10.583 27.666 0 42.161 11.749 11.264 23.723 20.445 35.838 27.559z" fill="#2477f9"/></g><g><path d="m217.547 387.997c0 31.566-16.762 57.155-37.439 57.155s-33.096-25.589-33.096-57.155 12.419-57.155 33.096-57.155 37.439 25.59 37.439 57.155z" fill="#0540e5"/></g><g><path d="m199.997 339.582c4.738 9.574 7.55 21.491 7.55 34.414 0 31.566-16.762 57.155-37.439 57.155-6.098 0-11.471-2.24-16.026-6.188 5.679 12.346 14.586 20.189 26.026 20.189 20.677 0 37.439-25.589 37.439-57.155 0-20.406-7.01-38.303-17.55-48.415z" fill="#002ac1"/></g><g><path d="m196.3 387.997c0 24.807-12.162 44.917-27.165 44.917s-34.898-20.11-34.898-44.917 19.895-44.917 34.898-44.917 27.165 20.11 27.165 44.917z" fill="#05cdff"/></g><g><path d="m184.808 351.322c.962 4.6 1.491 9.534 1.491 14.674 0 24.807-12.162 44.917-27.165 44.917-7.887 0-17.122-5.563-24.112-14.438 3.808 20.752 20.863 36.44 34.113 36.44 15.003 0 27.165-20.11 27.165-44.917 0-15.152-4.542-28.541-11.492-36.676z" fill="#2896ff"/></g></g><path d="m253.865 510.995c.545.004 1.09.005 1.635.005 1.123 0 2.245-.009 3.365-.024v-75.419h-5z" fill="#002ac1"/><g><path d="m256.209 445.938c-3.038 0-5.5-2.462-5.5-5.5v-14.953c0-8.798 4.85-16.782 12.657-20.838l6.213-3.228c2.694-1.401 6.016-.351 7.417 2.345 1.4 2.696.35 6.016-2.345 7.417l-6.213 3.228c-4.15 2.156-6.728 6.4-6.728 11.077v14.953c-.001 3.036-2.464 5.499-5.501 5.499z" fill="#2477f9"/></g></g></g></g></svg>