<svg id="Layer_1" enable-background="new 0 0 511 511" height="512" viewBox="0 0 511 511" width="512" xmlns="http://www.w3.org/2000/svg"><g><g><path d="m255.5 40.527c-90.525 0-146.29 51.062-146.443 51.148 0 0-2.318 2.894-2.752 4.817-3.522 15.635-6.813 36.589-6.813 51.88 0 129.918 109.559 235.211 239.476 235.211 50.028 0 105.688-23.977 142.94-52.806.833-.645 3.477-4.978 3.477-4.978.164-1.002 5.351-21.657 5.351-50.035.001-129.918-105.318-235.237-235.236-235.237z" fill="#afe6ff"/><path d="m338.948 376.942c-129.918 0-235.237-105.319-235.237-235.237 0-17.172 1.852-33.904 5.346-50.031-54.1 43.099-88.793 109.543-88.793 184.088 0 59.045 21.754 113.01 57.685 154.315l355.103.003c25.409-29.194 43.78-64.797 52.335-104.283-40.185 32.008-91.074 51.145-146.439 51.145z" fill="#73c8f0"/></g><g><g><g><path d="m374.007 147.789-12.904 4.963v-75.295c0-26.837-21.833-48.67-48.67-48.67h-114.827c-26.837 0-48.67 21.833-48.67 48.67v70.332h-12.904v-86.215c-.001-33.952 27.622-61.574 61.574-61.574h114.826c33.952 0 61.574 27.622 61.574 61.574v86.215z" fill="#696e73"/></g></g><g><g><path d="m361.102 133.677v19.076l12.905-4.964v-14.112z" fill="#50555a"/></g></g><g><g><path d="m215.536 0h-17.93c-33.953 0-61.575 27.622-61.575 61.574v86.215h12.904v-70.332c0-26.837 21.834-48.67 48.67-48.67h17.93v-28.787z" fill="#50555a"/></g></g><g><g><path d="m136.031 132.803h12.904v14.986h-12.904z" fill="#373c41"/></g></g><g><circle cx="135.663" cy="157.48" fill="#82878c" r="16.639"/></g><g><circle cx="135.663" cy="157.48" fill="#696e73" r="6.821"/></g><g><g><g><path d="m356.177 235.043-3.245-25.816 3.245-35.064c13.263 0 26 10.752 26 24.015v12.85c0 13.263-12.737 24.015-26 24.015z" fill="#934d34"/></g></g></g><g><g><g><path d="m357.22 216.888-1.309-10.418 1.309-14.151c5.353 0 10.493 4.339 10.493 9.692v5.186c-.001 5.352-5.141 9.691-10.493 9.691z" fill="#783c28"/></g></g></g><g><g><g><path d="m154.03 229.647 3.245-25.816-3.245-35.064c-13.263 0-26 10.752-26 24.015v12.85c0 13.263 12.737 24.015 26 24.015z" fill="#934d34"/></g></g></g><g><g><g><path d="m152.987 211.491 1.309-10.418-1.309-14.151c-5.353 0-10.493 4.339-10.493 9.692v5.186c0 5.352 5.141 9.691 10.493 9.691z" fill="#783c28"/></g></g></g><path d="m89.059 395.745c-6.597 9.993-10.584 21.782-11.111 34.334 2.814 3.235 5.718 6.389 8.703 9.464.827-14.598 1.607-29.198 2.408-43.798z" fill="#fff"/><path d="m315.42 352.696-60.188-13.319-58.997 13.095c.005.165.013.329.013.494v90.525c0 34.273 25.489 63.198 59.491 67.509.207 0 .415-.001.622-.001 32.959-.12 59.516-27.111 59.516-60.071v-98.13z" fill="#fff"/><g><g><g><path d="m255.739 407.57c-19.925 0-36.077-16.152-36.077-36.077l15.097-45.94 57.056-34.866v80.806c.001 19.925-16.151 36.077-36.076 36.077z" fill="#934d34"/></g></g></g><g><path d="m219.662 290.687v80.806c40.115 7.791 64.475-5.562 72.153-25.647v-55.159z" fill="#783c28"/></g><g><g><g><path d="m353.607 164.109c0-32.923-21.121-63.029-54.044-63.029h-87.648c-9.394 0-17.999 2.459-25.505 6.727v174.017c0 37.982 30.549 69.065 68.529 69.352.266.002.533.003.799.003 56.567 0 102.423-45.856 102.423-102.423v-32.335z" fill="#a55a3c"/></g></g></g><g><g><g><path d="m211.485 210.483v7.223c0 4.711 3.82 8.531 8.531 8.531s8.531-3.82 8.531-8.531v-7.223z" fill="#934d34"/></g></g></g><g><g><g><path d="m280.993 210.483v7.223c0 4.711 3.82 8.531 8.531 8.531s8.531-3.82 8.531-8.531v-7.223z" fill="#934d34"/></g></g></g><g><g><g><path d="m220.016 219.403c-4.711 0-8.531-3.82-8.531-8.531v-10.973l3.145-4.762-3.145-4.762v-2.834c0-4.711 3.82-8.531 8.531-8.531s8.531 3.82 8.531 8.531v23.331c0 4.711-3.82 8.531-8.531 8.531z" fill="#373c41"/></g></g></g><g><g><g><path d="m289.523 219.403c-4.711 0-8.531-3.82-8.531-8.531v-10.973l3.145-4.762-3.145-4.762v-2.834c0-4.711 3.82-8.531 8.531-8.531s8.531 3.82 8.531 8.531v23.331c0 4.711-3.82 8.531-8.531 8.531z" fill="#373c41"/></g></g></g><g><path d="m341.521 128.477c.979.001 1.946-.047 2.906-.118-9.196-16.133-24.841-27.279-44.865-27.279h-87.648c-9.394 0-17.998 2.459-25.505 6.727v2.18c-19.27 8.991-31.851 28.241-31.851 51.865l-2.257 54.569v31.322c0 59.117 49.532 106.437 108.988 103.287-43.061-12.506-74.537-52.244-74.537-99.339.256-5.819 0-62.212 0-83.634 0-.153.001-.305.002-.457.164-21.786 18.114-39.257 39.901-39.236z" fill="#934d34"/></g><g><g><g><g><path d="m231.255 174.746h-24.878c-4.711 0-8.531-3.819-8.531-8.531 0-4.711 3.819-8.531 8.531-8.531h24.878c4.711 0 8.531 3.819 8.531 8.531-.001 4.711-3.82 8.531-8.531 8.531z" fill="#783c28"/></g></g></g></g><g><g><g><g><path d="m302.343 174.746h-24.878c-4.711 0-8.531-3.819-8.531-8.531 0-4.711 3.819-8.531 8.531-8.531h24.878c4.711 0 8.531 3.819 8.531 8.531 0 4.711-3.819 8.531-8.531 8.531z" fill="#783c28"/></g></g></g></g><g><path d="m287.15 266.596h-8.784l-23.134 4.803-23.134-4.803h-7.77c-2.607 0-4.689 2.275-4.342 4.859.665 4.942 2.331 9.567 4.788 13.664l46.841 13.881c10.579-5.193 18.243-15.413 19.876-27.546.348-2.582-1.735-4.858-4.341-4.858z" fill="#fff"/></g><g><path d="m334.868 153.133c9.86 0 16.449-10.172 12.41-19.167-8.581-19.107-25.444-32.886-47.715-32.886h-87.648c-7.812 0-15.075 1.705-21.618 4.732 13.83 28.031 42.685 47.321 76.056 47.321z" fill="#934d34"/></g><g><g><g><path d="m241.917 231.513c-2.121 8.468 1.733 17.693 9.104 20.473 1.483.559 3.07.862 4.719.862s3.236-.303 4.719-.862c7.37-2.78 11.224-12.005 9.104-20.473l-7.03-28.073c-1.77-7.068-11.814-7.068-13.584 0z" fill="#934d34"/></g></g></g><g><g><path d="m358.162 107.284v57.366.003 51.768c-7.577 0-13.719-6.142-13.719-13.719v-60.576c0-13.38-7.53-25.712-19.562-31.565-.295-.143-.59-.283-.884-.42v-2.857z" fill="#272a2d"/></g></g><g><path d="m214.63 203.044c-1.737 0-3.145-1.408-3.145-3.145v-9.524c0-1.737 1.408-3.145 3.145-3.145 1.737 0 3.145 1.408 3.145 3.145v9.524c0 1.737-1.408 3.145-3.145 3.145z" fill="#fff"/></g><g><path d="m284.137 203.044c-1.737 0-3.145-1.408-3.145-3.145v-9.524c0-1.737 1.408-3.145 3.145-3.145 1.737 0 3.145 1.408 3.145 3.145v9.524c0 1.737-1.408 3.145-3.145 3.145z" fill="#fff"/></g><g><path d="m224.778 285.117c6.304 10.515 17.809 17.556 30.961 17.556 5.697 0 11.083-1.325 15.874-3.677-2.059-12.919-13.249-22.794-26.748-22.794-7.967 0-15.13 3.44-20.087 8.915z" fill="#fff"/></g><g><path d="m273.277 276.202h-36.089c-2.811 0-5.089-2.278-5.089-5.089v-4.517h46.267v4.517c0 2.811-2.279 5.089-5.089 5.089z" fill="#fff"/></g><g><g><path d="m152.302 121.331v43.319.003 51.768c7.577 0 13.719-6.142 13.719-13.719v-60.576c0-.08 0-.16.001-.241.066-9.728 6.662-17.865 15.558-20.555h-29.278z" fill="#272a2d"/></g></g><g><path d="m199.829 48.033h-15.972c-17.427 0-31.555 14.128-31.555 31.555v85.063c26.248 0 47.527-21.278 47.527-47.527z" fill="#272a2d"/></g><g><path d="m314.313 146.796h-46.304c-52.642 0-95.316-42.675-95.316-95.316 0-12.548 10.172-22.719 22.719-22.719h118.901c32.595 0 59.018 26.423 59.018 59.018 0 32.594-26.423 59.017-59.018 59.017z" fill="#373c41"/></g><g fill="#0540e5"><path d="m192.615 502.392c20.117 5.585 41.292 8.588 63.124 8.608l-48.172-76.125-11.573-82.349-11.987 12.771z"/><path d="m380.161 367.023-64.741-14.326-12.293 80.637-47.388 77.666c70.177-.206 134.135-31.31 177.311-80.919-1.292-30.446-22.902-56.423-52.889-63.058z"/></g><path d="m193.04 502.618v-69.681c0-16.729 6.143-32.268 16.493-44.22l-13.539-36.191-.858.19-64.339 14.28c-6.762 1.501-13.098 3.985-18.87 7.282-9.07 5.181-16.749 12.37-22.504 20.904-.853 1.265-1.652 2.566-2.419 3.887-.87 1.5-1.683 3.035-2.437 4.603-.62 1.287-1.212 2.589-1.751 3.918-.443 1.093-.847 2.204-1.234 3.323-2.096 6.073-3.354 12.511-3.635 19.164 29.969 34.453 69.799 60.098 115.093 72.541z" fill="#003dc6"/><g><path d="m195.995 352.526-38.72 76.432 98.464 82.042z" fill="#dc1428"/></g><g><path d="m315.42 352.696 42.742 79.682-102.423 78.622z" fill="#ff3c3c"/></g><g><g><path d="m147.046 248.325-34.374-3.815c-5.894-.654-10.353-5.635-10.353-11.565v-46.851c0-5.93 4.459-10.911 10.353-11.565l34.374-3.815z" fill="#ff3c3c"/></g><g><path d="m132.807 262.126h11.371c6.68 0 12.095-5.415 12.095-12.095v-80.251c0-6.68-5.415-12.095-12.095-12.095h-11.371c-6.68 0-12.095 5.415-12.095 12.095v80.251c0 6.68 5.415 12.095 12.095 12.095z" fill="#ffa50a"/></g><g><path d="m144.178 226.389h-11.371c-6.68 0-12.095-5.415-12.095-12.095v35.737c0 6.68 5.415 12.095 12.095 12.095h11.371c6.68 0 12.095-5.415 12.095-12.095v-35.737c0 6.68-5.415 12.095-12.095 12.095z" fill="#fa870a"/></g><g><path d="m120.712 218.359c-6.199 0-11.224-5.025-11.224-11.224v-36.421h11.224z" fill="#dc1428"/></g></g><g><circle cx="375.073" cy="157.48" fill="#82878c" r="16.639"/></g><g><circle cx="375.073" cy="157.48" fill="#696e73" r="6.821"/></g><g><path d="m351.649 303.468h-57.492v-8.934h57.492c8.465 0 15.353-6.887 15.353-15.353v-26.333h8.934v26.333c-.001 13.392-10.895 24.287-24.287 24.287z" fill="#696e73"/></g><g><g><path d="m363.691 248.325 34.374-3.815c5.894-.654 10.353-5.635 10.353-11.565v-46.851c0-5.93-4.459-10.911-10.353-11.565l-34.374-3.815z" fill="#ff3c3c"/></g><g><path d="m377.929 262.126h-11.371c-6.68 0-12.095-5.415-12.095-12.095v-80.251c0-6.68 5.415-12.095 12.095-12.095h11.371c6.68 0 12.095 5.415 12.095 12.095v80.251c.001 6.68-5.415 12.095-12.095 12.095z" fill="#ffa50a"/></g><g><path d="m366.559 226.389h11.371c6.68 0 12.095-5.415 12.095-12.095v35.737c0 6.68-5.415 12.095-12.095 12.095h-11.371c-6.68 0-12.095-5.415-12.095-12.095v-35.737c-.001 6.68 5.415 12.095 12.095 12.095z" fill="#fa870a"/></g><g><path d="m390.025 218.359c6.199 0 11.224-5.025 11.224-11.224v-36.421h-11.224z" fill="#dc1428"/></g></g><g><path d="m319.461 308.927h-27.382c-5.482 0-9.926-4.444-9.926-9.926s4.444-9.926 9.926-9.926h27.382c5.482 0 9.926 4.444 9.926 9.926s-4.444 9.926-9.926 9.926z" fill="#373c41"/></g></g></g></svg>