<svg id="Layer_1" enable-background="new 0 0 511 511" height="512" viewBox="0 0 511 511" width="512" xmlns="http://www.w3.org/2000/svg"><g><g><path d="m255.5 29.628c-92.622 0-149.679 52.245-149.836 52.333 0 0-2.372 2.961-2.816 4.929-3.604 15.997-6.971 37.437-6.971 53.082 0 132.927 112.097 240.66 245.024 240.66 51.187 0 108.137-24.533 146.251-54.03.853-.66 3.558-5.094 3.558-5.094.168-1.026 5.475-22.159 5.475-51.194.001-132.927-107.758-240.686-240.685-240.686z" fill="#afe6ff"/><path d="m340.881 373.836c-132.927 0-240.686-107.759-240.686-240.686 0-17.57 1.895-34.69 5.469-51.189-55.353 44.097-90.85 112.081-90.85 188.353 0 60.62 22.411 116.006 59.399 158.324l362.578-.004c26.19-29.95 45.125-66.532 53.92-107.126-41.114 32.748-93.182 52.328-149.83 52.328z" fill="#73c8f0"/></g><g><g><path d="m413.98 126.761c-.257-.155-.509-.318-.768-.471-12.481-7.382-21.046-19.863-23.464-34.161-7.53-44.529-46.319-78.774-93.359-78.774-14.213 0-27.692 3.138-39.79 8.749-16.449-13.794-37.652-22.104-60.798-22.104-51.732 0-92.383 41.02-94.611 90.277-.596 13.19-6.711 25.582-16.75 34.158-.007.006-.014.013-.022.019v290.727c20.318 3.608 42.142.652 62.299-10.642 28.052 70.398 123.648 81.006 166.37 18.095 29.644 27.649 68.816 31.291 100.893 17.945z" fill="#cd5014"/></g><g><path d="m119.508 205.845h118.824v209.129h-118.824z" fill="#c1400e"/></g><path d="m363.763 387.498h-184.745c-33.88.016-33.899-.108-38.142.261-28.277 2.086-52.727 17.936-66.662 40.879 20.96 23.98 46.601 43.764 75.497 57.927l214.127-1.301c27.804-14.038 52.575-33.326 72.954-56.63-14.968-24.66-42.074-41.136-73.029-41.136z" fill="#fab9af"/><path d="m363.838 386.666h-6.592l-3.384.595v98.064l9.976-.061c27.804-14.038 52.575-33.326 72.954-56.63-14.968-24.66-42-41.968-72.954-41.968z" fill="#fab9af"/><path d="m157.858 386.673c-.228-.003-.457-.007-.681-.007-11.472-.007-13.162-.255-16.095 0-28.277 2.086-52.935 19.029-66.869 41.972 22.907 26.208 51.415 47.388 83.644 61.711v-103.676z" fill="#fa968c"/><path d="m340.482 495.515c7.989-3.018 15.789-6.431 23.355-10.251-4.369-18.453-6.592-37.396-6.592-56.451v-42.147h-115.016v108.849z" fill="#ffc305"/><path d="m228.614 396.27c.004-.348.006-.693.006-1.035v-8.569h-71.444v39.877c0 20.292-2.521 40.451-7.466 60.022 31.93 15.649 67.834 24.435 105.79 24.435 30.864 0 60.475-5.842 87.727-16.519h-17.456c-54.069 0-97.803-44.146-97.157-98.211z" fill="#ffa50a"/><g><path d="m179.996 312.844c0 38.59 31.005 70.252 69.594 70.542.27.002.54.003.81.003 59.008 0 106.845-47.836 106.845-106.844v-18.728z" fill="#c1400e"/></g><g><path d="m255.5 451.302c30.251 0 54.775-24.524 54.775-54.775v-9.861h-109.55v9.861c0 30.252 24.523 54.775 54.775 54.775z" fill="#ffa50a"/></g><g><g><g><path d="m292.765 393.31c0 20.581-16.684 37.265-37.265 37.265-20.581 0-37.265-16.684-37.265-37.265v-20.039l74.531-63.43v83.469z" fill="#fab9af"/></g></g></g><g><g><g><path d="m382.238 214.663c0 13.792-11.181 24.972-24.972 24.972h-1.522l-1.496-63.307h3.018c13.792 0 24.972 11.18 24.972 24.972z" fill="#fa968c"/></g></g></g><g><g><g><path d="m367.476 210.662c0 5.533-4.485 10.018-10.018 10.018h-.611l-.6-25.398h1.211c5.533 0 10.018 4.485 10.018 10.018z" fill="#fa735f"/></g></g></g><g><g><g><path d="m356.221 149.336c-.246-24.792-20.413-44.76-45.206-44.76h-53.711c-29.928 0-57.128 11.67-77.308 30.702v153.563c0 38.59 31.005 70.253 69.594 70.542.27.002.54.003.81.003 59.009 0 106.845-47.836 106.845-106.845z" fill="#ffbe82"/></g></g></g><g><path d="m218.235 373.272c3.834.685 7.771 1.076 11.797 1.106.27.002.54.003.81.003 23.082 0 44.454-10.32 61.922-22.764v-41.775h-74.531v63.43z" fill="#fa735f"/></g><g><g><g><path d="m356.221 149.336c-.246-24.792-20.413-44.76-45.206-44.76h-53.711c-29.928 0-57.128 11.67-77.308 30.702v153.563c0 38.59 31.005 70.253 69.594 70.542.27.002.54.003.81.003 59.009 0 106.845-47.836 106.845-106.845z" fill="#fab9af"/></g></g></g><g><g><g><path d="m119.508 214.618c0 13.7 11.106 24.806 24.806 24.806h.911l.44-62.885h-1.351c-13.7 0-24.806 11.106-24.806 24.806z" fill="#fa968c"/></g></g></g><g><g><g><path d="m134.605 210.534c0 5.269 4.271 9.54 9.54 9.54h.35l.169-24.185h-.52c-5.269 0-9.54 4.271-9.54 9.54v5.105z" fill="#fa735f"/></g></g></g><g><g><g><path d="m205.736 212.713v9.088c0 4.866 3.946 8.812 8.812 8.812s8.812-3.945 8.812-8.812v-9.088z" fill="#fa968c"/></g></g></g><g><g><g><path d="m277.698 212.713v9.088c0 4.866 3.946 8.812 8.812 8.812s8.812-3.945 8.812-8.812v-9.088z" fill="#fa968c"/></g></g></g><g><g><g><path d="m214.547 223.269c-4.866 0-8.812-3.945-8.812-8.812v-6.499l3.537-5.314-3.537-5.314v-6.974c0-4.866 3.945-8.812 8.812-8.812s8.812 3.945 8.812 8.812v24.1c0 4.868-3.945 8.813-8.812 8.813z" fill="#373c41"/></g></g></g><g><g><g><path d="m286.51 223.269c-4.866 0-8.812-3.945-8.812-8.812v-8.244l3.537-5.314-3.537-5.314v-5.229c0-4.866 3.945-8.812 8.812-8.812 4.866 0 8.812 3.945 8.812 8.812v24.1c-.001 4.868-3.946 8.813-8.812 8.813z" fill="#373c41"/></g></g></g><g><path d="m281.235 108.238v33.58h5.069c25.467 0 47.789-13.427 60.302-33.58z" fill="#fa968c"/></g><g><g><g><g><path d="m226.157 177.14h-25.697c-4.867 0-8.812-3.945-8.812-8.812 0-4.867 3.945-8.812 8.812-8.812h25.697c4.867 0 8.812 3.945 8.812 8.812-.001 4.867-3.946 8.812-8.812 8.812z" fill="#cd5014"/></g></g></g></g><g><g><g><g><path d="m299.587 177.14h-25.697c-4.867 0-8.812-3.945-8.812-8.812 0-4.867 3.945-8.812 8.812-8.812h25.697c4.867 0 8.812 3.945 8.812 8.812 0 4.867-3.945 8.812-8.812 8.812z" fill="#cd5014"/></g></g></g></g><g><g><g><path d="m237.17 238.369c-2.191 7.719 1.791 16.127 9.403 18.662 1.532.51 3.171.786 4.874.786s3.342-.276 4.874-.786c7.613-2.534 11.594-10.943 9.404-18.662l-10.684-37.648c-1.028-3.621-6.16-3.621-7.187 0z" fill="#fa968c"/></g></g></g><g><path d="m260.268 104.765c-63.84-.122-115.665 51.584-115.665 115.424v33.401c0 65.03 58.362 115.336 123.751 104.266-49.92-8.492-87.936-51.927-87.936-104.266.027-46.851-.004-68.596-.009-79.193-.003-8.388 6.856-15.266 15.244-15.284h.011 51.281c29.842 0 54.035-24.192 54.035-54.035-.001 0-7.795-.25-40.712-.313z" fill="#fa968c"/></g><g><path d="m199.253 61.876c-30.183 0-54.65 24.468-54.65 54.65v35.243 68.419c7.826 0 14.171-6.344 14.171-14.171v-17.357c0-20.374 16.516-36.89 36.89-36.89h51.281c29.842 0 54.035-24.192 54.035-54.035v-35.859z" fill="#cd5014"/></g><g><path d="m299.064 104.577c24.172 0 44.01 20.692 44.01 44.864v56.578c0 7.826 6.344 14.171 14.171 14.171v-100.603c0-10.373-8.804-18.565-19.15-17.82z" fill="#c1400e"/></g><g><path d="m289.731 277.888c.366-2.722-1.828-5.119-4.574-5.119h-9.255l-24.373 5.06-24.373-5.06h-8.187c-2.746 0-4.941 2.397-4.574 5.119.701 5.207 2.456 10.08 5.044 14.397l49.351 14.625c11.146-5.471 19.22-16.239 20.941-29.022z" fill="#fff"/></g><g><path d="m219.443 292.282c6.642 11.079 18.763 18.497 32.62 18.497 6.003 0 11.677-1.396 16.725-3.874-2.17-13.611-13.959-24.015-28.181-24.015-8.395-.001-15.942 3.624-21.164 9.392z" fill="#fff"/></g><g><path d="m275.902 277.528c0 2.961-2.401 5.362-5.362 5.362h-38.023c-2.961 0-5.362-2.401-5.362-5.362v-4.759h48.746v4.759z" fill="#fff"/></g><g><path d="m209.273 211.496c-1.953 0-3.537-1.584-3.537-3.537v-10.627c0-1.953 1.584-3.537 3.537-3.537 1.953 0 3.537 1.584 3.537 3.537v10.627c0 1.953-1.584 3.537-3.537 3.537z" fill="#fff"/></g><g><path d="m281.235 209.751c-1.953 0-3.537-1.584-3.537-3.537v-10.627c0-1.953 1.584-3.537 3.537-3.537 1.953 0 3.537 1.584 3.537 3.537v10.627c0 1.953-1.584 3.537-3.537 3.537z" fill="#fff"/></g><g><path d="m281.235 132.817h5.069c39.18 0 70.941-31.762 70.941-70.941h-76.01z" fill="#cd5014"/></g><g><ellipse cx="181.456" cy="252.423" fill="#fa968c" rx="24.279" ry="20.346"/></g><g><ellipse cx="319.24" cy="252.423" fill="#fa968c" rx="24.279" ry="20.346"/></g><g><path d="m298.422 55.876h-59.496v12h59.496c29.127 0 52.823 23.697 52.823 52.824v55.628h12v-55.628c0-35.744-29.079-64.824-64.823-64.824z" fill="#ffc305"/></g><g><path d="m150.665 176.539h-12v-55.839c0-35.744 29.08-64.824 64.824-64.824h36.859v12h-36.859c-29.127 0-52.824 23.697-52.824 52.824z" fill="#ffa50a"/></g><g><g><path d="m127.163 155.698h23.78v16.194h-23.78z" fill="#fa870a"/></g><g><path d="m142.486 246.534h8.457v-78.206h-8.457c-21.596 0-39.103 17.507-39.103 39.103 0 21.596 17.507 39.103 39.103 39.103z" fill="#ffc305"/></g><g><path d="m142.942 168.329v26.783c0 20.772-26.219 29.901-39.097 13.603-.149-.188-.296-.378-.444-.571.382 21.266 17.728 38.39 39.085 38.39h8.457v-78.206h-8.001z" fill="#ffa50a"/></g></g><g><g><path d="m351.399 155.698h23.78v16.194h-23.78z" fill="#fa870a" transform="matrix(-1 0 0 -1 726.577 327.59)"/></g><g><path d="m359.855 246.534h-8.457v-78.206h8.457c21.596 0 39.103 17.507 39.103 39.103 0 21.596-17.507 39.103-39.103 39.103z" fill="#ffc305"/></g><g><path d="m359.399 168.329v26.783c0 20.772 26.219 29.901 39.097 13.603.148-.188.296-.378.444-.571-.382 21.266-17.728 38.39-39.085 38.39h-8.457v-78.206h8.001z" fill="#ffa50a"/></g></g></g></g></svg>