<svg id="Layer_1" enable-background="new 0 0 511 511" height="512" viewBox="0 0 511 511" width="512" xmlns="http://www.w3.org/2000/svg"><g><g><path d="m255.5 29.628c-92.622 0-149.679 52.245-149.836 52.333 0 0-2.372 2.961-2.816 4.929-3.604 15.997-6.971 37.437-6.971 53.082 0 132.927 112.097 240.66 245.024 240.66 51.187 0 108.137-24.533 146.251-54.03.853-.66 3.558-5.094 3.558-5.094.168-1.026 5.475-22.159 5.475-51.194.001-132.927-107.758-240.686-240.685-240.686z" fill="#afe6ff"/><path d="m340.881 373.836c-132.927 0-240.686-107.759-240.686-240.686 0-17.57 1.895-34.69 5.469-51.189-55.353 44.097-90.85 112.081-90.85 188.353 0 46.393 13.126 89.721 35.867 126.471l354.652 61.882c42.465-33.797 73.372-81.74 85.378-137.159-41.114 32.748-93.182 52.328-149.83 52.328z" fill="#73c8f0"/></g><g><g><g><g><path d="m323.109 229.303-3.269-26.007 3.269-35.324c13.361 0 26.193 10.832 26.193 24.193v12.946c0 13.36-12.832 24.192-26.193 24.192z" fill="#ff965a"/></g></g></g><g><g><g><path d="m324.159 211.013-1.319-10.496 1.319-14.256c5.392 0 10.571 4.371 10.571 9.764v5.224c0 5.393-5.178 9.764-10.571 9.764z" fill="#ef6a30"/></g></g></g><g><g><g><path d="m119.461 223.867 3.269-26.007-3.269-35.324c-13.361 0-26.193 10.832-26.193 24.193v12.946c0 13.36 12.832 24.192 26.193 24.192z" fill="#ff965a"/></g></g></g><g><g><g><path d="m118.411 205.577 1.319-10.496-1.319-14.256c-5.392 0-10.571 4.371-10.571 9.764v5.224c0 5.393 5.178 9.764 10.571 9.764z" fill="#ef6a30"/></g></g></g><path d="m347.27 362.263-125.856-27.85c-37.003 8.213-63.333 41.029-63.333 78.932v77.117c29.784 13.199 62.744 20.538 97.419 20.538 40.682 0 79.188-10.149 112.983-28.146l32.132-54.152c0-31.916-22.182-59.544-53.345-66.439z" fill="#64bc0f"/><path d="m221.415 334.413-125.359 27.823c-19.985 4.436-36.271 17.399-45.375 34.549 25.55 41.29 63.236 74.278 108.08 93.984v-62.103c0-31.9 22.16-59.518 53.302-66.43l67.442-14.969z" fill="#58a804"/><g><path d="m221.925 428.983c33.664 0 60.953-27.29 60.953-60.953v-20.016l-61.464-13.601-60.443 13.416v20.202c.001 33.662 27.291 60.952 60.954 60.952z" fill="#58a804"/></g><path d="m185.581 366.767c0 20.072 16.272 36.344 36.344 36.344 20.073 0 36.344-16.272 36.344-36.344v-81.406z" fill="#ff965a"/><g><g><g><path d="m320.52 157.843c0-33.168-21.278-63.497-54.445-63.497h-88.298c-9.464 0-18.132 2.477-25.694 6.777v175.309c0 38.264 30.776 69.577 69.038 69.867.268.002.537.003.805.003 56.987 0 103.183-46.197 103.183-103.183v-32.575z" fill="#ffbe82"/></g></g></g><g><path d="m185.581 285.361v81.406c40.413 7.849 64.954-5.603 72.689-25.837v-55.569z" fill="#ef6a30"/></g><g><g><g><path d="m320.52 157.843c0-33.168-21.278-63.497-54.445-63.497h-88.298c-9.464 0-18.132 2.477-25.694 6.777v175.309c0 38.264 30.776 69.577 69.038 69.867.268.002.537.003.805.003 56.987 0 103.183-46.197 103.183-103.183v-32.575z" fill="#ffbe82"/></g></g></g><g><g><g><path d="m177.343 204.56v7.276c0 4.746 3.848 8.594 8.594 8.594s8.594-3.848 8.594-8.594v-7.276z" fill="#ff965a"/></g></g></g><g><g><g><path d="m247.366 204.56v7.276c0 4.746 3.848 8.594 8.594 8.594s8.594-3.848 8.594-8.594v-7.276z" fill="#ff965a"/></g></g></g><g><g><g><path d="m185.937 213.547c-4.746 0-8.594-3.848-8.594-8.594v-11.055l3.168-4.797-3.168-4.797v-2.855c0-4.746 3.848-8.594 8.594-8.594s8.594 3.848 8.594 8.594v23.504c0 4.746-3.848 8.594-8.594 8.594z" fill="#373c41"/></g></g></g><g><g><g><path d="m255.96 213.547c-4.746 0-8.594-3.848-8.594-8.594v-11.055l3.168-4.797-3.168-4.797v-2.855c0-4.746 3.848-8.594 8.594-8.594s8.594 3.848 8.594 8.594v23.504c0 4.746-3.848 8.594-8.594 8.594z" fill="#373c41"/></g></g></g><g><path d="m152.427 246.075c.082-1.867 1.248-145.479 1.248-145.479-19.352 9.079-33.681 31.219-33.681 54.974l-2.273 54.974v31.554c0 59.555 49.9 107.227 109.797 104.054-43.381-12.599-75.091-52.632-75.091-100.077z" fill="#ff965a"/></g><g><g><g><g><path d="m197.259 168.558h-25.062c-4.746 0-8.594-3.848-8.594-8.594 0-4.746 3.848-8.594 8.594-8.594h25.062c4.746 0 8.594 3.848 8.594 8.594 0 4.746-3.847 8.594-8.594 8.594z" fill="#783c28"/></g></g></g></g><g><g><g><g><path d="m268.876 168.558h-25.062c-4.746 0-8.594-3.848-8.594-8.594 0-4.746 3.848-8.594 8.594-8.594h25.062c4.746 0 8.594 3.848 8.594 8.594 0 4.746-3.848 8.594-8.594 8.594z" fill="#783c28"/></g></g></g></g><g><path d="m253.569 261.091h-8.849l-23.305 4.838-23.305-4.838h-7.828c-2.626 0-4.724 2.292-4.374 4.895.67 4.979 2.349 9.638 4.823 13.766l47.189 13.984c10.657-5.231 18.378-15.528 20.023-27.75.35-2.603-1.748-4.895-4.374-4.895z" fill="#fff"/></g><g><g><g><path d="m208 225.747c-2.136 8.531 1.746 17.824 9.171 20.625 1.494.564 3.092.869 4.754.869 1.661 0 3.26-.305 4.754-.869 7.425-2.801 11.308-12.094 9.171-20.625l-7.082-28.282c-1.783-7.12-11.902-7.12-13.685 0z" fill="#ff965a"/></g></g></g><g><path d="m158.297 75.545c9.4 30.273 37.629 52.258 70.993 52.258.141 0 .281-.005.422-.005l.006.005h83.429v-52.258z" fill="#ff965a"/></g><g><path d="m180.511 197.067c-1.75 0-3.168-1.418-3.168-3.168v-9.594c0-1.75 1.418-3.168 3.168-3.168 1.75 0 3.168 1.418 3.168 3.168v9.594c0 1.749-1.418 3.168-3.168 3.168z" fill="#fff"/></g><g><path d="m250.534 197.067c-1.75 0-3.168-1.418-3.168-3.168v-9.594c0-1.75 1.418-3.168 3.168-3.168 1.75 0 3.168 1.418 3.168 3.168v9.594c.001 1.749-1.418 3.168-3.168 3.168z" fill="#fff"/></g><g><path d="m190.735 279.749c6.351 10.593 17.941 17.686 31.19 17.686 5.74 0 11.166-1.335 15.992-3.704-2.075-13.015-13.347-22.963-26.946-22.963-8.027 0-15.243 3.465-20.236 8.981z" fill="#fff"/></g><g><path d="m239.593 270.768h-36.357c-2.831 0-5.127-2.295-5.127-5.127v-4.55h46.611v4.55c0 2.831-2.295 5.127-5.127 5.127z" fill="#fff"/></g><g><path d="m172.601 40.904h-16.091c-17.557 0-31.789 14.232-31.789 31.789v85.694c26.443 0 47.88-21.436 47.88-47.88z" fill="#ff965a"/></g><g><g><path d="m117.721 114.747v43.641.003 52.153c7.633 0 13.821-6.188 13.821-13.821v-61.026c0-.081 0-.162.001-.242.067-9.801 6.711-17.997 15.673-20.707h-29.495z" fill="#6d3222"/></g></g><g><path d="m165.6 40.904h-16.09c-17.557 0-31.789 14.232-31.789 31.789v85.694c26.443 0 47.88-21.436 47.88-47.88v-69.603z" fill="#6d3222"/></g><g><ellipse cx="152.082" cy="45.546" fill="#6d3222" rx="9.222" ry="22.221" transform="matrix(.55 -.835 .835 .55 30.384 147.492)"/></g><g><ellipse cx="161.571" cy="38.302" fill="#783c28" rx="9.222" ry="22.221" transform="matrix(.95 -.314 .314 .95 -3.861 52.605)"/></g><g><path d="m294.645 58.98h-129.194s63.278 58.98 63.278 58.98h64.613c9.756 0 17.894 7.791 17.946 17.547 0 .063.001.127.001.19v61.026c0 7.633 6.188 13.821 13.821 13.821v-52.153c0-.001 0-.002 0-.003v-68.944c-.001-16.825-13.641-30.464-30.465-30.464z" fill="#6d3222"/></g><g><path d="m228.3 117.959c-41.049 0-74.325-33.276-74.325-74.325v-18.152l126.166-24.902c18.627-3.677 35.972 10.58 35.972 29.566 0 48.498-39.315 87.813-87.813 87.813z" fill="#783c28"/></g><g><ellipse cx="165.971" cy="245.197" fill="#ff965a" rx="24.31" ry="15.894"/></g><g><ellipse cx="278.786" cy="243.818" fill="#ff965a" rx="24.31" ry="15.894"/></g><path d="m368.493 482.849c28.38-15.114 53.437-35.763 73.673-60.581v-52.438h-73.673z" fill="#ffbe82"/><g><g><g><path d="m344.58 352.272-2.404 1.06 2.404-1.059z" fill="#695a6e"/></g></g><g><g><path d="m416.8 412.306c3.184 2.911 2.952 8.335 0 11.287l-21.783 21.783 17.493 17.493c17.58-1.442 33.901-11.766 42.353-28.475l18.72-41.878c3.833-8.576 3.19-18.49-1.718-26.499l-10.502-17.134c-1.61-2.626-4.545-4.141-7.618-3.931l-13.472.919c-4.611.314-9.133-1.381-12.401-4.649l-16.201-16.201c-3.882-3.882-5.502-9.483-4.293-14.838l1.848-8.182c.765-3.385-.664-6.888-3.579-8.772l-19.615-12.679c-.245-.158-.492-.312-.74-.463-9.337-5.638-21.363-3.95-29.075 3.763l-58.262 58.262c-.604.604-1.273 1.08-1.98 1.44l20.907 20.907 19.899-9.126c2.962-1.359 6.299-1.305 9.152-.006.277-.438.594-.857.953-1.25 2.911-3.184 8.335-2.952 11.287 0l57.14 57.14c.523.307 1.025.666 1.487 1.089z" fill="#594d5e"/></g><g><path d="m343.745 301.365 41.477-18.541c.89-.398 1.796-.745 2.711-1.047l-1.902-1.23c-8.092-5.231-18.28-6.014-27.077-2.082l-41.477 18.541c-24.106 12.194-34.929 40.764-24.953 65.87 2.33 5.864 9.098 8.577 14.833 5.947l10.304-4.725c-7.922-24.308 2.976-51.043 26.084-62.733z" fill="#453d49"/></g><g><circle cx="368.493" cy="308.456" fill="#453d49" r="13.775"/></g><g><path d="m409.315 448.871 13.492-29.422c1.919-4.185 1.032-9.121-2.223-12.377-3.41-3.41-4.586-8.517-2.85-13.016 1.892-4.906.889-10.709-3.111-14.708-3.996-3.996-9.804-5.006-14.715-3.109-4.497 1.737-9.602.556-13.01-2.853l-3.395-3.395c-3.485-3.485-4.409-8.699-2.574-13.272 2.246-5.597 1.039-12.295-3.716-16.751-5.805-5.441-15.014-5.416-20.794.053-1.443 1.365-2.555 2.941-3.34 4.633-1.26 2.717-3.4 4.93-6.122 6.178l-3.101 1.422-9.375 4.132 2.407-1.061c4.2-1.851 9.106-.932 12.352 2.313l2.658 2.658 42.418 42.418c3.255 3.255 4.142 8.192 2.223 12.377l-13.492 29.422c-2.62 5.713.053 12.484 5.891 14.811 8.032 3.202 16.419 4.271 24.513 3.459-4.581-2.883-6.478-8.806-4.136-13.912z" fill="#453d49"/></g><g><circle cx="408.493" cy="385.478" fill="#2b282d" r="13.775"/></g><g><circle cx="372.104" cy="304.846" fill="#927e8f" r="13.775"/></g><g><circle cx="455.417" cy="373.389" fill="#453d49" r="5.481"/></g><g><circle cx="439.76" cy="389.046" fill="#453d49" r="5.481"/></g><g><circle cx="455.417" cy="389.046" fill="#453d49" r="5.481"/></g><g><circle cx="439.76" cy="373.389" fill="#453d49" r="5.481"/></g><g><circle cx="370.455" cy="347.44" fill="#2b282d" r="15.177"/></g><g><circle cx="457.824" cy="370.982" fill="#ffc305" r="5.481"/></g><g><circle cx="442.167" cy="386.639" fill="#be5ab9" r="5.481"/></g><g><circle cx="457.824" cy="386.639" fill="#f5595a" r="5.481"/></g><g><circle cx="442.167" cy="370.982" fill="#5ab4ff" r="5.481"/></g></g></g><g><path d="m379.137 336.401c-5.354 0-10.234-3.61-11.619-9.036-1.638-6.422 2.239-12.956 8.661-14.594l34.127-8.707c6.421-1.637 12.956 2.239 14.595 8.661 1.638 6.422-2.239 12.956-8.661 14.594l-34.127 8.707c-.996.253-1.994.375-2.976.375z" fill="#ffbe82"/></g><g><path d="m391.36 357.119c-5.354 0-10.234-3.61-11.619-9.036-1.638-6.422 2.239-12.956 8.661-14.594l34.127-8.708c6.422-1.637 12.956 2.239 14.595 8.661 1.638 6.422-2.239 12.956-8.661 14.594l-34.127 8.708c-.996.254-1.994.375-2.976.375z" fill="#ffbe82"/></g><g><path d="m422.688 369.689c-5.354 0-10.234-3.61-11.619-9.036-1.638-6.422 2.239-12.956 8.661-14.594l34.127-8.707c6.419-1.637 12.956 2.239 14.595 8.661 1.638 6.422-2.239 12.956-8.661 14.594l-34.127 8.707c-.996.253-1.994.375-2.976.375z" fill="#ffbe82"/></g><g><path d="m440.899 388.312c-5.058 0-9.761-3.222-11.409-8.291-2.051-6.302 1.396-13.074 7.699-15.124l28.506-9.273c6.303-2.052 13.074 1.398 15.123 7.699 2.051 6.302-1.396 13.074-7.699 15.124l-28.506 9.273c-1.233.401-2.485.592-3.714.592z" fill="#ffbe82"/></g><g><path d="m380.106 425.604c-3.875 0-7.747-1.491-10.683-4.469l-40.524-41.103c-5.398-5.476-5.782-14.147-.889-20.078l18.01-21.826c5.272-6.391 14.727-7.296 21.117-2.023 6.39 5.272 7.296 14.727 2.023 21.116l-9.396 11.387 31.022 31.464c5.816 5.899 5.749 15.396-.15 21.213-2.922 2.881-6.728 4.319-10.53 4.319z" fill="#ffbe82"/></g></g></g></svg>