<svg id="Layer_1" enable-background="new 0 0 511 511" height="512" viewBox="0 0 511 511" width="512" xmlns="http://www.w3.org/2000/svg"><g><g><path d="m255.5 24.013c-93.703 0-151.425 52.854-151.583 52.943 0 0-2.4 2.995-2.848 4.987-3.646 16.184-7.052 37.873-7.052 53.701 0 134.478 113.404 243.467 247.882 243.467 51.784 0 109.398-24.819 147.957-54.66.863-.668 3.599-5.153 3.599-5.153.17-1.038 5.539-22.417 5.539-51.791-.001-134.478-109.016-243.494-243.494-243.494z" fill="#afe6ff"/><path d="m341.877 372.237c-134.478 0-243.494-109.016-243.494-243.493 0-17.775 1.917-35.094 5.533-51.787-55.999 44.612-91.91 113.388-91.91 190.55 0 63.732 24.485 121.746 64.562 165.147l357.862-.002c28.815-31.185 49.633-70.009 59.023-113.354-41.592 33.13-94.267 52.939-151.576 52.939z" fill="#73c8f0"/></g><g><g><path d="m317.339 300.72h-125.048c-28.27 0-51.188-22.918-51.188-51.188v-108.505h227.283l.14 108.439c.037 28.296-22.891 51.254-51.187 51.254z" fill="#783c28"/></g><g><g><g><path d="m356.924 232.587-3.269-26.007 3.269-35.324c13.361 0 26.193 10.832 26.193 24.193v12.946c0 13.361-12.832 24.192-26.193 24.192z" fill="#ff965a"/></g></g></g><g><g><g><path d="m357.975 214.298-1.319-10.496 1.319-14.256c5.392 0 10.571 4.371 10.571 9.764v5.224c-.001 5.392-5.179 9.764-10.571 9.764z" fill="#ef6a30"/></g></g></g><g><g><g><path d="m153.277 227.151 3.269-26.007-3.269-35.324c-13.361 0-26.193 10.832-26.193 24.193v12.946c0 13.361 12.832 24.192 26.193 24.192z" fill="#ff965a"/></g></g></g><g><g><g><path d="m152.226 208.861 1.319-10.496-1.319-14.256c-5.392 0-10.571 4.371-10.571 9.764v5.224c0 5.393 5.179 9.764 10.571 9.764z" fill="#ef6a30"/></g></g></g><path d="m381.086 365.547-125.856-27.85c-36.842 8.177-63.058 40.85-63.058 78.589v14.142c0 37.436 34.165 65.566 70.905 58.381l139.55-27.291c11.426-8.671 22.071-18.333 31.805-28.867v-.665c-.001-31.916-22.184-59.543-53.346-66.439z" fill="#39ae96"/><path d="m255.23 337.697-125.358 27.824c-31.142 6.912-53.302 34.53-53.302 66.43v.702c9.977 10.805 20.921 20.704 32.694 29.56l83.313 1.836v-32.098c0-31.9 22.16-59.518 53.302-66.43l67.442-14.969z" fill="#1c9585"/><g><path d="m255.741 432.268c33.664 0 60.953-27.29 60.953-60.953v-20.016l-61.464-13.601-60.443 13.416v20.202c0 33.662 27.29 60.952 60.954 60.952z" fill="#1c9585"/></g><g><g><g><path d="m255.741 406.395c-20.073 0-36.344-16.272-36.344-36.344l22.681-50.938 50.007-30.468v81.406c0 20.072-16.272 36.344-36.344 36.344z" fill="#ff965a"/></g></g></g><g><g><g><path d="m354.335 161.127c0-33.168-21.278-63.497-54.445-63.497h-88.298c-9.464 0-18.132 2.477-25.694 6.777v175.309c0 38.263 30.776 69.577 69.038 69.867.268.002.537.003.805.003 56.987 0 103.183-46.197 103.183-103.183v-32.575z" fill="#ffbe82"/></g></g></g><g><path d="m219.396 288.645v81.406c40.413 7.849 64.954-5.603 72.689-25.837v-55.569z" fill="#ef6a30"/></g><g><g><g><path d="m354.335 161.127c0-33.168-21.278-63.497-54.445-63.497h-88.298c-9.464 0-18.132 2.477-25.694 6.777v175.309c0 38.263 30.776 69.577 69.038 69.867.268.002.537.003.805.003 56.987 0 103.183-46.197 103.183-103.183v-32.575z" fill="#ffbe82"/></g></g></g><g><g><g><path d="m211.159 207.845v7.276c0 4.746 3.848 8.594 8.594 8.594s8.594-3.848 8.594-8.594v-7.276z" fill="#ff965a"/></g></g></g><g><g><g><path d="m281.182 207.845v7.276c0 4.746 3.848 8.594 8.594 8.594s8.594-3.848 8.594-8.594v-7.276z" fill="#ff965a"/></g></g></g><g><g><g><path d="m219.752 216.831c-4.746 0-8.594-3.848-8.594-8.594v-11.055l3.168-4.797-3.168-4.797v-2.855c0-4.746 3.848-8.594 8.594-8.594s8.594 3.848 8.594 8.594v23.504c0 4.747-3.848 8.594-8.594 8.594z" fill="#373c41"/></g></g></g><g><g><g><path d="m289.776 216.831c-4.746 0-8.594-3.848-8.594-8.594v-11.055l3.168-4.797-3.168-4.797v-2.855c0-4.746 3.848-8.594 8.594-8.594s8.594 3.848 8.594 8.594v23.504c0 4.747-3.848 8.594-8.594 8.594z" fill="#373c41"/></g></g></g><g><path d="m186.243 249.359c.082-1.867 1.248-145.479 1.248-145.479-19.352 9.079-33.681 31.219-33.681 54.974l-2.273 54.974v31.554c0 59.555 49.9 107.227 109.797 104.054-43.381-12.598-75.091-52.632-75.091-100.077z" fill="#ff965a"/></g><g><g><g><g><path d="m231.075 171.843h-25.062c-4.746 0-8.594-3.848-8.594-8.594 0-4.746 3.848-8.594 8.594-8.594h25.062c4.746 0 8.594 3.848 8.594 8.594 0 4.746-3.848 8.594-8.594 8.594z" fill="#783c28"/></g></g></g></g><g><g><g><g><path d="m302.691 171.843h-25.062c-4.746 0-8.594-3.848-8.594-8.594 0-4.746 3.848-8.594 8.594-8.594h25.062c4.746 0 8.594 3.848 8.594 8.594 0 4.746-3.848 8.594-8.594 8.594z" fill="#783c28"/></g></g></g></g><g><path d="m287.385 264.375h-8.849l-23.305 4.838-23.305-4.838h-7.828c-2.626 0-4.724 2.292-4.374 4.895.67 4.979 2.349 9.638 4.823 13.766l47.189 13.984c10.657-5.231 18.378-15.528 20.023-27.75.35-2.602-1.748-4.895-4.374-4.895z" fill="#fff"/></g><g><g><g><path d="m241.816 229.031c-2.136 8.531 1.746 17.824 9.171 20.625 1.494.564 3.092.869 4.754.869 1.661 0 3.26-.305 4.754-.869 7.425-2.801 11.308-12.094 9.171-20.625l-7.082-28.282c-1.783-7.12-11.902-7.12-13.685 0z" fill="#ff965a"/></g></g></g><g><path d="m192.113 78.83c9.4 30.273 37.629 52.258 70.993 52.258.141 0 .281-.005.422-.005l.006.005h83.429v-52.258z" fill="#ff965a"/></g><g><path d="m214.327 200.351c-1.75 0-3.168-1.418-3.168-3.168v-9.594c0-1.75 1.418-3.168 3.168-3.168 1.75 0 3.168 1.418 3.168 3.168v9.594c0 1.75-1.419 3.168-3.168 3.168z" fill="#fff"/></g><g><path d="m284.35 200.351c-1.75 0-3.168-1.418-3.168-3.168v-9.594c0-1.75 1.418-3.168 3.168-3.168 1.75 0 3.168 1.418 3.168 3.168v9.594c0 1.75-1.418 3.168-3.168 3.168z" fill="#fff"/></g><g><path d="m224.55 283.033c6.351 10.593 17.941 17.686 31.19 17.686 5.74 0 11.166-1.335 15.992-3.704-2.075-13.015-13.347-22.963-26.946-22.963-8.026 0-15.242 3.466-20.236 8.981z" fill="#fff"/></g><g><path d="m273.409 274.052h-36.357c-2.831 0-5.127-2.295-5.127-5.127v-4.55h46.611v4.55c-.001 2.832-2.296 5.127-5.127 5.127z" fill="#fff"/></g><g><path d="m206.416 44.189h-16.091c-17.557 0-31.789 14.232-31.789 31.789v85.694c26.443 0 47.88-21.436 47.88-47.88z" fill="#ff965a"/></g><g><path d="m354.032 154.391c-2.664-30.426-23.237-56.761-54.142-56.761h-88.298c-9.464 0-18.132 2.477-25.695 6.777v41.723c55.599-12.189 113.645-9.434 168.135 8.261z" fill="#ff965a"/></g><g><g><path d="m151.536 118.031v43.641.003 52.153c7.633 0 13.821-6.188 13.821-13.821v-61.026c0-.081 0-.162.001-.242.067-9.801 6.711-17.997 15.673-20.707h-29.495z" fill="#6d3222"/></g></g><g><path d="m151.536 91.494v70.178c26.443 0 47.88-21.436 47.88-47.88v-22.298z" fill="#6d3222"/></g><g><path d="m328.46 62.264h-129.194s63.278 58.98 63.278 58.98h64.613c9.756 0 17.894 7.791 17.946 17.547 0 .063.001.127.001.19v61.026c0 7.633 6.188 13.821 13.821 13.821v-52.153c0-.001 0-.002 0-.003v-68.944c-.001-16.825-13.64-30.464-30.465-30.464z" fill="#6d3222"/></g><g><ellipse cx="199.786" cy="248.481" fill="#ff965a" rx="24.31" ry="15.894"/></g><g><ellipse cx="312.602" cy="247.103" fill="#ff965a" rx="24.31" ry="15.894"/></g><g><path d="m270.124 0h-32.056c-47.79 0-86.532 38.742-86.532 86.532h205.119c.001-47.79-38.741-86.532-86.531-86.532z" fill="#ffa50a"/></g><g><path d="m338.34 82.7h-32.056c-45.858 0-83.362-35.679-86.321-80.789-39.096 8.325-68.427 43.041-68.427 84.62h205.119c0-1.932-.086-3.843-.211-5.743-5.839 1.244-11.893 1.912-18.104 1.912z" fill="#fa870a"/></g><path d="m362.548 77.726c-57.25-20.378-118.839-24.008-177.643-10.921v71.022l69.19-11.816 114.29 11.816v-51.846c.001-3.71-2.342-7.011-5.837-8.255z" fill="#ffc305"/><g><path d="m231.041 118.598c-15.11 1.242-27.254-12.243-24.476-27.147 2.723-14.61-10.432-27.286-24.906-23.912-11.711 2.73-23.306 6.126-34.727 10.192-3.491 1.243-5.828 4.545-5.828 8.251v55.046c0 5.974 5.855 10.179 11.519 8.281 66.266-22.2 137.978-22.2 204.244 0 5.664 1.898 11.519-2.308 11.519-8.282v-3.724c-43.76-16.099-90.631-22.544-137.345-18.705z" fill="#ffa50a"/></g><g><path d="m254.745 121.531c-4.143 0-7.5-3.358-7.5-7.5v-38.022c0-4.142 3.357-7.5 7.5-7.5s7.5 3.358 7.5 7.5v38.022c0 4.142-3.357 7.5-7.5 7.5z" fill="#ffa50a"/></g><g><path d="m223.443 124.141c-4.143 0-7.5-3.358-7.5-7.5v-38.021c0-4.142 3.357-7.5 7.5-7.5s7.5 3.358 7.5 7.5v38.021c0 4.142-3.357 7.5-7.5 7.5z" fill="#ffa50a"/></g><g><path d="m192.143 128.104c-4.143 0-7.5-3.358-7.5-7.5v-38.021c0-4.142 3.357-7.5 7.5-7.5s7.5 3.358 7.5 7.5v38.021c0 4.143-3.358 7.5-7.5 7.5z" fill="#fa870a"/></g><g><path d="m160.841 137.016c-4.143 0-7.5-3.358-7.5-7.5v-38.021c0-4.142 3.357-7.5 7.5-7.5s7.5 3.358 7.5 7.5v38.021c0 4.142-3.358 7.5-7.5 7.5z" fill="#fa870a"/></g><g><path d="m286.046 124.259c-4.143 0-7.5-3.358-7.5-7.5v-38.022c0-4.142 3.357-7.5 7.5-7.5s7.5 3.358 7.5 7.5v38.022c0 4.142-3.358 7.5-7.5 7.5z" fill="#ffa50a"/></g><g><path d="m317.348 128.222c-4.143 0-7.5-3.358-7.5-7.5v-38.022c0-4.142 3.357-7.5 7.5-7.5s7.5 3.358 7.5 7.5v38.021c0 4.143-3.358 7.501-7.5 7.501z" fill="#ffa50a"/></g><g><path d="m348.649 137.134c-4.143 0-7.5-3.358-7.5-7.5v-38.022c0-4.142 3.357-7.5 7.5-7.5s7.5 3.358 7.5 7.5v38.022c0 4.142-3.357 7.5-7.5 7.5z" fill="#ffa50a"/></g><g><g><g><path d="m231.615 484.694h-74.312v-36.845h54.356c11.021 0 19.956 8.934 19.956 19.956z" fill="#ff3c3c"/></g><g><path d="m350.514 484.694h-74.312v-16.889c0-11.021 8.934-19.956 19.956-19.956h54.356z" fill="#ff3c3c"/></g></g><path d="m205.383 467.743v38.082c16.175 3.385 32.936 5.175 50.117 5.175 8.521 0 16.946-.443 25.254-1.306l21.688-17.572v-24.379z" fill="#50555a"/><g fill="#373c41"><path d="m134.624 467.743 3.739 13.282c20.797 11.434 43.446 19.918 67.381 24.888v-38.169h-71.12z"/><path d="m302.073 467.743v28.107l22.326 5.24c17.102-5.043 33.447-11.916 48.795-20.404v-12.942h-71.121z"/></g><g><ellipse cx="337.633" cy="447.849" fill="#ffbe82" rx="29.725" ry="21.164"/></g><g fill="#ffbe82"><path d="m302.605 485.175c-7.358-5.375-17.683-3.765-23.056 3.594-4.732 6.48-4.049 15.257 1.205 20.931 14.973-1.549 29.565-4.459 43.644-8.61z"/><path d="m390.055 444.809c-13.819-10.98-44.055-10.391-56.411-9.628-9.091.562-16.003 8.383-15.447 17.474.556 9.092 8.707 16.358 19.437 16.358 13.798 0 27.922-.435 32.124 1.818 1.431 1.155 3.16 2.884 3.298 9.932 10.332-5.705 20.213-12.142 29.571-19.244-2.399-5.996-6.321-11.744-12.572-16.71z"/></g><g><ellipse cx="187.463" cy="448.411" fill="#ffbe82" rx="29.725" ry="21.164"/></g><path d="m179.794 436.056c-.418-.086-10.356-2.128-21.814-2.344-18.653-.35-32.037 4.275-39.818 13.74-.491.597-.966 1.195-1.438 1.809-3.11 4.047-5.603 8.399-7.46 12.952 9.214 6.931 18.936 13.224 29.1 18.811.003-.042.007-.084.011-.125.572-6.568 6.239-11.528 12.832-11.574l30.487-.212c6.055.749 9.043-4.623 10.897-13.544 1.853-8.922-3.875-17.658-12.797-19.513z" fill="#ffbe82"/></g></g></g></svg>