<svg id="Layer_1" enable-background="new 0 0 511 511" height="512" viewBox="0 0 511 511" width="512" xmlns="http://www.w3.org/2000/svg"><g><g><path d="m504.572 261.928c0-137.559-111.513-249.072-249.072-249.072-95.849 0-154.894 54.065-155.056 54.156 0 0-2.455 3.064-2.914 5.101-3.729 16.554-7.214 38.741-7.214 54.931 0 137.559 116.002 249.045 253.561 249.045 52.971 0 111.904-25.388 151.347-55.912.882-.683 3.682-5.271 3.682-5.271.174-1.062 5.666-22.931 5.666-52.978z" fill="#afe6ff"/><path d="m343.856 369.057c-137.559 0-249.072-111.513-249.072-249.072 0-18.182 1.961-35.898 5.66-52.973-57.282 45.634-94.016 115.987-94.016 194.916 0 62.578 23.078 119.767 61.188 163.518l375.762.01c26.963-30.936 46.458-68.681 55.529-110.55-42.547 33.889-96.43 54.151-155.051 54.151z" fill="#73c8f0"/></g><g><path d="m119.786 174.797h108.087v219.794h-108.087z" fill="#373c41"/><path d="m237.842 134.473c1.599-.43 3.248-.661 4.908-.661h139.313l-.013-28.163c0-41.752-33.846-75.598-75.598-75.598h-111.068c-41.752 0-75.598 33.846-75.598 75.598v28.824z" fill="#373c41"/><path d="m268.196 174.136v220.454h113.984l-.098-220.454z" fill="#50555a"/><g><g><path d="m305.689 145.532h-109.53c-24.561 0-44.471-4.832-44.471-29.393v-71.668c0-24.561 19.911-44.471 44.471-44.471h109.529c24.561 0 44.471 19.91 44.471 44.471v71.668c.001 24.561-19.91 29.393-44.47 29.393z" fill="#373c41"/></g></g><path d="m198.048 116.139v-71.668c0-24.561 19.91-44.471 44.471-44.471h-46.36c-24.561 0-44.471 19.91-44.471 44.471v71.668c0 24.561 19.91 29.393 44.471 29.393h46.36c-24.561 0-44.471-4.832-44.471-29.393z" fill="#373c41"/><g><path d="m195.384 30.051c-41.752 0-75.598 33.846-75.598 75.598v141.931h107.079v-217.529z" fill="#373c41"/></g><path d="m364.978 375.269s-22.58 0-52.58 0l-105.923 10.376c-24.938 13.977-41.791 40.662-41.791 71.284v36.972c28.14 11.027 58.766 17.099 90.816 17.099 74.535 0 142.003-32.928 187.869-85.552-13.68-29.616-43.625-50.179-78.391-50.179z" fill="#fa870a"/><path d="m199.914 375.269h-21.755c-34.26.016-34.28-.11-38.57.264-31.994 2.36-59.138 22.148-71.967 49.909 26.216 30.097 59.544 53.832 97.368 68.593v-32.441c0-28.417 13.735-53.615 34.926-69.337v-16.988z" fill="#fa690f"/><path d="m179.996 300.614c0 38.59 31.005 70.252 69.594 70.542.27.002.54.003.81.003 59.008 0 106.845-47.836 106.845-106.844v-18.728z" fill="#373c41"/><path d="m198.601 375.269s0 125.386 55.876 125.386c57.921 0 57.921-125.386 57.921-125.386z" fill="#a55a3c"/><g><g><path d="m292.765 381.081c0 20.581-16.684 37.265-37.265 37.265-20.581 0-37.265-16.684-37.265-37.265v-20.039l74.531-63.43v83.469z" fill="#a55a3c"/></g></g><g><g><path d="m382.238 202.433c0 13.792-11.18 24.972-24.972 24.972h-1.522l-1.496-63.307h3.018c13.792 0 24.972 11.18 24.972 24.972z" fill="#934d34"/></g></g><g><g><path d="m367.476 198.432c0 5.533-4.485 10.018-10.018 10.018h-.611l-.6-25.398h1.211c5.533 0 10.018 4.485 10.018 10.018z" fill="#783c28"/></g></g><path d="m218.235 361.042c3.834.685 7.771 1.076 11.797 1.106.27.002.54.003.81.003 23.082 0 44.454-10.32 61.922-22.764v-41.775h-74.531v63.43z" fill="#783c28"/><g><g><path d="m356.221 137.107c-.246-24.792-20.413-44.76-45.206-44.76h-53.711c-29.928 0-57.128 11.67-77.308 30.702v153.563c0 38.59 31.005 70.253 69.594 70.542.27.002.54.003.81.003 59.009 0 106.845-47.836 106.845-106.845z" fill="#a55a3c"/></g></g><g><g><path d="m119.508 202.389c0 13.7 11.106 24.806 24.806 24.806h.911l.44-62.885h-1.351c-13.7 0-24.806 11.106-24.806 24.806z" fill="#934d34"/></g></g><g><g><path d="m134.605 198.304c0 5.269 4.271 9.54 9.54 9.54h.35l.169-24.185h-.52c-5.269 0-9.54 4.271-9.54 9.54v5.105z" fill="#783c28"/></g></g><g><g><path d="m205.736 200.483v9.088c0 4.866 3.946 8.812 8.812 8.812s8.812-3.945 8.812-8.812v-9.088z" fill="#934d34"/></g></g><g><g><path d="m277.698 200.483v9.088c0 4.866 3.946 8.812 8.812 8.812s8.812-3.945 8.812-8.812v-9.088z" fill="#934d34"/></g></g><g><g><path d="m214.547 211.04c-4.866 0-8.812-3.945-8.812-8.812v-6.499l3.537-5.314-3.537-5.314v-6.974c0-4.866 3.945-8.812 8.812-8.812 4.866 0 8.812 3.945 8.812 8.812v24.1c0 4.867-3.945 8.813-8.812 8.813z" fill="#373c41"/></g></g><g><g><path d="m286.51 211.04c-4.866 0-8.812-3.945-8.812-8.812v-8.244l3.537-5.314-3.537-5.313v-5.229c0-4.866 3.945-8.812 8.812-8.812 4.866 0 8.812 3.945 8.812 8.812v24.1c-.001 4.866-3.946 8.812-8.812 8.812z" fill="#373c41"/></g></g><g><g><g><path d="m226.157 164.911h-25.697c-4.867 0-8.812-3.945-8.812-8.812 0-4.867 3.945-8.812 8.812-8.812h25.697c4.867 0 8.812 3.945 8.812 8.812-.001 4.867-3.946 8.812-8.812 8.812z" fill="#373c41"/></g></g></g><path d="m281.235 94.158v-7.378l-76.916.539c-19.321-.309-36.109 6.635-46.919 18.615v75.169c.456-.056.914-.084 1.373-.1v-4.061c0-18.287 14.115-33.474 32.353-34.809l53.021-3.883c20.907-1.531 37.087-18.94 37.087-39.903v-4.189c0 29.296 23.749 53.046 53.046 53.046h10.113v-53.046z" fill="#934d34"/><g><g><g><path d="m299.587 164.911h-25.697c-4.867 0-8.812-3.945-8.812-8.812 0-4.867 3.945-8.812 8.812-8.812h25.697c4.867 0 8.812 3.945 8.812 8.812 0 4.867-3.945 8.812-8.812 8.812z" fill="#373c41"/></g></g></g><g><g><path d="m237.17 226.139c-2.191 7.719 1.791 16.127 9.403 18.662 1.532.51 3.171.786 4.874.786s3.342-.276 4.874-.786c7.613-2.534 11.594-10.943 9.404-18.662l-10.684-37.648c-1.028-3.621-6.16-3.621-7.187 0z" fill="#934d34"/></g></g><g><path d="m144.603 207.96v33.401c0 65.03 58.362 115.336 123.751 104.266-49.92-8.492-87.936-51.926-87.936-104.266.021-37.002.006-90.773-.003-116.969-22.061 21.02-35.812 50.683-35.812 83.568z" fill="#934d34"/></g><path d="m342.213 128.558c.562 2.812.861 5.706.861 8.653v56.578c0 7.826 6.344 14.171 14.171 14.171v-79.402z" fill="#50555a"/><path d="m289.731 265.659c.366-2.722-1.828-5.119-4.574-5.119h-9.255l-24.373 5.06-24.373-5.06h-8.187c-2.746 0-4.941 2.397-4.574 5.119.701 5.207 2.456 10.08 5.044 14.397l49.351 14.625c11.146-5.472 19.22-16.24 20.941-29.022z" fill="#961e0f"/><path d="m219.443 280.053c6.642 11.079 18.763 18.497 32.62 18.497 6.003 0 11.677-1.396 16.725-3.874-2.17-13.611-13.959-24.015-28.181-24.015-8.395-.001-15.942 3.623-21.164 9.392z" fill="#be1423"/><g fill="#fff"><path d="m275.902 265.298c0 2.961-2.401 5.362-5.362 5.362h-38.023c-2.961 0-5.362-2.401-5.362-5.362v-4.759h48.746v4.759z"/><path d="m209.273 199.266c-1.953 0-3.537-1.584-3.537-3.537v-10.627c0-1.953 1.584-3.537 3.537-3.537 1.953 0 3.537 1.584 3.537 3.537v10.627c0 1.953-1.584 3.537-3.537 3.537z"/><path d="m281.235 197.521c-1.953 0-3.537-1.584-3.537-3.537v-10.627c0-1.953 1.584-3.537 3.537-3.537 1.953 0 3.537 1.584 3.537 3.537v10.627c0 1.954-1.584 3.537-3.537 3.537z"/></g><path d="m281.235 92.347v-11.567l-76.916.539c-33.659-.539-59.668 20.905-59.682 52.712l-.034 73.929c7.826 0 14.171-6.344 14.171-14.171v-22.846c0-18.287 14.115-33.474 32.353-34.809l53.021-3.883c20.907-1.532 37.087-18.941 37.087-39.904z" fill="#50555a"/><path d="m359.227 141.204h-24.946c-29.296 0-53.046-23.749-53.046-53.046v-7.378h34.613c23.958 0 43.379 19.422 43.379 43.379z" fill="#50555a"/><ellipse cx="184.607" cy="235.776" fill="#c8462d" rx="21.129" ry="16.567"/><ellipse cx="320.231" cy="235.776" fill="#c8462d" rx="21.129" ry="16.567"/><g><g><g><path d="m350.38 85.961c4.327 11.777 6.707 24.487 6.707 37.747v24.598h27.729v-24.598c0-13.085-1.838-25.749-5.268-37.747l-35.154-13.195z" fill="#373c41"/></g><g><path d="m145.391 169.387h-43.477v-9.777c0-17 13.781-30.782 30.782-30.782h12.695z" fill="#b4d7dc"/></g><g><path d="m399.88 169.387h-43.477v-40.559h12.306c17.215 0 31.171 13.956 31.171 31.171z" fill="#b4d7dc"/></g><g><g><g><path d="m357.43 220.143v-62.987c13.722 0 24.846 11.124 24.846 24.846v13.295c0 13.722-11.124 24.846-24.846 24.846z" fill="#ff965a"/></g></g></g><g><g><g><path d="m357.43 199.013v-20.728c4.516 0 8.176 3.661 8.176 8.176v4.375c0 4.517-3.66 8.177-8.176 8.177z" fill="#ef6a30"/></g></g></g><g><g><g><path d="m136.654 190.734c0 4.303 3.488 7.791 7.791 7.791v-19.75c-4.303 0-7.791 3.488-7.791 7.791z" fill="#ef6a30"/></g></g></g><g><g><path d="m92.119 204.797v-33.872h-13.152c-5.442 0-9.853 4.412-9.853 9.853v24.018h23.005z" fill="#dc1428"/></g><g><path d="m92.119 229.642h-13.152c-5.442 0-9.853-4.412-9.853-9.853v-15.33h23.006v25.183z" fill="#be1423"/></g><g><path d="m78.372 162.5h15.197v75.567h-15.197z" fill="#50555a" transform="matrix(-1 0 0 -1 171.94 400.567)"/></g><g><path d="m90.303 162.5h29.608v43.845h-29.608z" fill="#dc1428"/></g><g><path d="m90.303 205.657h29.608v32.41h-29.608z" fill="#be1423"/></g><g><path d="m127.68 217.008v-63.92h-15.622c-5.602 0-10.144 4.542-10.144 10.144v53.776z" fill="#ff3c3c"/></g><g><path d="m127.68 247.479h-15.622c-5.602 0-10.144-4.542-10.144-10.144v-21.028h25.766z" fill="#dc1428"/></g><g><path d="m145.391 218.303v-65.125c0-7.824-6.012-14.555-13.827-14.923-8.344-.393-15.232 6.256-15.232 14.513v65.535c0 7.652 6.203 13.855 13.855 13.855h1.349c7.652 0 13.855-6.203 13.855-13.855z" fill="#e4f2f6"/></g><g><path d="m130.861 231.295c-8.025 0-14.53-6.505-14.53-14.529v31.293c0 8.024 6.505 14.529 14.53 14.529s14.53-6.505 14.53-14.529v-31.293c0 8.024-6.505 14.529-14.53 14.529z" fill="#c8e6eb"/></g></g><g><g><path d="m432.68 204.791v-24.012c0-5.442-4.411-9.853-9.853-9.853h-13.153v33.866h23.006z" fill="#dc1428"/></g><g><path d="m409.675 229.642h13.152c5.442 0 9.853-4.412 9.853-9.853v-15.33h-23.006v25.183z" fill="#be1423"/></g><g><path d="m408.226 162.5h15.197v75.567h-15.197z" fill="#50555a"/></g><g><path d="m381.883 162.5h29.608v43.676h-29.608z" fill="#dc1428" transform="matrix(-1 0 0 -1 793.374 368.676)"/></g><g><path d="m381.883 205.657h29.608v32.41h-29.608z" fill="#be1423" transform="matrix(-1 0 0 -1 793.375 443.724)"/></g><g><path d="m399.88 216.832v-53.6c0-5.602-4.542-10.144-10.144-10.144h-15.622v63.744z" fill="#ff3c3c"/></g><g><path d="m374.114 247.479h15.622c5.602 0 10.144-4.542 10.144-10.144v-21.028h-25.766z" fill="#dc1428"/></g><g><path d="m370.933 232.095c8.024 0 14.53-6.505 14.53-14.53v-64.798c0-8.024-6.505-14.53-14.53-14.53-8.024 0-14.53 6.505-14.53 14.53v64.798c0 8.025 6.505 14.53 14.53 14.53z" fill="#e4f2f6"/></g><g><path d="m370.933 231.295c8.025 0 14.53-6.505 14.53-14.529v31.293c0 8.024-6.505 14.529-14.53 14.529s-14.53-6.505-14.53-14.529v-31.293c0 8.024 6.505 14.529 14.53 14.529z" fill="#c8e6eb"/></g></g></g></g></g></g></svg>