<svg id="Layer_1" enable-background="new 0 0 511 511" height="512" viewBox="0 0 511 511" width="512" xmlns="http://www.w3.org/2000/svg"><g><g><path d="m255.5 22.302c-94.032 0-151.957 53.04-152.116 53.13 0 0-2.408 3.006-2.858 5.004-3.659 16.241-7.077 38.006-7.077 53.889 0 134.95 113.803 244.322 248.753 244.322 51.966 0 109.782-24.906 148.477-54.852.866-.67 3.612-5.171 3.612-5.171.17-1.041 5.558-22.496 5.558-51.973 0-134.95-109.399-244.349-244.349-244.349z" fill="#afe6ff"/><path d="m342.18 371.749c-134.95 0-244.349-109.399-244.349-244.349 0-17.837 1.924-35.218 5.553-51.969-56.195 44.769-92.233 113.787-92.233 191.22 0 56.529 19.196 108.574 51.425 149.974l385.852.003c21.997-28.248 37.962-61.531 45.864-98.003-41.741 33.245-94.602 53.124-152.112 53.124z" fill="#73c8f0"/></g><g><g><path d="m305.067 22.302c29.744 0 53.857 24.113 53.857 53.857v40.237h-53.857z" fill="#c1400e"/></g><g><g><g><path d="m358.924 234.177h-1l-6.835-33.606 6.835-27.725h1c13.361 0 24.193 10.832 24.193 24.193v12.946c0 13.361-10.831 24.192-24.193 24.192z" fill="#fa968c"/></g></g></g><path d="m392.467 362.211-137.261-30.374-75.26 16.704v150.535c23.794 7.729 49.182 11.924 75.554 11.924 77.939 0 148.01-36.692 192.927-94.373-6.705-26.776-28.024-48.235-55.96-54.416z" fill="#ffc305"/><path d="m257.842 457.223c75.575 0 136.841-10.289 136.841-71.417 0-8.175-1.106-16.14-3.185-23.811l-136.292-30.159-136.719 30.345c-23.308 5.173-42 20.982-51.437 41.636-.102.222-.195.449-.295.672-1.731 3.89-3.133 7.947-4.179 12.134 29.689 38.136 70.437 67.239 117.427 82.489 16.184-25.241 44.537-41.933 76.776-41.891.353.002.708.002 1.063.002z" fill="#ffa50a"/><g><g><path d="m383.117 371.771c0 56.048-56.175 65.482-125.47 65.482s-125.47-9.434-125.47-65.482 56.175-101.485 125.47-101.485 125.47 45.437 125.47 101.485z" fill="#ffc305"/></g></g><g><g><path d="m343.908 358.045c0 38.533-38.62 69.771-86.261 69.771s-86.261-31.237-86.261-69.771 38.62-29.206 86.261-29.206 86.261-9.328 86.261 29.206z" fill="#ffa50a"/></g></g><g><g><g><path d="m255.741 407.985c20.073 0 36.344-16.272 36.344-36.344v-81.406l-72.689 70.546v10.86c0 20.072 16.272 36.344 36.345 36.344z" fill="#fab9af"/></g></g></g><g><path d="m243.791 365.08c.002 0 .003-.001.005-.002-8.446-.451-16.614-1.934-24.399-4.297v-70.546h66.658l6.031 54.423c-8.951 14.407-33.969 21.189-48.295 20.422z" fill="#fa735f"/></g><g><g><g><path d="m354.335 162.717c0-33.168-21.278-63.497-54.445-63.497h-88.298c-9.464 0-18.132 2.477-25.694 6.777v175.309c0 38.264 30.776 69.577 69.038 69.867.268.002.537.003.805.003 56.987 0 103.183-46.197 103.183-103.183v-32.575z" fill="#fab9af"/></g></g></g><g><g><g><path d="m358.924 215.14v-23.256c5.066 0 9.174 4.107 9.174 9.174v4.909c0 5.065-4.107 9.173-9.174 9.173z" fill="#fa735f"/></g></g></g><g><g><g><path d="m127.343 209.984c0 13.361 10.832 24.193 24.193 24.193h1.553l12.385-26.092-12.178-35.239h-1.761c-13.361 0-24.193 10.832-24.193 24.193v12.945z" fill="#fa968c"/></g></g></g><g><g><g><path d="m141.695 206.145c0 5.435 4.406 9.841 9.841 9.841v-24.949c-5.435 0-9.841 4.406-9.841 9.841z" fill="#fa735f"/></g></g></g><g><g><g><path d="m135.089 217.244c0 9.083 7.364 16.447 16.447 16.447v-32.694c-9.083 0-16.447 7.364-16.447 16.447z" fill="#fff"/></g></g></g><g><g><g><path d="m211.159 209.435v7.276c0 4.746 3.848 8.594 8.594 8.594s8.594-3.848 8.594-8.594v-7.276z" fill="#fa968c"/></g></g></g><g><g><g><path d="m281.182 209.435v7.276c0 4.746 3.848 8.594 8.594 8.594s8.594-3.848 8.594-8.594v-7.276z" fill="#fa968c"/></g></g></g><g><g><g><path d="m219.753 218.421c-4.746 0-8.594-3.848-8.594-8.594v-11.055l3.168-4.797-3.168-4.797v-2.855c0-4.746 3.848-8.594 8.594-8.594s8.594 3.848 8.594 8.594v23.504c-.001 4.746-3.849 8.594-8.594 8.594z" fill="#373c41"/></g></g></g><g><g><g><path d="m289.776 218.421c-4.746 0-8.594-3.848-8.594-8.594v-11.055l3.168-4.797-3.168-4.797v-2.855c0-4.746 3.848-8.594 8.594-8.594s8.594 3.848 8.594 8.594v23.504c0 4.746-3.848 8.594-8.594 8.594z" fill="#373c41"/></g></g></g><g><g><g><g><path d="m231.075 173.432h-25.062c-4.746 0-8.594-3.848-8.594-8.594 0-4.746 3.848-8.594 8.594-8.594h25.062c4.746 0 8.594 3.848 8.594 8.594 0 4.747-3.848 8.594-8.594 8.594z" fill="#c1400e"/></g></g></g></g><g><g><g><g><path d="m302.691 173.432h-25.062c-4.746 0-8.594-3.848-8.594-8.594 0-4.746 3.848-8.594 8.594-8.594h25.062c4.746 0 8.594 3.848 8.594 8.594 0 4.747-3.848 8.594-8.594 8.594z" fill="#c1400e"/></g></g></g></g><g><path d="m287.385 265.965h-8.849l-23.305 4.838-23.305-4.838h-7.828c-2.626 0-4.724 2.292-4.374 4.895.67 4.979 2.349 9.638 4.823 13.766l47.189 13.984c10.657-5.231 18.378-15.528 20.023-27.75.35-2.603-1.748-4.895-4.374-4.895z" fill="#be1423"/></g><g><path d="m342.16 126.821c.986.001 1.96-.047 2.928-.119-9.264-16.253-25.026-27.482-45.198-27.482h-88.298c-9.464 0-18.132 2.477-25.694 6.777v2.196c-19.413 9.058-32.087 28.451-32.087 52.25l-2.274 54.974v31.554c0 59.556 49.9 107.227 109.797 104.054-43.381-12.598-75.091-52.632-75.091-100.077.258-5.863 0-79.675 0-101.255 0-.154.001-27.309.002-27.462.165-21.948 18.249 4.454 40.197 4.476z" fill="#fa968c"/></g><g><path d="m314.671 84.746c-11.474 0-21.597 4.926-27.632 12.432-7.7-9.592-20.628-15.888-35.283-15.888-6.978 0-13.558 1.436-19.376 3.966-7.735-9.372-20.505-15.502-34.961-15.502-23.605 0-42.741 16.326-42.741 36.466s19.136 36.466 42.741 36.466c6.978 0 13.558-1.436 19.376-3.966 7.735 9.372 20.505 15.502 34.961 15.502 17.176 0 31.976-8.648 38.769-21.116 6.094 5.412 14.656 8.785 24.146 8.785 18.496 0 33.489-12.793 33.489-28.573.001-15.779-14.993-28.572-33.489-28.572z" fill="#fa968c"/></g><g><g><g><path d="m241.816 230.621c-2.136 8.531 1.746 17.824 9.171 20.625 1.494.564 3.092.869 4.754.869 1.661 0 3.26-.305 4.754-.869 7.425-2.801 11.308-12.094 9.171-20.625l-7.082-28.282c-1.783-7.12-11.902-7.12-13.685 0z" fill="#fa968c"/></g></g></g><g><g><path d="m358.924 105.47v57.792.003 52.153c-7.633 0-13.821-6.188-13.821-13.821v-61.026c0-13.479-7.586-25.903-19.707-31.799-.297-.145-.594-.286-.89-.423v-2.878h34.418z" fill="#c1400e"/></g></g><g><path d="m214.327 201.941c-1.75 0-3.168-1.418-3.168-3.168v-9.594c0-1.75 1.418-3.168 3.168-3.168 1.75 0 3.168 1.418 3.168 3.168v9.594c0 1.749-1.419 3.168-3.168 3.168z" fill="#fff"/></g><g><path d="m284.35 201.941c-1.75 0-3.168-1.418-3.168-3.168v-9.594c0-1.75 1.418-3.168 3.168-3.168 1.75 0 3.168 1.418 3.168 3.168v9.594c0 1.749-1.418 3.168-3.168 3.168z" fill="#fff"/></g><g><path d="m224.55 284.623c6.351 10.593 17.941 17.686 31.19 17.686 5.74 0 11.166-1.335 15.992-3.704-2.075-13.015-13.347-22.963-26.946-22.963-8.026 0-15.242 3.466-20.236 8.981z" fill="#ff3c3c"/></g><g><path d="m273.409 275.642h-36.357c-2.831 0-5.127-2.295-5.127-5.127v-4.55h46.611v4.55c-.001 2.832-2.296 5.127-5.127 5.127z" fill="#fff"/></g><g><g><path d="m219.54 85.77c0-32.485 26.318-58.827 58.803-58.857h-68.004c-32.485.03-58.803 26.373-58.803 58.857v77.493.003 52.153c7.633 0 13.821-6.188 13.821-13.821v-61.026c0-.081 0-.162.001-.242.082-12.047 10.103-21.672 22.151-21.66l32.032.031v-32.931z" fill="#c1400e"/></g></g><g><g><path d="m202.15 457.206v29.952c0 3.313 2.687 6 6 6s6-2.687 6-6v-29.952z" fill="#ffa50a"/></g></g><g><g><path d="m202.15 426.215v45.689c0 3.285 2.531 6.15 5.815 6.249 3.398.102 6.185-2.622 6.185-5.997v-45.941c0-3.314-2.686-6-6-6-3.314 0-6 2.686-6 6z" fill="#ff3c3c"/></g></g><g><g><path d="m300.156 457.206v29.952c0 3.313 2.687 6 6 6s6-2.687 6-6v-29.952z" fill="#ffa50a"/></g></g><g><g><path d="m300.156 426.215v45.689c0 3.285 2.531 6.15 5.815 6.249 3.398.102 6.185-2.622 6.185-5.997v-45.941c0-3.314-2.686-6-6-6-3.314 0-6 2.686-6 6z" fill="#ff3c3c"/></g></g><g><path d="m146.979 256.615c-2.485 0-4.5-2.015-4.5-4.5v-33.694c0-2.485 2.015-4.5 4.5-4.5s4.5 2.015 4.5 4.5v33.694c0 2.486-2.015 4.5-4.5 4.5z" fill="#fff"/></g><g><g><g><path d="m375.371 219.746c0 9.083-7.364 16.447-16.447 16.447v-32.694c9.083 0 16.447 7.364 16.447 16.447z" fill="#fff"/></g></g></g><g><path d="m363.481 259.116c-2.485 0-4.5-2.015-4.5-4.5v-33.694c0-2.485 2.015-4.5 4.5-4.5s4.5 2.015 4.5 4.5v33.694c0 2.486-2.014 4.5-4.5 4.5z" fill="#fff"/></g><g><ellipse cx="248.312" cy="52.087" fill="#cd5014" rx="49.541" ry="85.716" transform="matrix(.159 -.987 .987 .159 157.434 288.97)"/></g><g><ellipse cx="314.671" cy="106.319" fill="#cd5014" rx="33.489" ry="28.573"/></g><g><ellipse cx="251.756" cy="110.756" fill="#cd5014" rx="42.741" ry="36.466"/></g><g><ellipse cx="197.419" cy="99.22" fill="#cd5014" rx="42.741" ry="36.466"/></g><g><ellipse cx="165.474" cy="64.602" fill="#cd5014" rx="42.741" ry="36.466"/></g><g><ellipse cx="183.632" cy="36.466" fill="#cd5014" rx="42.741" ry="36.466"/></g></g></g></svg>