<svg id="Layer_1" enable-background="new 0 0 511 511" height="512" viewBox="0 0 511 511" width="512" xmlns="http://www.w3.org/2000/svg"><g><g><path d="m255.5 14.838c-95.468 0-154.278 53.85-154.439 53.941 0 0-2.445 3.052-2.902 5.081-3.715 16.489-7.185 38.587-7.185 54.712 0 137.011 115.541 248.054 252.552 248.054 52.76 0 111.459-25.287 150.745-55.69.879-.68 3.667-5.25 3.667-5.25.173-1.057 5.643-22.84 5.643-52.767 0-137.012-111.07-248.081-248.081-248.081z" fill="#afe6ff"/><path d="m343.504 369.622c-137.011 0-248.081-111.07-248.081-248.081 0-18.11 1.953-35.755 5.637-52.762-57.053 45.452-93.641 115.525-93.641 194.14 0 56.12 18.635 107.888 50.054 149.454l390.307 7.32c24.19-29.622 41.712-65.019 50.158-104.007-42.377 33.754-96.045 53.936-154.434 53.936z" fill="#73c8f0"/></g><g><path d="m389.596 333.908-137.261-30.374-136.72 30.346c-33.964 7.538-58.133 37.659-58.133 72.45v6.036c45.288 59.911 117.127 98.634 198.018 98.634 77.08 0 146.575-35.352 192.275-91.312v-13.319c0-34.809-24.193-64.94-58.179-72.461z" fill="#39ae96"/><g><path d="m445.043 386.443h-38.818v-46.703c-4.857-2.38-10.03-4.253-15.463-5.547v52.25h-102.814v-73.645h-15.463v73.645h-102.815v-64.561l-15.463 3.432v61.129h-94.004c-1.385 4.981-2.259 10.156-2.573 15.463h96.577v87.513c5.069 2.271 10.221 4.389 15.463 6.323v-93.835h102.815v108.495c5.198-.353 10.353-.868 15.463-1.538v-106.958h102.815v68.949c5.297-3.45 10.453-7.098 15.463-10.934v-58.015h41.4c-.318-5.307-1.195-10.482-2.583-15.463z" fill="#1c9585"/><path d="m375.299 330.745-32.968-7.295v14.562h-85.31v-14.934h-32.968v14.934h-85.31v-9.265l-23.128 5.133c-3.384.751-6.665 1.735-9.84 2.917v1.215h-3.052c-15.661 6.633-28.356 18.381-36.268 32.968h39.321v85.309h-5.652c16.338 13.146 34.374 24.26 53.731 32.968h70.199v19.749c10.3 1.304 20.791 1.994 31.446 1.994.509 0 1.013-.019 1.521-.022v-21.721h85.31v6.065c24.959-9.336 48.061-22.581 68.528-39.034h-35.56v-85.308h63.483c-7.929-14.598-20.65-26.348-36.338-32.968h-27.145zm-151.246 125.544h-85.31v-85.309h85.31zm118.278 0h-85.31v-85.309h85.31z" fill="#55c7a6"/></g><g><g><g><path d="m356.053 205.875h-1l-6.835-33.606 6.835-27.725h1c13.361 0 24.193 10.832 24.193 24.193v12.946c0 13.36-10.832 24.192-24.193 24.192z" fill="#f78b5c"/></g></g></g><g><path d="m252.869 276.264c-43.188 0-78.199 35.011-78.199 78.199 0 28.746 15.521 53.854 38.631 67.442l40.025-40.025 39.692 39.692c22.791-13.665 38.051-38.601 38.051-67.109 0-43.188-35.011-78.199-78.2-78.199z" fill="#96dbbf"/></g><g><g><g><path d="m252.869 379.683c20.073 0 36.344-16.272 36.344-36.344v-81.406h-72.689v81.406c.001 20.072 16.273 36.344 36.345 36.344z" fill="#f78b5c"/></g></g></g><g><g><g><path d="m351.464 134.415c0-33.168-21.278-63.497-54.445-63.497h-88.299c-9.464 0-18.132 2.477-25.694 6.777v175.309c0 38.264 30.776 69.577 69.038 69.867.268.002.537.003.805.003 56.987 0 103.183-46.197 103.183-103.183v-32.575z" fill="#faa073"/></g></g></g><g><g><g><path d="m356.053 186.837v-23.256c5.066 0 9.174 4.107 9.174 9.174v4.909c0 5.066-4.108 9.173-9.174 9.173z" fill="#fa735f"/></g></g></g><g><g><g><path d="m124.472 181.682c0 13.361 10.832 24.193 24.193 24.193h1.553l12.385-26.092-12.178-35.239h-1.761c-13.361 0-24.193 10.832-24.193 24.193v12.945z" fill="#f78b5c"/></g></g></g><g><g><g><path d="m138.823 177.842c0 5.435 4.406 9.841 9.841 9.841v-24.949c-5.435 0-9.841 4.406-9.841 9.841z" fill="#fa735f"/></g></g></g><g><g><g><path d="m132.218 188.942c0 9.083 7.364 16.447 16.447 16.447v-32.694c-9.083 0-16.447 7.364-16.447 16.447z" fill="#fff"/></g></g></g><g><g><g><path d="m208.287 181.132v7.276c0 4.746 3.848 8.594 8.594 8.594s8.594-3.848 8.594-8.594v-7.276z" fill="#f78b5c"/></g></g></g><g><g><g><path d="m278.31 181.132v7.276c0 4.746 3.848 8.594 8.594 8.594s8.594-3.848 8.594-8.594v-7.276z" fill="#f78b5c"/></g></g></g><g><g><g><path d="m216.881 190.119c-4.746 0-8.594-3.848-8.594-8.594v-11.055l3.168-4.797-3.168-4.797v-2.855c0-4.746 3.848-8.594 8.594-8.594s8.594 3.848 8.594 8.594v23.504c0 4.746-3.848 8.594-8.594 8.594z" fill="#373c41"/></g></g></g><g><g><g><path d="m286.904 190.119c-4.746 0-8.594-3.848-8.594-8.594v-11.055l3.168-4.797-3.168-4.797v-2.855c0-4.746 3.848-8.594 8.594-8.594s8.594 3.848 8.594 8.594v23.504c0 4.746-3.848 8.594-8.594 8.594z" fill="#373c41"/></g></g></g><g><g><g><g><path d="m228.203 145.13h-25.062c-4.746 0-8.594-3.848-8.594-8.594 0-4.746 3.848-8.594 8.594-8.594h25.062c4.746 0 8.594 3.848 8.594 8.594 0 4.746-3.847 8.594-8.594 8.594z" fill="#823214"/></g></g></g></g><g><g><g><g><path d="m299.82 145.13h-25.062c-4.746 0-8.594-3.848-8.594-8.594 0-4.746 3.848-8.594 8.594-8.594h25.062c4.746 0 8.594 3.848 8.594 8.594 0 4.746-3.848 8.594-8.594 8.594z" fill="#823214"/></g></g></g></g><g><path d="m284.513 237.663h-8.849l-23.305 4.838-23.305-4.838h-7.828c-2.626 0-4.724 2.292-4.374 4.895.67 4.979 2.349 9.638 4.823 13.766l47.189 13.984c10.657-5.231 18.378-15.528 20.023-27.75.35-2.603-1.748-4.895-4.374-4.895z" fill="#be1423"/></g><g><g><g><path d="m238.945 202.319c-2.136 8.531 1.746 17.824 9.171 20.625 1.494.564 3.092.869 4.754.869 1.661 0 3.26-.305 4.754-.869 7.425-2.801 11.308-12.094 9.171-20.625l-7.082-28.282c-1.783-7.12-11.902-7.12-13.685 0z" fill="#f78b5c"/></g></g></g><g><path d="m266.812 0h-28.906c-49.286 0-89.241 39.955-89.241 89.241v45.719.003 52.153c7.633 0 13.821-6.188 13.821-13.821v-61.026h179.747v61.026c0 7.633 6.188 13.821 13.821 13.821v-52.153c0-.001 0-.002 0-.003v-45.719c-.001-49.286-39.956-89.241-89.242-89.241z" fill="#faa073"/></g><g><path d="m211.455 173.638c-1.75 0-3.168-1.418-3.168-3.168v-9.594c0-1.75 1.418-3.168 3.168-3.168 1.75 0 3.168 1.418 3.168 3.168v9.594c0 1.75-1.418 3.168-3.168 3.168z" fill="#fff"/></g><g><path d="m281.479 173.638c-1.75 0-3.168-1.418-3.168-3.168v-9.594c0-1.75 1.418-3.168 3.168-3.168 1.75 0 3.168 1.418 3.168 3.168v9.594c0 1.75-1.419 3.168-3.168 3.168z" fill="#fff"/></g><g><path d="m221.679 256.321c6.351 10.593 17.941 17.686 31.19 17.686 5.74 0 11.166-1.335 15.992-3.704-2.075-13.015-13.347-22.963-26.946-22.963-8.026 0-15.243 3.465-20.236 8.981z" fill="#ff3c3c"/></g><g><path d="m270.537 247.34h-36.357c-2.831 0-5.127-2.295-5.127-5.127v-4.55h46.611v4.55c0 2.831-2.295 5.127-5.127 5.127z" fill="#fff"/></g><g><path d="m144.108 228.313c-2.485 0-4.5-2.015-4.5-4.5v-33.694c0-2.485 2.015-4.5 4.5-4.5s4.5 2.015 4.5 4.5v33.694c0 2.485-2.015 4.5-4.5 4.5z" fill="#fff"/></g><g><g><g><path d="m372.5 191.443c0 9.083-7.364 16.447-16.447 16.447v-32.694c9.083 0 16.447 7.364 16.447 16.447z" fill="#fff"/></g></g></g><g><path d="m360.61 230.814c-2.485 0-4.5-2.015-4.5-4.5v-33.694c0-2.485 2.015-4.5 4.5-4.5s4.5 2.015 4.5 4.5v33.694c0 2.485-2.014 4.5-4.5 4.5z" fill="#fff"/></g><g><path d="m183.371 222.647c.256-5.827.296-133.406.296-133.406 0-48.266 38.319-87.576 86.193-89.184-1.013-.034-2.028-.057-3.048-.057h-28.906c-49.286 0-89.241 39.955-89.241 89.241v129.428c0 59.556 49.9 107.227 109.797 104.054-43.381-12.598-75.091-52.632-75.091-100.076z" fill="#f78b5c"/></g><g><g><path d="m194.547 98.049h113.867v10h-113.867z" fill="#f78b5c"/></g></g><g><g><path d="m194.547 77.631h113.867v10h-113.867z" fill="#f78b5c"/></g></g><path d="m355.269 145.177c-6.548 0-11.856 5.308-11.856 11.856v21.745c0 28.502-23.106 51.608-51.608 51.608h-77.871c-7.824 0-15.236-1.75-21.88-4.866v5.621c0 48.402 34.018 90.139 81.426 99.901l1.843.38c46.189-10.25 80.73-51.455 80.73-100.73v-84.732z" fill="#823214"/><g><g><path d="m275.322 331.416c-46.605-10.285-81.654-51.836-81.654-101.746 0 0 0-1.223 0-3.421-18.427-7.877-31.342-26.164-31.342-47.472v-21.745c0-6.548-5.308-11.856-11.856-11.856h-1.805v84.493c0 57.295 46.186 103.582 103.023 104.189.126.002.25.011.376.012.268.002.537.003.805.003.934 0 1.864-.014 2.791-.039h.014c.904-.024 1.805-.061 2.703-.108.028-.001.056-.002.084-.003-.002 0-.004-.001-.005-.002 5.761-.306 11.394-1.091 16.866-2.305z" fill="#69280f"/></g><g><path d="m356.053 226.662v-80.702l-.784-.784c-6.548 0-11.856 5.308-11.856 11.856v21.745c0 28.502-23.106 51.608-51.608 51.608h45.003c6.805 0 13.296-1.329 19.245-3.723z" fill="#823214"/></g></g><g><path d="m274.267 274.907h-43.277c-8.949 0-16.203-7.254-16.203-16.203 0-8.949 7.254-16.203 16.203-16.203h43.276c8.948 0 16.203 7.254 16.203 16.203 0 8.949-7.254 16.203-16.202 16.203z" fill="#faa073"/></g><g><path d="m234.342 253.704h36.034v10h-36.034z" fill="#f78b5c"/></g></g></g></svg>