<svg id="Layer_1" enable-background="new 0 0 511 511" height="512" viewBox="0 0 511 511" width="512" xmlns="http://www.w3.org/2000/svg"><g><g><path d="m255.5 28.379c-92.863 0-150.067 52.38-150.224 52.469 0 0-2.378 2.968-2.823 4.942-3.613 16.039-6.989 37.534-6.989 53.219 0 133.272 112.388 241.284 245.66 241.284 51.32 0 108.417-24.596 146.631-54.17.855-.662 3.567-5.107 3.567-5.107.168-1.028 5.489-22.216 5.489-51.327 0-133.272-108.039-241.31-241.311-241.31z" fill="#afe6ff"/><path d="m341.103 373.481c-133.272 0-241.311-108.039-241.311-241.311 0-17.616 1.9-34.78 5.484-51.322-55.497 44.212-91.087 112.372-91.087 188.841 0 52.242 16.602 100.607 44.817 140.107l392.984.013c18.653-26.109 32.261-56.158 39.331-88.794-41.22 32.834-93.424 52.466-150.218 52.466z" fill="#73c8f0"/></g><g><path d="m302.8 298.959h-95.972c-30.537 0-55.292-24.755-55.292-55.292v-37.142h206.556v37.142c0 30.537-24.755 55.292-55.292 55.292z" fill="#a03c19"/></g><path d="m393.578 342.648-138.375-30.62-17.309 3.842c-43.372 9.627-74.235 48.091-74.235 92.518v84.512c28.31 11.662 59.323 18.1 91.841 18.1 80.511 0 152.517-39.648 196.488-101.192-2.553-32.555-26.081-60.006-58.41-67.16z" fill="#ffa50a"/><path d="m59.011 409.793c26.473 37.061 63.173 66.305 105.974 83.638v-77.774c0-34.088 23.018-63.723 55.746-72.338l4.915-24.731-108.27 24.031c-32.316 7.173-55.823 34.626-58.365 67.174z" fill="#fa870a"/><g><path d="m255.741 289.649c-43.188 0-78.199 35.011-78.199 78.199 0 28.746 15.521 53.854 38.631 67.442l40.025-40.025 39.692 39.692c22.791-13.665 38.051-38.601 38.051-67.109-.001-43.188-35.012-78.199-78.2-78.199z" fill="#fa870a"/></g><g><path d="m255.741 275.648c-43.188 0-78.199 35.011-78.199 78.199 0 28.746 15.521 53.854 38.631 67.442l40.025-40.025 39.692 39.692c22.791-13.665 38.051-38.601 38.051-67.109-.001-43.188-35.012-78.199-78.2-78.199z" fill="#ffc305"/></g><g><g><g><path d="m358.924 206.918h-1.832v-61.331h1.832c13.361 0 24.193 10.832 24.193 24.193v12.946c0 13.361-10.831 24.192-24.193 24.192z" fill="#ff965a"/></g></g></g><g><g><g><path d="m358.852 188.965h-.76v-25.425h.76c5.539 0 10.029 4.49 10.029 10.029v5.367c0 5.539-4.49 10.029-10.029 10.029z" fill="#ef6a30"/></g></g></g><g><g><g><path d="m255.741 380.726c-20.073 0-36.344-16.272-36.344-36.344v-6.258l36.345-42.223 36.344-32.925v81.406c-.001 20.073-16.273 36.344-36.345 36.344z" fill="#ff965a"/></g></g></g><path d="m219.396 338.124c10.848 3.543 23.6 4.072 36.499.777 15.632-3.993 28.384-12.807 36.19-23.689v-47.559c-1.377-1.665-2.896-3.229-4.552-4.677h-68.137z" fill="#ef6a30"/><path d="m354.335 135.458c0-16.062-5.002-31.446-13.915-43.054h-154.523v161.643l22.09 48.46 43.427 19.471c3.007 1.348 6.297 1.987 9.584 1.753.018-.001.035-.003.053-.004 54.519-3.908 97.874-67.29 97.874-122.496v-13.072z" fill="#ffbe82"/><g><g><g><path d="m354.015 128.572c-1.214-13.526-5.966-26.231-13.595-36.168h-154.523v36.168z" fill="#ff965a"/></g></g></g><g><g><g><path d="m151.381 204.395h6.224l-1.761-61.331h-4.463c-13.361 0-24.193 10.832-24.193 24.193v12.946c.001 13.36 10.832 24.192 24.193 24.192z" fill="#ff965a"/></g></g></g><g><g><g><path d="m151.312 185.029h2.294l-.649-22.6h-1.645c-4.923 0-8.915 3.991-8.915 8.915v4.77c0 4.924 3.992 8.915 8.915 8.915z" fill="#ef6a30"/></g></g></g><g><g><g><path d="m211.159 182.176v7.276c0 4.746 3.848 8.594 8.594 8.594s8.594-3.848 8.594-8.594v-7.276z" fill="#ff965a"/></g></g></g><g><g><g><path d="m281.182 182.176v7.276c0 4.746 3.848 8.594 8.594 8.594s8.594-3.848 8.594-8.594v-7.276z" fill="#ff965a"/></g></g></g><g><g><path d="m186.243 223.69c.224-5.093.059-93.903.012-131.286h-16.482c-9.991 10.261-15.962 24.475-15.962 40.781l-2.273 54.974.245 13.072c0 59.556 49.655 125.709 109.552 122.536-43.382-12.598-75.092-52.632-75.092-100.077z" fill="#ff965a"/></g></g><g><g><g><path d="m219.753 191.163c-4.746 0-8.594-3.848-8.594-8.594v-11.055l3.168-4.797-3.168-4.797v-2.855c0-4.746 3.848-8.594 8.594-8.594s8.594 3.848 8.594 8.594v23.504c-.001 4.746-3.848 8.594-8.594 8.594z" fill="#373c41"/></g></g></g><g><g><g><path d="m289.776 191.163c-4.746 0-8.594-3.848-8.594-8.594v-11.055l3.168-4.797-3.168-4.797v-2.855c0-4.746 3.848-8.594 8.594-8.594s8.594 3.848 8.594 8.594v23.504c0 4.746-3.848 8.594-8.594 8.594z" fill="#373c41"/></g></g></g><g><g><g><g><path d="m231.075 146.174h-25.062c-4.746 0-8.594-3.848-8.594-8.594 0-4.746 3.848-8.594 8.594-8.594h25.062c4.746 0 8.594 3.848 8.594 8.594 0 4.746-3.848 8.594-8.594 8.594z" fill="#a03c19"/></g></g></g></g><g><g><g><g><path d="m302.691 146.174h-25.062c-4.746 0-8.594-3.848-8.594-8.594 0-4.746 3.848-8.594 8.594-8.594h25.062c4.746 0 8.594 3.848 8.594 8.594 0 4.746-3.848 8.594-8.594 8.594z" fill="#a03c19"/></g></g></g></g><g><g><path d="m338.34 92.404c4.321 5.966 6.763 13.266 6.763 20.908v61.026c0 7.633 6.188 13.821 13.821 13.821v-52.153c0-.001 0-.002 0-.003v-43.599z" fill="#cd5014"/></g></g><g><path d="m214.327 174.682c-1.75 0-3.168-1.418-3.168-3.168v-9.594c0-1.75 1.418-3.168 3.168-3.168 1.75 0 3.168 1.418 3.168 3.168v9.594c0 1.75-1.419 3.168-3.168 3.168z" fill="#fff"/></g><g><path d="m284.35 174.682c-1.75 0-3.168-1.418-3.168-3.168v-9.594c0-1.75 1.418-3.168 3.168-3.168 1.75 0 3.168 1.418 3.168 3.168v9.594c0 1.75-1.418 3.168-3.168 3.168z" fill="#fff"/></g><g><path d="m233.989 247.057h41.873v10h-41.873z" fill="#ff965a"/></g><g><g><path d="m151.536 92.404v95.755c7.633 0 13.821-6.188 13.821-13.821v-61.026c0-.081 0-.162.001-.242.066-9.759 6.657-17.921 15.561-20.666z" fill="#a03c19"/></g></g><g><path d="m289.776 247.112h-70.023v-5.492c0-10.83 8.779-19.609 19.609-19.609h30.806c10.83 0 19.609 8.779 19.609 19.609v5.492z" fill="#a03c19"/></g><g><g><g><path d="m241.816 203.362c-2.136 8.531 1.746 17.824 9.171 20.625 1.494.564 3.092.869 4.754.869 1.661 0 3.26-.305 4.754-.869 7.425-2.801 11.308-12.094 9.171-20.625l-7.082-28.282c-1.783-7.12-11.902-7.12-13.685 0z" fill="#ff965a"/></g></g></g><g><path d="m249.029 277.3h13.425v7h-13.425z" fill="#ff965a"/></g><g><path d="m261.563 0h-10.675c-56.557 0-102.405 45.848-102.405 102.405v9.932h215.485v-9.932c0-56.557-45.848-102.405-102.405-102.405z" fill="#2477f9"/></g><g><path d="m259.381 0h-6.31c-33.432 0-60.535 45.848-60.535 102.405v9.932h127.38v-9.932c-.001-56.557-27.103-102.405-60.535-102.405z" fill="#fff"/></g><g><path d="m375.124 122.268h-237.797c0-10.97 8.893-19.863 19.863-19.863h198.071c10.97 0 19.863 8.893 19.863 19.863z" fill="#0540e5"/></g><g><g><g><path d="m367.617 258.9h-57.662v-11h57.662c8.446 0 15.318-6.872 15.318-15.319v-20.267h11v20.267c.001 14.512-11.806 26.319-26.318 26.319z" fill="#696e73"/></g></g><g><g><path d="m115.904 110.265h20v49.845h-20z" fill="#373c41"/></g></g><g><g><path d="m371.436 110.265h20v49.845h-20z" fill="#373c41"/></g></g><g><g><g><g><g><path d="m96.474 190.374c0 20.287 16.445 36.732 36.732 36.732v-93.119c-20.287 0-36.732 16.445-36.732 36.732z" fill="#ff3c3c"/></g></g></g></g><g><g><path d="m97.09 164.046c-.398 2.165-.616 4.393-.616 6.673v19.655c0 20.286 16.445 36.732 36.732 36.732v-33.002c-18.007 0-32.976-12.96-36.116-30.058z" fill="#dc1428"/></g></g><g><g><path d="m142.57 237.077c-5.171 0-9.364-4.192-9.364-9.364v-90.993c0-5.171 4.192-9.364 9.364-9.364 5.171 0 9.364 4.192 9.364 9.364v90.993c-.001 5.172-4.193 9.364-9.364 9.364z" fill="#ffa50a"/></g></g><g><g><path d="m142.57 206.075c-5.172 0-9.364-4.192-9.364-9.364v31.002c0 5.172 4.192 9.364 9.364 9.364 5.171 0 9.364-4.192 9.364-9.364v-31.002c-.001 5.172-4.193 9.364-9.364 9.364z" fill="#fa870a"/></g></g></g><g><g><g><g><g><path d="m376.323 225.436v-93.119c20.286 0 36.732 16.445 36.732 36.732v19.655c0 20.287-16.446 36.732-36.732 36.732z" fill="#ff3c3c"/></g></g></g></g><g><g><path d="m412.439 162.376c.398 2.165.616 4.393.616 6.673v19.655c0 20.286-16.445 36.732-36.732 36.732v-33.002c18.006 0 32.976-12.96 36.116-30.058z" fill="#dc1428"/></g></g><g><g><path d="m366.959 235.407c5.171 0 9.364-4.192 9.364-9.364v-90.993c0-5.171-4.192-9.364-9.364-9.364-5.171 0-9.364 4.192-9.364 9.364v90.993c0 5.172 4.192 9.364 9.364 9.364z" fill="#ffa50a"/></g></g><g><g><path d="m366.959 204.405c5.172 0 9.364-4.192 9.364-9.364v31.002c0 5.172-4.192 9.364-9.364 9.364-5.171 0-9.364-4.192-9.364-9.364v-31.002c0 5.172 4.192 9.364 9.364 9.364z" fill="#fa870a"/></g></g></g><g><g><path d="m309.955 247.9h47.479v11h-47.479z" fill="#50555a"/></g></g><g><g><path d="m323.708 269.722h-14.254c-9.015 0-16.322-7.308-16.322-16.322 0-9.015 7.308-16.322 16.322-16.322h14.254c9.015 0 16.322 7.308 16.322 16.322.001 9.014-7.307 16.322-16.322 16.322z" fill="#373c41"/></g></g></g></g></svg>