<svg id="Layer_1" enable-background="new 0 0 510 510" height="512" viewBox="0 0 510 510" width="512" xmlns="http://www.w3.org/2000/svg"><g><g><path d="m255 10.768c-96.059 0-155.232 54.183-155.395 54.275 0 0-2.46 3.07-2.92 5.112-3.738 16.591-7.229 38.826-7.229 55.051 0 137.859 116.256 249.588 254.115 249.588 53.086 0 112.149-25.443 151.678-56.034.884-.684 3.69-5.283 3.69-5.283.174-1.064 5.678-22.981 5.678-53.093-.001-137.859-111.758-249.616-249.617-249.616z" fill="#afe6ff"/><path d="m343.549 367.748c-137.859 0-249.616-111.757-249.616-249.616 0-18.222 1.965-35.977 5.672-53.089-57.406 45.734-94.221 116.24-94.221 195.341 0 66.554 26.047 127.025 68.503 171.774l378.202-18.569c22.47-28.857 38.778-62.855 46.849-100.112-42.64 33.963-96.64 54.271-155.389 54.271z" fill="#73c8f0"/></g><g><circle cx="136.359" cy="208.488" fill="#cd5014" r="84.398"/><circle cx="373.641" cy="213.531" fill="#ff640a" r="84.398"/><path d="m229.284 184.595v-154.424c0-9.929-8.05-17.979-17.979-17.979h-10.872c-42.628 0-77.184 34.557-77.184 77.184v95.218h106.035z" fill="#cd5014"/><path d="m387.142 184.595v-95.918c0-48.975-39.702-88.677-88.677-88.677h-63.486c-17.094 0-30.951 13.857-30.951 30.951v153.644z" fill="#ff640a"/><path d="m368.523 360.791h-180.844c-5.048.002-9.32.001-12.964 0v135.995c25.197 8.556 52.195 13.214 80.285 13.214 37.839 0 73.852-8.482 106.161-23.697l10.243-26.072v-99.382c-.957-.032-1.916-.058-2.881-.058z" fill="#ff6196"/><path d="m187.679 360.791c-33.164.016-33.183-.106-37.337.255-39.171 2.889-70.838 32.76-76.45 71.108 27.621 29.113 62.181 51.576 101.038 64.727v-52.526c0-44.054 34.097-80.119 77.336-83.308 2.005-.174 3.056-.236 7.328-.255h-71.915z" fill="#ff4181"/><path d="m262.546 311.746c-42.276 0-76.548 34.272-76.548 76.548 0 28.139 15.194 52.717 37.815 66.018l39.18-39.18 38.854 38.854c22.31-13.376 37.247-37.786 37.247-65.692.001-42.276-34.271-76.548-76.548-76.548z" fill="#fff"/><g><g><path d="m299.025 366.48c0 20.146-16.332 36.478-36.478 36.478-20.146 0-36.478-16.332-36.478-36.478v-81.706h72.957v81.706z" fill="#fab9af"/></g></g><g><g><path d="m386.608 191.605c0 13.501-10.944 24.445-24.445 24.445h-1.49l-1.465-61.971h2.955c13.501 0 24.445 10.944 24.445 24.445z" fill="#fa968c"/></g></g><g><g><path d="m372.159 187.688c0 5.416-4.391 9.807-9.807 9.807h-.598l-.588-24.861h1.185c5.416 0 9.807 4.391 9.807 9.807v5.247z" fill="#fa735f"/></g></g><g><g><path d="m361.141 127.657c-.241-24.268-19.982-43.815-44.252-43.815h-52.577c-29.296 0-55.922 11.423-75.676 30.054v150.321c0 37.775 30.351 68.769 68.125 69.053.264.002.529.003.793.003 57.763 0 104.589-46.826 104.589-104.589z" fill="#ffbe82"/></g></g><path d="m226.068 346.864c3.753.671 7.607 1.053 11.548 1.083.264.002.529.003.793.003 22.595 0 43.515-10.102 60.615-22.284v-40.893h-72.957v62.091z" fill="#fa735f"/><g><g><path d="m361.141 127.657c-.241-24.268-19.982-43.815-44.252-43.815h-52.577c-29.296 0-55.922 11.423-75.676 30.054v150.321c0 37.775 30.351 68.769 68.125 69.053.264.002.529.003.793.003 57.763 0 104.589-46.826 104.589-104.589z" fill="#fab9af"/></g></g><g><g><path d="m129.426 191.561c0 13.411 10.871 24.282 24.282 24.282h.891l.431-61.557h-1.323c-13.411 0-24.282 10.871-24.282 24.282v12.993z" fill="#fa968c"/></g></g><g><g><path d="m144.204 187.563c0 5.158 4.181 9.339 9.339 9.339h.343l.166-23.674h-.509c-5.158 0-9.339 4.181-9.339 9.339z" fill="#fa735f"/></g></g><g><g><path d="m213.833 189.696v8.896c0 4.763 3.862 8.626 8.626 8.626 4.763 0 8.626-3.862 8.626-8.626v-8.896z" fill="#fa968c"/></g></g><g><g><path d="m284.276 189.696v8.896c0 4.763 3.862 8.626 8.626 8.626s8.626-3.862 8.626-8.626v-8.896z" fill="#fa968c"/></g></g><g><g><path d="m222.459 200.029c-4.763 0-8.626-3.862-8.626-8.626v-6.362l3.462-5.201-3.462-5.201v-6.826c0-4.763 3.862-8.626 8.626-8.626 4.763 0 8.626 3.862 8.626 8.626v23.591c-.001 4.763-3.863 8.625-8.626 8.625z" fill="#373c41"/></g></g><g><g><path d="m292.901 200.029c-4.763 0-8.626-3.862-8.626-8.626v-8.07l3.462-5.201-3.462-5.201v-5.118c0-4.763 3.862-8.626 8.626-8.626 4.763 0 8.626 3.862 8.626 8.626v23.591c0 4.763-3.862 8.625-8.626 8.625z" fill="#373c41"/></g></g><path d="m287.738 87.427v32.871h4.962c24.929 0 46.78-13.143 59.029-32.871z" fill="#fa968c"/><g><g><path d="m244.603 214.81c-2.144 7.556 1.753 15.787 9.205 18.268 1.5.499 3.104.77 4.771.77s3.272-.27 4.771-.77c7.452-2.481 11.349-10.712 9.205-18.268l-10.458-36.853c-1.006-3.545-6.03-3.545-7.036 0z" fill="#fa968c"/></g></g><path d="m267.214 84.027c-62.492-.12-113.223 50.494-113.223 112.987v32.695c0 63.657 57.129 112.901 121.138 102.064-48.866-8.313-86.08-50.83-86.08-102.064.026-45.862-.004-67.148-.008-77.52-.003-8.211 6.711-14.944 14.922-14.961h.011 50.198c29.212 0 52.894-23.681 52.894-52.894-.001 0-7.63-.245-39.852-.307z" fill="#fa968c"/><path d="m207.487 42.044c-29.545 0-53.497 23.951-53.497 53.497v34.499 66.975c7.661 0 13.872-6.211 13.872-13.872v-16.992c0-19.944 16.167-36.111 36.111-36.111h50.198c29.212 0 52.894-23.681 52.894-52.894v-35.102z" fill="#ff640a"/><path d="m305.191 83.843c23.662 0 43.081 20.255 43.081 43.917v55.383c0 7.661 6.21 13.872 13.872 13.872v-98.479c0-10.154-8.618-18.173-18.745-17.444z" fill="#cd5014"/><path d="m217.295 188.504c-1.912 0-3.462-1.55-3.462-3.462v-10.403c0-1.912 1.55-3.462 3.462-3.462 1.912 0 3.462 1.55 3.462 3.462v10.403c.001 1.912-1.55 3.462-3.462 3.462z" fill="#fff"/><path d="m287.738 186.796c-1.912 0-3.462-1.55-3.462-3.462v-10.403c0-1.912 1.55-3.462 3.462-3.462 1.912 0 3.462 1.55 3.462 3.462v10.403c0 1.912-1.55 3.462-3.462 3.462z" fill="#fff"/><path d="m287.738 111.487h4.962c38.353 0 69.443-31.091 69.443-69.443h-74.405z" fill="#ff640a"/><ellipse cx="190.066" cy="228.567" fill="#fa968c" rx="23.767" ry="19.916"/><ellipse cx="324.941" cy="228.567" fill="#fa968c" rx="23.767" ry="19.916"/><path d="m289.328 264.493-18.553-14.825c-1.84-1.47-4.376-1.711-6.46-.613l-2.974 1.567c-1.728.911-3.795.911-5.523 0l-2.974-1.567c-2.084-1.098-4.62-.857-6.46.613l-18.553 14.825 15.101 15.101c4.15 4.15 9.778 6.481 15.647 6.481 5.869 0 11.497-2.331 15.647-6.481z" fill="#dc1428"/><path d="m289.328 264.493-4.241-3.389c-6.392 2.73-12.842 4.325-19.157 5.845-.447-.248-1.136-.732-1.585-1.047-1.586-1.113-3.092-2.128-4.901-2.147-2.25.022-3.945 1.368-5.306 2.449-.382.303-.931.739-1.254.926-6.914-.682-14.042-2.576-21.294-5.64l-3.758 3.003 4.927 4.927c6.705 2.487 13.329 4.045 19.812 4.649.174.016.346.024.515.024 2.275 0 4.048-1.408 5.368-2.457.275-.219.638-.507.939-.719.314.206.683.464.967.664 1.911 1.342 4.08 2.864 6.565 2.265 5.799-1.394 12.061-2.907 18.418-5.367z" fill="#be1423"/><path d="m249.369 294.804h18.751" fill="none" stroke="#fa968c" stroke-miterlimit="10" stroke-width="5.873"/><path d="m366.283 213.531v22.927c0 13.612-11.035 24.646-24.646 24.646h-39.468" fill="none" stroke="#50555a" stroke-miterlimit="10" stroke-width="8.81"/><path d="m361.906 181.482v37.094c10.243 0 18.547-8.304 18.547-18.547s-8.304-18.547-18.547-18.547z" fill="#373c41"/><path d="m312.372 274.093h-8.604c-6.941 0-12.568-5.627-12.568-12.568 0-6.941 5.627-12.568 12.568-12.568h8.604c6.941 0 12.568 5.627 12.568 12.568.001 6.941-5.626 12.568-12.568 12.568z" fill="#373c41"/><g><g><path d="m384.913 293.784h19.857v-81.977c-10.967 0-19.857 8.89-19.857 19.857z" fill="#fab9af"/></g><g><path d="m404.769 300.342h19.857v-81.977c-10.967 0-19.857 8.89-19.857 19.857z" fill="#fab9af"/></g><g><path d="m424.626 307.398h17.375v-81.977c-9.596 0-17.375 7.779-17.375 17.375z" fill="#fab9af"/></g><path d="m334.694 267.588c9.596 0 17.375 7.779 17.375 17.375v8.763c0 4.32 3.32 8.037 7.635 8.24 4.607.217 8.411-3.454 8.411-8.014v-23.902h-2.203c-9.596 0-17.375-7.779-17.375-17.375h23.79c7.269 0 13.162 5.893 13.162 13.162v20.435h56.512v116.336l-71.604 1.021v-49.501c0-5.298-4.295-9.593-9.593-9.593-14.42 0-26.111-11.69-26.111-26.111v-18.884l.026.003c-.017-.341-.026-.683-.026-1.028v-30.927z" fill="#fab9af"/><g><path d="m403.681 403.155v-49.026c0-5.298-4.295-9.593-9.593-9.593-14.421 0-26.111-11.69-26.111-26.111v-18.885l.026.003c-.016-.341-.026-.683-.026-1.028v-3.13c-.699 3.868-4.162 6.775-8.275 6.582-4.315-.203-7.635-3.92-7.635-8.24v-8.763c0-9.596-7.779-17.375-17.375-17.375v30.927c0 .345.009.688.026 1.028l-.026-.003v18.885c0 14.42 11.69 26.111 26.111 26.111 5.298 0 9.593 4.295 9.593 9.593v49.501z" fill="#fa968c"/></g></g><path d="m424.867 376.673h-36.482c-15.033 0-27.219 12.187-27.219 27.219v82.421c35.68-16.795 66.841-41.802 90.92-72.725v-9.696c.001-15.033-12.186-27.219-27.219-27.219z" fill="#ff4181"/></g></g></svg>