<svg id="Layer_1" enable-background="new 0 0 511 511" height="512" viewBox="0 0 511 511" width="512" xmlns="http://www.w3.org/2000/svg"><g><g><path d="m255.5 24.818c-93.548 0-151.174 52.767-151.333 52.856 0 0-2.396 2.99-2.844 4.978-3.64 16.157-7.04 37.811-7.04 53.612 0 134.255 113.217 243.064 247.472 243.064 51.699 0 109.217-24.778 147.713-54.57.861-.666 3.593-5.144 3.593-5.144.169-1.036 5.53-22.38 5.53-51.705 0-134.255-108.836-243.091-243.091-243.091z" fill="#afe6ff"/><g fill="#73c8f0"><path d="m98.643 129.375c0-17.746 1.914-35.036 5.524-51.701-55.906 44.538-91.758 113.201-91.758 190.235 0 39.754 9.543 77.279 26.462 110.41l234.45-15.612c-100.948-29.55-174.678-122.831-174.678-233.332z"/><path d="m440.446 351.577 44.412-2.958c3.306-9.406 6.054-19.087 8.203-29.005-16.015 12.757-33.677 23.535-52.615 31.963z"/></g></g><g><g><g><g><path d="m312.99 207.423-3.269-26.007 3.269-35.324c13.361 0 26.193 10.832 26.193 24.193v12.946c0 13.36-12.832 24.192-26.193 24.192z" fill="#fa968c"/></g></g></g><g><g><g><path d="m314.041 189.133-1.319-10.496 1.319-14.256c5.392 0 10.571 4.371 10.571 9.764v5.224c0 5.392-5.179 9.764-10.571 9.764z" fill="#fa735f"/></g></g></g><g><g><g><path d="m109.343 201.986 3.269-26.007-3.269-35.324c-13.361 0-26.193 10.832-26.193 24.193v12.946c0 13.361 12.832 24.192 26.193 24.192z" fill="#fa968c"/></g></g></g><g><g><g><path d="m108.292 183.696 1.319-10.496-1.319-14.256c-5.392 0-10.571 4.371-10.571 9.764v5.224c0 5.393 5.179 9.764 10.571 9.764z" fill="#fa735f"/></g></g></g><path d="m337.152 340.382-125.856-27.85c-39.006 8.657-66.762 43.25-66.762 83.205v88.512c33.267 17.099 70.989 26.751 110.966 26.751 41.162 0 80.119-10.288 114.296-28.525l20.701-75.653c0-31.916-22.183-59.544-53.345-66.44z" fill="#2477f9"/><path d="m211.296 312.532-125.358 27.824c-21.291 4.726-38.383 19.13-47.066 37.963 23.225 45.477 60.349 82.674 105.771 105.99v-77.522c0-31.9 22.16-59.518 53.302-66.43l69.439-15.412z" fill="#0540e5"/><g><path d="m211.807 407.103c33.664 0 60.953-27.29 60.953-60.953v-20.016l-61.464-13.601-60.443 13.416v20.202c0 33.662 27.29 60.952 60.954 60.952z" fill="#0540e5"/></g><g><g><g><path d="m211.807 381.231c-20.073 0-36.344-16.272-36.344-36.344v-81.407h72.689v81.406c-.001 20.073-16.273 36.345-36.345 36.345z" fill="#fab9af"/></g></g></g><g><g><g><path d="m310.401 135.963c0-33.168-21.278-63.497-54.445-63.497h-88.298c-9.464 0-18.132 2.477-25.694 6.777v175.309c0 38.264 30.776 69.577 69.038 69.867.268.002.537.003.805.003 56.987 0 103.183-46.197 103.183-103.183v-32.575z" fill="#ffbe82"/></g></g></g><g><path d="m175.462 263.48v81.406c40.413 7.849 64.954-5.603 72.689-25.837v-55.569z" fill="#fa735f"/></g><g><g><g><path d="m310.401 135.963c0-33.168-21.278-63.497-54.445-63.497h-88.298c-9.464 0-18.132 2.477-25.694 6.777v175.309c0 38.264 30.776 69.577 69.038 69.867.268.002.537.003.805.003 56.987 0 103.183-46.197 103.183-103.183v-32.575z" fill="#fab9af"/></g></g></g><g><g><g><path d="m167.225 182.68v7.276c0 4.746 3.848 8.594 8.594 8.594s8.594-3.848 8.594-8.594v-7.276z" fill="#fa968c"/></g></g></g><g><g><g><path d="m237.248 182.68v7.276c0 4.746 3.848 8.594 8.594 8.594s8.594-3.848 8.594-8.594v-7.276z" fill="#fa968c"/></g></g></g><g><g><g><path d="m175.818 191.667c-4.746 0-8.594-3.848-8.594-8.594v-11.055l3.168-4.797-3.168-4.797v-2.855c0-4.746 3.848-8.594 8.594-8.594s8.594 3.848 8.594 8.594v23.504c0 4.746-3.848 8.594-8.594 8.594z" fill="#373c41"/></g></g></g><g><g><g><path d="m245.842 191.667c-4.746 0-8.594-3.848-8.594-8.594v-11.055l3.168-4.797-3.168-4.797v-2.855c0-4.746 3.848-8.594 8.594-8.594s8.594 3.848 8.594 8.594v23.504c0 4.746-3.848 8.594-8.594 8.594z" fill="#373c41"/></g></g></g><g><path d="m298.226 100.066c.986.001 1.96-.047 2.928-.119-9.264-16.253-25.025-27.482-45.198-27.482h-88.299c-9.464 0-18.132 2.477-25.694 6.777v2.196c-19.413 9.058-32.087 28.451-32.087 52.25l-2.274 54.974v31.554c0 59.556 49.9 107.227 109.797 104.054-43.381-12.598-75.091-52.632-75.091-100.077.258-5.863 0-62.674 0-84.254 0-.154.001-.307.002-.461.165-21.948 18.249-39.549 40.197-39.527z" fill="#fa968c"/></g><g><g><g><g><path d="m187.141 146.678h-25.062c-4.746 0-8.594-3.848-8.594-8.594 0-4.746 3.848-8.594 8.594-8.594h25.062c4.746 0 8.594 3.848 8.594 8.594 0 4.746-3.848 8.594-8.594 8.594z" fill="#c1400e"/></g></g></g></g><g><g><g><g><path d="m258.757 146.678h-25.062c-4.746 0-8.594-3.848-8.594-8.594 0-4.746 3.848-8.594 8.594-8.594h25.062c4.746 0 8.594 3.848 8.594 8.594 0 4.746-3.848 8.594-8.594 8.594z" fill="#c1400e"/></g></g></g></g><g><path d="m243.451 239.211h-8.849l-23.305 4.838-23.305-4.838h-7.828c-2.626 0-4.724 2.292-4.374 4.895.67 4.979 2.349 9.638 4.823 13.766l47.189 13.984c10.657-5.231 18.378-15.528 20.023-27.75.35-2.603-1.748-4.895-4.374-4.895z" fill="#be1423"/></g><g><g><g><path d="m197.882 203.866c-2.136 8.531 1.746 17.824 9.171 20.625 1.494.564 3.092.869 4.754.869 1.661 0 3.26-.305 4.754-.869 7.425-2.801 11.308-12.094 9.171-20.625l-7.082-28.282c-1.783-7.12-11.902-7.12-13.685 0z" fill="#fa968c"/></g></g></g><g><g><path d="m291.311 19.712c13.078 0 23.679 10.602 23.679 23.679v93.117.003 52.153c-7.633 0-13.821-6.188-13.821-13.821v-60.986c0-7.735-2.484-15.143-6.897-21.16-4.411-6.014-11.149-9.793-18.499-11.054-.1-.017-.169-.033-.201-.048l5-61.882h10.739z" fill="#c1400e"/></g></g><g><path d="m170.393 175.186c-1.75 0-3.168-1.418-3.168-3.168v-9.594c0-1.75 1.418-3.168 3.168-3.168 1.75 0 3.168 1.418 3.168 3.168v9.594c0 1.75-1.419 3.168-3.168 3.168z" fill="#fff"/></g><g><path d="m240.416 175.186c-1.75 0-3.168-1.418-3.168-3.168v-9.594c0-1.75 1.418-3.168 3.168-3.168 1.75 0 3.168 1.418 3.168 3.168v9.594c0 1.75-1.418 3.168-3.168 3.168z" fill="#fff"/></g><g><path d="m180.616 257.869c6.351 10.593 17.941 17.686 31.19 17.686 5.74 0 11.166-1.335 15.992-3.704-2.075-13.015-13.347-22.963-26.946-22.963-8.026-.001-15.242 3.465-20.236 8.981z" fill="#ff3c3c"/></g><g><path d="m229.475 248.887h-36.357c-2.831 0-5.127-2.295-5.127-5.127v-4.55h46.611v4.55c-.001 2.832-2.296 5.127-5.127 5.127z" fill="#fff"/></g><g><path d="m174.589 52.376v39.581l77.634.108c21.404.021 38.766-17.324 38.766-38.728v-53.337l-64.171.081c-28.856.037-52.229 23.439-52.229 52.295z" fill="#cd5014"/></g><g><g><path d="m175.606 59.015c0-32.485 26.318-58.827 58.803-58.857h-68.004c-32.485.03-58.803 26.373-58.803 58.857v77.493.003 52.153c7.633 0 13.821-6.188 13.821-13.821v-61.026c0-.081 0-.162.001-.242.082-12.047 10.103-21.672 22.151-21.66l32.032.031v-32.931z" fill="#c1400e"/></g></g><g><path d="m163.102 215.379c-22.163 0-40.193-18.03-40.193-40.193 0-22.162 18.03-40.192 40.193-40.192s40.193 18.03 40.193 40.192c0 22.163-18.03 40.193-40.193 40.193zm0-74.385c-18.854 0-34.193 15.339-34.193 34.192 0 18.854 15.339 34.193 34.193 34.193s34.193-15.339 34.193-34.193-15.339-34.192-34.193-34.192z" fill="#373c41"/></g><g><path d="m260.109 215.379c-22.163 0-40.193-18.03-40.193-40.193 0-22.162 18.03-40.192 40.193-40.192s40.193 18.03 40.193 40.192c0 22.163-18.031 40.193-40.193 40.193zm0-74.385c-18.854 0-34.193 15.339-34.193 34.192 0 18.854 15.339 34.193 34.193 34.193s34.193-15.339 34.193-34.193-15.339-34.192-34.193-34.192z" fill="#373c41"/></g><g><path d="m163.102 215.379c-22.163 0-40.193-18.03-40.193-40.193h6c0 18.854 15.339 34.193 34.193 34.193z" fill="#1f2123"/></g><g><path d="m260.109 215.379c-22.163 0-40.193-18.03-40.193-40.193h6c0 18.854 15.339 34.193 34.193 34.193z" fill="#1f2123"/></g><g><path d="m202.322 175.076-4.2-4.285c4.448-4.36 9.028-6.569 13.618-6.569.056 0 .112 0 .168.001 4.558.053 9.009 2.28 13.231 6.619l-4.3 4.184c-3.069-3.153-6.098-4.77-9.001-4.804-.032 0-.063 0-.095 0-2.966-.001-6.134 1.631-9.421 4.854z" fill="#373c41"/></g><g><circle cx="287.218" cy="242.788" fill="#fa968c" r="7.761"/></g><g><circle cx="287.218" cy="242.788" fill="#ffdcd7" r="3.098"/></g><g><circle cx="149.725" cy="227.265" fill="#fa968c" r="7.761"/></g><g><circle cx="149.725" cy="227.265" fill="#ffdcd7" r="3.098"/></g><g><circle cx="211.296" cy="115.302" fill="#fa968c" r="7.761"/></g><g><circle cx="211.296" cy="115.302" fill="#ffdcd7" r="3.098"/></g><g><circle cx="167.225" cy="271.855" fill="#fa968c" r="7.761"/></g><g><circle cx="167.225" cy="271.855" fill="#ffdcd7" r="3.098"/></g><path d="m369.796 385.798v96.677c26.211-13.986 49.611-32.648 69.04-54.932l4.633-41.745z" fill="#fab9af"/><g><g><g><path d="m355.46 385.347-1.322 2.27z" fill="#695a6e"/></g></g><g><path d="m483.471 342.051c-1.941-9.191-8.291-16.833-16.97-20.425l-18.569-7.685c-2.846-1.178-6.111-.677-8.473 1.299l-10.358 8.664c-3.545 2.966-8.2 4.253-12.765 3.531l-22.631-3.58c-5.422-.858-10.026-4.436-12.196-9.478l-3.316-7.705c-1.372-3.188-4.587-5.181-8.053-4.992l-23.321 1.276c-.291.016-.581.036-.871.061-10.867.929-19.603 9.365-21.307 20.138l-12.873 81.383c-.133.843-.395 1.621-.755 2.329l29.204 4.619 10.731-19.081c1.598-2.841 4.329-4.759 7.4-5.386-.034-.517-.024-1.043.036-1.571.483-4.287 5.007-7.288 9.13-6.636l79.816 12.625c.605-.059 1.222-.063 1.844.007 4.287.483 7.288 5.006 6.636 9.13l3.717-.45c10.353-15.946 18.898-33.206 25.33-51.507z" fill="#594d5e"/><g><path d="m324.853 344.659 22.65-39.384c.486-.846 1.014-1.659 1.577-2.441l-2.262.124c-9.621.527-18.323 5.883-23.126 14.236l-22.65 39.385c-12.33 24.037-4.287 53.51 18.544 67.952 5.332 3.373 12.402 1.589 15.495-3.911l5.557-9.881c-20.7-15.004-27.604-43.038-15.785-66.08z" fill="#453d49"/></g><g><circle cx="349.042" cy="335.844" fill="#453d49" r="13.775"/></g><path d="m458.234 393.692c-.908-4.513-4.528-7.985-9.075-8.704-4.763-.754-8.717-4.193-9.959-8.853-1.354-5.081-5.577-9.185-11.164-10.068-5.582-.883-10.873 1.715-13.731 6.137-2.616 4.049-7.44 6.095-12.201 5.342l-4.743-.75c-4.868-.77-8.681-4.444-9.885-9.223-1.474-5.848-6.388-10.556-12.854-11.365-7.895-.988-15.329 4.447-16.789 12.268-.364 1.953-.338 3.882.022 5.711.578 2.939.148 5.986-1.32 8.597l-1.672 2.974-5.154 8.854 1.323-2.273c2.309-3.967 6.818-6.108 11.352-5.391l3.713.587 59.251 9.372c4.547.719 8.167 4.191 9.075 8.704l4.413 21.932c7.514-8.618 14.433-17.777 20.692-27.417z" fill="#453d49"/><g><circle cx="426.681" cy="374.629" fill="#2b282d" r="13.775"/></g><g><circle cx="349.839" cy="330.801" fill="#927e8f" r="13.775"/></g><g><circle cx="457.531" cy="337.261" fill="#453d49" r="5.481"/></g><g><circle cx="454.072" cy="359.132" fill="#453d49" r="5.481"/></g><g><circle cx="466.737" cy="349.927" fill="#453d49" r="5.481"/></g><g><circle cx="444.866" cy="346.467" fill="#453d49" r="5.481"/></g><g><circle cx="373.549" cy="366.225" fill="#2b282d" r="15.177"/></g><g><circle cx="458.063" cy="333.899" fill="#ffc305" r="5.481"/></g><g><circle cx="454.603" cy="355.77" fill="#be5ab9" r="5.481"/></g><g><circle cx="467.269" cy="346.564" fill="#f5595a" r="5.481"/></g><g><circle cx="445.398" cy="343.105" fill="#5ab4ff" r="5.481"/></g></g></g><g><path d="m367.024 354.477c-2.7 0-5.415-.905-7.655-2.764-5.101-4.231-5.806-11.796-1.575-16.897l22.485-27.108c4.231-5.103 11.797-5.806 16.897-1.575 5.101 4.231 5.806 11.796 1.575 16.897l-22.485 27.108c-2.372 2.861-5.794 4.339-9.242 4.339z" fill="#fab9af"/></g><g><path d="m389.093 364.049c-2.7 0-5.415-.905-7.655-2.764-5.101-4.231-5.806-11.796-1.575-16.897l22.485-27.108c4.231-5.103 11.797-5.806 16.897-1.575 5.101 4.231 5.806 11.796 1.575 16.897l-22.485 27.108c-2.373 2.862-5.795 4.339-9.242 4.339z" fill="#fab9af"/></g><g><path d="m421.824 355.797c-2.699 0-5.414-.905-7.654-2.764-5.101-4.231-5.806-11.797-1.575-16.897l22.486-27.108c4.231-5.103 11.797-5.807 16.897-1.575 5.101 4.231 5.806 11.797 1.575 16.897l-22.486 27.108c-2.373 2.862-5.796 4.339-9.243 4.339z" fill="#fab9af"/></g><g><path d="m447.495 360.16c-2.444 0-4.909-.744-7.039-2.289-5.364-3.893-6.556-11.396-2.664-16.76l17.607-24.262c3.893-5.365 11.395-6.557 16.76-2.664 5.364 3.893 6.556 11.396 2.664 16.76l-17.607 24.262c-2.347 3.235-6.008 4.953-9.721 4.953z" fill="#fab9af"/></g><g><path d="m418.51 426.647c-.813 0-1.638-.066-2.467-.203l-56.946-9.422c-7.586-1.255-12.995-8.044-12.523-15.719l1.735-28.244c.507-8.269 7.625-14.568 15.891-14.052 8.269.508 14.56 7.623 14.052 15.892l-.905 14.734 43.593 7.213c8.173 1.353 13.702 9.074 12.35 17.247-1.215 7.345-7.573 12.554-14.78 12.554z" fill="#fab9af"/></g></g></g></svg>