<svg id="Layer_1" enable-background="new 0 0 511 511" height="512" viewBox="0 0 511 511" width="512" xmlns="http://www.w3.org/2000/svg"><g><g><path d="m255.5 27c-93.128 0-150.496 52.53-150.654 52.619 0 0-2.385 2.977-2.831 4.956-3.624 16.084-7.009 37.641-7.009 53.371 0 133.653 112.709 241.973 246.362 241.973 51.467 0 108.727-24.667 147.05-54.325.857-.663 3.577-5.121 3.577-5.121.169-1.031 5.505-22.28 5.505-51.473 0-133.653-108.347-242-242-242z" fill="#afe6ff"/><path d="m341.347 373.088c-133.653 0-242-108.347-242-242 0-17.666 1.905-34.879 5.499-51.469-55.655 44.338-91.346 112.693-91.346 189.381 0 62.756 23.888 119.934 63.067 162.935l357.871-.005c28.066-30.787 48.345-68.932 57.558-111.456-41.339 32.926-93.692 52.614-150.649 52.614z" fill="#73c8f0"/></g><g><g><g><path d="m356.924 228.447-3.269-26.007 3.269-35.324c13.361 0 26.193 10.832 26.193 24.193v12.946c0 13.361-12.832 24.192-26.193 24.192z" fill="#fa968c"/></g></g><g><g><path d="m357.975 210.157-1.319-10.496 1.319-14.256c5.392 0 10.571 4.371 10.571 9.764v5.224c0 5.393-5.179 9.764-10.571 9.764z" fill="#fa735f"/></g></g><g><g><path d="m153.277 223.011 3.269-26.007-3.269-35.324c-13.361 0-26.193 10.832-26.193 24.193v12.946c0 13.36 12.832 24.192 26.193 24.192z" fill="#fa968c"/></g></g><g><g><path d="m152.226 204.721 1.319-10.496-1.319-14.256c-5.392 0-10.571 4.371-10.571 9.764v5.224c.001 5.393 5.179 9.764 10.571 9.764z" fill="#fa735f"/></g></g><path d="m381.086 361.407-125.856-27.85-67.275 14.932v152.937c21.44 6.221 44.099 9.574 67.545 9.574 70.49 0 134.475-30.311 178.931-79.077v-4.077c0-31.916-22.183-59.544-53.345-66.439z" fill="#fa870a"/><path d="m76.569 427.811v4.122c29.766 32.67 68.359 57.152 112.007 69.687v-73.809c0-31.9 22.16-59.518 53.302-66.43l69.439-15.412-56.088-12.412-125.357 27.823c-31.142 6.912-53.303 34.531-53.303 66.431z" fill="#fa690f"/><path d="m255.741 428.127c33.664 0 60.953-27.29 60.953-60.953v-20.016l-61.464-13.601-60.443 13.416v20.202c0 33.663 27.29 60.952 60.954 60.952z" fill="#fff"/><g><g><path d="m255.741 402.255c-20.073 0-36.344-16.272-36.344-36.344v-81.406h72.689v81.406c-.001 20.072-16.273 36.344-36.345 36.344z" fill="#fab9af"/></g></g><g><g><path d="m354.335 156.987c0-33.168-21.278-63.497-54.445-63.497h-88.298c-9.464 0-18.132 2.477-25.694 6.777v175.309c0 38.263 30.776 69.577 69.038 69.867.268.002.537.003.805.003 56.987 0 103.183-46.197 103.183-103.183v-32.575z" fill="#ffbe82"/></g></g><path d="m219.396 284.505v81.406c40.413 7.849 64.954-5.603 72.689-25.837v-55.569z" fill="#fa735f"/><g><g><path d="m354.335 156.987c0-33.168-21.278-63.497-54.445-63.497h-88.298c-9.464 0-18.132 2.477-25.694 6.777v175.309c0 38.263 30.776 69.577 69.038 69.867.268.002.537.003.805.003 56.987 0 103.183-46.197 103.183-103.183v-32.575z" fill="#fab9af"/></g></g><g><g><path d="m211.159 203.705v7.276c0 4.746 3.848 8.594 8.594 8.594s8.594-3.848 8.594-8.594v-7.276z" fill="#fa968c"/></g></g><g><g><path d="m281.182 203.705v7.276c0 4.746 3.848 8.594 8.594 8.594s8.594-3.848 8.594-8.594v-7.276z" fill="#fa968c"/></g></g><g><g><path d="m219.753 212.691c-4.746 0-8.594-3.848-8.594-8.594v-11.055l3.168-4.797-3.168-4.797v-2.855c0-4.746 3.848-8.594 8.594-8.594s8.594 3.848 8.594 8.594v23.504c-.001 4.746-3.849 8.594-8.594 8.594z" fill="#373c41"/></g></g><g><g><path d="m289.776 212.691c-4.746 0-8.594-3.848-8.594-8.594v-11.055l3.168-4.797-3.168-4.797v-2.855c0-4.746 3.848-8.594 8.594-8.594s8.594 3.848 8.594 8.594v23.504c0 4.746-3.848 8.594-8.594 8.594z" fill="#373c41"/></g></g><path d="m342.16 121.09c.986.001 1.96-.047 2.928-.119-9.264-16.253-25.025-27.482-45.198-27.482h-88.299c-9.464 0-18.132 2.477-25.694 6.777v2.196c-19.413 9.058-32.087 28.451-32.087 52.25l-2.274 54.974v31.554c0 59.556 49.9 107.227 109.797 104.054-43.381-12.598-75.091-52.632-75.091-100.077.258-5.863 0-62.674 0-84.254 0-.154.001-.307.002-.461.165-21.948 18.249-39.549 40.197-39.527z" fill="#fa968c"/><path d="m358.881 256.414c-.039-11.387-.058-26.415.043-46.727l-13.836-17.315c0 21.14-17.137 38.278-38.278 38.278h-101.175c-22.245 0-40.278-18.033-40.278-40.278l-13.821 19.315c.113 20.43.085 35.469.038 46.855-.09 22.129-4.816 43.883-12.814 64.515-2.149 5.543-3.327 11.569-3.327 17.872 0 27.349 22.17 49.519 49.519 49.519h140.555c27.349 0 49.519-22.17 49.519-49.519 0-6.399-1.215-12.513-3.427-18.125-8.096-20.545-12.643-42.307-12.718-64.39z" fill="#c1400e"/><g><path d="m360.51 357.447h-140.555c-27.349 0-49.519-22.17-49.519-49.519 0-6.303 1.179-12.329 3.328-17.872 7.96-20.534 12.674-42.179 12.808-64.198-12.629-6.799-21.215-20.138-21.215-35.486l-13.821 19.315c.113 20.43.085 35.469.039 46.855-.09 22.128-4.816 43.882-12.814 64.515-2.149 5.543-3.328 11.569-3.328 17.872 0 27.349 22.17 49.519 49.519 49.519h140.555c21.311 0 39.475-13.464 46.457-32.349-3.677.873-7.509 1.348-11.454 1.348z" fill="#b22e06"/></g><g><g><g><path d="m231.075 167.702h-25.062c-4.746 0-8.594-3.848-8.594-8.594 0-4.746 3.848-8.594 8.594-8.594h25.062c4.746 0 8.594 3.848 8.594 8.594 0 4.747-3.848 8.594-8.594 8.594z" fill="#c1400e"/></g></g></g><g><g><g><path d="m302.691 167.702h-25.062c-4.746 0-8.594-3.848-8.594-8.594 0-4.746 3.848-8.594 8.594-8.594h25.062c4.746 0 8.594 3.848 8.594 8.594 0 4.747-3.848 8.594-8.594 8.594z" fill="#c1400e"/></g></g></g><path d="m287.385 260.235h-8.849l-23.305 4.838-23.305-4.838h-7.828c-2.626 0-4.724 2.292-4.374 4.895.67 4.979 2.349 9.638 4.823 13.766l47.189 13.984c10.657-5.231 18.378-15.528 20.023-27.75.35-2.603-1.748-4.895-4.374-4.895z" fill="#961e0f"/><g><g><path d="m241.816 224.891c-2.136 8.531 1.746 17.824 9.171 20.625 1.494.564 3.092.869 4.754.869 1.661 0 3.26-.305 4.754-.869 7.425-2.801 11.308-12.094 9.171-20.625l-7.082-28.282c-1.783-7.12-11.902-7.12-13.685 0z" fill="#fa968c"/></g></g><g><path d="m335.245 40.736c13.078 0 23.679 10.602 23.679 23.679v93.117.003 52.153c-7.633 0-13.821-6.188-13.821-13.821v-60.986c0-7.735-2.484-15.143-6.897-21.16-4.411-6.014-11.149-9.793-18.499-11.054-.1-.017-.169-.033-.201-.048l5-61.882h10.739z" fill="#c1400e"/></g><path d="m214.327 196.211c-1.75 0-3.168-1.418-3.168-3.168v-9.594c0-1.75 1.418-3.168 3.168-3.168 1.75 0 3.168 1.418 3.168 3.168v9.594c0 1.749-1.419 3.168-3.168 3.168z" fill="#fff"/><path d="m284.35 196.211c-1.75 0-3.168-1.418-3.168-3.168v-9.594c0-1.75 1.418-3.168 3.168-3.168 1.75 0 3.168 1.418 3.168 3.168v9.594c0 1.749-1.418 3.168-3.168 3.168z" fill="#fff"/><path d="m224.55 278.893c6.351 10.593 17.941 17.686 31.19 17.686 5.74 0 11.166-1.335 15.992-3.704-2.075-13.015-13.347-22.963-26.946-22.963-8.026 0-15.242 3.466-20.236 8.981z" fill="#ff3c3c"/><path d="m273.409 269.912h-36.357c-2.831 0-5.127-2.295-5.127-5.127v-4.55h46.611v4.55c-.001 2.832-2.296 5.127-5.127 5.127z" fill="#fff"/><path d="m210.339 21.182c-32.485.041-58.803 26.373-58.803 58.857v77.493.003 52.153c7.633 0 13.821-6.188 13.821-13.821v-61.026c0-.084 0-.168.001-.252.085-12.046 10.104-21.668 22.15-21.651l91.932.128c33.51.047 63.672-20.312 76.162-51.407l16.322-40.635z" fill="#cd5014"/><g><path d="m219.54 80.039c0-32.485 26.318-58.827 58.803-58.857h-68.004c-32.485.03-58.803 26.373-58.803 58.857v77.493.003 52.153c7.633 0 13.821-6.188 13.821-13.821v-61.026c0-.081 0-.162.001-.242.082-12.047 10.103-21.672 22.151-21.66l32.032.031v-32.931z" fill="#c1400e"/></g><g><g><g fill="#373c41"><path d="m344.091 84.896c8.947 14.655 13.946 31.447 14.008 48.617 0 .129.001.258.001.387v23.952h27v-23.952c0-12.741-1.79-25.072-5.13-36.755-5.573-16.697-13.084-32.684-22.379-47.633l-.935-1.504-18.954 26.422z"/><path d="m271.376 1.519c-6.583-.999-13.32-1.519-20.177-1.519-73.832 0-133.899 60.067-133.899 133.9v23.952h27v-23.952c0-58.945 47.955-106.9 106.9-106.9 6.896 0 13.64.665 20.176 1.918z"/></g><g><path d="m109.632 138.885h42.334v39.493h-42.334z" fill="#232628"/></g><g><path d="m357.433 138.885h42.334v39.493h-42.334z" fill="#232628"/></g><g><g><g><path d="m358.433 227.8v-61.331c13.361 0 24.193 10.832 24.193 24.193v12.946c-.001 13.36-10.832 24.192-24.193 24.192z" fill="#ff965a"/></g></g></g><g><g><g><path d="m358.433 207.225v-20.183c4.397 0 7.961 3.564 7.961 7.961v4.26c0 4.398-3.564 7.962-7.961 7.962z" fill="#ef6a30"/></g></g></g><g><g><g><path d="m143.459 199.164c0 4.19 3.396 7.586 7.586 7.586v-19.231c-4.19 0-7.586 3.396-7.586 7.586z" fill="#ef6a30"/></g></g></g><g><g><path d="m100.095 212.857v-32.982h-12.807c-5.299 0-9.594 4.296-9.594 9.594v23.387h22.401z" fill="#dc1428"/></g><g><path d="m100.095 237.049h-12.807c-5.299 0-9.594-4.296-9.594-9.594v-14.927h22.401z" fill="#be1423"/></g><g><path d="m86.708 171.672h14.797v73.581h-14.797z" fill="#373c41" transform="matrix(-1 0 0 -1 188.214 416.924)"/></g><g><path d="m98.326 171.672h28.83v42.693h-28.83z" fill="#dc1428"/></g><g><path d="m98.326 213.694h28.83v31.558h-28.83z" fill="#be1423"/></g><g><path d="m134.721 224.747v-62.24h-15.212c-5.455 0-9.877 4.422-9.877 9.877v52.363z" fill="#ff3c3c"/></g><g><path d="m134.721 254.417h-15.212c-5.455 0-9.877-4.422-9.877-9.877v-20.475h25.089z" fill="#dc1428"/></g><g><path d="m151.966 226.008v-63.413c0-7.618-5.854-14.173-13.464-14.531-8.125-.383-14.832 6.091-14.832 14.132v63.813c0 7.451 6.04 13.491 13.491 13.491h1.314c7.451-.001 13.491-6.041 13.491-13.492z" fill="#373c41"/></g><g><path d="m137.819 238.659c-7.814 0-14.148-6.334-14.148-14.148v30.471c0 7.813 6.334 14.148 14.148 14.148s14.148-6.334 14.148-14.148v-30.471c-.001 7.814-6.335 14.148-14.148 14.148z" fill="#232628"/></g></g><g><g><path d="m431.705 212.851v-23.381c0-5.299-4.296-9.594-9.594-9.594h-12.807v32.976h22.401z" fill="#dc1428"/></g><g><path d="m409.304 237.049h12.807c5.299 0 9.594-4.296 9.594-9.594v-14.927h-22.401z" fill="#be1423"/></g><g><path d="m407.893 171.672h14.797v73.581h-14.797z" fill="#373c41"/></g><g><path d="m382.243 171.672h28.83v42.528h-28.83z" fill="#dc1428" transform="matrix(-1 0 0 -1 793.316 385.872)"/></g><g><path d="m382.243 213.694h28.83v31.558h-28.83z" fill="#be1423" transform="matrix(-1 0 0 -1 793.316 458.947)"/></g><g><path d="m399.767 224.576v-52.192c0-5.455-4.422-9.877-9.877-9.877h-15.212v62.069z" fill="#ff3c3c"/></g><g><path d="m374.678 254.417h15.212c5.455 0 9.877-4.422 9.877-9.877v-20.475h-25.089z" fill="#dc1428"/></g><g><path d="m371.58 239.438c7.814 0 14.148-6.334 14.148-14.148v-63.095c0-7.814-6.334-14.148-14.148-14.148-7.814 0-14.148 6.334-14.148 14.148v63.095c.001 7.814 6.335 14.148 14.148 14.148z" fill="#373c41"/></g><g><path d="m371.58 238.659c7.814 0 14.148-6.334 14.148-14.148v30.471c0 7.813-6.334 14.148-14.148 14.148s-14.148-6.334-14.148-14.148v-30.471c.001 7.814 6.335 14.148 14.148 14.148z" fill="#232628"/></g></g><g><path d="m144.299 138.885h-27v-4.985c0-29.685 9.515-57.805 27.515-81.321 17.419-22.756 42.111-39.604 69.528-47.438l7.418 25.961c-45.607 13.033-77.461 55.305-77.461 102.799z" fill="#373c41"/></g><g><path d="m301.321 9.725c-9.554-3.86-19.629-6.664-30.085-8.234l-4.01 26.7c12.122 1.821 23.611 5.701 34.095 11.272z" fill="#50555a"/></g><g><path d="m335.853 68.612c-11.705-15.152-27.24-26.905-44.926-33.99l10.04-25.063c22.153 8.874 41.604 23.586 56.253 42.546z" fill="#696e73"/></g></g></g><path d="m255.888 27.103v85.93l23.553.033c33.51.047 63.672-20.312 76.162-51.407l16.322-40.635-48.601.047z" fill="#cd5014"/></g></g></svg>