<svg id="Layer_1" enable-background="new 0 0 511.59 511.59" height="512" viewBox="0 0 511.59 511.59" width="512" xmlns="http://www.w3.org/2000/svg"><g><g><path d="m255.795 21.108c-94.375 0-152.511 53.234-152.671 53.323 0 0-2.417 3.017-2.869 5.022-3.672 16.3-7.103 38.145-7.103 54.086 0 135.443 114.218 245.214 249.661 245.214 52.156 0 110.183-24.997 149.019-55.052.869-.672 3.625-5.19 3.625-5.19.171-1.045 5.578-22.578 5.578-52.163.001-135.442-109.797-245.24-245.24-245.24z" fill="#afe6ff"/><path d="m342.791 371.831c-135.443 0-245.241-109.798-245.241-245.241 0-17.903 1.931-35.346 5.573-52.158-56.4 44.932-92.57 114.202-92.57 191.917 0 35.327 7.47 68.91 20.916 99.255l420.595 47.817c20.717-27.597 35.781-59.779 43.392-94.909-41.891 33.368-94.945 53.319-152.665 53.319z" fill="#73c8f0"/></g><path d="m393.88 333.908-71.244-15.765-130.965-.193-71.771 15.93c-33.964 7.538-58.133 37.659-58.133 72.45l260.723 96.056c52.229-14.751 97.619-46.409 129.569-88.97v-7.047c0-34.809-24.193-64.94-58.179-72.461z" fill="#ffa50a"/><path d="m182.181 372.039c9.88-18.938 27.745-33.281 49.725-38.159l80.8-17.934-56.088-12.411-136.719 30.345c-21.979 4.878-39.845 19.221-49.725 38.159z" fill="#fa870a"/><g><g><g><path d="m360.337 205.875h-1l-6.835-33.606 6.835-27.725h1c13.361 0 24.193 10.832 24.193 24.193v12.946c0 13.36-10.832 24.192-24.193 24.192z" fill="#b22e06"/></g></g></g><g><path d="m257.153 409.883c36.165 0 65.483-29.318 65.483-65.483v-26.258l-66.018-14.609-64.948 14.415v26.451c.001 36.167 29.318 65.484 65.483 65.484z" fill="#fff"/></g><g><g><g><path d="m257.153 379.683c20.073 0 36.344-16.272 36.344-36.344v-81.406h-72.689v81.406c.001 20.072 16.273 36.344 36.345 36.344z" fill="#c1400e"/></g></g></g><g><g><g><path d="m355.748 134.415c0-33.168-21.278-63.497-54.445-63.497h-88.298c-9.464 0-18.132 2.477-25.694 6.777v175.309c0 38.264 30.776 69.577 69.038 69.867.268.002.537.003.805.003 56.987 0 103.183-46.197 103.183-103.183v-32.575z" fill="#c1400e"/></g></g></g><g><g><g><path d="m360.337 186.837v-23.256c5.066 0 9.174 4.107 9.174 9.174v4.909c-.001 5.066-4.108 9.173-9.174 9.173z" fill="#872d1e"/></g></g></g><g><g><g><path d="m128.756 181.682c0 13.361 10.832 24.193 24.193 24.193h1.553l12.385-26.092-12.178-35.239h-1.761c-13.361 0-24.193 10.832-24.193 24.193v12.945z" fill="#b22e06"/></g></g></g><g><g><g><path d="m143.107 177.842c0 5.435 4.406 9.841 9.841 9.841v-24.949c-5.435 0-9.841 4.406-9.841 9.841z" fill="#872d1e"/></g></g></g><g><g><g><path d="m136.502 188.942c0 9.083 7.364 16.447 16.447 16.447v-32.694c-9.083 0-16.447 7.364-16.447 16.447z" fill="#fff"/></g></g></g><g><g><g><path d="m212.571 181.132v7.276c0 4.746 3.848 8.594 8.594 8.594s8.594-3.848 8.594-8.594v-7.276z" fill="#b22e06"/></g></g></g><g><g><g><path d="m282.594 181.132v7.276c0 4.746 3.848 8.594 8.594 8.594s8.594-3.848 8.594-8.594v-7.276z" fill="#b22e06"/></g></g></g><g><g><g><path d="m221.165 190.119c-4.746 0-8.594-3.848-8.594-8.594v-11.055l3.168-4.797-3.168-4.797v-2.855c0-4.746 3.848-8.594 8.594-8.594s8.594 3.848 8.594 8.594v23.504c0 4.746-3.848 8.594-8.594 8.594z" fill="#373c41"/></g></g></g><g><g><g><path d="m291.188 190.119c-4.746 0-8.594-3.848-8.594-8.594v-11.055l3.168-4.797-3.168-4.797v-2.855c0-4.746 3.848-8.594 8.594-8.594s8.594 3.848 8.594 8.594v23.504c0 4.746-3.848 8.594-8.594 8.594z" fill="#373c41"/></g></g></g><g><g><g><g><path d="m232.487 145.13h-25.062c-4.746 0-8.594-3.848-8.594-8.594 0-4.746 3.848-8.594 8.594-8.594h25.062c4.746 0 8.594 3.848 8.594 8.594 0 4.746-3.847 8.594-8.594 8.594z" fill="#373c41"/></g></g></g></g><g><g><g><g><path d="m304.104 145.13h-25.062c-4.746 0-8.594-3.848-8.594-8.594 0-4.746 3.848-8.594 8.594-8.594h25.062c4.746 0 8.594 3.848 8.594 8.594 0 4.746-3.848 8.594-8.594 8.594z" fill="#373c41"/></g></g></g></g><g><path d="m271.096 0h-28.906c-49.286 0-89.241 39.955-89.241 89.241v45.719.003 52.153c7.633 0 13.821-6.188 13.821-13.821v-61.026h179.747v61.026c0 7.633 6.188 13.821 13.821 13.821v-52.153c0-.001 0-.002 0-.003v-45.719c-.001-49.286-39.956-89.241-89.242-89.241z" fill="#c1400e"/></g><g><path d="m215.739 173.638c-1.75 0-3.168-1.418-3.168-3.168v-9.594c0-1.75 1.418-3.168 3.168-3.168 1.75 0 3.168 1.418 3.168 3.168v9.594c0 1.75-1.418 3.168-3.168 3.168z" fill="#fff"/></g><g><path d="m285.763 173.638c-1.75 0-3.168-1.418-3.168-3.168v-9.594c0-1.75 1.418-3.168 3.168-3.168 1.75 0 3.168 1.418 3.168 3.168v9.594c0 1.75-1.419 3.168-3.168 3.168z" fill="#fff"/></g><g><path d="m148.392 228.312c-2.485 0-4.5-2.015-4.5-4.5v-33.693c0-2.485 2.015-4.5 4.5-4.5s4.5 2.015 4.5 4.5v33.693c0 2.486-2.015 4.5-4.5 4.5z" fill="#fff"/></g><g><g><g><path d="m376.784 191.443c0 9.083-7.364 16.447-16.447 16.447v-32.694c9.083 0 16.447 7.364 16.447 16.447z" fill="#fff"/></g></g></g><g><path d="m364.894 230.813c-2.485 0-4.5-2.015-4.5-4.5v-33.693c0-2.485 2.015-4.5 4.5-4.5s4.5 2.015 4.5 4.5v33.693c0 2.486-2.015 4.5-4.5 4.5z" fill="#fff"/></g><g><path d="m187.655 222.647c.256-5.827.296-133.406.296-133.406 0-48.266 38.319-87.576 86.193-89.184-1.013-.034-2.028-.057-3.048-.057h-28.906c-49.286 0-89.241 39.955-89.241 89.241v129.428c0 59.556 49.9 107.227 109.797 104.054-43.381-12.598-75.091-52.632-75.091-100.076z" fill="#b22e06"/></g><g><g><path d="m198.831 98.049h113.867v10h-113.867z" fill="#b22e06"/></g></g><g><g><path d="m198.831 77.631h113.867v10h-113.867z" fill="#b22e06"/></g></g><path d="m276.561 213.713h-15.342c-.188 0-1.121.002-2.534.006-13.298.039-24.061 10.832-24.061 24.13v86.43c0 13.329 10.759 24.159 24.087 24.247l4.036.027h13.814c14.891 0 26.963-12.072 26.963-26.963v-80.914c0-14.892-12.072-26.963-26.963-26.963z" fill="#373c41"/><g><path d="m235.784 321.589v-80.914c0-14.891 12.072-26.963 26.963-26.963h-25.001c-14.891 0-26.963 12.072-26.963 26.963v80.914c0 14.891 12.072 26.963 26.963 26.963h25.001c-14.891 0-26.963-12.071-26.963-26.963z" fill="#1f2123"/></g><g><g><g><path d="m243.229 202.319c-2.136 8.531 1.746 17.824 9.171 20.625 1.494.564 3.092.869 4.754.869 1.661 0 3.26-.305 4.754-.869 7.425-2.801 11.308-12.094 9.171-20.625l-7.082-28.282c-1.783-7.12-11.902-7.12-13.685 0z" fill="#b22e06"/></g></g></g><g><path d="m277.949 283.419h-41.591c-5.475 0-9.913-4.438-9.913-9.913v-24.284c0-5.475 4.438-9.913 9.913-9.913h41.591c5.475 0 9.913 4.438 9.913 9.913v24.284c-.001 5.474-4.439 9.913-9.913 9.913z" fill="#c1400e"/></g><g><path d="m248.767 253.738h15.752v38.752h-15.752z" fill="#373c41"/></g><g><path d="m237.403 245.977h39.678v12h-39.678z" fill="#b22e06"/></g><g><path d="m370.385 468.637h-54.671v-31.046h54.671c4.684 0 8.482 3.797 8.482 8.482v14.082c0 4.684-3.797 8.482-8.482 8.482z" fill="#fff"/></g><path d="m300.784 365.597h-269.3c4.67 10.538 10.06 20.686 16.108 30.38l41.475 50.205c43.752 40.59 102.339 65.407 166.728 65.407 23.067 0 45.443-3.214 66.692-9.214v-115.075c0-11.986-9.717-21.703-21.703-21.703z" fill="#3c5064"/><path d="m287.199 446.178c0-27.726-22.476-50.202-50.202-50.202h-189.402c11.566 18.537 25.535 35.415 41.477 50.202z" fill="#3c5a73"/><g><circle cx="145.429" cy="318.921" fill="#55879b" r="37.788"/></g><g><path d="m130.693 318.921h29.473v58.775h-29.473z" fill="#3c5a73"/></g><g><circle cx="145.429" cy="318.921" fill="#46738c" r="14.737"/></g></g></svg>