<svg id="Layer_1" enable-background="new 0 0 511 511" height="512" viewBox="0 0 511 511" width="512" xmlns="http://www.w3.org/2000/svg"><g><g><path d="m255.5 1c-98.131 0-158.58 55.352-158.747 55.445 0 0-2.513 3.137-2.983 5.222-3.818 16.948-7.385 39.663-7.385 56.238 0 140.833 118.763 254.972 259.596 254.972 54.231 0 114.568-25.992 154.949-57.243.903-.699 3.769-5.396 3.769-5.396.178-1.087 5.8-23.477 5.8-54.239.001-140.832-114.166-254.999-254.999-254.999z" fill="#afe6ff"/><path d="m345.959 365.679c-140.833 0-255-114.167-255-255 0-18.615 2.007-36.753 5.795-54.234-58.645 46.72-96.254 118.747-96.254 199.555 0 61.422 21.716 117.772 57.89 161.791l394.212.015c25.145-30.582 43.353-67.203 52.098-107.567-43.56 34.695-98.725 55.44-158.741 55.44z" fill="#73c8f0"/></g><g><g><g><path d="m356.924 237.286-3.269-26.007 3.269-35.324c13.361 0 26.193 10.832 26.193 24.193v12.946c0 13.36-12.832 24.192-26.193 24.192z" fill="#ff965a"/></g></g></g><g><g><g><path d="m357.975 218.996-1.319-10.496 1.319-14.256c5.392 0 10.571 4.371 10.571 9.764v5.224c0 5.393-5.179 9.764-10.571 9.764z" fill="#ef6a30"/></g></g></g><g><g><g><path d="m153.277 231.85 3.269-26.007-3.269-35.324c-13.361 0-26.193 10.832-26.193 24.193v12.946c0 13.36 12.832 24.192 26.193 24.192z" fill="#ff965a"/></g></g></g><g><g><g><path d="m152.226 213.56 1.319-10.496-1.319-14.256c-5.392 0-10.571 4.371-10.571 9.764v5.224c.001 5.393 5.179 9.764 10.571 9.764z" fill="#ef6a30"/></g></g></g><path d="m398.714 374.155-143.522-31.759-73.478 16.309v141.435c18.06 5.452 36.958 8.973 56.465 10.281l14.42-7.585 17.604 7.745c73.026-4.171 138.344-39.216 182.389-92.783-9.859-21.659-29.449-38.237-53.878-43.643z" fill="#39ae96"/><path d="m58.394 417.787c31.817 38.717 74.821 67.88 124.067 82.579v-50.487c0-36.378 25.271-67.872 60.784-75.755l77.549-17.212-65.603-14.517-142.955 31.729c-24.417 5.421-43.994 22.005-53.842 43.663z" fill="#1c9585"/><g><path d="m255.775 450.241c38.389 0 69.509-31.12 69.509-69.509v-22.826l-70.092-15.51-68.927 15.299v23.038c0 38.387 31.121 69.508 69.51 69.508z" fill="#1c9585"/></g><g><path d="m219.544 349.413h-51.584c-4.726 0-7.755 5.028-5.545 9.206l28.437 53.77c4.428 8.372 14.054 12.573 23.203 10.125l42.686-11.42z" fill="#fff"/></g><g><path d="m291.749 349.413h51.584c4.726 0 7.755 5.028 5.545 9.206l-28.437 53.77c-4.428 8.372-14.054 12.573-23.203 10.125l-42.686-11.42z" fill="#fff"/></g><path d="m219.396 374.75c0 20.073 16.272 36.344 36.344 36.344 20.072 0 36.344-16.272 36.344-36.344v-81.406z" fill="#ff965a"/><g><g><g><path d="m354.335 165.826c0-33.168-21.278-63.497-54.445-63.497h-88.298c-9.464 0-18.132 2.477-25.694 6.777v175.309c0 38.264 30.776 69.577 69.038 69.867.268.002.537.003.805.003 56.987 0 103.183-46.197 103.183-103.183v-32.575z" fill="#ffbe82"/></g></g></g><g><path d="m219.396 293.344v81.406c40.413 7.849 64.954-5.603 72.689-25.837v-55.569z" fill="#ef6a30"/></g><g><g><g><path d="m354.335 165.826c0-33.168-21.278-63.497-54.445-63.497h-88.298c-9.464 0-18.132 2.477-25.694 6.777v175.309c0 38.264 30.776 69.577 69.038 69.867.268.002.537.003.805.003 56.987 0 103.183-46.197 103.183-103.183v-32.575z" fill="#ffbe82"/></g></g></g><g><g><g><path d="m211.159 212.543v7.276c0 4.746 3.848 8.594 8.594 8.594s8.594-3.848 8.594-8.594v-7.276z" fill="#ff965a"/></g></g></g><g><g><g><path d="m281.182 212.543v7.276c0 4.746 3.848 8.594 8.594 8.594s8.594-3.848 8.594-8.594v-7.276z" fill="#ff965a"/></g></g></g><g><g><g><path d="m219.753 221.53c-4.746 0-8.594-3.848-8.594-8.594v-11.055l3.168-4.797-3.168-4.797v-2.855c0-4.746 3.848-8.594 8.594-8.594s8.594 3.848 8.594 8.594v23.504c-.001 4.746-3.848 8.594-8.594 8.594z" fill="#373c41"/></g></g></g><g><g><g><path d="m289.776 221.53c-4.746 0-8.594-3.848-8.594-8.594v-11.055l3.168-4.797-3.168-4.797v-2.855c0-4.746 3.848-8.594 8.594-8.594s8.594 3.848 8.594 8.594v23.504c0 4.746-3.848 8.594-8.594 8.594z" fill="#373c41"/></g></g></g><g><path d="m342.16 129.929c.986.001 1.96-.047 2.928-.119-9.264-16.253-25.025-27.482-45.198-27.482h-88.299c-9.464 0-18.132 2.477-25.694 6.777v2.196c-19.413 9.058-32.087 28.451-32.087 52.25l-2.274 54.974v31.554c0 59.556 49.9 107.227 109.797 104.054-43.381-12.598-75.091-52.632-75.091-100.077.258-5.863 0-62.674 0-84.254 0-.154.001-.307.002-.461.165-21.948 18.249-39.549 40.197-39.527z" fill="#ff965a"/></g><g><g><g><g><path d="m231.075 176.541h-25.062c-4.746 0-8.594-3.848-8.594-8.594 0-4.746 3.848-8.594 8.594-8.594h25.062c4.746 0 8.594 3.848 8.594 8.594 0 4.746-3.848 8.594-8.594 8.594z" fill="#b22e06"/></g></g></g></g><g><g><g><g><path d="m302.691 176.541h-25.062c-4.746 0-8.594-3.848-8.594-8.594 0-4.746 3.848-8.594 8.594-8.594h25.062c4.746 0 8.594 3.848 8.594 8.594 0 4.746-3.848 8.594-8.594 8.594z" fill="#b22e06"/></g></g></g></g><g><path d="m287.385 269.074h-8.849l-23.305 4.838-23.305-4.838h-7.828c-2.626 0-4.724 2.292-4.374 4.895.67 4.979 2.349 9.638 4.823 13.766l47.189 13.984c10.657-5.231 18.378-15.528 20.023-27.75.35-2.603-1.748-4.895-4.374-4.895z" fill="#be1423"/></g><g><g><g><path d="m241.816 233.73c-2.136 8.531 1.746 17.824 9.171 20.625 1.494.564 3.092.869 4.754.869 1.661 0 3.26-.305 4.754-.869 7.425-2.801 11.308-12.094 9.171-20.625l-7.082-28.282c-1.783-7.12-11.902-7.12-13.685 0z" fill="#ff965a"/></g></g></g><g><g><path d="m358.924 108.579v57.792.003 52.153c-7.633 0-13.821-6.188-13.821-13.821v-61.026c0-13.479-7.586-25.903-19.707-31.799-.297-.145-.594-.286-.89-.423v-2.878h34.418z" fill="#b22e06"/></g></g><g><path d="m224.55 287.732c6.351 10.593 17.941 17.686 31.19 17.686 5.74 0 11.166-1.335 15.992-3.704-2.075-13.015-13.347-22.963-26.946-22.963-8.026 0-15.242 3.465-20.236 8.981z" fill="#ff3c3c"/></g><g><path d="m273.409 278.751h-36.357c-2.831 0-5.127-2.295-5.127-5.127v-4.55h46.611v4.55c-.001 2.831-2.296 5.127-5.127 5.127z" fill="#fff"/></g><g><path d="m210.339 30.021c-32.485.03-58.803 26.373-58.803 58.857v77.493.003 52.153c7.633 0 13.821-6.188 13.821-13.821v-61.026c0-.081 0-.162.001-.242.082-12.047 10.103-21.672 22.151-21.66l154.652.152c21.404.021 38.766-17.324 38.766-38.728v-53.339z" fill="#cd5014"/></g><g><g><path d="m219.54 88.878c0-32.485 26.318-58.827 58.803-58.857l102.582-.095v-.063l-170.587.158c-32.485.03-58.803 26.373-58.803 58.857v77.493.003 52.153c7.633 0 13.821-6.188 13.821-13.821v-61.026c0-.081 0-.162.001-.242.082-12.047 10.103-21.672 22.151-21.66l32.032.031z" fill="#b22e06"/></g></g><path d="m165.27 198.598c0 8.412 2.643 16.207 7.143 22.599l10.072 9.915c3.946 2.686 8.406 4.672 13.201 5.78l11.432.927c20.52-1.312 36.756-18.371 36.756-39.221z" fill="#0540e5"/><g><path d="m195.015 198.598-22.593 22.593c2.731 3.88 6.14 7.247 10.065 9.918l32.511-32.511z" fill="#2896ff"/></g><g><path d="m243.875 198.598h-9.904l-38.282 38.282c2.856.66 5.827 1.021 8.883 1.021.856 0 1.703-.037 2.546-.091l36.666-36.666c.054-.843.091-1.69.091-2.546z" fill="#2896ff"/></g><path d="m267.308 198.598c0 8.412 2.643 16.207 7.143 22.599l9.796 9.725c4.013 2.782 8.569 4.836 13.478 5.97l11.432.927c20.52-1.312 36.756-18.371 36.756-39.221z" fill="#0540e5"/><g><path d="m297.053 198.598-22.593 22.593c2.731 3.88 6.14 7.247 10.065 9.918l32.511-32.511z" fill="#2896ff"/></g><g><path d="m345.914 198.598h-9.904l-38.282 38.282c2.856.66 5.827 1.021 8.883 1.021.856 0 1.703-.037 2.546-.091l36.666-36.666c.054-.843.091-1.69.091-2.546z" fill="#2896ff"/></g><g><path d="m349.097 199.401h-79.836c-2.209 0-4-1.791-4-4 0-5.065-4.121-9.187-9.188-9.187-5.065 0-9.187 4.121-9.187 9.187 0 2.209-1.791 4-4 4h-82.376c-2.209 0-4-1.791-4-4s1.791-4 4-4h78.847c1.808-7.554 8.617-13.187 16.717-13.187 8.101 0 14.91 5.633 16.718 13.187h76.306c2.209 0 4 1.791 4 4s-1.792 4-4.001 4z" fill="#1e2d64"/></g><path d="m238.181 510.402c5.725.384 11.497.598 17.319.598 5.177 0 10.317-.167 15.423-.473v-99.433h-32.742z" fill="#fff"/><g><circle cx="254.552" cy="467.479" fill="#55c7a6" r="8.264"/></g><g><g><g><g><path d="m351.78 97.145c4.214 11.468 6.531 23.844 6.531 36.755v23.952h27v-23.952c0-12.741-1.79-25.072-5.13-36.755l-2.767-10.069z" fill="#373c41"/></g><g><path d="m272.417 1.519c-6.582-.999-13.32-1.519-20.177-1.519-73.832 0-133.899 60.067-133.899 133.9v23.952h27v-23.952c0-58.945 47.955-106.9 106.9-106.9 6.896 0 13.64.665 20.176 1.918z" fill="#373c41"/></g></g><g><g><path d="m110.673 138.885h42.334v39.493h-42.334z" fill="#232628"/></g></g><g><g><path d="m358.474 138.885h42.334v39.493h-42.334z" fill="#232628"/></g></g><g><g><g><g><path d="m359.474 227.8v-61.331c13.361 0 24.193 10.832 24.193 24.193v12.946c0 13.36-10.832 24.192-24.193 24.192z" fill="#ff965a"/></g></g></g></g><g><g><g><g><path d="m359.474 207.225v-20.183c4.397 0 7.961 3.564 7.961 7.961v4.26c0 4.398-3.564 7.962-7.961 7.962z" fill="#ef6a30"/></g></g></g></g><g><g><g><g><path d="m144.5 199.164c0 4.19 3.396 7.586 7.586 7.586v-19.231c-4.19 0-7.586 3.396-7.586 7.586z" fill="#ef6a30"/></g></g></g></g><g><g><g><path d="m101.136 212.857v-32.982h-12.807c-5.299 0-9.594 4.296-9.594 9.594v23.387h22.401z" fill="#dc1428"/></g></g><g><g><path d="m101.136 237.049h-12.807c-5.299 0-9.594-4.296-9.594-9.594v-14.927h22.401z" fill="#be1423"/></g></g><g><g><path d="m87.75 171.672h14.797v73.581h-14.797z" fill="#373c41" transform="matrix(-1 0 0 -1 190.296 416.924)"/></g></g><g><g><path d="m99.367 171.672h28.83v42.693h-28.83z" fill="#dc1428"/></g></g><g><g><path d="m99.367 213.694h28.83v31.558h-28.83z" fill="#be1423"/></g></g><g><g><path d="m135.762 224.747v-62.24h-15.212c-5.455 0-9.877 4.422-9.877 9.877v52.363z" fill="#ff3c3c"/></g></g><g><g><path d="m135.762 254.417h-15.212c-5.455 0-9.877-4.422-9.877-9.877v-20.475h25.089z" fill="#dc1428"/></g></g><g><g><path d="m153.008 226.008v-63.413c0-7.618-5.854-14.173-13.464-14.531-8.125-.383-14.832 6.091-14.832 14.132v63.813c0 7.451 6.04 13.491 13.491 13.491h1.314c7.451-.001 13.491-6.041 13.491-13.492z" fill="#373c41"/></g></g><g><g><path d="m138.86 238.659c-7.814 0-14.148-6.334-14.148-14.148v30.471c0 7.813 6.334 14.148 14.148 14.148s14.148-6.334 14.148-14.148v-30.471c0 7.814-6.335 14.148-14.148 14.148z" fill="#232628"/></g></g></g><g><g><g><path d="m432.747 212.851v-23.381c0-5.299-4.296-9.594-9.594-9.594h-12.807v32.976h22.401z" fill="#dc1428"/></g></g><g><g><path d="m410.345 237.049h12.807c5.299 0 9.594-4.296 9.594-9.594v-14.927h-22.401z" fill="#be1423"/></g></g><g><g><path d="m408.935 171.672h14.797v73.581h-14.797z" fill="#373c41"/></g></g><g><g><path d="m383.284 171.672h28.83v42.528h-28.83z" fill="#dc1428" transform="matrix(-1 0 0 -1 795.399 385.872)"/></g></g><g><g><path d="m383.285 213.694h28.83v31.558h-28.83z" fill="#be1423" transform="matrix(-1 0 0 -1 795.399 458.947)"/></g></g><g><g><path d="m400.808 224.576v-52.192c0-5.455-4.422-9.877-9.877-9.877h-15.212v62.069z" fill="#ff3c3c"/></g></g><g><g><path d="m375.719 254.417h15.212c5.455 0 9.877-4.422 9.877-9.877v-20.475h-25.089z" fill="#dc1428"/></g></g><g><g><path d="m372.622 239.438c7.814 0 14.148-6.334 14.148-14.148v-63.095c0-7.814-6.334-14.148-14.148-14.148-7.814 0-14.148 6.334-14.148 14.148v63.095c0 7.814 6.334 14.148 14.148 14.148z" fill="#373c41"/></g></g><g><g><path d="m372.622 238.659c7.814 0 14.148-6.334 14.148-14.148v30.471c0 7.813-6.334 14.148-14.148 14.148s-14.148-6.334-14.148-14.148v-30.471c0 7.814 6.334 14.148 14.148 14.148z" fill="#232628"/></g></g></g><g><g><path d="m145.341 138.885h-27v-4.985c0-29.685 9.515-57.805 27.515-81.321 17.419-22.756 42.111-39.604 69.528-47.438l7.418 25.961c-45.607 13.033-77.461 55.305-77.461 102.799z" fill="#373c41"/></g></g><g><g><path d="m302.362 9.725c-9.554-3.86-19.629-6.664-30.085-8.234l-4.01 26.7c12.122 1.821 23.611 5.701 34.095 11.272z" fill="#50555a"/></g></g><g><g><path d="m336.894 68.612c-11.705-15.152-27.24-26.905-44.926-33.99l10.04-25.063c22.153 8.874 41.604 23.586 56.253 42.546z" fill="#696e73"/></g></g></g></g><g><path d="m268.907 29.967v91.89l73.253.072c21.404.021 38.766-17.324 38.766-38.728v-53.338z" fill="#cd5014"/></g></g></svg>