<svg id="Layer_1" enable-background="new 0 0 511 511" height="512" viewBox="0 0 511 511" width="512" xmlns="http://www.w3.org/2000/svg"><g><g><path d="m255.5 4.341c-97.488 0-157.541 54.989-157.707 55.082 0 0-2.497 3.116-2.964 5.188-3.793 16.837-7.337 39.403-7.337 55.87 0 139.91 117.985 253.301 257.895 253.301 53.876 0 113.817-25.822 153.934-56.868.897-.694 3.745-5.361 3.745-5.361.176-1.08 5.762-23.323 5.762-53.883.001-139.909-113.418-253.329-253.328-253.329z" fill="#afe6ff"/><g fill="#73c8f0"><path d="m503.067 311.554c-22.552 17.963-48.235 32.161-76.1 41.641l64.401-2.939c4.878-12.434 8.809-25.362 11.699-38.702z"/><path d="m345.366 366.631c28.551 0 55.997-4.726 81.601-13.437l-140.998 6.435c19.052 4.578 38.941 7.002 59.397 7.002z"/><path d="m92.037 113.302c0-18.493 1.994-36.512 5.757-53.878-58.261 46.413-95.623 117.968-95.623 198.247 0 40.879 9.682 79.496 26.879 113.684l256.919-11.725c-111.254-26.731-193.932-126.874-193.932-246.328z"/></g></g><g><g><path d="m440.592 325.253c-1.246 0-2.514-.195-3.762-.607-6.294-2.076-9.713-8.862-7.636-15.155l22.427-67.968c2.077-6.294 8.862-9.714 15.155-7.636 6.294 2.076 9.713 8.862 7.636 15.155l-22.427 67.968c-1.665 5.046-6.355 8.243-11.393 8.243z" fill="#a55a3c"/></g><path d="m321.111 344.194-11.967-2.648c-16.252-3.596-32.66-6.385-49.164-8.358-44.815-2.336-89.187 9.846-126.527 34.737l-5.144 3.429v105.448c37.38 21.744 80.831 34.198 127.191 34.198 41.285 0 80.441-9.931 115.077-27.62l3.879-12.36v-60.386c0-31.917-22.183-59.544-53.345-66.44z" fill="#ff6196"/><path d="m140.078 347.508c-8.401 0-11.442-8.284-9.159-14.32-16.585 1.985-33.076 4.777-49.408 8.402 0 0-42.056 9.378-52.461 29.765 22.208 44.151 56.949 80.914 99.551 105.619v-66.376c0-15.739 5.402-30.43 14.609-42.112v-21.424c-.947.282-1.987.446-3.132.446z" fill="#ff4181"/><g><path d="m260.723 326.503c-3.262 0-5.907 2.645-5.907 5.907v95.487c0 32.561-26.49 59.051-59.051 59.051-2.945 0-5.837-.224-8.667-.642v11.907c2.843.349 5.731.549 8.667.549 39.075 0 70.865-31.79 70.865-70.865v-95.487c0-3.262-2.644-5.907-5.907-5.907z" fill="#ffc305"/></g><g><path d="m195.223 492.519c0-3.05-2.326-5.573-5.361-5.876-29.798-2.972-53.147-28.178-53.147-58.746v-95.24c0-3.234-2.492-6.055-5.725-6.152-3.345-.101-6.089 2.582-6.089 5.904v95.487c0 36.68 28.016 66.93 63.772 70.5 3.499.351 6.55-2.36 6.55-5.877z" fill="#ffa50a"/></g><g><path d="m91.561 0h207.388v99.614h-207.388z" fill="#272a2d"/></g><g><path d="m91.561 0h67.819v99.614h-67.819z" fill="#272a2d"/></g><g><g><g><path d="m296.949 211.234-3.269-26.007 3.269-35.324c13.361 0 26.193 10.832 26.193 24.193v12.946c0 13.361-12.832 24.192-26.193 24.192z" fill="#934d34"/></g></g></g><g><g><g><path d="m298 192.944-1.319-10.496 1.319-14.255c5.392 0 10.571 4.371 10.571 9.764v5.224c-.001 5.392-5.179 9.763-10.571 9.763z" fill="#783c28"/></g></g></g><g><g><g><path d="m93.302 205.798 3.269-26.007-3.269-35.324c-13.361 0-26.193 10.832-26.193 24.193v12.946c0 13.36 12.831 24.192 26.193 24.192z" fill="#934d34"/></g></g></g><g><g><g><path d="m92.251 187.508 1.319-10.496-1.319-14.256c-5.392 0-10.571 4.371-10.571 9.764v5.224c0 5.393 5.179 9.764 10.571 9.764z" fill="#783c28"/></g></g></g><g><path d="m195.765 409.631c32.547 0 58.932-26.385 58.932-58.932v-18.11c-17.706-1.928-35.514-2.925-53.351-2.973l-10.386-.027c-18.095 0-36.162.978-54.126 2.914v18.196c0 32.547 26.385 58.932 58.931 58.932z" fill="#fff"/></g><g><g><g><path d="m195.766 385.042c-20.073 0-36.344-16.272-36.344-36.344v-81.406h72.689v81.406c-.001 20.072-16.273 36.344-36.345 36.344z" fill="#934d34"/></g></g></g><g><path d="m159.421 267.292v81.406c40.413 7.849 64.954-5.603 72.689-25.837v-55.569z" fill="#783c28"/></g><g><g><g><path d="m294.36 139.774c0-33.168-21.278-63.497-54.445-63.497h-88.298c-9.464 0-18.132 2.477-25.694 6.777v175.309c0 38.263 30.776 69.577 69.038 69.867.268.002.537.003.805.003 56.987 0 103.183-46.197 103.183-103.183v-32.575z" fill="#a55a3c"/></g></g></g><g><g><g><path d="m151.183 186.492v7.276c0 4.746 3.848 8.594 8.594 8.594s8.594-3.848 8.594-8.594v-7.276z" fill="#934d34"/></g></g></g><g><g><g><path d="m221.207 186.492v7.276c0 4.746 3.848 8.594 8.594 8.594s8.594-3.848 8.594-8.594v-7.276z" fill="#934d34"/></g></g></g><g><g><g><path d="m159.777 195.478c-4.746 0-8.594-3.848-8.594-8.594v-11.054l3.168-4.797-3.168-4.797v-2.855c0-4.746 3.848-8.594 8.594-8.594s8.594 3.848 8.594 8.594v23.504c0 4.745-3.848 8.593-8.594 8.593z" fill="#373c41"/></g></g></g><g><g><g><path d="m229.801 195.478c-4.746 0-8.594-3.848-8.594-8.594v-11.054l3.168-4.797-3.168-4.797v-2.855c0-4.746 3.848-8.594 8.594-8.594s8.594 3.848 8.594 8.594v23.504c0 4.745-3.848 8.593-8.594 8.593z" fill="#373c41"/></g></g></g><g><path d="m239.915 76.277h-88.298c-9.321 0-17.867 2.406-25.348 6.587-.109.061-.22.119-.329.18-.006.003-.012.006-.018.01v-2.804c-19.413 9.058-32.088 33.451-32.088 57.251l-2.274 54.974v31.554c0 59.556 49.9 107.227 109.797 104.054-43.38-12.598-75.091-52.632-75.091-100.077.258-5.863 0-62.674 0-84.254 0-.071 0-15.395 0-31.932 0-13.922 11.147-25.469 25.069-25.541.093 0 .186-.001.279-.001h88.298c21.764 0 38.408 13.059 47.281 31.41v-10.001c-8.87-18.351-25.514-31.41-47.278-31.41z" fill="#934d34"/></g><g><g><g><g><path d="m171.1 150.489h-25.062c-4.746 0-8.594-3.848-8.594-8.594 0-4.746 3.848-8.594 8.594-8.594h25.062c4.746 0 8.594 3.848 8.594 8.594 0 4.747-3.848 8.594-8.594 8.594z" fill="#783c28"/></g></g></g></g><g><g><g><g><path d="m242.716 150.489h-25.062c-4.746 0-8.594-3.848-8.594-8.594 0-4.746 3.848-8.594 8.594-8.594h25.062c4.746 0 8.594 3.848 8.594 8.594 0 4.747-3.848 8.594-8.594 8.594z" fill="#783c28"/></g></g></g></g><g><g><g><path d="m181.841 207.678c-2.136 8.531 1.746 17.824 9.171 20.625 1.494.564 3.092.869 4.754.869 1.661 0 3.26-.305 4.754-.869 7.425-2.801 11.308-12.094 9.171-20.625l-7.082-28.282c-1.783-7.12-11.902-7.12-13.685 0z" fill="#934d34"/></g></g></g><g><g><path d="m298.949 79.527v60.792.003 52.153c-7.633 0-13.821-6.188-13.821-13.821v-61.026c0-13.479-7.586-28.904-19.707-34.8-.297-.145-.594-.286-.89-.423v-2.878z" fill="#272a2d"/></g></g><g><g><path d="m91.52 79.527v60.792.003 52.153c7.633 0 13.821-6.188 13.821-13.821v-61.026c0-13.479 7.586-28.904 19.707-34.8.297-.145.594-.286.89-.423v-2.878z" fill="#272a2d"/></g></g><g><path d="m154.351 178.998c-1.75 0-3.168-1.418-3.168-3.168v-9.594c0-1.75 1.418-3.168 3.168-3.168 1.75 0 3.168 1.418 3.168 3.168v9.594c.001 1.749-1.418 3.168-3.168 3.168z" fill="#fff"/></g><g><path d="m224.375 178.998c-1.75 0-3.168-1.418-3.168-3.168v-9.594c0-1.75 1.418-3.168 3.168-3.168 1.75 0 3.168 1.418 3.168 3.168v9.594c0 1.749-1.419 3.168-3.168 3.168z" fill="#fff"/></g><g><path d="m164.578 261.685c1.075 1.792 2.311 3.474 3.668 5.049h55.044c3.378-3.923 5.938-8.571 7.404-13.684h-69.865c.877 3.062 2.139 5.96 3.742 8.634z" fill="#961e0f"/></g><g><path d="m160.873 253.214h69.771c.501-1.719.895-3.484 1.139-5.297.351-2.602-1.748-4.895-4.374-4.895h-63.288c-2.626 0-4.724 2.292-4.374 4.895.245 1.812.626 3.58 1.126 5.297z" fill="#fff"/></g><g><path d="m167.977 266.414c6.666 7.913 16.632 12.953 27.788 12.953 5.738 0 11.162-1.334 15.987-3.702l.008.002c4.559-2.238 8.573-5.408 11.812-9.253z" fill="#fff"/></g><g><path d="m184.482 288.534h22.585v8h-22.585z" fill="#934d34"/></g><path d="m370.577 360.315v123.065l2.328-1.204c29.431-15.417 55.52-36.468 76.775-61.796l5.383-15.745v-44.319h-84.486z" fill="#a55a3c"/><g><g><g><path d="m356.241 359.864-1.322 2.27z" fill="#695a6e"/></g></g><g><path d="m484.252 316.568c-1.941-9.191-8.291-16.833-16.97-20.425l-18.569-7.685c-2.846-1.178-6.111-.677-8.473 1.299l-10.358 8.664c-3.545 2.966-8.199 4.253-12.765 3.531l-22.631-3.58c-5.422-.858-10.026-4.436-12.196-9.478l-3.315-7.705c-1.372-3.188-4.588-5.181-8.053-4.991l-23.321 1.276c-.291.016-.581.036-.871.061-10.867.929-19.603 9.365-21.307 20.138l-12.873 81.383c-.133.843-.395 1.622-.755 2.329l29.204 4.619 10.731-19.081c1.597-2.841 4.329-4.759 7.4-5.386-.034-.517-.024-1.043.036-1.571.483-4.287 5.007-7.288 9.13-6.636l79.816 12.625c.605-.059 1.222-.063 1.844.007 4.287.483 7.288 5.007 6.636 9.13l-4.813 30.427 13.562-5.871c10.387-15.323 19.149-31.866 26.027-49.393z" fill="#594d5e"/><g><path d="m325.634 319.176 22.65-39.384c.486-.846 1.014-1.659 1.577-2.441l-2.262.124c-9.621.527-18.323 5.883-23.126 14.236l-22.65 39.385c-12.33 24.037-4.287 53.51 18.544 67.952 5.332 3.373 12.402 1.589 15.495-3.911l5.557-9.881c-20.7-15.005-27.604-43.038-15.785-66.08z" fill="#453d49"/></g><g><circle cx="349.822" cy="310.361" fill="#453d49" r="13.775"/></g><g fill="#453d49"><path d="m459.015 368.209c-.908-4.513-4.528-7.985-9.075-8.705-4.763-.753-8.717-4.193-9.959-8.853-1.354-5.081-5.577-9.185-11.164-10.069-5.583-.883-10.874 1.715-13.731 6.137-2.616 4.049-7.44 6.095-12.201 5.342l-4.743-.75c-4.868-.77-8.681-4.444-9.885-9.223-1.474-5.848-6.389-10.556-12.854-11.365-7.895-.988-15.329 4.447-16.789 12.268-.364 1.952-.338 3.882.022 5.711.578 2.939.148 5.986-1.32 8.597l-1.673 2.974-3.83 6.58c2.309-3.966 6.818-6.107 11.351-5.39l3.713.587 59.251 9.372c4.547.719 8.167 4.191 9.075 8.705l6.385 31.732c.866 4.306 4.127 7.509 8.091 8.519 5.56-6.626 10.789-13.544 15.661-20.731z"/><path d="m350.49 369.128 1.324-2.274-.001.001z"/></g><g><circle cx="427.462" cy="349.146" fill="#2b282d" r="13.775"/></g><g><circle cx="350.62" cy="305.318" fill="#927e8f" r="13.775"/></g><g><circle cx="458.312" cy="311.778" fill="#453d49" r="5.481"/></g><g><circle cx="454.853" cy="333.649" fill="#453d49" r="5.481"/></g><g><circle cx="467.518" cy="324.443" fill="#453d49" r="5.481"/></g><g><circle cx="445.647" cy="320.984" fill="#453d49" r="5.481"/></g><g><circle cx="374.33" cy="340.742" fill="#2b282d" r="15.177"/></g><g><circle cx="458.844" cy="308.416" fill="#ffc305" r="5.481"/></g><g><circle cx="455.384" cy="330.287" fill="#be5ab9" r="5.481"/></g><g><circle cx="468.05" cy="321.081" fill="#f5595a" r="5.481"/></g><g><circle cx="446.179" cy="317.622" fill="#5ab4ff" r="5.481"/></g></g></g><g><path d="m365.664 325.147c-1.6 0-3.225-.321-4.784-1.001-6.077-2.646-8.858-9.716-6.212-15.792l14.06-32.292c2.646-6.077 9.719-8.858 15.792-6.212 6.077 2.646 8.858 9.716 6.212 15.792l-14.06 32.292c-1.966 4.516-6.378 7.213-11.008 7.213z" fill="#a55a3c"/></g><g><path d="m389.524 328.204c-1.6 0-3.225-.321-4.784-1.001-6.077-2.646-8.858-9.716-6.212-15.792l14.06-32.292c2.645-6.077 9.719-8.858 15.792-6.212 6.077 2.646 8.858 9.716 6.212 15.792l-14.06 32.292c-1.966 4.517-6.378 7.213-11.008 7.213z" fill="#a55a3c"/></g><g><path d="m414.71 328.204c-1.6 0-3.225-.321-4.784-1.001-6.077-2.646-8.858-9.716-6.212-15.792l14.06-32.292c2.646-6.077 9.718-8.858 15.792-6.212 6.077 2.646 8.858 9.716 6.212 15.792l-14.06 32.292c-1.966 4.517-6.378 7.213-11.008 7.213z" fill="#a55a3c"/></g><g><path d="m419.291 401.163c-.814 0-1.638-.066-2.467-.203l-56.946-9.421c-.279-.046-.557-.101-.832-.162l-41.988-9.411c-8.084-1.812-13.168-9.834-11.356-17.917 1.812-8.085 9.834-13.171 17.917-11.356l41.575 9.318 56.527 9.352c8.173 1.353 13.703 9.074 12.351 17.247-1.216 7.343-7.574 12.553-14.781 12.553z" fill="#a55a3c"/></g></g></g></svg>