<svg id="Layer_1" enable-background="new 0 0 511 511" height="512" viewBox="0 0 511 511" width="512" xmlns="http://www.w3.org/2000/svg"><g><g><path d="m255.5 28.222c-92.893 0-150.116 52.398-150.273 52.486 0 0-2.379 2.969-2.824 4.943-3.614 16.044-6.991 37.546-6.991 53.237 0 133.315 112.424 241.362 245.74 241.362 51.337 0 108.452-24.604 146.679-54.188.855-.662 3.568-5.108 3.568-5.108.168-1.029 5.491-22.223 5.491-51.343-.001-133.315-108.075-241.389-241.39-241.389z" fill="#afe6ff"/><path d="m341.13 373.436c-133.315 0-241.389-108.074-241.389-241.389 0-17.621 1.9-34.791 5.485-51.339-55.515 44.226-91.116 112.408-91.116 188.903 0 56.034 19.092 107.609 51.127 148.574l380.516.017c21.905-27.999 37.798-61.031 45.644-97.247-41.233 32.843-93.453 52.481-150.267 52.481z" fill="#73c8f0"/></g><g><g><path d="m273.721 56.444h-36.443l-5.077-28.655c-2.567-14.493 8.58-27.789 23.299-27.789 14.719 0 25.866 13.296 23.298 27.789z" fill="#373c41"/></g><g><path d="m270.394 39.028h-30.373c-1.947 0-3.879.057-5.8.162l3.057 17.254h36.443l3.051-17.217c-2.11-.127-4.236-.199-6.378-.199z" fill="#be1423"/></g><g><path d="m270.394 48.029h-30.373c-.196 0-.39.006-.585.007v149.282h135.878v-44.369c.001-57.946-46.974-104.92-104.92-104.92z" fill="#373c41"/></g><g><path d="m240.067 48.029h-.046c-57.946 0-104.921 46.975-104.921 104.921v44.369h104.966v-149.29z" fill="#1f2123"/></g><path d="m392.467 372.225-137.261-30.374-67.072 14.887v144.713c21.383 6.204 43.982 9.549 67.366 9.549 76.801 0 145.863-36.069 190.249-92.803-8.709-22.768-28.353-40.456-53.282-45.972z" fill="#58a804"/><path d="m188.764 356.598-70.278 15.598c-24.916 5.53-44.546 23.22-53.244 45.985 30.944 39.57 73.971 69.221 123.522 83.449z" fill="#4f9300"/><g><g><g><path d="m358.924 244.191h-1l-6.835-33.606 6.835-27.725h1c13.361 0 24.193 10.832 24.193 24.193v12.946c0 13.361-10.831 24.192-24.193 24.192z" fill="#ff965a"/></g></g></g><g><path d="m255.741 314.58c-43.188 0-78.199 35.011-78.199 78.199 0 28.746 15.521 53.854 38.631 67.442l40.025-40.025 39.692 39.692c22.791-13.665 38.051-38.601 38.051-67.109-.001-43.188-35.012-78.199-78.2-78.199z" fill="#64bc0f"/></g><g><g><g><path d="m255.741 417.999c20.073 0 36.344-16.272 36.344-36.344v-81.406h-72.689v81.406c0 20.072 16.272 36.344 36.345 36.344z" fill="#ff965a"/></g></g></g><g><g><g><path d="m354.335 172.731c0-33.168-21.278-63.497-54.445-63.497h-88.298c-9.464 0-18.132 2.477-25.694 6.777v175.309c0 38.263 30.776 69.577 69.038 69.867.268.002.537.003.805.003 56.987 0 103.183-46.197 103.183-103.183v-32.575z" fill="#ffbe82"/></g></g></g><g><g><g><path d="m358.924 225.154v-23.256c5.066 0 9.174 4.107 9.174 9.174v4.909c0 5.066-4.107 9.173-9.174 9.173z" fill="#fa735f"/></g></g></g><g><g><g><path d="m127.343 219.998c0 13.361 10.832 24.193 24.193 24.193h1.553l12.385-26.092-12.178-35.239h-1.761c-13.361 0-24.193 10.832-24.193 24.193v12.945z" fill="#ff965a"/></g></g></g><g><g><g><path d="m141.695 216.159c0 5.435 4.406 9.841 9.841 9.841v-24.949c-5.435 0-9.841 4.406-9.841 9.841z" fill="#fa735f"/></g></g></g><g><g><g><path d="m135.089 227.259c0 9.083 7.364 16.447 16.447 16.447v-32.694c-9.083 0-16.447 7.364-16.447 16.447z" fill="#fff"/></g></g></g><g><g><g><path d="m211.159 219.449v7.276c0 4.746 3.848 8.594 8.594 8.594s8.594-3.848 8.594-8.594v-7.276z" fill="#ff965a"/></g></g></g><g><g><g><path d="m281.182 219.449v7.276c0 4.746 3.848 8.594 8.594 8.594s8.594-3.848 8.594-8.594v-7.276z" fill="#ff965a"/></g></g></g><g><g><g><path d="m219.753 228.435c-4.746 0-8.594-3.848-8.594-8.594v-11.055l3.168-4.797-3.168-4.797v-2.855c0-4.746 3.848-8.594 8.594-8.594s8.594 3.848 8.594 8.594v23.504c-.001 4.746-3.849 8.594-8.594 8.594z" fill="#373c41"/></g></g></g><g><g><g><path d="m289.776 228.435c-4.746 0-8.594-3.848-8.594-8.594v-11.055l3.168-4.797-3.168-4.797v-2.855c0-4.746 3.848-8.594 8.594-8.594s8.594 3.848 8.594 8.594v23.504c0 4.746-3.848 8.594-8.594 8.594z" fill="#373c41"/></g></g></g><g><path d="m269.683 66.318h-28.906c-49.286 0-89.241 39.955-89.241 89.241v45.719.003 52.153c7.633 0 13.821-6.188 13.821-13.821v-61.026h179.747v61.026c0 7.633 6.188 13.821 13.821 13.821v-52.153c0-.001 0-.002 0-.003v-45.719c-.001-49.286-39.955-89.241-89.242-89.241z" fill="#ffbe82"/></g><g><path d="m214.327 211.955c-1.75 0-3.168-1.418-3.168-3.168v-9.594c0-1.75 1.418-3.168 3.168-3.168 1.75 0 3.168 1.418 3.168 3.168v9.594c0 1.75-1.419 3.168-3.168 3.168z" fill="#fff"/></g><g><path d="m284.35 211.955c-1.75 0-3.168-1.418-3.168-3.168v-9.594c0-1.75 1.418-3.168 3.168-3.168 1.75 0 3.168 1.418 3.168 3.168v9.594c0 1.75-1.418 3.168-3.168 3.168z" fill="#fff"/></g><g><path d="m146.979 266.629c-2.485 0-4.5-2.015-4.5-4.5v-33.694c0-2.485 2.015-4.5 4.5-4.5s4.5 2.015 4.5 4.5v33.694c0 2.486-2.014 4.5-4.5 4.5z" fill="#fff"/></g><g><g><g><path d="m375.371 229.76c0 9.083-7.364 16.447-16.447 16.447v-32.694c9.083 0 16.447 7.364 16.447 16.447z" fill="#fff"/></g></g></g><g><path d="m363.481 269.13c-2.485 0-4.5-2.015-4.5-4.5v-33.693c0-2.485 2.015-4.5 4.5-4.5s4.5 2.015 4.5 4.5v33.693c0 2.486-2.014 4.5-4.5 4.5z" fill="#fff"/></g><g><path d="m186.243 288.965c.256-5.827.296-133.406.296-133.406 0-48.266 38.319-87.576 86.193-89.184-1.012-.034-2.027-.057-3.048-.057h-28.906c-49.286 0-89.241 39.955-89.241 89.241v129.428c0 59.556 49.9 107.227 109.797 104.054-43.381-12.598-75.091-52.631-75.091-100.076z" fill="#ff965a"/></g><g><g><path d="m197.419 136.366h113.867v10h-113.867z" fill="#ff965a"/></g></g><g><g><path d="m197.419 115.948h113.867v10h-113.867z" fill="#ff965a"/></g></g><path d="m358.14 216.495c-6.561 0-11.877 5.329-11.856 11.894.037 11.945-10.505 21.706-22.45 21.706h-116.544v65.857c0 43.924 33.2 80.741 76.89 85.268 43.156-12.347 74.745-52.089 74.745-99.211v-84.73z" fill="#373c41"/><g><path d="m284.178 401.215c-43.573-12.399-75.638-52.489-75.638-100.227 0 0 0-23.718 0-50.893h-21.598c-12.009 0-21.745-9.735-21.745-21.744 0-6.548-5.308-11.856-11.856-11.856h-1.805v84.493c0 59.288 49.567 107.17 109.797 104.054-.002 0-.004-.001-.005-.002 7.885-.42 15.532-1.731 22.85-3.825z" fill="#1f2123"/></g><g><g><path d="m287.385 275.979h-8.849l-23.305 4.838-23.305-4.838h-7.828c-2.626 0-4.724 2.292-4.374 4.895.67 4.979 2.349 9.638 4.823 13.766l47.189 13.984c10.657-5.231 18.378-15.528 20.023-27.75.35-2.603-1.748-4.895-4.374-4.895z" fill="#be1423"/></g><g><path d="m224.55 294.637c6.351 10.593 17.941 17.686 31.19 17.686 5.74 0 11.166-1.335 15.992-3.704-2.075-13.015-13.347-22.963-26.946-22.963-8.026 0-15.242 3.466-20.236 8.981z" fill="#ff3c3c"/></g><g><path d="m273.409 285.656h-36.357c-2.831 0-5.127-2.295-5.127-5.127v-4.55h46.611v4.55c-.001 2.832-2.296 5.127-5.127 5.127z" fill="#fff"/></g></g><path d="m250.987 270.261c1.494.564 3.092.869 4.754.869s3.26-.305 4.754-.869c7.292-2.751 11.153-11.762 9.266-20.165h-28.039c-1.888 8.403 1.973 17.414 9.265 20.165z" fill="#1f2123"/><g><g><g><path d="m241.816 240.635c-2.136 8.531 1.746 17.824 9.171 20.625 1.494.564 3.092.869 4.754.869 1.661 0 3.26-.305 4.754-.869 7.425-2.801 11.308-12.094 9.171-20.625l-7.082-28.282c-1.783-7.12-11.902-7.12-13.685 0z" fill="#ff965a"/></g></g></g><g><g><g><g><path d="m231.075 183.447h-25.062c-4.746 0-8.594-3.848-8.594-8.594 0-4.746 3.848-8.594 8.594-8.594h25.062c4.746 0 8.594 3.848 8.594 8.594 0 4.746-3.848 8.594-8.594 8.594z" fill="#373c41"/></g></g></g></g><g><g><g><g><path d="m302.691 183.447h-25.062c-4.746 0-8.594-3.848-8.594-8.594 0-4.746 3.848-8.594 8.594-8.594h25.062c4.746 0 8.594 3.848 8.594 8.594 0 4.746-3.848 8.594-8.594 8.594z" fill="#373c41"/></g></g></g></g></g></g></svg>