<svg id="Layer_1" enable-background="new 0 0 511 511" height="512" viewBox="0 0 511 511" width="512" xmlns="http://www.w3.org/2000/svg"><g><g><path d="m255.5 24.56c-93.597 0-151.254 52.795-151.413 52.884 0 0-2.397 2.992-2.845 4.981-3.642 16.165-7.044 37.831-7.044 53.64 0 134.327 113.277 243.193 247.603 243.193 51.726 0 109.275-24.791 147.791-54.599.862-.667 3.595-5.147 3.595-5.147.169-1.036 5.533-22.392 5.533-51.733 0-134.325-108.893-243.219-243.22-243.219z" fill="#afe6ff"/><path d="m341.78 372.393c-134.327 0-243.22-108.893-243.22-243.22 0-17.755 1.915-35.055 5.527-51.728-55.936 44.561-91.807 113.26-91.807 190.335 0 63.549 24.372 121.405 64.279 164.732l357.873.009c28.678-31.113 49.398-69.813 58.755-113.008-41.547 33.093-94.163 52.88-151.407 52.88z" fill="#73c8f0"/></g><g><g><path d="m257.327 0c-71.931 0-130.243 58.312-130.243 130.243v106.309c0 15.837 12.838 28.675 28.675 28.675l231.81-134.984c.001-71.931-58.311-130.243-130.242-130.243z" fill="#373c41"/></g><path d="m226.818 224.046c0-1.082.109-2.126.272-3.15v-99.654c0-49.985 28.163-93.385 69.481-115.22-12.385-3.909-25.567-6.022-39.244-6.022-71.931 0-130.243 58.312-130.243 130.243v106.309c0 15.837 12.838 28.675 28.675 28.675h71.059z" fill="#1f2123"/><g><g><g><path d="m153.277 227.687 3.269-26.007-3.269-35.324c-13.361 0-26.193 10.831-26.193 24.193v12.946c0 13.361 12.832 24.192 26.193 24.192z" fill="#ff965a"/></g></g></g><g><g><g><path d="m152.226 209.397 1.319-10.496-1.319-14.256c-5.392 0-10.571 4.371-10.571 9.764v5.224c.001 5.393 5.179 9.764 10.571 9.764z" fill="#ef6a30"/></g></g></g><path d="m381.086 366.083-71.771-15.882-55.815 1.718c-38.774 1.194-69.588 32.971-69.588 71.763v76.602c22.634 6.962 46.672 10.716 71.588 10.716 70.367 0 134.29-30.049 178.931-78.48-.002-31.915-22.184-59.541-53.345-66.437z" fill="#2477f9"/><path d="m76.569 432.487v.016c28.952 31.433 66.076 55.216 108.007 67.98v-67.996c0-31.9 22.16-59.518 53.302-66.43l71.436-15.856-54.085-11.968-125.359 27.824c-31.14 6.912-53.301 34.53-53.301 66.43z" fill="#0540e5"/><path d="m255.741 425.81c29.577 0 53.555-23.977 53.555-53.555v-22.059l-54.065-11.964-53.044 11.773v22.249c-.001 29.579 23.976 53.556 53.554 53.556z" fill="#0540e5"/><g><g><g><path d="m255.741 406.931c-20.073 0-36.344-16.272-36.344-36.344l72.689-81.406v81.406c-.001 20.072-16.273 36.344-36.345 36.344z" fill="#ffbe82"/></g></g></g><g><g><g><path d="m354.335 161.663c0-33.168-21.278-63.497-54.445-63.497h-88.298c-9.464 0-18.132 2.477-25.694 6.777v175.309c0 38.263 30.776 69.577 69.038 69.867.268.002.537.003.805.003 56.987 0 103.183-46.197 103.183-103.183v-32.575z" fill="#ffbe82"/></g></g></g><g><path d="m219.396 289.181v81.406c40.413 7.849 64.954-5.603 72.689-25.837v-55.569z" fill="#ef6a30"/></g><g><g><g><path d="m354.335 161.663c0-33.168-21.278-63.497-54.445-63.497h-88.298c-9.464 0-18.132 2.477-25.694 6.777v175.309c0 38.263 30.776 69.577 69.038 69.867.268.002.537.003.805.003 56.987 0 103.183-46.197 103.183-103.183v-32.575z" fill="#ffbe82"/></g></g></g><g><g><g><path d="m211.159 208.381v7.276c0 4.746 3.848 8.594 8.594 8.594s8.594-3.848 8.594-8.594v-7.276z" fill="#ff965a"/></g></g></g><g><g><g><path d="m281.182 208.381v7.276c0 4.746 3.848 8.594 8.594 8.594s8.594-3.848 8.594-8.594v-7.276z" fill="#ff965a"/></g></g></g><g><g><g><path d="m219.753 217.367c-4.746 0-8.594-3.848-8.594-8.594v-11.055l3.168-4.797-3.168-4.797v-2.855c0-4.746 3.848-8.594 8.594-8.594s8.594 3.848 8.594 8.594v23.504c-.001 4.746-3.848 8.594-8.594 8.594z" fill="#373c41"/></g></g></g><g><g><g><path d="m289.776 217.367c-4.746 0-8.594-3.848-8.594-8.594v-11.055l3.168-4.797-3.168-4.797v-2.855c0-4.746 3.848-8.594 8.594-8.594s8.594 3.848 8.594 8.594v23.504c0 4.746-3.848 8.594-8.594 8.594z" fill="#373c41"/></g></g></g><g><path d="m186.243 249.895c.082-1.867 1.248-145.479 1.248-145.479-19.352 9.079-33.681 31.219-33.681 54.974l-2.273 54.974v31.554c0 59.555 49.9 107.227 109.797 104.054-43.381-12.599-75.091-52.632-75.091-100.077z" fill="#ff965a"/></g><g><g><g><path d="m241.816 229.567c-2.136 8.531 1.746 17.824 9.171 20.625 1.494.564 3.092.869 4.754.869 1.661 0 3.26-.305 4.754-.869 7.425-2.801 11.308-12.094 9.171-20.625l-7.082-28.282c-1.783-7.12-11.902-7.12-13.685 0z" fill="#ff965a"/></g></g></g><g><path d="m214.327 200.887c-1.75 0-3.168-1.418-3.168-3.168v-9.594c0-1.75 1.418-3.168 3.168-3.168 1.75 0 3.168 1.418 3.168 3.168v9.594c0 1.75-1.419 3.168-3.168 3.168z" fill="#fff"/></g><g><path d="m284.35 200.887c-1.75 0-3.168-1.418-3.168-3.168v-9.594c0-1.75 1.418-3.168 3.168-3.168 1.75 0 3.168 1.418 3.168 3.168v9.594c0 1.75-1.418 3.168-3.168 3.168z" fill="#fff"/></g><g><path d="m151.879 137.406-.343 76.958c7.633 0 13.821-6.188 13.821-13.821 0-5.77 0-22.811 0-38.94 0-17.471 14.163-31.632 31.634-31.632h73.278c26.698 0 49.503-19.257 53.975-45.578h-119.116c-29.316 0-53.119 23.696-53.249 53.013z" fill="#373c41"/></g><g><path d="m372.184 311.172-55.731 28.766v-259.689l71.116 50.298v155.37c.001 10.634-5.935 20.378-15.385 25.255z" fill="#373c41"/></g><g><path d="m287.235 279.391-18.953-15.145c-1.88-1.502-4.471-1.748-6.599-.626l-3.038 1.601c-1.766.93-3.877.93-5.642 0l-3.038-1.601c-2.129-1.122-4.72-.876-6.599.626l-18.953 15.145 15.427 15.427c4.239 4.239 9.989 6.621 15.985 6.621 5.995 0 11.745-2.382 15.985-6.621z" fill="#373c41"/></g><g><path d="m287.235 279.391-4.332-3.462c-6.53 2.789-13.119 4.418-19.571 5.971-.457-.254-1.16-.748-1.619-1.069-1.621-1.137-3.159-2.174-5.007-2.194-2.299.022-4.03 1.397-5.42 2.502-.39.31-.951.755-1.281.946-7.063-.697-14.345-2.632-21.754-5.761l-3.839 3.068 5.033 5.033c6.85 2.541 13.617 4.132 20.239 4.749.178.016.354.024.526.024 2.324 0 4.136-1.439 5.484-2.509.281-.224.651-.518.96-.735.321.21.697.474.988.678 1.953 1.371 4.168 2.926 6.706 2.314 5.924-1.424 12.321-2.97 18.816-5.483z" fill="#1f2123"/></g><path d="m213.781 231.001-59.623-17.804c-.852-.255-1.71-.375-2.558-.39l-.064 1.556v17.879l56.808 16.963c.907.271 1.822.4 2.722.4 4.091 0 7.869-2.664 9.099-6.785 1.502-5.026-1.357-10.318-6.384-11.819z" fill="#ff3c3c"/><path d="m213.781 262.914-59.623-17.805c-.873-.261-1.754-.383-2.622-.392v1.2c0 6.401.58 12.663 1.684 18.74l55.125 16.461c.907.271 1.822.4 2.722.4 4.091 0 7.868-2.664 9.099-6.784 1.501-5.026-1.358-10.319-6.385-11.82z" fill="#ff3c3c"/><g><g><g><g><path d="m135.089 213.377c0 9.083 7.364 16.447 16.447 16.447v-32.694c-9.083 0-16.447 7.364-16.447 16.447z" fill="#fff"/></g></g></g></g><g><g><path d="m147.036 252.748c-2.485 0-4.5-2.015-4.5-4.5v-33.693c0-2.485 2.015-4.5 4.5-4.5s4.5 2.015 4.5 4.5v33.693c0 2.485-2.014 4.5-4.5 4.5z" fill="#fff"/></g></g></g></g></svg>