<svg id="Layer_1" enable-background="new 0 0 511 511" height="512" viewBox="0 0 511 511" width="512" xmlns="http://www.w3.org/2000/svg"><g><g><path d="m255.5 24.56c-93.597 0-151.254 52.795-151.413 52.884 0 0-2.397 2.992-2.845 4.981-3.642 16.165-7.044 37.831-7.044 53.64 0 134.327 113.277 243.193 247.603 243.193 51.726 0 109.275-24.791 147.791-54.599.862-.667 3.595-5.147 3.595-5.147.169-1.036 5.533-22.392 5.533-51.733 0-134.325-108.893-243.219-243.22-243.219z" fill="#afe6ff"/><path d="m341.78 372.393c-134.327 0-243.22-108.893-243.22-243.22 0-17.755 1.915-35.055 5.527-51.728-55.936 44.561-91.807 113.26-91.807 190.335 0 54.421 17.873 104.667 48.07 145.189l390.297.011c20.292-27.222 35.053-58.906 42.54-93.467-41.547 33.093-94.163 52.88-151.407 52.88z" fill="#73c8f0"/></g><g><g><path d="m162.918 181.132h-23.944v-79.198c0-7.668 6.216-13.884 13.884-13.884h10.06z" fill="#601a0a"/></g><g><path d="m347.134 183.077h23.944v-79.198c0-7.668-6.216-13.884-13.884-13.884h-10.06z" fill="#70250e"/></g><path d="m326.737 319.363-21.117-4.673-99.758-.204-22.139 4.914-9.497 73.086 9.5 107.731c22.689 7 46.788 10.783 71.774 10.783 24.729 0 48.656-3.725 71.236-10.642l1.549-67.444z" fill="#fff"/><g fill="#373c41"><path d="m60.354 406.33v6.636c30.474 40.894 73.498 71.881 123.369 87.263v-180.829l-65.237 14.479c-33.964 7.539-58.132 37.66-58.132 72.451z"/><path d="m392.467 333.908-65.73-14.545v181c49.923-15.29 93.236-46.235 123.909-87.384v-6.61c0-34.809-24.193-64.94-58.179-72.461z"/></g><path d="m255.206 303.534-49.344 10.952v100.169c0 27.547 22.331 49.879 49.879 49.879 27.547 0 49.879-22.331 49.879-49.879v-99.965z" fill="#e4f2f6"/><g><g><g><path d="m358.924 205.875h-1l-6.835-33.606 6.835-27.725h1c13.361 0 24.193 10.832 24.193 24.193v12.946c0 13.36-10.831 24.192-24.193 24.192z" fill="#ff965a"/></g></g></g><g><g><g><path d="m255.741 379.683c20.073 0 36.344-16.272 36.344-36.344v-81.406h-72.689v81.406c0 20.072 16.272 36.344 36.345 36.344z" fill="#ff965a"/></g></g></g><g><path d="m219.396 341.943c1.443.101 2.894.173 4.361.184.268.002.537.003.805.003 25.82 0 49.426-9.484 67.522-25.159v-55.039h-72.689v80.011z" fill="#ef6a30"/></g><g><g><g><path d="m354.335 134.415c-6.628-69.836-21.278-63.497-54.445-63.497h-88.298c-9.464 0-18.132-9.524-25.694-5.224v187.31c0 38.264 30.776 69.577 69.038 69.867.268.002.537.003.805.003 56.987 0 103.183-46.197 103.183-103.183v-32.575z" fill="#ffbe82"/></g></g></g><g><g><g><path d="m358.924 186.837v-23.256c5.066 0 9.174 4.107 9.174 9.174v4.909c0 5.066-4.107 9.173-9.174 9.173z" fill="#fa735f"/></g></g></g><g><g><g><path d="m127.343 181.682c0 13.361 10.832 24.193 24.193 24.193h1.553l12.385-26.092-12.178-35.239h-1.761c-13.361 0-24.193 10.832-24.193 24.193v12.945z" fill="#ff965a"/></g></g></g><g><g><g><path d="m141.695 177.842c0 5.435 4.406 9.841 9.841 9.841v-24.949c-5.435 0-9.841 4.406-9.841 9.841z" fill="#fa735f"/></g></g></g><g><g><g><path d="m135.089 188.942c0 9.083 7.364 16.447 16.447 16.447v-32.694c-9.083 0-16.447 7.364-16.447 16.447z" fill="#fff"/></g></g></g><g><g><g><path d="m211.159 181.132v7.276c0 4.746 3.848 8.594 8.594 8.594s8.594-3.848 8.594-8.594v-7.276z" fill="#ff965a"/></g></g></g><g><g><g><path d="m281.182 181.132v7.276c0 4.746 3.848 8.594 8.594 8.594s8.594-3.848 8.594-8.594v-7.276z" fill="#ff965a"/></g></g></g><g><g><g><path d="m219.753 190.119c-4.746 0-8.594-3.848-8.594-8.594v-11.055l3.168-4.797-3.168-4.797v-2.855c0-4.746 3.848-8.594 8.594-8.594s8.594 3.848 8.594 8.594v23.504c-.001 4.746-3.848 8.594-8.594 8.594z" fill="#373c41"/></g></g></g><g><g><g><path d="m289.776 190.119c-4.746 0-8.594-3.848-8.594-8.594v-11.055l3.168-4.797-3.168-4.797v-2.855c0-4.746 3.848-8.594 8.594-8.594s8.594 3.848 8.594 8.594v23.504c0 4.746-3.848 8.594-8.594 8.594z" fill="#373c41"/></g></g></g><g><g><g><g><path d="m231.075 145.13h-25.062c-4.746 0-8.594-3.848-8.594-8.594 0-4.746 3.848-8.594 8.594-8.594h25.062c4.746 0 8.594 3.848 8.594 8.594 0 4.746-3.848 8.594-8.594 8.594z" fill="#823214"/></g></g></g></g><g><g><g><g><path d="m302.691 145.13h-25.062c-4.746 0-8.594-3.848-8.594-8.594 0-4.746 3.848-8.594 8.594-8.594h25.062c4.746 0 8.594 3.848 8.594 8.594 0 4.746-3.848 8.594-8.594 8.594z" fill="#823214"/></g></g></g></g><g><path d="m214.327 173.639c-1.75 0-3.168-1.418-3.168-3.168v-9.594c0-1.75 1.418-3.168 3.168-3.168 1.75 0 3.168 1.418 3.168 3.168v9.594c0 1.749-1.419 3.168-3.168 3.168z" fill="#fff"/></g><g><path d="m284.35 173.639c-1.75 0-3.168-1.418-3.168-3.168v-9.594c0-1.75 1.418-3.168 3.168-3.168 1.75 0 3.168 1.418 3.168 3.168v9.594c0 1.749-1.418 3.168-3.168 3.168z" fill="#fff"/></g><g><path d="m146.979 228.312c-2.485 0-4.5-2.015-4.5-4.5v-33.693c0-2.485 2.015-4.5 4.5-4.5s4.5 2.015 4.5 4.5v33.693c0 2.486-2.015 4.5-4.5 4.5z" fill="#fff"/></g><g><g><g><path d="m375.371 191.443c0 9.083-7.364 16.447-16.447 16.447v-32.694c9.083 0 16.447 7.364 16.447 16.447z" fill="#fff"/></g></g></g><g><path d="m363.481 230.814c-2.485 0-4.5-2.015-4.5-4.5v-33.694c0-2.485 2.015-4.5 4.5-4.5s4.5 2.015 4.5 4.5v33.694c0 2.486-2.014 4.5-4.5 4.5z" fill="#fff"/></g><g><g><path d="m287.385 237.663h-8.849l-23.305 4.838-23.305-4.838h-7.828c-2.626 0-4.724 2.292-4.374 4.895.67 4.979 2.349 9.638 4.823 13.766l47.189 13.984c10.657-5.231 18.378-15.528 20.023-27.75.35-2.603-1.748-4.895-4.374-4.895z" fill="#be1423"/></g><g><path d="m224.55 256.321c6.351 10.593 17.941 17.686 31.19 17.686 5.74 0 11.166-1.335 15.992-3.704-2.075-13.015-13.347-22.963-26.946-22.963-8.026 0-15.242 3.465-20.236 8.981z" fill="#ff3c3c"/></g><g><path d="m273.409 247.34h-36.357c-2.831 0-5.127-2.295-5.127-5.127v-4.55h46.611v4.55c-.001 2.831-2.296 5.127-5.127 5.127z" fill="#fff"/></g></g><g><g><g><path d="m241.816 202.319c-2.136 8.531 1.746 17.824 9.171 20.625 1.494.564 3.092.869 4.754.869 1.661 0 3.26-.305 4.754-.869 7.425-2.801 11.308-12.094 9.171-20.625l-7.082-28.282c-1.783-7.12-11.902-7.12-13.685 0z" fill="#ff965a"/></g></g></g><g><g><path d="m212.068 396.511 43.506-14.866v-20.978l-43.68-14.311c-8.154-1.197-15.47 5.123-15.47 13.364v23.454c0 8.312 7.436 14.652 15.644 13.337z" fill="#ff3c3c"/></g><g><path d="m298.393 396.511-43.506-14.866v-20.978l43.68-14.311c8.154-1.197 15.47 5.123 15.47 13.364v23.454c0 8.312-7.437 14.652-15.644 13.337z" fill="#ff3c3c"/></g><g><path d="m263.195 387.159h-14.862c-2.963 0-5.366-2.402-5.366-5.366v-23.31c0-2.963 2.402-5.366 5.366-5.366h14.862c2.963 0 5.366 2.402 5.366 5.366v23.31c0 2.964-2.403 5.366-5.366 5.366z" fill="#dc1428"/></g></g><path d="m347.441 167.239v-100.939h-152.425c-1.312.287-2.652.44-4 .44h-31.361v109.682c-1.842 2.798-4.878 4.433-8.118 4.904v37.343c0 59.556 49.9 107.227 109.797 104.054-43.381-12.598-75.091-52.632-75.091-100.077.349-7.929.101-76.643.297-115.727.117-23.238 32.755-28.602 40.139-6.568.057.172.114.344.169.518 4.851 15.296 15.325 26.976 28.917 26.976 14.287 0 24.421-12.341 29.051-27.496 3.852-12.608 15.678-21.083 28.861-21.083h1.129c16.734 0 30.299 13.565 30.299 30.299v70.729c0 7.633 6.188 13.821 13.821 13.821v-8.615c-6.716-3.364-11.485-10.698-11.485-18.261z" fill="#ff965a"/><path d="m269.683 0-1.035.102c-34.11 3.352-60.112 32.035-60.112 66.31.281 1.295.437 2.617.44 3.947.004 1.365.015 2.729.028 4.092 8.357 3.37 14.986 10.409 17.844 19.418 4.851 15.296 15.325 26.976 28.917 26.976 14.287 0 24.421-12.341 29.051-27.496 3.852-12.608 15.678-21.083 28.861-21.083h1.129c16.734 0 30.299 13.565 30.299 30.299v70.729c0 7.633 6.188 13.821 13.821 13.821v-97.874c-.002-49.286-39.956-89.241-89.243-89.241z" fill="#823214"/><g><path d="m283.732 1.104c-4.577-.724-9.268-1.104-14.049-1.104h-28.906c-49.286 0-89.241 39.955-89.241 89.241v45.719.003 52.153c7.633 0 13.821-6.188 13.821-13.821v-70.729c0-16.734 13.565-30.299 30.299-30.299h2.167c4.202 0 8.227.874 11.898 2.465 6.184-37.816 36.131-67.637 74.011-73.628z" fill="#70250e"/></g></g></g></svg>