<svg id="Layer_1" enable-background="new 0 0 511 511" height="512" viewBox="0 0 511 511" width="512" xmlns="http://www.w3.org/2000/svg"><g><g><path d="m255.5 21.069c-94.269 0-152.34 53.174-152.5 53.264 0 0-2.414 3.013-2.866 5.017-3.668 16.282-7.095 38.102-7.095 54.025 0 135.291 114.09 244.938 249.38 244.938 52.097 0 110.059-24.969 148.852-54.99.868-.672 3.621-5.184 3.621-5.184.171-1.044 5.572-22.553 5.572-52.104.001-135.291-109.673-244.966-244.964-244.966z" fill="#afe6ff"/><path d="m342.399 371.398c-135.291 0-244.965-109.675-244.965-244.965 0-17.882 1.928-35.306 5.567-52.1-56.337 44.881-92.466 114.074-92.466 191.702 0 55.642 18.552 106.952 49.807 148.08l390.315.009c21.154-27.828 36.525-60.391 44.236-95.985-41.845 33.33-94.839 53.259-152.494 53.259z" fill="#73c8f0"/></g><g><path d="m392.467 333.908-137.261-30.374-60.106 13.341v186.595c19.323 4.902 39.553 7.53 60.401 7.53 79.151 0 150.197-37.755 195.146-96.884v-7.747c-.001-34.809-24.194-64.94-58.18-72.461z" fill="#ffa50a"/><path d="m195.774 316.725-77.288 17.154c-33.964 7.538-58.133 37.659-58.133 72.45v7.776c33.166 43.642 80.637 75.807 135.42 89.538v-186.918z" fill="#fa870a"/><g><g><g><path d="m358.924 205.875h-1l-6.835-33.606 6.835-27.725h1c13.361 0 24.193 10.832 24.193 24.193v12.946c0 13.36-10.831 24.192-24.193 24.192z" fill="#ff965a"/></g></g></g><g><path d="m255.741 290.265c-43.188 0-78.199 35.011-78.199 78.199 0 28.746 15.521 53.854 38.631 67.442l40.025-40.025 39.692 39.692c22.791-13.665 38.051-38.601 38.051-67.109-.001-43.188-35.012-78.199-78.2-78.199z" fill="#fa870a"/></g><g><path d="m255.741 276.264c-43.188 0-78.199 35.011-78.199 78.199 0 28.746 15.521 53.854 38.631 67.442l40.025-40.025 39.692 39.692c22.791-13.665 38.051-38.601 38.051-67.109-.001-43.188-35.012-78.199-78.2-78.199z" fill="#ffc305"/></g><g><g><g><path d="m255.741 379.683c20.073 0 36.344-16.272 36.344-36.344v-81.406h-72.689v81.406c0 20.072 16.272 36.344 36.345 36.344z" fill="#ff965a"/></g></g></g><g><g><g><path d="m354.335 134.415c0-33.168-21.278-63.497-54.445-63.497h-88.298c-9.464 0-18.132 2.477-25.694 6.777v175.309c0 38.264 30.776 69.577 69.038 69.867.268.002.537.003.805.003 56.987 0 103.183-46.197 103.183-103.183v-32.575z" fill="#ffbe82"/></g></g></g><g><g><g><path d="m358.924 186.837v-23.256c5.066 0 9.174 4.107 9.174 9.174v4.909c0 5.066-4.107 9.173-9.174 9.173z" fill="#fa735f"/></g></g></g><g><g><g><path d="m127.343 181.682c0 13.361 10.832 24.193 24.193 24.193h1.553l12.385-26.092-12.178-35.239h-1.761c-13.361 0-24.193 10.832-24.193 24.193v12.945z" fill="#ff965a"/></g></g></g><g><g><g><path d="m141.695 177.842c0 5.435 4.406 9.841 9.841 9.841v-24.949c-5.435 0-9.841 4.406-9.841 9.841z" fill="#fa735f"/></g></g></g><g><g><g><path d="m135.089 188.942c0 9.083 7.364 16.447 16.447 16.447v-32.694c-9.083 0-16.447 7.364-16.447 16.447z" fill="#fff"/></g></g></g><g><g><g><path d="m211.159 181.132v7.276c0 4.746 3.848 8.594 8.594 8.594s8.594-3.848 8.594-8.594v-7.276z" fill="#ff965a"/></g></g></g><g><g><g><path d="m281.182 181.132v7.276c0 4.746 3.848 8.594 8.594 8.594s8.594-3.848 8.594-8.594v-7.276z" fill="#ff965a"/></g></g></g><g><g><g><path d="m219.752 190.119c-4.746 0-8.594-3.848-8.594-8.594v-11.055l3.168-4.797-3.168-4.797v-2.855c0-4.746 3.848-8.594 8.594-8.594s8.594 3.848 8.594 8.594v23.504c0 4.746-3.848 8.594-8.594 8.594z" fill="#373c41"/></g></g></g><g><g><g><path d="m289.776 190.119c-4.746 0-8.594-3.848-8.594-8.594v-11.055l3.168-4.797-3.168-4.797v-2.855c0-4.746 3.848-8.594 8.594-8.594s8.594 3.848 8.594 8.594v23.504c0 4.746-3.848 8.594-8.594 8.594z" fill="#373c41"/></g></g></g><g><g><g><g><path d="m231.075 145.13h-25.062c-4.746 0-8.594-3.848-8.594-8.594 0-4.746 3.848-8.594 8.594-8.594h25.062c4.746 0 8.594 3.848 8.594 8.594 0 4.746-3.848 8.594-8.594 8.594z" fill="#823214"/></g></g></g></g><g><g><g><g><path d="m302.691 145.13h-25.062c-4.746 0-8.594-3.848-8.594-8.594 0-4.746 3.848-8.594 8.594-8.594h25.062c4.746 0 8.594 3.848 8.594 8.594 0 4.746-3.848 8.594-8.594 8.594z" fill="#823214"/></g></g></g></g><g><path d="m269.683 0h-28.906c-49.286 0-89.241 39.955-89.241 89.241v45.719.003 52.153c7.633 0 13.821-6.188 13.821-13.821v-61.026h179.747v61.026c0 7.633 6.188 13.821 13.821 13.821v-52.153c0-.001 0-.002 0-.003v-45.719c-.001-49.286-39.955-89.241-89.242-89.241z" fill="#ffbe82"/></g><g><path d="m214.327 173.638c-1.75 0-3.168-1.418-3.168-3.168v-9.594c0-1.75 1.418-3.168 3.168-3.168 1.75 0 3.168 1.418 3.168 3.168v9.594c0 1.75-1.419 3.168-3.168 3.168z" fill="#fff"/></g><g><path d="m284.35 173.638c-1.75 0-3.168-1.418-3.168-3.168v-9.594c0-1.75 1.418-3.168 3.168-3.168 1.75 0 3.168 1.418 3.168 3.168v9.594c0 1.75-1.418 3.168-3.168 3.168z" fill="#fff"/></g><g><path d="m146.979 228.313c-2.485 0-4.5-2.015-4.5-4.5v-33.693c0-2.485 2.015-4.5 4.5-4.5s4.5 2.015 4.5 4.5v33.693c0 2.485-2.014 4.5-4.5 4.5z" fill="#fff"/></g><g><g><g><path d="m375.371 191.443c0 9.083-7.364 16.447-16.447 16.447v-32.694c9.083 0 16.447 7.364 16.447 16.447z" fill="#fff"/></g></g></g><g><path d="m363.481 230.813c-2.485 0-4.5-2.015-4.5-4.5v-33.693c0-2.485 2.015-4.5 4.5-4.5s4.5 2.015 4.5 4.5v33.693c0 2.486-2.014 4.5-4.5 4.5z" fill="#fff"/></g><g><path d="m186.242 222.647c.256-5.827.296-133.406.296-133.406 0-48.266 38.319-87.576 86.193-89.184-1.012-.034-2.027-.057-3.048-.057h-28.906c-49.286 0-89.241 39.955-89.241 89.241v129.428c0 59.556 49.9 107.227 109.797 104.054-43.38-12.598-75.091-52.632-75.091-100.076z" fill="#ff965a"/></g><g><g><path d="m197.419 98.049h113.867v10h-113.867z" fill="#ff965a"/></g></g><g><g><path d="m197.419 77.631h113.867v10h-113.867z" fill="#ff965a"/></g></g><g><path d="m358.14 178.179c-6.548 0-11.856 5.308-11.856 11.856v21.745c0 28.502-23.106 51.608-51.608 51.608h-77.871c-28.502 0-51.608-23.106-51.608-51.608v-21.745c0-6.548-5.308-11.856-11.856-11.856h-1.805v84.493c0 57.295 46.186 103.582 103.023 104.189.126.002.25.011.376.012.268.002.537.003.805.003.934 0 1.864-.014 2.791-.039h.014c.904-.024 1.805-.061 2.703-.108.028-.001.056-.002.084-.003-.002 0-.004-.001-.005-.002 54.388-2.903 97.596-47.92 97.596-103.031v-84.731c-.304-.304-.478-.478-.783-.783z" fill="#823214"/></g><g><g><path d="m278.193 364.418c-46.605-10.285-81.654-51.836-81.654-101.746 0 0 0-1.223 0-3.421-18.427-7.877-31.342-26.164-31.342-47.472v-21.745c0-6.548-5.308-11.856-11.856-11.856h-1.805v84.493c0 57.295 46.186 103.582 103.023 104.189.126.002.25.011.376.012.268.002.537.003.805.003.934 0 1.864-.014 2.791-.039h.014c.904-.024 1.805-.061 2.703-.108.028-.001.056-.002.084-.003-.002 0-.004-.001-.005-.002 5.762-.306 11.395-1.091 16.866-2.305z" fill="#69280f"/></g></g><g><path d="m300.284 307.665h-89.086v-71.697c0-9.603 7.785-17.388 17.388-17.388h54.309c9.603 0 17.388 7.785 17.388 17.388v71.697z" fill="#823214"/></g><g><g><path d="m287.385 237.663h-8.849l-23.305 4.838-23.305-4.838h-7.828c-2.626 0-4.724 2.292-4.374 4.895.67 4.979 2.349 9.638 4.823 13.766l47.189 13.984c10.657-5.231 18.378-15.528 20.023-27.75.35-2.603-1.748-4.895-4.374-4.895z" fill="#be1423"/></g><g><path d="m224.55 256.321c6.351 10.593 17.941 17.686 31.19 17.686 5.74 0 11.166-1.335 15.992-3.704-2.075-13.015-13.347-22.963-26.946-22.963-8.026 0-15.242 3.465-20.236 8.981z" fill="#ff3c3c"/></g><g><path d="m273.409 247.34h-36.357c-2.831 0-5.127-2.295-5.127-5.127v-4.55h46.611v4.55c-.001 2.831-2.296 5.127-5.127 5.127z" fill="#fff"/></g></g><g><g><g><path d="m241.816 202.319c-2.136 8.531 1.746 17.824 9.171 20.625 1.494.564 3.092.869 4.754.869 1.661 0 3.26-.305 4.754-.869 7.425-2.801 11.308-12.094 9.171-20.625l-7.082-28.282c-1.783-7.12-11.902-7.12-13.685 0z" fill="#ff965a"/></g></g></g><g><path d="m151.716 93.558v51.124c9.485 0 17.174-7.689 17.174-17.174v-16.776c.001-9.485-7.689-17.174-17.174-17.174z" fill="#69280f"/></g><g><path d="m358.924 93.558v51.124c-7.913 0-14.328-6.415-14.328-14.328v-22.469c.001-7.913 6.415-14.327 14.328-14.327z" fill="#823214"/></g><path d="m361.25 327-4.881-1.08c-8.211 37.564-33.678 69.911-69.518 86.284l-135.942 62.106v-147.627l-5 1.11v154.299l143.021-65.339c37.281-17.032 63.774-50.678 72.32-89.753z" fill="#fa870a"/><g><path d="m145.909 476.092v-253.43c0-1.381 1.119-2.5 2.5-2.5s2.5 1.119 2.5 2.5v245.648l135.942-62.106c44.125-20.158 72.528-64.528 72.361-113.039l-.231-67.605c-.005-1.381 1.11-2.504 2.491-2.509h.009c1.377 0 2.495 1.113 2.5 2.491l.231 67.605c.174 50.47-29.377 96.633-75.283 117.605z" fill="#fff"/></g><path d="m148.409 469.701c-1.381 0-2.5 1.119-2.5 2.5v12.959c1.656.83 3.323 1.643 5 2.436v-15.395c0-1.381-1.119-2.5-2.5-2.5z" fill="#fff"/></g></g></svg>