<svg id="Layer_1" enable-background="new 0 0 511 511" height="512" viewBox="0 0 511 511" width="512" xmlns="http://www.w3.org/2000/svg"><g><g><g><path d="m501.527 264.973c0-135.877-110.15-246.027-246.027-246.027-94.678 0-153 53.404-153.161 53.494 0 0-2.425 3.026-2.878 5.038-3.684 16.352-7.125 38.267-7.125 54.26 0 135.877 114.584 246 250.461 246 52.323 0 110.536-25.077 149.497-55.229.872-.674 3.637-5.207 3.637-5.207.171-1.048 5.596-22.65 5.596-52.329z" fill="#afe6ff"/></g><path d="m342.776 370.793c-135.877 0-246.027-110.15-246.027-246.027 0-17.96 1.937-35.459 5.591-52.325-56.582 45.075-92.867 114.567-92.867 192.532 0 65.372 25.497 124.79 67.088 168.85l357.879-.003c30.075-31.841 51.803-71.797 61.491-116.517-42.027 33.475-95.25 53.49-153.155 53.49z" fill="#73c8f0"/></g><g><g><path d="m387.57 306.432c0 13.579-11.008 24.587-24.587 24.587h-211.312c-13.579 0-24.587-11.008-24.587-24.587v-176.189c0-71.931 58.312-130.243 130.243-130.243 71.931 0 130.243 58.312 130.243 130.243z" fill="#373c41"/></g><g><g><g><path d="m153.277 227.687 3.269-26.007-3.269-35.324c-13.361 0-26.193 10.831-26.193 24.193v12.946c0 13.361 12.832 24.192 26.193 24.192z" fill="#ff965a"/></g></g></g><g><g><g><path d="m152.226 209.397 1.319-10.496-1.319-14.256c-5.392 0-10.571 4.371-10.571 9.764v5.224c0 5.393 5.179 9.764 10.571 9.764z" fill="#ef6a30"/></g></g></g><g><path d="m434.431 432.522c0-31.916-22.182-59.544-53.345-66.439l-125.856-27.85-125.358 27.824c-31.142 6.912-53.302 34.53-53.302 66.43v1.328c5.499 5.826 11.279 11.383 17.319 16.65 10.056 8.77 24.78 12.065 36.391 19.218 5.546 3.417 7.595 11.976 13.308 14.447l2.94 1.471c32.045 12.531 71.052 15.875 108.939 15.875 67.606 0 129.356-17.904 174.073-62.634 1.653-1.654 3.283-3.331 4.89-5.032v-1.288z" fill="#827ddc"/></g><g><path d="m129.872 366.057c-31.142 6.912-53.302 34.53-53.302 66.43v1.328c5.499 5.826 11.28 11.383 17.32 16.65 28.029 24.44 61.647 29.628 98.688 39.4v-57.378c0-.12 0-.24.001-.36.068-13.064 15.3-20.37 25.575-12.302 10.276 8.069 23.209 12.907 37.273 12.978 33.699.17 61.268-28.217 61.268-61.916v-19.053l-61.464-13.601-60.443 13.416z" fill="#6e64c3"/></g><g><g><g><path d="m292.085 370.587c0 20.072-16.272 36.344-36.344 36.344-20.072 0-36.344-16.272-36.344-36.344v-81.406h72.689v81.406z" fill="#827ddc"/></g></g></g><g><g><g><path d="m354.335 161.663c0-33.168-21.278-63.497-54.445-63.497h-88.298c-9.464 0-18.132 2.477-25.694 6.777v175.309c0 38.264 30.776 69.577 69.038 69.867.268.002.537.003.805.003 56.987 0 103.183-46.197 103.183-103.183v-32.575z" fill="#ffbe82"/></g></g></g><g><path d="m219.396 289.181v81.406c40.413 7.849 64.954-5.603 72.689-25.837v-55.569z" fill="#6e64c3"/></g><g><g><g><path d="m354.335 161.663c0-33.168-21.278-63.497-54.445-63.497h-88.298c-9.464 0-18.132 2.477-25.694 6.777v175.309c0 38.264 30.776 69.577 69.038 69.867.268.002.537.003.805.003 56.987 0 103.183-46.197 103.183-103.183v-32.575z" fill="#ffbe82"/></g></g></g><g><g><g><path d="m211.159 208.381v7.276c0 4.746 3.848 8.594 8.594 8.594s8.594-3.848 8.594-8.594v-7.276z" fill="#ff965a"/></g></g></g><g><g><g><path d="m281.182 208.381v7.276c0 4.746 3.848 8.594 8.594 8.594s8.594-3.848 8.594-8.594v-7.276z" fill="#ff965a"/></g></g></g><g><g><g><path d="m219.752 217.367c-4.746 0-8.594-3.848-8.594-8.594v-11.055l3.168-4.797-3.168-4.797v-2.855c0-4.746 3.848-8.594 8.594-8.594s8.594 3.848 8.594 8.594v23.504c0 4.746-3.848 8.594-8.594 8.594z" fill="#373c41"/></g></g></g><g><g><g><path d="m289.776 217.367c-4.746 0-8.594-3.848-8.594-8.594v-11.055l3.168-4.797-3.168-4.797v-2.855c0-4.746 3.848-8.594 8.594-8.594s8.594 3.848 8.594 8.594v23.504c0 4.746-3.848 8.594-8.594 8.594z" fill="#373c41"/></g></g></g><g><path d="m186.243 249.895c.082-1.867 1.248-145.479 1.248-145.479-19.352 9.079-33.681 31.219-33.681 54.974l-2.273 54.974v31.554c0 59.555 49.9 107.227 109.797 104.054-43.381-12.599-75.091-52.632-75.091-100.077z" fill="#ff965a"/></g><g><g><g><g><path d="m231.075 172.379h-25.062c-4.746 0-8.594-3.848-8.594-8.594 0-4.746 3.848-8.594 8.594-8.594h25.062c4.746 0 8.594 3.848 8.594 8.594 0 4.746-3.848 8.594-8.594 8.594z" fill="#373c41"/></g></g></g></g><g><g><g><g><path d="m302.691 172.379h-25.062c-4.746 0-8.594-3.848-8.594-8.594 0-4.746 3.848-8.594 8.594-8.594h25.062c4.746 0 8.594 3.848 8.594 8.594 0 4.746-3.848 8.594-8.594 8.594z" fill="#373c41"/></g></g></g></g><g><g><g><path d="m241.816 229.567c-2.136 8.531 1.746 17.824 9.171 20.625 1.494.564 3.092.869 4.754.869 1.661 0 3.26-.305 4.754-.869 7.425-2.801 11.308-12.094 9.171-20.625l-7.082-28.282c-1.783-7.12-11.902-7.12-13.685 0z" fill="#ff965a"/></g></g></g><g><path d="m214.327 200.887c-1.75 0-3.168-1.418-3.168-3.168v-9.594c0-1.75 1.418-3.168 3.168-3.168 1.75 0 3.168 1.418 3.168 3.168v9.594c0 1.75-1.419 3.168-3.168 3.168z" fill="#fff"/></g><g><path d="m284.35 200.887c-1.75 0-3.168-1.418-3.168-3.168v-9.594c0-1.75 1.418-3.168 3.168-3.168 1.75 0 3.168 1.418 3.168 3.168v9.594c0 1.75-1.418 3.168-3.168 3.168z" fill="#fff"/></g><g><path d="m224.553 283.574c1.488 2.48 3.272 4.76 5.288 6.81h51.816c3.787-3.854 6.723-8.546 8.5-13.776h-68.829c.832 2.448 1.91 4.782 3.218 6.964z" fill="#961e0f"/></g><g><path d="m229.504 290.03c6.615 6.91 15.916 11.226 26.237 11.226 5.737 0 11.162-1.334 15.987-3.702l.008.002c3.856-1.893 7.319-4.456 10.258-7.526z" fill="#fff"/></g><g><path d="m221.4 276.83h68.675c.781-2.251 1.357-4.597 1.683-7.024.35-2.603-1.748-4.895-4.374-4.895h-63.288c-2.626 0-4.724 2.292-4.374 4.895.328 2.426.897 4.775 1.678 7.024z" fill="#fff"/></g><g><g><path d="m151.536 118.567v43.641.003 52.153c7.633 0 13.821-6.188 13.821-13.821v-61.026c0-.081 0-.162.001-.242.067-9.801 6.711-17.997 15.673-20.707h-29.495z" fill="#373c41"/></g></g><g><path d="m328.46 62.8h-129.194s63.278 58.98 63.278 58.98h64.613c9.756 0 17.894 7.791 17.946 17.547 0 .063.001.127.001.19v61.026c0 7.633 6.188 13.821 13.821 13.821v-52.153c0-.001 0-.002 0-.003v-68.944c-.001-16.825-13.64-30.464-30.465-30.464z" fill="#373c41"/></g><g><ellipse cx="199.786" cy="249.017" fill="#ff965a" rx="24.31" ry="15.894"/></g><g><ellipse cx="312.602" cy="247.639" fill="#ff965a" rx="24.31" ry="15.894"/></g><g><path d="m239.669 85.991-7.744 45.578h-78.38v-45.578z" fill="#373c41"/></g></g><g><g><path d="m227.1 469.684c-2.062 0-4.158-.414-6.17-1.288l-36.99-16.075c-7.852-3.412-11.45-12.543-8.038-20.394 3.413-7.852 12.543-11.45 20.394-8.038l36.99 16.075c7.852 3.412 11.45 12.543 8.038 20.394-2.539 5.838-8.24 9.326-14.224 9.326z" fill="#fa968c"/></g><g><path d="m147.512 486.08c3.56 1.742 7.168 3.4 10.823 4.973h31.783v-21.798h-42.605v16.825z" fill="#50555a"/><g><path d="m253.199 491.053h-42.605v-11.897c0-5.468 4.433-9.901 9.901-9.901h22.802c5.468 0 9.901 4.433 9.901 9.901v11.897z" fill="#50555a"/></g><g><path d="m316.282 491.053h-42.605v-11.897c0-5.468 4.433-9.901 9.901-9.901h32.704z" fill="#50555a"/></g><path d="m336.759 469.255v21.798h15.845c6.461-2.779 12.781-5.83 18.947-9.135l7.813-12.663z" fill="#50555a"/><g><path d="m144.226 484.448c33.417 16.976 71.226 26.552 111.274 26.552 39.878 0 77.707-9.547 111.209-26.552z" fill="#50555a"/></g></g><g><path d="m195.383 483.757c-7.194 0-13.436-5.351-14.366-12.676l-5.284-41.614c-1.009-7.944 4.614-15.202 12.559-16.211 7.932-.995 15.201 4.613 16.211 12.559l5.284 41.614c1.009 7.944-4.614 15.202-12.559 16.211-.62.078-1.236.117-1.845.117z" fill="#fab9af"/></g><g><path d="m166.534 473.414c-7.194 0-13.436-5.351-14.366-12.676l-5.284-41.614c-1.009-7.944 4.614-15.202 12.559-16.211 7.929-.994 15.202 4.613 16.211 12.559l5.284 41.614c1.009 7.944-4.614 15.202-12.559 16.211-.619.078-1.235.117-1.845.117z" fill="#fab9af"/></g><path d="m148.531 426.814c-1.01-7.946-8.285-13.553-16.211-12.559-7.944 1.009-13.567 8.267-12.559 16.211l5.284 41.614c.074.585.194 1.153.334 1.712 5.909 3.69 11.977 7.15 18.208 10.338 6.677-1.993 11.134-8.562 10.227-15.702z" fill="#fab9af"/><path d="m121.318 436.277c-1.01-7.944-8.272-13.562-16.212-12.558-7.944 1.009-13.566 8.268-12.558 16.212l1.338 10.536c9.758 8.509 20.471 16.423 31.493 23.325.396-1.656.248-3.576.021-5.365z" fill="#fab9af"/><g><path d="m294.987 472.05c-5.985 0-11.686-3.486-14.224-9.326-3.412-7.851.187-16.981 8.038-20.394l36.99-16.075c7.854-3.411 16.981.188 20.394 8.038s-.187 16.981-8.038 20.394l-36.99 16.075c-2.012.874-4.108 1.288-6.17 1.288z" fill="#fa968c"/></g><g><path d="m326.704 486.123c-.609 0-1.225-.039-1.845-.117-7.944-1.009-13.567-8.267-12.559-16.211l5.284-41.614c1.009-7.945 8.271-13.562 16.211-12.559 7.944 1.009 13.567 8.267 12.559 16.211l-5.284 41.614c-.93 7.324-7.173 12.676-14.366 12.676z" fill="#fab9af"/></g><g><path d="m355.553 475.78c-.609 0-1.225-.039-1.845-.117-7.944-1.009-13.567-8.267-12.559-16.211l5.284-41.614c1.01-7.944 8.27-13.561 16.211-12.559 7.944 1.009 13.567 8.267 12.559 16.211l-5.284 41.614c-.931 7.325-7.173 12.676-14.366 12.676z" fill="#fab9af"/></g><g fill="#fab9af"><path d="m402.325 432.833c1.009-7.944-4.614-15.202-12.559-16.211-7.941-1.003-15.201 4.613-16.211 12.559l-5.284 41.614c-.53 4.17.781 8.141 3.282 11.128 9.242-4.952 18.139-10.475 26.637-16.532z"/><path d="m429.55 438.851c-.727-6.498-5.796-11.905-12.569-12.765-7.933-1.001-15.202 4.613-16.212 12.558l-3.477 27.375c11.511-8.127 22.308-17.216 32.258-27.168z"/></g></g></g></svg>