<svg id="Layer_1" enable-background="new 0 0 511 511" height="512" viewBox="0 0 511 511" width="512" xmlns="http://www.w3.org/2000/svg"><g><g><g><path d="m255.5 22.431c-94.007 0-151.917 53.026-152.076 53.116 0 0-2.408 3.005-2.858 5.003-3.658 16.236-7.075 37.996-7.075 53.875 0 134.915 113.773 244.258 248.687 244.258 51.952 0 109.753-24.9 148.438-54.838.865-.67 3.611-5.17 3.611-5.17.17-1.041 5.557-22.49 5.557-51.959.001-134.916-109.369-244.285-244.284-244.285z" fill="#afe6ff"/></g><path d="m342.158 371.786c-134.915 0-244.285-109.37-244.285-244.285 0-17.833 1.923-35.208 5.551-51.955-56.181 44.757-92.209 113.757-92.209 191.169 0 50.285 15.193 97.021 41.24 135.868l309.474 84.042c4.714-2.286 9.346-4.719 13.889-7.293l89.201-86.931c13.474-22.42 23.47-47.231 29.21-73.726-41.73 33.237-94.577 53.111-152.071 53.111z" fill="#73c8f0"/></g><g><path d="m361.928 486.624v-18.779c0-31.916-22.182-59.544-53.345-66.439l-1.738-.385v104.544c19.273-4.132 37.74-10.534 55.083-18.941z" fill="#fff"/><path d="m307.503 401.167-124.776-27.611-125.358 27.823c-.011.002-2.806.686-4.906 1.199 43.836 65.381 118.407 108.422 203.037 108.422 17.815 0 35.216-1.926 52.003-5.573z" fill="#ffc305"/><g fill="#ffa50a"><path d="m286.648 437.521 20.854-20v-13.855l-20.854 20-20.854-20-20.851 19.999-20.85-20-20.851 20-20.85-20-20.848 20-20.847-20-20.846 20-20.849-20-20.842 19.999-20.989-20.14-2.367 2.467c7.451 10.717 15.733 20.811 24.763 30.183l19.439-18.652 20.849 20 20.845-20 20.847 20 20.848-20 20.85 20 20.851-20 20.85 20 20.851-20.001z"/><path d="m287.621 467.272 19.881-19.068v-13.854l-19.881 19.067-20.854-20-20.851 19.999-20.85-20-20.851 20-20.85-20-20.848 20-20.847-20-20.845 20-20.849-20-11.769 11.292c2.434 2.289 4.906 4.539 7.433 6.728l4.338-4.162 20.849 20 20.844-20 20.847 20 20.848-20 20.85 20 20.851-20 20.85 20 20.851-20.001z"/><path d="m288.594 497.023 18.909-18.135v-13.855l-18.909 18.134-20.854-20-20.852 19.999-20.85-20-20.85 20-20.85-20-20.848 20-20.847-20-13.306 12.767c2.969 1.794 5.98 3.525 9.029 5.195l4.277-4.104 13.421 12.876c3.405 1.519 6.848 2.968 10.334 4.334l17.94-17.21 20.85 20 20.85-20 20.85 20 20.852-20.001z"/><g><path d="m227.011 492.918-14.85 14.244c4.12.738 8.275 1.374 12.463 1.902l2.387-2.289 3.029 2.906c5.157.534 10.362.907 15.61 1.116z"/><path d="m268.711 492.919-18.778 18.011c1.851.042 3.706.07 5.567.07 3.014 0 6.011-.075 9-.185l4.213-4.041 3.772 3.618c4.408-.305 8.785-.727 13.129-1.264z"/><path d="m294.88 507.823c4.243-.69 8.452-1.489 12.622-2.396v-9.709z"/><path d="m196.736 503.878-11.426-10.96-6.158 5.908c5.769 1.897 11.634 3.582 17.584 5.052z"/></g></g><g><path d="m183.238 468.126c33.664 0 60.953-27.29 60.953-60.953v-20.016l-61.464-13.601-60.443 13.416v20.202c0 33.662 27.29 60.952 60.954 60.952z" fill="#ffa50a"/></g><g><g><g><path d="m183.238 442.254c-20.073 0-36.344-16.272-36.344-36.344v-81.406h72.689v81.406c-.001 20.072-16.273 36.344-36.345 36.344z" fill="#fab9af"/></g></g></g><g><path d="m146.893 324.503v81.406c40.413 7.849 64.954-5.603 72.689-25.837v-55.569z" fill="#fa735f"/></g><g><path d="m137.893 362.507 45.345 79.746s-26.912 38.774-40.237 36.314c-18.593-3.432-35.926-72.538-29.717-90.396 3.974-11.432 24.609-25.664 24.609-25.664z" fill="#fff"/></g><g><path d="m228.349 362.507-45.345 79.746s26.912 38.774 40.237 36.314c18.593-3.432 35.926-72.538 29.717-90.396-3.974-11.432-24.609-25.664-24.609-25.664z" fill="#fff"/></g><g><g><g><path d="m284.421 268.446-3.269-26.007 3.269-35.324c13.361 0 26.193 10.832 26.193 24.193v12.946c0 13.36-12.832 24.192-26.193 24.192z" fill="#fa968c"/></g></g></g><g><g><g><path d="m284.421 268.446-3.269-26.007 3.269-35.324c13.361 0 26.193 10.832 26.193 24.193v12.946c0 13.36-12.832 24.192-26.193 24.192z" fill="#fa968c"/></g></g></g><g><g><g><path d="m285.472 250.156-1.319-10.496 1.319-14.256c5.392 0 10.571 4.371 10.571 9.764v5.224c-.001 5.392-5.179 9.764-10.571 9.764z" fill="#fa735f"/></g></g></g><g><g><g><path d="m80.774 263.009 3.269-26.007-3.269-35.324c-13.361 0-26.193 10.832-26.193 24.193v12.946c0 13.361 12.831 24.192 26.193 24.192z" fill="#fa968c"/></g></g></g><g><g><g><path d="m79.723 244.72 1.319-10.496-1.319-14.256c-5.392 0-10.571 4.371-10.571 9.764v5.224c0 5.392 5.179 9.764 10.571 9.764z" fill="#fa735f"/></g></g></g><g><g><g><path d="m281.832 196.986c0-33.168-21.278-63.497-54.445-63.497h-88.298c-9.464 0-18.132 2.477-25.694 6.777v175.309c0 38.264 30.776 69.577 69.038 69.867.268.002.537.003.805.003 56.987 0 103.183-46.197 103.183-103.183v-32.575z" fill="#fab9af"/></g></g></g><g><path d="m269.657 161.089c.986.001 1.96-.047 2.928-.119-9.264-16.253-25.025-27.482-45.198-27.482h-88.299c-9.464 0-18.132 2.477-25.694 6.777v2.196c-19.413 9.058-32.087 28.451-32.087 52.25l-2.274 54.974v31.554c0 59.556 49.9 107.227 109.797 104.054-43.381-12.598-75.091-52.632-75.091-100.077.258-5.863 0-62.674 0-84.254 0-.154.001-.307.002-.461.165-21.948 18.249-39.549 40.197-39.527z" fill="#fa968c"/></g><g><path d="m113.813 288.722c-.039-1.165-.073-2.33-.073-3.505.234-5.322.043-52.627.006-77.451-11.135.248-22.17 1.245-33.103 2.998l-1.61 38.922v31.211c8.024 4.751 21.241 7.41 34.78 7.825z" fill="#ffdcd7"/></g><g><path d="m152.33 209.862c-13.114-1.699-26.092-2.396-38.936-2.092v80.934c17.7.603 36.026-2.625 44.051-10.026 6.835-6.305 11.733-25.417 14.747-41.251 2.506-13.169-6.568-25.842-19.862-27.565z" fill="#ffedeb"/></g><g><g><g><path d="m138.655 243.703v7.276c0 4.746 3.848 8.594 8.594 8.594s8.594-3.848 8.594-8.594v-7.276z" fill="#ffdcd7"/></g></g></g><g><path d="m284.103 210.547-2.951 31.892 3.269 26.008c4.646 0 9.226-1.312 13.226-3.582 5.216-19.622 4.582-50.86 4.582-50.86-6.01-1.39-12.053-2.533-18.126-3.458z" fill="#ffdcd7"/></g><g><path d="m214.397 209.924c-13.272 1.719-22.331 14.373-19.829 27.52 3.009 15.809 7.899 34.891 14.723 41.185 13.791 12.72 58.038 13.096 77.13 2.851v-31.794l-3.423-39.304c-22.441-3.313-45.306-3.476-68.601-.458z" fill="#ffedeb"/></g><g><g><g><path d="m208.679 243.703v7.276c0 4.746 3.848 8.594 8.594 8.594s8.594-3.848 8.594-8.594v-7.276z" fill="#ffdcd7"/></g></g></g><g><path d="m67.71 259.521c3.962 2.213 8.481 3.488 13.064 3.488l3.269-26.007-2.441-26.381c-5.776.903-11.525 2.005-17.245 3.327 0 .001-.53 26.078 3.353 45.573z" fill="#ffdcd7"/></g><g><g><g><path d="m147.249 252.69c-4.746 0-8.594-3.848-8.594-8.594v-11.055l3.168-4.797-3.168-4.797v-2.855c0-4.746 3.848-8.594 8.594-8.594s8.594 3.848 8.594 8.594v23.504c0 4.746-3.848 8.594-8.594 8.594z" fill="#373c41"/></g></g></g><g><g><g><path d="m217.273 252.69c-4.746 0-8.594-3.848-8.594-8.594v-11.055l3.168-4.797-3.168-4.797v-2.855c0-4.746 3.848-8.594 8.594-8.594s8.594 3.848 8.594 8.594v23.504c0 4.746-3.848 8.594-8.594 8.594z" fill="#373c41"/></g></g></g><g><g><g><g><path d="m147.89 198.623-23.659-8.269c-4.481-1.566-6.843-6.468-5.277-10.948 1.566-4.481 6.468-6.843 10.948-5.277l23.659 8.269c4.481 1.566 6.843 6.468 5.277 10.948-1.566 4.481-6.468 6.843-10.948 5.277z" fill="#c1400e"/></g></g></g></g><g><g><g><g><path d="m230.188 207.701h-25.062c-4.746 0-8.594-3.848-8.594-8.594 0-4.746 3.848-8.594 8.594-8.594h25.062c4.746 0 8.594 3.848 8.594 8.594 0 4.746-3.848 8.594-8.594 8.594z" fill="#c1400e"/></g></g></g></g><g><path d="m214.882 300.234h-8.849l-23.305 4.838-23.305-4.838h-7.828c-2.626 0-4.724 2.292-4.374 4.895.67 4.979 2.349 9.638 4.823 13.766l47.189 13.984c10.657-5.231 18.378-15.528 20.023-27.75.35-2.603-1.748-4.895-4.374-4.895z" fill="#961e0f"/></g><g><g><g><path d="m169.313 264.89c-2.136 8.531 1.746 17.824 9.171 20.625 1.494.564 3.092.869 4.754.869 1.661 0 3.26-.305 4.754-.869 7.425-2.801 11.308-12.094 9.171-20.625l-7.082-28.282c-1.783-7.12-11.902-7.12-13.685 0z" fill="#fa968c"/></g></g></g><g><g><path d="m262.742 80.735c13.078 0 23.679 10.602 23.679 23.679v93.117.003 52.153c-7.633 0-13.821-6.188-13.821-13.821v-60.986c0-7.735-2.484-15.143-6.897-21.16-4.411-6.014-11.149-9.793-18.499-11.054-.1-.017-.169-.033-.201-.048l5-61.882h10.739z" fill="#c1400e"/></g></g><g><g><path d="m272.6 209.98v25.885c0 7.633 6.188 13.821 13.821 13.821v-39.706z" fill="#ff640a"/></g></g><g><path d="m141.824 236.209c-1.75 0-3.168-1.418-3.168-3.168v-9.594c0-1.75 1.418-3.168 3.168-3.168 1.75 0 3.168 1.418 3.168 3.168v9.594c0 1.75-1.419 3.168-3.168 3.168z" fill="#fff"/></g><g><path d="m211.847 236.209c-1.75 0-3.168-1.418-3.168-3.168v-9.594c0-1.75 1.418-3.168 3.168-3.168 1.75 0 3.168 1.418 3.168 3.168v9.594c0 1.75-1.418 3.168-3.168 3.168z" fill="#fff"/></g><g><path d="m152.047 318.892c6.351 10.593 17.941 17.686 31.19 17.686 5.74 0 11.166-1.335 15.992-3.704-2.075-13.015-13.347-22.963-26.946-22.963-8.026 0-15.242 3.465-20.236 8.981z" fill="#ff3c3c"/></g><g><path d="m200.906 309.911h-36.357c-2.831 0-5.127-2.295-5.127-5.127v-4.55h46.611v4.55c-.001 2.831-2.296 5.127-5.127 5.127z" fill="#fff"/></g><g><path d="m223.926 0c0 33.752-27.344 61.123-61.097 61.156l-24.993.024c-32.485.041-58.803 26.372-58.803 58.857v77.493.003 52.153c7.633 0 13.821-6.188 13.821-13.821v-61.026c0-.094 0-.188.001-.283.098-12.033 10.116-21.637 22.15-21.62l91.932.128c8.498.012 17.061-1.289 25.314-3.744 32.912-9.792 55.203-40.442 55.203-74.78 3.065-39.201-23.924-74.54-63.528-74.54z" fill="#cd5014"/></g><g><path d="m114.035 120.038c0-32.485 26.318-58.827 58.803-58.857h-35.002c-32.485.03-58.803 26.373-58.803 58.857v77.493.003 52.153c7.633 0 13.821-6.188 13.821-13.821v-61.026c0-.081 0-.162.001-.242.08-11.722 9.57-21.148 21.181-21.637v-32.923z" fill="#c1400e"/></g><g><path d="m79.033 210.861v38.825c7.633 0 13.821-6.188 13.821-13.821v-25.005h-13.821z" fill="#ff640a"/></g><g><g><path d="m119.322 215.395c11.35 0 22.969.76 34.534 2.258 3.846.498 7.23 2.52 9.528 5.692 2.333 3.22 3.209 7.137 2.469 11.029-6.073 31.91-11.964 38.104-12.616 38.705-5.965 5.501-22.717 8.007-35.758 8.007-19.352 0-33.337-4.333-38.127-8.348-.051-.046-5.095-4.953-7.442-32.108-.666-7.71-.929-15.124-1.025-20.586 15.913-3.087 32.165-4.649 48.437-4.649m0-11.252c-20.21 0-40.115 2.265-59.714 6.796 0 0-1.2 58.927 12.502 70.41 8.618 7.223 27.104 10.988 45.368 10.988 17.776 0 35.342-3.568 43.386-10.988 7.435-6.858 12.763-27.647 16.041-44.872 2.726-14.324-7.144-28.11-21.604-29.983-12.098-1.567-24.091-2.351-35.979-2.351z" fill="#373c41"/></g><g><path d="m51.176 211.157h14.593v11.999h-14.593z" fill="#373c41" transform="matrix(.982 -.187 .187 .982 -39.599 14.776)"/></g></g><g><path d="m247.35 215.395c16.272 0 32.525 1.562 48.438 4.649-.096 5.462-.358 12.876-1.025 20.586-2.347 27.155-7.391 32.062-7.428 32.096-4.804 4.026-18.789 8.36-38.141 8.36-18.604 0-31.577-4.151-35.758-8.007-.652-.601-6.543-6.795-12.616-38.705-.741-3.892.136-7.809 2.469-11.029 2.298-3.172 5.682-5.194 9.528-5.692 11.564-1.498 23.183-2.258 34.533-2.258m0-11.252c-11.888 0-23.88.783-35.979 2.351-14.46 1.874-24.33 15.66-21.604 29.983 3.278 17.224 8.606 38.014 16.041 44.872 8.045 7.42 25.61 10.988 43.386 10.988 18.264 0 36.75-3.765 45.368-10.988 13.702-11.483 12.503-70.41 12.503-70.41-19.599-4.53-39.505-6.796-59.715-6.796z" fill="#373c41"/></g><g><path d="m302.2 209.86h11.999v14.593h-11.999z" fill="#373c41" transform="matrix(.187 -.982 .982 .187 37.213 479.282)"/></g><g><path d="m172.382 224.207h22v11.252h-22z" fill="#373c41"/></g></g><g><g><path d="m383.664 192.856h73.673v134.002h-73.673z" fill="#fab9af"/></g><path d="m402.625 314.497v147.209c24.923-18.822 46.172-42.333 62.384-69.311v-77.898z" fill="#fff"/><path d="m403.63 314.497h-27.814v164.834c9.703-5.5 18.985-11.666 27.814-18.406z" fill="#e4f2f6"/><g><g><ellipse cx="406.917" cy="183.273" fill="#ffa50a" rx="46.562" ry="76.244" transform="matrix(.707 -.707 .707 .707 -10.41 341.413)"/></g><g><ellipse cx="341.812" cy="154.982" fill="#ffa50a" rx="57.157" ry="21.679" transform="matrix(.858 -.513 .513 .858 -31.087 197.423)"/></g><g><ellipse cx="435.025" cy="248.196" fill="#ffa50a" rx="57.157" ry="21.679" transform="matrix(.513 -.858 .858 .513 -1.274 494.145)"/></g><g><circle cx="373.318" cy="158.233" fill="#2477f9" r="19.98"/></g><g><circle cx="431.311" cy="216.226" fill="#2477f9" r="19.98"/></g><g><path d="m458.411 174.219c-4.808-8.217-11.035-16.335-18.57-23.87-7.802-7.802-16.229-14.202-24.745-19.076l-8.65 8.65c-3.31 3.31-3.31 8.676 0 11.986l31.144 31.144c3.31 3.31 8.676 3.31 11.986 0z" fill="#fff"/></g></g><g><g><path d="m394.308 159.427c-5.354 0-10.234-3.609-11.619-9.036-1.639-6.422 2.239-12.956 8.661-14.595l34.127-8.707c6.42-1.639 12.956 2.239 14.594 8.661 1.639 6.422-2.239 12.956-8.661 14.595l-34.127 8.707c-.995.254-1.993.375-2.975.375z" fill="#fab9af"/></g></g><g><g><path d="m406.53 180.146c-5.354 0-10.234-3.609-11.619-9.036-1.639-6.422 2.239-12.956 8.661-14.595l34.127-8.707c6.419-1.639 12.956 2.239 14.594 8.661s-2.239 12.956-8.661 14.595l-34.127 8.707c-.994.254-1.993.375-2.975.375z" fill="#fab9af"/></g></g><g><g><path d="m437.858 192.715c-5.354 0-10.234-3.609-11.619-9.036-1.639-6.422 2.239-12.956 8.661-14.595l34.127-8.707c6.42-1.641 12.956 2.238 14.594 8.661 1.639 6.422-2.239 12.956-8.661 14.595l-34.127 8.707c-.994.254-1.993.375-2.975.375z" fill="#fab9af"/></g></g><g><g><path d="m456.069 211.338c-5.057 0-9.76-3.222-11.409-8.291-2.05-6.302 1.396-13.073 7.699-15.123l28.506-9.273c6.304-2.048 13.074 1.396 15.124 7.699 2.05 6.302-1.396 13.073-7.699 15.123l-28.506 9.273c-1.234.402-2.485.592-3.715.592z" fill="#fab9af"/></g></g><g><g><path d="m395.276 248.631c-3.875 0-7.747-1.491-10.682-4.469l-40.524-41.103c-5.398-5.476-5.782-14.146-.888-20.078l18.01-21.827c5.272-6.391 14.727-7.295 21.116-2.023 6.39 5.272 7.296 14.727 2.023 21.117l-9.396 11.387 31.022 31.465c4.608 4.674 5.523 11.607 2.77 17.178-.722 1.46-1.695 2.827-2.92 4.035-2.922 2.881-6.728 4.318-10.531 4.318z" fill="#fab9af"/></g></g></g></g></svg>