<svg id="Layer_1" enable-background="new 0 0 511 511" height="512" viewBox="0 0 511 511" width="512" xmlns="http://www.w3.org/2000/svg"><g><g><path d="m510.5 256c0-140.833-114.167-255-255-255-98.131 0-158.58 55.352-158.747 55.445 0 0-2.513 3.137-2.983 5.222-3.818 16.948-7.385 39.663-7.385 56.238 0 140.833 118.763 254.972 259.596 254.972 54.231 0 114.568-25.992 154.949-57.243.903-.699 3.769-5.396 3.769-5.396.178-1.086 5.801-23.476 5.801-54.238z" fill="#afe6ff"/><path d="m345.959 365.679c-140.833 0-255-114.167-255-255 0-18.615 2.007-36.753 5.795-54.234-58.645 46.72-96.254 118.747-96.254 199.555 0 62.518 22.498 119.782 59.84 164.136l390.31.015c26.154-31.048 45.08-68.51 54.049-109.912-43.559 34.695-98.724 55.44-158.74 55.44z" fill="#73c8f0"/></g><g><g><g><g><path d="m358.924 207.265h-1l-6.835-33.606 6.835-27.725h1c13.361 0 24.193 10.832 24.193 24.193v12.946c0 13.361-10.831 24.192-24.193 24.192z" fill="#fa968c"/></g></g></g><path d="m392.467 335.298-137.261-30.374c-73.255 16.259-116.528 92.138-93.221 163.465l9.267 28.36c26.372 9.231 54.723 14.251 84.248 14.251 77.842 0 148.158-35.075 195.146-90.853v-12.388c0-34.809-24.193-64.94-58.179-72.461z" fill="#2477f9"/><path d="m257.842 430.311c75.575 0 136.841-10.289 136.841-71.417 0-8.175-1.106-16.14-3.185-23.811l-136.292-30.159-136.719 30.346c-34.236 7.598-58.133 37.954-58.133 72.45v12.405c29.142 34.614 67.318 61.36 110.902 76.611 12.774-35.633 46.262-66.476 85.522-66.425z" fill="#0540e5"/><g><g><path d="m383.117 344.859c0 56.048-56.175 65.482-125.47 65.482s-125.47-9.434-125.47-65.482 56.175-101.485 125.47-101.485 125.47 45.437 125.47 101.485z" fill="#2477f9"/></g></g><g><g><path d="m343.908 331.133c0 38.533-38.62 69.771-86.261 69.771s-86.261-31.237-86.261-69.771 38.62-29.206 86.261-29.206 86.261-9.328 86.261 29.206z" fill="#0540e5"/></g></g><g><g><g><path d="m255.741 381.073c20.073 0 36.344-16.272 36.344-36.344v-81.406h-72.689v81.406c0 20.072 16.272 36.344 36.345 36.344z" fill="#fab9af"/></g></g></g><g><path d="m243.791 338.167c.002 0 .003-.001.005-.002-8.446-.451-16.614-1.934-24.399-4.297v-70.546h66.658l6.031 54.423c-8.951 14.408-33.969 21.19-48.295 20.422z" fill="#fa735f"/></g><g><g><g><path d="m354.335 135.805c0-33.168-21.278-63.497-54.445-63.497h-88.298c-9.464 0-18.132 2.477-25.694 6.777v175.309c0 38.264 30.776 69.577 69.038 69.867.268.002.537.003.805.003 56.987 0 103.183-46.197 103.183-103.183v-32.575z" fill="#fab9af"/></g></g></g><g><g><g><path d="m358.924 188.228v-23.256c5.066 0 9.174 4.107 9.174 9.174v4.909c0 5.065-4.107 9.173-9.174 9.173z" fill="#fa735f"/></g></g></g><g><g><g><path d="m127.343 183.072c0 13.361 10.832 24.193 24.193 24.193h1.553l12.385-26.092-12.178-35.239h-1.761c-13.361 0-24.193 10.832-24.193 24.193v12.945z" fill="#fa968c"/></g></g></g><g><g><g><path d="m141.695 179.233c0 5.435 4.406 9.841 9.841 9.841v-24.949c-5.435 0-9.841 4.406-9.841 9.841z" fill="#fa735f"/></g></g></g><g><g><g><path d="m135.089 190.332c0 9.083 7.364 16.447 16.447 16.447v-32.694c-9.083 0-16.447 7.364-16.447 16.447z" fill="#fff"/></g></g></g><g><g><g><path d="m211.159 182.523v7.276c0 4.746 3.848 8.594 8.594 8.594s8.594-3.848 8.594-8.594v-7.276z" fill="#fa968c"/></g></g></g><g><g><g><path d="m281.182 182.523v7.276c0 4.746 3.848 8.594 8.594 8.594s8.594-3.848 8.594-8.594v-7.276z" fill="#fa968c"/></g></g></g><g><g><g><path d="m219.753 191.509c-4.746 0-8.594-3.848-8.594-8.594v-11.055l3.168-4.797-3.168-4.797v-2.855c0-4.746 3.848-8.594 8.594-8.594s8.594 3.848 8.594 8.594v23.504c-.001 4.746-3.849 8.594-8.594 8.594z" fill="#373c41"/></g></g></g><g><g><g><path d="m289.776 191.509c-4.746 0-8.594-3.848-8.594-8.594v-11.055l3.168-4.797-3.168-4.797v-2.855c0-4.746 3.848-8.594 8.594-8.594s8.594 3.848 8.594 8.594v23.504c0 4.746-3.848 8.594-8.594 8.594z" fill="#373c41"/></g></g></g><g><g><g><g><path d="m231.075 146.52h-25.062c-4.746 0-8.594-3.848-8.594-8.594 0-4.746 3.848-8.594 8.594-8.594h25.062c4.746 0 8.594 3.848 8.594 8.594 0 4.747-3.848 8.594-8.594 8.594z" fill="#c1400e"/></g></g></g></g><g><g><g><g><path d="m302.691 146.52h-25.062c-4.746 0-8.594-3.848-8.594-8.594 0-4.746 3.848-8.594 8.594-8.594h25.062c4.746 0 8.594 3.848 8.594 8.594 0 4.747-3.848 8.594-8.594 8.594z" fill="#c1400e"/></g></g></g></g><g><path d="m287.385 239.053h-8.849l-23.305 4.838-23.305-4.838h-7.828c-2.626 0-4.724 2.292-4.374 4.895.67 4.979 2.349 9.638 4.823 13.766l47.189 13.984c10.657-5.231 18.378-15.528 20.023-27.75.35-2.603-1.748-4.895-4.374-4.895z" fill="#be1423"/></g><g><path d="m342.16 99.908c.986.001 1.96-.047 2.928-.119-9.264-16.253-25.026-27.482-45.198-27.482h-88.298c-9.464 0-18.132 2.477-25.694 6.777v2.196c-19.413 9.058-32.087 28.451-32.087 52.25l-2.274 54.974v31.554c0 59.556 49.9 107.227 109.797 104.054-43.381-12.598-75.091-52.632-75.091-100.077.258-5.863 0-79.675 0-101.255 0-.154.001-27.309.002-27.462.165-21.948 18.249 4.454 40.197 4.476z" fill="#fa968c"/></g><g><path d="m314.671 57.834c-11.474 0-21.597 4.926-27.632 12.432-7.7-9.592-20.628-15.888-35.283-15.888-6.978 0-13.558 1.436-19.376 3.966-7.735-9.372-20.505-15.502-34.961-15.502-23.605 0-42.741 16.326-42.741 36.466s19.136 36.466 42.741 36.466c6.978 0 13.558-1.436 19.376-3.966 7.735 9.372 20.505 15.502 34.961 15.502 17.176 0 31.976-8.648 38.769-21.116 6.094 5.412 14.656 8.785 24.146 8.785 18.496 0 33.489-12.793 33.489-28.573.001-15.779-14.993-28.572-33.489-28.572z" fill="#fa968c"/></g><g><g><g><path d="m241.816 203.709c-2.136 8.531 1.746 17.824 9.171 20.625 1.494.564 3.092.869 4.754.869 1.661 0 3.26-.305 4.754-.869 7.425-2.801 11.308-12.094 9.171-20.625l-7.082-28.282c-1.783-7.12-11.902-7.12-13.685 0z" fill="#fa968c"/></g></g></g><g><g><path d="m358.924 78.558v57.792.003 52.153c-7.633 0-13.821-6.188-13.821-13.821v-61.026c0-13.479-7.586-25.903-19.707-31.799-.297-.145-.594-.286-.89-.423v-2.878h34.418z" fill="#c1400e"/></g></g><g><path d="m214.327 175.029c-1.75 0-3.168-1.418-3.168-3.168v-9.594c0-1.75 1.418-3.168 3.168-3.168 1.75 0 3.168 1.418 3.168 3.168v9.594c0 1.749-1.419 3.168-3.168 3.168z" fill="#fff"/></g><g><path d="m284.35 175.029c-1.75 0-3.168-1.418-3.168-3.168v-9.594c0-1.75 1.418-3.168 3.168-3.168 1.75 0 3.168 1.418 3.168 3.168v9.594c0 1.749-1.418 3.168-3.168 3.168z" fill="#fff"/></g><g><path d="m224.55 257.711c6.351 10.593 17.941 17.686 31.19 17.686 5.74 0 11.166-1.335 15.992-3.704-2.075-13.015-13.347-22.963-26.946-22.963-8.026 0-15.242 3.466-20.236 8.981z" fill="#ff3c3c"/></g><g><path d="m273.409 248.73h-36.357c-2.831 0-5.127-2.295-5.127-5.127v-4.55h46.611v4.55c-.001 2.832-2.296 5.127-5.127 5.127z" fill="#fff"/></g><g><g><path d="m219.54 58.857c0-32.485 26.318-58.827 58.803-58.857h-68.004c-32.485.03-58.803 26.373-58.803 58.857v77.493.003 52.153c7.633 0 13.821-6.188 13.821-13.821v-61.026c0-.081 0-.162.001-.242.082-12.047 10.103-21.672 22.151-21.66l32.032.031v-32.931z" fill="#c1400e"/></g></g><g><g><path d="m208.15 491.247c-3.313 0-6-2.687-6-6v-69.342c0-3.313 2.687-6 6-6s6 2.687 6 6v69.342c0 3.313-2.687 6-6 6z" fill="#0540e5"/></g></g><g><g><path d="m208.15 476.246c-3.313 0-6-2.687-6-6v-69.342c0-3.313 2.687-6 6-6s6 2.687 6 6v69.342c0 3.313-2.687 6-6 6z" fill="#fff"/></g></g><g><g><path d="m306.156 491.247c-3.313 0-6-2.687-6-6v-69.342c0-3.313 2.687-6 6-6s6 2.687 6 6v69.342c0 3.313-2.687 6-6 6z" fill="#0540e5"/></g></g><g><g><path d="m306.156 476.246c-3.313 0-6-2.687-6-6v-69.342c0-3.313 2.687-6 6-6s6 2.687 6 6v69.342c0 3.313-2.687 6-6 6z" fill="#fff"/></g></g><g><path d="m146.979 229.703c-2.485 0-4.5-2.015-4.5-4.5v-33.693c0-2.485 2.015-4.5 4.5-4.5s4.5 2.015 4.5 4.5v33.693c0 2.485-2.015 4.5-4.5 4.5z" fill="#fff"/></g><g><g><g><path d="m375.371 192.833c0 9.083-7.364 16.447-16.447 16.447v-32.694c9.083 0 16.447 7.364 16.447 16.447z" fill="#fff"/></g></g></g><g><path d="m363.481 232.205c-2.485 0-4.5-2.015-4.5-4.5v-33.695c0-2.485 2.015-4.5 4.5-4.5s4.5 2.015 4.5 4.5v33.694c0 2.486-2.014 4.501-4.5 4.501z" fill="#fff"/></g><g><ellipse cx="314.671" cy="79.407" fill="#cd5014" rx="33.489" ry="28.573"/></g><g><ellipse cx="251.756" cy="83.844" fill="#cd5014" rx="42.741" ry="36.466"/></g><g><ellipse cx="197.419" cy="72.308" fill="#cd5014" rx="42.741" ry="36.466"/></g><g><path d="m383.388 122.566-7.553-37.49h-146.532v37.49z" fill="#9ca2ad"/></g><g><path d="m372.513 50.566-1.403-15.629c-1.777-19.781-18.355-34.937-38.215-34.937h-102.173v50.566z" fill="#b4b9c3"/></g><g><path d="m373.461 61.135-1.036-11.545h-112.737v11.545z" fill="#fff"/></g><g><path d="m288.092 85.076h87.519l-2.318-25.814h-85.201z" fill="#ffa50a"/></g><g><path d="m231.56 50.566v-50.566h-49.257c-19.861 0-36.439 15.156-38.215 34.937l-1.403 15.629z" fill="#9ca2ad"/></g><g><path d="m261.561 49.59h-118.788l-3.186 35.486h121.974z" fill="#e4f2f6"/></g><g><path d="m288.563 59.262h-145.806c-.285 0-.566-.018-.85-.022l-2.32 25.836h148.976z" fill="#fa870a"/></g><g><path d="m231.648 85.076h-92.061l-13.244 65.741h262.736l-6.146-30.507h-122.442c-18.584 0-32.513-17.016-28.843-35.234z" fill="#7d8c9b"/></g></g></g></svg>