<svg id="Layer_1" enable-background="new 0 0 511 511" height="512" viewBox="0 0 511 511" width="512" xmlns="http://www.w3.org/2000/svg"><g><g><path d="m510.5 256c0-140.833-114.167-255-255-255-98.131 0-158.58 55.352-158.747 55.445 0 0-2.513 3.137-2.983 5.222-3.818 16.948-7.385 39.663-7.385 56.238 0 140.833 118.763 254.972 259.596 254.972 54.231 0 114.568-25.992 154.949-57.243.903-.699 3.769-5.396 3.769-5.396.178-1.086 5.801-23.476 5.801-54.238z" fill="#afe6ff"/><path d="m345.959 365.679c-140.833 0-255-114.167-255-255 0-18.615 2.007-36.753 5.795-54.234-58.645 46.72-96.254 118.747-96.254 199.555 0 70.416 28.542 134.166 74.688 180.312l360.016.6c34.159-33.907 58.846-77.514 69.496-126.673-43.56 34.695-98.725 55.44-158.741 55.44z" fill="#73c8f0"/></g><g><g><path d="m172.495 53.623-50.766 50.766-43.109-43.109c-14.019-14.019-14.019-36.747 0-50.766 14.019-14.019 36.747-14.019 50.766 0z" fill="#823214"/><path d="m153.075 73.044-22.487 22.486-33.303-33.303c-6.21-6.21-6.21-16.277 0-22.487 6.21-6.21 16.277-6.21 22.487 0z" fill="#dcbe82"/></g><path d="m104.086 330.766c0 63.869 51.776 115.644 115.645 115.644l13.001-420.023h-44.467c-46.491 0-84.179 37.688-84.179 84.179z" fill="#823214"/><path d="m113.247 225.76c0 17.785 14.418 32.203 32.203 32.203v-64.407c-17.785.001-32.203 14.419-32.203 32.204z" fill="#fa968c"/><g><path d="m313.92 53.623 50.766 50.766 43.109-43.109c14.019-14.019 14.019-36.747 0-50.766-14.019-14.019-36.747-14.019-50.766 0z" fill="#934d34"/><path d="m333.341 73.044 22.487 22.487 33.303-33.303c6.21-6.21 6.21-16.277 0-22.487-6.21-6.21-16.277-6.21-22.487 0z" fill="#dcbe82"/></g><path d="m391.894 316.788c0 63.069-33.504 136.223-96.573 136.223l-15.188-41.912c-49.848-4.741-87.947-70.356-87.947-120.429v-230.526c0-18.643 15.113-33.756 33.756-33.756h69.239c53.413 0 96.713 43.3 96.713 96.713z" fill="#934d34"/><path d="m363.763 398.258s-62.928 0-118.01 0c-44.696 0-80.925 36.233-80.925 80.929v15.198c5.248 1.998 10.579 3.828 15.986 5.483l149.367-.008c39.992-12.249 75.936-34.087 105.017-62.954-15.248-23.268-41.538-38.648-71.435-38.648z" fill="#a55a3c"/><path d="m388.419 223.472c0 17.785-14.418 32.203-32.203 32.203v-64.407c17.785.001 32.203 14.419 32.203 32.204z" fill="#fa968c"/><path d="m179.996 323.603c0 38.59 31.005 70.252 69.594 70.542.27.002.54.003.81.003 59.008 0 106.845-47.836 106.845-106.844v-18.728z" fill="#823214"/><g><g><path d="m292.765 404.069c0 20.581-16.684 37.265-37.265 37.265-20.581 0-37.265-16.684-37.265-37.265v-20.039l74.531-63.43v83.469z" fill="#fab9af"/></g></g><g><g><path d="m356.221 160.096c-.246-24.792-20.413-44.76-45.206-44.76h-53.711c-29.928 0-57.128 11.67-77.308 30.702v153.563c0 38.59 31.005 70.253 69.594 70.542.27.002.54.003.81.003 59.009 0 106.845-47.836 106.845-106.845z" fill="#ffbe82"/></g></g><path d="m218.235 384.031c3.834.685 7.771 1.076 11.797 1.106.27.002.54.003.81.003 23.082 0 44.454-10.32 61.922-22.764v-41.775h-74.531v63.43z" fill="#fa735f"/><g><g><path d="m356.221 160.096c-.246-24.792-20.413-44.76-45.206-44.76h-53.711c-29.928 0-57.128 11.67-77.308 30.702v153.563c0 38.59 31.005 70.253 69.594 70.542.27.002.54.003.81.003 59.009 0 106.845-47.836 106.845-106.845z" fill="#fab9af"/></g></g><g><g><path d="m205.736 223.472v9.088c0 4.866 3.946 8.812 8.812 8.812s8.812-3.945 8.812-8.812v-9.088z" fill="#fa968c"/></g></g><g><g><path d="m277.698 223.472v9.088c0 4.866 3.946 8.812 8.812 8.812s8.812-3.945 8.812-8.812v-9.088z" fill="#fa968c"/></g></g><g><g><path d="m214.547 234.028c-4.866 0-8.812-3.945-8.812-8.812v-6.499l3.537-5.314-3.537-5.314v-6.974c0-4.866 3.945-8.812 8.812-8.812 4.866 0 8.812 3.945 8.812 8.812v24.1c0 4.868-3.945 8.813-8.812 8.813z" fill="#373c41"/></g></g><g><g><path d="m286.51 234.028c-4.866 0-8.812-3.945-8.812-8.812v-8.244l3.537-5.314-3.537-5.314v-5.229c0-4.866 3.945-8.812 8.812-8.812 4.866 0 8.812 3.945 8.812 8.812v24.1c-.001 4.868-3.946 8.813-8.812 8.813z" fill="#373c41"/></g></g><path d="m281.235 118.997v33.58h5.069c25.467 0 47.789-13.427 60.302-33.58z" fill="#fa968c"/><g><g><g><path d="m226.157 187.9h-25.697c-4.867 0-8.812-3.945-8.812-8.812 0-4.867 3.945-8.812 8.812-8.812h25.697c4.867 0 8.812 3.945 8.812 8.812-.001 4.866-3.946 8.812-8.812 8.812z" fill="#ffc305"/></g></g></g><g><g><g><path d="m299.587 187.9h-25.697c-4.867 0-8.812-3.945-8.812-8.812 0-4.867 3.945-8.812 8.812-8.812h25.697c4.867 0 8.812 3.945 8.812 8.812 0 4.866-3.945 8.812-8.812 8.812z" fill="#ffc305"/></g></g></g><g><g><path d="m237.17 249.128c-2.191 7.719 1.791 16.127 9.403 18.662 1.532.51 3.171.786 4.874.786s3.342-.276 4.874-.786c7.613-2.534 11.594-10.943 9.404-18.662l-10.684-37.648c-1.028-3.621-6.16-3.621-7.187 0z" fill="#fa968c"/></g></g><path d="m260.268 115.524c-63.84-.122-115.665 51.584-115.665 115.424v33.401c0 65.03 58.362 115.336 123.751 104.266-49.92-8.492-87.936-51.926-87.936-104.266.027-46.851-.004-68.596-.009-79.193-.003-8.388 6.856-15.266 15.244-15.284h.011 51.281c29.842 0 54.035-24.192 54.035-54.035-.001.001-7.795-.25-40.712-.313z" fill="#fa968c"/><path d="m199.253 72.635c-30.183 0-54.65 24.468-54.65 54.65v35.243 68.419c7.826 0 14.171-6.344 14.171-14.171v-17.358c0-20.374 16.516-36.89 36.89-36.89h51.281c29.842 0 54.035-24.192 54.035-54.035v-35.858z" fill="#ffc305"/><path d="m299.064 115.336c24.172 0 44.01 20.692 44.01 44.864v56.578c0 7.826 6.344 14.171 14.171 14.171v-100.603c0-10.373-8.804-18.565-19.15-17.82z" fill="#ffc305"/><g fill="#fff"><path d="m285.157 283.528h-66.188c-2.746 0-4.941 2.397-4.574 5.119.701 5.207 2.456 10.08 5.044 14.397l.007.002c6.642 11.076 18.762 18.492 32.617 18.492 6 0 11.673-1.395 16.719-3.872l.008.002c11.146-5.471 19.22-16.239 20.941-29.022.366-2.72-1.828-5.118-4.574-5.118z"/><path d="m209.273 222.255c-1.953 0-3.537-1.584-3.537-3.537v-10.627c0-1.953 1.584-3.537 3.537-3.537 1.953 0 3.537 1.584 3.537 3.537v10.627c0 1.953-1.584 3.537-3.537 3.537z"/><path d="m281.235 220.51c-1.953 0-3.537-1.584-3.537-3.537v-10.627c0-1.953 1.584-3.537 3.537-3.537 1.953 0 3.537 1.584 3.537 3.537v10.627c0 1.953-1.584 3.537-3.537 3.537z"/></g><ellipse cx="181.456" cy="263.182" fill="#fa968c" rx="24.279" ry="20.346"/><ellipse cx="319.24" cy="263.182" fill="#fa968c" rx="24.279" ry="20.346"/><g><g><g><g><path d="m128.156 231.18c0 9.083 7.364 16.447 16.447 16.447v-32.694c-9.083 0-16.447 7.364-16.447 16.447z" fill="#fff"/></g></g></g><g><path d="m140.046 270.55c-2.485 0-4.5-2.015-4.5-4.5v-33.693c0-2.485 2.015-4.5 4.5-4.5s4.5 2.015 4.5 4.5v33.693c0 2.485-2.015 4.5-4.5 4.5z" fill="#fff"/></g></g><g><g><g><g><path d="m373.207 229.083c0 9.083-7.364 16.447-16.447 16.447v-32.694c9.083 0 16.447 7.364 16.447 16.447z" fill="#fff"/></g></g></g><g><path d="m361.317 268.454c2.485 0 4.5-2.015 4.5-4.5v-33.694c0-2.485-2.015-4.5-4.5-4.5s-4.5 2.015-4.5 4.5v33.693c0 2.486 2.014 4.501 4.5 4.501z" fill="#fff"/></g></g><path d="m293.871 475.413h-76.743c-16.433 0-30.495 10.119-36.317 24.463 23.624 7.225 48.7 11.124 74.689 11.124 25.923 0 51.007-3.901 74.678-11.15-5.828-14.33-19.883-24.437-36.307-24.437z" fill="#dcbe82"/><path d="m188.265 72.391c-46.491 0-84.179 37.688-84.179 84.179v220.199c0 35.3 15.821 66.9 40.754 88.112v-31.972c-11.765-15.655-18.754-35.094-18.754-56.14v-220.199c0-34.285 27.893-62.179 62.179-62.179h13.814c1.184-.274 2.393-.431 3.612-.431h26.374l.667-21.569z" fill="#934d34"/><path d="m179.017 398.258c-33.88.016-33.899-.108-38.142.261-27.241 2.009-50.915 16.802-65.073 38.394 25.386 25.217 56.052 45.118 90.191 57.919v-11.208c0-35.401 21.554-65.753 52.252-78.68l-.01-6.687h-39.218z" fill="#823214"/><path d="m284.466 94.391h10.715c41.197 0 74.713 33.516 74.713 74.713v208.687c0 10.794-1.87 21.158-5.294 30.792h23.088c2.737-9.797 4.205-20.123 4.205-30.792v-208.687c0-53.413-43.3-96.713-96.713-96.713h-69.239c-14.328 0-26.563 8.932-31.462 21.528h86.058c1.367 0 2.675.174 3.929.472z" fill="#a55a3c"/><path d="m281.994 94.515-1.456.404.697 49.658h5.069c31.912 0 58.898-21.073 67.813-50.062z" fill="#ffc305"/></g></g></svg>