<svg id="Layer_1" enable-background="new 0 0 511 511" height="512" viewBox="0 0 511 511" width="512" xmlns="http://www.w3.org/2000/svg"><g><g><path d="m255.5 24.963c-93.52 0-151.129 52.751-151.288 52.84 0 0-2.395 2.989-2.843 4.977-3.639 16.152-7.038 37.799-7.038 53.596 0 134.215 113.183 242.992 247.398 242.992 51.683 0 109.185-24.771 147.669-54.553.861-.666 3.592-5.143 3.592-5.143.169-1.036 5.528-22.374 5.528-51.69.001-134.216-108.803-243.019-243.018-243.019z" fill="#afe6ff"/><path d="m341.708 372.507c-134.215 0-243.018-108.803-243.018-243.019 0-17.74 1.913-35.026 5.522-51.686-55.889 44.526-91.731 113.168-91.731 190.179 0 54.277 17.794 104.398 47.867 144.849l390.227.111c20.229-27.173 34.946-58.788 42.416-93.27-41.513 33.066-94.086 52.836-151.283 52.836z" fill="#73c8f0"/></g><g><g><path d="m241.903 13.65h-1.881c-57.946 0-104.921 46.975-104.921 104.921v44.369h106.802z" fill="#934d34"/><path d="m270.394 13.65h-9.681v149.29h114.601v-44.369c.001-57.946-46.974-104.921-104.92-104.921z" fill="#a55a3c"/></g><path d="m392.467 337.846-137.261-30.374-39.145 8.688c-34.245 7.601-58.613 37.97-58.613 73.049v101.193c26.891 11.874 56.339 19.015 87.292 20.365l10.76-8.556 11.241 8.534c74.885-3.426 141.516-40.901 183.905-97.9v-2.537c0-34.81-24.193-64.942-58.179-72.462z" fill="#64bc0f"/><path d="m158.36 490.789v-80.521c0-34.791 24.168-64.912 58.133-72.45l87.79-19.485-49.077-10.86-136.719 30.345c-33.964 7.538-58.133 37.659-58.133 72.45v2.558c25.153 33.833 58.9 60.889 98.006 77.963z" fill="#58a804"/><g><g><g><path d="m358.924 209.812h-1l-6.835-33.606 6.835-27.725h1c13.361 0 24.193 10.831 24.193 24.193v12.946c0 13.361-10.831 24.192-24.193 24.192z" fill="#ff965a"/></g></g></g><g><path d="m255.741 280.202c-43.188 0-78.199 35.011-78.199 78.199 0 28.746 15.522 53.854 38.631 67.442l40.025-40.025 39.692 39.692c22.791-13.665 38.051-38.601 38.051-67.109-.001-43.188-35.012-78.199-78.2-78.199z" fill="#64bc0f"/></g><g><path d="m255.741 294.202c43.188 0 78.199 35.011 78.199 78.199 0 28.508-15.26 53.444-38.051 67.109l-39.692-39.692-40.025 40.025c-23.109-13.588-38.631-38.695-38.631-67.442 0-43.187 35.012-78.199 78.2-78.199m0-12c-49.736 0-90.199 40.463-90.199 90.199 0 16 4.251 31.722 12.292 45.466 7.793 13.319 18.947 24.495 32.256 32.321l8.003 4.706 6.565-6.565 31.54-31.54 31.207 31.207 6.623 6.623 8.033-4.816c13.127-7.87 24.119-19.028 31.786-32.266 7.912-13.661 12.095-29.269 12.095-45.135-.002-49.736-40.465-90.2-90.201-90.2z" fill="#58a804"/></g><g><path d="m255.741 280.201c43.188 0 78.199 35.011 78.199 78.199 0 28.508-15.26 53.444-38.051 67.109l-39.692-39.692-40.025 40.025c-23.109-13.588-38.631-38.695-38.631-67.442 0-43.187 35.012-78.199 78.2-78.199m0-12c-49.736 0-90.199 40.463-90.199 90.199 0 16 4.251 31.722 12.292 45.466 7.793 13.319 18.947 24.495 32.256 32.321l8.003 4.706 6.565-6.565 31.54-31.54 31.207 31.207 6.623 6.623 8.033-4.816c13.127-7.87 24.119-19.028 31.786-32.266 7.912-13.661 12.095-29.269 12.095-45.135-.002-49.736-40.465-90.2-90.201-90.2z" fill="#fff"/></g><g><g><g><path d="m255.741 383.62c20.073 0 36.344-16.272 36.344-36.344v-81.406h-72.689v81.406c0 20.073 16.272 36.344 36.345 36.344z" fill="#ff965a"/></g></g></g><g><g><g><path d="m354.335 138.353c0-33.168-21.278-63.497-54.445-63.497h-88.298c-9.464 0-18.132 2.477-25.694 6.777v175.309c0 38.264 30.776 69.577 69.038 69.867.268.002.537.003.805.003 56.987 0 103.183-46.197 103.183-103.183v-32.575z" fill="#ffbe82"/></g></g></g><g><g><g><path d="m358.924 190.775v-23.256c5.066 0 9.174 4.107 9.174 9.174v4.909c0 5.066-4.107 9.173-9.174 9.173z" fill="#fa735f"/></g></g></g><g><g><g><path d="m127.343 185.62c0 13.361 10.832 24.193 24.193 24.193h1.553l12.385-26.092-12.178-35.239h-1.761c-13.361 0-24.193 10.831-24.193 24.193v12.945z" fill="#ff965a"/></g></g></g><g><g><g><path d="m141.695 181.78c0 5.435 4.406 9.841 9.841 9.841v-24.949c-5.435 0-9.841 4.406-9.841 9.841z" fill="#fa735f"/></g></g></g><g><g><g><path d="m135.089 192.88c0 9.083 7.364 16.447 16.447 16.447v-32.694c-9.083 0-16.447 7.364-16.447 16.447z" fill="#fff"/></g></g></g><g><g><g><path d="m211.159 185.07v7.276c0 4.746 3.848 8.594 8.594 8.594s8.594-3.848 8.594-8.594v-7.276z" fill="#ff965a"/></g></g></g><g><g><g><path d="m281.182 185.07v7.276c0 4.746 3.848 8.594 8.594 8.594s8.594-3.848 8.594-8.594v-7.276z" fill="#ff965a"/></g></g></g><g><g><g><path d="m219.753 194.057c-4.746 0-8.594-3.848-8.594-8.594v-11.055l3.168-4.797-3.168-4.797v-2.855c0-4.746 3.848-8.594 8.594-8.594s8.594 3.848 8.594 8.594v23.504c0 4.746-3.848 8.594-8.594 8.594z" fill="#373c41"/></g></g></g><g><g><g><path d="m289.776 194.057c-4.746 0-8.594-3.848-8.594-8.594v-11.055l3.168-4.797-3.168-4.797v-2.855c0-4.746 3.848-8.594 8.594-8.594s8.594 3.848 8.594 8.594v23.504c0 4.746-3.848 8.594-8.594 8.594z" fill="#373c41"/></g></g></g><g><path d="m269.683 31.939h-28.906c-49.286 0-89.241 39.955-89.241 89.241v45.719.003 52.153c7.633 0 13.821-6.188 13.821-13.821v-61.026h179.747v61.026c0 7.633 6.188 13.821 13.821 13.821v-52.153c0-.001 0-.002 0-.003v-45.719c-.001-49.286-39.955-89.241-89.242-89.241z" fill="#ffbe82"/></g><g><path d="m214.327 177.576c-1.75 0-3.168-1.418-3.168-3.168v-9.594c0-1.75 1.418-3.168 3.168-3.168 1.75 0 3.168 1.418 3.168 3.168v9.594c0 1.75-1.419 3.168-3.168 3.168z" fill="#fff"/></g><g><path d="m284.35 177.576c-1.75 0-3.168-1.418-3.168-3.168v-9.594c0-1.75 1.418-3.168 3.168-3.168 1.75 0 3.168 1.418 3.168 3.168v9.594c0 1.75-1.418 3.168-3.168 3.168z" fill="#fff"/></g><g><path d="m146.979 232.25c-2.485 0-4.5-2.015-4.5-4.5v-33.693c0-2.485 2.015-4.5 4.5-4.5s4.5 2.015 4.5 4.5v33.693c0 2.486-2.015 4.5-4.5 4.5z" fill="#fff"/></g><g><g><g><path d="m375.371 195.381c0 9.083-7.364 16.447-16.447 16.447v-32.694c9.083 0 16.447 7.364 16.447 16.447z" fill="#fff"/></g></g></g><g><path d="m363.481 234.751c-2.485 0-4.5-2.015-4.5-4.5v-33.693c0-2.485 2.015-4.5 4.5-4.5s4.5 2.015 4.5 4.5v33.693c0 2.486-2.015 4.5-4.5 4.5z" fill="#fff"/></g><g><path d="m186.243 254.586c.256-5.827.296-133.406.296-133.406 0-48.266 38.319-87.576 86.193-89.184-1.012-.034-2.027-.057-3.048-.057h-28.906c-49.286 0-89.241 39.955-89.241 89.241v129.428c0 59.556 49.9 107.227 109.797 104.054-43.381-12.598-75.091-52.631-75.091-100.076z" fill="#ff965a"/></g><g><g><path d="m197.419 101.987h113.867v10h-113.867z" fill="#ff965a"/></g></g><g><g><path d="m197.419 81.569h113.867v10h-113.867z" fill="#ff965a"/></g></g><path d="m358.14 182.116c-6.561 0-11.877 5.329-11.856 11.894.037 11.945-10.505 21.706-22.45 21.706h-112.001v70.887c0 41.961 32.485 76.76 74.346 79.643 42.129-12.988 72.745-52.226 72.745-98.617v-84.729z" fill="#a55a3c"/><g><path d="m286.178 366.245c-42.55-13.042-73.638-52.63-73.638-99.635 0 0 0-23.718 0-50.893h-25.598c-12.009 0-21.744-9.735-21.744-21.744 0-6.548-5.308-11.856-11.856-11.856h-1.805v84.493c0 59.399 49.678 107.164 109.797 104.054-.002 0-.004-.001-.005-.002 8.605-.459 16.93-1.976 24.849-4.417z" fill="#934d34"/></g><g><g><g><path d="m241.816 206.256c-2.136 8.531 1.746 17.824 9.171 20.625 1.494.564 3.092.869 4.754.869 1.661 0 3.26-.305 4.754-.869 7.425-2.801 11.308-12.094 9.171-20.625l-7.082-28.282c-1.783-7.12-11.902-7.12-13.685 0z" fill="#ff965a"/></g></g></g><g><g><g><g><path d="m231.075 149.068h-25.062c-4.746 0-8.594-3.848-8.594-8.594 0-4.746 3.848-8.594 8.594-8.594h25.062c4.746 0 8.594 3.848 8.594 8.594 0 4.746-3.848 8.594-8.594 8.594z" fill="#a55a3c"/></g></g></g></g><g><g><g><g><path d="m302.691 149.068h-25.062c-4.746 0-8.594-3.848-8.594-8.594 0-4.746 3.848-8.594 8.594-8.594h25.062c4.746 0 8.594 3.848 8.594 8.594 0 4.746-3.848 8.594-8.594 8.594z" fill="#a55a3c"/></g></g></g></g><g><path d="m318.549 0c0 17.64-23.96 63.879-61.693 63.879-17.64 0-31.939-14.3-31.939-31.939s14.299-31.94 31.939-31.94 44.018 15.056 61.693 0z" fill="#a55a3c"/></g><g><path d="m255.741 297.911c-23.813 0-43.118-19.305-43.118-43.118v-6.057c0-8.228 6.67-14.898 14.898-14.898h56.44c8.228 0 14.898 6.67 14.898 14.898v6.057c0 23.814-19.305 43.118-43.118 43.118z" fill="#ffbe82"/></g><g><g><path d="m287.385 241.6h-8.849l-23.305 4.838-23.305-4.838h-7.828c-2.626 0-4.724 2.292-4.374 4.895.67 4.979 2.349 9.638 4.823 13.766l47.189 13.984c10.657-5.231 18.378-15.528 20.023-27.75.35-2.602-1.748-4.895-4.374-4.895z" fill="#be1423"/></g><g><path d="m224.55 260.259c6.351 10.593 17.941 17.686 31.19 17.686 5.74 0 11.166-1.335 15.992-3.704-2.075-13.015-13.347-22.963-26.946-22.963-8.026-.001-15.242 3.465-20.236 8.981z" fill="#ff3c3c"/></g><g><path d="m273.409 251.277h-36.357c-2.831 0-5.127-2.295-5.127-5.127v-4.55h46.611v4.55c-.001 2.832-2.296 5.127-5.127 5.127z" fill="#fff"/></g></g><path d="m244.741 510.75c3.568.156 7.152.25 10.759.25 3.766 0 7.513-.091 11.241-.261v-108.87h-22z" fill="#fff"/></g></g></svg>