<svg id="Layer_1" enable-background="new 0 0 511 511" height="512" viewBox="0 0 511 511" width="512" xmlns="http://www.w3.org/2000/svg"><g><g><path d="m255.5 15.201c-95.398 0-154.164 53.811-154.326 53.901 0 0-2.443 3.049-2.9 5.077-3.712 16.477-7.18 38.559-7.18 54.672 0 136.911 115.456 247.872 252.367 247.872 52.721 0 111.377-25.268 150.635-55.649.878-.68 3.664-5.246 3.664-5.246.173-1.056 5.639-22.823 5.639-52.728 0-136.91-110.988-247.899-247.899-247.899z" fill="#afe6ff"/><path d="m343.44 369.726c-136.911 0-247.899-110.989-247.899-247.899 0-18.097 1.952-35.729 5.633-52.724-57.012 45.419-93.573 115.44-93.573 193.998 0 43.664 11.289 84.691 31.107 120.322l410.053 34.953c23.593-29.316 40.691-64.193 49-102.547-42.347 33.729-95.976 53.897-154.321 53.897z" fill="#73c8f0"/></g><path d="m404.518 365.806-46.144-13.93-12.865 79.327 12.865 57.47c3.556-1.625 7.069-3.331 10.534-5.116z" fill="#ffbe82"/><g><path d="m329.54 345.495-144.166-.151v155.594c22.235 6.548 45.77 10.062 70.126 10.062 24.826 0 48.863-3.672 71.572-10.519l2.033-4.051 2.967 2.485c8.998-2.923 17.776-6.348 26.302-10.242v-136.797z" fill="#fff"/><path d="m185.938 345.345-71.61-.075-29.784 6.611c-.331.073-.655.163-.983.241v89.544c8.439 8.128 17.453 15.664 26.974 22.54l2.502-3.115 2.498 6.633c21.308 14.605 45.013 25.965 70.403 33.376z" fill="#e4f2f6"/><path d="m83.883 352.045c-19.04 4.409-34.946 15.925-45.161 31.369 12.087 21.731 27.358 41.439 45.161 58.531z" fill="#ff965a"/><g><path d="m299.323 338.809-78.059-17.274-77.824 17.274-31.675 7.03v34.208c0 37.891 30.717 68.607 68.607 68.607h78.785c37.891 0 68.607-30.717 68.607-68.607v-34.944z" fill="#ffbe82"/></g><g><g><g><path d="m324.982 205.875h-1l-6.835-33.606 6.835-27.725h1c13.361 0 24.193 10.832 24.193 24.193v12.946c0 13.36-10.831 24.192-24.193 24.192z" fill="#ff965a"/></g></g></g><g><g><g><path d="m221.799 379.683c20.073 0 36.344-16.272 36.344-36.344v-81.406h-72.689v81.406c0 20.072 16.272 36.344 36.345 36.344z" fill="#ffbe82"/></g></g></g><g><g><g><path d="m320.393 134.415c0-33.168-21.278-63.497-54.445-63.497h-88.298c-9.464 0-18.132 2.477-25.694 6.777v175.309c0 38.264 30.776 69.577 69.038 69.867.268.002.537.003.805.003 56.987 0 103.183-46.197 103.183-103.183v-32.575z" fill="#ffbe82"/></g></g></g><g><g><g><path d="m324.982 186.837v-23.256c5.066 0 9.174 4.107 9.174 9.174v4.909c0 5.066-4.107 9.173-9.174 9.173z" fill="#fa735f"/></g></g></g><g><g><g><path d="m93.401 181.682c0 13.361 10.832 24.193 24.193 24.193h1.553l12.385-26.092-12.178-35.239h-1.761c-13.361 0-24.193 10.832-24.193 24.193v12.945z" fill="#ff965a"/></g></g></g><g><g><g><path d="m107.753 177.842c0 5.435 4.406 9.841 9.841 9.841v-24.949c-5.435 0-9.841 4.406-9.841 9.841z" fill="#fa735f"/></g></g></g><g><g><g><path d="m101.147 188.942c0 9.083 7.364 16.447 16.447 16.447v-32.694c-9.083 0-16.447 7.364-16.447 16.447z" fill="#373c41"/></g></g></g><g><g><g><path d="m177.217 181.132v7.276c0 4.746 3.848 8.594 8.594 8.594s8.594-3.848 8.594-8.594v-7.276z" fill="#ff965a"/></g></g></g><g><g><g><path d="m247.24 181.132v7.276c0 4.746 3.848 8.594 8.594 8.594s8.594-3.848 8.594-8.594v-7.276z" fill="#ff965a"/></g></g></g><g><g><g><path d="m185.811 190.119c-4.746 0-8.594-3.848-8.594-8.594v-11.055l3.168-4.797-3.168-4.797v-2.855c0-4.746 3.848-8.594 8.594-8.594s8.594 3.848 8.594 8.594v23.504c0 4.746-3.848 8.594-8.594 8.594z" fill="#373c41"/></g></g></g><g><g><g><path d="m255.834 190.119c-4.746 0-8.594-3.848-8.594-8.594v-11.055l3.168-4.797-3.168-4.797v-2.855c0-4.746 3.848-8.594 8.594-8.594s8.594 3.848 8.594 8.594v23.504c0 4.746-3.848 8.594-8.594 8.594z" fill="#373c41"/></g></g></g><g><g><g><g><path d="m197.133 145.13h-25.062c-4.746 0-8.594-3.848-8.594-8.594 0-4.746 3.848-8.594 8.594-8.594h25.062c4.746 0 8.594 3.848 8.594 8.594 0 4.746-3.848 8.594-8.594 8.594z" fill="#a55a3c"/></g></g></g></g><g><g><g><g><path d="m268.749 145.13h-25.062c-4.746 0-8.594-3.848-8.594-8.594 0-4.746 3.848-8.594 8.594-8.594h25.062c4.746 0 8.594 3.848 8.594 8.594 0 4.746-3.847 8.594-8.594 8.594z" fill="#a55a3c"/></g></g></g></g><path d="m235.741 0-1.425.083c-46.273 2.707-82.41 41.022-82.41 87.373v24.812h159.256v61.026c0 7.633 6.188 13.821 13.821 13.821v-42.572l-4.244-23.691 4.244-27.295v-4.317c-.001-49.285-39.955-89.24-89.242-89.24z" fill="#ffbe82"/><g><path d="m180.385 173.638c-1.75 0-3.168-1.418-3.168-3.168v-9.594c0-1.75 1.418-3.168 3.168-3.168 1.75 0 3.168 1.418 3.168 3.168v9.594c0 1.75-1.419 3.168-3.168 3.168z" fill="#fff"/></g><g><path d="m250.408 173.638c-1.75 0-3.168-1.418-3.168-3.168v-9.594c0-1.75 1.418-3.168 3.168-3.168 1.75 0 3.168 1.418 3.168 3.168v9.594c0 1.75-1.418 3.168-3.168 3.168z" fill="#fff"/></g><g><g><g><path d="m341.429 191.443c0 9.083-7.364 16.447-16.447 16.447v-32.694c9.083 0 16.447 7.364 16.447 16.447z" fill="#373c41"/></g></g></g><path d="m152.301 222.646c.256-5.827.296-133.406.296-133.406 0-48.266 38.319-87.576 86.193-89.183-1.013-.034-2.028-.057-3.049-.057h-28.906c-49.287 0-89.241 39.955-89.241 89.241v4.317l5.419 30.818-5.419 20.168v74.126c0 59.556 49.9 107.227 109.797 104.054-43.38-12.599-75.09-52.633-75.09-100.078z" fill="#ff965a"/><g><path d="m258.143 252.932h-10.839c-14.152 8.643-30.538 13.988-48.102 14.926.002 0 .003.001.005.001-.028.001-.056.002-.084.003-.898.047-1.8.084-2.705.108-.004 0-.008 0-.012 0-.927.024-1.858.039-2.791.039-.269 0-.537-.001-.805-.003-.126-.001-.25-.011-.375-.013-2.346-.025-4.673-.131-6.98-.31v66.654c0 1.442.093 2.861.256 4.259 2.333.256 4.701.396 7.099.415.268.002.537.003.805.003 24.421 0 46.856-8.49 64.528-22.671z" fill="#ff965a"/></g><g fill="#b56548"><path d="m117.594 139.992c0-2.258 0-4.952 0-7.997z"/><path d="m152.357 225.343c-18.741-16.76-34.763-66.602-34.763-66.602s.196-.011 0 0v59.928c0 59.556 49.9 107.227 109.797 104.054-42.554-12.358-73.857-51.122-75.034-97.38z"/></g><g><path d="m227.386 251.718c.002 0 .003.001.005.001-28.335 1.466-55.101-8.361-75.436-26.736v28.02c0 37.906 30.425 69.87 69.844 69.87 56.987 0 103.183-46.197 103.183-103.183v-32.575-23.534c-8.501 46.241-49.536 85.572-97.596 88.137z" fill="#c67359"/></g><g><g><path d="m163.477 98.049h113.867v10h-113.867z" fill="#ff965a"/></g></g><g><g><path d="m163.477 77.631h113.867v10h-113.867z" fill="#ff965a"/></g></g><g><path d="m231.604 307.665h-19.61c-19.185 0-34.738-15.553-34.738-34.738v-36.959c0-9.603 7.785-17.388 17.388-17.388h54.309c9.603 0 17.388 7.785 17.388 17.388v36.959c.001 19.186-15.552 34.738-34.737 34.738z" fill="#a55a3c"/></g><g><g><path d="m253.443 237.663h-8.849l-23.305 4.838-23.305-4.838h-7.828c-2.626 0-4.724 2.292-4.374 4.895.67 4.979 2.349 9.638 4.823 13.766l47.189 13.984c10.657-5.231 18.378-15.528 20.023-27.75.35-2.603-1.748-4.895-4.374-4.895z" fill="#be1423"/></g><g><path d="m190.608 256.321c6.351 10.593 17.941 17.686 31.19 17.686 5.74 0 11.166-1.335 15.992-3.704-2.075-13.015-13.347-22.963-26.946-22.963-8.026 0-15.242 3.465-20.236 8.981z" fill="#ff3c3c"/></g><g><path d="m239.467 247.34h-36.357c-2.831 0-5.127-2.295-5.127-5.127v-4.55h46.611v4.55c0 2.831-2.296 5.127-5.127 5.127z" fill="#fff"/></g></g><g><g><g><path d="m207.874 202.319c-2.136 8.531 1.746 17.824 9.171 20.625 1.494.564 3.092.869 4.754.869 1.661 0 3.26-.305 4.754-.869 7.425-2.801 11.308-12.094 9.171-20.625l-7.082-28.282c-1.783-7.12-11.902-7.12-13.685 0z" fill="#ff965a"/></g></g></g><g><path d="m117.594 93.558v51.124c9.485 0 17.174-7.689 17.174-17.174v-16.776c.001-9.485-7.689-17.174-17.174-17.174z" fill="#a55a3c"/></g><g><path d="m324.982 93.558v51.124c-7.913 0-14.328-6.415-14.328-14.328v-22.469c.001-7.913 6.415-14.327 14.328-14.327z" fill="#a55a3c"/></g><g><path d="m162.013 431.85c-9.675 0-17.546-7.871-17.546-17.546h9c0 4.712 3.834 8.546 8.546 8.546s8.546-3.834 8.546-8.546h9c0 9.675-7.871 17.546-17.546 17.546z" fill="#a55a3c"/></g><g><path d="m274.01 434.829c-9.675 0-17.546-7.871-17.546-17.546h9c0 4.712 3.834 8.546 8.546 8.546s8.546-3.834 8.546-8.546h9c0 9.675-7.871 17.546-17.546 17.546z" fill="#a55a3c"/></g><path d="m318.043 399.03c-3.968-2.493-8.671-3.291-13.238-2.249-4.569 1.043-8.459 3.804-10.952 7.772l7.621 4.787c1.214-1.933 3.108-3.277 5.334-3.785 2.225-.508 4.515-.119 6.448 1.096 1.933 1.214 3.277 3.108 3.785 5.334.508 2.225.119 4.515-1.096 6.448l.057.036c2.98-4.4 5.453-9.17 7.357-14.219-1.363-2.074-3.152-3.86-5.316-5.22z" fill="#a55a3c"/><path d="m133.019 406.068 7.039-5.607c-6.027-7.566-17.088-8.821-24.656-2.794-.377.301-.727.623-1.073.948 1.002 3.572 2.282 7.027 3.823 10.338.48-1.62 1.438-3.115 2.857-4.246 3.685-2.937 9.074-2.325 12.01 1.361z" fill="#a55a3c"/><g><path d="m230.013 414.338c-4.424 0-8.852-1.658-12.259-4.985-6.92-6.763-7.05-17.893-.29-24.812l6.438 6.289c-3.292 3.37-3.229 8.792.142 12.085 3.37 3.29 8.793 3.229 12.086-.143l6.438 6.289c-3.433 3.513-7.992 5.277-12.555 5.277z" fill="#a55a3c"/></g><g><path d="m202.595 444.045c-4.493 0-8.986-1.71-12.406-5.131-6.842-6.841-6.842-17.972 0-24.812l6.363 6.363c-3.332 3.332-3.332 8.754 0 12.086s8.754 3.332 12.086 0l6.363 6.363c-3.419 3.421-7.913 5.131-12.406 5.131z" fill="#a55a3c"/></g><path d="m236.52 437.566c3.018 3.019 3.293 7.746.843 11.088h9.914c1.786-5.982.323-12.736-4.394-17.451z" fill="#a55a3c"/><g><g><path d="m436.277 255.242v61.126h27.83v-61.126c0-7.685-6.23-13.915-13.915-13.915-7.685 0-13.915 6.23-13.915 13.915z" fill="#ffbe82"/></g><g><path d="m460.192 235.753-26.938 66.014 24.421 31.178 30.127-95.991c1.502-4.787-1.16-9.886-5.947-11.388-8.772-2.754-18.19 1.675-21.663 10.187z" fill="#ff965a"/></g><g><path d="m436.277 251.854v61.126h27.83v-61.126c0-7.685-6.23-13.915-13.915-13.915-7.685 0-13.915 6.23-13.915 13.915z" fill="#ffbe82"/></g><g><path d="m408.639 243.612v46.899h27.83v-46.899c0-7.685-6.23-13.915-13.915-13.915-7.685 0-13.915 6.23-13.915 13.915z" fill="#ffbe82"/></g><g><path d="m381.001 248.847v61.126h27.83v-61.126c0-7.685-6.23-13.915-13.915-13.915-7.685 0-13.915 6.23-13.915 13.915z" fill="#ffbe82"/></g><g><path d="m367.278 246.079c-2.144 0-4.166.499-5.978 1.365v65.546h19.893v-52.996c0-7.685-6.23-13.915-13.915-13.915z" fill="#ffbe82"/></g><g><path d="m361.3 284.926v19.377c0 13.816 11.2 25.016 25.016 25.016 4.787-.11 9.663 2.913 9.663 9.075v26.031c4.095.966 8.366 1.478 12.756 1.478 30.581 0 55.372-24.791 55.372-55.372v-25.605z" fill="#ffbe82"/></g><path d="m395.979 353.281v114.054c19.855-13.674 37.652-30.173 52.775-48.965v-80.954z" fill="#ffbe82"/><g><path d="m388.737 236.392h1.246v25.85c0 4.961-4.022 8.983-8.983 8.983v-22.378c.001-5.463 3.157-10.177 7.737-12.455z" fill="#ff965a"/></g><g><path d="m417.622 230.613v31.629c0 4.961-4.022 8.983-8.983 8.983v-27.613c0-5.946 3.736-11.006 8.983-12.999z" fill="#ff965a"/></g><g><path d="m436.615 271.225v-22.39c1.045-4.72 4.486-8.528 8.983-10.103v23.511c0 4.96-4.022 8.982-8.983 8.982z" fill="#ff965a"/></g><path d="m396.397 467.053v-137.543c-19.386-.794-34.866-16.744-34.885-36.325-.016-37.162-.019-44.453-.02-45.631v-.203c-5.038 2.309-8.12 7.326-8.122 12.641v53c.177 1.11.106 12.152 7.015 24.507 2.344 4.191 5.211 8.051 8.523 11.481v134.578c9.535-4.915 18.713-10.435 27.489-16.505z" fill="#ff965a"/></g><path d="m115.538 220.167c0-1.381-1.119-2.5-2.5-2.5s-2.5 1.119-2.5 2.5v244.035c1.652 1.193 3.318 2.366 5 3.519z" fill="#827ddc"/><g><path d="m113.038 228.312c-2.485 0-4.5-2.015-4.5-4.5v-33.693c0-2.485 2.015-4.5 4.5-4.5s4.5 2.015 4.5 4.5v33.693c0 2.486-2.015 4.5-4.5 4.5z" fill="#373c41"/></g><path d="m113.287 318.7c-3.047 0-5.517 2.47-5.517 5.517v48.954c0 3.047 2.47 5.517 5.517 5.517s5.517-2.47 5.517-5.517v-48.954c0-3.048-2.47-5.517-5.517-5.517z" fill="#6e64c3"/><path d="m332.069 498.906v-278.941c0-1.381-1.119-2.5-2.5-2.5s-2.5 1.119-2.5 2.5v280.507c1.674-.505 3.341-1.027 5-1.566z" fill="#827ddc"/><g><path d="m329.54 230.814c-2.485 0-4.5-2.015-4.5-4.5v-33.694c0-2.485 2.015-4.5 4.5-4.5s4.5 2.015 4.5 4.5v33.694c0 2.486-2.015 4.5-4.5 4.5z" fill="#373c41"/></g></g></g></svg>