<svg id="Layer_1" enable-background="new 0 0 511 511" height="512" viewBox="0 0 511 511" width="512" xmlns="http://www.w3.org/2000/svg"><g><g><path d="m255.5 25.035c-93.506 0-151.107 52.743-151.265 52.832 0 0-2.395 2.989-2.842 4.976-3.638 16.15-7.037 37.794-7.037 53.588 0 134.195 113.166 242.956 247.362 242.956 51.675 0 109.168-24.767 147.647-54.545.861-.666 3.592-5.142 3.592-5.142.169-1.035 5.527-22.37 5.527-51.682-.002-134.196-108.789-242.983-242.984-242.983z" fill="#afe6ff"/><path d="m341.696 372.528c-134.195 0-242.982-108.787-242.982-242.982 0-17.738 1.913-35.021 5.522-51.678-55.881 44.518-91.717 113.15-91.717 190.15 0 58.71 20.823 112.558 55.485 154.559.478.58.96 1.157 1.443 1.733l357.439 15.944c32.471-32.288 55.937-73.783 66.07-120.553-41.507 33.059-94.072 52.827-151.26 52.827z" fill="#73c8f0"/></g><g><g><g><path d="m424.652 113.223h37.651v141.411h-37.651z" fill="#ff3c3c" transform="matrix(.908 .419 -.419 .908 117.784 -168.812)"/></g><g><g><path d="m431.827 164.238 13.35 7.747-17.967 2.264-5.921 12.841 41.013-5.168 2.234 1.297 5.047-10.945-32.709-18.981z" fill="#dc1428"/></g><g><path d="m415.066 213.702h12v37.651h-12z" fill="#dc1428" transform="matrix(.419 -.908 .908 .419 33.578 517.516)"/></g><g><path d="m410.463 210.564 31.746 21.07 5.085-11.027-31.746-21.069z" fill="#dc1428"/></g><g><path d="m446.015 133.472-5.428 11.77 40.625 1.816 5.428-11.77z" fill="#dc1428"/></g></g><g><path d="m359.066 429.276 73.228-158.793-26.992-12.447-78.97 171.24z" fill="#b4d7dc"/></g><g><path d="m326.332 429.276 78.97-171.24-20.871-9.625-83.408 180.865z" fill="#87afb9"/></g><g><path d="m442.755 284.079-74.38-34.301c4.751-10.303 16.955-14.803 27.258-10.052l37.07 17.095c10.303 4.751 14.803 16.955 10.052 27.258z" fill="#6c9baa"/></g></g><g><g><path d="m48.697 85.578h37.651v141.411h-37.651z" fill="#ff3c3c" transform="matrix(-.908 .419 -.419 -.908 194.286 269.927)"/></g><g><g><path d="m79.173 136.594-13.35 7.747 17.967 2.263 5.921 12.841-41.013-5.167-2.234 1.296-5.047-10.945 32.709-18.981z" fill="#dc1428"/></g><g><path d="m71.109 198.883h37.651v12h-37.651z" fill="#dc1428" transform="matrix(.908 -.419 .419 .908 -77.534 56.493)"/></g><g><path d="m100.537 182.92-31.746 21.069-5.085-11.026 31.746-21.07z" fill="#dc1428"/></g><g><path d="m64.985 105.828 5.428 11.77-40.625 1.815-5.428-11.77z" fill="#dc1428"/></g></g><g><path d="m198.124 429.276-91.842-199.154-27.576 12.717 85.977 186.437z" fill="#b4d7dc"/></g><g><path d="m222.726 429.276-96.157-208.51-20.871 9.625 91.718 198.885z" fill="#87afb9"/></g><g><path d="m68.245 256.434 74.38-34.301c-4.751-10.303-16.955-14.803-27.258-10.052l-37.07 17.095c-10.303 4.752-14.803 16.955-10.052 27.258z" fill="#6c9baa"/></g></g><g><g><g><path d="m349.375 232.541-3.269-26.007 3.269-35.324c13.361 0 26.193 10.832 26.193 24.193v12.946c0 13.36-12.832 24.192-26.193 24.192z" fill="#ff965a"/></g></g></g><g><g><g><path d="m350.426 214.251-1.319-10.496 1.319-14.256c5.392 0 10.571 4.371 10.571 9.764v5.224c-.001 5.393-5.179 9.764-10.571 9.764z" fill="#ef6a30"/></g></g></g><g><g><g><path d="m145.728 227.104 3.269-26.007-3.269-35.324c-13.361 0-26.193 10.832-26.193 24.193v12.946c0 13.361 12.831 24.192 26.193 24.192z" fill="#ff965a"/></g></g></g><g><g><g><path d="m144.677 208.815 1.319-10.496-1.319-14.256c-5.392 0-10.571 4.371-10.571 9.764v5.224c0 5.392 5.179 9.764 10.571 9.764z" fill="#ef6a30"/></g></g></g><path d="m373.537 365.5-125.856-27.85c-36.978 8.207-63.29 41-63.29 78.878v83.874c22.492 6.878 46.364 10.598 71.109 10.598 66.512 0 127.258-26.876 171.382-70.751v-8.31c0-31.916-22.183-59.543-53.345-66.439z" fill="#ff3c3c"/><path d="m69.459 424.299c29.943 35.607 69.913 62.492 115.569 76.308v-68.702c0-31.9 22.16-59.518 53.302-66.43l67.442-14.969-58.091-12.854-125.358 27.824c-28.637 6.354-49.663 30.222-52.864 58.823z" fill="#dc1428"/><g><path d="m248.192 432.221c33.664 0 60.953-27.29 60.953-60.953v-20.016l-61.464-13.601-60.443 13.416v20.202c0 33.662 27.29 60.952 60.954 60.952z" fill="#dc1428"/></g><g><g><g><path d="m248.192 406.349c-20.073 0-36.344-16.272-36.344-36.344v-81.406h72.689v81.406c-.001 20.072-16.273 36.344-36.345 36.344z" fill="#ff965a"/></g></g></g><g><g><g><path d="m346.786 161.081c0-33.168-21.278-63.497-54.445-63.497h-88.298c-9.464 0-18.132 2.477-25.694 6.777v175.309c0 38.264 30.776 69.577 69.038 69.867.268.002.537.003.805.003 56.987 0 103.183-46.197 103.183-103.183v-32.575z" fill="#ffbe82"/></g></g></g><g><path d="m211.847 288.598v81.406c40.413 7.849 64.954-5.603 72.689-25.837v-55.569z" fill="#ef6a30"/></g><g><g><g><path d="m346.786 161.081c0-33.168-21.278-63.497-54.445-63.497h-88.298c-9.464 0-18.132 2.477-25.694 6.777v175.309c0 38.264 30.776 69.577 69.038 69.867.268.002.537.003.805.003 56.987 0 103.183-46.197 103.183-103.183v-32.575z" fill="#ffbe82"/></g></g></g><g><g><g><path d="m203.609 207.798v7.276c0 4.746 3.848 8.594 8.594 8.594s8.594-3.848 8.594-8.594v-7.276z" fill="#ff965a"/></g></g></g><g><g><g><path d="m273.633 207.798v7.276c0 4.746 3.848 8.594 8.594 8.594s8.594-3.848 8.594-8.594v-7.276z" fill="#ff965a"/></g></g></g><g><g><g><path d="m212.203 216.785c-4.746 0-8.594-3.848-8.594-8.594v-11.055l3.168-4.797-3.168-4.797v-2.855c0-4.746 3.848-8.594 8.594-8.594s8.594 3.848 8.594 8.594v23.504c0 4.746-3.848 8.594-8.594 8.594z" fill="#373c41"/></g></g></g><g><g><g><path d="m282.227 216.785c-4.746 0-8.594-3.848-8.594-8.594v-11.055l3.168-4.797-3.168-4.797v-2.855c0-4.746 3.848-8.594 8.594-8.594s8.594 3.848 8.594 8.594v23.504c0 4.746-3.848 8.594-8.594 8.594z" fill="#373c41"/></g></g></g><g><path d="m334.611 125.184c.986.001 1.96-.047 2.928-.119-9.264-16.253-25.025-27.482-45.198-27.482h-88.299c-9.464 0-18.132 2.477-25.694 6.777v2.196c-19.413 9.058-32.087 28.451-32.087 52.25l-2.274 54.974v31.554c0 59.556 49.9 107.227 109.797 104.054-43.381-12.598-75.091-52.632-75.091-100.077.258-5.863 0-62.674 0-84.254 0-.154.001-.307.002-.461.165-21.948 18.249-39.549 40.197-39.527z" fill="#ff965a"/></g><g><g><g><g><path d="m223.526 171.796h-25.062c-4.746 0-8.594-3.848-8.594-8.594 0-4.746 3.848-8.594 8.594-8.594h25.062c4.746 0 8.594 3.848 8.594 8.594 0 4.746-3.848 8.594-8.594 8.594z" fill="#783c28"/></g></g></g></g><g><g><g><g><path d="m295.142 171.796h-25.062c-4.746 0-8.594-3.848-8.594-8.594 0-4.746 3.848-8.594 8.594-8.594h25.062c4.746 0 8.594 3.848 8.594 8.594 0 4.746-3.848 8.594-8.594 8.594z" fill="#783c28"/></g></g></g></g><g><path d="m345.975 150.023c-4.148-28.554-24.203-52.44-53.635-52.44h-88.298c-7.87 0-15.187 1.718-21.778 4.767 13.933 28.239 43.001 47.672 76.62 47.672h87.091z" fill="#ff965a"/></g><g><g><g><path d="m234.267 228.985c-2.136 8.531 1.746 17.824 9.171 20.625 1.494.564 3.092.869 4.754.869 1.661 0 3.26-.305 4.754-.869 7.425-2.801 11.308-12.094 9.171-20.625l-7.082-28.282c-1.783-7.12-11.902-7.12-13.685 0z" fill="#ff965a"/></g></g></g><g><g><path d="m351.375 103.834v57.792.003 52.153c-7.633 0-13.821-6.188-13.821-13.821v-61.026c0-13.479-7.586-25.903-19.707-31.799-.297-.145-.594-.286-.89-.423v-2.878h34.418z" fill="#6d3222"/></g></g><g><path d="m206.778 200.304c-1.75 0-3.168-1.418-3.168-3.168v-9.594c0-1.75 1.418-3.168 3.168-3.168 1.75 0 3.168 1.418 3.168 3.168v9.594c0 1.75-1.419 3.168-3.168 3.168z" fill="#fff"/></g><g><path d="m276.801 200.304c-1.75 0-3.168-1.418-3.168-3.168v-9.594c0-1.75 1.418-3.168 3.168-3.168 1.75 0 3.168 1.418 3.168 3.168v9.594c0 1.75-1.418 3.168-3.168 3.168z" fill="#fff"/></g><g><g><path d="m143.987 117.985v43.641.003 52.153c7.633 0 13.821-6.188 13.821-13.821v-61.026c0-.081 0-.162.001-.242.067-9.801 6.711-17.997 15.673-20.707h-29.495z" fill="#6d3222"/></g></g><g><path d="m143.987 120.399v41.227c24.184 0 44.168-17.934 47.407-41.227z" fill="#6d3222"/></g><g><path d="m203.266 120.399c14.943 12.847 34.367 20.624 55.619 20.624l88.674-.009c5.029-.001 9.106-4.078 9.106-9.107l-112.623-70.818z" fill="#783c28"/></g><g><ellipse cx="196.426" cy="243.573" fill="#ff965a" rx="22.944" ry="15.853"/></g><g><ellipse cx="303.736" cy="243.573" fill="#ff965a" rx="22.944" ry="15.853"/></g><g><path d="m248.187 296.192c-9.699 0-19.4-4.299-28.837-12.898l6.735-7.391c15.084 13.744 29.122 13.745 44.177.003l6.742 7.385c-9.422 8.6-19.119 12.901-28.817 12.901z" fill="#ff965a"/></g><g><path d="m240.763 307.276h15.073v7h-15.073z" fill="#ff965a"/></g><g><path d="m247.951 10.226c-.049 0-.098.002-.148.002v70.919c12.412.329 22.388 12.024 22.388 26.414v3.152h-22.388v21.194h108.861v-12.967c0-60.041-48.672-108.714-108.713-108.714z" fill="#50555a"/></g><g><path d="m247.841 110.713h-23.497v-3.152c0-14.596 10.263-26.429 22.924-26.429.192 0 .382.011.573.017v-70.92c-59.99.059-108.603 48.708-108.603 108.712v12.967h108.603z" fill="#373c41"/></g><g><path d="m247.951 10.226c-31.457 0-56.959 48.673-56.959 108.713v12.967h113.917v-12.966c0-60.041-25.501-108.714-56.958-108.714z" fill="#696e73"/></g><g><path d="m323.221 187.272c-52.08-15.172-102.19-14.601-150.563-.133-7.558 2.261-15.54-1.938-18.05-9.417l-15.371-45.816c72.427-28.277 144.902-28.239 217.427 0l-15.414 45.945c-2.506 7.471-10.463 11.625-18.029 9.421z" fill="#82878c"/></g><g><path d="m271.745 234.625c-2.544-4.638-7.413-7.52-12.703-7.52h-20.175c-5.29 0-10.159 2.883-12.703 7.52-3.623 6.605-10.558 10.71-18.091 10.71h-64.086v11.627c0 57.209 46.377 103.586 103.586 103.586 57.209 0 103.586-46.377 103.586-103.586v-11.627h-61.324c-7.532 0-14.467-4.105-18.09-10.71z" fill="#50555a"/></g><g><g><path d="m200.991 256.963v-11.627h-57.004v11.627c0 57.209 46.377 103.586 103.586 103.586 9.885 0 19.447-1.386 28.502-3.972-43.349-12.381-75.084-52.291-75.084-99.614z" fill="#373c41"/></g></g><g><circle cx="247.193" cy="288.826" fill="#696e73" r="30.014"/></g><g><path d="m228.12 281.712h8v14.229h-8z" fill="#50555a"/></g><g><path d="m240.12 281.712h8v14.229h-8z" fill="#50555a"/></g><g><ellipse cx="249.273" cy="9.578" fill="#373c41" rx="15.589" ry="9.578"/></g></g></g></svg>