<svg id="Layer_1" enable-background="new 0 0 511 511" height="512" viewBox="0 0 511 511" width="512" xmlns="http://www.w3.org/2000/svg"><g><g><path d="m255.5 19.712c-94.53 0-152.762 53.321-152.922 53.411 0 0-2.421 3.022-2.874 5.031-3.678 16.327-7.114 38.208-7.114 54.175 0 135.665 114.406 245.617 250.071 245.617 52.242 0 110.364-25.038 149.264-55.143.87-.673 3.631-5.198 3.631-5.198.171-1.047 5.588-22.615 5.588-52.249 0-135.666-109.978-245.644-245.644-245.644z" fill="#afe6ff"/><path d="m342.64 371.011c-135.665 0-245.644-109.979-245.644-245.644 0-17.932 1.934-35.404 5.582-52.244-56.493 45.006-92.722 114.39-92.722 192.233 0 65.124 25.342 124.328 66.703 168.29l357.881-.002c29.884-31.743 51.473-71.528 61.116-116.04-41.961 33.423-95.101 53.407-152.916 53.407z" fill="#73c8f0"/></g><g><g><g><g><path d="m356.924 207.423-3.269-26.007 3.269-35.324c13.361 0 26.193 10.832 26.193 24.193v12.946c0 13.36-12.832 24.192-26.193 24.192z" fill="#fa968c"/></g></g></g><g><g><g><path d="m357.975 189.133-1.319-10.496 1.319-14.256c5.392 0 10.571 4.371 10.571 9.764v5.224c0 5.392-5.179 9.764-10.571 9.764z" fill="#fa735f"/></g></g></g><g><g><g><path d="m153.277 201.986 3.269-26.007-3.269-35.324c-13.361 0-26.193 10.832-26.193 24.193v12.946c0 13.361 12.832 24.192 26.193 24.192z" fill="#fa968c"/></g></g></g><g><g><g><path d="m152.226 183.696 1.319-10.496-1.319-14.256c-5.392 0-10.571 4.371-10.571 9.764v5.224c.001 5.393 5.179 9.764 10.571 9.764z" fill="#fa735f"/></g></g></g><path d="m381.086 340.382-64.392-14.249-128.818 17.349v138.021l33.072 27.075c11.288 1.595 22.823 2.422 34.552 2.422 12.88 0 25.546-.997 37.92-2.921l13.67-15.375 19.624 7.785c41.537-12.582 78.57-35.894 107.717-66.854v-26.814c0-31.915-22.183-59.543-53.345-66.439z" fill="#2477f9"/><path d="m76.569 406.786v26.85c30.067 31.958 68.591 55.867 112.007 68.133v-94.983c0-31.9 22.16-59.518 53.302-66.43l69.439-15.412-56.088-12.411-125.359 27.824c-31.14 6.911-53.301 34.529-53.301 66.429z" fill="#0540e5"/><g><path d="m255.741 407.103c33.664 0 60.953-27.29 60.953-60.953v-20.016l-61.464-13.601-60.443 13.416v20.202c0 33.662 27.29 60.952 60.954 60.952z" fill="#0540e5"/></g><g><g><g><path d="m255.741 381.231c-20.073 0-36.344-16.272-36.344-36.344v-81.407h72.689v81.406c-.001 20.073-16.273 36.345-36.345 36.345z" fill="#fab9af"/></g></g></g><g><g><g><path d="m354.335 135.963c0-33.168-21.278-63.497-54.445-63.497h-88.298c-9.464 0-18.132 2.477-25.694 6.777v175.309c0 38.264 30.776 69.577 69.038 69.867.268.002.537.003.805.003 56.987 0 103.183-46.197 103.183-103.183v-32.575z" fill="#ffbe82"/></g></g></g><g><path d="m219.396 263.48v81.406c40.413 7.849 64.954-5.603 72.689-25.837v-55.569z" fill="#fa735f"/></g><g><g><g><path d="m354.335 135.963c0-33.168-21.278-63.497-54.445-63.497h-88.298c-9.464 0-18.132 2.477-25.694 6.777v175.309c0 38.264 30.776 69.577 69.038 69.867.268.002.537.003.805.003 56.987 0 103.183-46.197 103.183-103.183v-32.575z" fill="#fab9af"/></g></g></g><g><g><g><path d="m211.159 182.68v7.276c0 4.746 3.848 8.594 8.594 8.594s8.594-3.848 8.594-8.594v-7.276z" fill="#fa968c"/></g></g></g><g><path d="m231.002 155.244h-58.318v6h58.318c3.987 0 7.231 3.244 7.231 7.231v30.113c0 3.987-3.244 7.231-7.231 7.231h-58.318v6h58.318c7.295 0 13.231-5.936 13.231-13.231v-30.113c-.001-7.296-5.936-13.231-13.231-13.231z" fill="#fa968c"/></g><g><path d="m347.306 211.928h-67.225c-7.295 0-13.231-5.936-13.231-13.231v-30.114c0-7.295 5.936-13.23 13.231-13.23h67.225c7.296 0 13.231 5.936 13.231 13.23v30.114c.001 7.296-5.935 13.231-13.231 13.231zm-67.225-50.576c-3.987 0-7.231 3.243-7.231 7.23v30.114c0 3.987 3.244 7.231 7.231 7.231h67.225c3.987 0 7.231-3.244 7.231-7.231v-30.114c0-3.987-3.244-7.23-7.231-7.23z" fill="#fa968c"/></g><g><g><g><path d="m281.182 182.68v7.276c0 4.746 3.848 8.594 8.594 8.594s8.594-3.848 8.594-8.594v-7.276z" fill="#fa968c"/></g></g></g><g><g><g><path d="m219.753 191.667c-4.746 0-8.594-3.848-8.594-8.594v-11.055l3.168-4.797-3.168-4.797v-2.855c0-4.746 3.848-8.594 8.594-8.594s8.594 3.848 8.594 8.594v23.504c-.001 4.746-3.849 8.594-8.594 8.594z" fill="#373c41"/></g></g></g><g><g><g><path d="m289.776 191.667c-4.746 0-8.594-3.848-8.594-8.594v-11.055l3.168-4.797-3.168-4.797v-2.855c0-4.746 3.848-8.594 8.594-8.594s8.594 3.848 8.594 8.594v23.504c0 4.746-3.848 8.594-8.594 8.594z" fill="#373c41"/></g></g></g><g><path d="m342.16 100.066c.986.001 1.96-.047 2.928-.119-9.264-16.253-25.025-27.482-45.198-27.482h-88.299c-9.464 0-18.132 2.477-25.694 6.777v2.196c-19.413 9.058-32.087 28.451-32.087 52.25l-2.274 54.974v31.554c0 59.556 49.9 107.227 109.797 104.054-43.381-12.598-75.091-52.632-75.091-100.077.258-5.863 0-62.674 0-84.254 0-.154.001-.307.002-.461.165-21.948 18.249-39.549 40.197-39.527z" fill="#fa968c"/></g><path d="m186.357 205.82h-22.581c-3.987 0-7.231-3.244-7.231-7.231v-30.113c0-3.987 3.244-7.231 7.231-7.231h22.502c-.005-2.058-.01-4.064-.014-6h-22.488c-4.656 0-8.75 2.424-11.109 6.07l-1.131 27.349v14.933c1.979 4.819 6.717 8.224 12.24 8.224h22.574c.004-1.858.006-3.869.007-6.001z" fill="#fa735f"/><g><g><g><g><path d="m231.075 146.678h-25.062c-4.746 0-8.594-3.848-8.594-8.594 0-4.746 3.848-8.594 8.594-8.594h25.062c4.746 0 8.594 3.848 8.594 8.594 0 4.746-3.848 8.594-8.594 8.594z" fill="#ffaa50"/></g></g></g></g><g><g><g><g><path d="m302.691 146.678h-25.062c-4.746 0-8.594-3.848-8.594-8.594 0-4.746 3.848-8.594 8.594-8.594h25.062c4.746 0 8.594 3.848 8.594 8.594 0 4.746-3.848 8.594-8.594 8.594z" fill="#ffaa50"/></g></g></g></g><g><path d="m287.385 239.211h-8.849l-23.305 4.838-23.305-4.838h-7.828c-2.626 0-4.724 2.292-4.374 4.895.67 4.979 2.349 9.638 4.823 13.766l47.189 13.984c10.657-5.231 18.378-15.528 20.023-27.75.35-2.603-1.748-4.895-4.374-4.895z" fill="#be1423"/></g><g><g><path d="m335.245 19.712c13.078 0 23.679 10.602 23.679 23.679v93.117.003 52.153c-7.633 0-13.821-6.188-13.821-13.821v-60.986c0-7.735-2.484-15.143-6.897-21.16-4.411-6.014-11.149-9.793-18.499-11.054-.1-.017-.169-.033-.201-.048l5-61.882h10.739z" fill="#ffdc64"/></g></g><g><path d="m214.327 175.186c-1.75 0-3.168-1.418-3.168-3.168v-9.594c0-1.75 1.418-3.168 3.168-3.168 1.75 0 3.168 1.418 3.168 3.168v9.594c0 1.75-1.419 3.168-3.168 3.168z" fill="#fff"/></g><g><path d="m284.35 175.186c-1.75 0-3.168-1.418-3.168-3.168v-9.594c0-1.75 1.418-3.168 3.168-3.168 1.75 0 3.168 1.418 3.168 3.168v9.594c0 1.75-1.418 3.168-3.168 3.168z" fill="#fff"/></g><g><path d="m224.55 257.869c6.351 10.593 17.941 17.686 31.19 17.686 5.74 0 11.166-1.335 15.992-3.704-2.075-13.015-13.347-22.963-26.946-22.963-8.026-.001-15.242 3.465-20.236 8.981z" fill="#ff3c3c"/></g><g><path d="m273.409 248.887h-36.357c-2.831 0-5.127-2.295-5.127-5.127v-4.55h46.611v4.55c-.001 2.832-2.296 5.127-5.127 5.127z" fill="#fff"/></g><g><path d="m210.339.158c-32.485.03-58.803 26.373-58.803 58.857v77.493.003 52.153c7.633 0 13.821-6.188 13.821-13.821v-61.026c0-.081 0-.162.001-.242.082-12.047 10.103-21.672 22.151-21.66l108.649.152c21.404.021 38.766-17.324 38.766-38.728v-53.339z" fill="#ffe394"/></g><g><g><path d="m219.54 59.015c0-32.485 26.318-58.827 58.803-58.857h-68.004c-32.485.03-58.803 26.373-58.803 58.857v77.493.003 52.153c7.633 0 13.821-6.188 13.821-13.821v-61.026c0-.081 0-.162.001-.242.082-12.047 10.103-21.672 22.151-21.66l32.032.031v-32.931z" fill="#ffdc64"/></g></g><path d="m328.055 485.341c-.568-3.846-.636-2.876-13.609-42.816-.89-2.719-2.648-4.973-4.906-6.498.004-.059.009-.117.009-.177v-3.466c0-1.465-1.188-2.653-2.653-2.653h-15.401c-1.465 0-2.653 1.188-2.653 2.653v2.528c-1.933.964-3.538 2.553-4.498 4.582h-8.799c-.451-1.438-1.793-2.481-3.38-2.481h-29.029c-1.586 0-2.929 1.043-3.38 2.481h-9.007c-.848-1.791-2.198-3.239-3.833-4.218v-2.891c0-1.465-1.188-2.653-2.653-2.653h-15.401c-1.465 0-2.653 1.188-2.653 2.653v3.064c-2.715 1.504-4.848 3.999-5.856 7.093 0 0-12.529 38.451-12.684 38.963-2.294 7.559-2.035 14.285.318 20.098 4.526 1.291 9.105 2.452 13.735 3.483l7.607-4.29 6.425 6.986c1.81.294 3.626.568 5.448.823l3.363-9.793c2.424-7.059 9.063-11.799 16.526-11.799h32.65c7.48 0 14.13 4.761 16.54 11.841l3.14 9.222c1.648-.256 3.292-.529 4.93-.818l6.264-8.279 9.609 4.926c4.204-1.035 8.368-2.179 12.488-3.426 2.022-4.242 2.564-8.725 1.343-15.138z" fill="#0540e5"/><path d="m319.972 498.48c-.021-.007-.042-.016-.063-.023 7.09-8.349 10.269-13.667 8.146-24.815-.568-3.846-.636-2.876-13.609-42.816-.89-2.719-2.648-4.973-4.906-6.498.004-.059.009-.117.009-.177v-3.466c0-1.465-1.188-2.653-2.653-2.653h-15.401c-1.465 0-2.653 1.188-2.653 2.653v2.528c-1.933.964-3.538 2.553-4.498 4.582h-8.799c-.451-1.438-1.793-2.481-3.38-2.481h-29.029c-1.586 0-2.929 1.043-3.38 2.481h-9.007c-.848-1.791-2.198-3.239-3.833-4.218v-2.891c0-1.465-1.188-2.653-2.653-2.653h-15.401c-1.465 0-2.653 1.188-2.653 2.653v3.064c-2.715 1.504-4.848 3.999-5.856 7.093 0 0-12.529 38.451-12.684 38.963-4.707 15.51 1.305 27.523 14.207 35.307 4.579 1.02 9.206 1.909 13.877 2.669 1.333-.878 2.413-2.168 3.014-3.786l5.797-16.884c2.424-7.059 9.063-11.799 16.526-11.799h32.65c7.48 0 14.13 4.761 16.54 11.841l5.734 16.841c.494 1.33 1.322 2.425 2.336 3.266 5.351-.944 10.643-2.065 15.874-3.351 2.124-1.615 4.051-3.435 5.748-5.43z" fill="#fff"/><g><path d="m231.002 205.819h-67.225c-7.295 0-13.231-5.936-13.231-13.231v-30.113c0-7.296 5.936-13.231 13.231-13.231h67.225c7.295 0 13.231 5.936 13.231 13.231v30.113c-.001 7.296-5.936 13.231-13.231 13.231zm-67.226-50.576c-3.987 0-7.231 3.244-7.231 7.231v30.113c0 3.987 3.244 7.231 7.231 7.231h67.225c3.987 0 7.231-3.244 7.231-7.231v-30.113c0-3.987-3.244-7.231-7.231-7.231z" fill="#373c41"/></g><g><path d="m347.306 205.928h-67.225c-7.295 0-13.231-5.936-13.231-13.231v-30.114c0-7.295 5.936-13.23 13.231-13.23h67.225c7.296 0 13.231 5.936 13.231 13.23v30.114c.001 7.295-5.935 13.231-13.231 13.231zm-67.225-50.576c-3.987 0-7.231 3.243-7.231 7.23v30.114c0 3.987 3.244 7.231 7.231 7.231h67.225c3.987 0 7.231-3.244 7.231-7.231v-30.114c0-3.987-3.244-7.23-7.231-7.23z" fill="#373c41"/></g><g><g><g><path d="m241.816 203.866c-2.136 8.531 1.746 17.824 9.171 20.625 1.494.564 3.092.869 4.754.869 1.661 0 3.26-.305 4.754-.869 7.425-2.801 11.308-12.094 9.171-20.625l-7.082-28.282c-1.783-7.12-11.902-7.12-13.685 0z" fill="#fa968c"/></g></g></g><g><path d="m242.382 173.015-2.299-5.541c10.448-4.336 20.862-4.329 30.954.015l-2.373 5.511c-8.666-3.732-17.263-3.726-26.282.015z" fill="#373c41"/></g></g></g></svg>