<svg id="Layer_1" enable-background="new 0 0 510.282 510.282" height="512" viewBox="0 0 510.282 510.282" width="512" xmlns="http://www.w3.org/2000/svg"><g><g><g><path d="m255.141 18.61c-94.604 0-152.881 53.363-153.042 53.453 0 0-2.423 3.024-2.876 5.035-3.681 16.339-7.12 38.238-7.12 54.217 0 135.771 114.495 245.809 250.267 245.809 52.282 0 110.45-25.058 149.381-55.186.871-.674 3.634-5.203 3.634-5.203.171-1.048 5.592-22.633 5.592-52.289 0-135.771-110.064-245.836-245.836-245.836z" fill="#afe6ff"/></g><path d="m342.349 370.184c-135.772 0-245.836-110.065-245.836-245.836 0-17.946 1.935-35.432 5.586-52.285-56.537 45.041-92.794 114.479-92.794 192.383 0 66.781 26.628 127.344 69.846 171.648l348.553 3.438c33.285-32.784 57.343-75.077 67.682-122.797-41.995 33.449-95.177 53.449-153.037 53.449z" fill="#73c8f0"/></g><g><g><g><ellipse cx="89.077" cy="47.01" fill="#ff3c3c" rx="24.49" ry="81.181" transform="matrix(.116 -.993 .993 .116 32.061 130.039)"/></g><g><ellipse cx="118.701" cy="50.466" fill="#be1423" rx="15.493" ry="51.356" transform="matrix(.116 -.993 .993 .116 54.819 162.519)"/></g></g><g><g><ellipse cx="421.206" cy="40.564" fill="#ff3c3c" rx="81.181" ry="24.49" transform="matrix(.993 -.116 .116 .993 -1.863 49.084)"/></g><g><ellipse cx="391.582" cy="44.02" fill="#be1423" rx="51.356" ry="15.493" transform="matrix(.993 -.116 .116 .993 -2.463 45.674)"/></g></g><g><path d="m125.321 84.668h246.472v329.959h-246.472z" fill="#be1423"/></g><g><path d="m117.118 128.991h180.42v-89.452c0-5.157-3.231-9.745-8.069-11.529-23.28-8.585-51.568-10.598-82.769-8.79-50.351 2.919-89.582 44.836-89.582 95.271z" fill="#373c41"/></g><g><path d="m366.933 73.457c-13.518-20.513-36.744-34.059-63.147-34.059h-75.607v267.412h138.755v-233.353z" fill="#50555a"/></g><g><path d="m192.716 39.398c-28.1 0-52.601 15.344-65.631 38.098v229.314h170.092c.75-4.35 1.164-8.815 1.164-13.379v-267.034z" fill="#373c41"/></g><path d="m320.548 31.346h-16.098c-3.818 0-6.912 3.095-6.912 6.912v99.731h74.845v-47.808z" fill="#50555a"/><path d="m352.656 384.615s-58.617 0-109.54 0c-40.662 0-73.62 32.963-73.62 73.624v36.704c26.668 9.917 55.522 15.339 85.645 15.339 66.875 0 127.983-26.859 172.554-70.759-10.089-31.834-39.865-54.908-75.039-54.908z" fill="#ff3c3c"/><g><path d="m349.327 306.81c3.403-10.437 5.25-21.576 5.25-33.149v-18.728l-167.101 51.877z" fill="#373c41"/></g><g><path d="m252.832 452.369c34.506 0 62.479-27.973 62.479-62.479v-5.275h-124.958v5.275c0 34.506 27.973 62.479 62.479 62.479z" fill="#dc1428"/></g><g><g><g><path d="m290.098 390.427c0 20.581-16.684 37.265-37.265 37.265-20.581 0-37.265-16.684-37.265-37.265v-83.468h74.531v83.468z" fill="#fab9af"/></g></g></g><g><g><g><path d="m379.57 211.78c0 13.792-11.181 24.972-24.972 24.972h-1.522l-1.496-63.307h3.018c13.792 0 24.972 11.18 24.972 24.972z" fill="#fa968c"/></g></g></g><g><g><g><path d="m364.809 207.779c0 5.533-4.485 10.018-10.018 10.018h-.611l-.6-25.398h1.211c5.533 0 10.018 4.485 10.018 10.018z" fill="#fa735f"/></g></g></g><g><g><g><path d="m353.553 146.453c-.246-24.792-20.413-44.76-45.206-44.76h-53.711c-29.928 0-57.128 11.67-77.308 30.702v153.563c0 38.59 31.005 70.253 69.594 70.542.27.002.54.003.81.003 59.009 0 106.845-47.836 106.845-106.845z" fill="#ffbe82"/></g></g></g><g><path d="m215.567 372.614c7.112.164 48.089-1.636 74.531-24.881v-40.775h-74.531z" fill="#fa735f"/></g><g><g><g><path d="m353.553 146.453c-.246-24.792-20.413-44.76-45.206-44.76h-53.711c-29.928 0-57.128 11.67-77.308 30.702v153.563c0 38.59 31.005 70.253 69.594 70.542.27.002.54.003.81.003 59.009 0 106.845-47.836 106.845-106.845z" fill="#fab9af"/></g></g></g><g><g><g><path d="m116.84 211.735c0 13.7 11.106 24.806 24.806 24.806h.911l.44-62.885h-1.351c-13.7 0-24.806 11.106-24.806 24.806z" fill="#fa968c"/></g></g></g><g><g><g><path d="m131.937 207.651c0 5.269 4.271 9.54 9.54 9.54h.35l.169-24.185h-.52c-5.269 0-9.54 4.271-9.54 9.54v5.105z" fill="#fa735f"/></g></g></g><g><g><g><path d="m203.068 209.83v9.088c0 4.866 3.946 8.812 8.812 8.812s8.812-3.945 8.812-8.812v-9.088z" fill="#fa968c"/></g></g></g><g><g><g><path d="m275.03 209.83v9.088c0 4.866 3.946 8.812 8.812 8.812s8.812-3.945 8.812-8.812v-9.088z" fill="#fa968c"/></g></g></g><g><g><g><path d="m211.88 220.386c-4.866 0-8.812-3.945-8.812-8.812v-6.499l3.537-5.314-3.537-5.314v-6.974c0-4.866 3.945-8.812 8.812-8.812s8.812 3.945 8.812 8.812v24.1c-.001 4.867-3.946 8.813-8.812 8.813z" fill="#373c41"/></g></g></g><g><g><g><path d="m283.842 220.386c-4.866 0-8.812-3.945-8.812-8.812v-8.244l3.537-5.314-3.537-5.314v-5.229c0-4.866 3.945-8.812 8.812-8.812 4.866 0 8.812 3.945 8.812 8.812v24.1c0 4.867-3.946 8.813-8.812 8.813z" fill="#373c41"/></g></g></g><g><path d="m346.463 90.74h-48.152v22.41c0 24.349 19.739 44.088 44.088 44.088h4.064z" fill="#fa968c"/></g><g><g><g><g><path d="m223.489 174.257h-25.697c-4.867 0-8.812-3.945-8.812-8.812 0-4.867 3.945-8.812 8.812-8.812h25.697c4.867 0 8.812 3.945 8.812 8.812 0 4.867-3.946 8.812-8.812 8.812z" fill="#373c41"/></g></g></g></g><g><g><g><g><path d="m296.92 174.257h-25.697c-4.867 0-8.812-3.945-8.812-8.812 0-4.867 3.945-8.812 8.812-8.812h25.697c4.867 0 8.812 3.945 8.812 8.812-.001 4.867-3.946 8.812-8.812 8.812z" fill="#373c41"/></g></g></g></g><g><g><g><path d="m234.502 235.486c-2.191 7.719 1.791 16.127 9.403 18.662 1.532.51 3.171.786 4.874.786s3.342-.276 4.874-.786c7.613-2.534 11.594-10.943 9.404-18.662l-10.684-37.648c-1.028-3.621-6.16-3.621-7.187 0z" fill="#fa968c"/></g></g></g><g><path d="m257.6 101.882c-63.84-.122-115.665 51.584-115.665 115.424v33.401c0 65.03 58.362 115.336 123.751 104.266-49.92-8.492-87.936-51.927-87.936-104.266.027-46.851-.004-68.596-.009-79.193-.003-8.388 6.856-15.266 15.244-15.284h.011 51.281c29.842 0 54.035-24.192 54.035-54.035-.001 0-7.795-.25-40.712-.313z" fill="#fa968c"/></g><g><path d="m196.586 58.993c-30.183 0-54.65 24.468-54.65 54.65v35.243 68.419c7.826 0 14.171-6.344 14.171-14.171v-17.358c0-20.374 16.516-36.89 36.89-36.89h51.281c29.842 0 54.035-24.192 54.035-54.035v-35.858z" fill="#50555a"/></g><g><path d="m296.397 101.694c24.172 0 44.01 20.692 44.01 44.864v56.578c0 7.826 6.344 14.171 14.171 14.171v-119.803z" fill="#373c41"/></g><g><path d="m206.605 208.612c-1.953 0-3.537-1.584-3.537-3.537v-10.627c0-1.953 1.584-3.537 3.537-3.537 1.953 0 3.537 1.584 3.537 3.537v10.627c0 1.954-1.583 3.537-3.537 3.537z" fill="#fff"/></g><g><path d="m278.567 206.868c-1.953 0-3.537-1.584-3.537-3.537v-10.627c0-1.953 1.584-3.537 3.537-3.537 1.953 0 3.537 1.584 3.537 3.537v10.627c0 1.953-1.583 3.537-3.537 3.537z" fill="#fff"/></g><g><circle cx="286.625" cy="242.926" fill="#fa968c" r="6.385"/></g><g><circle cx="310.137" cy="232.135" fill="#fa968c" r="4.406"/></g><g><circle cx="324.862" cy="254.891" fill="#fa968c" r="5.579"/></g><g><circle cx="301.635" cy="256.373" fill="#fa968c" r="4.097"/></g><g><circle cx="212.732" cy="243.963" fill="#fa968c" r="6.385"/></g><g><circle cx="189.22" cy="233.171" fill="#fa968c" r="4.406"/></g><g><circle cx="197.723" cy="257.41" fill="#fa968c" r="4.097"/></g><g><path d="m364.809 149.237h-22.41c-24.349 0-44.088-19.739-44.088-44.088v-22.409h66.497v66.497z" fill="#50555a"/></g><g><path d="m249.209 305.707c-16.918 0-32.252-9.879-42.106-27.142l6.079-3.471c8.572 15.017 21.695 23.612 36.03 23.612h.208c9.855-.058 18.918-4.488 22.551-11.026l6.119 3.4c-4.896 8.812-16.135 14.553-28.63 14.625-.083.002-.168.002-.251.002z" fill="#fa968c"/></g><g><path d="m199.837 273.57h21.4v7h-21.4z" fill="#fa968c" transform="matrix(.896 -.444 .444 .896 -101.163 122.355)"/></g><g><path d="m234.936 325.336-2.065-5.634c.944-.346 23.273-8.388 34.895.426l-3.625 4.781c-7.483-5.675-23.619-1.616-29.205.427z" fill="#fa968c"/></g><g><path d="m191.167 270.473v-6c21.073 0 38.217-17.144 38.217-38.217 0-21.072-17.144-38.216-38.217-38.216s-38.217 17.144-38.217 38.216h-6c0-24.381 19.836-44.216 44.217-44.216s44.217 19.835 44.217 44.216-19.837 44.217-44.217 44.217z" fill="#fff"/></g><g><path d="m306.618 272.981v-6c21.072 0 38.216-17.144 38.216-38.216 0-21.073-17.144-38.217-38.216-38.217-21.073 0-38.217 17.144-38.217 38.217h-6c0-24.381 19.836-44.217 44.217-44.217s44.216 19.836 44.216 44.217-19.835 44.216-44.216 44.216z" fill="#fff"/></g><g><path d="m191.167 270.473c-24.381 0-44.217-19.836-44.217-44.217h6c0 21.073 17.144 38.217 38.217 38.217z" fill="#c8e6eb"/></g><g><path d="m306.618 272.981c-24.381 0-44.217-19.835-44.217-44.216h6c0 21.072 17.144 38.216 38.217 38.216z" fill="#c8e6eb"/></g><g><path d="m263.468 228.481c-9.917-8.961-19.158-8.961-29.073 0l-4.023-4.451c12.143-10.971 24.978-10.973 37.12 0z" fill="#fff"/></g><g><path d="m248.563 0c-80.196 0-145.439 65.244-145.439 145.439v294.29h28.845v-27.556h-1.29v-266.734c0-31.488 12.262-61.091 34.527-83.356s51.869-34.527 83.357-34.527 61.091 12.262 83.355 34.527c22.266 22.266 34.527 51.868 34.527 83.356v261.297l.201.675c.792 2.651 1.193 5.312 1.193 7.908v24.41h26.161v-294.29c.001-80.195-65.242-145.439-145.437-145.439z" fill="#ff3c3c"/></g><path d="m147.142 384.855c-31.324 2.311-57.535 22.947-67.979 51.227 25.351 25.988 56.398 46.391 91.139 59.165v-31.92c0-29.559 16.304-55.289 40.402-68.738v-9.974h-28.393c-31.238.014-31.257-.1-35.169.24z" fill="#dc1428"/></g></g></svg>