<svg id="Layer_1" enable-background="new 0 0 512 512" height="512" viewBox="0 0 512 512" width="512" xmlns="http://www.w3.org/2000/svg"><g><g><path d="m256 15.136c-95.603 0-154.496 53.926-154.658 54.017 0 0-2.449 3.056-2.906 5.088-3.72 16.512-7.195 38.641-7.195 54.79 0 137.205 115.704 248.405 252.909 248.405 52.834 0 111.617-25.322 150.958-55.769.88-.681 3.672-5.257 3.672-5.257.173-1.059 5.651-22.872 5.651-52.841.001-137.206-111.226-248.433-248.431-248.433z" fill="#afe6ff"/><path d="m344.129 370.422c-137.205 0-248.432-111.227-248.432-248.432 0-18.135 1.956-35.806 5.645-52.837-57.134 45.517-93.774 115.689-93.774 194.415 0 60.662 21.742 116.246 57.859 159.384l381.147.004c25.248-30.143 43.521-66.448 52.208-106.546-42.438 33.801-96.182 54.012-154.653 54.012z" fill="#73c8f0"/></g><g><path d="m127.624 314.854h101.028v89.03h-101.028z" fill="#58a804"/><path d="m186.438 314.854h42.213v89.03h-42.213z" fill="#4f9300"/><path d="m364.263 360.241s-67.089 0-123.264 0c-41.532 0-75.195 33.668-75.195 75.2v59.652c27.961 10.905 58.374 16.907 90.196 16.907 12.157 0 24.126-.878 35.842-2.577l78.913-25.498c29.082-15.174 54.849-35.952 75.81-60.976-9.929-36.144-43.003-62.708-82.302-62.708z" fill="#fff"/><path d="m141.375 360.502c-36.466 2.69-66.544 28.278-75.937 62.441 26.783 31.99 61.467 57.132 101.055 72.429v-49.764c0-45.004 34.832-81.847 79.004-85.105 2.048-.178 3.122-.241 7.486-.261h-73.465c-33.88.015-33.9-.109-38.143.26z" fill="#e4f2f6"/><path d="m256 425.045c30.251 0 54.775-24.524 54.775-54.775v-9.861h-109.55v9.861c0 30.251 24.523 54.775 54.775 54.775z" fill="#e4f2f6"/><g><g><path d="m293.265 366.053c0 20.581-16.684 37.265-37.265 37.265-20.581 0-37.265-16.684-37.265-37.265v-83.468h74.531v83.468z" fill="#fab9af"/></g></g><path d="m218.735 346.014c3.834.685 7.771 1.076 11.797 1.106.27.002.54.003.81.003 23.082 0 44.454-10.32 61.922-22.764v-41.775h-74.531v63.43z" fill="#fa735f"/><path d="m383.238 318.307h-262.702v-178.867c0-72.543 58.808-131.351 131.351-131.351 72.543 0 131.351 58.808 131.351 131.351z" fill="#373c41"/><path d="m370.752 483.919v-165.612h-78.912v191.103c28.036-4.065 54.628-12.823 78.912-25.491z" fill="#64bc0f"/><path d="m323.859 502.582v-184.275h-32.019v191.103c10.909-1.582 21.599-3.871 32.019-6.828z" fill="#58a804"/><g><path d="m383.673 131.946c-.086-11.684-9.777-21.028-21.461-21.028h-193.808v18.432h175.745c1.046-.047 2.076.044 3.081.247 7.617 1.306 13.031 8.022 13.381 15.838.031.69.004 1.371-.068 2.042.042.45.068.903.068 1.357v56.041h19.128c2.514-4.669 3.934-9.997 3.934-15.617v-57.061c.001-.085.001-.168 0-.251z" fill="#2477f9"/><g><path d="m383.36 127.71c.005.038.011.076.016.114.002 0 .01-.001.01-.001s-.01-.04-.026-.113z" fill="#91cdff"/></g><path d="m380.377 203.608c-.057.005-.114.011-.172.016-9.137.856-17.014-6.38-17.014-15.557v-47.991c0-7.486-6.069-13.555-13.555-13.555h-164.647c-8.416 0-15.238-6.822-15.238-15.238 0-3.584.575-7.019 1.625-10.231-4.921-.472-9.839-.983-14.753-1.542-19.476-2.217-36.522 13.079-36.522 32.681v57.068c0 16.606 12.377 30.618 28.858 32.647 67.007 8.249 136.364 8.551 205.819.005 2.945-.362 5.815-1.134 8.414-2.193v-.002c7.567-3.086 13.67-8.871 17.185-16.108z" fill="#0540e5"/><path d="m347.05 99.521c-63.238 7.189-127.088 7.189-190.326 0-19.518-2.219-36.624 13.026-36.624 32.67v13.224c0-19.644 17.106-34.889 36.624-32.67 63.238 7.189 127.088 7.189 190.326 0 19.518-2.219 36.624 13.03 36.624 32.674 0-4.361 0-8.753 0-13.224 0-19.643-17.106-34.893-36.624-32.674z" fill="#05cdff"/><path d="m356.296 227.153v-81.56c0-1.567-.279-3.066-.769-4.466h-163.71v86.025h164.479z" fill="#827ddc"/><path d="m207.926 224.654c-7.486 0-13.555-6.069-13.555-13.555v-79.061h-33.338c-7.486 0-13.555 6.069-13.555 13.555v83.896c0 7.486 6.069 13.555 13.555 13.555h181.708c7.486 0 13.555-6.069 13.555-13.555v-4.835z" fill="#6e64c3"/><path d="m356.296 227.153v-81.56c0-1.567-.279-3.066-.769-4.466h-163.71v86.025h164.479z" fill="#827ddc"/><path d="m291.84 210.865c31.161-12.55 15.738-32.713 0-50.202-5.477-6.086-10.794-12.746-14.682-19.536h-50.366c-1.909 5.605-1.425 13.076 5.053 22.624 17.174 25.315-4.129 35.884-20.802 33.242-4.961-.786-12.131.008-19.227 2.623v27.536h86.545c.175-6.346 3.662-12.333 13.479-16.287z" fill="#9d9df9"/><path d="m207.926 224.654c-7.486 0-13.555-6.069-13.555-13.555v-79.061h-33.338c-7.486 0-13.555 6.069-13.555 13.555v83.896c0 7.486 6.069 13.555 13.555 13.555h181.708c7.486 0 13.555-6.069 13.555-13.555v-4.835z" fill="#6e64c3"/><g><path d="m342.741 132.038h-181.708c-7.486 0-13.555 6.069-13.555 13.555v11.136c0-7.486 6.069-13.555 13.555-13.555h181.708c7.486 0 13.555 6.069 13.555 13.555v-11.136c0-7.486-6.069-13.555-13.555-13.555z" fill="#5046af"/></g><path d="m157.612 208.334h-19.999c-2.802 0-5.073-2.271-5.073-5.073v-30.896c0-2.802 2.271-5.073 5.073-5.073h19.999c2.802 0 5.073 2.271 5.073 5.073v30.896c0 2.801-2.271 5.073-5.073 5.073z" fill="#2477f9"/><path d="m365.679 207.309h-19.999c-2.802 0-5.073-2.271-5.073-5.073v-30.896c0-2.802 2.271-5.073 5.073-5.073h19.999c2.802 0 5.073 2.271 5.073 5.073v30.896c0 2.802-2.271 5.073-5.073 5.073z" fill="#2477f9"/><path d="m157.612 167.291h-19.999c-2.802 0-5.073 2.271-5.073 5.073v8.352c0-2.802 2.271-5.073 5.073-5.073h19.999c2.802 0 5.073 2.271 5.073 5.073v-8.352c0-2.801-2.271-5.073-5.073-5.073z" fill="#05cdff"/><path d="m365.679 166.267h-19.999c-2.802 0-5.073 2.271-5.073 5.073v8.352c0-2.802 2.271-5.073 5.073-5.073h19.999c2.802 0 5.073 2.271 5.073 5.073v-8.352c0-2.802-2.271-5.073-5.073-5.073z" fill="#05cdff"/><path d="m278.616 224.654h-70.69c-7.486 0-13.554-6.069-13.554-13.554v-12.345c-15.838 4.88-32.669 18.735-24.973 44.288h113.827c-3.216-5.638-5.694-12.291-4.61-18.389z" fill="#827ddc"/></g><g><path d="m111.269 1.632s-9.947 57.312 19.267 86.526l67.259-67.259c-29.214-29.214-86.526-19.267-86.526-19.267z" fill="#373c41"/><path d="m141.448 31.811s-4.272 24.614 8.275 37.161l28.886-28.886c-12.547-12.547-37.161-8.275-37.161-8.275z" fill="#50555a"/></g><g><path d="m393.175 1.632s9.947 57.312-19.267 86.526l-67.259-67.259c29.214-29.214 86.526-19.267 86.526-19.267z" fill="#373c41"/><path d="m362.996 31.811s4.272 24.614-8.275 37.161l-28.886-28.886c12.547-12.547 37.161-8.275 37.161-8.275z" fill="#50555a"/></g></g></g></svg>