<svg id="Layer_1" enable-background="new 0 0 511 511" height="512" viewBox="0 0 511 511" width="512" xmlns="http://www.w3.org/2000/svg"><g><g><path d="m255.5 19.676c-94.537 0-152.773 53.325-152.933 53.415 0 0-2.421 3.022-2.874 5.031-3.678 16.328-7.115 38.211-7.115 54.179 0 135.675 114.414 245.635 250.09 245.635 52.245 0 110.372-25.04 149.275-55.147.87-.673 3.631-5.199 3.631-5.199.171-1.047 5.588-22.617 5.588-52.252 0-135.676-109.987-245.662-245.662-245.662z" fill="#afe6ff"/><path d="m342.646 371.001c-135.675 0-245.662-109.987-245.662-245.662 0-17.933 1.934-35.407 5.582-52.248-56.497 45.009-92.728 114.398-92.728 192.247 0 65.135 25.35 124.35 66.721 168.316l357.881-.002c29.893-31.747 51.489-71.541 61.134-116.062-41.964 33.425-95.109 53.411-152.928 53.411z" fill="#73c8f0"/></g><g><g><g><ellipse cx="257.199" cy="337.326" fill="#50555a" rx="136.362" ry="93.951"/></g><g><ellipse cx="257.199" cy="356.978" fill="#373c41" rx="107.839" ry="74.3"/></g><g><g><g><path d="m356.924 226.62-3.269-26.007 3.269-35.324c13.361 0 26.193 10.832 26.193 24.193v12.946c0 13.361-12.832 24.192-26.193 24.192z" fill="#ff965a"/></g></g></g><g><g><g><path d="m357.975 208.331-1.319-10.496 1.319-14.256c5.392 0 10.571 4.371 10.571 9.764v5.224c-.001 5.392-5.179 9.764-10.571 9.764z" fill="#ef6a30"/></g></g></g><g><g><g><path d="m153.277 221.184 3.269-26.007-3.269-35.324c-13.361 0-26.193 10.832-26.193 24.193v12.946c0 13.361 12.832 24.192 26.193 24.192z" fill="#ff965a"/></g></g></g><g><g><g><path d="m152.226 202.894 1.319-10.496-1.319-14.256c-5.392 0-10.571 4.371-10.571 9.764v5.224c0 5.393 5.179 9.764 10.571 9.764z" fill="#ef6a30"/></g></g></g><path d="m367.033 356.47-111.803-24.74-63.714 14.142v156.707c20.4 5.49 41.849 8.422 63.984 8.422 27.137 0 53.321-4.432 77.834-12.63 2.036-.681 4.061-2.062 6.073-3.906 17.93-16.431 27.626-39.996 27.626-64.316z" fill="#ffc305"/><path d="m255.23 331.73-106.32 23.598v105.742l26.567 36.584c5.61 1.933 11.313 3.669 17.099 5.198v-76.868c0-31.9 22.16-59.518 53.302-66.43l67.442-14.969z" fill="#ffa50a"/><g><path d="m255.741 426.301c33.664 0 60.953-27.29 60.953-60.953v-20.016l-61.464-13.602-60.443 13.416v20.202c0 33.663 27.29 60.953 60.954 60.953z" fill="#ffa50a"/></g><g><g><g><path d="m255.741 400.429c-20.073 0-36.344-16.272-36.344-36.344v-81.406h72.689v81.406c-.001 20.072-16.273 36.344-36.345 36.344z" fill="#ff965a"/></g></g></g><g><g><g><path d="m354.335 155.161c0-33.168-21.278-63.497-54.445-63.497h-88.298c-9.464 0-18.132 2.477-25.694 6.777v175.309c0 38.264 30.776 69.577 69.038 69.867.268.002.537.003.805.003 56.987 0 103.183-46.197 103.183-103.183v-32.575z" fill="#ffbe82"/></g></g></g><g><path d="m219.396 282.678v81.406c40.413 7.849 64.954-5.603 72.689-25.837v-55.569z" fill="#ef6a30"/></g><g><g><g><path d="m354.335 155.161c0-33.168-21.278-63.497-54.445-63.497h-88.298c-9.464 0-18.132 2.477-25.694 6.777v175.309c0 38.264 30.776 69.577 69.038 69.867.268.002.537.003.805.003 56.987 0 103.183-46.197 103.183-103.183v-32.575z" fill="#ffbe82"/></g></g></g><g><g><g><path d="m211.159 201.878v7.276c0 4.746 3.848 8.594 8.594 8.594s8.594-3.848 8.594-8.594v-7.276z" fill="#ff965a"/></g></g></g><g><g><g><path d="m281.182 201.878v7.276c0 4.746 3.848 8.594 8.594 8.594s8.594-3.848 8.594-8.594v-7.276z" fill="#ff965a"/></g></g></g><g><g><g><path d="m219.752 210.865c-4.746 0-8.594-3.848-8.594-8.594v-11.055l3.168-4.797-3.168-4.797v-2.855c0-4.746 3.848-8.594 8.594-8.594s8.594 3.848 8.594 8.594v23.504c0 4.746-3.848 8.594-8.594 8.594z" fill="#373c41"/></g></g></g><g><g><g><path d="m289.776 210.865c-4.746 0-8.594-3.848-8.594-8.594v-11.055l3.168-4.797-3.168-4.797v-2.855c0-4.746 3.848-8.594 8.594-8.594s8.594 3.848 8.594 8.594v23.504c0 4.746-3.848 8.594-8.594 8.594z" fill="#373c41"/></g></g></g><g><path d="m342.16 119.264c.986.001 1.96-.047 2.928-.119-9.264-16.253-25.025-27.482-45.198-27.482h-88.299c-9.464 0-18.132 2.477-25.694 6.777v2.196c-19.413 9.058-32.087 28.451-32.087 52.25l-2.274 54.974v31.554c0 59.556 49.9 107.227 109.797 104.054-43.381-12.598-75.091-52.632-75.091-100.077.258-5.863 0-62.674 0-84.254 0-.154.001-.307.002-.461.165-21.948 18.249-39.549 40.197-39.527z" fill="#ff965a"/></g><g><g><g><g><path d="m231.075 165.876h-25.062c-4.746 0-8.594-3.848-8.594-8.594 0-4.746 3.848-8.594 8.594-8.594h25.062c4.746 0 8.594 3.848 8.594 8.594 0 4.746-3.848 8.594-8.594 8.594z" fill="#783c28"/></g></g></g></g><g><g><g><g><path d="m302.691 165.876h-25.062c-4.746 0-8.594-3.848-8.594-8.594 0-4.746 3.848-8.594 8.594-8.594h25.062c4.746 0 8.594 3.848 8.594 8.594 0 4.746-3.848 8.594-8.594 8.594z" fill="#783c28"/></g></g></g></g><g><path d="m353.524 144.103c-4.148-28.554-24.203-52.44-53.635-52.44h-88.298c-7.87 0-15.187 1.718-21.778 4.767 13.933 28.239 43.001 47.672 76.62 47.672h87.091z" fill="#ff965a"/></g><g><g><g><path d="m241.816 223.064c-2.136 8.531 1.746 17.824 9.171 20.625 1.494.564 3.092.869 4.754.869 1.661 0 3.26-.305 4.754-.869 7.425-2.801 11.308-12.094 9.171-20.625l-7.082-28.282c-1.783-7.12-11.902-7.12-13.685 0z" fill="#ff965a"/></g></g></g><g><g><path d="m345.103 133.532v60.509c0 7.633 6.188 13.821 13.821 13.821v-52.153c0-.001 0-.002 0-.003l1.151-22.174z" fill="#6d3222"/></g></g><g><path d="m214.327 194.384c-1.75 0-3.168-1.418-3.168-3.168v-9.594c0-1.75 1.418-3.168 3.168-3.168 1.75 0 3.168 1.418 3.168 3.168v9.594c0 1.75-1.419 3.168-3.168 3.168z" fill="#fff"/></g><g><path d="m284.35 194.384c-1.75 0-3.168-1.418-3.168-3.168v-9.594c0-1.75 1.418-3.168 3.168-3.168 1.75 0 3.168 1.418 3.168 3.168v9.594c0 1.75-1.418 3.168-3.168 3.168z" fill="#fff"/></g><path d="m287.385 258.408h-8.849-46.611-7.828c-2.626 0-4.724 2.292-4.374 4.895.67 4.979 2.349 9.638 4.823 13.766l.007.002c6.351 10.591 17.94 17.682 31.188 17.682 5.737 0 11.162-1.334 15.987-3.702l.008.002c10.657-5.231 18.378-15.528 20.023-27.75.35-2.602-1.748-4.895-4.374-4.895z" fill="#fff"/><g><g><path d="m151.536 112.064v43.641.003 52.153c7.633 0 13.821-6.188 13.821-13.821v-61.026c0-.081 0-.162.001-.242.067-9.801 6.711-17.997 15.673-20.707h-29.495z" fill="#6d3222"/></g></g><g><path d="m199.416 38.222h-16.091c-17.557 0-51.39 69.955-51.39 87.511l19.601 29.972c26.443 0 47.88-21.436 47.88-47.88z" fill="#6d3222"/></g><g><path d="m378.204 135.103h-111.77c-47.167 0-85.403-38.236-85.403-85.403 0-16.582 13.442-30.024 30.024-30.024h65.745c47.167 0 101.404 38.236 101.404 85.403z" fill="#783c28"/></g><g><circle cx="204.352" cy="197.137" fill="#5046af" r="34.411"/></g><g><circle cx="305.413" cy="197.864" fill="#5046af" r="34.411"/></g><g><path d="m240.9 198.278-4.512-7.787c12.886-7.466 25.406-7.433 37.209.1l-4.841 7.588c-8.865-5.659-17.977-5.626-27.856.099z" fill="#827ddc"/></g><g><path d="m170.247 201.667c.857 6.515 3.529 12.458 7.502 17.296l48.429-48.429c-4.838-3.974-10.781-6.645-17.296-7.502z" fill="#9898f4"/></g><g><path d="m188.583 227.719 46.352-46.352c-1.375-2.662-3.08-5.125-5.074-7.326l-48.604 48.604c2.2 1.993 4.664 3.698 7.326 5.074z" fill="#9898f4"/></g><g><path d="m278.965 219.873 48.458-48.458c-4.797-3.997-10.699-6.708-17.18-7.618l-38.897 38.897c.911 6.48 3.622 12.382 7.619 17.179z" fill="#9898f4"/></g><g><path d="m289.867 228.56 46.243-46.243c-1.358-2.676-3.051-5.152-5.031-7.368l-48.579 48.579c2.216 1.981 4.691 3.674 7.367 5.032z" fill="#9898f4"/></g><g><path d="m202.889 235.621c-21.226 0-38.495-17.268-38.495-38.495s17.269-38.495 38.495-38.495 38.495 17.268 38.495 38.495-17.269 38.495-38.495 38.495zm0-70.816c-17.822 0-32.321 14.499-32.321 32.321s14.499 32.321 32.321 32.321 32.321-14.499 32.321-32.321-14.499-32.321-32.321-32.321z" fill="#827ddc"/></g><g><path d="m306.877 236.369c-21.226 0-38.495-17.268-38.495-38.495s17.269-38.495 38.495-38.495 38.495 17.268 38.495 38.495-17.269 38.495-38.495 38.495zm0-70.815c-17.822 0-32.321 14.499-32.321 32.321s14.499 32.321 32.321 32.321 32.321-14.499 32.321-32.321-14.499-32.321-32.321-32.321z" fill="#827ddc"/></g><g><path d="m202.889 235.621c-21.226 0-38.495-17.268-38.495-38.495h6.174c0 17.822 14.499 32.321 32.321 32.321z" fill="#6e64c3"/></g><g><path d="m306.877 236.369c-21.226 0-38.495-17.268-38.495-38.495h6.174c0 17.822 14.499 32.321 32.321 32.321z" fill="#6e64c3"/></g><path d="m136.752 358.027-6.881 1.527c-31.142 6.912-53.302 34.53-53.302 66.43v7.661c23.873 25.37 53.078 45.656 85.829 59.08v-95.819c-1.185-1.005-2.353-2.036-3.504-3.093-10.209-10.278-17.583-22.21-22.142-35.786z" fill="#373c41"/><path d="m381.086 359.58-2.187-.484c-.585 1.297-1.208 2.584-1.877 3.859-3.701 11.378-10.027 21.224-18.977 29.537-3.722 4.008-7.754 7.485-12.091 10.44v90.833c33.745-13.379 63.911-34.031 88.477-60.121v-7.624c0-31.917-22.183-59.544-53.345-66.44z" fill="#50555a"/><g><path d="m162.501 392.548c-8.377-10.564-13.141-22.684-13.141-35.57 0-12.271 4.321-23.846 11.966-34.045h-38.896c-1.047 4.693-1.592 9.499-1.592 14.394 0 26.541 15.979 50.508 41.663 67.593z" fill="#50555a"/></g><g><path d="m391.969 322.932h-38.897c7.646 10.2 11.966 21.774 11.966 34.045 0 15.436-6.834 29.771-18.528 41.651v9.693c28.822-17.226 47.05-42.644 47.05-70.996.001-4.893-.544-9.7-1.591-14.393z" fill="#50555a"/></g><g fill="#fff"><path d="m162.501 392.548v100.219c4.267 1.747 8.591 3.382 12.975 4.892v-92.135c0-7.167-5.809-12.976-12.975-12.976z"/><path d="m346.312 493.623v-95.074c-7.166 0-12.975 5.809-12.975 12.975v86.855c4.381-1.465 8.705-3.056 12.975-4.756z"/></g></g><g><g><g fill="#373c41"><path d="m352.704 97.145c4.214 11.468 6.531 23.844 6.531 36.755v23.952h27v-23.952c0-12.741-1.79-25.072-5.13-36.755l-2.78-8.402c-4.404-13.312-11.168-25.722-19.969-36.637l-16.495-2.722-4.872 19.229c6.097 8.959 11.341 18.47 15.661 28.409z"/><path d="m272.512 1.519c-6.582-.999-13.32-1.519-20.177-1.519-73.832 0-133.899 60.067-133.899 133.9v23.952h27v-23.952c0-58.945 47.955-106.9 106.9-106.9 6.896 0 13.64.665 20.176 1.918z"/></g><g><path d="m110.768 138.885h42.334v39.493h-42.334z" fill="#232628"/></g><g><path d="m358.924 138.885h41.979v39.493h-41.979z" fill="#232628"/></g><g><g><g><path d="m359.569 227.8v-61.331c13.361 0 24.193 10.832 24.193 24.193v12.946c0 13.36-10.832 24.192-24.193 24.192z" fill="#ff965a"/></g></g></g><g><g><g><path d="m359.569 207.225v-20.183c4.397 0 7.961 3.564 7.961 7.961v4.26c0 4.398-3.564 7.962-7.961 7.962z" fill="#ef6a30"/></g></g></g><g><g><g><path d="m144.595 199.164c0 4.19 3.396 7.586 7.586 7.586v-19.231c-4.19 0-7.586 3.396-7.586 7.586z" fill="#ef6a30"/></g></g></g><g><g><path d="m101.231 212.857v-32.982h-12.807c-5.299 0-9.594 4.296-9.594 9.594v23.387h22.401z" fill="#2477f9"/></g><g><path d="m101.231 237.049h-12.807c-5.299 0-9.594-4.296-9.594-9.594v-14.927h22.401z" fill="#0540e5"/></g><g><path d="m87.844 171.672h14.797v73.581h-14.797z" fill="#373c41" transform="matrix(-1 0 0 -1 190.486 416.924)"/></g><g><path d="m99.462 171.672h28.83v42.693h-28.83z" fill="#dc1428"/></g><g><path d="m99.462 213.694h28.83v31.558h-28.83z" fill="#be1423"/></g><g><path d="m135.857 224.747v-62.24h-15.212c-5.455 0-9.877 4.422-9.877 9.877v52.363z" fill="#2477f9"/></g><g><path d="m135.857 254.417h-15.212c-5.455 0-9.877-4.422-9.877-9.877v-20.475h25.089z" fill="#0540e5"/></g><g><path d="m153.102 226.008v-63.413c0-7.618-5.854-14.173-13.464-14.531-8.125-.383-14.832 6.091-14.832 14.132v63.813c0 7.451 6.04 13.491 13.491 13.491h1.314c7.451-.001 13.491-6.041 13.491-13.492z" fill="#373c41"/></g><g><path d="m138.955 238.659c-7.814 0-14.148-6.334-14.148-14.148v30.471c0 7.813 6.334 14.148 14.148 14.148s14.148-6.334 14.148-14.148v-30.471c-.001 7.814-6.335 14.148-14.148 14.148z" fill="#232628"/></g></g><g><g><path d="m432.841 212.851v-23.381c0-5.299-4.296-9.594-9.594-9.594h-12.807v32.976h22.401z" fill="#2477f9"/></g><g><path d="m410.44 237.049h12.807c5.299 0 9.594-4.296 9.594-9.594v-14.927h-22.401z" fill="#0540e5"/></g><g><path d="m409.03 171.672h14.797v73.581h-14.797z" fill="#373c41"/></g><g><path d="m383.379 171.672h28.83v42.528h-28.83z" fill="#dc1428" transform="matrix(-1 0 0 -1 795.588 385.872)"/></g><g><path d="m383.38 213.694h28.83v31.558h-28.83z" fill="#be1423" transform="matrix(-1 0 0 -1 795.589 458.947)"/></g><g><path d="m400.903 224.576v-52.192c0-5.455-4.422-9.877-9.877-9.877h-15.212v62.069z" fill="#2477f9"/></g><g><path d="m375.814 254.417h15.212c5.455 0 9.877-4.422 9.877-9.877v-20.475h-25.089z" fill="#0540e5"/></g><g><path d="m372.717 239.438c7.814 0 14.148-6.334 14.148-14.148v-63.095c0-7.814-6.334-14.148-14.148-14.148-7.814 0-14.148 6.334-14.148 14.148v63.095c0 7.814 6.334 14.148 14.148 14.148z" fill="#373c41"/></g><g><path d="m372.716 238.659c7.814 0 14.148-6.334 14.148-14.148v30.471c0 7.813-6.334 14.148-14.148 14.148s-14.148-6.334-14.148-14.148v-30.471c.001 7.814 6.335 14.148 14.148 14.148z" fill="#232628"/></g></g><g><path d="m145.436 138.885h-27v-4.985c0-29.685 9.515-57.805 27.515-81.321 17.419-22.756 42.111-39.604 69.528-47.438l7.418 25.961c-45.607 13.033-77.461 55.305-77.461 102.799z" fill="#373c41"/></g><g><path d="m302.457 9.725c-9.554-3.86-19.629-6.664-30.085-8.234l-4.01 26.7c12.122 1.821 23.611 5.701 34.095 11.272z" fill="#50555a"/></g><g><path d="m336.989 68.612c-11.705-15.152-27.24-26.905-44.926-33.99l10.04-25.063c22.153 8.874 41.604 23.586 56.253 42.546z" fill="#696e73"/></g></g></g></g></g></svg>