<svg id="Layer_1" enable-background="new 0 0 510 510" height="512" viewBox="0 0 510 510" width="512" xmlns="http://www.w3.org/2000/svg"><g><g><path d="m255 0c-98.131 0-158.58 55.352-158.747 55.445 0 0-2.513 3.137-2.983 5.222-3.818 16.948-7.385 39.663-7.385 56.238 0 140.833 118.763 254.972 259.596 254.972 54.231 0 114.568-25.992 154.949-57.243.903-.699 3.769-5.396 3.769-5.396.178-1.087 5.8-23.477 5.8-54.239.001-140.832-114.166-254.999-254.999-254.999z" fill="#afe6ff"/><path d="m345.459 364.679c-140.833 0-255-114.167-255-255 0-18.615 2.007-36.753 5.795-54.234-58.645 46.72-96.254 118.747-96.254 199.555 0 71.383 29.331 135.916 76.599 182.204l356.795-.001c34.837-34.088 60.02-78.178 70.805-127.964-43.559 34.695-98.724 55.44-158.74 55.44z" fill="#73c8f0"/></g><g><g><path d="m190.097 40.437-63.424 63.424s-54.294-82.69-36.78-100.204c17.514-17.514 100.204 36.78 100.204 36.78z" fill="#ff4181"/></g><g><path d="m167.407 63.127-40.734 40.734s-34.87-53.108-23.622-64.356c11.249-11.248 64.356 23.622 64.356 23.622z" fill="#b80b5a"/></g><g><path d="m307.427 40.437 63.424 63.424s54.294-82.69 36.78-100.204c-17.514-17.514-100.204 36.78-100.204 36.78z" fill="#ff4181"/></g><g><path d="m330.117 63.127 40.734 40.734s34.87-53.108 23.622-64.356c-11.248-11.248-64.356 23.622-64.356 23.622z" fill="#b80b5a"/></g><path d="m103.586 332.989c0 63.869 51.776 115.644 115.645 115.644l13.001-420.023h-44.467c-46.491 0-84.179 37.688-84.179 84.179z" fill="#ff4181"/><path d="m119.559 156.078v156.344h103.887l6.876-222.135h-44.972c-36.335.001-65.791 29.456-65.791 65.791z" fill="#58a804"/><path d="m391.394 319.011c0 63.069-33.504 136.223-96.573 136.223l-15.188-41.912c-49.848-4.741-87.947-70.356-87.947-120.429v-230.526c0-18.643 15.113-33.756 33.756-33.756h69.239c53.413 0 96.713 43.3 96.713 96.713z" fill="#ff6196"/><path d="m179.496 325.826c0 38.59 31.005 70.252 69.594 70.542.27.002.54.003.81.003 59.008 0 106.845-47.836 106.845-106.844v-18.728z" fill="#ff4181"/><path d="m191.686 90.728v202.165c0 6.453.637 13.165 1.846 19.97h181.629v-163.968c0-32.125-26.042-58.167-58.167-58.167z" fill="#58a804"/><path d="m368.997 400.675c-1.895-.126-3.806-.194-5.734-.194h-184.745c-33.88.016-33.899-.108-38.142.261-4.862.359-9.609 1.127-14.21 2.266 0 30.396 14.807 58.882 39.674 76.362 19.945 14.021 41.073 27.067 63.026 29.305 8.592.876 17.31 1.325 26.134 1.325 7.132 0 14.2-.295 21.193-.873 16.898-1.397 33.356-11.511 49.203-22.963 27.424-19.818 43.601-51.655 43.601-85.489z" fill="#fff"/><path d="m209.584 477.836c-.281-.063-.568-.117-.848-.181-39.534-9.094-78.202-32.053-93.501-71.124-15.699 6.237-29.109 16.992-38.624 30.659 35.721 34.981 81.682 59.531 132.973 68.753z" fill="#ff6196"/><path d="m295.706 506.74c52.977-8.524 100.75-33.413 137.679-69.547-12.967-18.643-33.166-31.879-56.547-35.617-6.504 25.119-23.159 49.231-45.197 62.218-11.135 6.562-23.286 11.255-35.935 14.355z" fill="#ff6196"/><path d="m115.236 406.531c-15.699 6.237-29.109 16.992-38.624 30.659 25.13 24.609 55.324 44.058 88.882 56.641v-7.985c0-7.926 1.101-15.59 3.123-22.871-23.566-12.395-43.422-31.008-53.381-56.444z" fill="#ff4181"/><g><g><path d="m292.265 406.292c0 20.581-16.684 37.265-37.265 37.265-20.581 0-37.265-16.684-37.265-37.265v-20.039l74.531-63.43v83.469z" fill="#fab9af"/></g></g><g><g><path d="m355.721 162.318c-.246-24.792-20.413-44.76-45.206-44.76h-53.711c-29.928 0-57.128 11.67-77.308 30.702v153.563c0 38.59 31.005 70.253 69.594 70.542.27.002.54.003.81.003 59.009 0 106.845-47.836 106.845-106.845z" fill="#ffbe82"/></g></g><path d="m217.735 386.254c3.834.685 7.771 1.076 11.797 1.106.27.002.54.003.81.003 23.082 0 44.454-10.32 61.922-22.764v-41.775h-74.531v63.43z" fill="#fa735f"/><g><g><path d="m355.721 162.318c-.246-24.792-20.413-44.76-45.206-44.76h-53.711c-29.928 0-57.128 11.67-77.308 30.702v153.563c0 38.59 31.005 70.253 69.594 70.542.27.002.54.003.81.003 59.009 0 106.845-47.836 106.845-106.845z" fill="#fab9af"/></g></g><g><g><path d="m205.236 225.695v9.088c0 4.866 3.946 8.812 8.812 8.812s8.812-3.945 8.812-8.812v-9.088z" fill="#fa968c"/></g></g><g><g><path d="m277.198 225.695v9.088c0 4.866 3.946 8.812 8.812 8.812s8.812-3.945 8.812-8.812v-9.088z" fill="#fa968c"/></g></g><g><g><path d="m214.047 236.251c-4.866 0-8.812-3.945-8.812-8.812v-6.499l3.537-5.313-3.537-5.314v-6.974c0-4.866 3.945-8.812 8.812-8.812 4.866 0 8.812 3.945 8.812 8.812v24.1c0 4.867-3.945 8.812-8.812 8.812z" fill="#373c41"/></g></g><g><g><path d="m286.01 236.251c-4.866 0-8.812-3.945-8.812-8.812v-8.244l3.537-5.314-3.537-5.314v-5.229c0-4.866 3.945-8.812 8.812-8.812 4.866 0 8.812 3.945 8.812 8.812v24.1c-.001 4.868-3.946 8.813-8.812 8.813z" fill="#373c41"/></g></g><path d="m280.735 121.22v33.58h5.069c25.467 0 47.789-13.427 60.302-33.58z" fill="#fa968c"/><g><g><g><path d="m225.657 190.122h-25.697c-4.867 0-8.812-3.945-8.812-8.812 0-4.867 3.945-8.812 8.812-8.812h25.697c4.867 0 8.812 3.945 8.812 8.812-.001 4.867-3.946 8.812-8.812 8.812z" fill="#64bc0f"/></g></g></g><g><g><g><path d="m299.087 190.122h-25.697c-4.867 0-8.812-3.945-8.812-8.812 0-4.867 3.945-8.812 8.812-8.812h25.697c4.867 0 8.812 3.945 8.812 8.812 0 4.867-3.945 8.812-8.812 8.812z" fill="#64bc0f"/></g></g></g><g><g><path d="m236.67 251.351c-2.191 7.719 1.791 16.127 9.403 18.662 1.532.51 3.171.786 4.874.786s3.342-.276 4.874-.786c7.613-2.534 11.594-10.943 9.404-18.662l-10.684-37.648c-1.028-3.621-6.16-3.621-7.187 0z" fill="#fa968c"/></g></g><path d="m259.768 117.747c-63.84-.122-115.665 51.584-115.665 115.424v33.401c0 65.03 58.362 115.336 123.751 104.266-49.92-8.492-87.936-51.926-87.936-104.266.027-46.851-.004-68.596-.009-79.193-.003-8.388 6.856-15.266 15.244-15.284h.011 51.281c29.842 0 54.035-24.192 54.035-54.035-.001.001-7.795-.25-40.712-.313z" fill="#fa968c"/><path d="m198.753 74.858c-30.183 0-54.65 24.468-54.65 54.65v35.243 68.419c7.826 0 14.171-6.344 14.171-14.171v-17.358c0-20.374 16.516-36.89 36.89-36.89h51.281c29.842 0 54.035-24.192 54.035-54.035v-35.858z" fill="#64bc0f"/><path d="m298.564 117.559c24.172 0 44.01 20.692 44.01 44.864v56.578c0 7.826 6.344 14.171 14.171 14.171v-100.603c0-10.373-8.804-18.565-19.15-17.82z" fill="#64bc0f"/><g fill="#fff"><path d="m289.231 290.87c.366-2.722-1.828-5.119-4.574-5.119h-9.255l-24.373 5.06-24.373-5.06h-8.187c-2.746 0-4.941 2.397-4.574 5.119.701 5.207 2.456 10.08 5.044 14.397l49.351 14.625c11.146-5.471 19.22-16.239 20.941-29.022z"/><path d="m218.943 305.264c6.642 11.079 18.763 18.497 32.62 18.497 6.003 0 11.677-1.396 16.725-3.874-2.17-13.611-13.959-24.015-28.181-24.015-8.395-.001-15.942 3.624-21.164 9.392z"/><path d="m275.402 290.51c0 2.961-2.401 5.362-5.362 5.362h-38.023c-2.961 0-5.362-2.401-5.362-5.362v-4.759h48.746v4.759z"/><path d="m208.773 224.478c-1.953 0-3.537-1.584-3.537-3.537v-10.627c0-1.953 1.584-3.537 3.537-3.537 1.953 0 3.537 1.584 3.537 3.537v10.627c0 1.953-1.584 3.537-3.537 3.537z"/><path d="m280.735 222.733c-1.953 0-3.537-1.584-3.537-3.537v-10.627c0-1.953 1.584-3.537 3.537-3.537 1.953 0 3.537 1.584 3.537 3.537v10.627c0 1.953-1.584 3.537-3.537 3.537z"/></g><path d="m281.494 96.738-1.456.404.697 49.658h5.069c31.912 0 58.898-21.073 67.813-50.062z" fill="#64bc0f"/><ellipse cx="180.956" cy="265.405" fill="#fa968c" rx="24.279" ry="20.346"/><path d="m372.759 133.264c-17.594-24.034-46.009-39.649-78.077-39.649h-106.917c-27.528 0-51.966 13.216-67.324 33.647v50.408h5.149c.068-34.23 28.368-62.492 62.612-62.492l5.778-.035h86.058c1.366 0 2.675.174 3.928.472h10.715c36.881 0 67.586 26.868 73.619 62.055h4.467c-.182-14.797.125-29.604-.008-44.406z" fill="#58a804"/><ellipse cx="318.74" cy="265.405" fill="#fa968c" rx="24.279" ry="20.346"/><path d="m209.584 471.312-11.608-1.109c-41.431-9.652-72.39-46.884-72.39-91.211v-220.199c0-34.285 28.33-62.615 62.615-62.615l5.778-.036c1.184-.274 18.042-10.603 18.042-10.603l20.21-10.925h-44.467c-46.491 0-84.179 37.688-84.179 84.179v220.199c0 60.62 46.644 110.338 105.999 115.24z" fill="#ff6196"/><path d="m294.681 74.614h-69.239c-14.328 0-26.563 8.932-31.462 21.528h86.058c1.366 0 2.675.174 3.928.472h10.715c41.197 0 74.713 33.516 74.713 74.713v208.688c0 44.295-31.4 82.405-73.109 91.22-.192.041-.387.066-.579.104v21.37c54.263-8.846 95.689-55.932 95.689-112.694v-208.688c-.001-53.413-43.301-96.713-96.714-96.713z" fill="#ff82aa"/></g><g fill="#b80b5a"><path d="m208.773 505.809c6.613 1.211 13.312 2.177 20.093 2.868v-37.441h-20.093z"/><path d="m296.285 506.648v-35.413h-20.093v37.882c6.773-.559 13.473-1.388 20.093-2.469z"/></g></g></svg>