<svg id="Layer_1" enable-background="new 0 0 511 511" height="512" viewBox="0 0 511 511" width="512" xmlns="http://www.w3.org/2000/svg"><g><g><path d="m255.5 32.043c-92.158 0-148.928 51.983-149.084 52.07 0 0-2.36 2.946-2.801 4.904-3.586 15.917-6.936 37.249-6.936 52.815 0 132.26 111.534 239.452 243.794 239.452 50.93 0 107.594-24.41 145.518-53.759.848-.657 3.54-5.068 3.54-5.068.167-1.021 5.447-22.048 5.447-50.937 0-132.259-107.218-239.477-239.478-239.477z" fill="#afe6ff"/><path d="m340.453 374.525c-132.26 0-239.478-107.218-239.478-239.479 0-17.482 1.885-34.515 5.442-50.933-55.076 43.877-90.395 111.52-90.395 187.409 0 61.109 22.889 116.873 60.561 159.185l357.828.008c26.821-30.105 46.206-67.109 55.12-108.255-40.908 32.582-92.715 52.065-149.078 52.065z" fill="#73c8f0"/></g><g><g><path d="m366.105 256.816h13v27.722h-13z" fill="#373c41"/></g><g><g><g><path d="m356.924 232.541-3.269-26.007 3.269-35.324c13.361 0 26.193 10.832 26.193 24.193v12.946c0 13.36-12.832 24.192-26.193 24.192z" fill="#ff965a"/></g></g></g><g><g><g><path d="m357.975 214.251-1.319-10.496 1.319-14.256c5.392 0 10.571 4.371 10.571 9.764v5.224c0 5.393-5.179 9.764-10.571 9.764z" fill="#ef6a30"/></g></g></g><g><g><g><path d="m153.277 227.104 3.269-26.007-3.269-35.324c-13.361 0-26.193 10.832-26.193 24.193v12.946c0 13.361 12.832 24.192 26.193 24.192z" fill="#ff965a"/></g></g></g><g><g><g><path d="m152.226 208.815 1.319-10.496-1.319-14.256c-5.392 0-10.571 4.371-10.571 9.764v5.224c0 5.392 5.179 9.764 10.571 9.764z" fill="#ef6a30"/></g></g></g><path d="m381.086 365.5-125.856-27.85c-37.187 8.254-63.649 41.233-63.649 79.325v85.393c20.348 5.624 41.781 8.632 63.919 8.632 41.159 0 80.077-10.443 114.105-28.918l2.999-6.645 3.004 3.273c22.044-12.802 41.896-29.033 58.796-48.002-.564-31.391-22.558-58.401-53.318-65.208z" fill="#50555a"/><path d="m76.596 430.695c30.437 34.185 70.519 59.584 115.981 71.933v-70.725c0-31.9 22.16-59.518 53.302-66.43l67.442-14.969-58.091-12.854-125.358 27.824c-30.747 6.824-52.723 33.836-53.276 65.221z" fill="#373c41"/><g><path d="m255.741 432.221c33.664 0 60.953-27.29 60.953-60.953v-20.016l-61.464-13.602-60.443 13.416v20.202c0 33.663 27.29 60.953 60.954 60.953z" fill="#373c41"/></g><g><g><g><path d="m255.741 406.349c-20.073 0-36.344-16.272-36.344-36.344l72.689-81.406v81.406c-.001 20.072-16.273 36.344-36.345 36.344z" fill="#ff965a"/></g></g></g><g><g><g><path d="m354.335 161.081c0-33.168-21.278-63.497-54.445-63.497h-88.298c-9.464 0-18.132 2.477-25.694 6.777v175.309c0 38.264 30.776 69.577 69.038 69.867.268.002.537.003.805.003 56.987 0 103.183-46.197 103.183-103.183v-32.575z" fill="#ffbe82"/></g></g></g><g><path d="m219.396 288.598v81.406c40.413 7.849 64.953-5.603 72.689-25.837v-55.569z" fill="#ef6a30"/></g><g><g><g><path d="m354.335 161.081c0-33.168-21.278-63.497-54.445-63.497h-88.298c-9.464 0-18.132 2.477-25.694 6.777v175.309c0 38.264 30.776 69.577 69.038 69.867.268.002.537.003.805.003 56.987 0 103.183-46.197 103.183-103.183v-32.575z" fill="#ffbe82"/></g></g></g><g><g><g><path d="m211.159 207.798v7.276c0 4.746 3.848 8.594 8.594 8.594s8.594-3.848 8.594-8.594v-7.276z" fill="#ff965a"/></g></g></g><g><g><g><path d="m281.182 207.798v7.276c0 4.746 3.848 8.594 8.594 8.594s8.594-3.848 8.594-8.594v-7.276z" fill="#ff965a"/></g></g></g><g><g><g><path d="m219.752 216.785c-4.746 0-8.594-3.848-8.594-8.594v-11.055l3.168-4.797-3.168-4.797v-2.855c0-4.746 3.848-8.594 8.594-8.594s8.594 3.848 8.594 8.594v23.504c0 4.746-3.848 8.594-8.594 8.594z" fill="#373c41"/></g></g></g><g><g><g><path d="m289.776 216.785c-4.746 0-8.594-3.848-8.594-8.594v-11.055l3.168-4.797-3.168-4.797v-2.855c0-4.746 3.848-8.594 8.594-8.594s8.594 3.848 8.594 8.594v23.504c0 4.746-3.848 8.594-8.594 8.594z" fill="#373c41"/></g></g></g><g><path d="m342.16 125.184c.986.001 1.96-.047 2.928-.119-9.264-16.253-25.025-27.482-45.198-27.482h-88.299c-9.464 0-18.132 2.477-25.694 6.777v2.196c-19.413 9.058-32.087 28.451-32.087 52.25l-2.274 54.974v31.554c0 59.556 49.9 107.227 109.797 104.054-43.381-12.598-75.091-52.632-75.091-100.077.258-5.863 0-62.674 0-84.254 0-.154.001-.307.002-.461.165-21.948 18.249-39.549 40.197-39.527z" fill="#ff965a"/></g><g><g><g><g><path d="m231.075 171.796h-25.062c-4.746 0-8.594-3.848-8.594-8.594 0-4.746 3.848-8.594 8.594-8.594h25.062c4.746 0 8.594 3.848 8.594 8.594 0 4.746-3.848 8.594-8.594 8.594z" fill="#783c28"/></g></g></g></g><g><g><g><g><path d="m302.691 171.796h-25.062c-4.746 0-8.594-3.848-8.594-8.594 0-4.746 3.848-8.594 8.594-8.594h25.062c4.746 0 8.594 3.848 8.594 8.594 0 4.746-3.848 8.594-8.594 8.594z" fill="#783c28"/></g></g></g></g><g><path d="m353.524 150.023c-4.148-28.554-24.203-52.44-53.635-52.44h-88.298c-7.87 0-15.187 1.718-21.778 4.767 13.933 28.239 43.001 47.672 76.62 47.672h87.091z" fill="#ff965a"/></g><g><g><g><path d="m241.816 228.985c-2.136 8.531 1.746 17.824 9.171 20.625 1.494.564 3.092.869 4.754.869 1.661 0 3.26-.305 4.754-.869 7.425-2.801 11.308-12.094 9.171-20.625l-7.082-28.282c-1.783-7.12-11.902-7.12-13.685 0z" fill="#ff965a"/></g></g></g><g><g><path d="m358.924 103.834v57.792.003 52.153c-7.633 0-13.821-6.188-13.821-13.821v-61.026c0-13.479-7.586-25.903-19.707-31.799-.297-.145-.594-.286-.89-.423v-2.878h34.418z" fill="#6d3222"/></g></g><g><path d="m214.327 200.304c-1.75 0-3.168-1.418-3.168-3.168v-9.594c0-1.75 1.418-3.168 3.168-3.168 1.75 0 3.168 1.418 3.168 3.168v9.594c0 1.75-1.419 3.168-3.168 3.168z" fill="#fff"/></g><g><path d="m284.35 200.304c-1.75 0-3.168-1.418-3.168-3.168v-9.594c0-1.75 1.418-3.168 3.168-3.168 1.75 0 3.168 1.418 3.168 3.168v9.594c0 1.75-1.418 3.168-3.168 3.168z" fill="#fff"/></g><g><g><path d="m151.536 117.985v43.641.003 52.153c7.633 0 13.821-6.188 13.821-13.821v-61.026c0-.081 0-.162.001-.242.067-9.801 6.711-17.997 15.673-20.707h-29.495z" fill="#6d3222"/></g></g><g><path d="m151.536 120.399v41.227c24.184 0 44.168-17.934 47.407-41.227z" fill="#6d3222"/></g><g><path d="m210.815 120.399c14.943 12.847 34.367 20.624 55.619 20.624l88.674-.009c5.029-.001 9.106-4.078 9.106-9.107l-112.623-70.818z" fill="#783c28"/></g><g><ellipse cx="203.975" cy="243.573" fill="#ff965a" rx="22.944" ry="15.853"/></g><g><ellipse cx="311.285" cy="243.573" fill="#ff965a" rx="22.944" ry="15.853"/></g><g><path d="m255.736 296.192c-9.699 0-19.4-4.299-28.837-12.898l6.735-7.391c15.083 13.743 29.121 13.747 44.177.002l6.742 7.387c-9.422 8.599-19.119 12.9-28.817 12.9z" fill="#ff965a"/></g><g><path d="m248.312 307.277h15.073v7h-15.073z" fill="#ff965a"/></g><g><path d="m255.5 10.226c-60.041 0-108.713 48.673-108.713 108.713v12.967h217.427v-12.966c-.001-60.041-48.673-108.714-108.714-108.714zm22.241 100.487h-45.848v-3.152c0-14.596 10.263-26.429 22.924-26.429s22.924 11.833 22.924 26.429z" fill="#50555a"/></g><g><path d="m255.39 110.713h-23.497v-3.152c0-14.596 10.263-26.429 22.924-26.429.192 0 .382.011.573.017v-70.92c-59.99.058-108.603 48.707-108.603 108.711v12.967h108.603z" fill="#373c41"/></g><g><path d="m255.5 10.226c-31.457 0-56.959 48.673-56.959 108.713v12.967h113.917v-12.966c.001-60.041-25.501-108.714-56.958-108.714z" fill="#696e73"/></g><g><path d="m330.77 187.272c-52.08-15.172-102.19-14.601-150.563-.133-7.558 2.261-15.54-1.938-18.05-9.417l-15.371-45.816c72.427-28.277 144.902-28.239 217.427 0l-15.414 45.945c-2.506 7.471-10.463 11.625-18.029 9.421z" fill="#82878c"/></g><g><ellipse cx="256.822" cy="9.578" fill="#373c41" rx="15.589" ry="9.578"/></g><g><g><g><g><path d="m119.721 197.197c0 17.7 14.349 32.049 32.049 32.049v-81.247c-17.7 0-32.049 14.349-32.049 32.049z" fill="#ff965a"/></g></g></g><g><path d="m101.12 208.615v-35.453h-12.807c-5.299 0-9.594 4.296-9.594 9.594v25.859z" fill="#39ae96"/></g><g><path d="m101.12 230.336h-12.807c-5.299 0-9.594-4.296-9.594-9.594v-14.927h22.401z" fill="#1c9585"/></g><g><path d="m87.733 164.958h14.797v73.581h-14.797z" fill="#fff" transform="matrix(-1 0 0 -1 190.263 403.497)"/></g><g><path d="m99.351 164.958h28.83v43.657h-28.83z" fill="#39ae96"/></g><g><path d="m99.351 206.981h28.83v31.558h-28.83z" fill="#1c9585"/></g><g><path d="m135.746 218.744v-62.95h-15.212c-5.455 0-9.877 4.422-9.877 9.877v53.073z" fill="#55c7a6"/></g><g><path d="m135.746 247.704h-15.212c-5.455 0-9.877-4.422-9.877-9.877v-20.475h25.089z" fill="#39ae96"/></g><g><path d="m152.991 218.687v-63.206c0-7.814-6.334-14.148-14.148-14.148-7.814 0-14.148 6.334-14.148 14.148v63.206c0 7.814 6.334 14.148 14.148 14.148 7.814 0 14.148-6.334 14.148-14.148z" fill="#373c41"/></g><g><path d="m138.843 231.946c-7.814 0-14.148-6.334-14.148-14.148v30.471c0 7.813 6.334 14.148 14.148 14.148s14.148-6.334 14.148-14.148v-30.471c0 7.814-6.334 14.148-14.148 14.148z" fill="#232628"/></g></g><g><g><g><g><path d="m359.678 229.246v-81.247c17.7 0 32.049 14.349 32.049 32.049v17.149c0 17.7-14.349 32.049-32.049 32.049z" fill="#ff965a"/></g></g></g><g><path d="m432.73 208.615v-25.859c0-5.299-4.296-9.594-9.594-9.594h-12.807v35.453z" fill="#39ae96"/></g><g><path d="m410.329 230.336h12.807c5.299 0 9.594-4.296 9.594-9.594v-14.927h-22.401z" fill="#1c9585"/></g><g><path d="m408.918 164.958h14.797v73.581h-14.797z" fill="#fff"/></g><g><path d="m383.268 164.958h28.83v43.657h-28.83z" fill="#39ae96"/></g><g><path d="m383.268 206.981h28.83v31.558h-28.83z" fill="#1c9585" transform="matrix(-1 0 0 -1 795.366 445.52)"/></g><g><path d="m400.792 218.744v-53.073c0-5.455-4.422-9.877-9.877-9.877h-15.212v62.95z" fill="#55c7a6"/></g><g><path d="m375.703 247.704h15.212c5.455 0 9.877-4.422 9.877-9.877v-20.475h-25.089z" fill="#39ae96"/></g><g><path d="m386.753 219.568v-63.687c0-7.618-5.854-14.173-13.464-14.531-8.125-.383-14.832 6.091-14.832 14.132v64.087c0 7.814 6.334 14.148 14.148 14.148 7.814-.001 14.148-6.335 14.148-14.149z" fill="#373c41"/></g><g><path d="m372.605 231.946c7.814 0 14.148-6.334 14.148-14.148v30.471c0 7.813-6.334 14.148-14.148 14.148s-14.148-6.334-14.148-14.148v-30.471c0 7.814 6.334 14.148 14.148 14.148z" fill="#232628"/></g></g><path d="m375.605 478.704v-194.167h-6v197.543c2.018-1.095 4.016-2.225 6-3.376z" fill="#fff"/></g></g></svg>