<svg id="Layer_1" enable-background="new 0 0 511.325 511.325" height="512" viewBox="0 0 511.325 511.325" width="512" xmlns="http://www.w3.org/2000/svg"><g><g><path d="m255.662 27.414c-93.111 0-150.468 52.52-150.626 52.609 0 0-2.385 2.976-2.83 4.955-3.623 16.081-7.007 37.634-7.007 53.362 0 133.628 112.688 241.929 246.316 241.929 51.457 0 108.707-24.662 147.023-54.315.857-.663 3.577-5.12 3.577-5.12.169-1.031 5.504-22.276 5.504-51.464-.001-133.629-108.328-241.956-241.957-241.956z" fill="#afe6ff"/><path d="m341.494 373.438c-133.628 0-241.955-108.327-241.955-241.955 0-17.663 1.905-34.873 5.498-51.459-55.645 44.33-91.329 112.672-91.329 189.346 0 60.851 22.464 116.456 59.551 158.974l364.799.013c26.252-30.076 45.233-66.791 54.057-107.523-41.332 32.92-93.675 52.604-150.621 52.604z" fill="#73c8f0"/></g><g><g><path d="m356.951 237.443h13v24.822h-13z" fill="#fa870a"/></g><g><circle cx="119.308" cy="55.276" fill="#b80b5a" r="55.276"/></g><g><circle cx="392.894" cy="55.276" fill="#ff4181" r="55.276"/></g><g><path d="m251.566 4.276c-.177-.001-.353-.007-.53-.007-72.551 0-131.365 58.814-131.365 131.365v85.025h131.895z" fill="#b80b5a"/></g><path d="m119.677 110.551c29.569-.193 54.028-24.079 54.884-53.636.264-9.109-1.678-17.738-5.33-25.395-4.495-9.424-16.809-11.945-24.702-5.109-19.266 16.685-33.627 38.881-40.633 64.137-2.774 9.999 4.818 19.964 15.194 20.005.195 0 .391 0 .587-.002z" fill="#39ae96"/><g><path d="m251.566 4.276c-.177-.001-.353-.007-.53-.007-72.551 0-131.365 58.814-131.365 131.365v85.025h131.895z" fill="#b80b5a"/></g><path d="m340.012 32.656c-5.23 9.037-7.974 19.692-7.291 31.034 1.677 27.878 24.366 50.355 52.257 51.788.189.01.377.018.566.026 10.418.432 18.53-9.157 16.383-19.36-5.447-25.89-18.518-48.973-36.756-66.79-7.464-7.291-19.933-5.729-25.159 3.302z" fill="#55c7a6"/><g><path d="m251.035 4.27c-.255 0-.507.008-.761.01v216.38h132.126v-85.025c0-72.551-58.814-131.365-131.365-131.365z" fill="#ff4181"/></g><path d="m363.925 385.306-53.488.168s-33.662-.04-68.599-.08c-42.387-.049-76.775 34.298-76.775 76.685v31.703c27.983 11.31 58.562 17.544 90.599 17.544 72.344 0 137.834-31.932 182.387-82.976-14.71-25.707-42.383-43.044-74.124-43.044z" fill="#fff"/><path d="m141.038 385.567c-29.047 2.143-54.053 18.811-67.773 42.77 25.084 28.757 56.854 51.525 92.891 65.883v-23.547c0-45.004 34.832-81.847 79.004-85.105 2.048-.178 3.122-.241 7.486-.261h-73.466c-33.88.015-33.899-.109-38.142.26z" fill="#e4f2f6"/><g><path d="m255.662 450.111c30.251 0 54.775-24.524 54.775-54.775v-9.861h-109.55v9.861c0 30.251 24.524 54.775 54.775 54.775z" fill="#e4f2f6"/></g><g><g><g><path d="m292.928 391.118c0 20.581-16.684 37.265-37.265 37.265-20.581 0-37.265-16.684-37.265-37.265v-20.039l74.531-63.43v83.469z" fill="#fab9af"/></g></g></g><g><g><g><path d="m356.383 147.145c-.246-24.792-20.413-44.76-45.206-44.76h-53.711c-29.928 0-57.128 11.67-77.308 30.702v153.563c0 38.59 31.005 70.253 69.594 70.542.27.002.54.003.81.003 59.009 0 106.845-47.836 106.845-106.845z" fill="#ffbe82"/></g></g></g><g><path d="m218.397 371.08c3.834.685 7.771 1.076 11.797 1.106.27.002.54.003.81.003 23.082 0 44.454-10.32 61.922-22.764v-41.775h-74.531v63.43z" fill="#fa735f"/></g><g><g><g><path d="m356.383 147.145c-.246-24.792-20.413-44.76-45.206-44.76h-53.711c-29.928 0-57.128 11.67-77.308 30.702v153.563c0 38.59 31.005 70.253 69.594 70.542.27.002.54.003.81.003 59.009 0 106.845-47.836 106.845-106.845z" fill="#fab9af"/></g></g></g><g><g><g><path d="m205.898 210.521v9.088c0 4.866 3.946 8.812 8.812 8.812s8.812-3.945 8.812-8.812v-9.088z" fill="#fa968c"/></g></g></g><g><path d="m366.451 484.487v-222.222h-6v225.211c2.015-.97 4.015-1.966 6-2.989z" fill="#ffd23c"/></g><g><g><g><path d="m277.86 210.521v9.088c0 4.866 3.946 8.812 8.812 8.812s8.812-3.945 8.812-8.812v-9.088z" fill="#fa968c"/></g></g></g><g><g><g><path d="m214.71 221.077c-4.866 0-8.812-3.945-8.812-8.812v-6.499l3.537-5.314-3.537-5.314v-6.974c0-4.866 3.945-8.812 8.812-8.812s8.812 3.945 8.812 8.812v24.1c0 4.868-3.946 8.813-8.812 8.813z" fill="#373c41"/></g></g></g><g><g><g><path d="m286.672 221.077c-4.866 0-8.812-3.945-8.812-8.812v-8.244l3.537-5.314-3.537-5.314v-5.229c0-4.866 3.945-8.812 8.812-8.812 4.866 0 8.812 3.945 8.812 8.812v24.1c0 4.868-3.946 8.813-8.812 8.813z" fill="#373c41"/></g></g></g><g><path d="m281.397 106.046v33.58h5.069c25.467 0 47.789-13.427 60.302-33.58z" fill="#fa968c"/></g><g><g><g><g><path d="m226.319 174.948h-25.697c-4.867 0-8.812-3.945-8.812-8.812 0-4.867 3.945-8.812 8.812-8.812h25.697c4.867 0 8.812 3.945 8.812 8.812 0 4.867-3.945 8.812-8.812 8.812z" fill="#b80b5a"/></g></g></g></g><g><g><g><g><path d="m299.75 174.948h-25.697c-4.867 0-8.812-3.945-8.812-8.812 0-4.867 3.945-8.812 8.812-8.812h25.697c4.867 0 8.812 3.945 8.812 8.812 0 4.867-3.946 8.812-8.812 8.812z" fill="#b80b5a"/></g></g></g></g><g><g><g><path d="m237.332 236.177c-2.191 7.719 1.791 16.127 9.403 18.662 1.532.51 3.171.786 4.874.786s3.342-.276 4.874-.786c7.613-2.534 11.594-10.943 9.404-18.662l-10.684-37.648c-1.028-3.621-6.16-3.621-7.187 0z" fill="#fa968c"/></g></g></g><g><path d="m260.43 102.573c-63.84-.122-115.665 51.584-115.665 115.424v33.401c0 65.03 58.362 115.336 123.751 104.266-49.92-8.492-87.936-51.926-87.936-104.266.027-46.851-.004-68.596-.009-79.193-.003-8.388 6.856-15.266 15.244-15.284h.011 51.281c29.842 0 54.035-24.192 54.035-54.035 0 .001-7.795-.25-40.712-.313z" fill="#fa968c"/></g><g><path d="m199.416 59.684c-30.183 0-54.65 24.468-54.65 54.65v35.243 68.419c7.826 0 14.171-6.344 14.171-14.171v-17.358c0-20.374 16.516-36.89 36.89-36.89h51.281c29.842 0 54.035-24.192 54.035-54.035v-35.858z" fill="#ff4181"/></g><g><path d="m299.227 102.385c24.172 0 44.01 20.692 44.01 44.864v56.578c0 7.826 6.344 14.171 14.171 14.171v-100.603c0-10.373-8.804-18.565-19.15-17.82z" fill="#b80b5a"/></g><g><path d="m289.893 275.696c.366-2.722-1.828-5.119-4.574-5.119h-9.255l-24.373 5.06-24.373-5.06h-8.187c-2.746 0-4.941 2.397-4.574 5.119.701 5.207 2.456 10.08 5.044 14.397l49.351 14.625c11.146-5.471 19.221-16.239 20.941-29.022z" fill="#fff"/></g><g><path d="m219.605 290.09c6.642 11.079 18.763 18.497 32.62 18.497 6.003 0 11.677-1.396 16.725-3.874-2.17-13.611-13.959-24.015-28.181-24.015-8.394 0-15.941 3.624-21.164 9.392z" fill="#fff"/></g><g><path d="m276.064 275.336c0 2.961-2.401 5.362-5.362 5.362h-38.022c-2.961 0-5.362-2.401-5.362-5.362v-4.759h48.746z" fill="#fff"/></g><g><path d="m209.435 209.304c-1.953 0-3.537-1.584-3.537-3.537v-10.627c0-1.953 1.584-3.537 3.537-3.537 1.953 0 3.537 1.584 3.537 3.537v10.627c0 1.953-1.583 3.537-3.537 3.537z" fill="#fff"/></g><g><path d="m281.397 207.559c-1.953 0-3.537-1.584-3.537-3.537v-10.627c0-1.953 1.584-3.537 3.537-3.537 1.953 0 3.537 1.584 3.537 3.537v10.627c0 1.953-1.583 3.537-3.537 3.537z" fill="#fff"/></g><g><path d="m344.693 84.25c4.884 6.323-2.757-4.16-10.638-9.914-7.752-5.667-16.316-10.511-25.19-14.652h-27.468v70.941h5.069c27.454 0 51.247-15.605 63.041-38.419-.724-1.431-3.269-7.594-4.814-7.956z" fill="#ff4181"/></g><g><ellipse cx="181.619" cy="250.231" fill="#fa968c" rx="24.279" ry="20.346"/></g><g><ellipse cx="319.403" cy="250.231" fill="#fa968c" rx="24.279" ry="20.346"/></g><g><g><g><g><path d="m382.4 212.471c0 13.792-11.18 24.972-24.972 24.972h-1.522l-1.496-63.307h3.018c13.792 0 24.972 11.18 24.972 24.972z" fill="#fa968c"/></g></g></g><g><g><g><path d="m367.639 208.47c0 5.533-4.485 10.018-10.018 10.018h-.611l-.6-25.398h1.211c5.533 0 10.018 4.485 10.018 10.018z" fill="#fa735f"/></g></g></g><g><g><g><path d="m119.67 212.427c0 13.7 11.106 24.806 24.806 24.806h.911l.44-62.885h-1.351c-13.7 0-24.806 11.106-24.806 24.806z" fill="#fa968c"/></g></g></g><g><g><g><path d="m134.768 208.342c0 5.269 4.271 9.54 9.54 9.54h.35l.169-24.185h-.52c-5.269 0-9.54 4.271-9.54 9.54v5.105z" fill="#fa735f"/></g></g></g><g><path d="m150.828 174.347h-12v-55.839c0-35.744 29.079-64.824 64.823-64.824h94.934c35.744 0 64.823 29.08 64.823 64.824v55.628h-12v-55.628c0-29.127-23.696-52.824-52.823-52.824h-94.934c-29.127 0-52.823 23.697-52.823 52.824z" fill="#ffc305"/></g><g><path d="m150.828 174.347h-12v-55.839c0-35.744 29.079-64.824 64.823-64.824h36.858v12h-36.858c-29.127 0-52.823 23.697-52.823 52.824z" fill="#ffa50a"/></g><g><g><path d="m127.325 153.506h23.78v16.194h-23.78z" fill="#fa870a"/></g><g><path d="m142.648 244.343h8.457v-78.206h-8.457c-21.596 0-39.103 17.507-39.103 39.103 0 21.596 17.507 39.103 39.103 39.103z" fill="#ffc305"/></g><g><path d="m143.104 166.137v26.783c0 20.772-26.219 29.901-39.097 13.603-.149-.188-.296-.378-.444-.571.382 21.266 17.728 38.39 39.085 38.39h8.457v-78.206h-8.001z" fill="#ffa50a"/></g></g><g><g><path d="m351.561 153.506h23.78v16.194h-23.78z" fill="#fa870a" transform="matrix(-1 0 0 -1 726.902 323.207)"/></g><g><path d="m360.018 244.343h-8.457v-78.206h8.457c21.596 0 39.103 17.507 39.103 39.103-.001 21.596-17.507 39.103-39.103 39.103z" fill="#ffc305"/></g><g><path d="m359.561 166.137v26.783c0 20.772 26.219 29.901 39.097 13.603.148-.188.296-.378.444-.571-.382 21.266-17.728 38.39-39.085 38.39h-8.457v-78.206h8.001z" fill="#ffa50a"/></g></g></g></g></g></svg>