<svg id="Layer_1" enable-background="new 0 0 511 511" height="512" viewBox="0 0 511 511" width="512" xmlns="http://www.w3.org/2000/svg"><g><g><g><path d="m255.5 17.637c-94.929 0-153.407 53.546-153.568 53.637 0 0-2.431 3.034-2.886 5.052-3.694 16.396-7.144 38.369-7.144 54.404 0 136.238 114.889 246.654 251.127 246.654 52.462 0 110.83-25.144 149.894-55.376.874-.676 3.646-5.22 3.646-5.22.172-1.051 5.611-22.711 5.611-52.469.001-136.239-110.442-246.682-246.68-246.682z" fill="#afe6ff"/></g><path d="m343.008 370.42c-136.238 0-246.681-110.443-246.681-246.681 0-18.008 1.942-35.554 5.606-52.465-56.733 45.196-93.114 114.873-93.114 193.045 0 56.953 19.3 109.397 51.717 151.15l389.918.02c22.112-28.467 38.162-61.983 46.116-98.701-42.138 33.564-95.503 53.632-153.562 53.632z" fill="#73c8f0"/></g><g><g><ellipse cx="249.657" cy="311.99" fill="#ffa50a" rx="133.46" ry="94.59"/></g><g><ellipse cx="249.657" cy="340.162" fill="#fa870a" rx="93.713" ry="66.419"/></g><path d="m255.206 317.787-100.47 22.3 15.611 155.792c7.839 2.886 15.864 5.386 24.053 7.477l7.763-4.811 5.195 7.747c15.57 3.087 31.667 4.707 48.144 4.707 14.593 0 28.912-1.278 42.845-3.729l4.102-6.238 6.754 4.075c8.077-1.8 16.011-3.996 23.78-6.568l11.962-160.895z" fill="#50555a"/><g><path d="m169.535 416.028c2.246-32.836 28.487-60.688 60.958-67.895l80.8-17.934-56.088-12.411-100.911 22.398v75.843h15.241z" fill="#373c41"/></g><g><g><g><path d="m358.924 220.128h-1l-6.835-33.606 6.835-27.725h1c13.361 0 24.193 10.832 24.193 24.193v12.946c0 13.36-10.831 24.192-24.193 24.192z" fill="#b22e06"/></g></g></g><g><path d="m255.741 424.137c36.165 0 65.483-29.318 65.483-65.483v-26.258l-66.018-14.609-64.948 14.415v26.451c0 36.166 29.318 65.484 65.483 65.484z" fill="#373c41"/></g><g><g><g><path d="m255.741 393.936c20.073 0 36.344-16.272 36.344-36.344v-81.406h-72.689v81.406c0 20.072 16.272 36.344 36.345 36.344z" fill="#c1400e"/></g></g></g><g><g><g><path d="m354.335 148.668c0-33.168-21.278-63.497-54.445-63.497h-88.298c-9.464 0-18.132 2.477-25.694 6.777v175.309c0 38.264 30.776 69.577 69.038 69.867.268.002.537.003.805.003 56.987 0 103.183-46.197 103.183-103.183v-32.575z" fill="#c1400e"/></g></g></g><g><g><g><path d="m358.924 201.09v-23.256c5.066 0 9.174 4.107 9.174 9.174v4.909c0 5.066-4.107 9.173-9.174 9.173z" fill="#872d1e"/></g></g></g><g><g><g><path d="m127.343 195.935c0 13.361 10.832 24.193 24.193 24.193h1.553l12.385-26.092-12.178-35.239h-1.761c-13.361 0-24.193 10.832-24.193 24.193v12.945z" fill="#b22e06"/></g></g></g><g><g><g><path d="m141.695 192.095c0 5.435 4.406 9.841 9.841 9.841v-24.949c-5.435 0-9.841 4.406-9.841 9.841z" fill="#872d1e"/></g></g></g><g><g><g><path d="m135.089 203.195c0 9.083 7.364 16.447 16.447 16.447v-32.694c-9.083 0-16.447 7.364-16.447 16.447z" fill="#fff"/></g></g></g><g><g><g><path d="m211.159 195.385v7.276c0 4.746 3.848 8.594 8.594 8.594s8.594-3.848 8.594-8.594v-7.276z" fill="#b22e06"/></g></g></g><g><g><g><path d="m281.182 195.385v7.276c0 4.746 3.848 8.594 8.594 8.594s8.594-3.848 8.594-8.594v-7.276z" fill="#b22e06"/></g></g></g><g><g><g><path d="m219.753 204.372c-4.746 0-8.594-3.848-8.594-8.594v-11.055l3.168-4.797-3.168-4.797v-2.855c0-4.746 3.848-8.594 8.594-8.594s8.594 3.848 8.594 8.594v23.504c-.001 4.746-3.848 8.594-8.594 8.594z" fill="#373c41"/></g></g></g><g><g><g><path d="m289.776 204.372c-4.746 0-8.594-3.848-8.594-8.594v-11.055l3.168-4.797-3.168-4.797v-2.855c0-4.746 3.848-8.594 8.594-8.594s8.594 3.848 8.594 8.594v23.504c0 4.746-3.848 8.594-8.594 8.594z" fill="#373c41"/></g></g></g><g><g><g><g><path d="m231.075 159.383h-25.062c-4.746 0-8.594-3.848-8.594-8.594 0-4.746 3.848-8.594 8.594-8.594h25.062c4.746 0 8.594 3.848 8.594 8.594 0 4.746-3.848 8.594-8.594 8.594z" fill="#373c41"/></g></g></g></g><g><g><g><g><path d="m302.691 159.383h-25.062c-4.746 0-8.594-3.848-8.594-8.594 0-4.746 3.848-8.594 8.594-8.594h25.062c4.746 0 8.594 3.848 8.594 8.594 0 4.746-3.848 8.594-8.594 8.594z" fill="#373c41"/></g></g></g></g><g><path d="m269.683 14.253h-28.906c-49.286 0-89.241 39.955-89.241 89.241v45.719.003 52.153c7.633 0 13.821-6.188 13.821-13.821v-61.026h179.747v61.026c0 7.633 6.188 13.821 13.821 13.821v-52.153c0-.001 0-.002 0-.003v-45.719c-.001-49.286-39.955-89.241-89.242-89.241z" fill="#c1400e"/></g><g><path d="m214.327 187.892c-1.75 0-3.168-1.418-3.168-3.168v-9.594c0-1.75 1.418-3.168 3.168-3.168 1.75 0 3.168 1.418 3.168 3.168v9.594c0 1.749-1.419 3.168-3.168 3.168z" fill="#fff"/></g><g><path d="m284.35 187.892c-1.75 0-3.168-1.418-3.168-3.168v-9.594c0-1.75 1.418-3.168 3.168-3.168 1.75 0 3.168 1.418 3.168 3.168v9.594c0 1.749-1.418 3.168-3.168 3.168z" fill="#fff"/></g><g><path d="m146.979 242.566c-2.485 0-4.5-2.015-4.5-4.5v-33.693c0-2.485 2.015-4.5 4.5-4.5s4.5 2.015 4.5 4.5v33.693c0 2.485-2.015 4.5-4.5 4.5z" fill="#fff"/></g><g><g><g><path d="m375.371 205.696c0 9.083-7.364 16.447-16.447 16.447v-32.694c9.083 0 16.447 7.364 16.447 16.447z" fill="#fff"/></g></g></g><g><path d="m363.482 245.067c-2.485 0-4.5-2.015-4.5-4.5v-33.693c0-2.485 2.015-4.5 4.5-4.5s4.5 2.015 4.5 4.5v33.693c0 2.485-2.015 4.5-4.5 4.5z" fill="#fff"/></g><g><path d="m186.243 236.9c.256-5.827.296-133.406.296-133.406 0-48.266 38.319-87.576 86.193-89.184-1.012-.034-2.027-.057-3.048-.057h-28.906c-49.286 0-89.241 39.955-89.241 89.241v129.428c0 59.556 49.9 107.227 109.797 104.054-43.381-12.598-75.091-52.632-75.091-100.076z" fill="#b22e06"/></g><g><g><path d="m197.419 112.302h113.867v10h-113.867z" fill="#b22e06"/></g></g><g><g><path d="m197.419 91.884h113.867v10h-113.867z" fill="#b22e06"/></g></g><g><g><g><path d="m241.816 216.572c-2.136 8.531 1.746 17.824 9.171 20.625 1.494.564 3.092.869 4.754.869 1.661 0 3.26-.305 4.754-.869 7.425-2.801 11.308-12.094 9.171-20.625l-7.082-28.282c-1.783-7.12-11.902-7.12-13.685 0z" fill="#b22e06"/></g></g></g><g><g><ellipse cx="252.305" cy="455.421" fill="#ffa50a" rx="50.143" ry="30.622"/></g><path d="m218.04 436.086c-7.636-1.921-17.931 12.844-22.995 32.977-3.552 14.124-3.582 27.13-.649 34.303 4.276 1.09 8.599 2.06 12.961 2.923 5.877-5.071 11.852-16.395 15.342-30.271 5.063-20.133 2.977-38.011-4.659-39.932z" fill="#ffa50a"/><path d="m309.394 469.064c-5.063-20.133-15.359-34.898-22.995-32.977-7.636 1.92-9.722 19.799-4.659 39.932 3.74 14.873 10.336 26.807 16.606 31.259 3.646-.64 7.265-1.362 10.857-2.161 3.752-6.649 4.055-20.69.191-36.053z" fill="#ffa50a"/><g><circle cx="225.035" cy="459.401" fill="#2477f9" r="13.14"/></g><g><circle cx="278.973" cy="459.401" fill="#2477f9" r="13.14"/></g><g><path d="m272.04 427.264c-6.057-1.586-12.728-2.465-19.736-2.465-7.256 0-14.152.943-20.378 2.636v8.045c0 3.078 2.496 5.574 5.574 5.574h28.966c3.078 0 5.574-2.496 5.574-5.574z" fill="#fff"/></g></g><g><path d="m221.671 250.937c0 18.816 15.254 34.069 34.069 34.069 18.816 0 34.07-15.253 34.07-34.069z" fill="#fff"/></g><g><path d="m273.188 0-3.505 14.253-4.217-14.253h-33.514l5.461 70.327h41.136l5.46-70.327z" fill="#64bc0f"/></g><g><path d="m60.546 415.461c25.009 32.211 57.822 58.052 95.604 74.697v-150.385l-37.664 8.36c-32.284 7.165-55.701 34.739-57.94 67.328z" fill="#ffa50a"/><path d="m450.453 415.488c-2.245-32.602-25.683-60.179-57.986-67.327l-45.296-10.023v155.221c40.9-16.391 76.53-43.431 103.282-77.871z" fill="#ffc305"/></g><path d="m156.15 490.158c4.658 2.052 9.384 3.976 14.188 5.743v-108.353l-14.188-12.001z" fill="#fff"/><path d="m347.171 493.359v-119.312l-14.188 10.001v114.499c4.795-1.588 9.525-3.32 14.188-5.188z" fill="#fff"/><g><path d="m170.338 387.762c0-7.198-2.22-14.171-6.095-20.237-5.33-8.344-8.299-17.608-8.299-27.364 0-6.156 1.187-12.115 3.398-17.773h-42.339c4.149 26.886 24.197 50.38 53.335 65.668z" fill="#ffa50a"/></g><g><path d="m339.971 322.389c2.212 5.657 3.398 11.616 3.398 17.773 0 8.286-2.144 16.216-6.056 23.529-2.813 5.258-4.247 11.145-4.247 17.108v5.013c26.912-15.294 45.292-37.817 49.244-63.423z" fill="#ffa50a"/></g></g></g></svg>